<svg xmlns="http://www.w3.org/2000/svg" viewBox="0 0 1200 700" role="img">
<defs>
<linearGradient id="sky" x1="0" y1="0" x2="0" y2="1">
<stop offset="0" stop-color="#0a1026"/><stop offset="0.62" stop-color="#152046"/><stop offset="1" stop-color="#2b3a6b"/>
</linearGradient>
<pattern id="g1" width="120" height="120" patternUnits="userSpaceOnUse"><polygon points="111.6,60.0 80.0,68.3 96.5,96.5 68.3,80.0 60.0,111.6 51.7,80.0 23.5,96.5 40.0,68.3 8.4,60.0 40.0,51.7 23.5,23.5 51.7,40.0 60.0,8.4 68.3,40.0 96.5,23.5 80.0,51.7" fill="none" stroke="#e8d9a8" stroke-width="1.6" opacity="0.1"/><rect x="17.4" y="17.4" width="85.2" height="85.2" fill="none" stroke="#e8d9a8" stroke-width="1.6" opacity="0.06999999999999999" transform="rotate(45 60.0 60.0)"/></pattern>
</defs>
<rect width="1200" height="700" fill="url(#sky)"/>
<rect width="1200" height="700" fill="url(#g1)"/>
<circle cx="43" cy="313" r="1.8" fill="#f7ecd2" opacity="0.44"/><circle cx="917" cy="266" r="1.3" fill="#f7ecd2" opacity="0.57"/><circle cx="56" cy="154" r="0.8" fill="#f7ecd2" opacity="0.59"/><circle cx="940" cy="77" r="0.8" fill="#f7ecd2" opacity="0.65"/><circle cx="809" cy="155" r="1.3" fill="#f7ecd2" opacity="0.80"/><circle cx="983" cy="168" r="1.8" fill="#f7ecd2" opacity="0.79"/><circle cx="622" cy="256" r="1.8" fill="#f7ecd2" opacity="0.67"/><circle cx="806" cy="239" r="1.3" fill="#f7ecd2" opacity="0.69"/><circle cx="1175" cy="177" r="1.8" fill="#f7ecd2" opacity="0.60"/><circle cx="649" cy="250" r="1.8" fill="#f7ecd2" opacity="0.35"/><circle cx="788" cy="198" r="1.8" fill="#f7ecd2" opacity="0.59"/><circle cx="272" cy="241" r="0.8" fill="#f7ecd2" opacity="0.37"/><circle cx="1141" cy="39" r="1.3" fill="#f7ecd2" opacity="0.84"/><circle cx="1115" cy="312" r="1.8" fill="#f7ecd2" opacity="0.65"/><circle cx="554" cy="320" r="1.3" fill="#f7ecd2" opacity="0.65"/><circle cx="538" cy="223" r="1.8" fill="#f7ecd2" opacity="0.59"/><circle cx="707" cy="81" r="1.8" fill="#f7ecd2" opacity="0.52"/><circle cx="1181" cy="214" r="0.8" fill="#f7ecd2" opacity="0.69"/><circle cx="1120" cy="82" r="1.8" fill="#f7ecd2" opacity="0.75"/><circle cx="404" cy="45" r="1.8" fill="#f7ecd2" opacity="0.65"/><circle cx="1073" cy="103" r="0.8" fill="#f7ecd2" opacity="0.54"/><circle cx="847" cy="296" r="0.8" fill="#f7ecd2" opacity="0.47"/><circle cx="86" cy="224" r="1.3" fill="#f7ecd2" opacity="0.49"/><circle cx="1070" cy="187" r="0.8" fill="#f7ecd2" opacity="0.75"/><circle cx="1039" cy="305" r="0.8" fill="#f7ecd2" opacity="0.80"/><circle cx="113" cy="218" r="1.3" fill="#f7ecd2" opacity="0.69"/><circle cx="1052" cy="146" r="1.3" fill="#f7ecd2" opacity="0.77"/><circle cx="136" cy="29" r="0.8" fill="#f7ecd2" opacity="0.79"/><circle cx="605" cy="7" r="0.8" fill="#f7ecd2" opacity="0.70"/><circle cx="179" cy="120" r="1.8" fill="#f7ecd2" opacity="0.65"/><circle cx="418" cy="108" r="1.3" fill="#f7ecd2" opacity="0.79"/><circle cx="2" cy="191" r="1.3" fill="#f7ecd2" opacity="0.67"/><circle cx="971" cy="29" r="1.3" fill="#f7ecd2" opacity="0.44"/><circle cx="1045" cy="2" r="0.8" fill="#f7ecd2" opacity="0.75"/><circle cx="584" cy="50" r="1.3" fill="#f7ecd2" opacity="0.35"/><circle cx="668" cy="333" r="1.8" fill="#f7ecd2" opacity="0.79"/><circle cx="937" cy="231" r="1.3" fill="#f7ecd2" opacity="0.82"/><circle cx="311" cy="264" r="1.8" fill="#f7ecd2" opacity="0.39"/><circle cx="350" cy="172" r="0.8" fill="#f7ecd2" opacity="0.35"/><circle cx="934" cy="315" r="1.3" fill="#f7ecd2" opacity="0.45"/><circle cx="503" cy="273" r="1.8" fill="#f7ecd2" opacity="0.54"/><circle cx="377" cy="166" r="0.8" fill="#f7ecd2" opacity="0.67"/><circle cx="916" cy="274" r="1.8" fill="#f7ecd2" opacity="0.69"/><circle cx="800" cy="137" r="1.3" fill="#f7ecd2" opacity="0.35"/><circle cx="869" cy="295" r="0.8" fill="#f7ecd2" opacity="0.40"/><circle cx="43" cy="248" r="0.8" fill="#f7ecd2" opacity="0.49"/><circle cx="1082" cy="216" r="1.8" fill="#f7ecd2" opacity="0.47"/><circle cx="266" cy="139" r="0.8" fill="#f7ecd2" opacity="0.59"/><circle cx="835" cy="157" r="1.8" fill="#f7ecd2" opacity="0.80"/><circle cx="509" cy="310" r="0.8" fill="#f7ecd2" opacity="0.75"/><circle cx="848" cy="338" r="1.3" fill="#f7ecd2" opacity="0.59"/><circle cx="532" cy="121" r="1.8" fill="#f7ecd2" opacity="0.57"/><circle cx="401" cy="199" r="0.8" fill="#f7ecd2" opacity="0.84"/><circle cx="575" cy="212" r="1.3" fill="#f7ecd2" opacity="0.35"/><circle cx="214" cy="300" r="1.3" fill="#f7ecd2" opacity="0.35"/><circle cx="398" cy="283" r="0.8" fill="#f7ecd2" opacity="0.69"/><circle cx="767" cy="221" r="1.3" fill="#f7ecd2" opacity="0.42"/><circle cx="241" cy="294" r="1.3" fill="#f7ecd2" opacity="0.39"/><circle cx="380" cy="242" r="1.3" fill="#f7ecd2" opacity="0.45"/><circle cx="1064" cy="85" r="0.8" fill="#f7ecd2" opacity="0.75"/><circle cx="980" cy="120" r="42" fill="#f6ecd0" opacity="0.95"/><circle cx="996" cy="112" r="36" fill="url(#sky)" opacity="0.92"/>
<rect x="240" y="410" width="720" height="150" fill="#12141c"/><path d="M 268 560 L 268 472 Q 300 432 332 472 L 332 560 Z" fill="#0c0e14" opacity="0.9"/><path d="M 366 560 L 366 472 Q 398 432 430 472 L 430 560 Z" fill="#0c0e14" opacity="0.9"/><path d="M 464 560 L 464 472 Q 496 432 528 472 L 528 560 Z" fill="#0c0e14" opacity="0.9"/><path d="M 562 560 L 562 472 Q 594 432 626 472 L 626 560 Z" fill="#0c0e14" opacity="0.9"/><path d="M 660 560 L 660 472 Q 692 432 724 472 L 724 560 Z" fill="#0c0e14" opacity="0.9"/><path d="M 758 560 L 758 472 Q 790 432 822 472 L 822 560 Z" fill="#0c0e14" opacity="0.9"/><path d="M 856 560 L 856 472 Q 888 432 920 472 L 920 560 Z" fill="#0c0e14" opacity="0.9"/><path d="M 410 410 C 410 282.5, 495.5 260, 600 260 C 704.5 260, 790 282.5, 790 410 Z" fill="#12141c"/><line x1="600" y1="260" x2="600" y2="238" stroke="#d8b45a" stroke-width="3"/><circle cx="600" cy="234" r="4.5" fill="#d8b45a"/><path d="M 600 220 a 8 8 0 1 0 6 13 a 6.4 6.4 0 1 1 -6 -13 Z" fill="#d8b45a"/><path d="M 345 412 C 345 347.4, 387.75 336.0, 440 336.0 C 492.25 336.0, 535 347.4, 535 412 Z" fill="#12141c"/><line x1="440" y1="336.0" x2="440" y2="314.0" stroke="#d8b45a" stroke-width="3"/><circle cx="440" cy="310.0" r="4.5" fill="#d8b45a"/><path d="M 440 296.0 a 8 8 0 1 0 6 13 a 6.4 6.4 0 1 1 -6 -13 Z" fill="#d8b45a"/><path d="M 665 412 C 665 347.4, 707.75 336.0, 760 336.0 C 812.25 336.0, 855 347.4, 855 412 Z" fill="#12141c"/><line x1="760" y1="336.0" x2="760" y2="314.0" stroke="#d8b45a" stroke-width="3"/><circle cx="760" cy="310.0" r="4.5" fill="#d8b45a"/><path d="M 760 296.0 a 8 8 0 1 0 6 13 a 6.4 6.4 0 1 1 -6 -13 Z" fill="#d8b45a"/><path d="M 270 412 C 270 371.2, 297.0 364.0, 330 364.0 C 363.0 364.0, 390 371.2, 390 412 Z" fill="#12141c"/><line x1="330" y1="364.0" x2="330" y2="342.0" stroke="#d8b45a" stroke-width="3"/><circle cx="330" cy="338.0" r="4.5" fill="#d8b45a"/><path d="M 330 324.0 a 8 8 0 1 0 6 13 a 6.4 6.4 0 1 1 -6 -13 Z" fill="#d8b45a"/><path d="M 810 412 C 810 371.2, 837.0 364.0, 870 364.0 C 903.0 364.0, 930 371.2, 930 412 Z" fill="#12141c"/><line x1="870" y1="364.0" x2="870" y2="342.0" stroke="#d8b45a" stroke-width="3"/><circle cx="870" cy="338.0" r="4.5" fill="#d8b45a"/><path d="M 870 324.0 a 8 8 0 1 0 6 13 a 6.4 6.4 0 1 1 -6 -13 Z" fill="#d8b45a"/><rect x="139.0" y="170" width="22" height="390" fill="#12141c"/><rect x="129.1" y="174" width="41.8" height="7" rx="3" fill="#12141c"/><path d="M 134.6 172 L 150 114 L 165.4 172 Z" fill="#12141c"/>
<rect x="0" y="560" width="1200" height="140" fill="#0c0e14"/>

<rect x="0" y="556" width="1200" height="4" fill="#d8b45a" opacity="0.55"/>
</svg>