<svg xmlns="http://www.w3.org/2000/svg" viewBox="0 0 1200 700" role="img">
<defs>
<linearGradient id="sky" x1="0" y1="0" x2="0" y2="1">
<stop offset="0" stop-color="#1c2c4a"/><stop offset="0.62" stop-color="#3d5a8e"/><stop offset="1" stop-color="#e8c97a"/>
</linearGradient>
<pattern id="g1" width="120" height="120" patternUnits="userSpaceOnUse"><polygon points="111.6,60.0 80.0,68.3 96.5,96.5 68.3,80.0 60.0,111.6 51.7,80.0 23.5,96.5 40.0,68.3 8.4,60.0 40.0,51.7 23.5,23.5 51.7,40.0 60.0,8.4 68.3,40.0 96.5,23.5 80.0,51.7" fill="none" stroke="#e8d9a8" stroke-width="1.6" opacity="0.1"/><rect x="17.4" y="17.4" width="85.2" height="85.2" fill="none" stroke="#e8d9a8" stroke-width="1.6" opacity="0.06999999999999999" transform="rotate(45 60.0 60.0)"/></pattern>
</defs>
<rect width="1200" height="700" fill="url(#sky)"/>
<rect width="1200" height="700" fill="url(#g1)"/>
<circle cx="1044" cy="24" r="0.8" fill="#f7ecd2" opacity="0.41"/><circle cx="790" cy="129" r="1.3" fill="#f7ecd2" opacity="0.45"/><circle cx="385" cy="173" r="0.8" fill="#f7ecd2" opacity="0.40"/><circle cx="957" cy="144" r="0.8" fill="#f7ecd2" opacity="0.43"/><circle cx="850" cy="186" r="1.3" fill="#f7ecd2" opacity="0.35"/><circle cx="376" cy="71" r="0.8" fill="#f7ecd2" opacity="0.81"/><circle cx="711" cy="175" r="1.3" fill="#f7ecd2" opacity="0.60"/><circle cx="103" cy="86" r="0.8" fill="#f7ecd2" opacity="0.43"/><circle cx="256" cy="48" r="1.3" fill="#f7ecd2" opacity="0.73"/><circle cx="762" cy="173" r="1.8" fill="#f7ecd2" opacity="0.61"/><circle cx="637" cy="97" r="1.8" fill="#f7ecd2" opacity="0.74"/><circle cx="49" cy="188" r="0.8" fill="#f7ecd2" opacity="0.47"/><circle cx="462" cy="70" r="1.3" fill="#f7ecd2" opacity="0.75"/><circle cx="748" cy="195" r="1.3" fill="#f7ecd2" opacity="0.45"/><circle cx="163" cy="159" r="1.3" fill="#f7ecd2" opacity="0.52"/><circle cx="795" cy="10" r="1.3" fill="#f7ecd2" opacity="0.35"/><circle cx="268" cy="12" r="1.3" fill="#f7ecd2" opacity="0.51"/><circle cx="334" cy="137" r="0.8" fill="#f7ecd2" opacity="0.43"/><circle cx="489" cy="161" r="1.8" fill="#f7ecd2" opacity="0.64"/><circle cx="1141" cy="192" r="1.3" fill="#f7ecd2" opacity="0.57"/><circle cx="874" cy="114" r="1.3" fill="#f7ecd2" opacity="0.71"/><circle cx="720" cy="19" r="1.3" fill="#f7ecd2" opacity="0.65"/><circle cx="415" cy="83" r="0.8" fill="#f7ecd2" opacity="0.80"/><circle cx="1087" cy="74" r="0.8" fill="#f7ecd2" opacity="0.73"/><circle cx="1080" cy="136" r="1.3" fill="#f7ecd2" opacity="0.65"/><circle cx="706" cy="41" r="0.8" fill="#f7ecd2" opacity="0.81"/><circle cx="1141" cy="165" r="1.3" fill="#f7ecd2" opacity="0.50"/><circle cx="633" cy="96" r="0.8" fill="#f7ecd2" opacity="0.53"/><circle cx="886" cy="78" r="1.3" fill="#f7ecd2" opacity="0.43"/><circle cx="292" cy="203" r="0.8" fill="#f7ecd2" opacity="0.61"/><circle cx="960" cy="210" r="110.00000000000001" fill="#e8c97a" opacity="0.18"/><circle cx="960" cy="210" r="50" fill="#e8c97a" opacity="0.9"/>
<rect x="330" y="370" width="540" height="190" fill="#12141c"/><path d="M 500 560 L 500 300 Q 600 230 700 300 L 700 560 Z" fill="#12141c"/><path d="M 528 560 L 528 320 Q 600 264 672 320 L 672 560 Z" fill="#0c0e14"/><path d="M 552 560 L 552 344 Q 600 298 648 344 L 648 560 Z" fill="#d8b45a" opacity="0.4"/><path d="M 470 370 C 470 268.34, 528.5 250.39999999999998, 600 250.39999999999998 C 671.5 250.39999999999998, 730 268.34, 730 370 Z" fill="#12141c"/><line x1="600" y1="250.39999999999998" x2="600" y2="228.39999999999998" stroke="#d8b45a" stroke-width="3"/><circle cx="600" cy="224.39999999999998" r="4.5" fill="#d8b45a"/><path d="M 600 210.39999999999998 a 8 8 0 1 0 6 13 a 6.4 6.4 0 1 1 -6 -13 Z" fill="#d8b45a"/>
<rect x="0" y="560" width="1200" height="140" fill="#0c0e14"/>

<rect x="0" y="556" width="1200" height="4" fill="#d8b45a" opacity="0.55"/>
</svg>