<svg xmlns="http://www.w3.org/2000/svg" viewBox="0 0 1200 700" role="img">
<defs>
<linearGradient id="sky" x1="0" y1="0" x2="0" y2="1">
<stop offset="0" stop-color="#0a1026"/><stop offset="0.62" stop-color="#152046"/><stop offset="1" stop-color="#2b3a6b"/>
</linearGradient>
<pattern id="g1" width="120" height="120" patternUnits="userSpaceOnUse"><polygon points="111.6,60.0 80.0,68.3 96.5,96.5 68.3,80.0 60.0,111.6 51.7,80.0 23.5,96.5 40.0,68.3 8.4,60.0 40.0,51.7 23.5,23.5 51.7,40.0 60.0,8.4 68.3,40.0 96.5,23.5 80.0,51.7" fill="none" stroke="#e8d9a8" stroke-width="1.6" opacity="0.1"/><rect x="17.4" y="17.4" width="85.2" height="85.2" fill="none" stroke="#e8d9a8" stroke-width="1.6" opacity="0.06999999999999999" transform="rotate(45 60.0 60.0)"/></pattern>
</defs>
<rect width="1200" height="700" fill="url(#sky)"/>
<rect width="1200" height="700" fill="url(#g1)"/>
<circle cx="1197" cy="47" r="1.8" fill="#f7ecd2" opacity="0.44"/><circle cx="1159" cy="288" r="1.3" fill="#f7ecd2" opacity="0.77"/><circle cx="922" cy="140" r="0.8" fill="#f7ecd2" opacity="0.65"/><circle cx="558" cy="135" r="0.8" fill="#f7ecd2" opacity="0.65"/><circle cx="523" cy="129" r="1.3" fill="#f7ecd2" opacity="0.52"/><circle cx="505" cy="310" r="1.8" fill="#f7ecd2" opacity="0.35"/><circle cx="528" cy="62" r="1.8" fill="#f7ecd2" opacity="0.71"/><circle cx="1144" cy="177" r="1.3" fill="#f7ecd2" opacity="0.73"/><circle cx="649" cy="191" r="0.8" fill="#f7ecd2" opacity="0.44"/><circle cx="651" cy="312" r="0.8" fill="#f7ecd2" opacity="0.47"/><circle cx="934" cy="304" r="1.8" fill="#f7ecd2" opacity="0.71"/><circle cx="130" cy="259" r="1.8" fill="#f7ecd2" opacity="0.55"/><circle cx="375" cy="93" r="0.8" fill="#f7ecd2" opacity="0.60"/><circle cx="397" cy="154" r="1.8" fill="#f7ecd2" opacity="0.73"/><circle cx="940" cy="46" r="1.8" fill="#f7ecd2" opacity="0.75"/><circle cx="1116" cy="121" r="1.3" fill="#f7ecd2" opacity="0.71"/><circle cx="901" cy="315" r="1.3" fill="#f7ecd2" opacity="0.50"/><circle cx="943" cy="316" r="1.8" fill="#f7ecd2" opacity="0.73"/><circle cx="546" cy="308" r="1.8" fill="#f7ecd2" opacity="0.53"/><circle cx="502" cy="23" r="0.8" fill="#f7ecd2" opacity="0.81"/><circle cx="1027" cy="37" r="1.8" fill="#f7ecd2" opacity="0.84"/><circle cx="1089" cy="318" r="0.8" fill="#f7ecd2" opacity="0.37"/><circle cx="952" cy="210" r="1.3" fill="#f7ecd2" opacity="0.55"/><circle cx="688" cy="245" r="0.8" fill="#f7ecd2" opacity="0.45"/><circle cx="753" cy="279" r="0.8" fill="#f7ecd2" opacity="0.72"/><circle cx="835" cy="160" r="1.8" fill="#f7ecd2" opacity="0.35"/><circle cx="958" cy="292" r="1.8" fill="#f7ecd2" opacity="0.71"/><circle cx="474" cy="307" r="1.3" fill="#f7ecd2" opacity="0.53"/><circle cx="79" cy="21" r="1.3" fill="#f7ecd2" opacity="0.44"/><circle cx="181" cy="182" r="0.8" fill="#f7ecd2" opacity="0.77"/><circle cx="564" cy="214" r="1.3" fill="#f7ecd2" opacity="0.81"/><circle cx="1060" cy="9" r="1.3" fill="#f7ecd2" opacity="0.75"/><circle cx="205" cy="83" r="0.8" fill="#f7ecd2" opacity="0.50"/><circle cx="327" cy="184" r="1.3" fill="#f7ecd2" opacity="0.53"/><circle cx="970" cy="116" r="0.8" fill="#f7ecd2" opacity="0.55"/><circle cx="46" cy="91" r="1.8" fill="#f7ecd2" opacity="0.71"/><circle cx="1131" cy="125" r="1.8" fill="#f7ecd2" opacity="0.60"/><circle cx="73" cy="26" r="0.8" fill="#f7ecd2" opacity="0.83"/><circle cx="976" cy="198" r="1.3" fill="#f7ecd2" opacity="0.83"/><circle cx="1032" cy="293" r="1.8" fill="#f7ecd2" opacity="0.61"/><circle cx="457" cy="207" r="1.3" fill="#f7ecd2" opacity="0.84"/><circle cx="619" cy="188" r="0.8" fill="#f7ecd2" opacity="0.57"/><circle cx="582" cy="120" r="0.8" fill="#f7ecd2" opacity="0.75"/><circle cx="418" cy="195" r="1.3" fill="#f7ecd2" opacity="0.45"/><circle cx="583" cy="269" r="0.8" fill="#f7ecd2" opacity="0.62"/><circle cx="765" cy="190" r="1.3" fill="#f7ecd2" opacity="0.35"/><circle cx="988" cy="22" r="1.8" fill="#f7ecd2" opacity="0.71"/><circle cx="604" cy="77" r="0.8" fill="#f7ecd2" opacity="0.43"/><circle cx="309" cy="171" r="0.8" fill="#f7ecd2" opacity="0.74"/><circle cx="511" cy="32" r="0.8" fill="#f7ecd2" opacity="0.37"/><circle cx="994" cy="104" r="0.8" fill="#f7ecd2" opacity="0.61"/><circle cx="390" cy="139" r="1.3" fill="#f7ecd2" opacity="0.45"/><circle cx="835" cy="53" r="0.8" fill="#f7ecd2" opacity="0.40"/><circle cx="1057" cy="194" r="0.8" fill="#f7ecd2" opacity="0.43"/><circle cx="600" cy="26" r="1.8" fill="#f7ecd2" opacity="0.35"/><circle cx="976" cy="181" r="1.8" fill="#f7ecd2" opacity="0.41"/><circle cx="961" cy="115" r="1.8" fill="#f7ecd2" opacity="0.50"/><circle cx="3" cy="56" r="1.8" fill="#f7ecd2" opacity="0.53"/><circle cx="1006" cy="268" r="1.8" fill="#f7ecd2" opacity="0.43"/><circle cx="1162" cy="63" r="1.3" fill="#f7ecd2" opacity="0.41"/><circle cx="980" cy="120" r="42" fill="#f6ecd0" opacity="0.95"/><circle cx="996" cy="112" r="36" fill="url(#sky)" opacity="0.92"/>
<rect x="330" y="370" width="540" height="190" fill="#12141c"/><path d="M 500 560 L 500 300 Q 600 230 700 300 L 700 560 Z" fill="#12141c"/><path d="M 528 560 L 528 320 Q 600 264 672 320 L 672 560 Z" fill="#0c0e14"/><path d="M 552 560 L 552 344 Q 600 298 648 344 L 648 560 Z" fill="#d8b45a" opacity="0.4"/><path d="M 470 370 C 470 268.34, 528.5 250.39999999999998, 600 250.39999999999998 C 671.5 250.39999999999998, 730 268.34, 730 370 Z" fill="#12141c"/><line x1="600" y1="250.39999999999998" x2="600" y2="228.39999999999998" stroke="#d8b45a" stroke-width="3"/><circle cx="600" cy="224.39999999999998" r="4.5" fill="#d8b45a"/><path d="M 600 210.39999999999998 a 8 8 0 1 0 6 13 a 6.4 6.4 0 1 1 -6 -13 Z" fill="#d8b45a"/>
<rect x="0" y="560" width="1200" height="140" fill="#0c0e14"/>

<rect x="0" y="556" width="1200" height="4" fill="#d8b45a" opacity="0.55"/>
</svg>