<svg xmlns="http://www.w3.org/2000/svg" viewBox="0 0 1200 700" role="img">
<defs>
<linearGradient id="sky" x1="0" y1="0" x2="0" y2="1">
<stop offset="0" stop-color="#0a1026"/><stop offset="0.62" stop-color="#152046"/><stop offset="1" stop-color="#2b3a6b"/>
</linearGradient>
<pattern id="g1" width="120" height="120" patternUnits="userSpaceOnUse"><polygon points="111.6,60.0 80.0,68.3 96.5,96.5 68.3,80.0 60.0,111.6 51.7,80.0 23.5,96.5 40.0,68.3 8.4,60.0 40.0,51.7 23.5,23.5 51.7,40.0 60.0,8.4 68.3,40.0 96.5,23.5 80.0,51.7" fill="none" stroke="#e8d9a8" stroke-width="1.6" opacity="0.1"/><rect x="17.4" y="17.4" width="85.2" height="85.2" fill="none" stroke="#e8d9a8" stroke-width="1.6" opacity="0.06999999999999999" transform="rotate(45 60.0 60.0)"/></pattern>
</defs>
<rect width="1200" height="700" fill="url(#sky)"/>
<rect width="1200" height="700" fill="url(#g1)"/>
<circle cx="799" cy="289" r="1.8" fill="#f7ecd2" opacity="0.46"/><circle cx="905" cy="234" r="1.8" fill="#f7ecd2" opacity="0.55"/><circle cx="380" cy="338" r="1.3" fill="#f7ecd2" opacity="0.75"/><circle cx="592" cy="169" r="1.8" fill="#f7ecd2" opacity="0.83"/><circle cx="605" cy="291" r="1.8" fill="#f7ecd2" opacity="0.40"/><circle cx="491" cy="216" r="1.8" fill="#f7ecd2" opacity="0.41"/><circle cx="706" cy="140" r="0.8" fill="#f7ecd2" opacity="0.75"/><circle cx="938" cy="251" r="1.3" fill="#f7ecd2" opacity="0.73"/><circle cx="11" cy="133" r="0.8" fill="#f7ecd2" opacity="0.48"/><circle cx="877" cy="178" r="1.8" fill="#f7ecd2" opacity="0.41"/><circle cx="632" cy="122" r="1.3" fill="#f7ecd2" opacity="0.39"/><circle cx="884" cy="173" r="1.3" fill="#f7ecd2" opacity="0.67"/><circle cx="217" cy="295" r="1.8" fill="#f7ecd2" opacity="0.50"/><circle cx="863" cy="320" r="1.3" fill="#f7ecd2" opacity="0.45"/><circle cx="158" cy="284" r="1.3" fill="#f7ecd2" opacity="0.57"/><circle cx="430" cy="275" r="0.8" fill="#f7ecd2" opacity="0.35"/><circle cx="23" cy="297" r="1.8" fill="#f7ecd2" opacity="0.66"/><circle cx="449" cy="302" r="1.3" fill="#f7ecd2" opacity="0.83"/><circle cx="484" cy="86" r="0.8" fill="#f7ecd2" opacity="0.59"/><circle cx="776" cy="17" r="1.3" fill="#f7ecd2" opacity="0.77"/><circle cx="629" cy="279" r="1.8" fill="#f7ecd2" opacity="0.76"/><circle cx="835" cy="264" r="1.3" fill="#f7ecd2" opacity="0.75"/><circle cx="410" cy="68" r="1.3" fill="#f7ecd2" opacity="0.65"/><circle cx="722" cy="279" r="1.8" fill="#f7ecd2" opacity="0.73"/><circle cx="835" cy="101" r="0.8" fill="#f7ecd2" opacity="0.70"/><circle cx="821" cy="66" r="1.8" fill="#f7ecd2" opacity="0.71"/><circle cx="1136" cy="30" r="1.8" fill="#f7ecd2" opacity="0.65"/><circle cx="268" cy="41" r="0.8" fill="#f7ecd2" opacity="0.73"/><circle cx="641" cy="103" r="0.8" fill="#f7ecd2" opacity="0.58"/><circle cx="407" cy="48" r="1.8" fill="#f7ecd2" opacity="0.71"/><circle cx="262" cy="32" r="0.8" fill="#f7ecd2" opacity="0.69"/><circle cx="614" cy="123" r="1.8" fill="#f7ecd2" opacity="0.57"/><circle cx="47" cy="285" r="1.8" fill="#f7ecd2" opacity="0.80"/><circle cx="793" cy="10" r="1.8" fill="#f7ecd2" opacity="0.65"/><circle cx="188" cy="14" r="1.3" fill="#f7ecd2" opacity="0.67"/><circle cx="560" cy="45" r="1.8" fill="#f7ecd2" opacity="0.35"/><circle cx="253" cy="107" r="0.8" fill="#f7ecd2" opacity="0.56"/><circle cx="779" cy="152" r="1.3" fill="#f7ecd2" opacity="0.43"/><circle cx="914" cy="316" r="0.8" fill="#f7ecd2" opacity="0.59"/><circle cx="106" cy="147" r="1.3" fill="#f7ecd2" opacity="0.67"/><circle cx="59" cy="109" r="0.8" fill="#f7ecd2" opacity="0.66"/><circle cx="365" cy="134" r="1.3" fill="#f7ecd2" opacity="0.45"/><circle cx="40" cy="318" r="1.3" fill="#f7ecd2" opacity="0.55"/><circle cx="452" cy="229" r="0.8" fill="#f7ecd2" opacity="0.43"/><circle cx="665" cy="91" r="0.8" fill="#f7ecd2" opacity="0.50"/><circle cx="751" cy="96" r="1.3" fill="#f7ecd2" opacity="0.81"/><circle cx="1166" cy="100" r="0.8" fill="#f7ecd2" opacity="0.35"/><circle cx="398" cy="151" r="0.8" fill="#f7ecd2" opacity="0.83"/><circle cx="871" cy="253" r="1.8" fill="#f7ecd2" opacity="0.48"/><circle cx="737" cy="238" r="0.8" fill="#f7ecd2" opacity="0.41"/><circle cx="692" cy="262" r="0.8" fill="#f7ecd2" opacity="0.39"/><circle cx="1144" cy="53" r="0.8" fill="#f7ecd2" opacity="0.67"/><circle cx="677" cy="255" r="1.8" fill="#f7ecd2" opacity="0.70"/><circle cx="323" cy="220" r="0.8" fill="#f7ecd2" opacity="0.45"/><circle cx="1018" cy="64" r="1.8" fill="#f7ecd2" opacity="0.37"/><circle cx="290" cy="335" r="1.3" fill="#f7ecd2" opacity="0.35"/><circle cx="83" cy="97" r="0.8" fill="#f7ecd2" opacity="0.36"/><circle cx="709" cy="182" r="0.8" fill="#f7ecd2" opacity="0.73"/><circle cx="944" cy="46" r="0.8" fill="#f7ecd2" opacity="0.59"/><circle cx="236" cy="257" r="1.3" fill="#f7ecd2" opacity="0.37"/><circle cx="980" cy="120" r="42" fill="#f6ecd0" opacity="0.95"/><circle cx="996" cy="112" r="36" fill="url(#sky)" opacity="0.92"/>
<rect x="330" y="370" width="540" height="190" fill="#12141c"/><path d="M 500 560 L 500 300 Q 600 230 700 300 L 700 560 Z" fill="#12141c"/><path d="M 528 560 L 528 320 Q 600 264 672 320 L 672 560 Z" fill="#0c0e14"/><path d="M 552 560 L 552 344 Q 600 298 648 344 L 648 560 Z" fill="#d8b45a" opacity="0.4"/><path d="M 470 370 C 470 268.34, 528.5 250.39999999999998, 600 250.39999999999998 C 671.5 250.39999999999998, 730 268.34, 730 370 Z" fill="#12141c"/><line x1="600" y1="250.39999999999998" x2="600" y2="228.39999999999998" stroke="#d8b45a" stroke-width="3"/><circle cx="600" cy="224.39999999999998" r="4.5" fill="#d8b45a"/><path d="M 600 210.39999999999998 a 8 8 0 1 0 6 13 a 6.4 6.4 0 1 1 -6 -13 Z" fill="#d8b45a"/>
<rect x="0" y="560" width="1200" height="140" fill="#0c0e14"/>

<rect x="0" y="556" width="1200" height="4" fill="#d8b45a" opacity="0.55"/>
</svg>