<svg xmlns="http://www.w3.org/2000/svg" viewBox="0 0 1200 700" role="img">
<defs>
<linearGradient id="sky" x1="0" y1="0" x2="0" y2="1">
<stop offset="0" stop-color="#0a1026"/><stop offset="0.62" stop-color="#152046"/><stop offset="1" stop-color="#2b3a6b"/>
</linearGradient>
<pattern id="g1" width="120" height="120" patternUnits="userSpaceOnUse"><polygon points="111.6,60.0 80.0,68.3 96.5,96.5 68.3,80.0 60.0,111.6 51.7,80.0 23.5,96.5 40.0,68.3 8.4,60.0 40.0,51.7 23.5,23.5 51.7,40.0 60.0,8.4 68.3,40.0 96.5,23.5 80.0,51.7" fill="none" stroke="#e8d9a8" stroke-width="1.6" opacity="0.1"/><rect x="17.4" y="17.4" width="85.2" height="85.2" fill="none" stroke="#e8d9a8" stroke-width="1.6" opacity="0.06999999999999999" transform="rotate(45 60.0 60.0)"/></pattern>
</defs>
<rect width="1200" height="700" fill="url(#sky)"/>
<rect width="1200" height="700" fill="url(#g1)"/>
<circle cx="262" cy="302" r="0.8" fill="#f7ecd2" opacity="0.59"/><circle cx="104" cy="223" r="0.8" fill="#f7ecd2" opacity="0.77"/><circle cx="707" cy="275" r="1.3" fill="#f7ecd2" opacity="0.60"/><circle cx="463" cy="250" r="1.8" fill="#f7ecd2" opacity="0.35"/><circle cx="788" cy="184" r="0.8" fill="#f7ecd2" opacity="0.77"/><circle cx="650" cy="45" r="1.8" fill="#f7ecd2" opacity="0.35"/><circle cx="313" cy="197" r="0.8" fill="#f7ecd2" opacity="0.46"/><circle cx="1049" cy="292" r="0.8" fill="#f7ecd2" opacity="0.43"/><circle cx="914" cy="246" r="1.8" fill="#f7ecd2" opacity="0.79"/><circle cx="796" cy="47" r="0.8" fill="#f7ecd2" opacity="0.47"/><circle cx="719" cy="99" r="1.8" fill="#f7ecd2" opacity="0.66"/><circle cx="35" cy="34" r="0.8" fill="#f7ecd2" opacity="0.75"/><circle cx="640" cy="148" r="1.8" fill="#f7ecd2" opacity="0.55"/><circle cx="542" cy="229" r="0.8" fill="#f7ecd2" opacity="0.53"/><circle cx="725" cy="181" r="0.8" fill="#f7ecd2" opacity="0.60"/><circle cx="1021" cy="236" r="0.8" fill="#f7ecd2" opacity="0.41"/><circle cx="1166" cy="30" r="1.8" fill="#f7ecd2" opacity="0.65"/><circle cx="1088" cy="51" r="1.8" fill="#f7ecd2" opacity="0.73"/><circle cx="331" cy="103" r="1.8" fill="#f7ecd2" opacity="0.78"/><circle cx="407" cy="138" r="1.8" fill="#f7ecd2" opacity="0.51"/><circle cx="92" cy="292" r="0.8" fill="#f7ecd2" opacity="0.49"/><circle cx="34" cy="253" r="1.8" fill="#f7ecd2" opacity="0.37"/><circle cx="737" cy="5" r="1.3" fill="#f7ecd2" opacity="0.70"/><circle cx="593" cy="20" r="1.3" fill="#f7ecd2" opacity="0.45"/><circle cx="1018" cy="334" r="1.8" fill="#f7ecd2" opacity="0.47"/><circle cx="980" cy="235" r="0.8" fill="#f7ecd2" opacity="0.35"/><circle cx="743" cy="87" r="1.8" fill="#f7ecd2" opacity="0.76"/><circle cx="379" cy="82" r="1.8" fill="#f7ecd2" opacity="0.63"/><circle cx="344" cy="76" r="0.8" fill="#f7ecd2" opacity="0.79"/><circle cx="326" cy="257" r="1.3" fill="#f7ecd2" opacity="0.67"/><circle cx="349" cy="9" r="1.3" fill="#f7ecd2" opacity="0.76"/><circle cx="965" cy="124" r="0.8" fill="#f7ecd2" opacity="0.45"/><circle cx="470" cy="138" r="1.8" fill="#f7ecd2" opacity="0.45"/><circle cx="472" cy="259" r="1.8" fill="#f7ecd2" opacity="0.83"/><circle cx="755" cy="251" r="1.3" fill="#f7ecd2" opacity="0.40"/><circle cx="1151" cy="6" r="1.8" fill="#f7ecd2" opacity="0.41"/><circle cx="196" cy="40" r="1.8" fill="#f7ecd2" opacity="0.75"/><circle cx="218" cy="101" r="1.3" fill="#f7ecd2" opacity="0.53"/><circle cx="761" cy="333" r="1.8" fill="#f7ecd2" opacity="0.48"/><circle cx="937" cy="68" r="0.8" fill="#f7ecd2" opacity="0.51"/><circle cx="722" cy="262" r="0.8" fill="#f7ecd2" opacity="0.49"/><circle cx="764" cy="263" r="1.3" fill="#f7ecd2" opacity="0.67"/><circle cx="367" cy="255" r="1.3" fill="#f7ecd2" opacity="0.70"/><circle cx="323" cy="310" r="0.8" fill="#f7ecd2" opacity="0.65"/><circle cx="848" cy="324" r="1.8" fill="#f7ecd2" opacity="0.37"/><circle cx="910" cy="265" r="1.8" fill="#f7ecd2" opacity="0.35"/><circle cx="773" cy="157" r="0.8" fill="#f7ecd2" opacity="0.46"/><circle cx="509" cy="192" r="1.8" fill="#f7ecd2" opacity="0.63"/><circle cx="574" cy="226" r="1.8" fill="#f7ecd2" opacity="0.59"/><circle cx="656" cy="107" r="1.3" fill="#f7ecd2" opacity="0.77"/><circle cx="779" cy="239" r="1.3" fill="#f7ecd2" opacity="0.66"/><circle cx="295" cy="254" r="0.8" fill="#f7ecd2" opacity="0.65"/><circle cx="1100" cy="108" r="1.8" fill="#f7ecd2" opacity="0.35"/><circle cx="2" cy="129" r="1.8" fill="#f7ecd2" opacity="0.43"/><circle cx="385" cy="161" r="0.8" fill="#f7ecd2" opacity="0.70"/><circle cx="881" cy="296" r="1.3" fill="#f7ecd2" opacity="0.61"/><circle cx="26" cy="30" r="1.8" fill="#f7ecd2" opacity="0.65"/><circle cx="148" cy="131" r="0.8" fill="#f7ecd2" opacity="0.73"/><circle cx="791" cy="63" r="1.8" fill="#f7ecd2" opacity="0.68"/><circle cx="1067" cy="178" r="0.8" fill="#f7ecd2" opacity="0.61"/><circle cx="980" cy="120" r="42" fill="#f6ecd0" opacity="0.95"/><circle cx="996" cy="112" r="36" fill="url(#sky)" opacity="0.92"/>
<rect x="330" y="370" width="540" height="190" fill="#12141c"/><path d="M 500 560 L 500 300 Q 600 230 700 300 L 700 560 Z" fill="#12141c"/><path d="M 528 560 L 528 320 Q 600 264 672 320 L 672 560 Z" fill="#0c0e14"/><path d="M 552 560 L 552 344 Q 600 298 648 344 L 648 560 Z" fill="#d8b45a" opacity="0.4"/><path d="M 470 370 C 470 268.34, 528.5 250.39999999999998, 600 250.39999999999998 C 671.5 250.39999999999998, 730 268.34, 730 370 Z" fill="#12141c"/><line x1="600" y1="250.39999999999998" x2="600" y2="228.39999999999998" stroke="#d8b45a" stroke-width="3"/><circle cx="600" cy="224.39999999999998" r="4.5" fill="#d8b45a"/><path d="M 600 210.39999999999998 a 8 8 0 1 0 6 13 a 6.4 6.4 0 1 1 -6 -13 Z" fill="#d8b45a"/>
<rect x="0" y="560" width="1200" height="140" fill="#0c0e14"/>

<rect x="0" y="556" width="1200" height="4" fill="#d8b45a" opacity="0.55"/>
</svg>