<svg xmlns="http://www.w3.org/2000/svg" viewBox="0 0 1200 700" role="img">
<defs>
<linearGradient id="sky" x1="0" y1="0" x2="0" y2="1">
<stop offset="0" stop-color="#123047"/><stop offset="0.62" stop-color="#2a6f8f"/><stop offset="1" stop-color="#f2c14e"/>
</linearGradient>
<pattern id="g1" width="120" height="120" patternUnits="userSpaceOnUse"><polygon points="111.6,60.0 80.0,68.3 96.5,96.5 68.3,80.0 60.0,111.6 51.7,80.0 23.5,96.5 40.0,68.3 8.4,60.0 40.0,51.7 23.5,23.5 51.7,40.0 60.0,8.4 68.3,40.0 96.5,23.5 80.0,51.7" fill="none" stroke="#e8d9a8" stroke-width="1.6" opacity="0.1"/><rect x="17.4" y="17.4" width="85.2" height="85.2" fill="none" stroke="#e8d9a8" stroke-width="1.6" opacity="0.06999999999999999" transform="rotate(45 60.0 60.0)"/></pattern>
</defs>
<rect width="1200" height="700" fill="url(#sky)"/>
<rect width="1200" height="700" fill="url(#g1)"/>
<circle cx="1187" cy="57" r="1.8" fill="#f7ecd2" opacity="0.44"/><circle cx="429" cy="158" r="1.8" fill="#f7ecd2" opacity="0.67"/><circle cx="432" cy="90" r="0.8" fill="#f7ecd2" opacity="0.65"/><circle cx="788" cy="185" r="1.3" fill="#f7ecd2" opacity="0.65"/><circle cx="513" cy="79" r="1.3" fill="#f7ecd2" opacity="0.62"/><circle cx="975" cy="160" r="1.3" fill="#f7ecd2" opacity="0.35"/><circle cx="38" cy="212" r="1.3" fill="#f7ecd2" opacity="0.41"/><circle cx="174" cy="87" r="0.8" fill="#f7ecd2" opacity="0.73"/><circle cx="639" cy="41" r="1.8" fill="#f7ecd2" opacity="0.84"/><circle cx="1121" cy="82" r="0.8" fill="#f7ecd2" opacity="0.57"/><circle cx="444" cy="54" r="0.8" fill="#f7ecd2" opacity="0.61"/><circle cx="360" cy="149" r="1.8" fill="#f7ecd2" opacity="0.75"/><circle cx="365" cy="143" r="1.3" fill="#f7ecd2" opacity="0.80"/><circle cx="867" cy="144" r="0.8" fill="#f7ecd2" opacity="0.83"/><circle cx="450" cy="36" r="0.8" fill="#f7ecd2" opacity="0.35"/><circle cx="146" cy="131" r="1.3" fill="#f7ecd2" opacity="0.61"/><circle cx="891" cy="185" r="1.8" fill="#f7ecd2" opacity="0.70"/><circle cx="213" cy="126" r="0.8" fill="#f7ecd2" opacity="0.73"/><circle cx="56" cy="158" r="1.3" fill="#f7ecd2" opacity="0.83"/><circle cx="732" cy="53" r="1.8" fill="#f7ecd2" opacity="0.81"/><circle cx="1017" cy="147" r="0.8" fill="#f7ecd2" opacity="0.84"/><circle cx="359" cy="48" r="1.8" fill="#f7ecd2" opacity="0.67"/><circle cx="462" cy="0" r="0.8" fill="#f7ecd2" opacity="0.35"/><circle cx="918" cy="115" r="1.3" fill="#f7ecd2" opacity="0.55"/><circle cx="743" cy="29" r="1.3" fill="#f7ecd2" opacity="0.82"/><circle cx="105" cy="110" r="1.8" fill="#f7ecd2" opacity="0.35"/><circle cx="468" cy="202" r="1.3" fill="#f7ecd2" opacity="0.71"/><circle cx="704" cy="97" r="0.8" fill="#f7ecd2" opacity="0.73"/><circle cx="69" cy="51" r="0.8" fill="#f7ecd2" opacity="0.54"/><circle cx="651" cy="112" r="1.3" fill="#f7ecd2" opacity="0.47"/><circle cx="960" cy="210" r="110.00000000000001" fill="#f2c14e" opacity="0.18"/><circle cx="960" cy="210" r="50" fill="#f2c14e" opacity="0.9"/>
<rect x="300" y="430" width="620" height="130" fill="#12141c"/><path d="M 330 560 L 330 490 Q 360 448 390 490 L 390 560 Z" fill="#0c0e14" opacity="0.9"/><path d="M 426 560 L 426 490 Q 456 448 486 490 L 486 560 Z" fill="#0c0e14" opacity="0.9"/><path d="M 522 560 L 522 490 Q 552 448 582 490 L 582 560 Z" fill="#0c0e14" opacity="0.9"/><path d="M 618 560 L 618 490 Q 648 448 678 490 L 678 560 Z" fill="#0c0e14" opacity="0.9"/><path d="M 714 560 L 714 490 Q 744 448 774 490 L 774 560 Z" fill="#0c0e14" opacity="0.9"/><path d="M 810 560 L 810 490 Q 840 448 870 490 L 870 560 Z" fill="#0c0e14" opacity="0.9"/><path d="M 300 430 L 920 430 L 920 410 L 300 410 Z" fill="#d8b45a" opacity="0.6"/><rect x="563.0" y="90" width="74" height="470" fill="#12141c"/><rect x="576.32" y="64" width="47.36" height="26" fill="#12141c"/><circle cx="600" cy="56" r="6" fill="#d8b45a"/><circle cx="600" cy="44" r="4.5" fill="#d8b45a"/><circle cx="600" cy="34" r="3" fill="#d8b45a"/><rect x="566" y="230" width="68" height="60" fill="#d8b45a" opacity="0.35"/><rect x="0" y="560" width="1200" height="60" fill="#0c0e14" opacity="0.6"/>
<rect x="0" y="560" width="1200" height="140" fill="#0c0e14"/>
<rect x="0" y="580" width="1200" height="120" fill="#2a6f8f" opacity="0.45"/><g opacity="0.35"><line x1="80" y1="600" x2="170" y2="600" stroke="#f2e6c8" stroke-width="2"/><line x1="220" y1="624" x2="310" y2="624" stroke="#f2e6c8" stroke-width="2"/><line x1="360" y1="648" x2="450" y2="648" stroke="#f2e6c8" stroke-width="2"/><line x1="500" y1="600" x2="590" y2="600" stroke="#f2e6c8" stroke-width="2"/><line x1="640" y1="624" x2="730" y2="624" stroke="#f2e6c8" stroke-width="2"/><line x1="780" y1="648" x2="870" y2="648" stroke="#f2e6c8" stroke-width="2"/><line x1="920" y1="600" x2="1010" y2="600" stroke="#f2e6c8" stroke-width="2"/><line x1="1060" y1="624" x2="1150" y2="624" stroke="#f2e6c8" stroke-width="2"/></g>
<rect x="0" y="556" width="1200" height="4" fill="#d8b45a" opacity="0.55"/>
</svg>