<svg xmlns="http://www.w3.org/2000/svg" viewBox="0 0 1200 700" role="img">
<defs>
<linearGradient id="sky" x1="0" y1="0" x2="0" y2="1">
<stop offset="0" stop-color="#123047"/><stop offset="0.62" stop-color="#2a6f8f"/><stop offset="1" stop-color="#f2c14e"/>
</linearGradient>
<pattern id="g1" width="120" height="120" patternUnits="userSpaceOnUse"><polygon points="111.6,60.0 80.0,68.3 96.5,96.5 68.3,80.0 60.0,111.6 51.7,80.0 23.5,96.5 40.0,68.3 8.4,60.0 40.0,51.7 23.5,23.5 51.7,40.0 60.0,8.4 68.3,40.0 96.5,23.5 80.0,51.7" fill="none" stroke="#e8d9a8" stroke-width="1.6" opacity="0.1"/><rect x="17.4" y="17.4" width="85.2" height="85.2" fill="none" stroke="#e8d9a8" stroke-width="1.6" opacity="0.06999999999999999" transform="rotate(45 60.0 60.0)"/></pattern>
</defs>
<rect width="1200" height="700" fill="url(#sky)"/>
<rect width="1200" height="700" fill="url(#g1)"/>
<circle cx="300" cy="60" r="0.8" fill="#f7ecd2" opacity="0.35"/><circle cx="478" cy="137" r="0.8" fill="#f7ecd2" opacity="0.71"/><circle cx="409" cy="37" r="1.8" fill="#f7ecd2" opacity="0.68"/><circle cx="309" cy="76" r="1.3" fill="#f7ecd2" opacity="0.69"/><circle cx="346" cy="182" r="0.8" fill="#f7ecd2" opacity="0.57"/><circle cx="784" cy="179" r="0.8" fill="#f7ecd2" opacity="0.71"/><circle cx="495" cy="79" r="1.3" fill="#f7ecd2" opacity="0.40"/><circle cx="1135" cy="178" r="1.8" fill="#f7ecd2" opacity="0.65"/><circle cx="1192" cy="24" r="1.3" fill="#f7ecd2" opacity="0.43"/><circle cx="690" cy="141" r="0.8" fill="#f7ecd2" opacity="0.75"/><circle cx="181" cy="41" r="0.8" fill="#f7ecd2" opacity="0.56"/><circle cx="361" cy="180" r="1.3" fill="#f7ecd2" opacity="0.65"/><circle cx="438" cy="206" r="1.8" fill="#f7ecd2" opacity="0.63"/><circle cx="196" cy="23" r="0.8" fill="#f7ecd2" opacity="0.43"/><circle cx="667" cy="163" r="1.8" fill="#f7ecd2" opacity="0.56"/><circle cx="387" cy="122" r="1.8" fill="#f7ecd2" opacity="0.49"/><circle cx="484" cy="108" r="1.3" fill="#f7ecd2" opacity="0.57"/><circle cx="502" cy="65" r="0.8" fill="#f7ecd2" opacity="0.65"/><circle cx="753" cy="205" r="1.3" fill="#f7ecd2" opacity="0.50"/><circle cx="13" cy="204" r="1.3" fill="#f7ecd2" opacity="0.37"/><circle cx="130" cy="150" r="1.3" fill="#f7ecd2" opacity="0.35"/><circle cx="408" cy="27" r="0.8" fill="#f7ecd2" opacity="0.51"/><circle cx="439" cy="167" r="0.8" fill="#f7ecd2" opacity="0.48"/><circle cx="439" cy="6" r="1.3" fill="#f7ecd2" opacity="0.69"/><circle cx="576" cy="132" r="0.8" fill="#f7ecd2" opacity="0.67"/><circle cx="1114" cy="149" r="0.8" fill="#f7ecd2" opacity="0.71"/><circle cx="925" cy="69" r="1.3" fill="#f7ecd2" opacity="0.60"/><circle cx="465" cy="168" r="0.8" fill="#f7ecd2" opacity="0.55"/><circle cx="622" cy="34" r="1.8" fill="#f7ecd2" opacity="0.83"/><circle cx="220" cy="171" r="1.3" fill="#f7ecd2" opacity="0.55"/><circle cx="960" cy="210" r="110.00000000000001" fill="#f2c14e" opacity="0.18"/><circle cx="960" cy="210" r="50" fill="#f2c14e" opacity="0.9"/>
<rect x="300" y="430" width="620" height="130" fill="#12141c"/><path d="M 330 560 L 330 490 Q 360 448 390 490 L 390 560 Z" fill="#0c0e14" opacity="0.9"/><path d="M 426 560 L 426 490 Q 456 448 486 490 L 486 560 Z" fill="#0c0e14" opacity="0.9"/><path d="M 522 560 L 522 490 Q 552 448 582 490 L 582 560 Z" fill="#0c0e14" opacity="0.9"/><path d="M 618 560 L 618 490 Q 648 448 678 490 L 678 560 Z" fill="#0c0e14" opacity="0.9"/><path d="M 714 560 L 714 490 Q 744 448 774 490 L 774 560 Z" fill="#0c0e14" opacity="0.9"/><path d="M 810 560 L 810 490 Q 840 448 870 490 L 870 560 Z" fill="#0c0e14" opacity="0.9"/><path d="M 300 430 L 920 430 L 920 410 L 300 410 Z" fill="#d8b45a" opacity="0.6"/><rect x="563.0" y="90" width="74" height="470" fill="#12141c"/><rect x="576.32" y="64" width="47.36" height="26" fill="#12141c"/><circle cx="600" cy="56" r="6" fill="#d8b45a"/><circle cx="600" cy="44" r="4.5" fill="#d8b45a"/><circle cx="600" cy="34" r="3" fill="#d8b45a"/><rect x="566" y="230" width="68" height="60" fill="#d8b45a" opacity="0.35"/><rect x="0" y="560" width="1200" height="60" fill="#0c0e14" opacity="0.6"/>
<rect x="0" y="560" width="1200" height="140" fill="#0c0e14"/>
<rect x="0" y="580" width="1200" height="120" fill="#2a6f8f" opacity="0.45"/><g opacity="0.35"><line x1="80" y1="600" x2="170" y2="600" stroke="#f2e6c8" stroke-width="2"/><line x1="220" y1="624" x2="310" y2="624" stroke="#f2e6c8" stroke-width="2"/><line x1="360" y1="648" x2="450" y2="648" stroke="#f2e6c8" stroke-width="2"/><line x1="500" y1="600" x2="590" y2="600" stroke="#f2e6c8" stroke-width="2"/><line x1="640" y1="624" x2="730" y2="624" stroke="#f2e6c8" stroke-width="2"/><line x1="780" y1="648" x2="870" y2="648" stroke="#f2e6c8" stroke-width="2"/><line x1="920" y1="600" x2="1010" y2="600" stroke="#f2e6c8" stroke-width="2"/><line x1="1060" y1="624" x2="1150" y2="624" stroke="#f2e6c8" stroke-width="2"/></g>
<rect x="0" y="556" width="1200" height="4" fill="#d8b45a" opacity="0.55"/>
</svg>