<svg xmlns="http://www.w3.org/2000/svg" viewBox="0 0 1200 700" role="img">
<defs>
<linearGradient id="sky" x1="0" y1="0" x2="0" y2="1">
<stop offset="0" stop-color="#0a1026"/><stop offset="0.62" stop-color="#152046"/><stop offset="1" stop-color="#2b3a6b"/>
</linearGradient>
<pattern id="g1" width="120" height="120" patternUnits="userSpaceOnUse"><polygon points="111.6,60.0 80.0,68.3 96.5,96.5 68.3,80.0 60.0,111.6 51.7,80.0 23.5,96.5 40.0,68.3 8.4,60.0 40.0,51.7 23.5,23.5 51.7,40.0 60.0,8.4 68.3,40.0 96.5,23.5 80.0,51.7" fill="none" stroke="#e8d9a8" stroke-width="1.6" opacity="0.1"/><rect x="17.4" y="17.4" width="85.2" height="85.2" fill="none" stroke="#e8d9a8" stroke-width="1.6" opacity="0.06999999999999999" transform="rotate(45 60.0 60.0)"/></pattern>
</defs>
<rect width="1200" height="700" fill="url(#sky)"/>
<rect width="1200" height="700" fill="url(#g1)"/>
<circle cx="1028" cy="248" r="1.3" fill="#f7ecd2" opacity="0.79"/><circle cx="822" cy="41" r="1.8" fill="#f7ecd2" opacity="0.37"/><circle cx="321" cy="209" r="1.8" fill="#f7ecd2" opacity="0.74"/><circle cx="1085" cy="152" r="1.3" fill="#f7ecd2" opacity="0.55"/><circle cx="594" cy="290" r="1.8" fill="#f7ecd2" opacity="0.45"/><circle cx="888" cy="283" r="1.3" fill="#f7ecd2" opacity="0.39"/><circle cx="887" cy="311" r="1.3" fill="#f7ecd2" opacity="0.42"/><circle cx="951" cy="314" r="1.8" fill="#f7ecd2" opacity="0.49"/><circle cx="960" cy="312" r="0.8" fill="#f7ecd2" opacity="0.55"/><circle cx="554" cy="25" r="0.8" fill="#f7ecd2" opacity="0.35"/><circle cx="1053" cy="253" r="1.3" fill="#f7ecd2" opacity="0.44"/><circle cx="417" cy="316" r="1.3" fill="#f7ecd2" opacity="0.57"/><circle cx="926" cy="174" r="1.8" fill="#f7ecd2" opacity="0.59"/><circle cx="1020" cy="87" r="0.8" fill="#f7ecd2" opacity="0.75"/><circle cx="819" cy="35" r="1.8" fill="#f7ecd2" opacity="0.50"/><circle cx="683" cy="298" r="0.8" fill="#f7ecd2" opacity="0.69"/><circle cx="492" cy="216" r="0.8" fill="#f7ecd2" opacity="0.57"/><circle cx="1086" cy="329" r="1.8" fill="#f7ecd2" opacity="0.79"/><circle cx="185" cy="337" r="0.8" fill="#f7ecd2" opacity="0.80"/><circle cx="549" cy="120" r="0.8" fill="#f7ecd2" opacity="0.65"/><circle cx="858" cy="238" r="1.3" fill="#f7ecd2" opacity="0.39"/><circle cx="752" cy="71" r="1.3" fill="#f7ecd2" opacity="0.77"/><circle cx="351" cy="279" r="0.8" fill="#f7ecd2" opacity="0.64"/><circle cx="15" cy="122" r="1.8" fill="#f7ecd2" opacity="0.65"/><circle cx="824" cy="100" r="0.8" fill="#f7ecd2" opacity="0.35"/><circle cx="18" cy="333" r="0.8" fill="#f7ecd2" opacity="0.79"/><circle cx="117" cy="61" r="1.3" fill="#f7ecd2" opacity="0.72"/><circle cx="281" cy="104" r="1.3" fill="#f7ecd2" opacity="0.59"/><circle cx="390" cy="142" r="1.3" fill="#f7ecd2" opacity="0.65"/><circle cx="84" cy="235" r="1.3" fill="#f7ecd2" opacity="0.75"/><circle cx="683" cy="163" r="0.8" fill="#f7ecd2" opacity="0.64"/><circle cx="147" cy="266" r="1.8" fill="#f7ecd2" opacity="0.37"/><circle cx="756" cy="164" r="1.8" fill="#f7ecd2" opacity="0.69"/><circle cx="950" cy="117" r="1.8" fill="#f7ecd2" opacity="0.35"/><circle cx="849" cy="105" r="0.8" fill="#f7ecd2" opacity="0.80"/><circle cx="813" cy="68" r="1.8" fill="#f7ecd2" opacity="0.69"/><circle cx="722" cy="26" r="1.3" fill="#f7ecd2" opacity="0.57"/><circle cx="216" cy="39" r="0.8" fill="#f7ecd2" opacity="0.59"/><circle cx="615" cy="227" r="1.8" fill="#f7ecd2" opacity="0.40"/><circle cx="1079" cy="50" r="1.3" fill="#f7ecd2" opacity="0.35"/><circle cx="288" cy="68" r="1.8" fill="#f7ecd2" opacity="0.69"/><circle cx="282" cy="281" r="1.8" fill="#f7ecd2" opacity="0.77"/><circle cx="1181" cy="329" r="1.3" fill="#f7ecd2" opacity="0.84"/><circle cx="945" cy="212" r="1.8" fill="#f7ecd2" opacity="0.75"/><circle cx="654" cy="90" r="0.8" fill="#f7ecd2" opacity="0.45"/><circle cx="1148" cy="163" r="0.8" fill="#f7ecd2" opacity="0.59"/><circle cx="147" cy="131" r="1.8" fill="#f7ecd2" opacity="0.42"/><circle cx="411" cy="214" r="1.3" fill="#f7ecd2" opacity="0.39"/><circle cx="620" cy="292" r="0.8" fill="#f7ecd2" opacity="0.75"/><circle cx="414" cy="85" r="1.3" fill="#f7ecd2" opacity="0.75"/><circle cx="1113" cy="53" r="1.8" fill="#f7ecd2" opacity="0.74"/><circle cx="677" cy="196" r="0.8" fill="#f7ecd2" opacity="0.77"/><circle cx="186" cy="334" r="1.3" fill="#f7ecd2" opacity="0.59"/><circle cx="480" cy="327" r="0.8" fill="#f7ecd2" opacity="0.45"/><circle cx="479" cy="15" r="1.8" fill="#f7ecd2" opacity="0.70"/><circle cx="543" cy="18" r="0.8" fill="#f7ecd2" opacity="0.59"/><circle cx="552" cy="16" r="1.3" fill="#f7ecd2" opacity="0.67"/><circle cx="146" cy="69" r="1.8" fill="#f7ecd2" opacity="0.59"/><circle cx="645" cy="297" r="0.8" fill="#f7ecd2" opacity="0.50"/><circle cx="9" cy="20" r="1.8" fill="#f7ecd2" opacity="0.65"/><circle cx="980" cy="120" r="42" fill="#f6ecd0" opacity="0.95"/><circle cx="996" cy="112" r="36" fill="url(#sky)" opacity="0.92"/>
<rect x="300" y="430" width="620" height="130" fill="#12141c"/><path d="M 330 560 L 330 490 Q 360 448 390 490 L 390 560 Z" fill="#0c0e14" opacity="0.9"/><path d="M 426 560 L 426 490 Q 456 448 486 490 L 486 560 Z" fill="#0c0e14" opacity="0.9"/><path d="M 522 560 L 522 490 Q 552 448 582 490 L 582 560 Z" fill="#0c0e14" opacity="0.9"/><path d="M 618 560 L 618 490 Q 648 448 678 490 L 678 560 Z" fill="#0c0e14" opacity="0.9"/><path d="M 714 560 L 714 490 Q 744 448 774 490 L 774 560 Z" fill="#0c0e14" opacity="0.9"/><path d="M 810 560 L 810 490 Q 840 448 870 490 L 870 560 Z" fill="#0c0e14" opacity="0.9"/><path d="M 300 430 L 920 430 L 920 410 L 300 410 Z" fill="#d8b45a" opacity="0.6"/><rect x="563.0" y="90" width="74" height="470" fill="#12141c"/><rect x="576.32" y="64" width="47.36" height="26" fill="#12141c"/><circle cx="600" cy="56" r="6" fill="#d8b45a"/><circle cx="600" cy="44" r="4.5" fill="#d8b45a"/><circle cx="600" cy="34" r="3" fill="#d8b45a"/><rect x="566" y="230" width="68" height="60" fill="#d8b45a" opacity="0.35"/><rect x="0" y="560" width="1200" height="60" fill="#0c0e14" opacity="0.6"/>
<rect x="0" y="560" width="1200" height="140" fill="#0c0e14"/>
<rect x="0" y="580" width="1200" height="120" fill="#152046" opacity="0.45"/><g opacity="0.35"><line x1="80" y1="600" x2="170" y2="600" stroke="#f2e6c8" stroke-width="2"/><line x1="220" y1="624" x2="310" y2="624" stroke="#f2e6c8" stroke-width="2"/><line x1="360" y1="648" x2="450" y2="648" stroke="#f2e6c8" stroke-width="2"/><line x1="500" y1="600" x2="590" y2="600" stroke="#f2e6c8" stroke-width="2"/><line x1="640" y1="624" x2="730" y2="624" stroke="#f2e6c8" stroke-width="2"/><line x1="780" y1="648" x2="870" y2="648" stroke="#f2e6c8" stroke-width="2"/><line x1="920" y1="600" x2="1010" y2="600" stroke="#f2e6c8" stroke-width="2"/><line x1="1060" y1="624" x2="1150" y2="624" stroke="#f2e6c8" stroke-width="2"/></g>
<rect x="0" y="556" width="1200" height="4" fill="#d8b45a" opacity="0.55"/>
</svg>