<svg xmlns="http://www.w3.org/2000/svg" viewBox="0 0 1200 700" role="img">
<defs>
<linearGradient id="sky" x1="0" y1="0" x2="0" y2="1">
<stop offset="0" stop-color="#0a1026"/><stop offset="0.62" stop-color="#152046"/><stop offset="1" stop-color="#2b3a6b"/>
</linearGradient>
<pattern id="g1" width="120" height="120" patternUnits="userSpaceOnUse"><polygon points="111.6,60.0 80.0,68.3 96.5,96.5 68.3,80.0 60.0,111.6 51.7,80.0 23.5,96.5 40.0,68.3 8.4,60.0 40.0,51.7 23.5,23.5 51.7,40.0 60.0,8.4 68.3,40.0 96.5,23.5 80.0,51.7" fill="none" stroke="#e8d9a8" stroke-width="1.6" opacity="0.1"/><rect x="17.4" y="17.4" width="85.2" height="85.2" fill="none" stroke="#e8d9a8" stroke-width="1.6" opacity="0.06999999999999999" transform="rotate(45 60.0 60.0)"/></pattern>
</defs>
<rect width="1200" height="700" fill="url(#sky)"/>
<rect width="1200" height="700" fill="url(#g1)"/>
<circle cx="955" cy="25" r="1.8" fill="#f7ecd2" opacity="0.60"/><circle cx="293" cy="302" r="1.3" fill="#f7ecd2" opacity="0.71"/><circle cx="104" cy="282" r="1.8" fill="#f7ecd2" opacity="0.63"/><circle cx="844" cy="161" r="0.8" fill="#f7ecd2" opacity="0.69"/><circle cx="1001" cy="327" r="1.8" fill="#f7ecd2" opacity="0.62"/><circle cx="599" cy="164" r="1.3" fill="#f7ecd2" opacity="0.71"/><circle cx="190" cy="124" r="1.8" fill="#f7ecd2" opacity="0.45"/><circle cx="470" cy="23" r="1.3" fill="#f7ecd2" opacity="0.45"/><circle cx="647" cy="129" r="1.8" fill="#f7ecd2" opacity="0.48"/><circle cx="505" cy="206" r="0.8" fill="#f7ecd2" opacity="0.65"/><circle cx="1076" cy="286" r="0.8" fill="#f7ecd2" opacity="0.71"/><circle cx="896" cy="205" r="0.8" fill="#f7ecd2" opacity="0.65"/><circle cx="1093" cy="251" r="0.8" fill="#f7ecd2" opacity="0.78"/><circle cx="11" cy="88" r="0.8" fill="#f7ecd2" opacity="0.53"/><circle cx="362" cy="148" r="0.8" fill="#f7ecd2" opacity="0.61"/><circle cx="922" cy="227" r="0.8" fill="#f7ecd2" opacity="0.79"/><circle cx="1139" cy="213" r="1.8" fill="#f7ecd2" opacity="0.42"/><circle cx="317" cy="290" r="1.3" fill="#f7ecd2" opacity="0.65"/><circle cx="448" cy="330" r="1.3" fill="#f7ecd2" opacity="0.75"/><circle cx="548" cy="89" r="1.3" fill="#f7ecd2" opacity="0.57"/><circle cx="785" cy="15" r="1.8" fill="#f7ecd2" opacity="0.60"/><circle cx="223" cy="332" r="0.8" fill="#f7ecd2" opacity="0.71"/><circle cx="134" cy="12" r="1.8" fill="#f7ecd2" opacity="0.43"/><circle cx="974" cy="271" r="0.8" fill="#f7ecd2" opacity="0.39"/><circle cx="31" cy="337" r="1.8" fill="#f7ecd2" opacity="0.82"/><circle cx="929" cy="14" r="1.3" fill="#f7ecd2" opacity="0.41"/><circle cx="620" cy="14" r="1.3" fill="#f7ecd2" opacity="0.65"/><circle cx="1000" cy="293" r="0.8" fill="#f7ecd2" opacity="0.35"/><circle cx="77" cy="299" r="1.3" fill="#f7ecd2" opacity="0.58"/><circle cx="35" cy="76" r="0.8" fill="#f7ecd2" opacity="0.45"/><circle cx="706" cy="196" r="1.8" fill="#f7ecd2" opacity="0.61"/><circle cx="626" cy="155" r="1.3" fill="#f7ecd2" opacity="0.65"/><circle cx="923" cy="241" r="0.8" fill="#f7ecd2" opacity="0.78"/><circle cx="1141" cy="258" r="1.3" fill="#f7ecd2" opacity="0.63"/><circle cx="392" cy="218" r="1.3" fill="#f7ecd2" opacity="0.41"/><circle cx="1052" cy="337" r="0.8" fill="#f7ecd2" opacity="0.59"/><circle cx="169" cy="223" r="1.8" fill="#f7ecd2" opacity="0.72"/><circle cx="647" cy="140" r="1.3" fill="#f7ecd2" opacity="0.65"/><circle cx="878" cy="220" r="0.8" fill="#f7ecd2" opacity="0.45"/><circle cx="1078" cy="19" r="1.8" fill="#f7ecd2" opacity="0.67"/><circle cx="215" cy="185" r="1.3" fill="#f7ecd2" opacity="0.60"/><circle cx="953" cy="2" r="1.3" fill="#f7ecd2" opacity="0.41"/><circle cx="964" cy="62" r="0.8" fill="#f7ecd2" opacity="0.53"/><circle cx="704" cy="221" r="1.3" fill="#f7ecd2" opacity="0.69"/><circle cx="1061" cy="127" r="0.8" fill="#f7ecd2" opacity="0.82"/><circle cx="859" cy="44" r="0.8" fill="#f7ecd2" opacity="0.81"/><circle cx="650" cy="84" r="1.8" fill="#f7ecd2" opacity="0.35"/><circle cx="1130" cy="63" r="1.8" fill="#f7ecd2" opacity="0.75"/><circle cx="307" cy="109" r="1.8" fill="#f7ecd2" opacity="0.48"/><circle cx="365" cy="266" r="1.3" fill="#f7ecd2" opacity="0.75"/><circle cx="1136" cy="86" r="1.3" fill="#f7ecd2" opacity="0.81"/><circle cx="1156" cy="85" r="1.8" fill="#f7ecd2" opacity="0.45"/><circle cx="353" cy="71" r="1.3" fill="#f7ecd2" opacity="0.48"/><circle cx="671" cy="128" r="1.3" fill="#f7ecd2" opacity="0.73"/><circle cx="22" cy="128" r="0.8" fill="#f7ecd2" opacity="0.51"/><circle cx="782" cy="287" r="1.3" fill="#f7ecd2" opacity="0.69"/><circle cx="1199" cy="13" r="0.8" fill="#f7ecd2" opacity="0.72"/><circle cx="577" cy="170" r="0.8" fill="#f7ecd2" opacity="0.75"/><circle cx="908" cy="290" r="1.3" fill="#f7ecd2" opacity="0.55"/><circle cx="8" cy="329" r="1.3" fill="#f7ecd2" opacity="0.67"/><circle cx="980" cy="120" r="42" fill="#f6ecd0" opacity="0.95"/><circle cx="996" cy="112" r="36" fill="url(#sky)" opacity="0.92"/>
<rect x="300" y="430" width="620" height="130" fill="#12141c"/><path d="M 330 560 L 330 490 Q 360 448 390 490 L 390 560 Z" fill="#0c0e14" opacity="0.9"/><path d="M 426 560 L 426 490 Q 456 448 486 490 L 486 560 Z" fill="#0c0e14" opacity="0.9"/><path d="M 522 560 L 522 490 Q 552 448 582 490 L 582 560 Z" fill="#0c0e14" opacity="0.9"/><path d="M 618 560 L 618 490 Q 648 448 678 490 L 678 560 Z" fill="#0c0e14" opacity="0.9"/><path d="M 714 560 L 714 490 Q 744 448 774 490 L 774 560 Z" fill="#0c0e14" opacity="0.9"/><path d="M 810 560 L 810 490 Q 840 448 870 490 L 870 560 Z" fill="#0c0e14" opacity="0.9"/><path d="M 300 430 L 920 430 L 920 410 L 300 410 Z" fill="#d8b45a" opacity="0.6"/><rect x="563.0" y="90" width="74" height="470" fill="#12141c"/><rect x="576.32" y="64" width="47.36" height="26" fill="#12141c"/><circle cx="600" cy="56" r="6" fill="#d8b45a"/><circle cx="600" cy="44" r="4.5" fill="#d8b45a"/><circle cx="600" cy="34" r="3" fill="#d8b45a"/><rect x="566" y="230" width="68" height="60" fill="#d8b45a" opacity="0.35"/><rect x="0" y="560" width="1200" height="60" fill="#0c0e14" opacity="0.6"/>
<rect x="0" y="560" width="1200" height="140" fill="#0c0e14"/>
<rect x="0" y="580" width="1200" height="120" fill="#152046" opacity="0.45"/><g opacity="0.35"><line x1="80" y1="600" x2="170" y2="600" stroke="#f2e6c8" stroke-width="2"/><line x1="220" y1="624" x2="310" y2="624" stroke="#f2e6c8" stroke-width="2"/><line x1="360" y1="648" x2="450" y2="648" stroke="#f2e6c8" stroke-width="2"/><line x1="500" y1="600" x2="590" y2="600" stroke="#f2e6c8" stroke-width="2"/><line x1="640" y1="624" x2="730" y2="624" stroke="#f2e6c8" stroke-width="2"/><line x1="780" y1="648" x2="870" y2="648" stroke="#f2e6c8" stroke-width="2"/><line x1="920" y1="600" x2="1010" y2="600" stroke="#f2e6c8" stroke-width="2"/><line x1="1060" y1="624" x2="1150" y2="624" stroke="#f2e6c8" stroke-width="2"/></g>
<rect x="0" y="556" width="1200" height="4" fill="#d8b45a" opacity="0.55"/>
</svg>