<svg xmlns="http://www.w3.org/2000/svg" viewBox="0 0 1200 700" role="img">
<defs>
<linearGradient id="sky" x1="0" y1="0" x2="0" y2="1">
<stop offset="0" stop-color="#0a1026"/><stop offset="0.62" stop-color="#152046"/><stop offset="1" stop-color="#2b3a6b"/>
</linearGradient>
<pattern id="g1" width="120" height="120" patternUnits="userSpaceOnUse"><polygon points="111.6,60.0 80.0,68.3 96.5,96.5 68.3,80.0 60.0,111.6 51.7,80.0 23.5,96.5 40.0,68.3 8.4,60.0 40.0,51.7 23.5,23.5 51.7,40.0 60.0,8.4 68.3,40.0 96.5,23.5 80.0,51.7" fill="none" stroke="#e8d9a8" stroke-width="1.6" opacity="0.1"/><rect x="17.4" y="17.4" width="85.2" height="85.2" fill="none" stroke="#e8d9a8" stroke-width="1.6" opacity="0.06999999999999999" transform="rotate(45 60.0 60.0)"/></pattern>
</defs>
<rect width="1200" height="700" fill="url(#sky)"/>
<rect width="1200" height="700" fill="url(#g1)"/>
<circle cx="762" cy="162" r="0.8" fill="#f7ecd2" opacity="0.79"/><circle cx="604" cy="83" r="0.8" fill="#f7ecd2" opacity="0.67"/><circle cx="7" cy="335" r="0.8" fill="#f7ecd2" opacity="0.80"/><circle cx="963" cy="110" r="1.8" fill="#f7ecd2" opacity="0.65"/><circle cx="88" cy="244" r="1.8" fill="#f7ecd2" opacity="0.57"/><circle cx="1150" cy="245" r="0.8" fill="#f7ecd2" opacity="0.35"/><circle cx="813" cy="57" r="0.8" fill="#f7ecd2" opacity="0.76"/><circle cx="349" cy="12" r="1.3" fill="#f7ecd2" opacity="0.73"/><circle cx="214" cy="306" r="1.3" fill="#f7ecd2" opacity="0.69"/><circle cx="96" cy="107" r="1.8" fill="#f7ecd2" opacity="0.57"/><circle cx="19" cy="159" r="1.3" fill="#f7ecd2" opacity="0.56"/><circle cx="535" cy="234" r="1.3" fill="#f7ecd2" opacity="0.75"/><circle cx="1140" cy="8" r="1.8" fill="#f7ecd2" opacity="0.55"/><circle cx="1042" cy="89" r="0.8" fill="#f7ecd2" opacity="0.73"/><circle cx="25" cy="241" r="1.8" fill="#f7ecd2" opacity="0.60"/><circle cx="321" cy="296" r="1.8" fill="#f7ecd2" opacity="0.51"/><circle cx="466" cy="90" r="1.3" fill="#f7ecd2" opacity="0.75"/><circle cx="388" cy="111" r="1.3" fill="#f7ecd2" opacity="0.53"/><circle cx="831" cy="303" r="0.8" fill="#f7ecd2" opacity="0.78"/><circle cx="907" cy="338" r="0.8" fill="#f7ecd2" opacity="0.51"/><circle cx="592" cy="152" r="0.8" fill="#f7ecd2" opacity="0.69"/><circle cx="534" cy="113" r="1.8" fill="#f7ecd2" opacity="0.77"/><circle cx="37" cy="65" r="0.8" fill="#f7ecd2" opacity="0.40"/><circle cx="1093" cy="220" r="1.8" fill="#f7ecd2" opacity="0.45"/><circle cx="318" cy="54" r="0.8" fill="#f7ecd2" opacity="0.57"/><circle cx="280" cy="295" r="1.8" fill="#f7ecd2" opacity="0.35"/><circle cx="43" cy="147" r="1.3" fill="#f7ecd2" opacity="0.56"/><circle cx="879" cy="282" r="0.8" fill="#f7ecd2" opacity="0.63"/><circle cx="844" cy="276" r="1.3" fill="#f7ecd2" opacity="0.79"/><circle cx="826" cy="117" r="1.3" fill="#f7ecd2" opacity="0.77"/><circle cx="849" cy="209" r="1.8" fill="#f7ecd2" opacity="0.76"/><circle cx="265" cy="184" r="1.8" fill="#f7ecd2" opacity="0.45"/><circle cx="970" cy="338" r="0.8" fill="#f7ecd2" opacity="0.45"/><circle cx="972" cy="119" r="1.8" fill="#f7ecd2" opacity="0.53"/><circle cx="55" cy="311" r="0.8" fill="#f7ecd2" opacity="0.40"/><circle cx="451" cy="66" r="1.3" fill="#f7ecd2" opacity="0.51"/><circle cx="696" cy="240" r="0.8" fill="#f7ecd2" opacity="0.75"/><circle cx="718" cy="301" r="1.8" fill="#f7ecd2" opacity="0.53"/><circle cx="61" cy="53" r="0.8" fill="#f7ecd2" opacity="0.68"/><circle cx="237" cy="128" r="1.8" fill="#f7ecd2" opacity="0.71"/><circle cx="22" cy="322" r="1.8" fill="#f7ecd2" opacity="0.69"/><circle cx="64" cy="323" r="0.8" fill="#f7ecd2" opacity="0.57"/><circle cx="867" cy="115" r="1.3" fill="#f7ecd2" opacity="0.40"/><circle cx="823" cy="170" r="0.8" fill="#f7ecd2" opacity="0.45"/><circle cx="148" cy="44" r="0.8" fill="#f7ecd2" opacity="0.47"/><circle cx="210" cy="325" r="1.3" fill="#f7ecd2" opacity="0.35"/><circle cx="73" cy="217" r="1.8" fill="#f7ecd2" opacity="0.76"/><circle cx="1009" cy="52" r="1.8" fill="#f7ecd2" opacity="0.53"/><circle cx="1074" cy="86" r="1.8" fill="#f7ecd2" opacity="0.49"/><circle cx="1156" cy="307" r="1.8" fill="#f7ecd2" opacity="0.77"/><circle cx="79" cy="299" r="0.8" fill="#f7ecd2" opacity="0.56"/><circle cx="795" cy="114" r="0.8" fill="#f7ecd2" opacity="0.65"/><circle cx="400" cy="168" r="1.3" fill="#f7ecd2" opacity="0.35"/><circle cx="502" cy="329" r="0.8" fill="#f7ecd2" opacity="0.43"/><circle cx="885" cy="21" r="0.8" fill="#f7ecd2" opacity="0.70"/><circle cx="181" cy="16" r="1.8" fill="#f7ecd2" opacity="0.81"/><circle cx="526" cy="230" r="0.8" fill="#f7ecd2" opacity="0.65"/><circle cx="648" cy="331" r="1.3" fill="#f7ecd2" opacity="0.73"/><circle cx="91" cy="123" r="1.3" fill="#f7ecd2" opacity="0.78"/><circle cx="367" cy="238" r="1.8" fill="#f7ecd2" opacity="0.81"/><circle cx="980" cy="120" r="42" fill="#f6ecd0" opacity="0.95"/><circle cx="996" cy="112" r="36" fill="url(#sky)" opacity="0.92"/>
<rect x="300" y="430" width="620" height="130" fill="#12141c"/><path d="M 330 560 L 330 490 Q 360 448 390 490 L 390 560 Z" fill="#0c0e14" opacity="0.9"/><path d="M 426 560 L 426 490 Q 456 448 486 490 L 486 560 Z" fill="#0c0e14" opacity="0.9"/><path d="M 522 560 L 522 490 Q 552 448 582 490 L 582 560 Z" fill="#0c0e14" opacity="0.9"/><path d="M 618 560 L 618 490 Q 648 448 678 490 L 678 560 Z" fill="#0c0e14" opacity="0.9"/><path d="M 714 560 L 714 490 Q 744 448 774 490 L 774 560 Z" fill="#0c0e14" opacity="0.9"/><path d="M 810 560 L 810 490 Q 840 448 870 490 L 870 560 Z" fill="#0c0e14" opacity="0.9"/><path d="M 300 430 L 920 430 L 920 410 L 300 410 Z" fill="#d8b45a" opacity="0.6"/><rect x="563.0" y="90" width="74" height="470" fill="#12141c"/><rect x="576.32" y="64" width="47.36" height="26" fill="#12141c"/><circle cx="600" cy="56" r="6" fill="#d8b45a"/><circle cx="600" cy="44" r="4.5" fill="#d8b45a"/><circle cx="600" cy="34" r="3" fill="#d8b45a"/><rect x="566" y="230" width="68" height="60" fill="#d8b45a" opacity="0.35"/><rect x="0" y="560" width="1200" height="60" fill="#0c0e14" opacity="0.6"/>
<rect x="0" y="560" width="1200" height="140" fill="#0c0e14"/>
<rect x="0" y="580" width="1200" height="120" fill="#152046" opacity="0.45"/><g opacity="0.35"><line x1="80" y1="600" x2="170" y2="600" stroke="#f2e6c8" stroke-width="2"/><line x1="220" y1="624" x2="310" y2="624" stroke="#f2e6c8" stroke-width="2"/><line x1="360" y1="648" x2="450" y2="648" stroke="#f2e6c8" stroke-width="2"/><line x1="500" y1="600" x2="590" y2="600" stroke="#f2e6c8" stroke-width="2"/><line x1="640" y1="624" x2="730" y2="624" stroke="#f2e6c8" stroke-width="2"/><line x1="780" y1="648" x2="870" y2="648" stroke="#f2e6c8" stroke-width="2"/><line x1="920" y1="600" x2="1010" y2="600" stroke="#f2e6c8" stroke-width="2"/><line x1="1060" y1="624" x2="1150" y2="624" stroke="#f2e6c8" stroke-width="2"/></g>
<rect x="0" y="556" width="1200" height="4" fill="#d8b45a" opacity="0.55"/>
</svg>