<svg xmlns="http://www.w3.org/2000/svg" viewBox="0 0 1200 700" role="img">
<defs>
<linearGradient id="sky" x1="0" y1="0" x2="0" y2="1">
<stop offset="0" stop-color="#0a1026"/><stop offset="0.62" stop-color="#152046"/><stop offset="1" stop-color="#2b3a6b"/>
</linearGradient>
<pattern id="g1" width="120" height="120" patternUnits="userSpaceOnUse"><polygon points="111.6,60.0 80.0,68.3 96.5,96.5 68.3,80.0 60.0,111.6 51.7,80.0 23.5,96.5 40.0,68.3 8.4,60.0 40.0,51.7 23.5,23.5 51.7,40.0 60.0,8.4 68.3,40.0 96.5,23.5 80.0,51.7" fill="none" stroke="#e8d9a8" stroke-width="1.6" opacity="0.1"/><rect x="17.4" y="17.4" width="85.2" height="85.2" fill="none" stroke="#e8d9a8" stroke-width="1.6" opacity="0.06999999999999999" transform="rotate(45 60.0 60.0)"/></pattern>
</defs>
<rect width="1200" height="700" fill="url(#sky)"/>
<rect width="1200" height="700" fill="url(#g1)"/>
<circle cx="835" cy="45" r="1.3" fill="#f7ecd2" opacity="0.60"/><circle cx="1133" cy="162" r="1.8" fill="#f7ecd2" opacity="0.81"/><circle cx="224" cy="262" r="0.8" fill="#f7ecd2" opacity="0.73"/><circle cx="4" cy="301" r="1.8" fill="#f7ecd2" opacity="0.39"/><circle cx="881" cy="7" r="0.8" fill="#f7ecd2" opacity="0.52"/><circle cx="239" cy="224" r="1.3" fill="#f7ecd2" opacity="0.71"/><circle cx="310" cy="104" r="0.8" fill="#f7ecd2" opacity="0.75"/><circle cx="830" cy="303" r="1.8" fill="#f7ecd2" opacity="0.75"/><circle cx="527" cy="149" r="1.3" fill="#f7ecd2" opacity="0.58"/><circle cx="145" cy="266" r="0.8" fill="#f7ecd2" opacity="0.55"/><circle cx="1196" cy="266" r="1.3" fill="#f7ecd2" opacity="0.71"/><circle cx="56" cy="5" r="1.3" fill="#f7ecd2" opacity="0.65"/><circle cx="973" cy="271" r="1.8" fill="#f7ecd2" opacity="0.68"/><circle cx="851" cy="288" r="1.8" fill="#f7ecd2" opacity="0.73"/><circle cx="482" cy="128" r="1.3" fill="#f7ecd2" opacity="0.81"/><circle cx="82" cy="27" r="1.3" fill="#f7ecd2" opacity="0.49"/><circle cx="1019" cy="233" r="1.3" fill="#f7ecd2" opacity="0.62"/><circle cx="1157" cy="150" r="1.8" fill="#f7ecd2" opacity="0.35"/><circle cx="568" cy="310" r="1.8" fill="#f7ecd2" opacity="0.65"/><circle cx="908" cy="29" r="1.3" fill="#f7ecd2" opacity="0.67"/><circle cx="665" cy="35" r="1.3" fill="#f7ecd2" opacity="0.60"/><circle cx="1063" cy="192" r="1.3" fill="#f7ecd2" opacity="0.81"/><circle cx="254" cy="332" r="1.3" fill="#f7ecd2" opacity="0.63"/><circle cx="134" cy="71" r="1.3" fill="#f7ecd2" opacity="0.49"/><circle cx="1111" cy="157" r="1.8" fill="#f7ecd2" opacity="0.62"/><circle cx="569" cy="74" r="1.3" fill="#f7ecd2" opacity="0.41"/><circle cx="740" cy="334" r="0.8" fill="#f7ecd2" opacity="0.45"/><circle cx="160" cy="93" r="1.3" fill="#f7ecd2" opacity="0.65"/><circle cx="1157" cy="119" r="1.3" fill="#f7ecd2" opacity="0.68"/><circle cx="875" cy="276" r="1.8" fill="#f7ecd2" opacity="0.35"/><circle cx="826" cy="176" r="0.8" fill="#f7ecd2" opacity="0.61"/><circle cx="986" cy="95" r="1.3" fill="#f7ecd2" opacity="0.55"/><circle cx="803" cy="261" r="1.8" fill="#f7ecd2" opacity="0.68"/><circle cx="781" cy="318" r="1.3" fill="#f7ecd2" opacity="0.43"/><circle cx="512" cy="198" r="1.8" fill="#f7ecd2" opacity="0.61"/><circle cx="212" cy="137" r="1.3" fill="#f7ecd2" opacity="0.79"/><circle cx="49" cy="243" r="1.3" fill="#f7ecd2" opacity="0.42"/><circle cx="287" cy="200" r="1.3" fill="#f7ecd2" opacity="0.35"/><circle cx="998" cy="200" r="1.3" fill="#f7ecd2" opacity="0.35"/><circle cx="238" cy="159" r="1.3" fill="#f7ecd2" opacity="0.77"/><circle cx="95" cy="205" r="0.8" fill="#f7ecd2" opacity="0.60"/><circle cx="593" cy="62" r="1.3" fill="#f7ecd2" opacity="0.51"/><circle cx="1084" cy="42" r="1.3" fill="#f7ecd2" opacity="0.63"/><circle cx="1064" cy="161" r="1.3" fill="#f7ecd2" opacity="0.39"/><circle cx="941" cy="147" r="1.8" fill="#f7ecd2" opacity="0.62"/><circle cx="499" cy="104" r="0.8" fill="#f7ecd2" opacity="0.81"/><circle cx="770" cy="64" r="0.8" fill="#f7ecd2" opacity="0.65"/><circle cx="290" cy="203" r="1.3" fill="#f7ecd2" opacity="0.55"/><circle cx="187" cy="129" r="1.3" fill="#f7ecd2" opacity="0.58"/><circle cx="5" cy="326" r="1.3" fill="#f7ecd2" opacity="0.65"/><circle cx="56" cy="266" r="1.3" fill="#f7ecd2" opacity="0.81"/><circle cx="316" cy="225" r="1.3" fill="#f7ecd2" opacity="0.35"/><circle cx="233" cy="91" r="0.8" fill="#f7ecd2" opacity="0.38"/><circle cx="311" cy="188" r="1.3" fill="#f7ecd2" opacity="0.53"/><circle cx="142" cy="108" r="1.3" fill="#f7ecd2" opacity="0.71"/><circle cx="1142" cy="227" r="1.3" fill="#f7ecd2" opacity="0.69"/><circle cx="1079" cy="33" r="1.8" fill="#f7ecd2" opacity="0.42"/><circle cx="217" cy="230" r="0.8" fill="#f7ecd2" opacity="0.45"/><circle cx="1028" cy="270" r="1.8" fill="#f7ecd2" opacity="0.45"/><circle cx="368" cy="269" r="1.3" fill="#f7ecd2" opacity="0.77"/><circle cx="980" cy="120" r="42" fill="#f6ecd0" opacity="0.95"/><circle cx="996" cy="112" r="36" fill="url(#sky)" opacity="0.92"/>
<rect x="300" y="430" width="620" height="130" fill="#12141c"/><path d="M 330 560 L 330 490 Q 360 448 390 490 L 390 560 Z" fill="#0c0e14" opacity="0.9"/><path d="M 426 560 L 426 490 Q 456 448 486 490 L 486 560 Z" fill="#0c0e14" opacity="0.9"/><path d="M 522 560 L 522 490 Q 552 448 582 490 L 582 560 Z" fill="#0c0e14" opacity="0.9"/><path d="M 618 560 L 618 490 Q 648 448 678 490 L 678 560 Z" fill="#0c0e14" opacity="0.9"/><path d="M 714 560 L 714 490 Q 744 448 774 490 L 774 560 Z" fill="#0c0e14" opacity="0.9"/><path d="M 810 560 L 810 490 Q 840 448 870 490 L 870 560 Z" fill="#0c0e14" opacity="0.9"/><path d="M 300 430 L 920 430 L 920 410 L 300 410 Z" fill="#d8b45a" opacity="0.6"/><rect x="563.0" y="90" width="74" height="470" fill="#12141c"/><rect x="576.32" y="64" width="47.36" height="26" fill="#12141c"/><circle cx="600" cy="56" r="6" fill="#d8b45a"/><circle cx="600" cy="44" r="4.5" fill="#d8b45a"/><circle cx="600" cy="34" r="3" fill="#d8b45a"/><rect x="566" y="230" width="68" height="60" fill="#d8b45a" opacity="0.35"/><rect x="0" y="560" width="1200" height="60" fill="#0c0e14" opacity="0.6"/>
<rect x="0" y="560" width="1200" height="140" fill="#0c0e14"/>
<rect x="0" y="580" width="1200" height="120" fill="#152046" opacity="0.45"/><g opacity="0.35"><line x1="80" y1="600" x2="170" y2="600" stroke="#f2e6c8" stroke-width="2"/><line x1="220" y1="624" x2="310" y2="624" stroke="#f2e6c8" stroke-width="2"/><line x1="360" y1="648" x2="450" y2="648" stroke="#f2e6c8" stroke-width="2"/><line x1="500" y1="600" x2="590" y2="600" stroke="#f2e6c8" stroke-width="2"/><line x1="640" y1="624" x2="730" y2="624" stroke="#f2e6c8" stroke-width="2"/><line x1="780" y1="648" x2="870" y2="648" stroke="#f2e6c8" stroke-width="2"/><line x1="920" y1="600" x2="1010" y2="600" stroke="#f2e6c8" stroke-width="2"/><line x1="1060" y1="624" x2="1150" y2="624" stroke="#f2e6c8" stroke-width="2"/></g>
<rect x="0" y="556" width="1200" height="4" fill="#d8b45a" opacity="0.55"/>
</svg>