<svg xmlns="http://www.w3.org/2000/svg" viewBox="0 0 1200 700" role="img">
<defs>
<linearGradient id="sky" x1="0" y1="0" x2="0" y2="1">
<stop offset="0" stop-color="#0a1026"/><stop offset="0.62" stop-color="#152046"/><stop offset="1" stop-color="#2b3a6b"/>
</linearGradient>
<pattern id="g1" width="120" height="120" patternUnits="userSpaceOnUse"><polygon points="111.6,60.0 80.0,68.3 96.5,96.5 68.3,80.0 60.0,111.6 51.7,80.0 23.5,96.5 40.0,68.3 8.4,60.0 40.0,51.7 23.5,23.5 51.7,40.0 60.0,8.4 68.3,40.0 96.5,23.5 80.0,51.7" fill="none" stroke="#e8d9a8" stroke-width="1.6" opacity="0.1"/><rect x="17.4" y="17.4" width="85.2" height="85.2" fill="none" stroke="#e8d9a8" stroke-width="1.6" opacity="0.06999999999999999" transform="rotate(45 60.0 60.0)"/></pattern>
</defs>
<rect width="1200" height="700" fill="url(#sky)"/>
<rect width="1200" height="700" fill="url(#g1)"/>
<circle cx="1049" cy="219" r="1.8" fill="#f7ecd2" opacity="0.66"/><circle cx="1155" cy="164" r="1.8" fill="#f7ecd2" opacity="0.55"/><circle cx="630" cy="268" r="1.3" fill="#f7ecd2" opacity="0.75"/><circle cx="842" cy="99" r="1.8" fill="#f7ecd2" opacity="0.43"/><circle cx="855" cy="221" r="1.8" fill="#f7ecd2" opacity="0.40"/><circle cx="741" cy="146" r="1.8" fill="#f7ecd2" opacity="0.71"/><circle cx="956" cy="70" r="0.8" fill="#f7ecd2" opacity="0.55"/><circle cx="1188" cy="181" r="1.3" fill="#f7ecd2" opacity="0.63"/><circle cx="261" cy="63" r="0.8" fill="#f7ecd2" opacity="0.78"/><circle cx="1127" cy="108" r="1.8" fill="#f7ecd2" opacity="0.51"/><circle cx="882" cy="52" r="1.3" fill="#f7ecd2" opacity="0.49"/><circle cx="1134" cy="103" r="1.3" fill="#f7ecd2" opacity="0.37"/><circle cx="467" cy="225" r="1.8" fill="#f7ecd2" opacity="0.60"/><circle cx="1113" cy="250" r="1.3" fill="#f7ecd2" opacity="0.35"/><circle cx="408" cy="214" r="1.3" fill="#f7ecd2" opacity="0.47"/><circle cx="680" cy="205" r="0.8" fill="#f7ecd2" opacity="0.35"/><circle cx="273" cy="227" r="1.8" fill="#f7ecd2" opacity="0.56"/><circle cx="699" cy="232" r="1.3" fill="#f7ecd2" opacity="0.53"/><circle cx="734" cy="16" r="0.8" fill="#f7ecd2" opacity="0.79"/><circle cx="1026" cy="287" r="1.8" fill="#f7ecd2" opacity="0.47"/><circle cx="879" cy="209" r="1.8" fill="#f7ecd2" opacity="0.46"/><circle cx="1085" cy="194" r="1.3" fill="#f7ecd2" opacity="0.75"/><circle cx="660" cy="338" r="1.8" fill="#f7ecd2" opacity="0.65"/><circle cx="972" cy="209" r="1.8" fill="#f7ecd2" opacity="0.83"/><circle cx="1085" cy="31" r="0.8" fill="#f7ecd2" opacity="0.70"/><circle cx="1071" cy="336" r="0.8" fill="#f7ecd2" opacity="0.41"/><circle cx="186" cy="160" r="1.3" fill="#f7ecd2" opacity="0.45"/><circle cx="518" cy="311" r="1.3" fill="#f7ecd2" opacity="0.83"/><circle cx="891" cy="33" r="0.8" fill="#f7ecd2" opacity="0.38"/><circle cx="657" cy="318" r="0.8" fill="#f7ecd2" opacity="0.61"/><circle cx="512" cy="302" r="1.3" fill="#f7ecd2" opacity="0.59"/><circle cx="864" cy="53" r="1.8" fill="#f7ecd2" opacity="0.77"/><circle cx="297" cy="215" r="1.8" fill="#f7ecd2" opacity="0.40"/><circle cx="1043" cy="280" r="0.8" fill="#f7ecd2" opacity="0.75"/><circle cx="438" cy="284" r="1.8" fill="#f7ecd2" opacity="0.77"/><circle cx="810" cy="315" r="0.8" fill="#f7ecd2" opacity="0.35"/><circle cx="503" cy="37" r="0.8" fill="#f7ecd2" opacity="0.46"/><circle cx="1029" cy="82" r="1.3" fill="#f7ecd2" opacity="0.63"/><circle cx="1164" cy="246" r="0.8" fill="#f7ecd2" opacity="0.79"/><circle cx="356" cy="77" r="1.3" fill="#f7ecd2" opacity="0.47"/><circle cx="309" cy="39" r="0.8" fill="#f7ecd2" opacity="0.36"/><circle cx="615" cy="64" r="1.3" fill="#f7ecd2" opacity="0.45"/><circle cx="290" cy="248" r="1.3" fill="#f7ecd2" opacity="0.55"/><circle cx="702" cy="159" r="0.8" fill="#f7ecd2" opacity="0.53"/><circle cx="915" cy="21" r="0.8" fill="#f7ecd2" opacity="0.50"/><circle cx="1001" cy="26" r="1.3" fill="#f7ecd2" opacity="0.61"/><circle cx="216" cy="230" r="1.8" fill="#f7ecd2" opacity="0.65"/><circle cx="648" cy="81" r="0.8" fill="#f7ecd2" opacity="0.73"/><circle cx="1121" cy="183" r="1.8" fill="#f7ecd2" opacity="0.78"/><circle cx="987" cy="168" r="0.8" fill="#f7ecd2" opacity="0.51"/><circle cx="942" cy="192" r="0.8" fill="#f7ecd2" opacity="0.49"/><circle cx="194" cy="183" r="1.8" fill="#f7ecd2" opacity="0.37"/><circle cx="927" cy="185" r="1.8" fill="#f7ecd2" opacity="0.80"/><circle cx="573" cy="150" r="0.8" fill="#f7ecd2" opacity="0.35"/><circle cx="68" cy="194" r="1.3" fill="#f7ecd2" opacity="0.77"/><circle cx="540" cy="265" r="1.3" fill="#f7ecd2" opacity="0.35"/><circle cx="333" cy="27" r="0.8" fill="#f7ecd2" opacity="0.76"/><circle cx="959" cy="112" r="0.8" fill="#f7ecd2" opacity="0.43"/><circle cx="1194" cy="316" r="1.3" fill="#f7ecd2" opacity="0.39"/><circle cx="486" cy="187" r="1.3" fill="#f7ecd2" opacity="0.67"/><circle cx="980" cy="120" r="42" fill="#f6ecd0" opacity="0.95"/><circle cx="996" cy="112" r="36" fill="url(#sky)" opacity="0.92"/>
<rect x="300" y="430" width="620" height="130" fill="#12141c"/><path d="M 330 560 L 330 490 Q 360 448 390 490 L 390 560 Z" fill="#0c0e14" opacity="0.9"/><path d="M 426 560 L 426 490 Q 456 448 486 490 L 486 560 Z" fill="#0c0e14" opacity="0.9"/><path d="M 522 560 L 522 490 Q 552 448 582 490 L 582 560 Z" fill="#0c0e14" opacity="0.9"/><path d="M 618 560 L 618 490 Q 648 448 678 490 L 678 560 Z" fill="#0c0e14" opacity="0.9"/><path d="M 714 560 L 714 490 Q 744 448 774 490 L 774 560 Z" fill="#0c0e14" opacity="0.9"/><path d="M 810 560 L 810 490 Q 840 448 870 490 L 870 560 Z" fill="#0c0e14" opacity="0.9"/><path d="M 300 430 L 920 430 L 920 410 L 300 410 Z" fill="#d8b45a" opacity="0.6"/><rect x="563.0" y="90" width="74" height="470" fill="#12141c"/><rect x="576.32" y="64" width="47.36" height="26" fill="#12141c"/><circle cx="600" cy="56" r="6" fill="#d8b45a"/><circle cx="600" cy="44" r="4.5" fill="#d8b45a"/><circle cx="600" cy="34" r="3" fill="#d8b45a"/><rect x="566" y="230" width="68" height="60" fill="#d8b45a" opacity="0.35"/><rect x="0" y="560" width="1200" height="60" fill="#0c0e14" opacity="0.6"/>
<rect x="0" y="560" width="1200" height="140" fill="#0c0e14"/>
<rect x="0" y="580" width="1200" height="120" fill="#152046" opacity="0.45"/><g opacity="0.35"><line x1="80" y1="600" x2="170" y2="600" stroke="#f2e6c8" stroke-width="2"/><line x1="220" y1="624" x2="310" y2="624" stroke="#f2e6c8" stroke-width="2"/><line x1="360" y1="648" x2="450" y2="648" stroke="#f2e6c8" stroke-width="2"/><line x1="500" y1="600" x2="590" y2="600" stroke="#f2e6c8" stroke-width="2"/><line x1="640" y1="624" x2="730" y2="624" stroke="#f2e6c8" stroke-width="2"/><line x1="780" y1="648" x2="870" y2="648" stroke="#f2e6c8" stroke-width="2"/><line x1="920" y1="600" x2="1010" y2="600" stroke="#f2e6c8" stroke-width="2"/><line x1="1060" y1="624" x2="1150" y2="624" stroke="#f2e6c8" stroke-width="2"/></g>
<rect x="0" y="556" width="1200" height="4" fill="#d8b45a" opacity="0.55"/>
</svg>