<svg xmlns="http://www.w3.org/2000/svg" viewBox="0 0 1200 700" role="img">
<defs>
<linearGradient id="sky" x1="0" y1="0" x2="0" y2="1">
<stop offset="0" stop-color="#0a1026"/><stop offset="0.62" stop-color="#152046"/><stop offset="1" stop-color="#2b3a6b"/>
</linearGradient>
<pattern id="g1" width="120" height="120" patternUnits="userSpaceOnUse"><polygon points="111.6,60.0 80.0,68.3 96.5,96.5 68.3,80.0 60.0,111.6 51.7,80.0 23.5,96.5 40.0,68.3 8.4,60.0 40.0,51.7 23.5,23.5 51.7,40.0 60.0,8.4 68.3,40.0 96.5,23.5 80.0,51.7" fill="none" stroke="#e8d9a8" stroke-width="1.6" opacity="0.1"/><rect x="17.4" y="17.4" width="85.2" height="85.2" fill="none" stroke="#e8d9a8" stroke-width="1.6" opacity="0.06999999999999999" transform="rotate(45 60.0 60.0)"/></pattern>
</defs>
<rect width="1200" height="700" fill="url(#sky)"/>
<rect width="1200" height="700" fill="url(#g1)"/>
<circle cx="301" cy="151" r="1.8" fill="#f7ecd2" opacity="0.36"/><circle cx="551" cy="140" r="1.3" fill="#f7ecd2" opacity="0.75"/><circle cx="938" cy="296" r="1.3" fill="#f7ecd2" opacity="0.83"/><circle cx="526" cy="163" r="1.8" fill="#f7ecd2" opacity="0.73"/><circle cx="587" cy="73" r="0.8" fill="#f7ecd2" opacity="0.36"/><circle cx="377" cy="82" r="0.8" fill="#f7ecd2" opacity="0.49"/><circle cx="784" cy="178" r="1.8" fill="#f7ecd2" opacity="0.37"/><circle cx="632" cy="285" r="1.8" fill="#f7ecd2" opacity="0.55"/><circle cx="473" cy="175" r="0.8" fill="#f7ecd2" opacity="0.60"/><circle cx="1003" cy="4" r="1.8" fill="#f7ecd2" opacity="0.47"/><circle cx="230" cy="240" r="1.8" fill="#f7ecd2" opacity="0.35"/><circle cx="338" cy="247" r="0.8" fill="#f7ecd2" opacity="0.71"/><circle cx="1159" cy="257" r="0.8" fill="#f7ecd2" opacity="0.48"/><circle cx="29" cy="306" r="1.8" fill="#f7ecd2" opacity="0.59"/><circle cx="476" cy="282" r="1.8" fill="#f7ecd2" opacity="0.67"/><circle cx="844" cy="189" r="1.3" fill="#f7ecd2" opacity="0.51"/><circle cx="245" cy="39" r="1.8" fill="#f7ecd2" opacity="0.40"/><circle cx="1055" cy="48" r="1.8" fill="#f7ecd2" opacity="0.75"/><circle cx="322" cy="164" r="0.8" fill="#f7ecd2" opacity="0.43"/><circle cx="950" cy="311" r="1.3" fill="#f7ecd2" opacity="0.35"/><circle cx="131" cy="141" r="1.8" fill="#f7ecd2" opacity="0.56"/><circle cx="481" cy="170" r="0.8" fill="#f7ecd2" opacity="0.55"/><circle cx="968" cy="26" r="1.3" fill="#f7ecd2" opacity="0.53"/><circle cx="656" cy="273" r="1.8" fill="#f7ecd2" opacity="0.73"/><circle cx="817" cy="223" r="1.8" fill="#f7ecd2" opacity="0.76"/><circle cx="707" cy="272" r="1.3" fill="#f7ecd2" opacity="0.39"/><circle cx="14" cy="268" r="0.8" fill="#f7ecd2" opacity="0.37"/><circle cx="1162" cy="215" r="0.8" fill="#f7ecd2" opacity="0.65"/><circle cx="1103" cy="145" r="0.8" fill="#f7ecd2" opacity="0.70"/><circle cx="533" cy="214" r="0.8" fill="#f7ecd2" opacity="0.47"/><circle cx="1060" cy="290" r="0.8" fill="#f7ecd2" opacity="0.35"/><circle cx="68" cy="197" r="1.3" fill="#f7ecd2" opacity="0.81"/><circle cx="989" cy="247" r="0.8" fill="#f7ecd2" opacity="0.68"/><circle cx="1159" cy="136" r="1.8" fill="#f7ecd2" opacity="0.59"/><circle cx="506" cy="12" r="1.8" fill="#f7ecd2" opacity="0.57"/><circle cx="974" cy="299" r="1.3" fill="#f7ecd2" opacity="0.61"/><circle cx="475" cy="189" r="1.3" fill="#f7ecd2" opacity="0.60"/><circle cx="185" cy="98" r="1.3" fill="#f7ecd2" opacity="0.65"/><circle cx="752" cy="54" r="1.8" fill="#f7ecd2" opacity="0.43"/><circle cx="280" cy="101" r="0.8" fill="#f7ecd2" opacity="0.65"/><circle cx="761" cy="111" r="1.8" fill="#f7ecd2" opacity="0.56"/><circle cx="11" cy="40" r="0.8" fill="#f7ecd2" opacity="0.75"/><circle cx="598" cy="276" r="1.3" fill="#f7ecd2" opacity="0.83"/><circle cx="386" cy="223" r="0.8" fill="#f7ecd2" opacity="0.63"/><circle cx="647" cy="213" r="1.8" fill="#f7ecd2" opacity="0.46"/><circle cx="637" cy="302" r="0.8" fill="#f7ecd2" opacity="0.59"/><circle cx="44" cy="338" r="1.3" fill="#f7ecd2" opacity="0.57"/><circle cx="92" cy="185" r="1.3" fill="#f7ecd2" opacity="0.55"/><circle cx="133" cy="155" r="0.8" fill="#f7ecd2" opacity="0.50"/><circle cx="863" cy="64" r="0.8" fill="#f7ecd2" opacity="0.67"/><circle cx="290" cy="40" r="0.8" fill="#f7ecd2" opacity="0.35"/><circle cx="598" cy="127" r="1.8" fill="#f7ecd2" opacity="0.81"/><circle cx="419" cy="77" r="1.3" fill="#f7ecd2" opacity="0.48"/><circle cx="689" cy="6" r="1.8" fill="#f7ecd2" opacity="0.69"/><circle cx="136" cy="262" r="1.8" fill="#f7ecd2" opacity="0.67"/><circle cx="704" cy="249" r="1.8" fill="#f7ecd2" opacity="0.81"/><circle cx="305" cy="179" r="1.3" fill="#f7ecd2" opacity="0.80"/><circle cx="115" cy="128" r="0.8" fill="#f7ecd2" opacity="0.55"/><circle cx="782" cy="124" r="0.8" fill="#f7ecd2" opacity="0.53"/><circle cx="410" cy="211" r="0.8" fill="#f7ecd2" opacity="0.45"/><circle cx="980" cy="120" r="42" fill="#f6ecd0" opacity="0.95"/><circle cx="996" cy="112" r="36" fill="url(#sky)" opacity="0.92"/>
<rect x="300" y="430" width="620" height="130" fill="#12141c"/><path d="M 330 560 L 330 490 Q 360 448 390 490 L 390 560 Z" fill="#0c0e14" opacity="0.9"/><path d="M 426 560 L 426 490 Q 456 448 486 490 L 486 560 Z" fill="#0c0e14" opacity="0.9"/><path d="M 522 560 L 522 490 Q 552 448 582 490 L 582 560 Z" fill="#0c0e14" opacity="0.9"/><path d="M 618 560 L 618 490 Q 648 448 678 490 L 678 560 Z" fill="#0c0e14" opacity="0.9"/><path d="M 714 560 L 714 490 Q 744 448 774 490 L 774 560 Z" fill="#0c0e14" opacity="0.9"/><path d="M 810 560 L 810 490 Q 840 448 870 490 L 870 560 Z" fill="#0c0e14" opacity="0.9"/><path d="M 300 430 L 920 430 L 920 410 L 300 410 Z" fill="#d8b45a" opacity="0.6"/><rect x="563.0" y="90" width="74" height="470" fill="#12141c"/><rect x="576.32" y="64" width="47.36" height="26" fill="#12141c"/><circle cx="600" cy="56" r="6" fill="#d8b45a"/><circle cx="600" cy="44" r="4.5" fill="#d8b45a"/><circle cx="600" cy="34" r="3" fill="#d8b45a"/><rect x="566" y="230" width="68" height="60" fill="#d8b45a" opacity="0.35"/><rect x="0" y="560" width="1200" height="60" fill="#0c0e14" opacity="0.6"/>
<rect x="0" y="560" width="1200" height="140" fill="#0c0e14"/>
<rect x="0" y="580" width="1200" height="120" fill="#152046" opacity="0.45"/><g opacity="0.35"><line x1="80" y1="600" x2="170" y2="600" stroke="#f2e6c8" stroke-width="2"/><line x1="220" y1="624" x2="310" y2="624" stroke="#f2e6c8" stroke-width="2"/><line x1="360" y1="648" x2="450" y2="648" stroke="#f2e6c8" stroke-width="2"/><line x1="500" y1="600" x2="590" y2="600" stroke="#f2e6c8" stroke-width="2"/><line x1="640" y1="624" x2="730" y2="624" stroke="#f2e6c8" stroke-width="2"/><line x1="780" y1="648" x2="870" y2="648" stroke="#f2e6c8" stroke-width="2"/><line x1="920" y1="600" x2="1010" y2="600" stroke="#f2e6c8" stroke-width="2"/><line x1="1060" y1="624" x2="1150" y2="624" stroke="#f2e6c8" stroke-width="2"/></g>
<rect x="0" y="556" width="1200" height="4" fill="#d8b45a" opacity="0.55"/>
</svg>