<svg xmlns="http://www.w3.org/2000/svg" viewBox="0 0 1200 700" role="img">
<defs>
<linearGradient id="sky" x1="0" y1="0" x2="0" y2="1">
<stop offset="0" stop-color="#0a1026"/><stop offset="0.62" stop-color="#152046"/><stop offset="1" stop-color="#2b3a6b"/>
</linearGradient>
<pattern id="g1" width="120" height="120" patternUnits="userSpaceOnUse"><polygon points="111.6,60.0 80.0,68.3 96.5,96.5 68.3,80.0 60.0,111.6 51.7,80.0 23.5,96.5 40.0,68.3 8.4,60.0 40.0,51.7 23.5,23.5 51.7,40.0 60.0,8.4 68.3,40.0 96.5,23.5 80.0,51.7" fill="none" stroke="#e8d9a8" stroke-width="1.6" opacity="0.1"/><rect x="17.4" y="17.4" width="85.2" height="85.2" fill="none" stroke="#e8d9a8" stroke-width="1.6" opacity="0.06999999999999999" transform="rotate(45 60.0 60.0)"/></pattern>
</defs>
<rect width="1200" height="700" fill="url(#sky)"/>
<rect width="1200" height="700" fill="url(#g1)"/>
<circle cx="563" cy="113" r="1.3" fill="#f7ecd2" opacity="0.54"/><circle cx="477" cy="226" r="1.3" fill="#f7ecd2" opacity="0.37"/><circle cx="336" cy="334" r="1.3" fill="#f7ecd2" opacity="0.59"/><circle cx="980" cy="297" r="1.8" fill="#f7ecd2" opacity="0.45"/><circle cx="129" cy="155" r="1.8" fill="#f7ecd2" opacity="0.80"/><circle cx="543" cy="128" r="1.8" fill="#f7ecd2" opacity="0.39"/><circle cx="902" cy="96" r="1.8" fill="#f7ecd2" opacity="0.77"/><circle cx="846" cy="119" r="1.8" fill="#f7ecd2" opacity="0.59"/><circle cx="495" cy="177" r="0.8" fill="#f7ecd2" opacity="0.50"/><circle cx="209" cy="210" r="1.8" fill="#f7ecd2" opacity="0.75"/><circle cx="1068" cy="38" r="1.8" fill="#f7ecd2" opacity="0.69"/><circle cx="312" cy="121" r="1.3" fill="#f7ecd2" opacity="0.37"/><circle cx="461" cy="39" r="1.8" fill="#f7ecd2" opacity="0.64"/><circle cx="675" cy="272" r="1.8" fill="#f7ecd2" opacity="0.35"/><circle cx="834" cy="160" r="1.3" fill="#f7ecd2" opacity="0.75"/><circle cx="578" cy="103" r="0.8" fill="#f7ecd2" opacity="0.69"/><circle cx="27" cy="81" r="0.8" fill="#f7ecd2" opacity="0.72"/><circle cx="741" cy="174" r="0.8" fill="#f7ecd2" opacity="0.69"/><circle cx="200" cy="122" r="1.3" fill="#f7ecd2" opacity="0.35"/><circle cx="444" cy="265" r="1.3" fill="#f7ecd2" opacity="0.45"/><circle cx="393" cy="103" r="1.3" fill="#f7ecd2" opacity="0.64"/><circle cx="407" cy="256" r="0.8" fill="#f7ecd2" opacity="0.77"/><circle cx="366" cy="64" r="1.3" fill="#f7ecd2" opacity="0.59"/><circle cx="1110" cy="67" r="1.3" fill="#f7ecd2" opacity="0.55"/><circle cx="359" cy="305" r="1.3" fill="#f7ecd2" opacity="0.80"/><circle cx="873" cy="318" r="0.8" fill="#f7ecd2" opacity="0.49"/><circle cx="132" cy="186" r="0.8" fill="#f7ecd2" opacity="0.37"/><circle cx="176" cy="249" r="1.8" fill="#f7ecd2" opacity="0.59"/><circle cx="1125" cy="147" r="0.8" fill="#f7ecd2" opacity="0.60"/><circle cx="939" cy="220" r="1.3" fill="#f7ecd2" opacity="0.65"/><circle cx="698" cy="288" r="1.8" fill="#f7ecd2" opacity="0.59"/><circle cx="42" cy="71" r="1.8" fill="#f7ecd2" opacity="0.67"/><circle cx="291" cy="29" r="1.8" fill="#f7ecd2" opacity="0.74"/><circle cx="605" cy="302" r="1.3" fill="#f7ecd2" opacity="0.45"/><circle cx="864" cy="230" r="1.8" fill="#f7ecd2" opacity="0.55"/><circle cx="708" cy="213" r="0.8" fill="#f7ecd2" opacity="0.39"/><circle cx="257" cy="231" r="1.8" fill="#f7ecd2" opacity="0.52"/><circle cx="1071" cy="24" r="0.8" fill="#f7ecd2" opacity="0.39"/><circle cx="630" cy="12" r="0.8" fill="#f7ecd2" opacity="0.45"/><circle cx="974" cy="195" r="1.8" fill="#f7ecd2" opacity="0.65"/><circle cx="1023" cy="73" r="1.3" fill="#f7ecd2" opacity="0.64"/><circle cx="1137" cy="266" r="1.8" fill="#f7ecd2" opacity="0.77"/><circle cx="1196" cy="114" r="1.8" fill="#f7ecd2" opacity="0.79"/><circle cx="840" cy="17" r="1.8" fill="#f7ecd2" opacity="0.65"/><circle cx="189" cy="295" r="1.3" fill="#f7ecd2" opacity="0.40"/><circle cx="803" cy="8" r="1.3" fill="#f7ecd2" opacity="0.59"/><circle cx="162" cy="256" r="1.3" fill="#f7ecd2" opacity="0.57"/><circle cx="306" cy="19" r="1.3" fill="#f7ecd2" opacity="0.49"/><circle cx="155" cy="157" r="0.8" fill="#f7ecd2" opacity="0.70"/><circle cx="69" cy="270" r="0.8" fill="#f7ecd2" opacity="0.65"/><circle cx="1128" cy="178" r="1.3" fill="#f7ecd2" opacity="0.69"/><circle cx="572" cy="1" r="0.8" fill="#f7ecd2" opacity="0.57"/><circle cx="921" cy="339" r="0.8" fill="#f7ecd2" opacity="0.54"/><circle cx="135" cy="172" r="1.3" fill="#f7ecd2" opacity="0.55"/><circle cx="494" cy="140" r="1.3" fill="#f7ecd2" opacity="0.45"/><circle cx="438" cy="163" r="1.3" fill="#f7ecd2" opacity="0.79"/><circle cx="87" cy="221" r="1.8" fill="#f7ecd2" opacity="0.62"/><circle cx="1001" cy="54" r="1.8" fill="#f7ecd2" opacity="0.39"/><circle cx="660" cy="82" r="1.3" fill="#f7ecd2" opacity="0.55"/><circle cx="1104" cy="305" r="1.8" fill="#f7ecd2" opacity="0.55"/><circle cx="980" cy="120" r="42" fill="#f6ecd0" opacity="0.95"/><circle cx="996" cy="112" r="36" fill="url(#sky)" opacity="0.92"/>
<rect x="300" y="430" width="620" height="130" fill="#12141c"/><path d="M 330 560 L 330 490 Q 360 448 390 490 L 390 560 Z" fill="#0c0e14" opacity="0.9"/><path d="M 426 560 L 426 490 Q 456 448 486 490 L 486 560 Z" fill="#0c0e14" opacity="0.9"/><path d="M 522 560 L 522 490 Q 552 448 582 490 L 582 560 Z" fill="#0c0e14" opacity="0.9"/><path d="M 618 560 L 618 490 Q 648 448 678 490 L 678 560 Z" fill="#0c0e14" opacity="0.9"/><path d="M 714 560 L 714 490 Q 744 448 774 490 L 774 560 Z" fill="#0c0e14" opacity="0.9"/><path d="M 810 560 L 810 490 Q 840 448 870 490 L 870 560 Z" fill="#0c0e14" opacity="0.9"/><path d="M 300 430 L 920 430 L 920 410 L 300 410 Z" fill="#d8b45a" opacity="0.6"/><rect x="563.0" y="90" width="74" height="470" fill="#12141c"/><rect x="576.32" y="64" width="47.36" height="26" fill="#12141c"/><circle cx="600" cy="56" r="6" fill="#d8b45a"/><circle cx="600" cy="44" r="4.5" fill="#d8b45a"/><circle cx="600" cy="34" r="3" fill="#d8b45a"/><rect x="566" y="230" width="68" height="60" fill="#d8b45a" opacity="0.35"/><rect x="0" y="560" width="1200" height="60" fill="#0c0e14" opacity="0.6"/>
<rect x="0" y="560" width="1200" height="140" fill="#0c0e14"/>
<rect x="0" y="580" width="1200" height="120" fill="#152046" opacity="0.45"/><g opacity="0.35"><line x1="80" y1="600" x2="170" y2="600" stroke="#f2e6c8" stroke-width="2"/><line x1="220" y1="624" x2="310" y2="624" stroke="#f2e6c8" stroke-width="2"/><line x1="360" y1="648" x2="450" y2="648" stroke="#f2e6c8" stroke-width="2"/><line x1="500" y1="600" x2="590" y2="600" stroke="#f2e6c8" stroke-width="2"/><line x1="640" y1="624" x2="730" y2="624" stroke="#f2e6c8" stroke-width="2"/><line x1="780" y1="648" x2="870" y2="648" stroke="#f2e6c8" stroke-width="2"/><line x1="920" y1="600" x2="1010" y2="600" stroke="#f2e6c8" stroke-width="2"/><line x1="1060" y1="624" x2="1150" y2="624" stroke="#f2e6c8" stroke-width="2"/></g>
<rect x="0" y="556" width="1200" height="4" fill="#d8b45a" opacity="0.55"/>
</svg>