<svg xmlns="http://www.w3.org/2000/svg" viewBox="0 0 1200 700" role="img">
<defs>
<linearGradient id="sky" x1="0" y1="0" x2="0" y2="1">
<stop offset="0" stop-color="#3f2b1b"/><stop offset="0.62" stop-color="#8a6a3f"/><stop offset="1" stop-color="#f0dca8"/>
</linearGradient>
<pattern id="g1" width="120" height="120" patternUnits="userSpaceOnUse"><polygon points="111.6,60.0 80.0,68.3 96.5,96.5 68.3,80.0 60.0,111.6 51.7,80.0 23.5,96.5 40.0,68.3 8.4,60.0 40.0,51.7 23.5,23.5 51.7,40.0 60.0,8.4 68.3,40.0 96.5,23.5 80.0,51.7" fill="none" stroke="#e8d9a8" stroke-width="1.6" opacity="0.1"/><rect x="17.4" y="17.4" width="85.2" height="85.2" fill="none" stroke="#e8d9a8" stroke-width="1.6" opacity="0.06999999999999999" transform="rotate(45 60.0 60.0)"/></pattern>
</defs>
<rect width="1200" height="700" fill="url(#sky)"/>
<rect width="1200" height="700" fill="url(#g1)"/>
<circle cx="842" cy="142" r="0.8" fill="#f7ecd2" opacity="0.49"/><circle cx="444" cy="183" r="0.8" fill="#f7ecd2" opacity="0.37"/><circle cx="327" cy="135" r="0.8" fill="#f7ecd2" opacity="0.80"/><circle cx="323" cy="70" r="0.8" fill="#f7ecd2" opacity="0.45"/><circle cx="168" cy="164" r="1.8" fill="#f7ecd2" opacity="0.37"/><circle cx="990" cy="185" r="1.8" fill="#f7ecd2" opacity="0.35"/><circle cx="1133" cy="57" r="1.8" fill="#f7ecd2" opacity="0.66"/><circle cx="909" cy="212" r="1.8" fill="#f7ecd2" opacity="0.43"/><circle cx="294" cy="126" r="0.8" fill="#f7ecd2" opacity="0.79"/><circle cx="1136" cy="107" r="1.3" fill="#f7ecd2" opacity="0.37"/><circle cx="339" cy="99" r="0.8" fill="#f7ecd2" opacity="0.46"/><circle cx="1095" cy="54" r="0.8" fill="#f7ecd2" opacity="0.65"/><circle cx="20" cy="8" r="1.3" fill="#f7ecd2" opacity="0.45"/><circle cx="882" cy="169" r="1.3" fill="#f7ecd2" opacity="0.43"/><circle cx="345" cy="81" r="0.8" fill="#f7ecd2" opacity="0.80"/><circle cx="881" cy="36" r="1.8" fill="#f7ecd2" opacity="0.51"/><circle cx="546" cy="50" r="1.8" fill="#f7ecd2" opacity="0.35"/><circle cx="228" cy="151" r="1.3" fill="#f7ecd2" opacity="0.63"/><circle cx="1151" cy="3" r="1.8" fill="#f7ecd2" opacity="0.38"/><circle cx="267" cy="158" r="1.8" fill="#f7ecd2" opacity="0.71"/><circle cx="672" cy="12" r="0.8" fill="#f7ecd2" opacity="0.49"/><circle cx="374" cy="73" r="0.8" fill="#f7ecd2" opacity="0.37"/><circle cx="357" cy="45" r="0.8" fill="#f7ecd2" opacity="0.50"/><circle cx="453" cy="0" r="0.8" fill="#f7ecd2" opacity="0.35"/><circle cx="398" cy="114" r="1.8" fill="#f7ecd2" opacity="0.57"/><circle cx="120" cy="135" r="0.8" fill="#f7ecd2" opacity="0.35"/><circle cx="363" cy="27" r="0.8" fill="#f7ecd2" opacity="0.36"/><circle cx="239" cy="202" r="0.8" fill="#f7ecd2" opacity="0.63"/><circle cx="924" cy="156" r="0.8" fill="#f7ecd2" opacity="0.79"/><circle cx="666" cy="137" r="1.8" fill="#f7ecd2" opacity="0.77"/><circle cx="960" cy="210" r="110.00000000000001" fill="#f0dca8" opacity="0.18"/><circle cx="960" cy="210" r="50" fill="#f0dca8" opacity="0.9"/>
<rect x="240" y="390" width="720" height="170" fill="#12141c"/><rect x="262" y="364" width="40" height="26" fill="#12141c"/><rect x="340" y="364" width="40" height="26" fill="#12141c"/><rect x="418" y="364" width="40" height="26" fill="#12141c"/><rect x="496" y="364" width="40" height="26" fill="#12141c"/><rect x="574" y="364" width="40" height="26" fill="#12141c"/><rect x="652" y="364" width="40" height="26" fill="#12141c"/><rect x="730" y="364" width="40" height="26" fill="#12141c"/><rect x="808" y="364" width="40" height="26" fill="#12141c"/><rect x="886" y="364" width="40" height="26" fill="#12141c"/><path d="M 296 560 L 308 390 L 332 390 L 344 560 Z" fill="#0c0e14" opacity="0.8"/><path d="M 536 560 L 548 390 L 572 390 L 584 560 Z" fill="#0c0e14" opacity="0.8"/><path d="M 776 560 L 788 390 L 812 390 L 824 560 Z" fill="#0c0e14" opacity="0.8"/><path d="M 818 390 C 818 333.9, 845.9 324, 880 324 C 914.1 324, 942 333.9, 942 390 Z" fill="#e8e0cf"/><line x1="880" y1="324" x2="880" y2="302" stroke="#d8b45a" stroke-width="3"/><circle cx="880" cy="298" r="4.5" fill="#d8b45a"/><path d="M 880 284 a 8 8 0 1 0 6 13 a 6.4 6.4 0 1 1 -6 -13 Z" fill="#d8b45a"/><rect x="314" y="90" width="92" height="300" fill="#12141c"/><rect x="326" y="20" width="68" height="70" fill="#12141c"/><path d="M 330 20 C 330 -8.899999999999999, 343.5 -14, 360 -14 C 376.5 -14, 390 -8.899999999999999, 390 20 Z" fill="#e8e0cf"/><line x1="360" y1="-14" x2="360" y2="-36" stroke="#d8b45a" stroke-width="3"/><circle cx="360" cy="-40" r="4.5" fill="#d8b45a"/><path d="M 360 -54 a 8 8 0 1 0 6 13 a 6.4 6.4 0 1 1 -6 -13 Z" fill="#d8b45a"/>
<rect x="0" y="560" width="1200" height="140" fill="#0c0e14"/>

<rect x="0" y="556" width="1200" height="4" fill="#d8b45a" opacity="0.55"/>
</svg>