<svg xmlns="http://www.w3.org/2000/svg" viewBox="0 0 1200 700" role="img">
<defs>
<linearGradient id="sky" x1="0" y1="0" x2="0" y2="1">
<stop offset="0" stop-color="#3f2b1b"/><stop offset="0.62" stop-color="#8a6a3f"/><stop offset="1" stop-color="#f0dca8"/>
</linearGradient>
<pattern id="g1" width="120" height="120" patternUnits="userSpaceOnUse"><polygon points="111.6,60.0 80.0,68.3 96.5,96.5 68.3,80.0 60.0,111.6 51.7,80.0 23.5,96.5 40.0,68.3 8.4,60.0 40.0,51.7 23.5,23.5 51.7,40.0 60.0,8.4 68.3,40.0 96.5,23.5 80.0,51.7" fill="none" stroke="#e8d9a8" stroke-width="1.6" opacity="0.1"/><rect x="17.4" y="17.4" width="85.2" height="85.2" fill="none" stroke="#e8d9a8" stroke-width="1.6" opacity="0.06999999999999999" transform="rotate(45 60.0 60.0)"/></pattern>
</defs>
<rect width="1200" height="700" fill="url(#sky)"/>
<rect width="1200" height="700" fill="url(#g1)"/>
<circle cx="1010" cy="70" r="0.8" fill="#f7ecd2" opacity="0.35"/><circle cx="708" cy="7" r="1.3" fill="#f7ecd2" opacity="0.41"/><circle cx="399" cy="167" r="1.8" fill="#f7ecd2" opacity="0.68"/><circle cx="779" cy="126" r="1.8" fill="#f7ecd2" opacity="0.39"/><circle cx="1056" cy="192" r="0.8" fill="#f7ecd2" opacity="0.37"/><circle cx="1014" cy="49" r="1.3" fill="#f7ecd2" opacity="0.71"/><circle cx="485" cy="209" r="1.3" fill="#f7ecd2" opacity="0.50"/><circle cx="405" cy="208" r="1.3" fill="#f7ecd2" opacity="0.75"/><circle cx="702" cy="14" r="1.8" fill="#f7ecd2" opacity="0.63"/><circle cx="920" cy="11" r="1.3" fill="#f7ecd2" opacity="0.55"/><circle cx="171" cy="171" r="0.8" fill="#f7ecd2" opacity="0.76"/><circle cx="831" cy="10" r="1.3" fill="#f7ecd2" opacity="0.45"/><circle cx="1148" cy="216" r="1.8" fill="#f7ecd2" opacity="0.53"/><circle cx="426" cy="113" r="1.8" fill="#f7ecd2" opacity="0.73"/><circle cx="657" cy="73" r="1.3" fill="#f7ecd2" opacity="0.46"/><circle cx="857" cy="172" r="0.8" fill="#f7ecd2" opacity="0.39"/><circle cx="1194" cy="118" r="1.3" fill="#f7ecd2" opacity="0.77"/><circle cx="732" cy="155" r="1.8" fill="#f7ecd2" opacity="0.45"/><circle cx="743" cy="115" r="0.8" fill="#f7ecd2" opacity="0.80"/><circle cx="483" cy="34" r="1.3" fill="#f7ecd2" opacity="0.57"/><circle cx="840" cy="160" r="1.3" fill="#f7ecd2" opacity="0.35"/><circle cx="638" cy="117" r="1.8" fill="#f7ecd2" opacity="0.81"/><circle cx="429" cy="77" r="1.8" fill="#f7ecd2" opacity="0.68"/><circle cx="909" cy="56" r="1.8" fill="#f7ecd2" opacity="0.39"/><circle cx="86" cy="122" r="1.3" fill="#f7ecd2" opacity="0.77"/><circle cx="144" cy="219" r="0.8" fill="#f7ecd2" opacity="0.71"/><circle cx="915" cy="199" r="1.3" fill="#f7ecd2" opacity="0.70"/><circle cx="935" cy="218" r="1.3" fill="#f7ecd2" opacity="0.65"/><circle cx="132" cy="24" r="0.8" fill="#f7ecd2" opacity="0.53"/><circle cx="450" cy="41" r="1.8" fill="#f7ecd2" opacity="0.35"/><circle cx="960" cy="210" r="110.00000000000001" fill="#f0dca8" opacity="0.18"/><circle cx="960" cy="210" r="50" fill="#f0dca8" opacity="0.9"/>
<rect x="240" y="390" width="720" height="170" fill="#12141c"/><rect x="262" y="364" width="40" height="26" fill="#12141c"/><rect x="340" y="364" width="40" height="26" fill="#12141c"/><rect x="418" y="364" width="40" height="26" fill="#12141c"/><rect x="496" y="364" width="40" height="26" fill="#12141c"/><rect x="574" y="364" width="40" height="26" fill="#12141c"/><rect x="652" y="364" width="40" height="26" fill="#12141c"/><rect x="730" y="364" width="40" height="26" fill="#12141c"/><rect x="808" y="364" width="40" height="26" fill="#12141c"/><rect x="886" y="364" width="40" height="26" fill="#12141c"/><path d="M 296 560 L 308 390 L 332 390 L 344 560 Z" fill="#0c0e14" opacity="0.8"/><path d="M 536 560 L 548 390 L 572 390 L 584 560 Z" fill="#0c0e14" opacity="0.8"/><path d="M 776 560 L 788 390 L 812 390 L 824 560 Z" fill="#0c0e14" opacity="0.8"/><path d="M 818 390 C 818 333.9, 845.9 324, 880 324 C 914.1 324, 942 333.9, 942 390 Z" fill="#e8e0cf"/><line x1="880" y1="324" x2="880" y2="302" stroke="#d8b45a" stroke-width="3"/><circle cx="880" cy="298" r="4.5" fill="#d8b45a"/><path d="M 880 284 a 8 8 0 1 0 6 13 a 6.4 6.4 0 1 1 -6 -13 Z" fill="#d8b45a"/><rect x="314" y="90" width="92" height="300" fill="#12141c"/><rect x="326" y="20" width="68" height="70" fill="#12141c"/><path d="M 330 20 C 330 -8.899999999999999, 343.5 -14, 360 -14 C 376.5 -14, 390 -8.899999999999999, 390 20 Z" fill="#e8e0cf"/><line x1="360" y1="-14" x2="360" y2="-36" stroke="#d8b45a" stroke-width="3"/><circle cx="360" cy="-40" r="4.5" fill="#d8b45a"/><path d="M 360 -54 a 8 8 0 1 0 6 13 a 6.4 6.4 0 1 1 -6 -13 Z" fill="#d8b45a"/>
<rect x="0" y="560" width="1200" height="140" fill="#0c0e14"/>

<rect x="0" y="556" width="1200" height="4" fill="#d8b45a" opacity="0.55"/>
</svg>