<svg xmlns="http://www.w3.org/2000/svg" viewBox="0 0 1200 700" role="img">
<defs>
<linearGradient id="sky" x1="0" y1="0" x2="0" y2="1">
<stop offset="0" stop-color="#0a1026"/><stop offset="0.62" stop-color="#152046"/><stop offset="1" stop-color="#2b3a6b"/>
</linearGradient>
<pattern id="g1" width="120" height="120" patternUnits="userSpaceOnUse"><polygon points="111.6,60.0 80.0,68.3 96.5,96.5 68.3,80.0 60.0,111.6 51.7,80.0 23.5,96.5 40.0,68.3 8.4,60.0 40.0,51.7 23.5,23.5 51.7,40.0 60.0,8.4 68.3,40.0 96.5,23.5 80.0,51.7" fill="none" stroke="#e8d9a8" stroke-width="1.6" opacity="0.1"/><rect x="17.4" y="17.4" width="85.2" height="85.2" fill="none" stroke="#e8d9a8" stroke-width="1.6" opacity="0.06999999999999999" transform="rotate(45 60.0 60.0)"/></pattern>
</defs>
<rect width="1200" height="700" fill="url(#sky)"/>
<rect width="1200" height="700" fill="url(#g1)"/>
<circle cx="564" cy="144" r="0.8" fill="#f7ecd2" opacity="0.51"/><circle cx="550" cy="109" r="1.8" fill="#f7ecd2" opacity="0.35"/><circle cx="865" cy="73" r="1.8" fill="#f7ecd2" opacity="0.80"/><circle cx="1197" cy="224" r="1.8" fill="#f7ecd2" opacity="0.63"/><circle cx="370" cy="146" r="0.8" fill="#f7ecd2" opacity="0.55"/><circle cx="136" cy="91" r="1.8" fill="#f7ecd2" opacity="0.61"/><circle cx="1191" cy="215" r="1.8" fill="#f7ecd2" opacity="0.50"/><circle cx="343" cy="166" r="1.8" fill="#f7ecd2" opacity="0.73"/><circle cx="976" cy="128" r="0.8" fill="#f7ecd2" opacity="0.63"/><circle cx="522" cy="53" r="1.8" fill="#f7ecd2" opacity="0.51"/><circle cx="1117" cy="197" r="0.8" fill="#f7ecd2" opacity="0.84"/><circle cx="289" cy="88" r="1.8" fill="#f7ecd2" opacity="0.67"/><circle cx="1182" cy="290" r="1.8" fill="#f7ecd2" opacity="0.65"/><circle cx="508" cy="195" r="1.3" fill="#f7ecd2" opacity="0.45"/><circle cx="643" cy="19" r="1.8" fill="#f7ecd2" opacity="0.52"/><circle cx="1035" cy="330" r="0.8" fill="#f7ecd2" opacity="0.35"/><circle cx="988" cy="292" r="1.8" fill="#f7ecd2" opacity="0.81"/><circle cx="94" cy="177" r="1.3" fill="#f7ecd2" opacity="0.73"/><circle cx="969" cy="161" r="1.8" fill="#f7ecd2" opacity="0.44"/><circle cx="181" cy="272" r="0.8" fill="#f7ecd2" opacity="0.67"/><circle cx="394" cy="134" r="0.8" fill="#f7ecd2" opacity="0.81"/><circle cx="480" cy="139" r="1.3" fill="#f7ecd2" opacity="0.55"/><circle cx="895" cy="143" r="0.8" fill="#f7ecd2" opacity="0.70"/><circle cx="127" cy="194" r="0.8" fill="#f7ecd2" opacity="0.73"/><circle cx="600" cy="296" r="1.8" fill="#f7ecd2" opacity="0.35"/><circle cx="466" cy="281" r="0.8" fill="#f7ecd2" opacity="0.81"/><circle cx="421" cy="305" r="0.8" fill="#f7ecd2" opacity="0.40"/><circle cx="873" cy="96" r="0.8" fill="#f7ecd2" opacity="0.43"/><circle cx="406" cy="298" r="1.8" fill="#f7ecd2" opacity="0.73"/><circle cx="52" cy="263" r="0.8" fill="#f7ecd2" opacity="0.61"/><circle cx="747" cy="107" r="1.8" fill="#f7ecd2" opacity="0.64"/><circle cx="19" cy="38" r="0.8" fill="#f7ecd2" opacity="0.57"/><circle cx="1012" cy="280" r="1.8" fill="#f7ecd2" opacity="0.45"/><circle cx="438" cy="225" r="0.8" fill="#f7ecd2" opacity="0.35"/><circle cx="673" cy="89" r="0.8" fill="#f7ecd2" opacity="0.82"/><circle cx="1165" cy="100" r="1.8" fill="#f7ecd2" opacity="0.35"/><circle cx="18" cy="302" r="1.8" fill="#f7ecd2" opacity="0.71"/><circle cx="424" cy="27" r="1.3" fill="#f7ecd2" opacity="0.83"/><circle cx="199" cy="251" r="0.8" fill="#f7ecd2" opacity="0.84"/><circle cx="711" cy="202" r="1.3" fill="#f7ecd2" opacity="0.57"/><circle cx="1024" cy="104" r="0.8" fill="#f7ecd2" opacity="0.81"/><circle cx="10" cy="9" r="1.3" fill="#f7ecd2" opacity="0.75"/><circle cx="525" cy="53" r="1.8" fill="#f7ecd2" opacity="0.60"/><circle cx="1057" cy="284" r="0.8" fill="#f7ecd2" opacity="0.73"/><circle cx="430" cy="286" r="1.8" fill="#f7ecd2" opacity="0.65"/><circle cx="396" cy="311" r="1.8" fill="#f7ecd2" opacity="0.41"/><circle cx="451" cy="35" r="0.8" fill="#f7ecd2" opacity="0.70"/><circle cx="1003" cy="206" r="0.8" fill="#f7ecd2" opacity="0.53"/><circle cx="636" cy="108" r="0.8" fill="#f7ecd2" opacity="0.73"/><circle cx="382" cy="113" r="0.8" fill="#f7ecd2" opacity="0.51"/><circle cx="1177" cy="337" r="1.8" fill="#f7ecd2" opacity="0.84"/><circle cx="549" cy="308" r="1.8" fill="#f7ecd2" opacity="0.77"/><circle cx="442" cy="110" r="0.8" fill="#f7ecd2" opacity="0.55"/><circle cx="1168" cy="235" r="1.8" fill="#f7ecd2" opacity="0.65"/><circle cx="303" cy="339" r="0.8" fill="#f7ecd2" opacity="0.52"/><circle cx="895" cy="50" r="0.8" fill="#f7ecd2" opacity="0.35"/><circle cx="1048" cy="92" r="0.8" fill="#f7ecd2" opacity="0.51"/><circle cx="354" cy="57" r="0.8" fill="#f7ecd2" opacity="0.63"/><circle cx="229" cy="321" r="1.3" fill="#f7ecd2" opacity="0.44"/><circle cx="841" cy="312" r="1.3" fill="#f7ecd2" opacity="0.77"/><circle cx="980" cy="120" r="42" fill="#f6ecd0" opacity="0.95"/><circle cx="996" cy="112" r="36" fill="url(#sky)" opacity="0.92"/>
<rect x="240" y="390" width="720" height="170" fill="#12141c"/><rect x="262" y="364" width="40" height="26" fill="#12141c"/><rect x="340" y="364" width="40" height="26" fill="#12141c"/><rect x="418" y="364" width="40" height="26" fill="#12141c"/><rect x="496" y="364" width="40" height="26" fill="#12141c"/><rect x="574" y="364" width="40" height="26" fill="#12141c"/><rect x="652" y="364" width="40" height="26" fill="#12141c"/><rect x="730" y="364" width="40" height="26" fill="#12141c"/><rect x="808" y="364" width="40" height="26" fill="#12141c"/><rect x="886" y="364" width="40" height="26" fill="#12141c"/><path d="M 296 560 L 308 390 L 332 390 L 344 560 Z" fill="#0c0e14" opacity="0.8"/><path d="M 536 560 L 548 390 L 572 390 L 584 560 Z" fill="#0c0e14" opacity="0.8"/><path d="M 776 560 L 788 390 L 812 390 L 824 560 Z" fill="#0c0e14" opacity="0.8"/><path d="M 818 390 C 818 333.9, 845.9 324, 880 324 C 914.1 324, 942 333.9, 942 390 Z" fill="#e8e0cf"/><line x1="880" y1="324" x2="880" y2="302" stroke="#d8b45a" stroke-width="3"/><circle cx="880" cy="298" r="4.5" fill="#d8b45a"/><path d="M 880 284 a 8 8 0 1 0 6 13 a 6.4 6.4 0 1 1 -6 -13 Z" fill="#d8b45a"/><rect x="314" y="90" width="92" height="300" fill="#12141c"/><rect x="326" y="20" width="68" height="70" fill="#12141c"/><path d="M 330 20 C 330 -8.899999999999999, 343.5 -14, 360 -14 C 376.5 -14, 390 -8.899999999999999, 390 20 Z" fill="#e8e0cf"/><line x1="360" y1="-14" x2="360" y2="-36" stroke="#d8b45a" stroke-width="3"/><circle cx="360" cy="-40" r="4.5" fill="#d8b45a"/><path d="M 360 -54 a 8 8 0 1 0 6 13 a 6.4 6.4 0 1 1 -6 -13 Z" fill="#d8b45a"/>
<rect x="0" y="560" width="1200" height="140" fill="#0c0e14"/>

<rect x="0" y="556" width="1200" height="4" fill="#d8b45a" opacity="0.55"/>
</svg>