<svg xmlns="http://www.w3.org/2000/svg" viewBox="0 0 1200 700" role="img">
<defs>
<linearGradient id="sky" x1="0" y1="0" x2="0" y2="1">
<stop offset="0" stop-color="#0a1026"/><stop offset="0.62" stop-color="#152046"/><stop offset="1" stop-color="#2b3a6b"/>
</linearGradient>
<pattern id="g1" width="120" height="120" patternUnits="userSpaceOnUse"><polygon points="111.6,60.0 80.0,68.3 96.5,96.5 68.3,80.0 60.0,111.6 51.7,80.0 23.5,96.5 40.0,68.3 8.4,60.0 40.0,51.7 23.5,23.5 51.7,40.0 60.0,8.4 68.3,40.0 96.5,23.5 80.0,51.7" fill="none" stroke="#e8d9a8" stroke-width="1.6" opacity="0.1"/><rect x="17.4" y="17.4" width="85.2" height="85.2" fill="none" stroke="#e8d9a8" stroke-width="1.6" opacity="0.06999999999999999" transform="rotate(45 60.0 60.0)"/></pattern>
</defs>
<rect width="1200" height="700" fill="url(#sky)"/>
<rect width="1200" height="700" fill="url(#g1)"/>
<circle cx="155" cy="45" r="1.8" fill="#f7ecd2" opacity="0.60"/><circle cx="693" cy="122" r="1.8" fill="#f7ecd2" opacity="0.81"/><circle cx="504" cy="102" r="0.8" fill="#f7ecd2" opacity="0.43"/><circle cx="44" cy="181" r="0.8" fill="#f7ecd2" opacity="0.49"/><circle cx="201" cy="7" r="1.3" fill="#f7ecd2" opacity="0.42"/><circle cx="999" cy="324" r="0.8" fill="#f7ecd2" opacity="0.61"/><circle cx="590" cy="284" r="1.3" fill="#f7ecd2" opacity="0.45"/><circle cx="870" cy="183" r="0.8" fill="#f7ecd2" opacity="0.45"/><circle cx="1047" cy="289" r="1.3" fill="#f7ecd2" opacity="0.68"/><circle cx="905" cy="26" r="1.3" fill="#f7ecd2" opacity="0.65"/><circle cx="276" cy="306" r="0.8" fill="#f7ecd2" opacity="0.41"/><circle cx="96" cy="225" r="0.8" fill="#f7ecd2" opacity="0.35"/><circle cx="293" cy="271" r="0.8" fill="#f7ecd2" opacity="0.38"/><circle cx="411" cy="248" r="1.8" fill="#f7ecd2" opacity="0.63"/><circle cx="762" cy="308" r="1.8" fill="#f7ecd2" opacity="0.81"/><circle cx="122" cy="247" r="0.8" fill="#f7ecd2" opacity="0.69"/><circle cx="339" cy="233" r="1.8" fill="#f7ecd2" opacity="0.72"/><circle cx="717" cy="110" r="1.8" fill="#f7ecd2" opacity="0.55"/><circle cx="848" cy="150" r="1.8" fill="#f7ecd2" opacity="0.35"/><circle cx="948" cy="249" r="0.8" fill="#f7ecd2" opacity="0.37"/><circle cx="1185" cy="175" r="1.3" fill="#f7ecd2" opacity="0.60"/><circle cx="623" cy="152" r="1.3" fill="#f7ecd2" opacity="0.81"/><circle cx="534" cy="172" r="1.3" fill="#f7ecd2" opacity="0.83"/><circle cx="174" cy="291" r="0.8" fill="#f7ecd2" opacity="0.69"/><circle cx="431" cy="157" r="0.8" fill="#f7ecd2" opacity="0.52"/><circle cx="129" cy="34" r="1.3" fill="#f7ecd2" opacity="0.71"/><circle cx="1020" cy="174" r="0.8" fill="#f7ecd2" opacity="0.65"/><circle cx="200" cy="313" r="0.8" fill="#f7ecd2" opacity="0.35"/><circle cx="477" cy="119" r="1.8" fill="#f7ecd2" opacity="0.48"/><circle cx="435" cy="236" r="1.8" fill="#f7ecd2" opacity="0.45"/><circle cx="1106" cy="16" r="0.8" fill="#f7ecd2" opacity="0.81"/><circle cx="1026" cy="315" r="0.8" fill="#f7ecd2" opacity="0.75"/><circle cx="123" cy="261" r="0.8" fill="#f7ecd2" opacity="0.38"/><circle cx="341" cy="278" r="1.3" fill="#f7ecd2" opacity="0.83"/><circle cx="792" cy="38" r="1.8" fill="#f7ecd2" opacity="0.81"/><circle cx="252" cy="17" r="1.8" fill="#f7ecd2" opacity="0.69"/><circle cx="569" cy="43" r="0.8" fill="#f7ecd2" opacity="0.52"/><circle cx="1047" cy="300" r="0.8" fill="#f7ecd2" opacity="0.35"/><circle cx="78" cy="240" r="0.8" fill="#f7ecd2" opacity="0.55"/><circle cx="278" cy="39" r="1.8" fill="#f7ecd2" opacity="0.77"/><circle cx="615" cy="5" r="1.8" fill="#f7ecd2" opacity="0.60"/><circle cx="153" cy="22" r="1.3" fill="#f7ecd2" opacity="0.51"/><circle cx="164" cy="82" r="0.8" fill="#f7ecd2" opacity="0.83"/><circle cx="1104" cy="41" r="1.8" fill="#f7ecd2" opacity="0.49"/><circle cx="261" cy="147" r="0.8" fill="#f7ecd2" opacity="0.52"/><circle cx="59" cy="64" r="0.8" fill="#f7ecd2" opacity="0.61"/><circle cx="1050" cy="244" r="1.3" fill="#f7ecd2" opacity="0.35"/><circle cx="330" cy="83" r="1.8" fill="#f7ecd2" opacity="0.75"/><circle cx="707" cy="269" r="1.3" fill="#f7ecd2" opacity="0.68"/><circle cx="765" cy="86" r="1.8" fill="#f7ecd2" opacity="0.75"/><circle cx="336" cy="106" r="1.3" fill="#f7ecd2" opacity="0.51"/><circle cx="356" cy="105" r="1.8" fill="#f7ecd2" opacity="0.65"/><circle cx="753" cy="231" r="0.8" fill="#f7ecd2" opacity="0.78"/><circle cx="1071" cy="288" r="0.8" fill="#f7ecd2" opacity="0.83"/><circle cx="422" cy="288" r="1.8" fill="#f7ecd2" opacity="0.71"/><circle cx="1182" cy="107" r="1.8" fill="#f7ecd2" opacity="0.59"/><circle cx="399" cy="33" r="0.8" fill="#f7ecd2" opacity="0.52"/><circle cx="977" cy="330" r="1.8" fill="#f7ecd2" opacity="0.45"/><circle cx="108" cy="310" r="1.3" fill="#f7ecd2" opacity="0.65"/><circle cx="408" cy="149" r="1.8" fill="#f7ecd2" opacity="0.77"/><circle cx="980" cy="120" r="42" fill="#f6ecd0" opacity="0.95"/><circle cx="996" cy="112" r="36" fill="url(#sky)" opacity="0.92"/>
<rect x="240" y="390" width="720" height="170" fill="#12141c"/><rect x="262" y="364" width="40" height="26" fill="#12141c"/><rect x="340" y="364" width="40" height="26" fill="#12141c"/><rect x="418" y="364" width="40" height="26" fill="#12141c"/><rect x="496" y="364" width="40" height="26" fill="#12141c"/><rect x="574" y="364" width="40" height="26" fill="#12141c"/><rect x="652" y="364" width="40" height="26" fill="#12141c"/><rect x="730" y="364" width="40" height="26" fill="#12141c"/><rect x="808" y="364" width="40" height="26" fill="#12141c"/><rect x="886" y="364" width="40" height="26" fill="#12141c"/><path d="M 296 560 L 308 390 L 332 390 L 344 560 Z" fill="#0c0e14" opacity="0.8"/><path d="M 536 560 L 548 390 L 572 390 L 584 560 Z" fill="#0c0e14" opacity="0.8"/><path d="M 776 560 L 788 390 L 812 390 L 824 560 Z" fill="#0c0e14" opacity="0.8"/><path d="M 818 390 C 818 333.9, 845.9 324, 880 324 C 914.1 324, 942 333.9, 942 390 Z" fill="#e8e0cf"/><line x1="880" y1="324" x2="880" y2="302" stroke="#d8b45a" stroke-width="3"/><circle cx="880" cy="298" r="4.5" fill="#d8b45a"/><path d="M 880 284 a 8 8 0 1 0 6 13 a 6.4 6.4 0 1 1 -6 -13 Z" fill="#d8b45a"/><rect x="314" y="90" width="92" height="300" fill="#12141c"/><rect x="326" y="20" width="68" height="70" fill="#12141c"/><path d="M 330 20 C 330 -8.899999999999999, 343.5 -14, 360 -14 C 376.5 -14, 390 -8.899999999999999, 390 20 Z" fill="#e8e0cf"/><line x1="360" y1="-14" x2="360" y2="-36" stroke="#d8b45a" stroke-width="3"/><circle cx="360" cy="-40" r="4.5" fill="#d8b45a"/><path d="M 360 -54 a 8 8 0 1 0 6 13 a 6.4 6.4 0 1 1 -6 -13 Z" fill="#d8b45a"/>
<rect x="0" y="560" width="1200" height="140" fill="#0c0e14"/>

<rect x="0" y="556" width="1200" height="4" fill="#d8b45a" opacity="0.55"/>
</svg>