<svg xmlns="http://www.w3.org/2000/svg" viewBox="0 0 1200 700" role="img">
<defs>
<linearGradient id="sky" x1="0" y1="0" x2="0" y2="1">
<stop offset="0" stop-color="#0a1026"/><stop offset="0.62" stop-color="#152046"/><stop offset="1" stop-color="#2b3a6b"/>
</linearGradient>
<pattern id="g1" width="120" height="120" patternUnits="userSpaceOnUse"><polygon points="111.6,60.0 80.0,68.3 96.5,96.5 68.3,80.0 60.0,111.6 51.7,80.0 23.5,96.5 40.0,68.3 8.4,60.0 40.0,51.7 23.5,23.5 51.7,40.0 60.0,8.4 68.3,40.0 96.5,23.5 80.0,51.7" fill="none" stroke="#e8d9a8" stroke-width="1.6" opacity="0.1"/><rect x="17.4" y="17.4" width="85.2" height="85.2" fill="none" stroke="#e8d9a8" stroke-width="1.6" opacity="0.06999999999999999" transform="rotate(45 60.0 60.0)"/></pattern>
</defs>
<rect width="1200" height="700" fill="url(#sky)"/>
<rect width="1200" height="700" fill="url(#g1)"/>
<circle cx="418" cy="38" r="0.8" fill="#f7ecd2" opacity="0.69"/><circle cx="692" cy="91" r="0.8" fill="#f7ecd2" opacity="0.57"/><circle cx="431" cy="219" r="1.8" fill="#f7ecd2" opacity="0.74"/><circle cx="715" cy="242" r="0.8" fill="#f7ecd2" opacity="0.65"/><circle cx="1184" cy="220" r="0.8" fill="#f7ecd2" opacity="0.65"/><circle cx="758" cy="333" r="1.8" fill="#f7ecd2" opacity="0.49"/><circle cx="997" cy="321" r="1.3" fill="#f7ecd2" opacity="0.72"/><circle cx="581" cy="64" r="0.8" fill="#f7ecd2" opacity="0.69"/><circle cx="350" cy="102" r="1.8" fill="#f7ecd2" opacity="0.35"/><circle cx="424" cy="75" r="1.3" fill="#f7ecd2" opacity="0.35"/><circle cx="1163" cy="263" r="1.3" fill="#f7ecd2" opacity="0.54"/><circle cx="47" cy="66" r="1.8" fill="#f7ecd2" opacity="0.37"/><circle cx="316" cy="304" r="1.8" fill="#f7ecd2" opacity="0.49"/><circle cx="890" cy="137" r="1.3" fill="#f7ecd2" opacity="0.65"/><circle cx="929" cy="45" r="1.8" fill="#f7ecd2" opacity="0.40"/><circle cx="313" cy="48" r="1.3" fill="#f7ecd2" opacity="0.59"/><circle cx="1082" cy="146" r="1.3" fill="#f7ecd2" opacity="0.57"/><circle cx="956" cy="39" r="1.8" fill="#f7ecd2" opacity="0.69"/><circle cx="295" cy="7" r="1.8" fill="#f7ecd2" opacity="0.50"/><circle cx="179" cy="210" r="1.8" fill="#f7ecd2" opacity="0.75"/><circle cx="248" cy="28" r="0.8" fill="#f7ecd2" opacity="0.79"/><circle cx="622" cy="121" r="1.8" fill="#f7ecd2" opacity="0.47"/><circle cx="461" cy="289" r="0.8" fill="#f7ecd2" opacity="0.64"/><circle cx="845" cy="12" r="1.8" fill="#f7ecd2" opacity="0.75"/><circle cx="214" cy="230" r="0.8" fill="#f7ecd2" opacity="0.55"/><circle cx="1088" cy="183" r="1.8" fill="#f7ecd2" opacity="0.39"/><circle cx="227" cy="71" r="1.3" fill="#f7ecd2" opacity="0.52"/><circle cx="1111" cy="334" r="1.8" fill="#f7ecd2" opacity="0.59"/><circle cx="980" cy="72" r="1.8" fill="#f7ecd2" opacity="0.45"/><circle cx="1154" cy="85" r="0.8" fill="#f7ecd2" opacity="0.75"/><circle cx="793" cy="173" r="0.8" fill="#f7ecd2" opacity="0.74"/><circle cx="977" cy="156" r="1.8" fill="#f7ecd2" opacity="0.47"/><circle cx="146" cy="294" r="1.8" fill="#f7ecd2" opacity="0.59"/><circle cx="820" cy="167" r="0.8" fill="#f7ecd2" opacity="0.75"/><circle cx="959" cy="115" r="0.8" fill="#f7ecd2" opacity="0.70"/><circle cx="443" cy="158" r="1.3" fill="#f7ecd2" opacity="0.79"/><circle cx="112" cy="156" r="1.3" fill="#f7ecd2" opacity="0.57"/><circle cx="86" cy="89" r="1.3" fill="#f7ecd2" opacity="0.39"/><circle cx="725" cy="237" r="1.8" fill="#f7ecd2" opacity="0.60"/><circle cx="709" cy="140" r="0.8" fill="#f7ecd2" opacity="0.45"/><circle cx="878" cy="338" r="1.3" fill="#f7ecd2" opacity="0.49"/><circle cx="152" cy="331" r="0.8" fill="#f7ecd2" opacity="0.47"/><circle cx="91" cy="199" r="1.8" fill="#f7ecd2" opacity="0.44"/><circle cx="575" cy="302" r="1.3" fill="#f7ecd2" opacity="0.35"/><circle cx="44" cy="220" r="0.8" fill="#f7ecd2" opacity="0.65"/><circle cx="1018" cy="213" r="1.3" fill="#f7ecd2" opacity="0.69"/><circle cx="257" cy="141" r="1.8" fill="#f7ecd2" opacity="0.72"/><circle cx="41" cy="304" r="0.8" fill="#f7ecd2" opacity="0.49"/><circle cx="10" cy="82" r="1.8" fill="#f7ecd2" opacity="0.55"/><circle cx="284" cy="135" r="1.8" fill="#f7ecd2" opacity="0.75"/><circle cx="23" cy="263" r="1.3" fill="#f7ecd2" opacity="0.84"/><circle cx="307" cy="286" r="1.8" fill="#f7ecd2" opacity="0.37"/><circle cx="776" cy="264" r="1.8" fill="#f7ecd2" opacity="0.49"/><circle cx="350" cy="37" r="0.8" fill="#f7ecd2" opacity="0.35"/><circle cx="589" cy="25" r="1.8" fill="#f7ecd2" opacity="0.60"/><circle cx="173" cy="108" r="1.8" fill="#f7ecd2" opacity="0.69"/><circle cx="1142" cy="286" r="0.8" fill="#f7ecd2" opacity="0.47"/><circle cx="16" cy="119" r="0.8" fill="#f7ecd2" opacity="0.39"/><circle cx="755" cy="307" r="0.8" fill="#f7ecd2" opacity="0.70"/><circle cx="839" cy="250" r="0.8" fill="#f7ecd2" opacity="0.35"/><circle cx="980" cy="120" r="42" fill="#f6ecd0" opacity="0.95"/><circle cx="996" cy="112" r="36" fill="url(#sky)" opacity="0.92"/>
<rect x="240" y="390" width="720" height="170" fill="#12141c"/><rect x="262" y="364" width="40" height="26" fill="#12141c"/><rect x="340" y="364" width="40" height="26" fill="#12141c"/><rect x="418" y="364" width="40" height="26" fill="#12141c"/><rect x="496" y="364" width="40" height="26" fill="#12141c"/><rect x="574" y="364" width="40" height="26" fill="#12141c"/><rect x="652" y="364" width="40" height="26" fill="#12141c"/><rect x="730" y="364" width="40" height="26" fill="#12141c"/><rect x="808" y="364" width="40" height="26" fill="#12141c"/><rect x="886" y="364" width="40" height="26" fill="#12141c"/><path d="M 296 560 L 308 390 L 332 390 L 344 560 Z" fill="#0c0e14" opacity="0.8"/><path d="M 536 560 L 548 390 L 572 390 L 584 560 Z" fill="#0c0e14" opacity="0.8"/><path d="M 776 560 L 788 390 L 812 390 L 824 560 Z" fill="#0c0e14" opacity="0.8"/><path d="M 818 390 C 818 333.9, 845.9 324, 880 324 C 914.1 324, 942 333.9, 942 390 Z" fill="#e8e0cf"/><line x1="880" y1="324" x2="880" y2="302" stroke="#d8b45a" stroke-width="3"/><circle cx="880" cy="298" r="4.5" fill="#d8b45a"/><path d="M 880 284 a 8 8 0 1 0 6 13 a 6.4 6.4 0 1 1 -6 -13 Z" fill="#d8b45a"/><rect x="314" y="90" width="92" height="300" fill="#12141c"/><rect x="326" y="20" width="68" height="70" fill="#12141c"/><path d="M 330 20 C 330 -8.899999999999999, 343.5 -14, 360 -14 C 376.5 -14, 390 -8.899999999999999, 390 20 Z" fill="#e8e0cf"/><line x1="360" y1="-14" x2="360" y2="-36" stroke="#d8b45a" stroke-width="3"/><circle cx="360" cy="-40" r="4.5" fill="#d8b45a"/><path d="M 360 -54 a 8 8 0 1 0 6 13 a 6.4 6.4 0 1 1 -6 -13 Z" fill="#d8b45a"/>
<rect x="0" y="560" width="1200" height="140" fill="#0c0e14"/>

<rect x="0" y="556" width="1200" height="4" fill="#d8b45a" opacity="0.55"/>
</svg>