<svg xmlns="http://www.w3.org/2000/svg" viewBox="0 0 1200 700" role="img">
<defs>
<linearGradient id="sky" x1="0" y1="0" x2="0" y2="1">
<stop offset="0" stop-color="#0a1026"/><stop offset="0.62" stop-color="#152046"/><stop offset="1" stop-color="#2b3a6b"/>
</linearGradient>
<pattern id="g1" width="120" height="120" patternUnits="userSpaceOnUse"><polygon points="111.6,60.0 80.0,68.3 96.5,96.5 68.3,80.0 60.0,111.6 51.7,80.0 23.5,96.5 40.0,68.3 8.4,60.0 40.0,51.7 23.5,23.5 51.7,40.0 60.0,8.4 68.3,40.0 96.5,23.5 80.0,51.7" fill="none" stroke="#e8d9a8" stroke-width="1.6" opacity="0.1"/><rect x="17.4" y="17.4" width="85.2" height="85.2" fill="none" stroke="#e8d9a8" stroke-width="1.6" opacity="0.06999999999999999" transform="rotate(45 60.0 60.0)"/></pattern>
</defs>
<rect width="1200" height="700" fill="url(#sky)"/>
<rect width="1200" height="700" fill="url(#g1)"/>
<circle cx="921" cy="331" r="1.3" fill="#f7ecd2" opacity="0.36"/><circle cx="211" cy="140" r="0.8" fill="#f7ecd2" opacity="0.75"/><circle cx="118" cy="36" r="1.3" fill="#f7ecd2" opacity="0.83"/><circle cx="666" cy="83" r="1.8" fill="#f7ecd2" opacity="0.63"/><circle cx="7" cy="113" r="0.8" fill="#f7ecd2" opacity="0.76"/><circle cx="37" cy="82" r="1.8" fill="#f7ecd2" opacity="0.69"/><circle cx="1164" cy="58" r="1.3" fill="#f7ecd2" opacity="0.47"/><circle cx="772" cy="205" r="1.8" fill="#f7ecd2" opacity="0.45"/><circle cx="1093" cy="15" r="1.3" fill="#f7ecd2" opacity="0.80"/><circle cx="663" cy="4" r="1.3" fill="#f7ecd2" opacity="0.37"/><circle cx="610" cy="120" r="1.3" fill="#f7ecd2" opacity="0.35"/><circle cx="478" cy="167" r="0.8" fill="#f7ecd2" opacity="0.61"/><circle cx="579" cy="297" r="0.8" fill="#f7ecd2" opacity="0.48"/><circle cx="889" cy="106" r="1.8" fill="#f7ecd2" opacity="0.69"/><circle cx="856" cy="162" r="1.3" fill="#f7ecd2" opacity="0.57"/><circle cx="984" cy="109" r="1.3" fill="#f7ecd2" opacity="0.41"/><circle cx="865" cy="219" r="1.3" fill="#f7ecd2" opacity="0.70"/><circle cx="715" cy="48" r="1.3" fill="#f7ecd2" opacity="0.55"/><circle cx="702" cy="44" r="1.8" fill="#f7ecd2" opacity="0.73"/><circle cx="1090" cy="231" r="1.3" fill="#f7ecd2" opacity="0.75"/><circle cx="751" cy="321" r="1.3" fill="#f7ecd2" opacity="0.56"/><circle cx="141" cy="170" r="1.8" fill="#f7ecd2" opacity="0.55"/><circle cx="148" cy="106" r="1.8" fill="#f7ecd2" opacity="0.73"/><circle cx="796" cy="193" r="1.8" fill="#f7ecd2" opacity="0.63"/><circle cx="237" cy="263" r="1.8" fill="#f7ecd2" opacity="0.66"/><circle cx="367" cy="272" r="0.8" fill="#f7ecd2" opacity="0.59"/><circle cx="394" cy="148" r="1.8" fill="#f7ecd2" opacity="0.47"/><circle cx="102" cy="335" r="1.8" fill="#f7ecd2" opacity="0.55"/><circle cx="523" cy="185" r="0.8" fill="#f7ecd2" opacity="0.40"/><circle cx="193" cy="214" r="1.8" fill="#f7ecd2" opacity="0.37"/><circle cx="240" cy="30" r="0.8" fill="#f7ecd2" opacity="0.35"/><circle cx="208" cy="117" r="1.3" fill="#f7ecd2" opacity="0.71"/><circle cx="409" cy="287" r="0.8" fill="#f7ecd2" opacity="0.68"/><circle cx="819" cy="136" r="1.3" fill="#f7ecd2" opacity="0.69"/><circle cx="886" cy="232" r="1.8" fill="#f7ecd2" opacity="0.37"/><circle cx="1114" cy="219" r="1.3" fill="#f7ecd2" opacity="0.51"/><circle cx="1095" cy="29" r="1.8" fill="#f7ecd2" opacity="0.40"/><circle cx="1045" cy="238" r="1.8" fill="#f7ecd2" opacity="0.45"/><circle cx="1132" cy="274" r="1.8" fill="#f7ecd2" opacity="0.53"/><circle cx="420" cy="21" r="0.8" fill="#f7ecd2" opacity="0.55"/><circle cx="181" cy="151" r="1.8" fill="#f7ecd2" opacity="0.66"/><circle cx="871" cy="180" r="1.3" fill="#f7ecd2" opacity="0.65"/><circle cx="978" cy="156" r="0.8" fill="#f7ecd2" opacity="0.53"/><circle cx="526" cy="143" r="0.8" fill="#f7ecd2" opacity="0.53"/><circle cx="67" cy="253" r="1.8" fill="#f7ecd2" opacity="0.36"/><circle cx="297" cy="302" r="1.8" fill="#f7ecd2" opacity="0.79"/><circle cx="424" cy="218" r="0.8" fill="#f7ecd2" opacity="0.67"/><circle cx="232" cy="105" r="1.3" fill="#f7ecd2" opacity="0.45"/><circle cx="753" cy="335" r="1.8" fill="#f7ecd2" opacity="0.40"/><circle cx="523" cy="64" r="1.8" fill="#f7ecd2" opacity="0.57"/><circle cx="670" cy="260" r="0.8" fill="#f7ecd2" opacity="0.35"/><circle cx="738" cy="47" r="1.8" fill="#f7ecd2" opacity="0.71"/><circle cx="1039" cy="257" r="0.8" fill="#f7ecd2" opacity="0.58"/><circle cx="349" cy="6" r="1.3" fill="#f7ecd2" opacity="0.79"/><circle cx="516" cy="142" r="1.3" fill="#f7ecd2" opacity="0.57"/><circle cx="844" cy="169" r="1.8" fill="#f7ecd2" opacity="0.71"/><circle cx="925" cy="19" r="1.8" fill="#f7ecd2" opacity="0.60"/><circle cx="975" cy="268" r="1.3" fill="#f7ecd2" opacity="0.35"/><circle cx="1162" cy="4" r="1.8" fill="#f7ecd2" opacity="0.83"/><circle cx="550" cy="131" r="0.8" fill="#f7ecd2" opacity="0.35"/><circle cx="980" cy="120" r="42" fill="#f6ecd0" opacity="0.95"/><circle cx="996" cy="112" r="36" fill="url(#sky)" opacity="0.92"/>
<rect x="240" y="390" width="720" height="170" fill="#12141c"/><rect x="262" y="364" width="40" height="26" fill="#12141c"/><rect x="340" y="364" width="40" height="26" fill="#12141c"/><rect x="418" y="364" width="40" height="26" fill="#12141c"/><rect x="496" y="364" width="40" height="26" fill="#12141c"/><rect x="574" y="364" width="40" height="26" fill="#12141c"/><rect x="652" y="364" width="40" height="26" fill="#12141c"/><rect x="730" y="364" width="40" height="26" fill="#12141c"/><rect x="808" y="364" width="40" height="26" fill="#12141c"/><rect x="886" y="364" width="40" height="26" fill="#12141c"/><path d="M 296 560 L 308 390 L 332 390 L 344 560 Z" fill="#0c0e14" opacity="0.8"/><path d="M 536 560 L 548 390 L 572 390 L 584 560 Z" fill="#0c0e14" opacity="0.8"/><path d="M 776 560 L 788 390 L 812 390 L 824 560 Z" fill="#0c0e14" opacity="0.8"/><path d="M 818 390 C 818 333.9, 845.9 324, 880 324 C 914.1 324, 942 333.9, 942 390 Z" fill="#e8e0cf"/><line x1="880" y1="324" x2="880" y2="302" stroke="#d8b45a" stroke-width="3"/><circle cx="880" cy="298" r="4.5" fill="#d8b45a"/><path d="M 880 284 a 8 8 0 1 0 6 13 a 6.4 6.4 0 1 1 -6 -13 Z" fill="#d8b45a"/><rect x="314" y="90" width="92" height="300" fill="#12141c"/><rect x="326" y="20" width="68" height="70" fill="#12141c"/><path d="M 330 20 C 330 -8.899999999999999, 343.5 -14, 360 -14 C 376.5 -14, 390 -8.899999999999999, 390 20 Z" fill="#e8e0cf"/><line x1="360" y1="-14" x2="360" y2="-36" stroke="#d8b45a" stroke-width="3"/><circle cx="360" cy="-40" r="4.5" fill="#d8b45a"/><path d="M 360 -54 a 8 8 0 1 0 6 13 a 6.4 6.4 0 1 1 -6 -13 Z" fill="#d8b45a"/>
<rect x="0" y="560" width="1200" height="140" fill="#0c0e14"/>

<rect x="0" y="556" width="1200" height="4" fill="#d8b45a" opacity="0.55"/>
</svg>