<svg xmlns="http://www.w3.org/2000/svg" viewBox="0 0 1200 700" role="img">
<defs>
<linearGradient id="sky" x1="0" y1="0" x2="0" y2="1">
<stop offset="0" stop-color="#0a1026"/><stop offset="0.62" stop-color="#152046"/><stop offset="1" stop-color="#2b3a6b"/>
</linearGradient>
<pattern id="g1" width="120" height="120" patternUnits="userSpaceOnUse"><polygon points="111.6,60.0 80.0,68.3 96.5,96.5 68.3,80.0 60.0,111.6 51.7,80.0 23.5,96.5 40.0,68.3 8.4,60.0 40.0,51.7 23.5,23.5 51.7,40.0 60.0,8.4 68.3,40.0 96.5,23.5 80.0,51.7" fill="none" stroke="#e8d9a8" stroke-width="1.6" opacity="0.1"/><rect x="17.4" y="17.4" width="85.2" height="85.2" fill="none" stroke="#e8d9a8" stroke-width="1.6" opacity="0.06999999999999999" transform="rotate(45 60.0 60.0)"/></pattern>
</defs>
<rect width="1200" height="700" fill="url(#sky)"/>
<rect width="1200" height="700" fill="url(#g1)"/>
<circle cx="1148" cy="228" r="1.8" fill="#f7ecd2" opacity="0.79"/><circle cx="1182" cy="321" r="0.8" fill="#f7ecd2" opacity="0.57"/><circle cx="201" cy="229" r="1.3" fill="#f7ecd2" opacity="0.64"/><circle cx="725" cy="212" r="1.3" fill="#f7ecd2" opacity="0.35"/><circle cx="714" cy="270" r="0.8" fill="#f7ecd2" opacity="0.65"/><circle cx="48" cy="83" r="1.8" fill="#f7ecd2" opacity="0.69"/><circle cx="767" cy="331" r="0.8" fill="#f7ecd2" opacity="0.62"/><circle cx="591" cy="34" r="1.3" fill="#f7ecd2" opacity="0.79"/><circle cx="1080" cy="292" r="1.3" fill="#f7ecd2" opacity="0.45"/><circle cx="914" cy="305" r="1.3" fill="#f7ecd2" opacity="0.55"/><circle cx="933" cy="273" r="0.8" fill="#f7ecd2" opacity="0.44"/><circle cx="57" cy="36" r="0.8" fill="#f7ecd2" opacity="0.37"/><circle cx="1046" cy="154" r="0.8" fill="#f7ecd2" opacity="0.69"/><circle cx="180" cy="227" r="1.8" fill="#f7ecd2" opacity="0.45"/><circle cx="699" cy="55" r="1.3" fill="#f7ecd2" opacity="0.80"/><circle cx="323" cy="18" r="1.8" fill="#f7ecd2" opacity="0.49"/><circle cx="612" cy="196" r="1.3" fill="#f7ecd2" opacity="0.37"/><circle cx="246" cy="129" r="0.8" fill="#f7ecd2" opacity="0.69"/><circle cx="65" cy="17" r="1.3" fill="#f7ecd2" opacity="0.40"/><circle cx="189" cy="180" r="0.8" fill="#f7ecd2" opacity="0.55"/><circle cx="978" cy="218" r="1.8" fill="#f7ecd2" opacity="0.39"/><circle cx="1112" cy="11" r="1.3" fill="#f7ecd2" opacity="0.67"/><circle cx="231" cy="299" r="1.8" fill="#f7ecd2" opacity="0.54"/><circle cx="855" cy="322" r="1.3" fill="#f7ecd2" opacity="0.45"/><circle cx="944" cy="80" r="1.3" fill="#f7ecd2" opacity="0.55"/><circle cx="378" cy="273" r="0.8" fill="#f7ecd2" opacity="0.79"/><circle cx="1197" cy="221" r="1.8" fill="#f7ecd2" opacity="0.72"/><circle cx="1121" cy="304" r="0.8" fill="#f7ecd2" opacity="0.69"/><circle cx="510" cy="122" r="1.8" fill="#f7ecd2" opacity="0.55"/><circle cx="444" cy="175" r="1.3" fill="#f7ecd2" opacity="0.35"/><circle cx="563" cy="183" r="1.8" fill="#f7ecd2" opacity="0.64"/><circle cx="987" cy="126" r="0.8" fill="#f7ecd2" opacity="0.47"/><circle cx="876" cy="144" r="0.8" fill="#f7ecd2" opacity="0.79"/><circle cx="110" cy="257" r="1.3" fill="#f7ecd2" opacity="0.55"/><circle cx="729" cy="125" r="1.8" fill="#f7ecd2" opacity="0.60"/><circle cx="453" cy="128" r="1.8" fill="#f7ecd2" opacity="0.69"/><circle cx="842" cy="6" r="1.8" fill="#f7ecd2" opacity="0.37"/><circle cx="576" cy="319" r="1.3" fill="#f7ecd2" opacity="0.79"/><circle cx="495" cy="247" r="1.3" fill="#f7ecd2" opacity="0.50"/><circle cx="719" cy="110" r="1.3" fill="#f7ecd2" opacity="0.75"/><circle cx="408" cy="48" r="0.8" fill="#f7ecd2" opacity="0.69"/><circle cx="642" cy="221" r="1.8" fill="#f7ecd2" opacity="0.67"/><circle cx="1061" cy="9" r="1.8" fill="#f7ecd2" opacity="0.84"/><circle cx="585" cy="272" r="1.8" fill="#f7ecd2" opacity="0.55"/><circle cx="774" cy="70" r="1.3" fill="#f7ecd2" opacity="0.65"/><circle cx="308" cy="303" r="1.8" fill="#f7ecd2" opacity="0.59"/><circle cx="27" cy="151" r="1.3" fill="#f7ecd2" opacity="0.62"/><circle cx="51" cy="274" r="1.3" fill="#f7ecd2" opacity="0.59"/><circle cx="740" cy="272" r="1.3" fill="#f7ecd2" opacity="0.65"/><circle cx="774" cy="25" r="1.3" fill="#f7ecd2" opacity="0.35"/><circle cx="993" cy="73" r="1.3" fill="#f7ecd2" opacity="0.74"/><circle cx="317" cy="256" r="0.8" fill="#f7ecd2" opacity="0.37"/><circle cx="306" cy="314" r="1.8" fill="#f7ecd2" opacity="0.69"/><circle cx="840" cy="267" r="0.8" fill="#f7ecd2" opacity="0.65"/><circle cx="359" cy="35" r="1.3" fill="#f7ecd2" opacity="0.50"/><circle cx="183" cy="78" r="0.8" fill="#f7ecd2" opacity="0.59"/><circle cx="672" cy="336" r="0.8" fill="#f7ecd2" opacity="0.77"/><circle cx="506" cy="9" r="1.8" fill="#f7ecd2" opacity="0.39"/><circle cx="525" cy="317" r="1.8" fill="#f7ecd2" opacity="0.60"/><circle cx="849" cy="220" r="1.3" fill="#f7ecd2" opacity="0.65"/><circle cx="980" cy="120" r="42" fill="#f6ecd0" opacity="0.95"/><circle cx="996" cy="112" r="36" fill="url(#sky)" opacity="0.92"/>
<rect x="240" y="390" width="720" height="170" fill="#12141c"/><rect x="262" y="364" width="40" height="26" fill="#12141c"/><rect x="340" y="364" width="40" height="26" fill="#12141c"/><rect x="418" y="364" width="40" height="26" fill="#12141c"/><rect x="496" y="364" width="40" height="26" fill="#12141c"/><rect x="574" y="364" width="40" height="26" fill="#12141c"/><rect x="652" y="364" width="40" height="26" fill="#12141c"/><rect x="730" y="364" width="40" height="26" fill="#12141c"/><rect x="808" y="364" width="40" height="26" fill="#12141c"/><rect x="886" y="364" width="40" height="26" fill="#12141c"/><path d="M 296 560 L 308 390 L 332 390 L 344 560 Z" fill="#0c0e14" opacity="0.8"/><path d="M 536 560 L 548 390 L 572 390 L 584 560 Z" fill="#0c0e14" opacity="0.8"/><path d="M 776 560 L 788 390 L 812 390 L 824 560 Z" fill="#0c0e14" opacity="0.8"/><path d="M 818 390 C 818 333.9, 845.9 324, 880 324 C 914.1 324, 942 333.9, 942 390 Z" fill="#e8e0cf"/><line x1="880" y1="324" x2="880" y2="302" stroke="#d8b45a" stroke-width="3"/><circle cx="880" cy="298" r="4.5" fill="#d8b45a"/><path d="M 880 284 a 8 8 0 1 0 6 13 a 6.4 6.4 0 1 1 -6 -13 Z" fill="#d8b45a"/><rect x="314" y="90" width="92" height="300" fill="#12141c"/><rect x="326" y="20" width="68" height="70" fill="#12141c"/><path d="M 330 20 C 330 -8.899999999999999, 343.5 -14, 360 -14 C 376.5 -14, 390 -8.899999999999999, 390 20 Z" fill="#e8e0cf"/><line x1="360" y1="-14" x2="360" y2="-36" stroke="#d8b45a" stroke-width="3"/><circle cx="360" cy="-40" r="4.5" fill="#d8b45a"/><path d="M 360 -54 a 8 8 0 1 0 6 13 a 6.4 6.4 0 1 1 -6 -13 Z" fill="#d8b45a"/>
<rect x="0" y="560" width="1200" height="140" fill="#0c0e14"/>

<rect x="0" y="556" width="1200" height="4" fill="#d8b45a" opacity="0.55"/>
</svg>