<svg xmlns="http://www.w3.org/2000/svg" viewBox="0 0 1200 700" role="img">
<defs>
<linearGradient id="sky" x1="0" y1="0" x2="0" y2="1">
<stop offset="0" stop-color="#0a1026"/><stop offset="0.62" stop-color="#152046"/><stop offset="1" stop-color="#2b3a6b"/>
</linearGradient>
<pattern id="g1" width="120" height="120" patternUnits="userSpaceOnUse"><polygon points="111.6,60.0 80.0,68.3 96.5,96.5 68.3,80.0 60.0,111.6 51.7,80.0 23.5,96.5 40.0,68.3 8.4,60.0 40.0,51.7 23.5,23.5 51.7,40.0 60.0,8.4 68.3,40.0 96.5,23.5 80.0,51.7" fill="none" stroke="#e8d9a8" stroke-width="1.6" opacity="0.1"/><rect x="17.4" y="17.4" width="85.2" height="85.2" fill="none" stroke="#e8d9a8" stroke-width="1.6" opacity="0.06999999999999999" transform="rotate(45 60.0 60.0)"/></pattern>
</defs>
<rect width="1200" height="700" fill="url(#sky)"/>
<rect width="1200" height="700" fill="url(#g1)"/>
<circle cx="545" cy="235" r="0.8" fill="#f7ecd2" opacity="0.60"/><circle cx="363" cy="92" r="1.8" fill="#f7ecd2" opacity="0.81"/><circle cx="414" cy="32" r="1.8" fill="#f7ecd2" opacity="0.83"/><circle cx="674" cy="331" r="0.8" fill="#f7ecd2" opacity="0.79"/><circle cx="591" cy="197" r="1.8" fill="#f7ecd2" opacity="0.62"/><circle cx="669" cy="294" r="0.8" fill="#f7ecd2" opacity="0.71"/><circle cx="500" cy="214" r="0.8" fill="#f7ecd2" opacity="0.35"/><circle cx="300" cy="193" r="1.3" fill="#f7ecd2" opacity="0.35"/><circle cx="237" cy="339" r="0.8" fill="#f7ecd2" opacity="0.78"/><circle cx="575" cy="336" r="1.8" fill="#f7ecd2" opacity="0.35"/><circle cx="186" cy="236" r="1.8" fill="#f7ecd2" opacity="0.81"/><circle cx="726" cy="35" r="1.8" fill="#f7ecd2" opacity="0.45"/><circle cx="683" cy="121" r="0.8" fill="#f7ecd2" opacity="0.78"/><circle cx="81" cy="218" r="1.8" fill="#f7ecd2" opacity="0.43"/><circle cx="672" cy="238" r="1.3" fill="#f7ecd2" opacity="0.71"/><circle cx="752" cy="57" r="1.8" fill="#f7ecd2" opacity="0.49"/><circle cx="729" cy="83" r="1.8" fill="#f7ecd2" opacity="0.42"/><circle cx="387" cy="80" r="1.8" fill="#f7ecd2" opacity="0.45"/><circle cx="758" cy="80" r="1.3" fill="#f7ecd2" opacity="0.75"/><circle cx="378" cy="259" r="1.3" fill="#f7ecd2" opacity="0.37"/><circle cx="375" cy="225" r="0.8" fill="#f7ecd2" opacity="0.60"/><circle cx="293" cy="122" r="1.3" fill="#f7ecd2" opacity="0.81"/><circle cx="444" cy="102" r="0.8" fill="#f7ecd2" opacity="0.73"/><circle cx="804" cy="101" r="1.8" fill="#f7ecd2" opacity="0.39"/><circle cx="821" cy="7" r="0.8" fill="#f7ecd2" opacity="0.82"/><circle cx="999" cy="144" r="0.8" fill="#f7ecd2" opacity="0.41"/><circle cx="930" cy="104" r="1.8" fill="#f7ecd2" opacity="0.55"/><circle cx="830" cy="123" r="1.8" fill="#f7ecd2" opacity="0.75"/><circle cx="867" cy="309" r="0.8" fill="#f7ecd2" opacity="0.38"/><circle cx="105" cy="206" r="1.8" fill="#f7ecd2" opacity="0.65"/><circle cx="1016" cy="286" r="0.8" fill="#f7ecd2" opacity="0.61"/><circle cx="456" cy="325" r="1.3" fill="#f7ecd2" opacity="0.35"/><circle cx="513" cy="111" r="0.8" fill="#f7ecd2" opacity="0.78"/><circle cx="11" cy="248" r="1.3" fill="#f7ecd2" opacity="0.63"/><circle cx="702" cy="308" r="1.8" fill="#f7ecd2" opacity="0.51"/><circle cx="882" cy="167" r="1.8" fill="#f7ecd2" opacity="0.79"/><circle cx="959" cy="233" r="1.3" fill="#f7ecd2" opacity="0.82"/><circle cx="717" cy="270" r="0.8" fill="#f7ecd2" opacity="0.75"/><circle cx="1188" cy="310" r="1.3" fill="#f7ecd2" opacity="0.65"/><circle cx="908" cy="189" r="1.8" fill="#f7ecd2" opacity="0.47"/><circle cx="1005" cy="195" r="0.8" fill="#f7ecd2" opacity="0.60"/><circle cx="1023" cy="132" r="0.8" fill="#f7ecd2" opacity="0.71"/><circle cx="74" cy="12" r="1.8" fill="#f7ecd2" opacity="0.73"/><circle cx="534" cy="51" r="0.8" fill="#f7ecd2" opacity="0.69"/><circle cx="651" cy="337" r="1.3" fill="#f7ecd2" opacity="0.72"/><circle cx="929" cy="174" r="1.8" fill="#f7ecd2" opacity="0.81"/><circle cx="960" cy="174" r="0.8" fill="#f7ecd2" opacity="0.75"/><circle cx="960" cy="233" r="1.8" fill="#f7ecd2" opacity="0.65"/><circle cx="1097" cy="119" r="1.3" fill="#f7ecd2" opacity="0.78"/><circle cx="435" cy="56" r="1.8" fill="#f7ecd2" opacity="0.45"/><circle cx="246" cy="36" r="0.8" fill="#f7ecd2" opacity="0.41"/><circle cx="986" cy="255" r="1.8" fill="#f7ecd2" opacity="0.65"/><circle cx="1143" cy="81" r="0.8" fill="#f7ecd2" opacity="0.68"/><circle cx="741" cy="258" r="0.8" fill="#f7ecd2" opacity="0.63"/><circle cx="332" cy="218" r="1.3" fill="#f7ecd2" opacity="0.61"/><circle cx="612" cy="117" r="0.8" fill="#f7ecd2" opacity="0.39"/><circle cx="789" cy="223" r="1.3" fill="#f7ecd2" opacity="0.82"/><circle cx="647" cy="300" r="1.8" fill="#f7ecd2" opacity="0.35"/><circle cx="18" cy="240" r="0.8" fill="#f7ecd2" opacity="0.55"/><circle cx="1038" cy="299" r="1.8" fill="#f7ecd2" opacity="0.47"/><circle cx="980" cy="120" r="42" fill="#f6ecd0" opacity="0.95"/><circle cx="996" cy="112" r="36" fill="url(#sky)" opacity="0.92"/>
<rect x="240" y="390" width="720" height="170" fill="#12141c"/><rect x="262" y="364" width="40" height="26" fill="#12141c"/><rect x="340" y="364" width="40" height="26" fill="#12141c"/><rect x="418" y="364" width="40" height="26" fill="#12141c"/><rect x="496" y="364" width="40" height="26" fill="#12141c"/><rect x="574" y="364" width="40" height="26" fill="#12141c"/><rect x="652" y="364" width="40" height="26" fill="#12141c"/><rect x="730" y="364" width="40" height="26" fill="#12141c"/><rect x="808" y="364" width="40" height="26" fill="#12141c"/><rect x="886" y="364" width="40" height="26" fill="#12141c"/><path d="M 296 560 L 308 390 L 332 390 L 344 560 Z" fill="#0c0e14" opacity="0.8"/><path d="M 536 560 L 548 390 L 572 390 L 584 560 Z" fill="#0c0e14" opacity="0.8"/><path d="M 776 560 L 788 390 L 812 390 L 824 560 Z" fill="#0c0e14" opacity="0.8"/><path d="M 818 390 C 818 333.9, 845.9 324, 880 324 C 914.1 324, 942 333.9, 942 390 Z" fill="#e8e0cf"/><line x1="880" y1="324" x2="880" y2="302" stroke="#d8b45a" stroke-width="3"/><circle cx="880" cy="298" r="4.5" fill="#d8b45a"/><path d="M 880 284 a 8 8 0 1 0 6 13 a 6.4 6.4 0 1 1 -6 -13 Z" fill="#d8b45a"/><rect x="314" y="90" width="92" height="300" fill="#12141c"/><rect x="326" y="20" width="68" height="70" fill="#12141c"/><path d="M 330 20 C 330 -8.899999999999999, 343.5 -14, 360 -14 C 376.5 -14, 390 -8.899999999999999, 390 20 Z" fill="#e8e0cf"/><line x1="360" y1="-14" x2="360" y2="-36" stroke="#d8b45a" stroke-width="3"/><circle cx="360" cy="-40" r="4.5" fill="#d8b45a"/><path d="M 360 -54 a 8 8 0 1 0 6 13 a 6.4 6.4 0 1 1 -6 -13 Z" fill="#d8b45a"/>
<rect x="0" y="560" width="1200" height="140" fill="#0c0e14"/>

<rect x="0" y="556" width="1200" height="4" fill="#d8b45a" opacity="0.55"/>
</svg>