<svg xmlns="http://www.w3.org/2000/svg" viewBox="0 0 1200 700" role="img">
<defs>
<linearGradient id="sky" x1="0" y1="0" x2="0" y2="1">
<stop offset="0" stop-color="#0a1026"/><stop offset="0.62" stop-color="#152046"/><stop offset="1" stop-color="#2b3a6b"/>
</linearGradient>
<pattern id="g1" width="120" height="120" patternUnits="userSpaceOnUse"><polygon points="111.6,60.0 80.0,68.3 96.5,96.5 68.3,80.0 60.0,111.6 51.7,80.0 23.5,96.5 40.0,68.3 8.4,60.0 40.0,51.7 23.5,23.5 51.7,40.0 60.0,8.4 68.3,40.0 96.5,23.5 80.0,51.7" fill="none" stroke="#e8d9a8" stroke-width="1.6" opacity="0.1"/><rect x="17.4" y="17.4" width="85.2" height="85.2" fill="none" stroke="#e8d9a8" stroke-width="1.6" opacity="0.06999999999999999" transform="rotate(45 60.0 60.0)"/></pattern>
</defs>
<rect width="1200" height="700" fill="url(#sky)"/>
<rect width="1200" height="700" fill="url(#g1)"/>
<circle cx="672" cy="92" r="1.8" fill="#f7ecd2" opacity="0.59"/><circle cx="34" cy="93" r="1.3" fill="#f7ecd2" opacity="0.47"/><circle cx="397" cy="185" r="0.8" fill="#f7ecd2" opacity="0.80"/><circle cx="633" cy="80" r="1.8" fill="#f7ecd2" opacity="0.75"/><circle cx="1198" cy="314" r="0.8" fill="#f7ecd2" opacity="0.57"/><circle cx="580" cy="255" r="1.3" fill="#f7ecd2" opacity="0.35"/><circle cx="3" cy="107" r="1.8" fill="#f7ecd2" opacity="0.56"/><circle cx="19" cy="322" r="1.8" fill="#f7ecd2" opacity="0.53"/><circle cx="124" cy="236" r="0.8" fill="#f7ecd2" opacity="0.49"/><circle cx="726" cy="257" r="1.8" fill="#f7ecd2" opacity="0.67"/><circle cx="409" cy="9" r="1.3" fill="#f7ecd2" opacity="0.66"/><circle cx="205" cy="204" r="1.3" fill="#f7ecd2" opacity="0.55"/><circle cx="1050" cy="278" r="1.8" fill="#f7ecd2" opacity="0.35"/><circle cx="472" cy="99" r="1.3" fill="#f7ecd2" opacity="0.63"/><circle cx="415" cy="91" r="1.8" fill="#f7ecd2" opacity="0.50"/><circle cx="1191" cy="66" r="0.8" fill="#f7ecd2" opacity="0.41"/><circle cx="376" cy="20" r="0.8" fill="#f7ecd2" opacity="0.55"/><circle cx="1018" cy="261" r="1.3" fill="#f7ecd2" opacity="0.83"/><circle cx="21" cy="13" r="1.3" fill="#f7ecd2" opacity="0.58"/><circle cx="577" cy="308" r="0.8" fill="#f7ecd2" opacity="0.51"/><circle cx="502" cy="82" r="1.8" fill="#f7ecd2" opacity="0.49"/><circle cx="1164" cy="263" r="1.8" fill="#f7ecd2" opacity="0.67"/><circle cx="427" cy="255" r="1.3" fill="#f7ecd2" opacity="0.70"/><circle cx="763" cy="190" r="1.8" fill="#f7ecd2" opacity="0.55"/><circle cx="228" cy="324" r="0.8" fill="#f7ecd2" opacity="0.57"/><circle cx="910" cy="105" r="1.3" fill="#f7ecd2" opacity="0.35"/><circle cx="433" cy="337" r="1.8" fill="#f7ecd2" opacity="0.56"/><circle cx="549" cy="252" r="0.8" fill="#f7ecd2" opacity="0.83"/><circle cx="754" cy="206" r="0.8" fill="#f7ecd2" opacity="0.59"/><circle cx="256" cy="127" r="1.8" fill="#f7ecd2" opacity="0.47"/><circle cx="39" cy="259" r="1.3" fill="#f7ecd2" opacity="0.36"/><circle cx="1135" cy="294" r="1.3" fill="#f7ecd2" opacity="0.75"/><circle cx="880" cy="268" r="1.8" fill="#f7ecd2" opacity="0.75"/><circle cx="402" cy="129" r="0.8" fill="#f7ecd2" opacity="0.43"/><circle cx="445" cy="161" r="0.8" fill="#f7ecd2" opacity="0.80"/><circle cx="121" cy="36" r="1.3" fill="#f7ecd2" opacity="0.41"/><circle cx="606" cy="170" r="1.8" fill="#f7ecd2" opacity="0.55"/><circle cx="148" cy="311" r="0.8" fill="#f7ecd2" opacity="0.63"/><circle cx="451" cy="243" r="1.3" fill="#f7ecd2" opacity="0.78"/><circle cx="1107" cy="238" r="1.3" fill="#f7ecd2" opacity="0.51"/><circle cx="1132" cy="52" r="1.8" fill="#f7ecd2" opacity="0.49"/><circle cx="694" cy="133" r="1.8" fill="#f7ecd2" opacity="0.37"/><circle cx="57" cy="165" r="0.8" fill="#f7ecd2" opacity="0.40"/><circle cx="493" cy="140" r="0.8" fill="#f7ecd2" opacity="0.55"/><circle cx="58" cy="314" r="0.8" fill="#f7ecd2" opacity="0.47"/><circle cx="840" cy="135" r="0.8" fill="#f7ecd2" opacity="0.35"/><circle cx="463" cy="67" r="1.8" fill="#f7ecd2" opacity="0.56"/><circle cx="679" cy="22" r="1.8" fill="#f7ecd2" opacity="0.73"/><circle cx="984" cy="16" r="1.3" fill="#f7ecd2" opacity="0.79"/><circle cx="586" cy="317" r="0.8" fill="#f7ecd2" opacity="0.47"/><circle cx="469" cy="149" r="0.8" fill="#f7ecd2" opacity="0.66"/><circle cx="465" cy="84" r="0.8" fill="#f7ecd2" opacity="0.45"/><circle cx="310" cy="98" r="0.8" fill="#f7ecd2" opacity="0.65"/><circle cx="1132" cy="139" r="1.8" fill="#f7ecd2" opacity="0.83"/><circle cx="75" cy="71" r="1.8" fill="#f7ecd2" opacity="0.60"/><circle cx="1051" cy="126" r="1.3" fill="#f7ecd2" opacity="0.61"/><circle cx="436" cy="160" r="1.8" fill="#f7ecd2" opacity="0.45"/><circle cx="78" cy="1" r="1.3" fill="#f7ecd2" opacity="0.63"/><circle cx="481" cy="313" r="1.8" fill="#f7ecd2" opacity="0.38"/><circle cx="37" cy="208" r="1.8" fill="#f7ecd2" opacity="0.81"/><circle cx="980" cy="120" r="42" fill="#f6ecd0" opacity="0.95"/><circle cx="996" cy="112" r="36" fill="url(#sky)" opacity="0.92"/>
<rect x="240" y="390" width="720" height="170" fill="#12141c"/><rect x="262" y="364" width="40" height="26" fill="#12141c"/><rect x="340" y="364" width="40" height="26" fill="#12141c"/><rect x="418" y="364" width="40" height="26" fill="#12141c"/><rect x="496" y="364" width="40" height="26" fill="#12141c"/><rect x="574" y="364" width="40" height="26" fill="#12141c"/><rect x="652" y="364" width="40" height="26" fill="#12141c"/><rect x="730" y="364" width="40" height="26" fill="#12141c"/><rect x="808" y="364" width="40" height="26" fill="#12141c"/><rect x="886" y="364" width="40" height="26" fill="#12141c"/><path d="M 296 560 L 308 390 L 332 390 L 344 560 Z" fill="#0c0e14" opacity="0.8"/><path d="M 536 560 L 548 390 L 572 390 L 584 560 Z" fill="#0c0e14" opacity="0.8"/><path d="M 776 560 L 788 390 L 812 390 L 824 560 Z" fill="#0c0e14" opacity="0.8"/><path d="M 818 390 C 818 333.9, 845.9 324, 880 324 C 914.1 324, 942 333.9, 942 390 Z" fill="#e8e0cf"/><line x1="880" y1="324" x2="880" y2="302" stroke="#d8b45a" stroke-width="3"/><circle cx="880" cy="298" r="4.5" fill="#d8b45a"/><path d="M 880 284 a 8 8 0 1 0 6 13 a 6.4 6.4 0 1 1 -6 -13 Z" fill="#d8b45a"/><rect x="314" y="90" width="92" height="300" fill="#12141c"/><rect x="326" y="20" width="68" height="70" fill="#12141c"/><path d="M 330 20 C 330 -8.899999999999999, 343.5 -14, 360 -14 C 376.5 -14, 390 -8.899999999999999, 390 20 Z" fill="#e8e0cf"/><line x1="360" y1="-14" x2="360" y2="-36" stroke="#d8b45a" stroke-width="3"/><circle cx="360" cy="-40" r="4.5" fill="#d8b45a"/><path d="M 360 -54 a 8 8 0 1 0 6 13 a 6.4 6.4 0 1 1 -6 -13 Z" fill="#d8b45a"/>
<rect x="0" y="560" width="1200" height="140" fill="#0c0e14"/>

<rect x="0" y="556" width="1200" height="4" fill="#d8b45a" opacity="0.55"/>
</svg>