<svg xmlns="http://www.w3.org/2000/svg" viewBox="0 0 1200 700" role="img">
<defs>
<linearGradient id="sky" x1="0" y1="0" x2="0" y2="1">
<stop offset="0" stop-color="#0a1026"/><stop offset="0.62" stop-color="#152046"/><stop offset="1" stop-color="#2b3a6b"/>
</linearGradient>
<pattern id="g1" width="120" height="120" patternUnits="userSpaceOnUse"><polygon points="111.6,60.0 80.0,68.3 96.5,96.5 68.3,80.0 60.0,111.6 51.7,80.0 23.5,96.5 40.0,68.3 8.4,60.0 40.0,51.7 23.5,23.5 51.7,40.0 60.0,8.4 68.3,40.0 96.5,23.5 80.0,51.7" fill="none" stroke="#e8d9a8" stroke-width="1.6" opacity="0.1"/><rect x="17.4" y="17.4" width="85.2" height="85.2" fill="none" stroke="#e8d9a8" stroke-width="1.6" opacity="0.06999999999999999" transform="rotate(45 60.0 60.0)"/></pattern>
</defs>
<rect width="1200" height="700" fill="url(#sky)"/>
<rect width="1200" height="700" fill="url(#g1)"/>
<circle cx="361" cy="311" r="0.8" fill="#f7ecd2" opacity="0.56"/><circle cx="131" cy="40" r="0.8" fill="#f7ecd2" opacity="0.75"/><circle cx="278" cy="236" r="1.3" fill="#f7ecd2" opacity="0.43"/><circle cx="346" cy="23" r="0.8" fill="#f7ecd2" opacity="0.43"/><circle cx="647" cy="233" r="1.3" fill="#f7ecd2" opacity="0.36"/><circle cx="1157" cy="122" r="1.3" fill="#f7ecd2" opacity="0.39"/><circle cx="124" cy="118" r="1.8" fill="#f7ecd2" opacity="0.67"/><circle cx="452" cy="145" r="0.8" fill="#f7ecd2" opacity="0.75"/><circle cx="533" cy="335" r="1.3" fill="#f7ecd2" opacity="0.40"/><circle cx="583" cy="244" r="1.8" fill="#f7ecd2" opacity="0.37"/><circle cx="770" cy="320" r="1.3" fill="#f7ecd2" opacity="0.35"/><circle cx="158" cy="107" r="1.3" fill="#f7ecd2" opacity="0.41"/><circle cx="19" cy="277" r="1.8" fill="#f7ecd2" opacity="0.48"/><circle cx="809" cy="6" r="1.8" fill="#f7ecd2" opacity="0.39"/><circle cx="1016" cy="22" r="0.8" fill="#f7ecd2" opacity="0.37"/><circle cx="664" cy="49" r="1.8" fill="#f7ecd2" opacity="0.71"/><circle cx="305" cy="199" r="0.8" fill="#f7ecd2" opacity="0.80"/><circle cx="635" cy="288" r="1.8" fill="#f7ecd2" opacity="0.65"/><circle cx="862" cy="244" r="1.8" fill="#f7ecd2" opacity="0.63"/><circle cx="770" cy="171" r="1.8" fill="#f7ecd2" opacity="0.55"/><circle cx="191" cy="301" r="0.8" fill="#f7ecd2" opacity="0.76"/><circle cx="61" cy="70" r="1.8" fill="#f7ecd2" opacity="0.55"/><circle cx="308" cy="306" r="1.8" fill="#f7ecd2" opacity="0.83"/><circle cx="476" cy="133" r="0.8" fill="#f7ecd2" opacity="0.43"/><circle cx="877" cy="43" r="1.8" fill="#f7ecd2" opacity="0.46"/><circle cx="287" cy="172" r="0.8" fill="#f7ecd2" opacity="0.49"/><circle cx="554" cy="8" r="1.3" fill="#f7ecd2" opacity="0.67"/><circle cx="982" cy="75" r="1.3" fill="#f7ecd2" opacity="0.35"/><circle cx="1163" cy="305" r="1.3" fill="#f7ecd2" opacity="0.50"/><circle cx="113" cy="114" r="1.8" fill="#f7ecd2" opacity="0.67"/><circle cx="400" cy="230" r="0.8" fill="#f7ecd2" opacity="0.35"/><circle cx="1088" cy="197" r="1.3" fill="#f7ecd2" opacity="0.71"/><circle cx="1049" cy="67" r="0.8" fill="#f7ecd2" opacity="0.68"/><circle cx="739" cy="36" r="1.3" fill="#f7ecd2" opacity="0.39"/><circle cx="1046" cy="92" r="1.3" fill="#f7ecd2" opacity="0.67"/><circle cx="794" cy="159" r="1.8" fill="#f7ecd2" opacity="0.81"/><circle cx="535" cy="9" r="1.3" fill="#f7ecd2" opacity="0.50"/><circle cx="965" cy="138" r="1.8" fill="#f7ecd2" opacity="0.55"/><circle cx="92" cy="334" r="0.8" fill="#f7ecd2" opacity="0.63"/><circle cx="100" cy="301" r="1.8" fill="#f7ecd2" opacity="0.35"/><circle cx="821" cy="271" r="0.8" fill="#f7ecd2" opacity="0.76"/><circle cx="791" cy="80" r="1.3" fill="#f7ecd2" opacity="0.65"/><circle cx="1138" cy="16" r="1.8" fill="#f7ecd2" opacity="0.43"/><circle cx="206" cy="83" r="1.3" fill="#f7ecd2" opacity="0.83"/><circle cx="707" cy="33" r="1.8" fill="#f7ecd2" opacity="0.66"/><circle cx="217" cy="202" r="1.8" fill="#f7ecd2" opacity="0.69"/><circle cx="584" cy="78" r="1.8" fill="#f7ecd2" opacity="0.37"/><circle cx="1112" cy="185" r="1.3" fill="#f7ecd2" opacity="0.55"/><circle cx="193" cy="315" r="1.3" fill="#f7ecd2" opacity="0.80"/><circle cx="443" cy="304" r="0.8" fill="#f7ecd2" opacity="0.57"/><circle cx="830" cy="120" r="1.8" fill="#f7ecd2" opacity="0.35"/><circle cx="418" cy="327" r="1.3" fill="#f7ecd2" opacity="0.71"/><circle cx="479" cy="237" r="1.8" fill="#f7ecd2" opacity="0.58"/><circle cx="269" cy="246" r="1.8" fill="#f7ecd2" opacity="0.59"/><circle cx="676" cy="2" r="0.8" fill="#f7ecd2" opacity="0.37"/><circle cx="524" cy="109" r="0.8" fill="#f7ecd2" opacity="0.51"/><circle cx="365" cy="339" r="1.8" fill="#f7ecd2" opacity="0.70"/><circle cx="895" cy="168" r="1.3" fill="#f7ecd2" opacity="0.45"/><circle cx="122" cy="64" r="0.8" fill="#f7ecd2" opacity="0.43"/><circle cx="230" cy="71" r="1.3" fill="#f7ecd2" opacity="0.65"/><circle cx="980" cy="120" r="42" fill="#f6ecd0" opacity="0.95"/><circle cx="996" cy="112" r="36" fill="url(#sky)" opacity="0.92"/>
<rect x="240" y="390" width="720" height="170" fill="#12141c"/><rect x="262" y="364" width="40" height="26" fill="#12141c"/><rect x="340" y="364" width="40" height="26" fill="#12141c"/><rect x="418" y="364" width="40" height="26" fill="#12141c"/><rect x="496" y="364" width="40" height="26" fill="#12141c"/><rect x="574" y="364" width="40" height="26" fill="#12141c"/><rect x="652" y="364" width="40" height="26" fill="#12141c"/><rect x="730" y="364" width="40" height="26" fill="#12141c"/><rect x="808" y="364" width="40" height="26" fill="#12141c"/><rect x="886" y="364" width="40" height="26" fill="#12141c"/><path d="M 296 560 L 308 390 L 332 390 L 344 560 Z" fill="#0c0e14" opacity="0.8"/><path d="M 536 560 L 548 390 L 572 390 L 584 560 Z" fill="#0c0e14" opacity="0.8"/><path d="M 776 560 L 788 390 L 812 390 L 824 560 Z" fill="#0c0e14" opacity="0.8"/><path d="M 818 390 C 818 333.9, 845.9 324, 880 324 C 914.1 324, 942 333.9, 942 390 Z" fill="#e8e0cf"/><line x1="880" y1="324" x2="880" y2="302" stroke="#d8b45a" stroke-width="3"/><circle cx="880" cy="298" r="4.5" fill="#d8b45a"/><path d="M 880 284 a 8 8 0 1 0 6 13 a 6.4 6.4 0 1 1 -6 -13 Z" fill="#d8b45a"/><rect x="314" y="90" width="92" height="300" fill="#12141c"/><rect x="326" y="20" width="68" height="70" fill="#12141c"/><path d="M 330 20 C 330 -8.899999999999999, 343.5 -14, 360 -14 C 376.5 -14, 390 -8.899999999999999, 390 20 Z" fill="#e8e0cf"/><line x1="360" y1="-14" x2="360" y2="-36" stroke="#d8b45a" stroke-width="3"/><circle cx="360" cy="-40" r="4.5" fill="#d8b45a"/><path d="M 360 -54 a 8 8 0 1 0 6 13 a 6.4 6.4 0 1 1 -6 -13 Z" fill="#d8b45a"/>
<rect x="0" y="560" width="1200" height="140" fill="#0c0e14"/>

<rect x="0" y="556" width="1200" height="4" fill="#d8b45a" opacity="0.55"/>
</svg>