<svg xmlns="http://www.w3.org/2000/svg" viewBox="0 0 1200 700" role="img">
<defs>
<linearGradient id="sky" x1="0" y1="0" x2="0" y2="1">
<stop offset="0" stop-color="#0a1026"/><stop offset="0.62" stop-color="#152046"/><stop offset="1" stop-color="#2b3a6b"/>
</linearGradient>
<pattern id="g1" width="120" height="120" patternUnits="userSpaceOnUse"><polygon points="111.6,60.0 80.0,68.3 96.5,96.5 68.3,80.0 60.0,111.6 51.7,80.0 23.5,96.5 40.0,68.3 8.4,60.0 40.0,51.7 23.5,23.5 51.7,40.0 60.0,8.4 68.3,40.0 96.5,23.5 80.0,51.7" fill="none" stroke="#e8d9a8" stroke-width="1.6" opacity="0.1"/><rect x="17.4" y="17.4" width="85.2" height="85.2" fill="none" stroke="#e8d9a8" stroke-width="1.6" opacity="0.06999999999999999" transform="rotate(45 60.0 60.0)"/></pattern>
</defs>
<rect width="1200" height="700" fill="url(#sky)"/>
<rect width="1200" height="700" fill="url(#g1)"/>
<circle cx="63" cy="253" r="1.3" fill="#f7ecd2" opacity="0.74"/><circle cx="1177" cy="166" r="1.8" fill="#f7ecd2" opacity="0.67"/><circle cx="1036" cy="274" r="1.8" fill="#f7ecd2" opacity="0.49"/><circle cx="480" cy="97" r="1.3" fill="#f7ecd2" opacity="0.45"/><circle cx="829" cy="95" r="0.8" fill="#f7ecd2" opacity="0.40"/><circle cx="43" cy="268" r="1.8" fill="#f7ecd2" opacity="0.59"/><circle cx="402" cy="236" r="1.8" fill="#f7ecd2" opacity="0.57"/><circle cx="346" cy="259" r="1.8" fill="#f7ecd2" opacity="0.49"/><circle cx="1195" cy="117" r="1.3" fill="#f7ecd2" opacity="0.50"/><circle cx="909" cy="150" r="0.8" fill="#f7ecd2" opacity="0.35"/><circle cx="568" cy="178" r="1.8" fill="#f7ecd2" opacity="0.39"/><circle cx="1012" cy="61" r="1.8" fill="#f7ecd2" opacity="0.67"/><circle cx="1161" cy="319" r="1.3" fill="#f7ecd2" opacity="0.44"/><circle cx="175" cy="72" r="1.3" fill="#f7ecd2" opacity="0.35"/><circle cx="334" cy="300" r="1.3" fill="#f7ecd2" opacity="0.35"/><circle cx="78" cy="243" r="0.8" fill="#f7ecd2" opacity="0.39"/><circle cx="727" cy="21" r="1.3" fill="#f7ecd2" opacity="0.52"/><circle cx="241" cy="314" r="0.8" fill="#f7ecd2" opacity="0.59"/><circle cx="900" cy="62" r="1.8" fill="#f7ecd2" opacity="0.35"/><circle cx="1144" cy="205" r="1.8" fill="#f7ecd2" opacity="0.55"/><circle cx="1093" cy="43" r="1.8" fill="#f7ecd2" opacity="0.84"/><circle cx="1107" cy="196" r="1.3" fill="#f7ecd2" opacity="0.57"/><circle cx="1066" cy="4" r="1.8" fill="#f7ecd2" opacity="0.49"/><circle cx="610" cy="207" r="1.3" fill="#f7ecd2" opacity="0.55"/><circle cx="1059" cy="245" r="1.8" fill="#f7ecd2" opacity="0.40"/><circle cx="373" cy="118" r="1.8" fill="#f7ecd2" opacity="0.49"/><circle cx="832" cy="126" r="1.3" fill="#f7ecd2" opacity="0.67"/><circle cx="876" cy="189" r="0.8" fill="#f7ecd2" opacity="0.49"/><circle cx="625" cy="287" r="0.8" fill="#f7ecd2" opacity="0.60"/><circle cx="439" cy="20" r="0.8" fill="#f7ecd2" opacity="0.65"/><circle cx="198" cy="88" r="1.3" fill="#f7ecd2" opacity="0.59"/><circle cx="742" cy="11" r="0.8" fill="#f7ecd2" opacity="0.47"/><circle cx="991" cy="309" r="1.3" fill="#f7ecd2" opacity="0.54"/><circle cx="105" cy="102" r="0.8" fill="#f7ecd2" opacity="0.45"/><circle cx="364" cy="30" r="1.3" fill="#f7ecd2" opacity="0.55"/><circle cx="208" cy="13" r="1.8" fill="#f7ecd2" opacity="0.39"/><circle cx="957" cy="171" r="0.8" fill="#f7ecd2" opacity="0.82"/><circle cx="571" cy="164" r="0.8" fill="#f7ecd2" opacity="0.79"/><circle cx="130" cy="152" r="0.8" fill="#f7ecd2" opacity="0.45"/><circle cx="474" cy="335" r="1.8" fill="#f7ecd2" opacity="0.75"/><circle cx="523" cy="213" r="1.3" fill="#f7ecd2" opacity="0.84"/><circle cx="637" cy="66" r="1.3" fill="#f7ecd2" opacity="0.77"/><circle cx="696" cy="254" r="1.8" fill="#f7ecd2" opacity="0.69"/><circle cx="340" cy="157" r="1.8" fill="#f7ecd2" opacity="0.65"/><circle cx="889" cy="235" r="1.8" fill="#f7ecd2" opacity="0.50"/><circle cx="303" cy="148" r="1.3" fill="#f7ecd2" opacity="0.79"/><circle cx="862" cy="196" r="1.8" fill="#f7ecd2" opacity="0.37"/><circle cx="1006" cy="299" r="0.8" fill="#f7ecd2" opacity="0.79"/><circle cx="855" cy="97" r="1.3" fill="#f7ecd2" opacity="0.70"/><circle cx="769" cy="210" r="1.3" fill="#f7ecd2" opacity="0.75"/><circle cx="628" cy="318" r="1.3" fill="#f7ecd2" opacity="0.39"/><circle cx="72" cy="141" r="0.8" fill="#f7ecd2" opacity="0.37"/><circle cx="421" cy="139" r="1.8" fill="#f7ecd2" opacity="0.54"/><circle cx="835" cy="112" r="1.8" fill="#f7ecd2" opacity="0.55"/><circle cx="1194" cy="80" r="1.8" fill="#f7ecd2" opacity="0.55"/><circle cx="1138" cy="103" r="1.8" fill="#f7ecd2" opacity="0.49"/><circle cx="787" cy="161" r="0.8" fill="#f7ecd2" opacity="0.42"/><circle cx="501" cy="194" r="1.8" fill="#f7ecd2" opacity="0.79"/><circle cx="160" cy="222" r="1.3" fill="#f7ecd2" opacity="0.55"/><circle cx="604" cy="105" r="1.3" fill="#f7ecd2" opacity="0.55"/><circle cx="980" cy="120" r="42" fill="#f6ecd0" opacity="0.95"/><circle cx="996" cy="112" r="36" fill="url(#sky)" opacity="0.92"/>
<rect x="240" y="390" width="720" height="170" fill="#12141c"/><rect x="262" y="364" width="40" height="26" fill="#12141c"/><rect x="340" y="364" width="40" height="26" fill="#12141c"/><rect x="418" y="364" width="40" height="26" fill="#12141c"/><rect x="496" y="364" width="40" height="26" fill="#12141c"/><rect x="574" y="364" width="40" height="26" fill="#12141c"/><rect x="652" y="364" width="40" height="26" fill="#12141c"/><rect x="730" y="364" width="40" height="26" fill="#12141c"/><rect x="808" y="364" width="40" height="26" fill="#12141c"/><rect x="886" y="364" width="40" height="26" fill="#12141c"/><path d="M 296 560 L 308 390 L 332 390 L 344 560 Z" fill="#0c0e14" opacity="0.8"/><path d="M 536 560 L 548 390 L 572 390 L 584 560 Z" fill="#0c0e14" opacity="0.8"/><path d="M 776 560 L 788 390 L 812 390 L 824 560 Z" fill="#0c0e14" opacity="0.8"/><path d="M 818 390 C 818 333.9, 845.9 324, 880 324 C 914.1 324, 942 333.9, 942 390 Z" fill="#e8e0cf"/><line x1="880" y1="324" x2="880" y2="302" stroke="#d8b45a" stroke-width="3"/><circle cx="880" cy="298" r="4.5" fill="#d8b45a"/><path d="M 880 284 a 8 8 0 1 0 6 13 a 6.4 6.4 0 1 1 -6 -13 Z" fill="#d8b45a"/><rect x="314" y="90" width="92" height="300" fill="#12141c"/><rect x="326" y="20" width="68" height="70" fill="#12141c"/><path d="M 330 20 C 330 -8.899999999999999, 343.5 -14, 360 -14 C 376.5 -14, 390 -8.899999999999999, 390 20 Z" fill="#e8e0cf"/><line x1="360" y1="-14" x2="360" y2="-36" stroke="#d8b45a" stroke-width="3"/><circle cx="360" cy="-40" r="4.5" fill="#d8b45a"/><path d="M 360 -54 a 8 8 0 1 0 6 13 a 6.4 6.4 0 1 1 -6 -13 Z" fill="#d8b45a"/>
<rect x="0" y="560" width="1200" height="140" fill="#0c0e14"/>

<rect x="0" y="556" width="1200" height="4" fill="#d8b45a" opacity="0.55"/>
</svg>