<svg xmlns="http://www.w3.org/2000/svg" viewBox="0 0 1200 700" role="img">
<defs>
<linearGradient id="sky" x1="0" y1="0" x2="0" y2="1">
<stop offset="0" stop-color="#0a1026"/><stop offset="0.62" stop-color="#152046"/><stop offset="1" stop-color="#2b3a6b"/>
</linearGradient>
<pattern id="g1" width="120" height="120" patternUnits="userSpaceOnUse"><polygon points="111.6,60.0 80.0,68.3 96.5,96.5 68.3,80.0 60.0,111.6 51.7,80.0 23.5,96.5 40.0,68.3 8.4,60.0 40.0,51.7 23.5,23.5 51.7,40.0 60.0,8.4 68.3,40.0 96.5,23.5 80.0,51.7" fill="none" stroke="#e8d9a8" stroke-width="1.6" opacity="0.1"/><rect x="17.4" y="17.4" width="85.2" height="85.2" fill="none" stroke="#e8d9a8" stroke-width="1.6" opacity="0.06999999999999999" transform="rotate(45 60.0 60.0)"/></pattern>
</defs>
<rect width="1200" height="700" fill="url(#sky)"/>
<rect width="1200" height="700" fill="url(#g1)"/>
<circle cx="1086" cy="6" r="0.8" fill="#f7ecd2" opacity="0.51"/><circle cx="256" cy="175" r="1.8" fill="#f7ecd2" opacity="0.35"/><circle cx="1003" cy="271" r="1.8" fill="#f7ecd2" opacity="0.48"/><circle cx="471" cy="158" r="1.8" fill="#f7ecd2" opacity="0.53"/><circle cx="172" cy="128" r="0.8" fill="#f7ecd2" opacity="0.51"/><circle cx="82" cy="117" r="1.3" fill="#f7ecd2" opacity="0.79"/><circle cx="849" cy="153" r="0.8" fill="#f7ecd2" opacity="0.82"/><circle cx="577" cy="280" r="1.8" fill="#f7ecd2" opacity="0.45"/><circle cx="58" cy="230" r="0.8" fill="#f7ecd2" opacity="0.75"/><circle cx="708" cy="39" r="0.8" fill="#f7ecd2" opacity="0.47"/><circle cx="295" cy="215" r="0.8" fill="#f7ecd2" opacity="0.60"/><circle cx="283" cy="242" r="0.8" fill="#f7ecd2" opacity="0.71"/><circle cx="744" cy="312" r="0.8" fill="#f7ecd2" opacity="0.63"/><circle cx="934" cy="141" r="1.3" fill="#f7ecd2" opacity="0.79"/><circle cx="541" cy="257" r="0.8" fill="#f7ecd2" opacity="0.72"/><circle cx="789" cy="184" r="1.3" fill="#f7ecd2" opacity="0.61"/><circle cx="1030" cy="234" r="1.3" fill="#f7ecd2" opacity="0.55"/><circle cx="760" cy="83" r="0.8" fill="#f7ecd2" opacity="0.65"/><circle cx="387" cy="139" r="1.3" fill="#f7ecd2" opacity="0.78"/><circle cx="895" cy="306" r="1.3" fill="#f7ecd2" opacity="0.55"/><circle cx="916" cy="336" r="1.3" fill="#f7ecd2" opacity="0.61"/><circle cx="186" cy="205" r="1.3" fill="#f7ecd2" opacity="0.65"/><circle cx="1033" cy="1" r="1.8" fill="#f7ecd2" opacity="0.68"/><circle cx="601" cy="268" r="1.8" fill="#f7ecd2" opacity="0.53"/><circle cx="402" cy="278" r="1.8" fill="#f7ecd2" opacity="0.41"/><circle cx="412" cy="307" r="1.8" fill="#f7ecd2" opacity="0.69"/><circle cx="79" cy="243" r="1.3" fill="#f7ecd2" opacity="0.82"/><circle cx="1107" cy="210" r="0.8" fill="#f7ecd2" opacity="0.55"/><circle cx="688" cy="200" r="0.8" fill="#f7ecd2" opacity="0.35"/><circle cx="238" cy="249" r="1.3" fill="#f7ecd2" opacity="0.47"/><circle cx="1125" cy="265" r="1.3" fill="#f7ecd2" opacity="0.60"/><circle cx="13" cy="192" r="1.3" fill="#f7ecd2" opacity="0.81"/><circle cx="574" cy="302" r="0.8" fill="#f7ecd2" opacity="0.83"/><circle cx="864" cy="171" r="0.8" fill="#f7ecd2" opacity="0.79"/><circle cx="571" cy="327" r="1.3" fill="#f7ecd2" opacity="0.52"/><circle cx="919" cy="294" r="1.3" fill="#f7ecd2" opacity="0.71"/><circle cx="60" cy="244" r="1.3" fill="#f7ecd2" opacity="0.75"/><circle cx="1090" cy="273" r="1.3" fill="#f7ecd2" opacity="0.55"/><circle cx="817" cy="29" r="0.8" fill="#f7ecd2" opacity="0.78"/><circle cx="225" cy="96" r="0.8" fill="#f7ecd2" opacity="0.35"/><circle cx="346" cy="166" r="1.8" fill="#f7ecd2" opacity="0.71"/><circle cx="916" cy="215" r="0.8" fill="#f7ecd2" opacity="0.75"/><circle cx="663" cy="251" r="1.8" fill="#f7ecd2" opacity="0.48"/><circle cx="331" cy="218" r="0.8" fill="#f7ecd2" opacity="0.43"/><circle cx="232" cy="268" r="1.8" fill="#f7ecd2" opacity="0.61"/><circle cx="342" cy="337" r="1.3" fill="#f7ecd2" opacity="0.39"/><circle cx="109" cy="313" r="1.8" fill="#f7ecd2" opacity="0.52"/><circle cx="37" cy="180" r="1.3" fill="#f7ecd2" opacity="0.45"/><circle cx="918" cy="10" r="1.3" fill="#f7ecd2" opacity="0.65"/><circle cx="568" cy="99" r="1.3" fill="#f7ecd2" opacity="0.67"/><circle cx="355" cy="15" r="1.3" fill="#f7ecd2" opacity="0.60"/><circle cx="543" cy="122" r="1.8" fill="#f7ecd2" opacity="0.81"/><circle cx="4" cy="132" r="1.3" fill="#f7ecd2" opacity="0.63"/><circle cx="394" cy="41" r="0.8" fill="#f7ecd2" opacity="0.39"/><circle cx="201" cy="237" r="0.8" fill="#f7ecd2" opacity="0.72"/><circle cx="649" cy="244" r="1.8" fill="#f7ecd2" opacity="0.41"/><circle cx="1090" cy="34" r="1.8" fill="#f7ecd2" opacity="0.45"/><circle cx="1020" cy="303" r="0.8" fill="#f7ecd2" opacity="0.45"/><circle cx="847" cy="99" r="1.3" fill="#f7ecd2" opacity="0.38"/><circle cx="355" cy="206" r="0.8" fill="#f7ecd2" opacity="0.65"/><circle cx="980" cy="120" r="42" fill="#f6ecd0" opacity="0.95"/><circle cx="996" cy="112" r="36" fill="url(#sky)" opacity="0.92"/>
<rect x="240" y="390" width="720" height="170" fill="#12141c"/><rect x="262" y="364" width="40" height="26" fill="#12141c"/><rect x="340" y="364" width="40" height="26" fill="#12141c"/><rect x="418" y="364" width="40" height="26" fill="#12141c"/><rect x="496" y="364" width="40" height="26" fill="#12141c"/><rect x="574" y="364" width="40" height="26" fill="#12141c"/><rect x="652" y="364" width="40" height="26" fill="#12141c"/><rect x="730" y="364" width="40" height="26" fill="#12141c"/><rect x="808" y="364" width="40" height="26" fill="#12141c"/><rect x="886" y="364" width="40" height="26" fill="#12141c"/><path d="M 296 560 L 308 390 L 332 390 L 344 560 Z" fill="#0c0e14" opacity="0.8"/><path d="M 536 560 L 548 390 L 572 390 L 584 560 Z" fill="#0c0e14" opacity="0.8"/><path d="M 776 560 L 788 390 L 812 390 L 824 560 Z" fill="#0c0e14" opacity="0.8"/><path d="M 818 390 C 818 333.9, 845.9 324, 880 324 C 914.1 324, 942 333.9, 942 390 Z" fill="#e8e0cf"/><line x1="880" y1="324" x2="880" y2="302" stroke="#d8b45a" stroke-width="3"/><circle cx="880" cy="298" r="4.5" fill="#d8b45a"/><path d="M 880 284 a 8 8 0 1 0 6 13 a 6.4 6.4 0 1 1 -6 -13 Z" fill="#d8b45a"/><rect x="314" y="90" width="92" height="300" fill="#12141c"/><rect x="326" y="20" width="68" height="70" fill="#12141c"/><path d="M 330 20 C 330 -8.899999999999999, 343.5 -14, 360 -14 C 376.5 -14, 390 -8.899999999999999, 390 20 Z" fill="#e8e0cf"/><line x1="360" y1="-14" x2="360" y2="-36" stroke="#d8b45a" stroke-width="3"/><circle cx="360" cy="-40" r="4.5" fill="#d8b45a"/><path d="M 360 -54 a 8 8 0 1 0 6 13 a 6.4 6.4 0 1 1 -6 -13 Z" fill="#d8b45a"/>
<rect x="0" y="560" width="1200" height="140" fill="#0c0e14"/>

<rect x="0" y="556" width="1200" height="4" fill="#d8b45a" opacity="0.55"/>
</svg>