<svg xmlns="http://www.w3.org/2000/svg" viewBox="0 0 1200 700" role="img">
<defs>
<linearGradient id="sky" x1="0" y1="0" x2="0" y2="1">
<stop offset="0" stop-color="#0a1026"/><stop offset="0.62" stop-color="#152046"/><stop offset="1" stop-color="#2b3a6b"/>
</linearGradient>
<pattern id="g1" width="120" height="120" patternUnits="userSpaceOnUse"><polygon points="111.6,60.0 80.0,68.3 96.5,96.5 68.3,80.0 60.0,111.6 51.7,80.0 23.5,96.5 40.0,68.3 8.4,60.0 40.0,51.7 23.5,23.5 51.7,40.0 60.0,8.4 68.3,40.0 96.5,23.5 80.0,51.7" fill="none" stroke="#e8d9a8" stroke-width="1.6" opacity="0.1"/><rect x="17.4" y="17.4" width="85.2" height="85.2" fill="none" stroke="#e8d9a8" stroke-width="1.6" opacity="0.06999999999999999" transform="rotate(45 60.0 60.0)"/></pattern>
</defs>
<rect width="1200" height="700" fill="url(#sky)"/>
<rect width="1200" height="700" fill="url(#g1)"/>
<circle cx="343" cy="93" r="1.3" fill="#f7ecd2" opacity="0.84"/><circle cx="17" cy="246" r="1.8" fill="#f7ecd2" opacity="0.67"/><circle cx="356" cy="274" r="0.8" fill="#f7ecd2" opacity="0.79"/><circle cx="40" cy="57" r="1.3" fill="#f7ecd2" opacity="0.65"/><circle cx="1109" cy="275" r="1.3" fill="#f7ecd2" opacity="0.60"/><circle cx="83" cy="148" r="0.8" fill="#f7ecd2" opacity="0.69"/><circle cx="922" cy="36" r="1.3" fill="#f7ecd2" opacity="0.77"/><circle cx="1106" cy="19" r="0.8" fill="#f7ecd2" opacity="0.49"/><circle cx="275" cy="157" r="0.8" fill="#f7ecd2" opacity="0.60"/><circle cx="949" cy="30" r="1.3" fill="#f7ecd2" opacity="0.55"/><circle cx="1088" cy="318" r="1.8" fill="#f7ecd2" opacity="0.69"/><circle cx="572" cy="21" r="1.8" fill="#f7ecd2" opacity="0.47"/><circle cx="241" cy="19" r="1.8" fill="#f7ecd2" opacity="0.64"/><circle cx="215" cy="292" r="0.8" fill="#f7ecd2" opacity="0.65"/><circle cx="854" cy="100" r="0.8" fill="#f7ecd2" opacity="0.35"/><circle cx="838" cy="3" r="1.3" fill="#f7ecd2" opacity="0.49"/><circle cx="1007" cy="201" r="1.8" fill="#f7ecd2" opacity="0.42"/><circle cx="281" cy="194" r="1.3" fill="#f7ecd2" opacity="0.49"/><circle cx="220" cy="62" r="0.8" fill="#f7ecd2" opacity="0.75"/><circle cx="704" cy="165" r="1.8" fill="#f7ecd2" opacity="0.45"/><circle cx="173" cy="83" r="1.3" fill="#f7ecd2" opacity="0.44"/><circle cx="1147" cy="76" r="1.8" fill="#f7ecd2" opacity="0.57"/><circle cx="386" cy="4" r="0.8" fill="#f7ecd2" opacity="0.79"/><circle cx="170" cy="167" r="1.3" fill="#f7ecd2" opacity="0.75"/><circle cx="139" cy="285" r="1.3" fill="#f7ecd2" opacity="0.50"/><circle cx="413" cy="338" r="1.3" fill="#f7ecd2" opacity="0.79"/><circle cx="152" cy="126" r="1.8" fill="#f7ecd2" opacity="0.37"/><circle cx="436" cy="149" r="0.8" fill="#f7ecd2" opacity="0.49"/><circle cx="905" cy="127" r="0.8" fill="#f7ecd2" opacity="0.70"/><circle cx="479" cy="240" r="1.8" fill="#f7ecd2" opacity="0.45"/><circle cx="718" cy="228" r="1.3" fill="#f7ecd2" opacity="0.39"/><circle cx="302" cy="311" r="1.3" fill="#f7ecd2" opacity="0.57"/><circle cx="71" cy="9" r="1.8" fill="#f7ecd2" opacity="0.74"/><circle cx="145" cy="322" r="1.8" fill="#f7ecd2" opacity="0.75"/><circle cx="884" cy="170" r="1.3" fill="#f7ecd2" opacity="0.65"/><circle cx="968" cy="113" r="1.3" fill="#f7ecd2" opacity="0.69"/><circle cx="37" cy="211" r="1.8" fill="#f7ecd2" opacity="0.42"/><circle cx="611" cy="44" r="1.3" fill="#f7ecd2" opacity="0.69"/><circle cx="650" cy="292" r="0.8" fill="#f7ecd2" opacity="0.35"/><circle cx="34" cy="295" r="1.8" fill="#f7ecd2" opacity="0.65"/><circle cx="803" cy="53" r="1.3" fill="#f7ecd2" opacity="0.44"/><circle cx="677" cy="286" r="0.8" fill="#f7ecd2" opacity="0.57"/><circle cx="16" cy="254" r="0.8" fill="#f7ecd2" opacity="0.49"/><circle cx="1100" cy="257" r="1.3" fill="#f7ecd2" opacity="0.35"/><circle cx="1169" cy="75" r="1.8" fill="#f7ecd2" opacity="0.60"/><circle cx="343" cy="28" r="1.8" fill="#f7ecd2" opacity="0.39"/><circle cx="182" cy="196" r="0.8" fill="#f7ecd2" opacity="0.57"/><circle cx="566" cy="259" r="0.8" fill="#f7ecd2" opacity="0.79"/><circle cx="1135" cy="277" r="1.8" fill="#f7ecd2" opacity="0.80"/><circle cx="809" cy="90" r="1.8" fill="#f7ecd2" opacity="0.45"/><circle cx="1148" cy="118" r="0.8" fill="#f7ecd2" opacity="0.49"/><circle cx="832" cy="241" r="1.8" fill="#f7ecd2" opacity="0.47"/><circle cx="701" cy="319" r="0.8" fill="#f7ecd2" opacity="0.54"/><circle cx="875" cy="332" r="1.3" fill="#f7ecd2" opacity="0.35"/><circle cx="514" cy="80" r="0.8" fill="#f7ecd2" opacity="0.55"/><circle cx="698" cy="63" r="1.8" fill="#f7ecd2" opacity="0.59"/><circle cx="1067" cy="1" r="0.8" fill="#f7ecd2" opacity="0.52"/><circle cx="541" cy="74" r="0.8" fill="#f7ecd2" opacity="0.69"/><circle cx="680" cy="22" r="0.8" fill="#f7ecd2" opacity="0.45"/><circle cx="164" cy="65" r="1.3" fill="#f7ecd2" opacity="0.45"/><circle cx="980" cy="120" r="42" fill="#f6ecd0" opacity="0.95"/><circle cx="996" cy="112" r="36" fill="url(#sky)" opacity="0.92"/>
<rect x="240" y="390" width="720" height="170" fill="#12141c"/><rect x="262" y="364" width="40" height="26" fill="#12141c"/><rect x="340" y="364" width="40" height="26" fill="#12141c"/><rect x="418" y="364" width="40" height="26" fill="#12141c"/><rect x="496" y="364" width="40" height="26" fill="#12141c"/><rect x="574" y="364" width="40" height="26" fill="#12141c"/><rect x="652" y="364" width="40" height="26" fill="#12141c"/><rect x="730" y="364" width="40" height="26" fill="#12141c"/><rect x="808" y="364" width="40" height="26" fill="#12141c"/><rect x="886" y="364" width="40" height="26" fill="#12141c"/><path d="M 296 560 L 308 390 L 332 390 L 344 560 Z" fill="#0c0e14" opacity="0.8"/><path d="M 536 560 L 548 390 L 572 390 L 584 560 Z" fill="#0c0e14" opacity="0.8"/><path d="M 776 560 L 788 390 L 812 390 L 824 560 Z" fill="#0c0e14" opacity="0.8"/><path d="M 818 390 C 818 333.9, 845.9 324, 880 324 C 914.1 324, 942 333.9, 942 390 Z" fill="#e8e0cf"/><line x1="880" y1="324" x2="880" y2="302" stroke="#d8b45a" stroke-width="3"/><circle cx="880" cy="298" r="4.5" fill="#d8b45a"/><path d="M 880 284 a 8 8 0 1 0 6 13 a 6.4 6.4 0 1 1 -6 -13 Z" fill="#d8b45a"/><rect x="314" y="90" width="92" height="300" fill="#12141c"/><rect x="326" y="20" width="68" height="70" fill="#12141c"/><path d="M 330 20 C 330 -8.899999999999999, 343.5 -14, 360 -14 C 376.5 -14, 390 -8.899999999999999, 390 20 Z" fill="#e8e0cf"/><line x1="360" y1="-14" x2="360" y2="-36" stroke="#d8b45a" stroke-width="3"/><circle cx="360" cy="-40" r="4.5" fill="#d8b45a"/><path d="M 360 -54 a 8 8 0 1 0 6 13 a 6.4 6.4 0 1 1 -6 -13 Z" fill="#d8b45a"/>
<rect x="0" y="560" width="1200" height="140" fill="#0c0e14"/>

<rect x="0" y="556" width="1200" height="4" fill="#d8b45a" opacity="0.55"/>
</svg>