<svg xmlns="http://www.w3.org/2000/svg" viewBox="0 0 1200 700" role="img">
<defs>
<linearGradient id="sky" x1="0" y1="0" x2="0" y2="1">
<stop offset="0" stop-color="#0a1026"/><stop offset="0.62" stop-color="#152046"/><stop offset="1" stop-color="#2b3a6b"/>
</linearGradient>
<pattern id="g1" width="120" height="120" patternUnits="userSpaceOnUse"><polygon points="111.6,60.0 80.0,68.3 96.5,96.5 68.3,80.0 60.0,111.6 51.7,80.0 23.5,96.5 40.0,68.3 8.4,60.0 40.0,51.7 23.5,23.5 51.7,40.0 60.0,8.4 68.3,40.0 96.5,23.5 80.0,51.7" fill="none" stroke="#e8d9a8" stroke-width="1.6" opacity="0.1"/><rect x="17.4" y="17.4" width="85.2" height="85.2" fill="none" stroke="#e8d9a8" stroke-width="1.6" opacity="0.06999999999999999" transform="rotate(45 60.0 60.0)"/></pattern>
</defs>
<rect width="1200" height="700" fill="url(#sky)"/>
<rect width="1200" height="700" fill="url(#g1)"/>
<circle cx="97" cy="287" r="0.8" fill="#f7ecd2" opacity="0.74"/><circle cx="59" cy="188" r="1.3" fill="#f7ecd2" opacity="0.77"/><circle cx="1022" cy="180" r="1.8" fill="#f7ecd2" opacity="0.45"/><circle cx="658" cy="175" r="1.8" fill="#f7ecd2" opacity="0.35"/><circle cx="623" cy="169" r="0.8" fill="#f7ecd2" opacity="0.72"/><circle cx="605" cy="10" r="0.8" fill="#f7ecd2" opacity="0.35"/><circle cx="628" cy="102" r="1.3" fill="#f7ecd2" opacity="0.41"/><circle cx="44" cy="77" r="1.3" fill="#f7ecd2" opacity="0.73"/><circle cx="749" cy="231" r="1.8" fill="#f7ecd2" opacity="0.54"/><circle cx="751" cy="12" r="1.3" fill="#f7ecd2" opacity="0.47"/><circle cx="1034" cy="4" r="0.8" fill="#f7ecd2" opacity="0.71"/><circle cx="230" cy="299" r="1.3" fill="#f7ecd2" opacity="0.55"/><circle cx="475" cy="133" r="1.8" fill="#f7ecd2" opacity="0.60"/><circle cx="497" cy="194" r="1.3" fill="#f7ecd2" opacity="0.53"/><circle cx="1040" cy="86" r="1.3" fill="#f7ecd2" opacity="0.75"/><circle cx="16" cy="21" r="1.3" fill="#f7ecd2" opacity="0.71"/><circle cx="1001" cy="15" r="1.8" fill="#f7ecd2" opacity="0.50"/><circle cx="1043" cy="16" r="0.8" fill="#f7ecd2" opacity="0.73"/><circle cx="646" cy="8" r="0.8" fill="#f7ecd2" opacity="0.53"/><circle cx="602" cy="63" r="1.8" fill="#f7ecd2" opacity="0.61"/><circle cx="1127" cy="77" r="1.3" fill="#f7ecd2" opacity="0.64"/><circle cx="1189" cy="18" r="1.3" fill="#f7ecd2" opacity="0.37"/><circle cx="1052" cy="250" r="0.8" fill="#f7ecd2" opacity="0.35"/><circle cx="788" cy="285" r="1.8" fill="#f7ecd2" opacity="0.65"/><circle cx="853" cy="319" r="1.8" fill="#f7ecd2" opacity="0.42"/><circle cx="935" cy="200" r="1.3" fill="#f7ecd2" opacity="0.35"/><circle cx="1058" cy="332" r="1.3" fill="#f7ecd2" opacity="0.41"/><circle cx="574" cy="7" r="1.8" fill="#f7ecd2" opacity="0.53"/><circle cx="179" cy="61" r="0.8" fill="#f7ecd2" opacity="0.54"/><circle cx="281" cy="222" r="1.8" fill="#f7ecd2" opacity="0.67"/><circle cx="664" cy="254" r="0.8" fill="#f7ecd2" opacity="0.41"/><circle cx="1160" cy="49" r="0.8" fill="#f7ecd2" opacity="0.75"/><circle cx="305" cy="123" r="1.8" fill="#f7ecd2" opacity="0.50"/><circle cx="427" cy="224" r="0.8" fill="#f7ecd2" opacity="0.83"/><circle cx="1070" cy="156" r="1.8" fill="#f7ecd2" opacity="0.55"/><circle cx="146" cy="131" r="1.3" fill="#f7ecd2" opacity="0.61"/><circle cx="31" cy="25" r="1.8" fill="#f7ecd2" opacity="0.60"/><circle cx="173" cy="66" r="1.8" fill="#f7ecd2" opacity="0.53"/><circle cx="1076" cy="238" r="0.8" fill="#f7ecd2" opacity="0.73"/><circle cx="1132" cy="333" r="1.3" fill="#f7ecd2" opacity="0.41"/><circle cx="557" cy="247" r="0.8" fill="#f7ecd2" opacity="0.64"/><circle cx="719" cy="228" r="1.8" fill="#f7ecd2" opacity="0.67"/><circle cx="682" cy="160" r="1.8" fill="#f7ecd2" opacity="0.55"/><circle cx="518" cy="235" r="0.8" fill="#f7ecd2" opacity="0.65"/><circle cx="683" cy="309" r="1.8" fill="#f7ecd2" opacity="0.82"/><circle cx="865" cy="230" r="0.8" fill="#f7ecd2" opacity="0.35"/><circle cx="1088" cy="62" r="1.3" fill="#f7ecd2" opacity="0.41"/><circle cx="704" cy="117" r="1.8" fill="#f7ecd2" opacity="0.53"/><circle cx="409" cy="211" r="1.8" fill="#f7ecd2" opacity="0.84"/><circle cx="611" cy="72" r="1.8" fill="#f7ecd2" opacity="0.77"/><circle cx="1094" cy="144" r="1.8" fill="#f7ecd2" opacity="0.71"/><circle cx="490" cy="179" r="0.8" fill="#f7ecd2" opacity="0.45"/><circle cx="935" cy="93" r="1.8" fill="#f7ecd2" opacity="0.40"/><circle cx="1157" cy="234" r="1.8" fill="#f7ecd2" opacity="0.73"/><circle cx="700" cy="66" r="1.3" fill="#f7ecd2" opacity="0.35"/><circle cx="1076" cy="221" r="1.3" fill="#f7ecd2" opacity="0.81"/><circle cx="1061" cy="155" r="1.3" fill="#f7ecd2" opacity="0.40"/><circle cx="103" cy="96" r="1.3" fill="#f7ecd2" opacity="0.73"/><circle cx="1106" cy="308" r="1.3" fill="#f7ecd2" opacity="0.83"/><circle cx="62" cy="303" r="1.8" fill="#f7ecd2" opacity="0.71"/><circle cx="980" cy="120" r="42" fill="#f6ecd0" opacity="0.95"/><circle cx="996" cy="112" r="36" fill="url(#sky)" opacity="0.92"/>
<rect x="240" y="390" width="720" height="170" fill="#12141c"/><rect x="262" y="364" width="40" height="26" fill="#12141c"/><rect x="340" y="364" width="40" height="26" fill="#12141c"/><rect x="418" y="364" width="40" height="26" fill="#12141c"/><rect x="496" y="364" width="40" height="26" fill="#12141c"/><rect x="574" y="364" width="40" height="26" fill="#12141c"/><rect x="652" y="364" width="40" height="26" fill="#12141c"/><rect x="730" y="364" width="40" height="26" fill="#12141c"/><rect x="808" y="364" width="40" height="26" fill="#12141c"/><rect x="886" y="364" width="40" height="26" fill="#12141c"/><path d="M 296 560 L 308 390 L 332 390 L 344 560 Z" fill="#0c0e14" opacity="0.8"/><path d="M 536 560 L 548 390 L 572 390 L 584 560 Z" fill="#0c0e14" opacity="0.8"/><path d="M 776 560 L 788 390 L 812 390 L 824 560 Z" fill="#0c0e14" opacity="0.8"/><path d="M 818 390 C 818 333.9, 845.9 324, 880 324 C 914.1 324, 942 333.9, 942 390 Z" fill="#e8e0cf"/><line x1="880" y1="324" x2="880" y2="302" stroke="#d8b45a" stroke-width="3"/><circle cx="880" cy="298" r="4.5" fill="#d8b45a"/><path d="M 880 284 a 8 8 0 1 0 6 13 a 6.4 6.4 0 1 1 -6 -13 Z" fill="#d8b45a"/><rect x="314" y="90" width="92" height="300" fill="#12141c"/><rect x="326" y="20" width="68" height="70" fill="#12141c"/><path d="M 330 20 C 330 -8.899999999999999, 343.5 -14, 360 -14 C 376.5 -14, 390 -8.899999999999999, 390 20 Z" fill="#e8e0cf"/><line x1="360" y1="-14" x2="360" y2="-36" stroke="#d8b45a" stroke-width="3"/><circle cx="360" cy="-40" r="4.5" fill="#d8b45a"/><path d="M 360 -54 a 8 8 0 1 0 6 13 a 6.4 6.4 0 1 1 -6 -13 Z" fill="#d8b45a"/>
<rect x="0" y="560" width="1200" height="140" fill="#0c0e14"/>

<rect x="0" y="556" width="1200" height="4" fill="#d8b45a" opacity="0.55"/>
</svg>