<svg xmlns="http://www.w3.org/2000/svg" viewBox="0 0 1200 700" role="img">
<defs>
<linearGradient id="sky" x1="0" y1="0" x2="0" y2="1">
<stop offset="0" stop-color="#0a1026"/><stop offset="0.62" stop-color="#152046"/><stop offset="1" stop-color="#2b3a6b"/>
</linearGradient>
<pattern id="g1" width="120" height="120" patternUnits="userSpaceOnUse"><polygon points="111.6,60.0 80.0,68.3 96.5,96.5 68.3,80.0 60.0,111.6 51.7,80.0 23.5,96.5 40.0,68.3 8.4,60.0 40.0,51.7 23.5,23.5 51.7,40.0 60.0,8.4 68.3,40.0 96.5,23.5 80.0,51.7" fill="none" stroke="#e8d9a8" stroke-width="1.6" opacity="0.1"/><rect x="17.4" y="17.4" width="85.2" height="85.2" fill="none" stroke="#e8d9a8" stroke-width="1.6" opacity="0.06999999999999999" transform="rotate(45 60.0 60.0)"/></pattern>
</defs>
<rect width="1200" height="700" fill="url(#sky)"/>
<rect width="1200" height="700" fill="url(#g1)"/>
<circle cx="607" cy="117" r="1.3" fill="#f7ecd2" opacity="0.54"/><circle cx="89" cy="98" r="1.3" fill="#f7ecd2" opacity="0.57"/><circle cx="812" cy="130" r="0.8" fill="#f7ecd2" opacity="0.45"/><circle cx="928" cy="45" r="1.3" fill="#f7ecd2" opacity="0.45"/><circle cx="1133" cy="339" r="1.8" fill="#f7ecd2" opacity="0.72"/><circle cx="635" cy="260" r="1.3" fill="#f7ecd2" opacity="0.35"/><circle cx="418" cy="52" r="1.8" fill="#f7ecd2" opacity="0.71"/><circle cx="314" cy="287" r="1.3" fill="#f7ecd2" opacity="0.53"/><circle cx="59" cy="261" r="1.8" fill="#f7ecd2" opacity="0.84"/><circle cx="781" cy="262" r="1.8" fill="#f7ecd2" opacity="0.57"/><circle cx="824" cy="294" r="1.8" fill="#f7ecd2" opacity="0.41"/><circle cx="500" cy="169" r="0.8" fill="#f7ecd2" opacity="0.35"/><circle cx="985" cy="303" r="1.3" fill="#f7ecd2" opacity="0.40"/><circle cx="527" cy="104" r="1.3" fill="#f7ecd2" opacity="0.43"/><circle cx="830" cy="36" r="1.8" fill="#f7ecd2" opacity="0.65"/><circle cx="286" cy="231" r="1.3" fill="#f7ecd2" opacity="0.51"/><circle cx="311" cy="45" r="1.8" fill="#f7ecd2" opacity="0.80"/><circle cx="1073" cy="266" r="1.3" fill="#f7ecd2" opacity="0.53"/><circle cx="436" cy="298" r="1.8" fill="#f7ecd2" opacity="0.63"/><circle cx="872" cy="273" r="1.8" fill="#f7ecd2" opacity="0.41"/><circle cx="437" cy="107" r="1.3" fill="#f7ecd2" opacity="0.44"/><circle cx="19" cy="128" r="0.8" fill="#f7ecd2" opacity="0.67"/><circle cx="842" cy="200" r="1.3" fill="#f7ecd2" opacity="0.35"/><circle cx="1058" cy="155" r="1.3" fill="#f7ecd2" opacity="0.75"/><circle cx="163" cy="9" r="1.3" fill="#f7ecd2" opacity="0.52"/><circle cx="965" cy="110" r="1.3" fill="#f7ecd2" opacity="0.35"/><circle cx="848" cy="282" r="1.8" fill="#f7ecd2" opacity="0.71"/><circle cx="844" cy="217" r="1.8" fill="#f7ecd2" opacity="0.83"/><circle cx="689" cy="231" r="1.8" fill="#f7ecd2" opacity="0.44"/><circle cx="311" cy="132" r="1.8" fill="#f7ecd2" opacity="0.37"/><circle cx="454" cy="204" r="1.3" fill="#f7ecd2" opacity="0.51"/><circle cx="230" cy="119" r="1.3" fill="#f7ecd2" opacity="0.55"/><circle cx="815" cy="293" r="1.3" fill="#f7ecd2" opacity="0.80"/><circle cx="457" cy="134" r="0.8" fill="#f7ecd2" opacity="0.73"/><circle cx="860" cy="106" r="0.8" fill="#f7ecd2" opacity="0.45"/><circle cx="416" cy="1" r="0.8" fill="#f7ecd2" opacity="0.51"/><circle cx="541" cy="195" r="1.3" fill="#f7ecd2" opacity="0.80"/><circle cx="203" cy="316" r="0.8" fill="#f7ecd2" opacity="0.83"/><circle cx="866" cy="188" r="1.3" fill="#f7ecd2" opacity="0.43"/><circle cx="202" cy="63" r="1.3" fill="#f7ecd2" opacity="0.61"/><circle cx="1067" cy="77" r="1.3" fill="#f7ecd2" opacity="0.44"/><circle cx="749" cy="138" r="1.8" fill="#f7ecd2" opacity="0.47"/><circle cx="472" cy="110" r="0.8" fill="#f7ecd2" opacity="0.55"/><circle cx="788" cy="105" r="1.8" fill="#f7ecd2" opacity="0.75"/><circle cx="1193" cy="139" r="0.8" fill="#f7ecd2" opacity="0.62"/><circle cx="895" cy="140" r="0.8" fill="#f7ecd2" opacity="0.35"/><circle cx="878" cy="12" r="1.8" fill="#f7ecd2" opacity="0.71"/><circle cx="974" cy="327" r="1.8" fill="#f7ecd2" opacity="0.83"/><circle cx="919" cy="41" r="0.8" fill="#f7ecd2" opacity="0.64"/><circle cx="641" cy="322" r="0.8" fill="#f7ecd2" opacity="0.37"/><circle cx="884" cy="94" r="0.8" fill="#f7ecd2" opacity="0.81"/><circle cx="760" cy="49" r="1.8" fill="#f7ecd2" opacity="0.75"/><circle cx="245" cy="123" r="1.8" fill="#f7ecd2" opacity="0.70"/><circle cx="1187" cy="144" r="1.8" fill="#f7ecd2" opacity="0.63"/><circle cx="490" cy="16" r="1.8" fill="#f7ecd2" opacity="0.75"/><circle cx="146" cy="291" r="1.8" fill="#f7ecd2" opacity="0.71"/><circle cx="371" cy="185" r="1.3" fill="#f7ecd2" opacity="0.70"/><circle cx="133" cy="6" r="1.3" fill="#f7ecd2" opacity="0.83"/><circle cx="896" cy="258" r="1.8" fill="#f7ecd2" opacity="0.53"/><circle cx="332" cy="173" r="1.3" fill="#f7ecd2" opacity="0.71"/><circle cx="980" cy="120" r="42" fill="#f6ecd0" opacity="0.95"/><circle cx="996" cy="112" r="36" fill="url(#sky)" opacity="0.92"/>
<rect x="240" y="390" width="720" height="170" fill="#12141c"/><rect x="262" y="364" width="40" height="26" fill="#12141c"/><rect x="340" y="364" width="40" height="26" fill="#12141c"/><rect x="418" y="364" width="40" height="26" fill="#12141c"/><rect x="496" y="364" width="40" height="26" fill="#12141c"/><rect x="574" y="364" width="40" height="26" fill="#12141c"/><rect x="652" y="364" width="40" height="26" fill="#12141c"/><rect x="730" y="364" width="40" height="26" fill="#12141c"/><rect x="808" y="364" width="40" height="26" fill="#12141c"/><rect x="886" y="364" width="40" height="26" fill="#12141c"/><path d="M 296 560 L 308 390 L 332 390 L 344 560 Z" fill="#0c0e14" opacity="0.8"/><path d="M 536 560 L 548 390 L 572 390 L 584 560 Z" fill="#0c0e14" opacity="0.8"/><path d="M 776 560 L 788 390 L 812 390 L 824 560 Z" fill="#0c0e14" opacity="0.8"/><path d="M 818 390 C 818 333.9, 845.9 324, 880 324 C 914.1 324, 942 333.9, 942 390 Z" fill="#e8e0cf"/><line x1="880" y1="324" x2="880" y2="302" stroke="#d8b45a" stroke-width="3"/><circle cx="880" cy="298" r="4.5" fill="#d8b45a"/><path d="M 880 284 a 8 8 0 1 0 6 13 a 6.4 6.4 0 1 1 -6 -13 Z" fill="#d8b45a"/><rect x="314" y="90" width="92" height="300" fill="#12141c"/><rect x="326" y="20" width="68" height="70" fill="#12141c"/><path d="M 330 20 C 330 -8.899999999999999, 343.5 -14, 360 -14 C 376.5 -14, 390 -8.899999999999999, 390 20 Z" fill="#e8e0cf"/><line x1="360" y1="-14" x2="360" y2="-36" stroke="#d8b45a" stroke-width="3"/><circle cx="360" cy="-40" r="4.5" fill="#d8b45a"/><path d="M 360 -54 a 8 8 0 1 0 6 13 a 6.4 6.4 0 1 1 -6 -13 Z" fill="#d8b45a"/>
<rect x="0" y="560" width="1200" height="140" fill="#0c0e14"/>

<rect x="0" y="556" width="1200" height="4" fill="#d8b45a" opacity="0.55"/>
</svg>