<svg xmlns="http://www.w3.org/2000/svg" viewBox="0 0 1200 700" role="img">
<defs>
<linearGradient id="sky" x1="0" y1="0" x2="0" y2="1">
<stop offset="0" stop-color="#0a1026"/><stop offset="0.62" stop-color="#152046"/><stop offset="1" stop-color="#2b3a6b"/>
</linearGradient>
<pattern id="g1" width="120" height="120" patternUnits="userSpaceOnUse"><polygon points="111.6,60.0 80.0,68.3 96.5,96.5 68.3,80.0 60.0,111.6 51.7,80.0 23.5,96.5 40.0,68.3 8.4,60.0 40.0,51.7 23.5,23.5 51.7,40.0 60.0,8.4 68.3,40.0 96.5,23.5 80.0,51.7" fill="none" stroke="#e8d9a8" stroke-width="1.6" opacity="0.1"/><rect x="17.4" y="17.4" width="85.2" height="85.2" fill="none" stroke="#e8d9a8" stroke-width="1.6" opacity="0.06999999999999999" transform="rotate(45 60.0 60.0)"/></pattern>
</defs>
<rect width="1200" height="700" fill="url(#sky)"/>
<rect width="1200" height="700" fill="url(#g1)"/>
<circle cx="916" cy="176" r="0.8" fill="#f7ecd2" opacity="0.51"/><circle cx="1046" cy="185" r="1.3" fill="#f7ecd2" opacity="0.45"/><circle cx="1073" cy="61" r="0.8" fill="#f7ecd2" opacity="0.38"/><circle cx="781" cy="248" r="0.8" fill="#f7ecd2" opacity="0.73"/><circle cx="2" cy="298" r="0.8" fill="#f7ecd2" opacity="0.81"/><circle cx="872" cy="127" r="0.8" fill="#f7ecd2" opacity="0.79"/><circle cx="919" cy="283" r="1.8" fill="#f7ecd2" opacity="0.62"/><circle cx="887" cy="30" r="1.8" fill="#f7ecd2" opacity="0.45"/><circle cx="1088" cy="200" r="1.3" fill="#f7ecd2" opacity="0.35"/><circle cx="298" cy="249" r="1.3" fill="#f7ecd2" opacity="0.37"/><circle cx="365" cy="5" r="1.3" fill="#f7ecd2" opacity="0.60"/><circle cx="593" cy="332" r="1.3" fill="#f7ecd2" opacity="0.61"/><circle cx="574" cy="142" r="1.8" fill="#f7ecd2" opacity="0.43"/><circle cx="524" cy="11" r="1.3" fill="#f7ecd2" opacity="0.49"/><circle cx="611" cy="47" r="1.3" fill="#f7ecd2" opacity="0.52"/><circle cx="1099" cy="274" r="1.8" fill="#f7ecd2" opacity="0.61"/><circle cx="860" cy="64" r="0.8" fill="#f7ecd2" opacity="0.75"/><circle cx="350" cy="293" r="1.3" fill="#f7ecd2" opacity="0.35"/><circle cx="457" cy="269" r="0.8" fill="#f7ecd2" opacity="0.68"/><circle cx="5" cy="256" r="0.8" fill="#f7ecd2" opacity="0.65"/><circle cx="746" cy="166" r="0.8" fill="#f7ecd2" opacity="0.71"/><circle cx="976" cy="215" r="0.8" fill="#f7ecd2" opacity="0.75"/><circle cx="1103" cy="131" r="1.3" fill="#f7ecd2" opacity="0.78"/><circle cx="911" cy="18" r="1.8" fill="#f7ecd2" opacity="0.83"/><circle cx="232" cy="108" r="1.3" fill="#f7ecd2" opacity="0.41"/><circle cx="2" cy="177" r="1.8" fill="#f7ecd2" opacity="0.39"/><circle cx="149" cy="33" r="1.8" fill="#f7ecd2" opacity="0.52"/><circle cx="217" cy="160" r="1.8" fill="#f7ecd2" opacity="0.55"/><circle cx="518" cy="30" r="1.8" fill="#f7ecd2" opacity="0.75"/><circle cx="1028" cy="259" r="0.8" fill="#f7ecd2" opacity="0.37"/><circle cx="1195" cy="55" r="1.8" fill="#f7ecd2" opacity="0.60"/><circle cx="323" cy="282" r="1.8" fill="#f7ecd2" opacity="0.71"/><circle cx="404" cy="132" r="1.8" fill="#f7ecd2" opacity="0.63"/><circle cx="454" cy="41" r="0.8" fill="#f7ecd2" opacity="0.49"/><circle cx="641" cy="117" r="1.8" fill="#f7ecd2" opacity="0.82"/><circle cx="29" cy="244" r="0.8" fill="#f7ecd2" opacity="0.61"/><circle cx="1090" cy="214" r="1.8" fill="#f7ecd2" opacity="0.45"/><circle cx="680" cy="143" r="1.3" fill="#f7ecd2" opacity="0.75"/><circle cx="887" cy="159" r="1.8" fill="#f7ecd2" opacity="0.68"/><circle cx="535" cy="186" r="1.3" fill="#f7ecd2" opacity="0.45"/><circle cx="176" cy="336" r="1.8" fill="#f7ecd2" opacity="0.71"/><circle cx="506" cy="85" r="0.8" fill="#f7ecd2" opacity="0.45"/><circle cx="733" cy="41" r="0.8" fill="#f7ecd2" opacity="0.38"/><circle cx="641" cy="308" r="1.3" fill="#f7ecd2" opacity="0.63"/><circle cx="62" cy="98" r="1.3" fill="#f7ecd2" opacity="0.61"/><circle cx="1132" cy="7" r="1.8" fill="#f7ecd2" opacity="0.59"/><circle cx="179" cy="103" r="0.8" fill="#f7ecd2" opacity="0.72"/><circle cx="347" cy="270" r="1.8" fill="#f7ecd2" opacity="0.75"/><circle cx="748" cy="180" r="1.3" fill="#f7ecd2" opacity="0.75"/><circle cx="158" cy="309" r="1.8" fill="#f7ecd2" opacity="0.57"/><circle cx="425" cy="145" r="0.8" fill="#f7ecd2" opacity="0.60"/><circle cx="853" cy="212" r="0.8" fill="#f7ecd2" opacity="0.71"/><circle cx="1034" cy="102" r="1.8" fill="#f7ecd2" opacity="0.53"/><circle cx="1184" cy="51" r="1.8" fill="#f7ecd2" opacity="0.69"/><circle cx="271" cy="27" r="1.3" fill="#f7ecd2" opacity="0.52"/><circle cx="959" cy="334" r="0.8" fill="#f7ecd2" opacity="0.41"/><circle cx="920" cy="204" r="1.8" fill="#f7ecd2" opacity="0.65"/><circle cx="610" cy="173" r="0.8" fill="#f7ecd2" opacity="0.65"/><circle cx="917" cy="229" r="0.8" fill="#f7ecd2" opacity="0.78"/><circle cx="665" cy="296" r="1.3" fill="#f7ecd2" opacity="0.75"/><circle cx="980" cy="120" r="42" fill="#f6ecd0" opacity="0.95"/><circle cx="996" cy="112" r="36" fill="url(#sky)" opacity="0.92"/>
<rect x="240" y="390" width="720" height="170" fill="#12141c"/><rect x="262" y="364" width="40" height="26" fill="#12141c"/><rect x="340" y="364" width="40" height="26" fill="#12141c"/><rect x="418" y="364" width="40" height="26" fill="#12141c"/><rect x="496" y="364" width="40" height="26" fill="#12141c"/><rect x="574" y="364" width="40" height="26" fill="#12141c"/><rect x="652" y="364" width="40" height="26" fill="#12141c"/><rect x="730" y="364" width="40" height="26" fill="#12141c"/><rect x="808" y="364" width="40" height="26" fill="#12141c"/><rect x="886" y="364" width="40" height="26" fill="#12141c"/><path d="M 296 560 L 308 390 L 332 390 L 344 560 Z" fill="#0c0e14" opacity="0.8"/><path d="M 536 560 L 548 390 L 572 390 L 584 560 Z" fill="#0c0e14" opacity="0.8"/><path d="M 776 560 L 788 390 L 812 390 L 824 560 Z" fill="#0c0e14" opacity="0.8"/><path d="M 818 390 C 818 333.9, 845.9 324, 880 324 C 914.1 324, 942 333.9, 942 390 Z" fill="#e8e0cf"/><line x1="880" y1="324" x2="880" y2="302" stroke="#d8b45a" stroke-width="3"/><circle cx="880" cy="298" r="4.5" fill="#d8b45a"/><path d="M 880 284 a 8 8 0 1 0 6 13 a 6.4 6.4 0 1 1 -6 -13 Z" fill="#d8b45a"/><rect x="314" y="90" width="92" height="300" fill="#12141c"/><rect x="326" y="20" width="68" height="70" fill="#12141c"/><path d="M 330 20 C 330 -8.899999999999999, 343.5 -14, 360 -14 C 376.5 -14, 390 -8.899999999999999, 390 20 Z" fill="#e8e0cf"/><line x1="360" y1="-14" x2="360" y2="-36" stroke="#d8b45a" stroke-width="3"/><circle cx="360" cy="-40" r="4.5" fill="#d8b45a"/><path d="M 360 -54 a 8 8 0 1 0 6 13 a 6.4 6.4 0 1 1 -6 -13 Z" fill="#d8b45a"/>
<rect x="0" y="560" width="1200" height="140" fill="#0c0e14"/>

<rect x="0" y="556" width="1200" height="4" fill="#d8b45a" opacity="0.55"/>
</svg>