<svg xmlns="http://www.w3.org/2000/svg" viewBox="0 0 1200 700" role="img">
<defs>
<linearGradient id="sky" x1="0" y1="0" x2="0" y2="1">
<stop offset="0" stop-color="#0a1026"/><stop offset="0.62" stop-color="#152046"/><stop offset="1" stop-color="#2b3a6b"/>
</linearGradient>
<pattern id="g1" width="120" height="120" patternUnits="userSpaceOnUse"><polygon points="111.6,60.0 80.0,68.3 96.5,96.5 68.3,80.0 60.0,111.6 51.7,80.0 23.5,96.5 40.0,68.3 8.4,60.0 40.0,51.7 23.5,23.5 51.7,40.0 60.0,8.4 68.3,40.0 96.5,23.5 80.0,51.7" fill="none" stroke="#e8d9a8" stroke-width="1.6" opacity="0.1"/><rect x="17.4" y="17.4" width="85.2" height="85.2" fill="none" stroke="#e8d9a8" stroke-width="1.6" opacity="0.06999999999999999" transform="rotate(45 60.0 60.0)"/></pattern>
</defs>
<rect width="1200" height="700" fill="url(#sky)"/>
<rect width="1200" height="700" fill="url(#g1)"/>
<circle cx="46" cy="66" r="1.3" fill="#f7ecd2" opacity="0.71"/><circle cx="1136" cy="255" r="1.8" fill="#f7ecd2" opacity="0.65"/><circle cx="443" cy="251" r="1.3" fill="#f7ecd2" opacity="0.78"/><circle cx="391" cy="58" r="1.8" fill="#f7ecd2" opacity="0.63"/><circle cx="332" cy="328" r="0.8" fill="#f7ecd2" opacity="0.81"/><circle cx="962" cy="197" r="1.3" fill="#f7ecd2" opacity="0.49"/><circle cx="289" cy="133" r="1.8" fill="#f7ecd2" opacity="0.72"/><circle cx="497" cy="180" r="1.8" fill="#f7ecd2" opacity="0.45"/><circle cx="218" cy="90" r="1.8" fill="#f7ecd2" opacity="0.55"/><circle cx="388" cy="319" r="1.8" fill="#f7ecd2" opacity="0.57"/><circle cx="935" cy="335" r="1.3" fill="#f7ecd2" opacity="0.60"/><circle cx="203" cy="142" r="0.8" fill="#f7ecd2" opacity="0.61"/><circle cx="904" cy="172" r="1.8" fill="#f7ecd2" opacity="0.73"/><circle cx="614" cy="81" r="1.8" fill="#f7ecd2" opacity="0.69"/><circle cx="1181" cy="37" r="0.8" fill="#f7ecd2" opacity="0.82"/><circle cx="709" cy="84" r="1.3" fill="#f7ecd2" opacity="0.41"/><circle cx="1190" cy="94" r="0.8" fill="#f7ecd2" opacity="0.45"/><circle cx="440" cy="23" r="1.3" fill="#f7ecd2" opacity="0.55"/><circle cx="1027" cy="259" r="1.8" fill="#f7ecd2" opacity="0.78"/><circle cx="815" cy="206" r="1.3" fill="#f7ecd2" opacity="0.75"/><circle cx="1076" cy="196" r="0.8" fill="#f7ecd2" opacity="0.81"/><circle cx="1066" cy="285" r="1.3" fill="#f7ecd2" opacity="0.45"/><circle cx="473" cy="321" r="1.8" fill="#f7ecd2" opacity="0.68"/><circle cx="521" cy="168" r="1.8" fill="#f7ecd2" opacity="0.63"/><circle cx="562" cy="138" r="1.3" fill="#f7ecd2" opacity="0.41"/><circle cx="92" cy="247" r="0.8" fill="#f7ecd2" opacity="0.59"/><circle cx="719" cy="23" r="1.3" fill="#f7ecd2" opacity="0.72"/><circle cx="1027" cy="110" r="0.8" fill="#f7ecd2" opacity="0.55"/><circle cx="848" cy="60" r="1.8" fill="#f7ecd2" opacity="0.65"/><circle cx="1118" cy="329" r="1.3" fill="#f7ecd2" opacity="0.57"/><circle cx="565" cy="245" r="0.8" fill="#f7ecd2" opacity="0.60"/><circle cx="1133" cy="232" r="0.8" fill="#f7ecd2" opacity="0.41"/><circle cx="734" cy="162" r="1.8" fill="#f7ecd2" opacity="0.43"/><circle cx="544" cy="111" r="1.3" fill="#f7ecd2" opacity="0.69"/><circle cx="11" cy="307" r="0.8" fill="#f7ecd2" opacity="0.62"/><circle cx="839" cy="194" r="1.3" fill="#f7ecd2" opacity="0.51"/><circle cx="220" cy="104" r="0.8" fill="#f7ecd2" opacity="0.65"/><circle cx="770" cy="213" r="1.8" fill="#f7ecd2" opacity="0.45"/><circle cx="257" cy="9" r="1.8" fill="#f7ecd2" opacity="0.48"/><circle cx="145" cy="336" r="1.3" fill="#f7ecd2" opacity="0.55"/><circle cx="506" cy="26" r="1.3" fill="#f7ecd2" opacity="0.41"/><circle cx="596" cy="155" r="1.3" fill="#f7ecd2" opacity="0.65"/><circle cx="103" cy="231" r="1.3" fill="#f7ecd2" opacity="0.78"/><circle cx="251" cy="118" r="0.8" fill="#f7ecd2" opacity="0.53"/><circle cx="392" cy="128" r="1.3" fill="#f7ecd2" opacity="0.61"/><circle cx="22" cy="277" r="1.8" fill="#f7ecd2" opacity="0.79"/><circle cx="749" cy="93" r="1.8" fill="#f7ecd2" opacity="0.42"/><circle cx="1157" cy="220" r="0.8" fill="#f7ecd2" opacity="0.75"/><circle cx="1078" cy="210" r="1.3" fill="#f7ecd2" opacity="0.65"/><circle cx="248" cy="39" r="1.8" fill="#f7ecd2" opacity="0.57"/><circle cx="995" cy="135" r="1.8" fill="#f7ecd2" opacity="0.60"/><circle cx="463" cy="22" r="1.8" fill="#f7ecd2" opacity="0.71"/><circle cx="164" cy="332" r="1.3" fill="#f7ecd2" opacity="0.83"/><circle cx="74" cy="321" r="1.8" fill="#f7ecd2" opacity="0.39"/><circle cx="841" cy="17" r="0.8" fill="#f7ecd2" opacity="0.82"/><circle cx="569" cy="144" r="1.8" fill="#f7ecd2" opacity="0.71"/><circle cx="50" cy="94" r="0.8" fill="#f7ecd2" opacity="0.35"/><circle cx="700" cy="243" r="1.3" fill="#f7ecd2" opacity="0.35"/><circle cx="287" cy="79" r="0.8" fill="#f7ecd2" opacity="0.58"/><circle cx="275" cy="106" r="0.8" fill="#f7ecd2" opacity="0.35"/><circle cx="980" cy="120" r="42" fill="#f6ecd0" opacity="0.95"/><circle cx="996" cy="112" r="36" fill="url(#sky)" opacity="0.92"/>
<rect x="240" y="390" width="720" height="170" fill="#12141c"/><rect x="262" y="364" width="40" height="26" fill="#12141c"/><rect x="340" y="364" width="40" height="26" fill="#12141c"/><rect x="418" y="364" width="40" height="26" fill="#12141c"/><rect x="496" y="364" width="40" height="26" fill="#12141c"/><rect x="574" y="364" width="40" height="26" fill="#12141c"/><rect x="652" y="364" width="40" height="26" fill="#12141c"/><rect x="730" y="364" width="40" height="26" fill="#12141c"/><rect x="808" y="364" width="40" height="26" fill="#12141c"/><rect x="886" y="364" width="40" height="26" fill="#12141c"/><path d="M 296 560 L 308 390 L 332 390 L 344 560 Z" fill="#0c0e14" opacity="0.8"/><path d="M 536 560 L 548 390 L 572 390 L 584 560 Z" fill="#0c0e14" opacity="0.8"/><path d="M 776 560 L 788 390 L 812 390 L 824 560 Z" fill="#0c0e14" opacity="0.8"/><path d="M 818 390 C 818 333.9, 845.9 324, 880 324 C 914.1 324, 942 333.9, 942 390 Z" fill="#e8e0cf"/><line x1="880" y1="324" x2="880" y2="302" stroke="#d8b45a" stroke-width="3"/><circle cx="880" cy="298" r="4.5" fill="#d8b45a"/><path d="M 880 284 a 8 8 0 1 0 6 13 a 6.4 6.4 0 1 1 -6 -13 Z" fill="#d8b45a"/><rect x="314" y="90" width="92" height="300" fill="#12141c"/><rect x="326" y="20" width="68" height="70" fill="#12141c"/><path d="M 330 20 C 330 -8.899999999999999, 343.5 -14, 360 -14 C 376.5 -14, 390 -8.899999999999999, 390 20 Z" fill="#e8e0cf"/><line x1="360" y1="-14" x2="360" y2="-36" stroke="#d8b45a" stroke-width="3"/><circle cx="360" cy="-40" r="4.5" fill="#d8b45a"/><path d="M 360 -54 a 8 8 0 1 0 6 13 a 6.4 6.4 0 1 1 -6 -13 Z" fill="#d8b45a"/>
<rect x="0" y="560" width="1200" height="140" fill="#0c0e14"/>

<rect x="0" y="556" width="1200" height="4" fill="#d8b45a" opacity="0.55"/>
</svg>