<svg xmlns="http://www.w3.org/2000/svg" viewBox="0 0 1200 700" role="img">
<defs>
<linearGradient id="sky" x1="0" y1="0" x2="0" y2="1">
<stop offset="0" stop-color="#0a1026"/><stop offset="0.62" stop-color="#152046"/><stop offset="1" stop-color="#2b3a6b"/>
</linearGradient>
<pattern id="g1" width="120" height="120" patternUnits="userSpaceOnUse"><polygon points="111.6,60.0 80.0,68.3 96.5,96.5 68.3,80.0 60.0,111.6 51.7,80.0 23.5,96.5 40.0,68.3 8.4,60.0 40.0,51.7 23.5,23.5 51.7,40.0 60.0,8.4 68.3,40.0 96.5,23.5 80.0,51.7" fill="none" stroke="#e8d9a8" stroke-width="1.6" opacity="0.1"/><rect x="17.4" y="17.4" width="85.2" height="85.2" fill="none" stroke="#e8d9a8" stroke-width="1.6" opacity="0.06999999999999999" transform="rotate(45 60.0 60.0)"/></pattern>
</defs>
<rect width="1200" height="700" fill="url(#sky)"/>
<rect width="1200" height="700" fill="url(#g1)"/>
<circle cx="805" cy="135" r="1.3" fill="#f7ecd2" opacity="0.60"/><circle cx="143" cy="72" r="1.8" fill="#f7ecd2" opacity="0.81"/><circle cx="1154" cy="192" r="1.8" fill="#f7ecd2" opacity="0.53"/><circle cx="694" cy="271" r="1.8" fill="#f7ecd2" opacity="0.59"/><circle cx="851" cy="97" r="0.8" fill="#f7ecd2" opacity="0.82"/><circle cx="449" cy="274" r="0.8" fill="#f7ecd2" opacity="0.61"/><circle cx="40" cy="234" r="1.3" fill="#f7ecd2" opacity="0.45"/><circle cx="320" cy="133" r="0.8" fill="#f7ecd2" opacity="0.45"/><circle cx="497" cy="239" r="1.3" fill="#f7ecd2" opacity="0.68"/><circle cx="355" cy="316" r="1.8" fill="#f7ecd2" opacity="0.65"/><circle cx="926" cy="56" r="1.3" fill="#f7ecd2" opacity="0.41"/><circle cx="746" cy="315" r="1.8" fill="#f7ecd2" opacity="0.75"/><circle cx="943" cy="21" r="1.3" fill="#f7ecd2" opacity="0.38"/><circle cx="1061" cy="338" r="1.3" fill="#f7ecd2" opacity="0.53"/><circle cx="212" cy="258" r="1.8" fill="#f7ecd2" opacity="0.81"/><circle cx="772" cy="337" r="1.8" fill="#f7ecd2" opacity="0.49"/><circle cx="989" cy="323" r="1.3" fill="#f7ecd2" opacity="0.82"/><circle cx="167" cy="60" r="1.8" fill="#f7ecd2" opacity="0.55"/><circle cx="298" cy="100" r="1.8" fill="#f7ecd2" opacity="0.35"/><circle cx="398" cy="199" r="0.8" fill="#f7ecd2" opacity="0.37"/><circle cx="635" cy="125" r="1.3" fill="#f7ecd2" opacity="0.60"/><circle cx="73" cy="102" r="1.3" fill="#f7ecd2" opacity="0.81"/><circle cx="1184" cy="262" r="0.8" fill="#f7ecd2" opacity="0.43"/><circle cx="824" cy="41" r="1.3" fill="#f7ecd2" opacity="0.69"/><circle cx="1081" cy="247" r="1.8" fill="#f7ecd2" opacity="0.42"/><circle cx="779" cy="124" r="0.8" fill="#f7ecd2" opacity="0.81"/><circle cx="470" cy="124" r="0.8" fill="#f7ecd2" opacity="0.65"/><circle cx="850" cy="63" r="1.3" fill="#f7ecd2" opacity="0.35"/><circle cx="1127" cy="209" r="1.3" fill="#f7ecd2" opacity="0.78"/><circle cx="1085" cy="326" r="1.3" fill="#f7ecd2" opacity="0.45"/><circle cx="556" cy="306" r="1.3" fill="#f7ecd2" opacity="0.71"/><circle cx="476" cy="265" r="0.8" fill="#f7ecd2" opacity="0.75"/><circle cx="773" cy="11" r="1.3" fill="#f7ecd2" opacity="0.38"/><circle cx="991" cy="28" r="1.8" fill="#f7ecd2" opacity="0.83"/><circle cx="242" cy="328" r="0.8" fill="#f7ecd2" opacity="0.61"/><circle cx="902" cy="107" r="1.3" fill="#f7ecd2" opacity="0.49"/><circle cx="19" cy="333" r="1.3" fill="#f7ecd2" opacity="0.62"/><circle cx="497" cy="250" r="0.8" fill="#f7ecd2" opacity="0.35"/><circle cx="728" cy="330" r="1.8" fill="#f7ecd2" opacity="0.75"/><circle cx="928" cy="129" r="1.3" fill="#f7ecd2" opacity="0.47"/><circle cx="65" cy="295" r="0.8" fill="#f7ecd2" opacity="0.60"/><circle cx="803" cy="112" r="0.8" fill="#f7ecd2" opacity="0.71"/><circle cx="814" cy="172" r="1.8" fill="#f7ecd2" opacity="0.43"/><circle cx="554" cy="331" r="0.8" fill="#f7ecd2" opacity="0.59"/><circle cx="911" cy="237" r="1.8" fill="#f7ecd2" opacity="0.42"/><circle cx="709" cy="154" r="1.8" fill="#f7ecd2" opacity="0.71"/><circle cx="500" cy="194" r="1.3" fill="#f7ecd2" opacity="0.35"/><circle cx="980" cy="173" r="1.3" fill="#f7ecd2" opacity="0.75"/><circle cx="157" cy="219" r="1.3" fill="#f7ecd2" opacity="0.68"/><circle cx="215" cy="36" r="1.8" fill="#f7ecd2" opacity="0.75"/><circle cx="986" cy="196" r="0.8" fill="#f7ecd2" opacity="0.41"/><circle cx="1006" cy="195" r="1.3" fill="#f7ecd2" opacity="0.55"/><circle cx="203" cy="181" r="0.8" fill="#f7ecd2" opacity="0.78"/><circle cx="521" cy="238" r="0.8" fill="#f7ecd2" opacity="0.83"/><circle cx="1072" cy="38" r="0.8" fill="#f7ecd2" opacity="0.71"/><circle cx="632" cy="57" r="1.8" fill="#f7ecd2" opacity="0.59"/><circle cx="1049" cy="123" r="1.8" fill="#f7ecd2" opacity="0.62"/><circle cx="427" cy="280" r="1.8" fill="#f7ecd2" opacity="0.45"/><circle cx="758" cy="60" r="1.8" fill="#f7ecd2" opacity="0.65"/><circle cx="1058" cy="239" r="1.3" fill="#f7ecd2" opacity="0.47"/><circle cx="980" cy="120" r="42" fill="#f6ecd0" opacity="0.95"/><circle cx="996" cy="112" r="36" fill="url(#sky)" opacity="0.92"/>
<rect x="240" y="390" width="720" height="170" fill="#12141c"/><rect x="262" y="364" width="40" height="26" fill="#12141c"/><rect x="340" y="364" width="40" height="26" fill="#12141c"/><rect x="418" y="364" width="40" height="26" fill="#12141c"/><rect x="496" y="364" width="40" height="26" fill="#12141c"/><rect x="574" y="364" width="40" height="26" fill="#12141c"/><rect x="652" y="364" width="40" height="26" fill="#12141c"/><rect x="730" y="364" width="40" height="26" fill="#12141c"/><rect x="808" y="364" width="40" height="26" fill="#12141c"/><rect x="886" y="364" width="40" height="26" fill="#12141c"/><path d="M 296 560 L 308 390 L 332 390 L 344 560 Z" fill="#0c0e14" opacity="0.8"/><path d="M 536 560 L 548 390 L 572 390 L 584 560 Z" fill="#0c0e14" opacity="0.8"/><path d="M 776 560 L 788 390 L 812 390 L 824 560 Z" fill="#0c0e14" opacity="0.8"/><path d="M 818 390 C 818 333.9, 845.9 324, 880 324 C 914.1 324, 942 333.9, 942 390 Z" fill="#e8e0cf"/><line x1="880" y1="324" x2="880" y2="302" stroke="#d8b45a" stroke-width="3"/><circle cx="880" cy="298" r="4.5" fill="#d8b45a"/><path d="M 880 284 a 8 8 0 1 0 6 13 a 6.4 6.4 0 1 1 -6 -13 Z" fill="#d8b45a"/><rect x="314" y="90" width="92" height="300" fill="#12141c"/><rect x="326" y="20" width="68" height="70" fill="#12141c"/><path d="M 330 20 C 330 -8.899999999999999, 343.5 -14, 360 -14 C 376.5 -14, 390 -8.899999999999999, 390 20 Z" fill="#e8e0cf"/><line x1="360" y1="-14" x2="360" y2="-36" stroke="#d8b45a" stroke-width="3"/><circle cx="360" cy="-40" r="4.5" fill="#d8b45a"/><path d="M 360 -54 a 8 8 0 1 0 6 13 a 6.4 6.4 0 1 1 -6 -13 Z" fill="#d8b45a"/>
<rect x="0" y="560" width="1200" height="140" fill="#0c0e14"/>

<rect x="0" y="556" width="1200" height="4" fill="#d8b45a" opacity="0.55"/>
</svg>