<svg xmlns="http://www.w3.org/2000/svg" viewBox="0 0 1200 700" role="img">
<defs>
<linearGradient id="sky" x1="0" y1="0" x2="0" y2="1">
<stop offset="0" stop-color="#0a1026"/><stop offset="0.62" stop-color="#152046"/><stop offset="1" stop-color="#2b3a6b"/>
</linearGradient>
<pattern id="g1" width="120" height="120" patternUnits="userSpaceOnUse"><polygon points="111.6,60.0 80.0,68.3 96.5,96.5 68.3,80.0 60.0,111.6 51.7,80.0 23.5,96.5 40.0,68.3 8.4,60.0 40.0,51.7 23.5,23.5 51.7,40.0 60.0,8.4 68.3,40.0 96.5,23.5 80.0,51.7" fill="none" stroke="#e8d9a8" stroke-width="1.6" opacity="0.1"/><rect x="17.4" y="17.4" width="85.2" height="85.2" fill="none" stroke="#e8d9a8" stroke-width="1.6" opacity="0.06999999999999999" transform="rotate(45 60.0 60.0)"/></pattern>
</defs>
<rect width="1200" height="700" fill="url(#sky)"/>
<rect width="1200" height="700" fill="url(#g1)"/>
<circle cx="868" cy="48" r="1.3" fill="#f7ecd2" opacity="0.49"/><circle cx="1142" cy="101" r="1.3" fill="#f7ecd2" opacity="0.77"/><circle cx="881" cy="229" r="0.8" fill="#f7ecd2" opacity="0.84"/><circle cx="1165" cy="252" r="1.3" fill="#f7ecd2" opacity="0.65"/><circle cx="434" cy="90" r="1.8" fill="#f7ecd2" opacity="0.45"/><circle cx="8" cy="203" r="1.3" fill="#f7ecd2" opacity="0.59"/><circle cx="247" cy="191" r="0.8" fill="#f7ecd2" opacity="0.62"/><circle cx="1031" cy="74" r="1.3" fill="#f7ecd2" opacity="0.79"/><circle cx="800" cy="112" r="0.8" fill="#f7ecd2" opacity="0.35"/><circle cx="874" cy="85" r="1.8" fill="#f7ecd2" opacity="0.75"/><circle cx="413" cy="133" r="0.8" fill="#f7ecd2" opacity="0.64"/><circle cx="497" cy="76" r="0.8" fill="#f7ecd2" opacity="0.57"/><circle cx="766" cy="314" r="0.8" fill="#f7ecd2" opacity="0.59"/><circle cx="140" cy="7" r="0.8" fill="#f7ecd2" opacity="0.65"/><circle cx="179" cy="255" r="1.8" fill="#f7ecd2" opacity="0.80"/><circle cx="763" cy="58" r="1.8" fill="#f7ecd2" opacity="0.39"/><circle cx="332" cy="16" r="0.8" fill="#f7ecd2" opacity="0.47"/><circle cx="206" cy="249" r="1.8" fill="#f7ecd2" opacity="0.79"/><circle cx="745" cy="17" r="0.8" fill="#f7ecd2" opacity="0.50"/><circle cx="629" cy="220" r="0.8" fill="#f7ecd2" opacity="0.65"/><circle cx="698" cy="38" r="1.3" fill="#f7ecd2" opacity="0.59"/><circle cx="1072" cy="131" r="0.8" fill="#f7ecd2" opacity="0.67"/><circle cx="911" cy="299" r="1.3" fill="#f7ecd2" opacity="0.74"/><circle cx="95" cy="222" r="1.8" fill="#f7ecd2" opacity="0.75"/><circle cx="664" cy="240" r="1.3" fill="#f7ecd2" opacity="0.45"/><circle cx="338" cy="53" r="1.3" fill="#f7ecd2" opacity="0.49"/><circle cx="677" cy="81" r="1.8" fill="#f7ecd2" opacity="0.72"/><circle cx="361" cy="204" r="1.3" fill="#f7ecd2" opacity="0.79"/><circle cx="230" cy="282" r="1.8" fill="#f7ecd2" opacity="0.45"/><circle cx="404" cy="295" r="0.8" fill="#f7ecd2" opacity="0.65"/><circle cx="43" cy="43" r="1.8" fill="#f7ecd2" opacity="0.84"/><circle cx="227" cy="26" r="1.3" fill="#f7ecd2" opacity="0.37"/><circle cx="596" cy="304" r="0.8" fill="#f7ecd2" opacity="0.69"/><circle cx="70" cy="37" r="1.8" fill="#f7ecd2" opacity="0.75"/><circle cx="209" cy="325" r="0.8" fill="#f7ecd2" opacity="0.60"/><circle cx="893" cy="168" r="1.8" fill="#f7ecd2" opacity="0.59"/><circle cx="562" cy="166" r="1.8" fill="#f7ecd2" opacity="0.77"/><circle cx="536" cy="99" r="1.8" fill="#f7ecd2" opacity="0.49"/><circle cx="1175" cy="247" r="0.8" fill="#f7ecd2" opacity="0.60"/><circle cx="1159" cy="150" r="1.3" fill="#f7ecd2" opacity="0.35"/><circle cx="128" cy="208" r="0.8" fill="#f7ecd2" opacity="0.59"/><circle cx="602" cy="1" r="0.8" fill="#f7ecd2" opacity="0.37"/><circle cx="541" cy="209" r="0.8" fill="#f7ecd2" opacity="0.54"/><circle cx="1025" cy="312" r="1.8" fill="#f7ecd2" opacity="0.35"/><circle cx="494" cy="230" r="1.3" fill="#f7ecd2" opacity="0.55"/><circle cx="268" cy="83" r="0.8" fill="#f7ecd2" opacity="0.79"/><circle cx="707" cy="151" r="0.8" fill="#f7ecd2" opacity="0.42"/><circle cx="491" cy="314" r="1.3" fill="#f7ecd2" opacity="0.59"/><circle cx="460" cy="92" r="0.8" fill="#f7ecd2" opacity="0.55"/><circle cx="734" cy="145" r="0.8" fill="#f7ecd2" opacity="0.65"/><circle cx="473" cy="273" r="1.8" fill="#f7ecd2" opacity="0.64"/><circle cx="757" cy="296" r="0.8" fill="#f7ecd2" opacity="0.57"/><circle cx="26" cy="134" r="1.3" fill="#f7ecd2" opacity="0.69"/><circle cx="800" cy="47" r="1.3" fill="#f7ecd2" opacity="0.35"/><circle cx="1039" cy="35" r="0.8" fill="#f7ecd2" opacity="0.50"/><circle cx="623" cy="118" r="0.8" fill="#f7ecd2" opacity="0.49"/><circle cx="392" cy="156" r="1.8" fill="#f7ecd2" opacity="0.37"/><circle cx="466" cy="129" r="1.3" fill="#f7ecd2" opacity="0.49"/><circle cx="5" cy="177" r="1.8" fill="#f7ecd2" opacity="0.70"/><circle cx="89" cy="120" r="1.8" fill="#f7ecd2" opacity="0.65"/><circle cx="980" cy="120" r="42" fill="#f6ecd0" opacity="0.95"/><circle cx="996" cy="112" r="36" fill="url(#sky)" opacity="0.92"/>
<rect x="240" y="390" width="720" height="170" fill="#12141c"/><rect x="262" y="364" width="40" height="26" fill="#12141c"/><rect x="340" y="364" width="40" height="26" fill="#12141c"/><rect x="418" y="364" width="40" height="26" fill="#12141c"/><rect x="496" y="364" width="40" height="26" fill="#12141c"/><rect x="574" y="364" width="40" height="26" fill="#12141c"/><rect x="652" y="364" width="40" height="26" fill="#12141c"/><rect x="730" y="364" width="40" height="26" fill="#12141c"/><rect x="808" y="364" width="40" height="26" fill="#12141c"/><rect x="886" y="364" width="40" height="26" fill="#12141c"/><path d="M 296 560 L 308 390 L 332 390 L 344 560 Z" fill="#0c0e14" opacity="0.8"/><path d="M 536 560 L 548 390 L 572 390 L 584 560 Z" fill="#0c0e14" opacity="0.8"/><path d="M 776 560 L 788 390 L 812 390 L 824 560 Z" fill="#0c0e14" opacity="0.8"/><path d="M 818 390 C 818 333.9, 845.9 324, 880 324 C 914.1 324, 942 333.9, 942 390 Z" fill="#e8e0cf"/><line x1="880" y1="324" x2="880" y2="302" stroke="#d8b45a" stroke-width="3"/><circle cx="880" cy="298" r="4.5" fill="#d8b45a"/><path d="M 880 284 a 8 8 0 1 0 6 13 a 6.4 6.4 0 1 1 -6 -13 Z" fill="#d8b45a"/><rect x="314" y="90" width="92" height="300" fill="#12141c"/><rect x="326" y="20" width="68" height="70" fill="#12141c"/><path d="M 330 20 C 330 -8.899999999999999, 343.5 -14, 360 -14 C 376.5 -14, 390 -8.899999999999999, 390 20 Z" fill="#e8e0cf"/><line x1="360" y1="-14" x2="360" y2="-36" stroke="#d8b45a" stroke-width="3"/><circle cx="360" cy="-40" r="4.5" fill="#d8b45a"/><path d="M 360 -54 a 8 8 0 1 0 6 13 a 6.4 6.4 0 1 1 -6 -13 Z" fill="#d8b45a"/>
<rect x="0" y="560" width="1200" height="140" fill="#0c0e14"/>

<rect x="0" y="556" width="1200" height="4" fill="#d8b45a" opacity="0.55"/>
</svg>