<svg xmlns="http://www.w3.org/2000/svg" viewBox="0 0 1200 700" role="img">
<defs>
<linearGradient id="sky" x1="0" y1="0" x2="0" y2="1">
<stop offset="0" stop-color="#402a4a"/><stop offset="0.62" stop-color="#8a527a"/><stop offset="1" stop-color="#f2c9a0"/>
</linearGradient>
<pattern id="g1" width="120" height="120" patternUnits="userSpaceOnUse"><polygon points="111.6,60.0 80.0,68.3 96.5,96.5 68.3,80.0 60.0,111.6 51.7,80.0 23.5,96.5 40.0,68.3 8.4,60.0 40.0,51.7 23.5,23.5 51.7,40.0 60.0,8.4 68.3,40.0 96.5,23.5 80.0,51.7" fill="none" stroke="#e8d9a8" stroke-width="1.6" opacity="0.1"/><rect x="17.4" y="17.4" width="85.2" height="85.2" fill="none" stroke="#e8d9a8" stroke-width="1.6" opacity="0.06999999999999999" transform="rotate(45 60.0 60.0)"/></pattern>
</defs>
<rect width="1200" height="700" fill="url(#sky)"/>
<rect width="1200" height="700" fill="url(#g1)"/>
<circle cx="738" cy="218" r="1.8" fill="#f7ecd2" opacity="0.69"/><circle cx="52" cy="131" r="0.8" fill="#f7ecd2" opacity="0.47"/><circle cx="511" cy="119" r="0.8" fill="#f7ecd2" opacity="0.44"/><circle cx="555" cy="2" r="1.8" fill="#f7ecd2" opacity="0.45"/><circle cx="304" cy="200" r="0.8" fill="#f7ecd2" opacity="0.35"/><circle cx="118" cy="213" r="1.3" fill="#f7ecd2" opacity="0.69"/><circle cx="1077" cy="81" r="0.8" fill="#f7ecd2" opacity="0.72"/><circle cx="421" cy="44" r="0.8" fill="#f7ecd2" opacity="0.59"/><circle cx="670" cy="122" r="0.8" fill="#f7ecd2" opacity="0.75"/><circle cx="984" cy="15" r="0.8" fill="#f7ecd2" opacity="0.45"/><circle cx="43" cy="163" r="1.8" fill="#f7ecd2" opacity="0.44"/><circle cx="1087" cy="26" r="0.8" fill="#f7ecd2" opacity="0.47"/><circle cx="636" cy="184" r="1.3" fill="#f7ecd2" opacity="0.59"/><circle cx="250" cy="157" r="1.8" fill="#f7ecd2" opacity="0.35"/><circle cx="1009" cy="205" r="1.8" fill="#f7ecd2" opacity="0.80"/><circle cx="153" cy="128" r="1.8" fill="#f7ecd2" opacity="0.69"/><circle cx="202" cy="166" r="1.8" fill="#f7ecd2" opacity="0.67"/><circle cx="316" cy="19" r="1.8" fill="#f7ecd2" opacity="0.39"/><circle cx="375" cy="147" r="0.8" fill="#f7ecd2" opacity="0.60"/><circle cx="19" cy="170" r="0.8" fill="#f7ecd2" opacity="0.65"/><circle cx="568" cy="88" r="1.8" fill="#f7ecd2" opacity="0.69"/><circle cx="1182" cy="41" r="1.8" fill="#f7ecd2" opacity="0.47"/><circle cx="541" cy="29" r="0.8" fill="#f7ecd2" opacity="0.74"/><circle cx="685" cy="152" r="0.8" fill="#f7ecd2" opacity="0.55"/><circle cx="534" cy="150" r="0.8" fill="#f7ecd2" opacity="0.35"/><circle cx="448" cy="183" r="1.3" fill="#f7ecd2" opacity="0.69"/><circle cx="307" cy="51" r="1.3" fill="#f7ecd2" opacity="0.42"/><circle cx="951" cy="54" r="0.8" fill="#f7ecd2" opacity="0.39"/><circle cx="100" cy="132" r="1.3" fill="#f7ecd2" opacity="0.35"/><circle cx="514" cy="45" r="1.3" fill="#f7ecd2" opacity="0.65"/><circle cx="960" cy="210" r="110.00000000000001" fill="#f2c9a0" opacity="0.18"/><circle cx="960" cy="210" r="50" fill="#f2c9a0" opacity="0.9"/>
<rect x="240" y="410" width="720" height="150" fill="#12141c"/><path d="M 268 560 L 268 472 Q 300 432 332 472 L 332 560 Z" fill="#0c0e14" opacity="0.9"/><path d="M 366 560 L 366 472 Q 398 432 430 472 L 430 560 Z" fill="#0c0e14" opacity="0.9"/><path d="M 464 560 L 464 472 Q 496 432 528 472 L 528 560 Z" fill="#0c0e14" opacity="0.9"/><path d="M 562 560 L 562 472 Q 594 432 626 472 L 626 560 Z" fill="#0c0e14" opacity="0.9"/><path d="M 660 560 L 660 472 Q 692 432 724 472 L 724 560 Z" fill="#0c0e14" opacity="0.9"/><path d="M 758 560 L 758 472 Q 790 432 822 472 L 822 560 Z" fill="#0c0e14" opacity="0.9"/><path d="M 856 560 L 856 472 Q 888 432 920 472 L 920 560 Z" fill="#0c0e14" opacity="0.9"/><path d="M 450 410 C 450 265.5, 517.5 240, 600 240 C 682.5 240, 750 265.5, 750 410 Z" fill="#cf7f96"/><line x1="600" y1="240" x2="600" y2="218" stroke="#d8b45a" stroke-width="3"/><circle cx="600" cy="214" r="4.5" fill="#d8b45a"/><path d="M 600 200 a 8 8 0 1 0 6 13 a 6.4 6.4 0 1 1 -6 -13 Z" fill="#d8b45a"/><path d="M 300 410 C 300 312.25, 345.0 295, 400 295 C 455.0 295, 500 312.25, 500 410 Z" fill="#cf7f96"/><line x1="400" y1="295" x2="400" y2="273" stroke="#d8b45a" stroke-width="3"/><circle cx="400" cy="269" r="4.5" fill="#d8b45a"/><path d="M 400 255 a 8 8 0 1 0 6 13 a 6.4 6.4 0 1 1 -6 -13 Z" fill="#d8b45a"/><path d="M 700 410 C 700 312.25, 745.0 295, 800 295 C 855.0 295, 900 312.25, 900 410 Z" fill="#cf7f96"/><line x1="800" y1="295" x2="800" y2="273" stroke="#d8b45a" stroke-width="3"/><circle cx="800" cy="269" r="4.5" fill="#d8b45a"/><path d="M 800 255 a 8 8 0 1 0 6 13 a 6.4 6.4 0 1 1 -6 -13 Z" fill="#d8b45a"/><rect x="139.0" y="230" width="22" height="330" fill="#12141c"/><rect x="129.1" y="234" width="41.8" height="7" rx="3" fill="#12141c"/><path d="M 131.3 232 C 131.3 210.495, 139.715 206.7, 150 206.7 C 160.285 206.7, 168.7 210.495, 168.7 232 Z" fill="#12141c"/><line x1="150" y1="206.7" x2="150" y2="184.7" stroke="#d8b45a" stroke-width="3"/><circle cx="150" cy="180.7" r="4.5" fill="#d8b45a"/><path d="M 150 166.7 a 8 8 0 1 0 6 13 a 6.4 6.4 0 1 1 -6 -13 Z" fill="#d8b45a"/>
<rect x="0" y="560" width="1200" height="140" fill="#0c0e14"/>
<rect x="0" y="580" width="1200" height="120" fill="#8a527a" opacity="0.45"/><g opacity="0.35"><line x1="80" y1="600" x2="170" y2="600" stroke="#f2e6c8" stroke-width="2"/><line x1="220" y1="624" x2="310" y2="624" stroke="#f2e6c8" stroke-width="2"/><line x1="360" y1="648" x2="450" y2="648" stroke="#f2e6c8" stroke-width="2"/><line x1="500" y1="600" x2="590" y2="600" stroke="#f2e6c8" stroke-width="2"/><line x1="640" y1="624" x2="730" y2="624" stroke="#f2e6c8" stroke-width="2"/><line x1="780" y1="648" x2="870" y2="648" stroke="#f2e6c8" stroke-width="2"/><line x1="920" y1="600" x2="1010" y2="600" stroke="#f2e6c8" stroke-width="2"/><line x1="1060" y1="624" x2="1150" y2="624" stroke="#f2e6c8" stroke-width="2"/></g>
<rect x="0" y="556" width="1200" height="4" fill="#d8b45a" opacity="0.55"/>
</svg>