<svg xmlns="http://www.w3.org/2000/svg" viewBox="0 0 1200 700" role="img">
<defs>
<linearGradient id="sky" x1="0" y1="0" x2="0" y2="1">
<stop offset="0" stop-color="#0a1026"/><stop offset="0.62" stop-color="#152046"/><stop offset="1" stop-color="#2b3a6b"/>
</linearGradient>
<pattern id="g1" width="120" height="120" patternUnits="userSpaceOnUse"><polygon points="111.6,60.0 80.0,68.3 96.5,96.5 68.3,80.0 60.0,111.6 51.7,80.0 23.5,96.5 40.0,68.3 8.4,60.0 40.0,51.7 23.5,23.5 51.7,40.0 60.0,8.4 68.3,40.0 96.5,23.5 80.0,51.7" fill="none" stroke="#e8d9a8" stroke-width="1.6" opacity="0.1"/><rect x="17.4" y="17.4" width="85.2" height="85.2" fill="none" stroke="#e8d9a8" stroke-width="1.6" opacity="0.06999999999999999" transform="rotate(45 60.0 60.0)"/></pattern>
</defs>
<rect width="1200" height="700" fill="url(#sky)"/>
<rect width="1200" height="700" fill="url(#g1)"/>
<circle cx="1177" cy="107" r="0.8" fill="#f7ecd2" opacity="0.74"/><circle cx="899" cy="48" r="1.8" fill="#f7ecd2" opacity="0.37"/><circle cx="1142" cy="160" r="0.8" fill="#f7ecd2" opacity="0.55"/><circle cx="1018" cy="115" r="1.8" fill="#f7ecd2" opacity="0.55"/><circle cx="503" cy="189" r="1.8" fill="#f7ecd2" opacity="0.52"/><circle cx="245" cy="70" r="0.8" fill="#f7ecd2" opacity="0.35"/><circle cx="748" cy="82" r="1.8" fill="#f7ecd2" opacity="0.71"/><circle cx="404" cy="17" r="1.3" fill="#f7ecd2" opacity="0.53"/><circle cx="629" cy="251" r="1.3" fill="#f7ecd2" opacity="0.64"/><circle cx="391" cy="72" r="1.3" fill="#f7ecd2" opacity="0.37"/><circle cx="1154" cy="324" r="1.8" fill="#f7ecd2" opacity="0.81"/><circle cx="590" cy="239" r="1.3" fill="#f7ecd2" opacity="0.45"/><circle cx="355" cy="153" r="1.3" fill="#f7ecd2" opacity="0.50"/><circle cx="137" cy="254" r="1.3" fill="#f7ecd2" opacity="0.83"/><circle cx="1160" cy="66" r="1.8" fill="#f7ecd2" opacity="0.45"/><circle cx="376" cy="301" r="1.8" fill="#f7ecd2" opacity="0.61"/><circle cx="881" cy="35" r="1.3" fill="#f7ecd2" opacity="0.70"/><circle cx="683" cy="76" r="0.8" fill="#f7ecd2" opacity="0.43"/><circle cx="766" cy="328" r="1.8" fill="#f7ecd2" opacity="0.83"/><circle cx="962" cy="3" r="1.8" fill="#f7ecd2" opacity="0.71"/><circle cx="1007" cy="97" r="0.8" fill="#f7ecd2" opacity="0.64"/><circle cx="829" cy="78" r="1.3" fill="#f7ecd2" opacity="0.47"/><circle cx="1172" cy="230" r="1.3" fill="#f7ecd2" opacity="0.45"/><circle cx="1148" cy="225" r="1.8" fill="#f7ecd2" opacity="0.35"/><circle cx="733" cy="339" r="1.3" fill="#f7ecd2" opacity="0.72"/><circle cx="575" cy="260" r="1.3" fill="#f7ecd2" opacity="0.35"/><circle cx="1178" cy="312" r="1.8" fill="#f7ecd2" opacity="0.71"/><circle cx="934" cy="287" r="0.8" fill="#f7ecd2" opacity="0.43"/><circle cx="59" cy="81" r="1.8" fill="#f7ecd2" opacity="0.64"/><circle cx="1121" cy="82" r="0.8" fill="#f7ecd2" opacity="0.57"/><circle cx="784" cy="234" r="1.3" fill="#f7ecd2" opacity="0.41"/><circle cx="320" cy="189" r="1.8" fill="#f7ecd2" opacity="0.65"/><circle cx="185" cy="143" r="1.3" fill="#f7ecd2" opacity="0.40"/><circle cx="67" cy="284" r="0.8" fill="#f7ecd2" opacity="0.63"/><circle cx="1190" cy="136" r="0.8" fill="#f7ecd2" opacity="0.75"/><circle cx="506" cy="71" r="1.3" fill="#f7ecd2" opacity="0.61"/><circle cx="1111" cy="185" r="0.8" fill="#f7ecd2" opacity="0.70"/><circle cx="1013" cy="266" r="1.3" fill="#f7ecd2" opacity="0.43"/><circle cx="1196" cy="218" r="1.3" fill="#f7ecd2" opacity="0.63"/><circle cx="292" cy="133" r="1.8" fill="#f7ecd2" opacity="0.71"/><circle cx="437" cy="267" r="1.8" fill="#f7ecd2" opacity="0.64"/><circle cx="359" cy="288" r="1.8" fill="#f7ecd2" opacity="0.77"/><circle cx="802" cy="140" r="0.8" fill="#f7ecd2" opacity="0.65"/><circle cx="878" cy="175" r="0.8" fill="#f7ecd2" opacity="0.35"/><circle cx="563" cy="329" r="1.3" fill="#f7ecd2" opacity="0.62"/><circle cx="505" cy="290" r="0.8" fill="#f7ecd2" opacity="0.35"/><circle cx="8" cy="242" r="1.3" fill="#f7ecd2" opacity="0.71"/><circle cx="1064" cy="57" r="1.8" fill="#f7ecd2" opacity="0.83"/><circle cx="289" cy="231" r="1.3" fill="#f7ecd2" opacity="0.44"/><circle cx="251" cy="132" r="1.8" fill="#f7ecd2" opacity="0.67"/><circle cx="14" cy="324" r="1.8" fill="#f7ecd2" opacity="0.71"/><circle cx="850" cy="119" r="0.8" fill="#f7ecd2" opacity="0.35"/><circle cx="815" cy="113" r="1.3" fill="#f7ecd2" opacity="0.80"/><circle cx="797" cy="294" r="1.8" fill="#f7ecd2" opacity="0.53"/><circle cx="820" cy="46" r="1.8" fill="#f7ecd2" opacity="0.55"/><circle cx="236" cy="21" r="1.8" fill="#f7ecd2" opacity="0.41"/><circle cx="941" cy="175" r="0.8" fill="#f7ecd2" opacity="0.60"/><circle cx="943" cy="296" r="0.8" fill="#f7ecd2" opacity="0.63"/><circle cx="26" cy="148" r="0.8" fill="#f7ecd2" opacity="0.83"/><circle cx="422" cy="243" r="1.8" fill="#f7ecd2" opacity="0.81"/><circle cx="980" cy="120" r="42" fill="#f6ecd0" opacity="0.95"/><circle cx="996" cy="112" r="36" fill="url(#sky)" opacity="0.92"/>
<rect x="240" y="410" width="720" height="150" fill="#12141c"/><path d="M 268 560 L 268 472 Q 300 432 332 472 L 332 560 Z" fill="#0c0e14" opacity="0.9"/><path d="M 366 560 L 366 472 Q 398 432 430 472 L 430 560 Z" fill="#0c0e14" opacity="0.9"/><path d="M 464 560 L 464 472 Q 496 432 528 472 L 528 560 Z" fill="#0c0e14" opacity="0.9"/><path d="M 562 560 L 562 472 Q 594 432 626 472 L 626 560 Z" fill="#0c0e14" opacity="0.9"/><path d="M 660 560 L 660 472 Q 692 432 724 472 L 724 560 Z" fill="#0c0e14" opacity="0.9"/><path d="M 758 560 L 758 472 Q 790 432 822 472 L 822 560 Z" fill="#0c0e14" opacity="0.9"/><path d="M 856 560 L 856 472 Q 888 432 920 472 L 920 560 Z" fill="#0c0e14" opacity="0.9"/><path d="M 450 410 C 450 265.5, 517.5 240, 600 240 C 682.5 240, 750 265.5, 750 410 Z" fill="#cf7f96"/><line x1="600" y1="240" x2="600" y2="218" stroke="#d8b45a" stroke-width="3"/><circle cx="600" cy="214" r="4.5" fill="#d8b45a"/><path d="M 600 200 a 8 8 0 1 0 6 13 a 6.4 6.4 0 1 1 -6 -13 Z" fill="#d8b45a"/><path d="M 300 410 C 300 312.25, 345.0 295, 400 295 C 455.0 295, 500 312.25, 500 410 Z" fill="#cf7f96"/><line x1="400" y1="295" x2="400" y2="273" stroke="#d8b45a" stroke-width="3"/><circle cx="400" cy="269" r="4.5" fill="#d8b45a"/><path d="M 400 255 a 8 8 0 1 0 6 13 a 6.4 6.4 0 1 1 -6 -13 Z" fill="#d8b45a"/><path d="M 700 410 C 700 312.25, 745.0 295, 800 295 C 855.0 295, 900 312.25, 900 410 Z" fill="#cf7f96"/><line x1="800" y1="295" x2="800" y2="273" stroke="#d8b45a" stroke-width="3"/><circle cx="800" cy="269" r="4.5" fill="#d8b45a"/><path d="M 800 255 a 8 8 0 1 0 6 13 a 6.4 6.4 0 1 1 -6 -13 Z" fill="#d8b45a"/><rect x="139.0" y="230" width="22" height="330" fill="#12141c"/><rect x="129.1" y="234" width="41.8" height="7" rx="3" fill="#12141c"/><path d="M 131.3 232 C 131.3 210.495, 139.715 206.7, 150 206.7 C 160.285 206.7, 168.7 210.495, 168.7 232 Z" fill="#12141c"/><line x1="150" y1="206.7" x2="150" y2="184.7" stroke="#d8b45a" stroke-width="3"/><circle cx="150" cy="180.7" r="4.5" fill="#d8b45a"/><path d="M 150 166.7 a 8 8 0 1 0 6 13 a 6.4 6.4 0 1 1 -6 -13 Z" fill="#d8b45a"/>
<rect x="0" y="560" width="1200" height="140" fill="#0c0e14"/>
<rect x="0" y="580" width="1200" height="120" fill="#152046" opacity="0.45"/><g opacity="0.35"><line x1="80" y1="600" x2="170" y2="600" stroke="#f2e6c8" stroke-width="2"/><line x1="220" y1="624" x2="310" y2="624" stroke="#f2e6c8" stroke-width="2"/><line x1="360" y1="648" x2="450" y2="648" stroke="#f2e6c8" stroke-width="2"/><line x1="500" y1="600" x2="590" y2="600" stroke="#f2e6c8" stroke-width="2"/><line x1="640" y1="624" x2="730" y2="624" stroke="#f2e6c8" stroke-width="2"/><line x1="780" y1="648" x2="870" y2="648" stroke="#f2e6c8" stroke-width="2"/><line x1="920" y1="600" x2="1010" y2="600" stroke="#f2e6c8" stroke-width="2"/><line x1="1060" y1="624" x2="1150" y2="624" stroke="#f2e6c8" stroke-width="2"/></g>
<rect x="0" y="556" width="1200" height="4" fill="#d8b45a" opacity="0.55"/>
</svg>