<svg xmlns="http://www.w3.org/2000/svg" viewBox="0 0 1200 700" role="img">
<defs>
<linearGradient id="sky" x1="0" y1="0" x2="0" y2="1">
<stop offset="0" stop-color="#0a1026"/><stop offset="0.62" stop-color="#152046"/><stop offset="1" stop-color="#2b3a6b"/>
</linearGradient>
<pattern id="g1" width="120" height="120" patternUnits="userSpaceOnUse"><polygon points="111.6,60.0 80.0,68.3 96.5,96.5 68.3,80.0 60.0,111.6 51.7,80.0 23.5,96.5 40.0,68.3 8.4,60.0 40.0,51.7 23.5,23.5 51.7,40.0 60.0,8.4 68.3,40.0 96.5,23.5 80.0,51.7" fill="none" stroke="#e8d9a8" stroke-width="1.6" opacity="0.1"/><rect x="17.4" y="17.4" width="85.2" height="85.2" fill="none" stroke="#e8d9a8" stroke-width="1.6" opacity="0.06999999999999999" transform="rotate(45 60.0 60.0)"/></pattern>
</defs>
<rect width="1200" height="700" fill="url(#sky)"/>
<rect width="1200" height="700" fill="url(#g1)"/>
<circle cx="589" cy="239" r="0.8" fill="#f7ecd2" opacity="0.56"/><circle cx="1175" cy="104" r="1.3" fill="#f7ecd2" opacity="0.35"/><circle cx="890" cy="168" r="1.8" fill="#f7ecd2" opacity="0.55"/><circle cx="622" cy="79" r="1.8" fill="#f7ecd2" opacity="0.73"/><circle cx="395" cy="241" r="0.8" fill="#f7ecd2" opacity="0.80"/><circle cx="761" cy="86" r="1.3" fill="#f7ecd2" opacity="0.81"/><circle cx="16" cy="170" r="0.8" fill="#f7ecd2" opacity="0.55"/><circle cx="968" cy="161" r="1.3" fill="#f7ecd2" opacity="0.83"/><circle cx="1001" cy="223" r="0.8" fill="#f7ecd2" opacity="0.58"/><circle cx="1147" cy="48" r="1.3" fill="#f7ecd2" opacity="0.41"/><circle cx="1142" cy="292" r="0.8" fill="#f7ecd2" opacity="0.49"/><circle cx="914" cy="83" r="1.3" fill="#f7ecd2" opacity="0.47"/><circle cx="7" cy="245" r="0.8" fill="#f7ecd2" opacity="0.50"/><circle cx="1133" cy="190" r="0.8" fill="#f7ecd2" opacity="0.55"/><circle cx="668" cy="114" r="1.8" fill="#f7ecd2" opacity="0.37"/><circle cx="460" cy="185" r="0.8" fill="#f7ecd2" opacity="0.35"/><circle cx="1013" cy="47" r="1.3" fill="#f7ecd2" opacity="0.46"/><circle cx="719" cy="172" r="0.8" fill="#f7ecd2" opacity="0.53"/><circle cx="994" cy="256" r="1.8" fill="#f7ecd2" opacity="0.49"/><circle cx="806" cy="267" r="1.8" fill="#f7ecd2" opacity="0.37"/><circle cx="419" cy="229" r="0.8" fill="#f7ecd2" opacity="0.36"/><circle cx="1105" cy="134" r="0.8" fill="#f7ecd2" opacity="0.55"/><circle cx="920" cy="238" r="0.8" fill="#f7ecd2" opacity="0.45"/><circle cx="752" cy="189" r="1.8" fill="#f7ecd2" opacity="0.63"/><circle cx="625" cy="51" r="1.3" fill="#f7ecd2" opacity="0.60"/><circle cx="1091" cy="276" r="1.8" fill="#f7ecd2" opacity="0.51"/><circle cx="446" cy="60" r="1.8" fill="#f7ecd2" opacity="0.45"/><circle cx="298" cy="291" r="1.3" fill="#f7ecd2" opacity="0.53"/><circle cx="431" cy="53" r="1.3" fill="#f7ecd2" opacity="0.78"/><circle cx="677" cy="258" r="1.8" fill="#f7ecd2" opacity="0.51"/><circle cx="772" cy="202" r="1.8" fill="#f7ecd2" opacity="0.79"/><circle cx="644" cy="33" r="1.8" fill="#f7ecd2" opacity="0.37"/><circle cx="1037" cy="35" r="1.3" fill="#f7ecd2" opacity="0.80"/><circle cx="1063" cy="220" r="1.8" fill="#f7ecd2" opacity="0.45"/><circle cx="698" cy="184" r="0.8" fill="#f7ecd2" opacity="0.67"/><circle cx="590" cy="295" r="0.8" fill="#f7ecd2" opacity="0.35"/><circle cx="43" cy="57" r="1.3" fill="#f7ecd2" opacity="0.36"/><circle cx="1049" cy="22" r="0.8" fill="#f7ecd2" opacity="0.63"/><circle cx="224" cy="6" r="1.8" fill="#f7ecd2" opacity="0.79"/><circle cx="136" cy="57" r="1.3" fill="#f7ecd2" opacity="0.37"/><circle cx="1049" cy="199" r="0.8" fill="#f7ecd2" opacity="0.36"/><circle cx="635" cy="4" r="0.8" fill="#f7ecd2" opacity="0.75"/><circle cx="550" cy="148" r="1.8" fill="#f7ecd2" opacity="0.35"/><circle cx="482" cy="139" r="0.8" fill="#f7ecd2" opacity="0.83"/><circle cx="455" cy="41" r="1.3" fill="#f7ecd2" opacity="0.40"/><circle cx="1021" cy="306" r="1.3" fill="#f7ecd2" opacity="0.61"/><circle cx="476" cy="130" r="0.8" fill="#f7ecd2" opacity="0.65"/><circle cx="428" cy="61" r="0.8" fill="#f7ecd2" opacity="0.43"/><circle cx="661" cy="203" r="0.8" fill="#f7ecd2" opacity="0.68"/><circle cx="1007" cy="108" r="1.8" fill="#f7ecd2" opacity="0.41"/><circle cx="2" cy="292" r="0.8" fill="#f7ecd2" opacity="0.69"/><circle cx="1174" cy="303" r="1.3" fill="#f7ecd2" opacity="0.57"/><circle cx="467" cy="205" r="0.8" fill="#f7ecd2" opacity="0.70"/><circle cx="593" cy="90" r="1.8" fill="#f7ecd2" opacity="0.55"/><circle cx="328" cy="94" r="1.8" fill="#f7ecd2" opacity="0.67"/><circle cx="320" cy="245" r="1.3" fill="#f7ecd2" opacity="0.35"/><circle cx="1073" cy="187" r="0.8" fill="#f7ecd2" opacity="0.36"/><circle cx="979" cy="52" r="1.8" fill="#f7ecd2" opacity="0.43"/><circle cx="254" cy="76" r="0.8" fill="#f7ecd2" opacity="0.39"/><circle cx="266" cy="167" r="1.3" fill="#f7ecd2" opacity="0.57"/><circle cx="980" cy="120" r="42" fill="#f6ecd0" opacity="0.95"/><circle cx="996" cy="112" r="36" fill="url(#sky)" opacity="0.92"/>
<rect x="240" y="410" width="720" height="150" fill="#12141c"/><path d="M 268 560 L 268 472 Q 300 432 332 472 L 332 560 Z" fill="#0c0e14" opacity="0.9"/><path d="M 366 560 L 366 472 Q 398 432 430 472 L 430 560 Z" fill="#0c0e14" opacity="0.9"/><path d="M 464 560 L 464 472 Q 496 432 528 472 L 528 560 Z" fill="#0c0e14" opacity="0.9"/><path d="M 562 560 L 562 472 Q 594 432 626 472 L 626 560 Z" fill="#0c0e14" opacity="0.9"/><path d="M 660 560 L 660 472 Q 692 432 724 472 L 724 560 Z" fill="#0c0e14" opacity="0.9"/><path d="M 758 560 L 758 472 Q 790 432 822 472 L 822 560 Z" fill="#0c0e14" opacity="0.9"/><path d="M 856 560 L 856 472 Q 888 432 920 472 L 920 560 Z" fill="#0c0e14" opacity="0.9"/><path d="M 450 410 C 450 265.5, 517.5 240, 600 240 C 682.5 240, 750 265.5, 750 410 Z" fill="#cf7f96"/><line x1="600" y1="240" x2="600" y2="218" stroke="#d8b45a" stroke-width="3"/><circle cx="600" cy="214" r="4.5" fill="#d8b45a"/><path d="M 600 200 a 8 8 0 1 0 6 13 a 6.4 6.4 0 1 1 -6 -13 Z" fill="#d8b45a"/><path d="M 300 410 C 300 312.25, 345.0 295, 400 295 C 455.0 295, 500 312.25, 500 410 Z" fill="#cf7f96"/><line x1="400" y1="295" x2="400" y2="273" stroke="#d8b45a" stroke-width="3"/><circle cx="400" cy="269" r="4.5" fill="#d8b45a"/><path d="M 400 255 a 8 8 0 1 0 6 13 a 6.4 6.4 0 1 1 -6 -13 Z" fill="#d8b45a"/><path d="M 700 410 C 700 312.25, 745.0 295, 800 295 C 855.0 295, 900 312.25, 900 410 Z" fill="#cf7f96"/><line x1="800" y1="295" x2="800" y2="273" stroke="#d8b45a" stroke-width="3"/><circle cx="800" cy="269" r="4.5" fill="#d8b45a"/><path d="M 800 255 a 8 8 0 1 0 6 13 a 6.4 6.4 0 1 1 -6 -13 Z" fill="#d8b45a"/><rect x="139.0" y="230" width="22" height="330" fill="#12141c"/><rect x="129.1" y="234" width="41.8" height="7" rx="3" fill="#12141c"/><path d="M 131.3 232 C 131.3 210.495, 139.715 206.7, 150 206.7 C 160.285 206.7, 168.7 210.495, 168.7 232 Z" fill="#12141c"/><line x1="150" y1="206.7" x2="150" y2="184.7" stroke="#d8b45a" stroke-width="3"/><circle cx="150" cy="180.7" r="4.5" fill="#d8b45a"/><path d="M 150 166.7 a 8 8 0 1 0 6 13 a 6.4 6.4 0 1 1 -6 -13 Z" fill="#d8b45a"/>
<rect x="0" y="560" width="1200" height="140" fill="#0c0e14"/>
<rect x="0" y="580" width="1200" height="120" fill="#152046" opacity="0.45"/><g opacity="0.35"><line x1="80" y1="600" x2="170" y2="600" stroke="#f2e6c8" stroke-width="2"/><line x1="220" y1="624" x2="310" y2="624" stroke="#f2e6c8" stroke-width="2"/><line x1="360" y1="648" x2="450" y2="648" stroke="#f2e6c8" stroke-width="2"/><line x1="500" y1="600" x2="590" y2="600" stroke="#f2e6c8" stroke-width="2"/><line x1="640" y1="624" x2="730" y2="624" stroke="#f2e6c8" stroke-width="2"/><line x1="780" y1="648" x2="870" y2="648" stroke="#f2e6c8" stroke-width="2"/><line x1="920" y1="600" x2="1010" y2="600" stroke="#f2e6c8" stroke-width="2"/><line x1="1060" y1="624" x2="1150" y2="624" stroke="#f2e6c8" stroke-width="2"/></g>
<rect x="0" y="556" width="1200" height="4" fill="#d8b45a" opacity="0.55"/>
</svg>