<svg xmlns="http://www.w3.org/2000/svg" viewBox="0 0 1200 700" role="img">
<defs>
<linearGradient id="sky" x1="0" y1="0" x2="0" y2="1">
<stop offset="0" stop-color="#2b2340"/><stop offset="0.62" stop-color="#6a5a8a"/><stop offset="1" stop-color="#eec98f"/>
</linearGradient>
<pattern id="g1" width="120" height="120" patternUnits="userSpaceOnUse"><polygon points="111.6,60.0 80.0,68.3 96.5,96.5 68.3,80.0 60.0,111.6 51.7,80.0 23.5,96.5 40.0,68.3 8.4,60.0 40.0,51.7 23.5,23.5 51.7,40.0 60.0,8.4 68.3,40.0 96.5,23.5 80.0,51.7" fill="none" stroke="#e8d9a8" stroke-width="1.6" opacity="0.1"/><rect x="17.4" y="17.4" width="85.2" height="85.2" fill="none" stroke="#e8d9a8" stroke-width="1.6" opacity="0.06999999999999999" transform="rotate(45 60.0 60.0)"/></pattern>
</defs>
<rect width="1200" height="700" fill="url(#sky)"/>
<rect width="1200" height="700" fill="url(#g1)"/>
<circle cx="381" cy="151" r="1.3" fill="#f7ecd2" opacity="0.66"/><circle cx="391" cy="80" r="0.8" fill="#f7ecd2" opacity="0.65"/><circle cx="58" cy="156" r="1.3" fill="#f7ecd2" opacity="0.83"/><circle cx="1086" cy="183" r="0.8" fill="#f7ecd2" opacity="0.73"/><circle cx="667" cy="13" r="1.8" fill="#f7ecd2" opacity="0.56"/><circle cx="217" cy="202" r="1.8" fill="#f7ecd2" opacity="0.69"/><circle cx="1104" cy="38" r="1.8" fill="#f7ecd2" opacity="0.37"/><circle cx="1192" cy="185" r="0.8" fill="#f7ecd2" opacity="0.55"/><circle cx="553" cy="15" r="1.3" fill="#f7ecd2" opacity="0.80"/><circle cx="843" cy="44" r="1.8" fill="#f7ecd2" opacity="0.77"/><circle cx="550" cy="40" r="1.8" fill="#f7ecd2" opacity="0.35"/><circle cx="898" cy="107" r="0.8" fill="#f7ecd2" opacity="0.71"/><circle cx="39" cy="157" r="1.3" fill="#f7ecd2" opacity="0.58"/><circle cx="1069" cy="26" r="0.8" fill="#f7ecd2" opacity="0.79"/><circle cx="796" cy="202" r="1.8" fill="#f7ecd2" opacity="0.77"/><circle cx="204" cy="169" r="1.3" fill="#f7ecd2" opacity="0.61"/><circle cx="325" cy="19" r="1.8" fill="#f7ecd2" opacity="0.60"/><circle cx="895" cy="148" r="1.8" fill="#f7ecd2" opacity="0.45"/><circle cx="642" cy="64" r="1.3" fill="#f7ecd2" opacity="0.73"/><circle cx="310" cy="171" r="1.3" fill="#f7ecd2" opacity="0.45"/><circle cx="211" cy="21" r="1.3" fill="#f7ecd2" opacity="0.66"/><circle cx="321" cy="190" r="1.3" fill="#f7ecd2" opacity="0.75"/><circle cx="88" cy="66" r="1.3" fill="#f7ecd2" opacity="0.43"/><circle cx="16" cy="93" r="1.3" fill="#f7ecd2" opacity="0.73"/><circle cx="897" cy="183" r="0.8" fill="#f7ecd2" opacity="0.36"/><circle cx="547" cy="172" r="1.8" fill="#f7ecd2" opacity="0.69"/><circle cx="334" cy="8" r="0.8" fill="#f7ecd2" opacity="0.57"/><circle cx="522" cy="175" r="1.3" fill="#f7ecd2" opacity="0.35"/><circle cx="1183" cy="45" r="1.3" fill="#f7ecd2" opacity="0.70"/><circle cx="373" cy="74" r="0.8" fill="#f7ecd2" opacity="0.37"/><circle cx="960" cy="210" r="110.00000000000001" fill="#eec98f" opacity="0.18"/><circle cx="960" cy="210" r="50" fill="#eec98f" opacity="0.9"/>
<rect x="240" y="410" width="720" height="150" fill="#12141c"/><path d="M 268 560 L 268 472 Q 300 432 332 472 L 332 560 Z" fill="#0c0e14" opacity="0.9"/><path d="M 366 560 L 366 472 Q 398 432 430 472 L 430 560 Z" fill="#0c0e14" opacity="0.9"/><path d="M 464 560 L 464 472 Q 496 432 528 472 L 528 560 Z" fill="#0c0e14" opacity="0.9"/><path d="M 562 560 L 562 472 Q 594 432 626 472 L 626 560 Z" fill="#0c0e14" opacity="0.9"/><path d="M 660 560 L 660 472 Q 692 432 724 472 L 724 560 Z" fill="#0c0e14" opacity="0.9"/><path d="M 758 560 L 758 472 Q 790 432 822 472 L 822 560 Z" fill="#0c0e14" opacity="0.9"/><path d="M 856 560 L 856 472 Q 888 432 920 472 L 920 560 Z" fill="#0c0e14" opacity="0.9"/><path d="M 410 410 C 410 282.5, 495.5 260, 600 260 C 704.5 260, 790 282.5, 790 410 Z" fill="#12141c"/><line x1="600" y1="260" x2="600" y2="238" stroke="#d8b45a" stroke-width="3"/><circle cx="600" cy="234" r="4.5" fill="#d8b45a"/><path d="M 600 220 a 8 8 0 1 0 6 13 a 6.4 6.4 0 1 1 -6 -13 Z" fill="#d8b45a"/><path d="M 345 412 C 345 347.4, 387.75 336.0, 440 336.0 C 492.25 336.0, 535 347.4, 535 412 Z" fill="#12141c"/><line x1="440" y1="336.0" x2="440" y2="314.0" stroke="#d8b45a" stroke-width="3"/><circle cx="440" cy="310.0" r="4.5" fill="#d8b45a"/><path d="M 440 296.0 a 8 8 0 1 0 6 13 a 6.4 6.4 0 1 1 -6 -13 Z" fill="#d8b45a"/><path d="M 665 412 C 665 347.4, 707.75 336.0, 760 336.0 C 812.25 336.0, 855 347.4, 855 412 Z" fill="#12141c"/><line x1="760" y1="336.0" x2="760" y2="314.0" stroke="#d8b45a" stroke-width="3"/><circle cx="760" cy="310.0" r="4.5" fill="#d8b45a"/><path d="M 760 296.0 a 8 8 0 1 0 6 13 a 6.4 6.4 0 1 1 -6 -13 Z" fill="#d8b45a"/><path d="M 270 412 C 270 371.2, 297.0 364.0, 330 364.0 C 363.0 364.0, 390 371.2, 390 412 Z" fill="#12141c"/><line x1="330" y1="364.0" x2="330" y2="342.0" stroke="#d8b45a" stroke-width="3"/><circle cx="330" cy="338.0" r="4.5" fill="#d8b45a"/><path d="M 330 324.0 a 8 8 0 1 0 6 13 a 6.4 6.4 0 1 1 -6 -13 Z" fill="#d8b45a"/><path d="M 810 412 C 810 371.2, 837.0 364.0, 870 364.0 C 903.0 364.0, 930 371.2, 930 412 Z" fill="#12141c"/><line x1="870" y1="364.0" x2="870" y2="342.0" stroke="#d8b45a" stroke-width="3"/><circle cx="870" cy="338.0" r="4.5" fill="#d8b45a"/><path d="M 870 324.0 a 8 8 0 1 0 6 13 a 6.4 6.4 0 1 1 -6 -13 Z" fill="#d8b45a"/><rect x="99.0" y="170" width="22" height="390" fill="#12141c"/><rect x="89.1" y="174" width="41.8" height="7" rx="3" fill="#12141c"/><path d="M 94.6 172 L 110 114 L 125.4 172 Z" fill="#12141c"/><rect x="224.0" y="170" width="22" height="390" fill="#12141c"/><rect x="214.1" y="174" width="41.8" height="7" rx="3" fill="#12141c"/><path d="M 219.6 172 L 235 114 L 250.4 172 Z" fill="#12141c"/><rect x="954.0" y="170" width="22" height="390" fill="#12141c"/><rect x="944.1" y="174" width="41.8" height="7" rx="3" fill="#12141c"/><path d="M 949.6 172 L 965 114 L 980.4 172 Z" fill="#12141c"/><rect x="1079.0" y="170" width="22" height="390" fill="#12141c"/><rect x="1069.1" y="174" width="41.8" height="7" rx="3" fill="#12141c"/><path d="M 1074.6 172 L 1090 114 L 1105.4 172 Z" fill="#12141c"/>
<rect x="0" y="560" width="1200" height="140" fill="#0c0e14"/>

<rect x="0" y="556" width="1200" height="4" fill="#d8b45a" opacity="0.55"/>
</svg>