<svg xmlns="http://www.w3.org/2000/svg" viewBox="0 0 1200 700" role="img">
<defs>
<linearGradient id="sky" x1="0" y1="0" x2="0" y2="1">
<stop offset="0" stop-color="#0a1026"/><stop offset="0.62" stop-color="#152046"/><stop offset="1" stop-color="#2b3a6b"/>
</linearGradient>
<pattern id="g1" width="120" height="120" patternUnits="userSpaceOnUse"><polygon points="111.6,60.0 80.0,68.3 96.5,96.5 68.3,80.0 60.0,111.6 51.7,80.0 23.5,96.5 40.0,68.3 8.4,60.0 40.0,51.7 23.5,23.5 51.7,40.0 60.0,8.4 68.3,40.0 96.5,23.5 80.0,51.7" fill="none" stroke="#e8d9a8" stroke-width="1.6" opacity="0.1"/><rect x="17.4" y="17.4" width="85.2" height="85.2" fill="none" stroke="#e8d9a8" stroke-width="1.6" opacity="0.06999999999999999" transform="rotate(45 60.0 60.0)"/></pattern>
</defs>
<rect width="1200" height="700" fill="url(#sky)"/>
<rect width="1200" height="700" fill="url(#g1)"/>
<circle cx="740" cy="160" r="0.8" fill="#f7ecd2" opacity="0.35"/><circle cx="198" cy="77" r="1.8" fill="#f7ecd2" opacity="0.81"/><circle cx="369" cy="337" r="1.3" fill="#f7ecd2" opacity="0.38"/><circle cx="989" cy="236" r="1.3" fill="#f7ecd2" opacity="0.39"/><circle cx="786" cy="122" r="1.8" fill="#f7ecd2" opacity="0.77"/><circle cx="504" cy="279" r="0.8" fill="#f7ecd2" opacity="0.51"/><circle cx="455" cy="179" r="1.3" fill="#f7ecd2" opacity="0.80"/><circle cx="615" cy="98" r="1.8" fill="#f7ecd2" opacity="0.55"/><circle cx="432" cy="264" r="0.8" fill="#f7ecd2" opacity="0.83"/><circle cx="410" cy="321" r="1.8" fill="#f7ecd2" opacity="0.45"/><circle cx="141" cy="201" r="0.8" fill="#f7ecd2" opacity="0.76"/><circle cx="1041" cy="280" r="1.3" fill="#f7ecd2" opacity="0.65"/><circle cx="878" cy="46" r="0.8" fill="#f7ecd2" opacity="0.73"/><circle cx="1116" cy="3" r="0.8" fill="#f7ecd2" opacity="0.83"/><circle cx="627" cy="203" r="1.8" fill="#f7ecd2" opacity="0.66"/><circle cx="1067" cy="302" r="1.3" fill="#f7ecd2" opacity="0.69"/><circle cx="924" cy="8" r="1.8" fill="#f7ecd2" opacity="0.77"/><circle cx="222" cy="65" r="1.8" fill="#f7ecd2" opacity="0.65"/><circle cx="713" cy="45" r="1.8" fill="#f7ecd2" opacity="0.70"/><circle cx="693" cy="164" r="1.8" fill="#f7ecd2" opacity="0.37"/><circle cx="570" cy="150" r="0.8" fill="#f7ecd2" opacity="0.35"/><circle cx="128" cy="107" r="1.3" fill="#f7ecd2" opacity="0.81"/><circle cx="399" cy="67" r="1.3" fill="#f7ecd2" opacity="0.68"/><circle cx="1119" cy="6" r="0.8" fill="#f7ecd2" opacity="0.49"/><circle cx="1016" cy="272" r="1.3" fill="#f7ecd2" opacity="0.37"/><circle cx="834" cy="129" r="0.8" fill="#f7ecd2" opacity="0.71"/><circle cx="885" cy="69" r="0.8" fill="#f7ecd2" opacity="0.50"/><circle cx="1145" cy="28" r="0.8" fill="#f7ecd2" opacity="0.45"/><circle cx="1062" cy="234" r="0.8" fill="#f7ecd2" opacity="0.43"/><circle cx="1140" cy="331" r="1.3" fill="#f7ecd2" opacity="0.75"/><circle cx="971" cy="251" r="1.3" fill="#f7ecd2" opacity="0.56"/><circle cx="771" cy="230" r="1.8" fill="#f7ecd2" opacity="0.65"/><circle cx="708" cy="36" r="0.8" fill="#f7ecd2" opacity="0.73"/><circle cx="1046" cy="33" r="1.8" fill="#f7ecd2" opacity="0.53"/><circle cx="657" cy="273" r="0.8" fill="#f7ecd2" opacity="0.46"/><circle cx="1197" cy="72" r="0.8" fill="#f7ecd2" opacity="0.69"/><circle cx="1154" cy="158" r="1.3" fill="#f7ecd2" opacity="0.67"/><circle cx="552" cy="255" r="0.8" fill="#f7ecd2" opacity="0.45"/><circle cx="1143" cy="275" r="1.8" fill="#f7ecd2" opacity="0.60"/><circle cx="23" cy="294" r="1.8" fill="#f7ecd2" opacity="0.47"/><circle cx="0" cy="320" r="1.8" fill="#f7ecd2" opacity="0.35"/><circle cx="858" cy="117" r="0.8" fill="#f7ecd2" opacity="0.71"/><circle cx="29" cy="317" r="1.3" fill="#f7ecd2" opacity="0.78"/><circle cx="849" cy="296" r="1.8" fill="#f7ecd2" opacity="0.39"/><circle cx="846" cy="262" r="1.3" fill="#f7ecd2" opacity="0.37"/><circle cx="764" cy="159" r="1.8" fill="#f7ecd2" opacity="0.61"/><circle cx="915" cy="139" r="1.3" fill="#f7ecd2" opacity="0.70"/><circle cx="75" cy="338" r="1.8" fill="#f7ecd2" opacity="0.35"/><circle cx="92" cy="244" r="0.8" fill="#f7ecd2" opacity="0.83"/><circle cx="270" cy="41" r="1.8" fill="#f7ecd2" opacity="0.55"/><circle cx="201" cy="1" r="1.3" fill="#f7ecd2" opacity="0.36"/><circle cx="101" cy="20" r="1.3" fill="#f7ecd2" opacity="0.55"/><circle cx="138" cy="206" r="1.8" fill="#f7ecd2" opacity="0.63"/><circle cx="576" cy="243" r="0.8" fill="#f7ecd2" opacity="0.53"/><circle cx="287" cy="183" r="1.8" fill="#f7ecd2" opacity="0.56"/><circle cx="927" cy="22" r="1.3" fill="#f7ecd2" opacity="0.79"/><circle cx="984" cy="148" r="1.3" fill="#f7ecd2" opacity="0.67"/><circle cx="482" cy="285" r="1.8" fill="#f7ecd2" opacity="0.55"/><circle cx="1173" cy="5" r="1.8" fill="#f7ecd2" opacity="0.50"/><circle cx="153" cy="64" r="1.3" fill="#f7ecd2" opacity="0.77"/><circle cx="980" cy="120" r="42" fill="#f6ecd0" opacity="0.95"/><circle cx="996" cy="112" r="36" fill="url(#sky)" opacity="0.92"/>
<rect x="240" y="410" width="720" height="150" fill="#12141c"/><path d="M 268 560 L 268 472 Q 300 432 332 472 L 332 560 Z" fill="#0c0e14" opacity="0.9"/><path d="M 366 560 L 366 472 Q 398 432 430 472 L 430 560 Z" fill="#0c0e14" opacity="0.9"/><path d="M 464 560 L 464 472 Q 496 432 528 472 L 528 560 Z" fill="#0c0e14" opacity="0.9"/><path d="M 562 560 L 562 472 Q 594 432 626 472 L 626 560 Z" fill="#0c0e14" opacity="0.9"/><path d="M 660 560 L 660 472 Q 692 432 724 472 L 724 560 Z" fill="#0c0e14" opacity="0.9"/><path d="M 758 560 L 758 472 Q 790 432 822 472 L 822 560 Z" fill="#0c0e14" opacity="0.9"/><path d="M 856 560 L 856 472 Q 888 432 920 472 L 920 560 Z" fill="#0c0e14" opacity="0.9"/><path d="M 410 410 C 410 282.5, 495.5 260, 600 260 C 704.5 260, 790 282.5, 790 410 Z" fill="#12141c"/><line x1="600" y1="260" x2="600" y2="238" stroke="#d8b45a" stroke-width="3"/><circle cx="600" cy="234" r="4.5" fill="#d8b45a"/><path d="M 600 220 a 8 8 0 1 0 6 13 a 6.4 6.4 0 1 1 -6 -13 Z" fill="#d8b45a"/><path d="M 345 412 C 345 347.4, 387.75 336.0, 440 336.0 C 492.25 336.0, 535 347.4, 535 412 Z" fill="#12141c"/><line x1="440" y1="336.0" x2="440" y2="314.0" stroke="#d8b45a" stroke-width="3"/><circle cx="440" cy="310.0" r="4.5" fill="#d8b45a"/><path d="M 440 296.0 a 8 8 0 1 0 6 13 a 6.4 6.4 0 1 1 -6 -13 Z" fill="#d8b45a"/><path d="M 665 412 C 665 347.4, 707.75 336.0, 760 336.0 C 812.25 336.0, 855 347.4, 855 412 Z" fill="#12141c"/><line x1="760" y1="336.0" x2="760" y2="314.0" stroke="#d8b45a" stroke-width="3"/><circle cx="760" cy="310.0" r="4.5" fill="#d8b45a"/><path d="M 760 296.0 a 8 8 0 1 0 6 13 a 6.4 6.4 0 1 1 -6 -13 Z" fill="#d8b45a"/><path d="M 270 412 C 270 371.2, 297.0 364.0, 330 364.0 C 363.0 364.0, 390 371.2, 390 412 Z" fill="#12141c"/><line x1="330" y1="364.0" x2="330" y2="342.0" stroke="#d8b45a" stroke-width="3"/><circle cx="330" cy="338.0" r="4.5" fill="#d8b45a"/><path d="M 330 324.0 a 8 8 0 1 0 6 13 a 6.4 6.4 0 1 1 -6 -13 Z" fill="#d8b45a"/><path d="M 810 412 C 810 371.2, 837.0 364.0, 870 364.0 C 903.0 364.0, 930 371.2, 930 412 Z" fill="#12141c"/><line x1="870" y1="364.0" x2="870" y2="342.0" stroke="#d8b45a" stroke-width="3"/><circle cx="870" cy="338.0" r="4.5" fill="#d8b45a"/><path d="M 870 324.0 a 8 8 0 1 0 6 13 a 6.4 6.4 0 1 1 -6 -13 Z" fill="#d8b45a"/><rect x="99.0" y="170" width="22" height="390" fill="#12141c"/><rect x="89.1" y="174" width="41.8" height="7" rx="3" fill="#12141c"/><path d="M 94.6 172 L 110 114 L 125.4 172 Z" fill="#12141c"/><rect x="224.0" y="170" width="22" height="390" fill="#12141c"/><rect x="214.1" y="174" width="41.8" height="7" rx="3" fill="#12141c"/><path d="M 219.6 172 L 235 114 L 250.4 172 Z" fill="#12141c"/><rect x="954.0" y="170" width="22" height="390" fill="#12141c"/><rect x="944.1" y="174" width="41.8" height="7" rx="3" fill="#12141c"/><path d="M 949.6 172 L 965 114 L 980.4 172 Z" fill="#12141c"/><rect x="1079.0" y="170" width="22" height="390" fill="#12141c"/><rect x="1069.1" y="174" width="41.8" height="7" rx="3" fill="#12141c"/><path d="M 1074.6 172 L 1090 114 L 1105.4 172 Z" fill="#12141c"/>
<rect x="0" y="560" width="1200" height="140" fill="#0c0e14"/>

<rect x="0" y="556" width="1200" height="4" fill="#d8b45a" opacity="0.55"/>
</svg>