<svg xmlns="http://www.w3.org/2000/svg" viewBox="0 0 1200 700" role="img">
<defs>
<linearGradient id="sky" x1="0" y1="0" x2="0" y2="1">
<stop offset="0" stop-color="#2b3a5f"/><stop offset="0.62" stop-color="#5f6fa8"/><stop offset="1" stop-color="#f4dfae"/>
</linearGradient>
<pattern id="g1" width="120" height="120" patternUnits="userSpaceOnUse"><polygon points="111.6,60.0 80.0,68.3 96.5,96.5 68.3,80.0 60.0,111.6 51.7,80.0 23.5,96.5 40.0,68.3 8.4,60.0 40.0,51.7 23.5,23.5 51.7,40.0 60.0,8.4 68.3,40.0 96.5,23.5 80.0,51.7" fill="none" stroke="#e8d9a8" stroke-width="1.6" opacity="0.1"/><rect x="17.4" y="17.4" width="85.2" height="85.2" fill="none" stroke="#e8d9a8" stroke-width="1.6" opacity="0.06999999999999999" transform="rotate(45 60.0 60.0)"/></pattern>
</defs>
<rect width="1200" height="700" fill="url(#sky)"/>
<rect width="1200" height="700" fill="url(#g1)"/>
<circle cx="732" cy="32" r="1.8" fill="#f7ecd2" opacity="0.59"/><circle cx="814" cy="213" r="1.3" fill="#f7ecd2" opacity="0.67"/><circle cx="937" cy="125" r="0.8" fill="#f7ecd2" opacity="0.60"/><circle cx="453" cy="140" r="1.8" fill="#f7ecd2" opacity="0.55"/><circle cx="58" cy="54" r="1.3" fill="#f7ecd2" opacity="0.67"/><circle cx="160" cy="195" r="1.3" fill="#f7ecd2" opacity="0.35"/><circle cx="543" cy="27" r="0.8" fill="#f7ecd2" opacity="0.46"/><circle cx="1039" cy="62" r="0.8" fill="#f7ecd2" opacity="0.53"/><circle cx="184" cy="16" r="1.8" fill="#f7ecd2" opacity="0.79"/><circle cx="306" cy="117" r="0.8" fill="#f7ecd2" opacity="0.37"/><circle cx="949" cy="89" r="0.8" fill="#f7ecd2" opacity="0.46"/><circle cx="25" cy="104" r="0.8" fill="#f7ecd2" opacity="0.35"/><circle cx="1110" cy="138" r="0.8" fill="#f7ecd2" opacity="0.65"/><circle cx="52" cy="179" r="0.8" fill="#f7ecd2" opacity="0.43"/><circle cx="955" cy="71" r="0.8" fill="#f7ecd2" opacity="0.40"/><circle cx="1011" cy="106" r="1.3" fill="#f7ecd2" opacity="0.51"/><circle cx="436" cy="160" r="1.8" fill="#f7ecd2" opacity="0.45"/><circle cx="598" cy="181" r="1.8" fill="#f7ecd2" opacity="0.73"/><circle cx="561" cy="193" r="1.3" fill="#f7ecd2" opacity="0.58"/><circle cx="397" cy="8" r="0.8" fill="#f7ecd2" opacity="0.61"/><circle cx="562" cy="122" r="0.8" fill="#f7ecd2" opacity="0.49"/><circle cx="744" cy="103" r="1.3" fill="#f7ecd2" opacity="0.67"/><circle cx="967" cy="35" r="0.8" fill="#f7ecd2" opacity="0.80"/><circle cx="583" cy="70" r="1.8" fill="#f7ecd2" opacity="0.45"/><circle cx="288" cy="4" r="1.3" fill="#f7ecd2" opacity="0.37"/><circle cx="490" cy="165" r="1.3" fill="#f7ecd2" opacity="0.35"/><circle cx="973" cy="17" r="0.8" fill="#f7ecd2" opacity="0.76"/><circle cx="369" cy="52" r="1.3" fill="#f7ecd2" opacity="0.73"/><circle cx="814" cy="46" r="1.8" fill="#f7ecd2" opacity="0.79"/><circle cx="1036" cy="167" r="0.8" fill="#f7ecd2" opacity="0.47"/><circle cx="960" cy="210" r="110.00000000000001" fill="#f4dfae" opacity="0.18"/><circle cx="960" cy="210" r="50" fill="#f4dfae" opacity="0.9"/>
<rect x="330" y="370" width="540" height="190" fill="#12141c"/><path d="M 500 560 L 500 300 Q 600 230 700 300 L 700 560 Z" fill="#12141c"/><path d="M 528 560 L 528 320 Q 600 264 672 320 L 672 560 Z" fill="#0c0e14"/><path d="M 552 560 L 552 344 Q 600 298 648 344 L 648 560 Z" fill="#d8b45a" opacity="0.4"/><path d="M 430 310 C 430 177.06, 506.5 153.6, 600 153.6 C 693.5 153.6, 770 177.06, 770 310 Z" fill="#d9b98a"/><line x1="600" y1="153.6" x2="600" y2="131.6" stroke="#d8b45a" stroke-width="3"/><circle cx="600" cy="127.6" r="4.5" fill="#d8b45a"/><path d="M 600 113.6 a 8 8 0 1 0 6 13 a 6.4 6.4 0 1 1 -6 -13 Z" fill="#d8b45a"/>
<rect x="0" y="560" width="1200" height="140" fill="#0c0e14"/>

<rect x="0" y="556" width="1200" height="4" fill="#d8b45a" opacity="0.55"/>
</svg>