<svg xmlns="http://www.w3.org/2000/svg" viewBox="0 0 1200 700" role="img">
<defs>
<linearGradient id="sky" x1="0" y1="0" x2="0" y2="1">
<stop offset="0" stop-color="#2b3a5f"/><stop offset="0.62" stop-color="#5f6fa8"/><stop offset="1" stop-color="#f4dfae"/>
</linearGradient>
<pattern id="g1" width="120" height="120" patternUnits="userSpaceOnUse"><polygon points="111.6,60.0 80.0,68.3 96.5,96.5 68.3,80.0 60.0,111.6 51.7,80.0 23.5,96.5 40.0,68.3 8.4,60.0 40.0,51.7 23.5,23.5 51.7,40.0 60.0,8.4 68.3,40.0 96.5,23.5 80.0,51.7" fill="none" stroke="#e8d9a8" stroke-width="1.6" opacity="0.1"/><rect x="17.4" y="17.4" width="85.2" height="85.2" fill="none" stroke="#e8d9a8" stroke-width="1.6" opacity="0.06999999999999999" transform="rotate(45 60.0 60.0)"/></pattern>
</defs>
<rect width="1200" height="700" fill="url(#sky)"/>
<rect width="1200" height="700" fill="url(#g1)"/>
<circle cx="28" cy="208" r="1.8" fill="#f7ecd2" opacity="0.59"/><circle cx="1022" cy="61" r="0.8" fill="#f7ecd2" opacity="0.77"/><circle cx="521" cy="209" r="1.3" fill="#f7ecd2" opacity="0.74"/><circle cx="85" cy="172" r="1.8" fill="#f7ecd2" opacity="0.55"/><circle cx="794" cy="210" r="1.8" fill="#f7ecd2" opacity="0.75"/><circle cx="1088" cy="143" r="1.3" fill="#f7ecd2" opacity="0.69"/><circle cx="1087" cy="171" r="1.3" fill="#f7ecd2" opacity="0.62"/><circle cx="1151" cy="14" r="1.3" fill="#f7ecd2" opacity="0.49"/><circle cx="1160" cy="132" r="1.8" fill="#f7ecd2" opacity="0.55"/><circle cx="754" cy="145" r="1.8" fill="#f7ecd2" opacity="0.65"/><circle cx="53" cy="33" r="1.8" fill="#f7ecd2" opacity="0.84"/><circle cx="617" cy="196" r="0.8" fill="#f7ecd2" opacity="0.67"/><circle cx="1126" cy="194" r="0.8" fill="#f7ecd2" opacity="0.79"/><circle cx="20" cy="67" r="0.8" fill="#f7ecd2" opacity="0.75"/><circle cx="1019" cy="75" r="1.8" fill="#f7ecd2" opacity="0.60"/><circle cx="883" cy="98" r="0.8" fill="#f7ecd2" opacity="0.69"/><circle cx="692" cy="176" r="1.3" fill="#f7ecd2" opacity="0.77"/><circle cx="86" cy="149" r="1.3" fill="#f7ecd2" opacity="0.49"/><circle cx="385" cy="17" r="0.8" fill="#f7ecd2" opacity="0.80"/><circle cx="749" cy="140" r="1.3" fill="#f7ecd2" opacity="0.45"/><circle cx="1058" cy="98" r="1.3" fill="#f7ecd2" opacity="0.69"/><circle cx="952" cy="171" r="1.3" fill="#f7ecd2" opacity="0.77"/><circle cx="551" cy="119" r="1.3" fill="#f7ecd2" opacity="0.54"/><circle cx="215" cy="102" r="1.8" fill="#f7ecd2" opacity="0.65"/><circle cx="1024" cy="160" r="1.8" fill="#f7ecd2" opacity="0.75"/><circle cx="218" cy="93" r="1.8" fill="#f7ecd2" opacity="0.59"/><circle cx="317" cy="141" r="1.8" fill="#f7ecd2" opacity="0.82"/><circle cx="481" cy="4" r="1.8" fill="#f7ecd2" opacity="0.59"/><circle cx="590" cy="142" r="0.8" fill="#f7ecd2" opacity="0.65"/><circle cx="284" cy="175" r="0.8" fill="#f7ecd2" opacity="0.35"/><circle cx="960" cy="210" r="110.00000000000001" fill="#f4dfae" opacity="0.18"/><circle cx="960" cy="210" r="50" fill="#f4dfae" opacity="0.9"/>
<rect x="330" y="370" width="540" height="190" fill="#12141c"/><path d="M 500 560 L 500 300 Q 600 230 700 300 L 700 560 Z" fill="#12141c"/><path d="M 528 560 L 528 320 Q 600 264 672 320 L 672 560 Z" fill="#0c0e14"/><path d="M 552 560 L 552 344 Q 600 298 648 344 L 648 560 Z" fill="#d8b45a" opacity="0.4"/><path d="M 430 310 C 430 177.06, 506.5 153.6, 600 153.6 C 693.5 153.6, 770 177.06, 770 310 Z" fill="#d9b98a"/><line x1="600" y1="153.6" x2="600" y2="131.6" stroke="#d8b45a" stroke-width="3"/><circle cx="600" cy="127.6" r="4.5" fill="#d8b45a"/><path d="M 600 113.6 a 8 8 0 1 0 6 13 a 6.4 6.4 0 1 1 -6 -13 Z" fill="#d8b45a"/>
<rect x="0" y="560" width="1200" height="140" fill="#0c0e14"/>

<rect x="0" y="556" width="1200" height="4" fill="#d8b45a" opacity="0.55"/>
</svg>