<svg xmlns="http://www.w3.org/2000/svg" viewBox="0 0 1200 700" role="img">
<defs>
<linearGradient id="sky" x1="0" y1="0" x2="0" y2="1">
<stop offset="0" stop-color="#2b3a5f"/><stop offset="0.62" stop-color="#5f6fa8"/><stop offset="1" stop-color="#f4dfae"/>
</linearGradient>
<pattern id="g1" width="120" height="120" patternUnits="userSpaceOnUse"><polygon points="111.6,60.0 80.0,68.3 96.5,96.5 68.3,80.0 60.0,111.6 51.7,80.0 23.5,96.5 40.0,68.3 8.4,60.0 40.0,51.7 23.5,23.5 51.7,40.0 60.0,8.4 68.3,40.0 96.5,23.5 80.0,51.7" fill="none" stroke="#e8d9a8" stroke-width="1.6" opacity="0.1"/><rect x="17.4" y="17.4" width="85.2" height="85.2" fill="none" stroke="#e8d9a8" stroke-width="1.6" opacity="0.06999999999999999" transform="rotate(45 60.0 60.0)"/></pattern>
</defs>
<rect width="1200" height="700" fill="url(#sky)"/>
<rect width="1200" height="700" fill="url(#g1)"/>
<circle cx="1197" cy="147" r="0.8" fill="#f7ecd2" opacity="0.44"/><circle cx="1159" cy="128" r="0.8" fill="#f7ecd2" opacity="0.37"/><circle cx="922" cy="100" r="1.8" fill="#f7ecd2" opacity="0.35"/><circle cx="558" cy="95" r="1.8" fill="#f7ecd2" opacity="0.45"/><circle cx="523" cy="169" r="1.8" fill="#f7ecd2" opacity="0.72"/><circle cx="505" cy="110" r="0.8" fill="#f7ecd2" opacity="0.35"/><circle cx="528" cy="2" r="1.8" fill="#f7ecd2" opacity="0.41"/><circle cx="1144" cy="17" r="0.8" fill="#f7ecd2" opacity="0.83"/><circle cx="649" cy="131" r="0.8" fill="#f7ecd2" opacity="0.54"/><circle cx="651" cy="32" r="1.8" fill="#f7ecd2" opacity="0.67"/><circle cx="934" cy="64" r="1.8" fill="#f7ecd2" opacity="0.61"/><circle cx="130" cy="59" r="0.8" fill="#f7ecd2" opacity="0.55"/><circle cx="375" cy="13" r="1.3" fill="#f7ecd2" opacity="0.60"/><circle cx="397" cy="94" r="1.8" fill="#f7ecd2" opacity="0.53"/><circle cx="940" cy="46" r="1.8" fill="#f7ecd2" opacity="0.75"/><circle cx="1116" cy="61" r="1.3" fill="#f7ecd2" opacity="0.61"/><circle cx="901" cy="55" r="1.8" fill="#f7ecd2" opacity="0.40"/><circle cx="943" cy="96" r="1.3" fill="#f7ecd2" opacity="0.63"/><circle cx="546" cy="168" r="0.8" fill="#f7ecd2" opacity="0.63"/><circle cx="502" cy="183" r="1.3" fill="#f7ecd2" opacity="0.51"/><circle cx="1027" cy="17" r="0.8" fill="#f7ecd2" opacity="0.44"/><circle cx="1089" cy="18" r="0.8" fill="#f7ecd2" opacity="0.37"/><circle cx="952" cy="10" r="1.8" fill="#f7ecd2" opacity="0.55"/><circle cx="688" cy="25" r="1.8" fill="#f7ecd2" opacity="0.35"/><circle cx="753" cy="119" r="1.8" fill="#f7ecd2" opacity="0.42"/><circle cx="835" cy="80" r="0.8" fill="#f7ecd2" opacity="0.35"/><circle cx="958" cy="212" r="0.8" fill="#f7ecd2" opacity="0.81"/><circle cx="474" cy="7" r="1.3" fill="#f7ecd2" opacity="0.53"/><circle cx="79" cy="141" r="1.3" fill="#f7ecd2" opacity="0.74"/><circle cx="181" cy="62" r="0.8" fill="#f7ecd2" opacity="0.57"/><circle cx="960" cy="210" r="110.00000000000001" fill="#f4dfae" opacity="0.18"/><circle cx="960" cy="210" r="50" fill="#f4dfae" opacity="0.9"/>
<rect x="330" y="370" width="540" height="190" fill="#12141c"/><path d="M 500 560 L 500 300 Q 600 230 700 300 L 700 560 Z" fill="#12141c"/><path d="M 528 560 L 528 320 Q 600 264 672 320 L 672 560 Z" fill="#0c0e14"/><path d="M 552 560 L 552 344 Q 600 298 648 344 L 648 560 Z" fill="#d8b45a" opacity="0.4"/><path d="M 430 310 C 430 177.06, 506.5 153.6, 600 153.6 C 693.5 153.6, 770 177.06, 770 310 Z" fill="#d9b98a"/><line x1="600" y1="153.6" x2="600" y2="131.6" stroke="#d8b45a" stroke-width="3"/><circle cx="600" cy="127.6" r="4.5" fill="#d8b45a"/><path d="M 600 113.6 a 8 8 0 1 0 6 13 a 6.4 6.4 0 1 1 -6 -13 Z" fill="#d8b45a"/>
<rect x="0" y="560" width="1200" height="140" fill="#0c0e14"/>

<rect x="0" y="556" width="1200" height="4" fill="#d8b45a" opacity="0.55"/>
</svg>