<svg xmlns="http://www.w3.org/2000/svg" viewBox="0 0 1200 700" role="img">
<defs>
<linearGradient id="sky" x1="0" y1="0" x2="0" y2="1">
<stop offset="0" stop-color="#2b3a5f"/><stop offset="0.62" stop-color="#5f6fa8"/><stop offset="1" stop-color="#f4dfae"/>
</linearGradient>
<pattern id="g1" width="120" height="120" patternUnits="userSpaceOnUse"><polygon points="111.6,60.0 80.0,68.3 96.5,96.5 68.3,80.0 60.0,111.6 51.7,80.0 23.5,96.5 40.0,68.3 8.4,60.0 40.0,51.7 23.5,23.5 51.7,40.0 60.0,8.4 68.3,40.0 96.5,23.5 80.0,51.7" fill="none" stroke="#e8d9a8" stroke-width="1.6" opacity="0.1"/><rect x="17.4" y="17.4" width="85.2" height="85.2" fill="none" stroke="#e8d9a8" stroke-width="1.6" opacity="0.06999999999999999" transform="rotate(45 60.0 60.0)"/></pattern>
</defs>
<rect width="1200" height="700" fill="url(#sky)"/>
<rect width="1200" height="700" fill="url(#g1)"/>
<circle cx="1183" cy="153" r="1.3" fill="#f7ecd2" opacity="0.84"/><circle cx="137" cy="126" r="1.8" fill="#f7ecd2" opacity="0.47"/><circle cx="716" cy="94" r="0.8" fill="#f7ecd2" opacity="0.39"/><circle cx="1120" cy="137" r="0.8" fill="#f7ecd2" opacity="0.75"/><circle cx="749" cy="135" r="1.8" fill="#f7ecd2" opacity="0.50"/><circle cx="203" cy="208" r="0.8" fill="#f7ecd2" opacity="0.59"/><circle cx="82" cy="36" r="1.3" fill="#f7ecd2" opacity="0.37"/><circle cx="986" cy="179" r="1.3" fill="#f7ecd2" opacity="0.79"/><circle cx="1115" cy="57" r="1.8" fill="#f7ecd2" opacity="0.40"/><circle cx="1069" cy="10" r="1.8" fill="#f7ecd2" opacity="0.75"/><circle cx="248" cy="138" r="1.8" fill="#f7ecd2" opacity="0.59"/><circle cx="452" cy="141" r="1.8" fill="#f7ecd2" opacity="0.67"/><circle cx="1081" cy="119" r="0.8" fill="#f7ecd2" opacity="0.74"/><circle cx="335" cy="152" r="1.3" fill="#f7ecd2" opacity="0.55"/><circle cx="14" cy="160" r="0.8" fill="#f7ecd2" opacity="0.75"/><circle cx="718" cy="43" r="1.8" fill="#f7ecd2" opacity="0.59"/><circle cx="647" cy="101" r="1.3" fill="#f7ecd2" opacity="0.82"/><circle cx="401" cy="14" r="1.3" fill="#f7ecd2" opacity="0.49"/><circle cx="580" cy="122" r="0.8" fill="#f7ecd2" opacity="0.45"/><circle cx="584" cy="85" r="0.8" fill="#f7ecd2" opacity="0.75"/><circle cx="1013" cy="23" r="1.3" fill="#f7ecd2" opacity="0.84"/><circle cx="67" cy="16" r="1.8" fill="#f7ecd2" opacity="0.57"/><circle cx="746" cy="4" r="0.8" fill="#f7ecd2" opacity="0.69"/><circle cx="50" cy="47" r="1.3" fill="#f7ecd2" opacity="0.35"/><circle cx="979" cy="85" r="1.8" fill="#f7ecd2" opacity="0.50"/><circle cx="533" cy="178" r="0.8" fill="#f7ecd2" opacity="0.59"/><circle cx="512" cy="26" r="1.3" fill="#f7ecd2" opacity="0.47"/><circle cx="316" cy="169" r="1.8" fill="#f7ecd2" opacity="0.39"/><circle cx="545" cy="67" r="0.8" fill="#f7ecd2" opacity="0.50"/><circle cx="599" cy="40" r="0.8" fill="#f7ecd2" opacity="0.45"/><circle cx="960" cy="210" r="110.00000000000001" fill="#f4dfae" opacity="0.18"/><circle cx="960" cy="210" r="50" fill="#f4dfae" opacity="0.9"/>
<rect x="330" y="370" width="540" height="190" fill="#12141c"/><path d="M 500 560 L 500 300 Q 600 230 700 300 L 700 560 Z" fill="#12141c"/><path d="M 528 560 L 528 320 Q 600 264 672 320 L 672 560 Z" fill="#0c0e14"/><path d="M 552 560 L 552 344 Q 600 298 648 344 L 648 560 Z" fill="#d8b45a" opacity="0.4"/><path d="M 430 310 C 430 177.06, 506.5 153.6, 600 153.6 C 693.5 153.6, 770 177.06, 770 310 Z" fill="#d9b98a"/><line x1="600" y1="153.6" x2="600" y2="131.6" stroke="#d8b45a" stroke-width="3"/><circle cx="600" cy="127.6" r="4.5" fill="#d8b45a"/><path d="M 600 113.6 a 8 8 0 1 0 6 13 a 6.4 6.4 0 1 1 -6 -13 Z" fill="#d8b45a"/>
<rect x="0" y="560" width="1200" height="140" fill="#0c0e14"/>

<rect x="0" y="556" width="1200" height="4" fill="#d8b45a" opacity="0.55"/>
</svg>