<svg xmlns="http://www.w3.org/2000/svg" viewBox="0 0 1200 700" role="img">
<defs>
<linearGradient id="sky" x1="0" y1="0" x2="0" y2="1">
<stop offset="0" stop-color="#0a1026"/><stop offset="0.62" stop-color="#152046"/><stop offset="1" stop-color="#2b3a6b"/>
</linearGradient>
<pattern id="g1" width="120" height="120" patternUnits="userSpaceOnUse"><polygon points="111.6,60.0 80.0,68.3 96.5,96.5 68.3,80.0 60.0,111.6 51.7,80.0 23.5,96.5 40.0,68.3 8.4,60.0 40.0,51.7 23.5,23.5 51.7,40.0 60.0,8.4 68.3,40.0 96.5,23.5 80.0,51.7" fill="none" stroke="#e8d9a8" stroke-width="1.6" opacity="0.1"/><rect x="17.4" y="17.4" width="85.2" height="85.2" fill="none" stroke="#e8d9a8" stroke-width="1.6" opacity="0.06999999999999999" transform="rotate(45 60.0 60.0)"/></pattern>
</defs>
<rect width="1200" height="700" fill="url(#sky)"/>
<rect width="1200" height="700" fill="url(#g1)"/>
<circle cx="353" cy="63" r="1.8" fill="#f7ecd2" opacity="0.74"/><circle cx="747" cy="96" r="0.8" fill="#f7ecd2" opacity="0.47"/><circle cx="846" cy="164" r="1.8" fill="#f7ecd2" opacity="0.79"/><circle cx="1010" cy="207" r="1.8" fill="#f7ecd2" opacity="0.55"/><circle cx="1119" cy="245" r="1.8" fill="#f7ecd2" opacity="0.40"/><circle cx="813" cy="338" r="1.8" fill="#f7ecd2" opacity="0.79"/><circle cx="212" cy="126" r="1.8" fill="#f7ecd2" opacity="0.47"/><circle cx="876" cy="29" r="1.8" fill="#f7ecd2" opacity="0.39"/><circle cx="285" cy="127" r="1.3" fill="#f7ecd2" opacity="0.80"/><circle cx="479" cy="80" r="1.3" fill="#f7ecd2" opacity="0.55"/><circle cx="378" cy="68" r="1.8" fill="#f7ecd2" opacity="0.39"/><circle cx="342" cy="31" r="1.3" fill="#f7ecd2" opacity="0.37"/><circle cx="251" cy="329" r="1.3" fill="#f7ecd2" opacity="0.64"/><circle cx="945" cy="142" r="1.3" fill="#f7ecd2" opacity="0.75"/><circle cx="144" cy="190" r="1.3" fill="#f7ecd2" opacity="0.45"/><circle cx="608" cy="13" r="0.8" fill="#f7ecd2" opacity="0.39"/><circle cx="1017" cy="171" r="0.8" fill="#f7ecd2" opacity="0.42"/><circle cx="1011" cy="44" r="1.8" fill="#f7ecd2" opacity="0.69"/><circle cx="710" cy="292" r="0.8" fill="#f7ecd2" opacity="0.55"/><circle cx="474" cy="175" r="1.3" fill="#f7ecd2" opacity="0.35"/><circle cx="183" cy="53" r="1.8" fill="#f7ecd2" opacity="0.84"/><circle cx="677" cy="126" r="1.8" fill="#f7ecd2" opacity="0.37"/><circle cx="876" cy="234" r="0.8" fill="#f7ecd2" opacity="0.69"/><circle cx="1140" cy="317" r="1.8" fill="#f7ecd2" opacity="0.65"/><circle cx="149" cy="255" r="1.8" fill="#f7ecd2" opacity="0.80"/><circle cx="1143" cy="188" r="1.8" fill="#f7ecd2" opacity="0.69"/><circle cx="642" cy="16" r="1.3" fill="#f7ecd2" opacity="0.57"/><circle cx="206" cy="159" r="1.8" fill="#f7ecd2" opacity="0.39"/><circle cx="915" cy="97" r="1.3" fill="#f7ecd2" opacity="0.40"/><circle cx="9" cy="290" r="1.8" fill="#f7ecd2" opacity="0.45"/><circle cx="8" cy="318" r="1.8" fill="#f7ecd2" opacity="0.79"/><circle cx="72" cy="321" r="0.8" fill="#f7ecd2" opacity="0.47"/><circle cx="81" cy="319" r="1.3" fill="#f7ecd2" opacity="0.74"/><circle cx="875" cy="172" r="0.8" fill="#f7ecd2" opacity="0.35"/><circle cx="174" cy="260" r="1.8" fill="#f7ecd2" opacity="0.75"/><circle cx="738" cy="123" r="0.8" fill="#f7ecd2" opacity="0.59"/><circle cx="47" cy="181" r="0.8" fill="#f7ecd2" opacity="0.42"/><circle cx="141" cy="94" r="1.3" fill="#f7ecd2" opacity="0.39"/><circle cx="1140" cy="182" r="1.8" fill="#f7ecd2" opacity="0.65"/><circle cx="1004" cy="105" r="1.8" fill="#f7ecd2" opacity="0.55"/><circle cx="813" cy="23" r="1.8" fill="#f7ecd2" opacity="0.84"/><circle cx="207" cy="336" r="0.8" fill="#f7ecd2" opacity="0.37"/><circle cx="506" cy="144" r="1.8" fill="#f7ecd2" opacity="0.49"/><circle cx="870" cy="267" r="0.8" fill="#f7ecd2" opacity="0.75"/><circle cx="1179" cy="45" r="0.8" fill="#f7ecd2" opacity="0.40"/><circle cx="1073" cy="218" r="1.3" fill="#f7ecd2" opacity="0.49"/><circle cx="672" cy="86" r="1.8" fill="#f7ecd2" opacity="0.77"/><circle cx="336" cy="269" r="1.8" fill="#f7ecd2" opacity="0.69"/><circle cx="1145" cy="247" r="0.8" fill="#f7ecd2" opacity="0.50"/><circle cx="339" cy="140" r="1.8" fill="#f7ecd2" opacity="0.45"/><circle cx="438" cy="208" r="1.3" fill="#f7ecd2" opacity="0.39"/><circle cx="602" cy="251" r="1.3" fill="#f7ecd2" opacity="0.37"/><circle cx="711" cy="289" r="1.3" fill="#f7ecd2" opacity="0.64"/><circle cx="405" cy="42" r="0.8" fill="#f7ecd2" opacity="0.45"/><circle cx="1004" cy="310" r="0.8" fill="#f7ecd2" opacity="0.75"/><circle cx="468" cy="73" r="1.3" fill="#f7ecd2" opacity="0.49"/><circle cx="1077" cy="311" r="1.8" fill="#f7ecd2" opacity="0.82"/><circle cx="71" cy="124" r="0.8" fill="#f7ecd2" opacity="0.39"/><circle cx="1170" cy="252" r="0.8" fill="#f7ecd2" opacity="0.75"/><circle cx="1134" cy="215" r="1.8" fill="#f7ecd2" opacity="0.45"/><circle cx="980" cy="120" r="42" fill="#f6ecd0" opacity="0.95"/><circle cx="996" cy="112" r="36" fill="url(#sky)" opacity="0.92"/>
<rect x="330" y="370" width="540" height="190" fill="#12141c"/><path d="M 500 560 L 500 300 Q 600 230 700 300 L 700 560 Z" fill="#12141c"/><path d="M 528 560 L 528 320 Q 600 264 672 320 L 672 560 Z" fill="#0c0e14"/><path d="M 552 560 L 552 344 Q 600 298 648 344 L 648 560 Z" fill="#d8b45a" opacity="0.4"/><path d="M 430 310 C 430 177.06, 506.5 153.6, 600 153.6 C 693.5 153.6, 770 177.06, 770 310 Z" fill="#d9b98a"/><line x1="600" y1="153.6" x2="600" y2="131.6" stroke="#d8b45a" stroke-width="3"/><circle cx="600" cy="127.6" r="4.5" fill="#d8b45a"/><path d="M 600 113.6 a 8 8 0 1 0 6 13 a 6.4 6.4 0 1 1 -6 -13 Z" fill="#d8b45a"/>
<rect x="0" y="560" width="1200" height="140" fill="#0c0e14"/>

<rect x="0" y="556" width="1200" height="4" fill="#d8b45a" opacity="0.55"/>
</svg>