<svg xmlns="http://www.w3.org/2000/svg" viewBox="0 0 1200 700" role="img">
<defs>
<linearGradient id="sky" x1="0" y1="0" x2="0" y2="1">
<stop offset="0" stop-color="#0a1026"/><stop offset="0.62" stop-color="#152046"/><stop offset="1" stop-color="#2b3a6b"/>
</linearGradient>
<pattern id="g1" width="120" height="120" patternUnits="userSpaceOnUse"><polygon points="111.6,60.0 80.0,68.3 96.5,96.5 68.3,80.0 60.0,111.6 51.7,80.0 23.5,96.5 40.0,68.3 8.4,60.0 40.0,51.7 23.5,23.5 51.7,40.0 60.0,8.4 68.3,40.0 96.5,23.5 80.0,51.7" fill="none" stroke="#e8d9a8" stroke-width="1.6" opacity="0.1"/><rect x="17.4" y="17.4" width="85.2" height="85.2" fill="none" stroke="#e8d9a8" stroke-width="1.6" opacity="0.06999999999999999" transform="rotate(45 60.0 60.0)"/></pattern>
</defs>
<rect width="1200" height="700" fill="url(#sky)"/>
<rect width="1200" height="700" fill="url(#g1)"/>
<circle cx="1183" cy="293" r="0.8" fill="#f7ecd2" opacity="0.54"/><circle cx="137" cy="226" r="0.8" fill="#f7ecd2" opacity="0.47"/><circle cx="716" cy="214" r="0.8" fill="#f7ecd2" opacity="0.59"/><circle cx="1120" cy="217" r="1.8" fill="#f7ecd2" opacity="0.75"/><circle cx="749" cy="335" r="1.3" fill="#f7ecd2" opacity="0.50"/><circle cx="203" cy="128" r="1.3" fill="#f7ecd2" opacity="0.69"/><circle cx="82" cy="176" r="0.8" fill="#f7ecd2" opacity="0.67"/><circle cx="986" cy="39" r="1.8" fill="#f7ecd2" opacity="0.39"/><circle cx="1115" cy="17" r="1.3" fill="#f7ecd2" opacity="0.40"/><circle cx="1069" cy="10" r="1.8" fill="#f7ecd2" opacity="0.75"/><circle cx="248" cy="118" r="0.8" fill="#f7ecd2" opacity="0.49"/><circle cx="452" cy="41" r="1.3" fill="#f7ecd2" opacity="0.67"/><circle cx="1081" cy="219" r="1.3" fill="#f7ecd2" opacity="0.74"/><circle cx="335" cy="272" r="1.3" fill="#f7ecd2" opacity="0.55"/><circle cx="14" cy="240" r="1.8" fill="#f7ecd2" opacity="0.45"/><circle cx="718" cy="23" r="0.8" fill="#f7ecd2" opacity="0.49"/><circle cx="647" cy="261" r="1.8" fill="#f7ecd2" opacity="0.52"/><circle cx="401" cy="174" r="1.8" fill="#f7ecd2" opacity="0.59"/><circle cx="580" cy="2" r="0.8" fill="#f7ecd2" opacity="0.45"/><circle cx="584" cy="185" r="1.3" fill="#f7ecd2" opacity="0.75"/><circle cx="1013" cy="283" r="0.8" fill="#f7ecd2" opacity="0.64"/><circle cx="67" cy="256" r="1.8" fill="#f7ecd2" opacity="0.37"/><circle cx="746" cy="284" r="1.3" fill="#f7ecd2" opacity="0.49"/><circle cx="50" cy="187" r="0.8" fill="#f7ecd2" opacity="0.35"/><circle cx="979" cy="145" r="1.8" fill="#f7ecd2" opacity="0.40"/><circle cx="533" cy="318" r="1.8" fill="#f7ecd2" opacity="0.79"/><circle cx="512" cy="66" r="1.8" fill="#f7ecd2" opacity="0.77"/><circle cx="316" cy="169" r="1.8" fill="#f7ecd2" opacity="0.39"/><circle cx="545" cy="187" r="0.8" fill="#f7ecd2" opacity="0.50"/><circle cx="599" cy="220" r="0.8" fill="#f7ecd2" opacity="0.65"/><circle cx="1078" cy="168" r="1.3" fill="#f7ecd2" opacity="0.39"/><circle cx="182" cy="331" r="0.8" fill="#f7ecd2" opacity="0.77"/><circle cx="911" cy="209" r="1.3" fill="#f7ecd2" opacity="0.84"/><circle cx="265" cy="302" r="0.8" fill="#f7ecd2" opacity="0.65"/><circle cx="44" cy="310" r="0.8" fill="#f7ecd2" opacity="0.75"/><circle cx="848" cy="133" r="0.8" fill="#f7ecd2" opacity="0.69"/><circle cx="877" cy="71" r="0.8" fill="#f7ecd2" opacity="0.52"/><circle cx="731" cy="24" r="1.8" fill="#f7ecd2" opacity="0.79"/><circle cx="1010" cy="232" r="0.8" fill="#f7ecd2" opacity="0.55"/><circle cx="1114" cy="115" r="1.8" fill="#f7ecd2" opacity="0.45"/><circle cx="443" cy="113" r="1.3" fill="#f7ecd2" opacity="0.44"/><circle cx="797" cy="266" r="1.3" fill="#f7ecd2" opacity="0.37"/><circle cx="376" cy="194" r="0.8" fill="#f7ecd2" opacity="0.79"/><circle cx="980" cy="277" r="0.8" fill="#f7ecd2" opacity="0.45"/><circle cx="809" cy="135" r="1.8" fill="#f7ecd2" opacity="0.50"/><circle cx="463" cy="8" r="0.8" fill="#f7ecd2" opacity="0.39"/><circle cx="542" cy="136" r="0.8" fill="#f7ecd2" opacity="0.47"/><circle cx="446" cy="279" r="1.8" fill="#f7ecd2" opacity="0.69"/><circle cx="775" cy="337" r="1.8" fill="#f7ecd2" opacity="0.60"/><circle cx="929" cy="70" r="0.8" fill="#f7ecd2" opacity="0.65"/><circle cx="308" cy="258" r="1.8" fill="#f7ecd2" opacity="0.49"/><circle cx="712" cy="261" r="1.3" fill="#f7ecd2" opacity="0.67"/><circle cx="341" cy="39" r="1.8" fill="#f7ecd2" opacity="0.84"/><circle cx="995" cy="312" r="1.8" fill="#f7ecd2" opacity="0.75"/><circle cx="874" cy="20" r="0.8" fill="#f7ecd2" opacity="0.65"/><circle cx="578" cy="83" r="1.3" fill="#f7ecd2" opacity="0.59"/><circle cx="707" cy="61" r="0.8" fill="#f7ecd2" opacity="0.62"/><circle cx="661" cy="54" r="1.3" fill="#f7ecd2" opacity="0.79"/><circle cx="1040" cy="302" r="1.3" fill="#f7ecd2" opacity="0.65"/><circle cx="44" cy="85" r="0.8" fill="#f7ecd2" opacity="0.75"/><circle cx="980" cy="120" r="42" fill="#f6ecd0" opacity="0.95"/><circle cx="996" cy="112" r="36" fill="url(#sky)" opacity="0.92"/>
<rect x="330" y="370" width="540" height="190" fill="#12141c"/><path d="M 500 560 L 500 300 Q 600 230 700 300 L 700 560 Z" fill="#12141c"/><path d="M 528 560 L 528 320 Q 600 264 672 320 L 672 560 Z" fill="#0c0e14"/><path d="M 552 560 L 552 344 Q 600 298 648 344 L 648 560 Z" fill="#d8b45a" opacity="0.4"/><path d="M 430 310 C 430 177.06, 506.5 153.6, 600 153.6 C 693.5 153.6, 770 177.06, 770 310 Z" fill="#d9b98a"/><line x1="600" y1="153.6" x2="600" y2="131.6" stroke="#d8b45a" stroke-width="3"/><circle cx="600" cy="127.6" r="4.5" fill="#d8b45a"/><path d="M 600 113.6 a 8 8 0 1 0 6 13 a 6.4 6.4 0 1 1 -6 -13 Z" fill="#d8b45a"/>
<rect x="0" y="560" width="1200" height="140" fill="#0c0e14"/>

<rect x="0" y="556" width="1200" height="4" fill="#d8b45a" opacity="0.55"/>
</svg>