<svg xmlns="http://www.w3.org/2000/svg" viewBox="0 0 1200 700" role="img">
<defs>
<linearGradient id="sky" x1="0" y1="0" x2="0" y2="1">
<stop offset="0" stop-color="#0a1026"/><stop offset="0.62" stop-color="#152046"/><stop offset="1" stop-color="#2b3a6b"/>
</linearGradient>
<pattern id="g1" width="120" height="120" patternUnits="userSpaceOnUse"><polygon points="111.6,60.0 80.0,68.3 96.5,96.5 68.3,80.0 60.0,111.6 51.7,80.0 23.5,96.5 40.0,68.3 8.4,60.0 40.0,51.7 23.5,23.5 51.7,40.0 60.0,8.4 68.3,40.0 96.5,23.5 80.0,51.7" fill="none" stroke="#e8d9a8" stroke-width="1.6" opacity="0.1"/><rect x="17.4" y="17.4" width="85.2" height="85.2" fill="none" stroke="#e8d9a8" stroke-width="1.6" opacity="0.06999999999999999" transform="rotate(45 60.0 60.0)"/></pattern>
</defs>
<rect width="1200" height="700" fill="url(#sky)"/>
<rect width="1200" height="700" fill="url(#g1)"/>
<circle cx="690" cy="310" r="1.3" fill="#f7ecd2" opacity="0.35"/><circle cx="148" cy="227" r="0.8" fill="#f7ecd2" opacity="0.81"/><circle cx="319" cy="147" r="1.3" fill="#f7ecd2" opacity="0.78"/><circle cx="939" cy="46" r="1.3" fill="#f7ecd2" opacity="0.79"/><circle cx="736" cy="272" r="0.8" fill="#f7ecd2" opacity="0.77"/><circle cx="454" cy="89" r="0.8" fill="#f7ecd2" opacity="0.41"/><circle cx="405" cy="329" r="1.8" fill="#f7ecd2" opacity="0.80"/><circle cx="565" cy="248" r="0.8" fill="#f7ecd2" opacity="0.55"/><circle cx="382" cy="74" r="0.8" fill="#f7ecd2" opacity="0.53"/><circle cx="360" cy="131" r="1.8" fill="#f7ecd2" opacity="0.45"/><circle cx="91" cy="11" r="0.8" fill="#f7ecd2" opacity="0.36"/><circle cx="991" cy="90" r="1.3" fill="#f7ecd2" opacity="0.75"/><circle cx="828" cy="196" r="1.3" fill="#f7ecd2" opacity="0.73"/><circle cx="1066" cy="153" r="1.3" fill="#f7ecd2" opacity="0.83"/><circle cx="577" cy="13" r="1.8" fill="#f7ecd2" opacity="0.36"/><circle cx="1017" cy="112" r="1.3" fill="#f7ecd2" opacity="0.39"/><circle cx="874" cy="158" r="0.8" fill="#f7ecd2" opacity="0.77"/><circle cx="172" cy="215" r="0.8" fill="#f7ecd2" opacity="0.65"/><circle cx="663" cy="195" r="0.8" fill="#f7ecd2" opacity="0.70"/><circle cx="643" cy="314" r="0.8" fill="#f7ecd2" opacity="0.37"/><circle cx="520" cy="300" r="1.3" fill="#f7ecd2" opacity="0.35"/><circle cx="78" cy="257" r="1.8" fill="#f7ecd2" opacity="0.81"/><circle cx="349" cy="217" r="1.8" fill="#f7ecd2" opacity="0.68"/><circle cx="1069" cy="156" r="1.3" fill="#f7ecd2" opacity="0.49"/><circle cx="966" cy="82" r="1.3" fill="#f7ecd2" opacity="0.47"/><circle cx="784" cy="279" r="1.3" fill="#f7ecd2" opacity="0.71"/><circle cx="835" cy="219" r="1.3" fill="#f7ecd2" opacity="0.50"/><circle cx="1095" cy="178" r="1.3" fill="#f7ecd2" opacity="0.45"/><circle cx="1012" cy="44" r="0.8" fill="#f7ecd2" opacity="0.63"/><circle cx="1090" cy="141" r="1.3" fill="#f7ecd2" opacity="0.75"/><circle cx="921" cy="61" r="1.3" fill="#f7ecd2" opacity="0.66"/><circle cx="721" cy="40" r="1.8" fill="#f7ecd2" opacity="0.75"/><circle cx="658" cy="186" r="1.3" fill="#f7ecd2" opacity="0.73"/><circle cx="996" cy="183" r="0.8" fill="#f7ecd2" opacity="0.53"/><circle cx="607" cy="83" r="0.8" fill="#f7ecd2" opacity="0.66"/><circle cx="1147" cy="222" r="1.3" fill="#f7ecd2" opacity="0.69"/><circle cx="1104" cy="308" r="1.8" fill="#f7ecd2" opacity="0.67"/><circle cx="502" cy="65" r="0.8" fill="#f7ecd2" opacity="0.65"/><circle cx="1093" cy="85" r="1.8" fill="#f7ecd2" opacity="0.40"/><circle cx="1173" cy="244" r="1.3" fill="#f7ecd2" opacity="0.47"/><circle cx="1150" cy="270" r="1.3" fill="#f7ecd2" opacity="0.35"/><circle cx="808" cy="267" r="1.3" fill="#f7ecd2" opacity="0.71"/><circle cx="1179" cy="267" r="0.8" fill="#f7ecd2" opacity="0.78"/><circle cx="799" cy="106" r="1.8" fill="#f7ecd2" opacity="0.79"/><circle cx="796" cy="72" r="1.3" fill="#f7ecd2" opacity="0.47"/><circle cx="714" cy="309" r="0.8" fill="#f7ecd2" opacity="0.61"/><circle cx="865" cy="289" r="1.8" fill="#f7ecd2" opacity="0.70"/><circle cx="25" cy="148" r="1.8" fill="#f7ecd2" opacity="0.35"/><circle cx="42" cy="54" r="0.8" fill="#f7ecd2" opacity="0.53"/><circle cx="220" cy="191" r="0.8" fill="#f7ecd2" opacity="0.55"/><circle cx="151" cy="151" r="1.8" fill="#f7ecd2" opacity="0.36"/><circle cx="51" cy="170" r="1.8" fill="#f7ecd2" opacity="0.55"/><circle cx="88" cy="16" r="1.8" fill="#f7ecd2" opacity="0.43"/><circle cx="526" cy="53" r="0.8" fill="#f7ecd2" opacity="0.63"/><circle cx="237" cy="333" r="0.8" fill="#f7ecd2" opacity="0.56"/><circle cx="877" cy="172" r="1.8" fill="#f7ecd2" opacity="0.79"/><circle cx="934" cy="298" r="1.8" fill="#f7ecd2" opacity="0.67"/><circle cx="432" cy="95" r="1.8" fill="#f7ecd2" opacity="0.75"/><circle cx="1123" cy="155" r="0.8" fill="#f7ecd2" opacity="0.50"/><circle cx="103" cy="214" r="1.8" fill="#f7ecd2" opacity="0.77"/><circle cx="980" cy="120" r="42" fill="#f6ecd0" opacity="0.95"/><circle cx="996" cy="112" r="36" fill="url(#sky)" opacity="0.92"/>
<rect x="330" y="370" width="540" height="190" fill="#12141c"/><path d="M 500 560 L 500 300 Q 600 230 700 300 L 700 560 Z" fill="#12141c"/><path d="M 528 560 L 528 320 Q 600 264 672 320 L 672 560 Z" fill="#0c0e14"/><path d="M 552 560 L 552 344 Q 600 298 648 344 L 648 560 Z" fill="#d8b45a" opacity="0.4"/><path d="M 430 310 C 430 177.06, 506.5 153.6, 600 153.6 C 693.5 153.6, 770 177.06, 770 310 Z" fill="#d9b98a"/><line x1="600" y1="153.6" x2="600" y2="131.6" stroke="#d8b45a" stroke-width="3"/><circle cx="600" cy="127.6" r="4.5" fill="#d8b45a"/><path d="M 600 113.6 a 8 8 0 1 0 6 13 a 6.4 6.4 0 1 1 -6 -13 Z" fill="#d8b45a"/>
<rect x="0" y="560" width="1200" height="140" fill="#0c0e14"/>

<rect x="0" y="556" width="1200" height="4" fill="#d8b45a" opacity="0.55"/>
</svg>