<svg xmlns="http://www.w3.org/2000/svg" viewBox="0 0 1200 700" role="img">
<defs>
<linearGradient id="sky" x1="0" y1="0" x2="0" y2="1">
<stop offset="0" stop-color="#0a1026"/><stop offset="0.62" stop-color="#152046"/><stop offset="1" stop-color="#2b3a6b"/>
</linearGradient>
<pattern id="g1" width="120" height="120" patternUnits="userSpaceOnUse"><polygon points="111.6,60.0 80.0,68.3 96.5,96.5 68.3,80.0 60.0,111.6 51.7,80.0 23.5,96.5 40.0,68.3 8.4,60.0 40.0,51.7 23.5,23.5 51.7,40.0 60.0,8.4 68.3,40.0 96.5,23.5 80.0,51.7" fill="none" stroke="#e8d9a8" stroke-width="1.6" opacity="0.1"/><rect x="17.4" y="17.4" width="85.2" height="85.2" fill="none" stroke="#e8d9a8" stroke-width="1.6" opacity="0.06999999999999999" transform="rotate(45 60.0 60.0)"/></pattern>
</defs>
<rect width="1200" height="700" fill="url(#sky)"/>
<rect width="1200" height="700" fill="url(#g1)"/>
<circle cx="968" cy="88" r="0.8" fill="#f7ecd2" opacity="0.69"/><circle cx="42" cy="1" r="1.3" fill="#f7ecd2" opacity="0.77"/><circle cx="981" cy="269" r="1.8" fill="#f7ecd2" opacity="0.74"/><circle cx="65" cy="152" r="1.3" fill="#f7ecd2" opacity="0.65"/><circle cx="534" cy="130" r="1.3" fill="#f7ecd2" opacity="0.55"/><circle cx="108" cy="243" r="0.8" fill="#f7ecd2" opacity="0.79"/><circle cx="347" cy="231" r="1.8" fill="#f7ecd2" opacity="0.42"/><circle cx="1131" cy="114" r="0.8" fill="#f7ecd2" opacity="0.69"/><circle cx="900" cy="152" r="1.8" fill="#f7ecd2" opacity="0.35"/><circle cx="974" cy="125" r="1.3" fill="#f7ecd2" opacity="0.35"/><circle cx="513" cy="173" r="1.8" fill="#f7ecd2" opacity="0.84"/><circle cx="597" cy="116" r="1.8" fill="#f7ecd2" opacity="0.37"/><circle cx="866" cy="14" r="1.3" fill="#f7ecd2" opacity="0.59"/><circle cx="240" cy="47" r="1.8" fill="#f7ecd2" opacity="0.65"/><circle cx="279" cy="295" r="1.3" fill="#f7ecd2" opacity="0.40"/><circle cx="863" cy="98" r="1.3" fill="#f7ecd2" opacity="0.59"/><circle cx="432" cy="56" r="1.8" fill="#f7ecd2" opacity="0.77"/><circle cx="306" cy="289" r="1.3" fill="#f7ecd2" opacity="0.69"/><circle cx="845" cy="57" r="1.8" fill="#f7ecd2" opacity="0.50"/><circle cx="729" cy="260" r="1.8" fill="#f7ecd2" opacity="0.75"/><circle cx="798" cy="78" r="0.8" fill="#f7ecd2" opacity="0.79"/><circle cx="1172" cy="171" r="1.8" fill="#f7ecd2" opacity="0.47"/><circle cx="1011" cy="339" r="0.8" fill="#f7ecd2" opacity="0.64"/><circle cx="195" cy="262" r="1.3" fill="#f7ecd2" opacity="0.75"/><circle cx="764" cy="280" r="0.8" fill="#f7ecd2" opacity="0.55"/><circle cx="438" cy="93" r="0.8" fill="#f7ecd2" opacity="0.69"/><circle cx="777" cy="121" r="1.3" fill="#f7ecd2" opacity="0.52"/><circle cx="461" cy="244" r="0.8" fill="#f7ecd2" opacity="0.69"/><circle cx="330" cy="322" r="1.3" fill="#f7ecd2" opacity="0.45"/><circle cx="504" cy="335" r="1.8" fill="#f7ecd2" opacity="0.75"/><circle cx="143" cy="83" r="1.3" fill="#f7ecd2" opacity="0.54"/><circle cx="327" cy="66" r="0.8" fill="#f7ecd2" opacity="0.67"/><circle cx="696" cy="4" r="1.3" fill="#f7ecd2" opacity="0.69"/><circle cx="170" cy="77" r="1.3" fill="#f7ecd2" opacity="0.75"/><circle cx="309" cy="25" r="1.3" fill="#f7ecd2" opacity="0.60"/><circle cx="993" cy="208" r="1.3" fill="#f7ecd2" opacity="0.79"/><circle cx="662" cy="206" r="1.3" fill="#f7ecd2" opacity="0.57"/><circle cx="636" cy="139" r="1.3" fill="#f7ecd2" opacity="0.39"/><circle cx="75" cy="147" r="0.8" fill="#f7ecd2" opacity="0.60"/><circle cx="59" cy="50" r="1.3" fill="#f7ecd2" opacity="0.35"/><circle cx="228" cy="248" r="1.8" fill="#f7ecd2" opacity="0.79"/><circle cx="702" cy="41" r="1.8" fill="#f7ecd2" opacity="0.67"/><circle cx="641" cy="249" r="1.8" fill="#f7ecd2" opacity="0.44"/><circle cx="1125" cy="12" r="0.8" fill="#f7ecd2" opacity="0.35"/><circle cx="594" cy="270" r="0.8" fill="#f7ecd2" opacity="0.65"/><circle cx="368" cy="123" r="1.8" fill="#f7ecd2" opacity="0.49"/><circle cx="807" cy="191" r="1.8" fill="#f7ecd2" opacity="0.72"/><circle cx="591" cy="14" r="1.8" fill="#f7ecd2" opacity="0.59"/><circle cx="560" cy="132" r="1.8" fill="#f7ecd2" opacity="0.55"/><circle cx="834" cy="185" r="1.8" fill="#f7ecd2" opacity="0.75"/><circle cx="573" cy="313" r="1.3" fill="#f7ecd2" opacity="0.84"/><circle cx="857" cy="336" r="1.8" fill="#f7ecd2" opacity="0.37"/><circle cx="126" cy="174" r="0.8" fill="#f7ecd2" opacity="0.59"/><circle cx="900" cy="87" r="0.8" fill="#f7ecd2" opacity="0.35"/><circle cx="1139" cy="75" r="1.8" fill="#f7ecd2" opacity="0.60"/><circle cx="723" cy="158" r="1.8" fill="#f7ecd2" opacity="0.69"/><circle cx="492" cy="196" r="1.3" fill="#f7ecd2" opacity="0.67"/><circle cx="566" cy="169" r="0.8" fill="#f7ecd2" opacity="0.39"/><circle cx="105" cy="217" r="1.3" fill="#f7ecd2" opacity="0.70"/><circle cx="189" cy="160" r="1.3" fill="#f7ecd2" opacity="0.75"/><circle cx="980" cy="120" r="42" fill="#f6ecd0" opacity="0.95"/><circle cx="996" cy="112" r="36" fill="url(#sky)" opacity="0.92"/>
<rect x="330" y="370" width="540" height="190" fill="#12141c"/><path d="M 500 560 L 500 300 Q 600 230 700 300 L 700 560 Z" fill="#12141c"/><path d="M 528 560 L 528 320 Q 600 264 672 320 L 672 560 Z" fill="#0c0e14"/><path d="M 552 560 L 552 344 Q 600 298 648 344 L 648 560 Z" fill="#d8b45a" opacity="0.4"/><path d="M 430 310 C 430 177.06, 506.5 153.6, 600 153.6 C 693.5 153.6, 770 177.06, 770 310 Z" fill="#d9b98a"/><line x1="600" y1="153.6" x2="600" y2="131.6" stroke="#d8b45a" stroke-width="3"/><circle cx="600" cy="127.6" r="4.5" fill="#d8b45a"/><path d="M 600 113.6 a 8 8 0 1 0 6 13 a 6.4 6.4 0 1 1 -6 -13 Z" fill="#d8b45a"/>
<rect x="0" y="560" width="1200" height="140" fill="#0c0e14"/>

<rect x="0" y="556" width="1200" height="4" fill="#d8b45a" opacity="0.55"/>
</svg>