<svg xmlns="http://www.w3.org/2000/svg" viewBox="0 0 1200 700" role="img">
<defs>
<linearGradient id="sky" x1="0" y1="0" x2="0" y2="1">
<stop offset="0" stop-color="#0a1026"/><stop offset="0.62" stop-color="#152046"/><stop offset="1" stop-color="#2b3a6b"/>
</linearGradient>
<pattern id="g1" width="120" height="120" patternUnits="userSpaceOnUse"><polygon points="111.6,60.0 80.0,68.3 96.5,96.5 68.3,80.0 60.0,111.6 51.7,80.0 23.5,96.5 40.0,68.3 8.4,60.0 40.0,51.7 23.5,23.5 51.7,40.0 60.0,8.4 68.3,40.0 96.5,23.5 80.0,51.7" fill="none" stroke="#e8d9a8" stroke-width="1.6" opacity="0.1"/><rect x="17.4" y="17.4" width="85.2" height="85.2" fill="none" stroke="#e8d9a8" stroke-width="1.6" opacity="0.06999999999999999" transform="rotate(45 60.0 60.0)"/></pattern>
</defs>
<rect width="1200" height="700" fill="url(#sky)"/>
<rect width="1200" height="700" fill="url(#g1)"/>
<circle cx="631" cy="181" r="1.8" fill="#f7ecd2" opacity="0.46"/><circle cx="641" cy="210" r="1.8" fill="#f7ecd2" opacity="0.45"/><circle cx="308" cy="146" r="1.3" fill="#f7ecd2" opacity="0.53"/><circle cx="136" cy="313" r="1.8" fill="#f7ecd2" opacity="0.53"/><circle cx="917" cy="103" r="0.8" fill="#f7ecd2" opacity="0.36"/><circle cx="467" cy="152" r="1.3" fill="#f7ecd2" opacity="0.69"/><circle cx="154" cy="28" r="1.8" fill="#f7ecd2" opacity="0.47"/><circle cx="242" cy="95" r="1.3" fill="#f7ecd2" opacity="0.75"/><circle cx="803" cy="205" r="0.8" fill="#f7ecd2" opacity="0.50"/><circle cx="1093" cy="74" r="0.8" fill="#f7ecd2" opacity="0.67"/><circle cx="800" cy="230" r="1.3" fill="#f7ecd2" opacity="0.35"/><circle cx="1148" cy="197" r="1.3" fill="#f7ecd2" opacity="0.41"/><circle cx="289" cy="147" r="1.3" fill="#f7ecd2" opacity="0.68"/><circle cx="119" cy="36" r="1.8" fill="#f7ecd2" opacity="0.69"/><circle cx="1046" cy="272" r="1.3" fill="#f7ecd2" opacity="0.47"/><circle cx="454" cy="339" r="1.3" fill="#f7ecd2" opacity="0.41"/><circle cx="575" cy="69" r="1.8" fill="#f7ecd2" opacity="0.60"/><circle cx="1145" cy="118" r="0.8" fill="#f7ecd2" opacity="0.45"/><circle cx="892" cy="154" r="1.8" fill="#f7ecd2" opacity="0.53"/><circle cx="560" cy="121" r="0.8" fill="#f7ecd2" opacity="0.45"/><circle cx="461" cy="171" r="1.8" fill="#f7ecd2" opacity="0.66"/><circle cx="571" cy="240" r="1.3" fill="#f7ecd2" opacity="0.75"/><circle cx="338" cy="216" r="1.8" fill="#f7ecd2" opacity="0.43"/><circle cx="266" cy="83" r="1.3" fill="#f7ecd2" opacity="0.63"/><circle cx="1147" cy="253" r="1.8" fill="#f7ecd2" opacity="0.76"/><circle cx="797" cy="2" r="1.3" fill="#f7ecd2" opacity="0.79"/><circle cx="584" cy="258" r="1.8" fill="#f7ecd2" opacity="0.57"/><circle cx="772" cy="25" r="1.8" fill="#f7ecd2" opacity="0.35"/><circle cx="233" cy="35" r="1.3" fill="#f7ecd2" opacity="0.40"/><circle cx="623" cy="284" r="1.3" fill="#f7ecd2" opacity="0.67"/><circle cx="430" cy="140" r="0.8" fill="#f7ecd2" opacity="0.35"/><circle cx="878" cy="147" r="1.8" fill="#f7ecd2" opacity="0.51"/><circle cx="119" cy="137" r="1.3" fill="#f7ecd2" opacity="0.38"/><circle cx="49" cy="66" r="1.3" fill="#f7ecd2" opacity="0.69"/><circle cx="1076" cy="2" r="1.3" fill="#f7ecd2" opacity="0.37"/><circle cx="584" cy="109" r="0.8" fill="#f7ecd2" opacity="0.41"/><circle cx="805" cy="219" r="1.3" fill="#f7ecd2" opacity="0.80"/><circle cx="275" cy="168" r="1.8" fill="#f7ecd2" opacity="0.35"/><circle cx="122" cy="244" r="0.8" fill="#f7ecd2" opacity="0.53"/><circle cx="1090" cy="51" r="1.3" fill="#f7ecd2" opacity="0.75"/><circle cx="1091" cy="141" r="1.8" fill="#f7ecd2" opacity="0.66"/><circle cx="101" cy="110" r="1.3" fill="#f7ecd2" opacity="0.45"/><circle cx="1168" cy="266" r="0.8" fill="#f7ecd2" opacity="0.73"/><circle cx="1196" cy="173" r="1.3" fill="#f7ecd2" opacity="0.43"/><circle cx="977" cy="243" r="1.8" fill="#f7ecd2" opacity="0.46"/><circle cx="727" cy="32" r="0.8" fill="#f7ecd2" opacity="0.49"/><circle cx="614" cy="328" r="0.8" fill="#f7ecd2" opacity="0.77"/><circle cx="902" cy="135" r="1.8" fill="#f7ecd2" opacity="0.55"/><circle cx="463" cy="185" r="0.8" fill="#f7ecd2" opacity="0.40"/><circle cx="953" cy="134" r="1.3" fill="#f7ecd2" opacity="0.37"/><circle cx="860" cy="30" r="1.8" fill="#f7ecd2" opacity="0.35"/><circle cx="208" cy="277" r="1.8" fill="#f7ecd2" opacity="0.51"/><circle cx="749" cy="107" r="1.3" fill="#f7ecd2" opacity="0.78"/><circle cx="779" cy="76" r="0.8" fill="#f7ecd2" opacity="0.39"/><circle cx="706" cy="252" r="1.3" fill="#f7ecd2" opacity="0.47"/><circle cx="314" cy="59" r="1.3" fill="#f7ecd2" opacity="0.61"/><circle cx="635" cy="209" r="1.3" fill="#f7ecd2" opacity="0.50"/><circle cx="205" cy="198" r="1.3" fill="#f7ecd2" opacity="0.75"/><circle cx="152" cy="314" r="1.3" fill="#f7ecd2" opacity="0.63"/><circle cx="20" cy="21" r="1.8" fill="#f7ecd2" opacity="0.55"/><circle cx="980" cy="120" r="42" fill="#f6ecd0" opacity="0.95"/><circle cx="996" cy="112" r="36" fill="url(#sky)" opacity="0.92"/>
<rect x="330" y="370" width="540" height="190" fill="#12141c"/><path d="M 500 560 L 500 300 Q 600 230 700 300 L 700 560 Z" fill="#12141c"/><path d="M 528 560 L 528 320 Q 600 264 672 320 L 672 560 Z" fill="#0c0e14"/><path d="M 552 560 L 552 344 Q 600 298 648 344 L 648 560 Z" fill="#d8b45a" opacity="0.4"/><path d="M 430 310 C 430 177.06, 506.5 153.6, 600 153.6 C 693.5 153.6, 770 177.06, 770 310 Z" fill="#d9b98a"/><line x1="600" y1="153.6" x2="600" y2="131.6" stroke="#d8b45a" stroke-width="3"/><circle cx="600" cy="127.6" r="4.5" fill="#d8b45a"/><path d="M 600 113.6 a 8 8 0 1 0 6 13 a 6.4 6.4 0 1 1 -6 -13 Z" fill="#d8b45a"/>
<rect x="0" y="560" width="1200" height="140" fill="#0c0e14"/>

<rect x="0" y="556" width="1200" height="4" fill="#d8b45a" opacity="0.55"/>
</svg>