<svg xmlns="http://www.w3.org/2000/svg" viewBox="0 0 1200 700" role="img">
<defs>
<linearGradient id="sky" x1="0" y1="0" x2="0" y2="1">
<stop offset="0" stop-color="#0a1026"/><stop offset="0.62" stop-color="#152046"/><stop offset="1" stop-color="#2b3a6b"/>
</linearGradient>
<pattern id="g1" width="120" height="120" patternUnits="userSpaceOnUse"><polygon points="111.6,60.0 80.0,68.3 96.5,96.5 68.3,80.0 60.0,111.6 51.7,80.0 23.5,96.5 40.0,68.3 8.4,60.0 40.0,51.7 23.5,23.5 51.7,40.0 60.0,8.4 68.3,40.0 96.5,23.5 80.0,51.7" fill="none" stroke="#e8d9a8" stroke-width="1.6" opacity="0.1"/><rect x="17.4" y="17.4" width="85.2" height="85.2" fill="none" stroke="#e8d9a8" stroke-width="1.6" opacity="0.06999999999999999" transform="rotate(45 60.0 60.0)"/></pattern>
</defs>
<rect width="1200" height="700" fill="url(#sky)"/>
<rect width="1200" height="700" fill="url(#g1)"/>
<circle cx="910" cy="330" r="1.3" fill="#f7ecd2" opacity="0.35"/><circle cx="608" cy="207" r="1.8" fill="#f7ecd2" opacity="0.41"/><circle cx="299" cy="207" r="1.8" fill="#f7ecd2" opacity="0.78"/><circle cx="679" cy="146" r="0.8" fill="#f7ecd2" opacity="0.69"/><circle cx="956" cy="292" r="0.8" fill="#f7ecd2" opacity="0.37"/><circle cx="914" cy="69" r="1.8" fill="#f7ecd2" opacity="0.51"/><circle cx="385" cy="49" r="1.8" fill="#f7ecd2" opacity="0.50"/><circle cx="305" cy="8" r="1.3" fill="#f7ecd2" opacity="0.75"/><circle cx="602" cy="94" r="0.8" fill="#f7ecd2" opacity="0.73"/><circle cx="820" cy="111" r="1.3" fill="#f7ecd2" opacity="0.55"/><circle cx="71" cy="71" r="1.3" fill="#f7ecd2" opacity="0.76"/><circle cx="731" cy="190" r="0.8" fill="#f7ecd2" opacity="0.75"/><circle cx="1048" cy="216" r="1.3" fill="#f7ecd2" opacity="0.53"/><circle cx="326" cy="333" r="1.8" fill="#f7ecd2" opacity="0.43"/><circle cx="557" cy="73" r="0.8" fill="#f7ecd2" opacity="0.46"/><circle cx="757" cy="212" r="0.8" fill="#f7ecd2" opacity="0.69"/><circle cx="1094" cy="178" r="0.8" fill="#f7ecd2" opacity="0.67"/><circle cx="632" cy="195" r="1.8" fill="#f7ecd2" opacity="0.75"/><circle cx="643" cy="255" r="1.3" fill="#f7ecd2" opacity="0.50"/><circle cx="383" cy="74" r="1.3" fill="#f7ecd2" opacity="0.77"/><circle cx="740" cy="320" r="1.3" fill="#f7ecd2" opacity="0.35"/><circle cx="538" cy="237" r="1.3" fill="#f7ecd2" opacity="0.41"/><circle cx="329" cy="277" r="0.8" fill="#f7ecd2" opacity="0.68"/><circle cx="809" cy="256" r="0.8" fill="#f7ecd2" opacity="0.39"/><circle cx="1186" cy="102" r="1.3" fill="#f7ecd2" opacity="0.57"/><circle cx="44" cy="119" r="1.3" fill="#f7ecd2" opacity="0.71"/><circle cx="815" cy="279" r="1.8" fill="#f7ecd2" opacity="0.70"/><circle cx="835" cy="278" r="0.8" fill="#f7ecd2" opacity="0.65"/><circle cx="32" cy="264" r="1.8" fill="#f7ecd2" opacity="0.83"/><circle cx="350" cy="321" r="1.8" fill="#f7ecd2" opacity="0.35"/><circle cx="901" cy="121" r="1.8" fill="#f7ecd2" opacity="0.56"/><circle cx="461" cy="140" r="1.3" fill="#f7ecd2" opacity="0.75"/><circle cx="878" cy="206" r="1.3" fill="#f7ecd2" opacity="0.53"/><circle cx="256" cy="23" r="0.8" fill="#f7ecd2" opacity="0.73"/><circle cx="587" cy="143" r="1.3" fill="#f7ecd2" opacity="0.76"/><circle cx="887" cy="322" r="0.8" fill="#f7ecd2" opacity="0.49"/><circle cx="124" cy="188" r="0.8" fill="#f7ecd2" opacity="0.47"/><circle cx="962" cy="45" r="1.8" fill="#f7ecd2" opacity="0.75"/><circle cx="1073" cy="145" r="0.8" fill="#f7ecd2" opacity="0.70"/><circle cx="913" cy="4" r="1.8" fill="#f7ecd2" opacity="0.37"/><circle cx="170" cy="150" r="1.8" fill="#f7ecd2" opacity="0.35"/><circle cx="68" cy="107" r="1.3" fill="#f7ecd2" opacity="0.61"/><circle cx="1159" cy="327" r="1.3" fill="#f7ecd2" opacity="0.78"/><circle cx="539" cy="206" r="1.3" fill="#f7ecd2" opacity="0.69"/><circle cx="1016" cy="92" r="1.3" fill="#f7ecd2" opacity="0.57"/><circle cx="1174" cy="289" r="1.8" fill="#f7ecd2" opacity="0.71"/><circle cx="845" cy="9" r="1.8" fill="#f7ecd2" opacity="0.40"/><circle cx="965" cy="48" r="1.8" fill="#f7ecd2" opacity="0.55"/><circle cx="262" cy="74" r="0.8" fill="#f7ecd2" opacity="0.73"/><circle cx="680" cy="171" r="1.8" fill="#f7ecd2" opacity="0.65"/><circle cx="131" cy="211" r="0.8" fill="#f7ecd2" opacity="0.76"/><circle cx="991" cy="70" r="1.8" fill="#f7ecd2" opacity="0.55"/><circle cx="308" cy="36" r="1.8" fill="#f7ecd2" opacity="0.73"/><circle cx="986" cy="33" r="1.8" fill="#f7ecd2" opacity="0.73"/><circle cx="217" cy="53" r="0.8" fill="#f7ecd2" opacity="0.36"/><circle cx="617" cy="272" r="1.3" fill="#f7ecd2" opacity="0.59"/><circle cx="1154" cy="318" r="1.8" fill="#f7ecd2" opacity="0.57"/><circle cx="892" cy="75" r="1.3" fill="#f7ecd2" opacity="0.35"/><circle cx="1103" cy="215" r="1.3" fill="#f7ecd2" opacity="0.80"/><circle cx="1043" cy="114" r="1.8" fill="#f7ecd2" opacity="0.37"/><circle cx="980" cy="120" r="42" fill="#f6ecd0" opacity="0.95"/><circle cx="996" cy="112" r="36" fill="url(#sky)" opacity="0.92"/>
<rect x="330" y="370" width="540" height="190" fill="#12141c"/><path d="M 500 560 L 500 300 Q 600 230 700 300 L 700 560 Z" fill="#12141c"/><path d="M 528 560 L 528 320 Q 600 264 672 320 L 672 560 Z" fill="#0c0e14"/><path d="M 552 560 L 552 344 Q 600 298 648 344 L 648 560 Z" fill="#d8b45a" opacity="0.4"/><path d="M 430 310 C 430 177.06, 506.5 153.6, 600 153.6 C 693.5 153.6, 770 177.06, 770 310 Z" fill="#d9b98a"/><line x1="600" y1="153.6" x2="600" y2="131.6" stroke="#d8b45a" stroke-width="3"/><circle cx="600" cy="127.6" r="4.5" fill="#d8b45a"/><path d="M 600 113.6 a 8 8 0 1 0 6 13 a 6.4 6.4 0 1 1 -6 -13 Z" fill="#d8b45a"/>
<rect x="0" y="560" width="1200" height="140" fill="#0c0e14"/>

<rect x="0" y="556" width="1200" height="4" fill="#d8b45a" opacity="0.55"/>
</svg>