<svg xmlns="http://www.w3.org/2000/svg" viewBox="0 0 1200 700" role="img">
<defs>
<linearGradient id="sky" x1="0" y1="0" x2="0" y2="1">
<stop offset="0" stop-color="#0a1026"/><stop offset="0.62" stop-color="#152046"/><stop offset="1" stop-color="#2b3a6b"/>
</linearGradient>
<pattern id="g1" width="120" height="120" patternUnits="userSpaceOnUse"><polygon points="111.6,60.0 80.0,68.3 96.5,96.5 68.3,80.0 60.0,111.6 51.7,80.0 23.5,96.5 40.0,68.3 8.4,60.0 40.0,51.7 23.5,23.5 51.7,40.0 60.0,8.4 68.3,40.0 96.5,23.5 80.0,51.7" fill="none" stroke="#e8d9a8" stroke-width="1.6" opacity="0.1"/><rect x="17.4" y="17.4" width="85.2" height="85.2" fill="none" stroke="#e8d9a8" stroke-width="1.6" opacity="0.06999999999999999" transform="rotate(45 60.0 60.0)"/></pattern>
</defs>
<rect width="1200" height="700" fill="url(#sky)"/>
<rect width="1200" height="700" fill="url(#g1)"/>
<circle cx="683" cy="93" r="1.8" fill="#f7ecd2" opacity="0.54"/><circle cx="837" cy="166" r="1.3" fill="#f7ecd2" opacity="0.77"/><circle cx="216" cy="14" r="1.8" fill="#f7ecd2" opacity="0.59"/><circle cx="620" cy="17" r="1.3" fill="#f7ecd2" opacity="0.75"/><circle cx="249" cy="135" r="0.8" fill="#f7ecd2" opacity="0.50"/><circle cx="903" cy="68" r="1.8" fill="#f7ecd2" opacity="0.39"/><circle cx="782" cy="116" r="1.3" fill="#f7ecd2" opacity="0.47"/><circle cx="486" cy="179" r="1.8" fill="#f7ecd2" opacity="0.79"/><circle cx="615" cy="157" r="1.3" fill="#f7ecd2" opacity="0.40"/><circle cx="569" cy="150" r="1.8" fill="#f7ecd2" opacity="0.35"/><circle cx="948" cy="58" r="1.3" fill="#f7ecd2" opacity="0.69"/><circle cx="1152" cy="321" r="0.8" fill="#f7ecd2" opacity="0.77"/><circle cx="581" cy="19" r="0.8" fill="#f7ecd2" opacity="0.74"/><circle cx="1035" cy="212" r="1.8" fill="#f7ecd2" opacity="0.55"/><circle cx="714" cy="180" r="0.8" fill="#f7ecd2" opacity="0.55"/><circle cx="218" cy="163" r="0.8" fill="#f7ecd2" opacity="0.69"/><circle cx="147" cy="61" r="1.3" fill="#f7ecd2" opacity="0.52"/><circle cx="1101" cy="114" r="0.8" fill="#f7ecd2" opacity="0.49"/><circle cx="80" cy="142" r="0.8" fill="#f7ecd2" opacity="0.45"/><circle cx="84" cy="325" r="1.3" fill="#f7ecd2" opacity="0.35"/><circle cx="513" cy="83" r="1.8" fill="#f7ecd2" opacity="0.64"/><circle cx="767" cy="196" r="0.8" fill="#f7ecd2" opacity="0.67"/><circle cx="246" cy="84" r="0.8" fill="#f7ecd2" opacity="0.49"/><circle cx="750" cy="127" r="1.3" fill="#f7ecd2" opacity="0.35"/><circle cx="479" cy="285" r="1.8" fill="#f7ecd2" opacity="0.50"/><circle cx="33" cy="118" r="1.3" fill="#f7ecd2" opacity="0.79"/><circle cx="12" cy="206" r="1.8" fill="#f7ecd2" opacity="0.57"/><circle cx="1016" cy="109" r="0.8" fill="#f7ecd2" opacity="0.79"/><circle cx="45" cy="327" r="0.8" fill="#f7ecd2" opacity="0.50"/><circle cx="99" cy="20" r="1.8" fill="#f7ecd2" opacity="0.65"/><circle cx="578" cy="308" r="1.3" fill="#f7ecd2" opacity="0.59"/><circle cx="882" cy="271" r="1.3" fill="#f7ecd2" opacity="0.57"/><circle cx="411" cy="9" r="0.8" fill="#f7ecd2" opacity="0.84"/><circle cx="965" cy="242" r="1.3" fill="#f7ecd2" opacity="0.65"/><circle cx="744" cy="250" r="1.3" fill="#f7ecd2" opacity="0.35"/><circle cx="348" cy="273" r="0.8" fill="#f7ecd2" opacity="0.39"/><circle cx="377" cy="211" r="0.8" fill="#f7ecd2" opacity="0.82"/><circle cx="231" cy="164" r="1.8" fill="#f7ecd2" opacity="0.69"/><circle cx="510" cy="32" r="1.8" fill="#f7ecd2" opacity="0.55"/><circle cx="614" cy="255" r="1.8" fill="#f7ecd2" opacity="0.55"/><circle cx="1143" cy="53" r="1.8" fill="#f7ecd2" opacity="0.64"/><circle cx="297" cy="66" r="0.8" fill="#f7ecd2" opacity="0.37"/><circle cx="1076" cy="134" r="1.3" fill="#f7ecd2" opacity="0.69"/><circle cx="480" cy="77" r="1.8" fill="#f7ecd2" opacity="0.45"/><circle cx="309" cy="275" r="1.8" fill="#f7ecd2" opacity="0.60"/><circle cx="1163" cy="288" r="1.8" fill="#f7ecd2" opacity="0.79"/><circle cx="42" cy="276" r="0.8" fill="#f7ecd2" opacity="0.77"/><circle cx="1146" cy="219" r="0.8" fill="#f7ecd2" opacity="0.59"/><circle cx="275" cy="137" r="1.3" fill="#f7ecd2" opacity="0.60"/><circle cx="429" cy="210" r="0.8" fill="#f7ecd2" opacity="0.75"/><circle cx="1008" cy="198" r="0.8" fill="#f7ecd2" opacity="0.69"/><circle cx="212" cy="61" r="0.8" fill="#f7ecd2" opacity="0.67"/><circle cx="1041" cy="319" r="1.3" fill="#f7ecd2" opacity="0.64"/><circle cx="495" cy="112" r="1.3" fill="#f7ecd2" opacity="0.75"/><circle cx="374" cy="160" r="0.8" fill="#f7ecd2" opacity="0.75"/><circle cx="78" cy="223" r="1.3" fill="#f7ecd2" opacity="0.79"/><circle cx="207" cy="201" r="0.8" fill="#f7ecd2" opacity="0.42"/><circle cx="161" cy="194" r="1.3" fill="#f7ecd2" opacity="0.69"/><circle cx="540" cy="102" r="0.8" fill="#f7ecd2" opacity="0.65"/><circle cx="744" cy="25" r="1.3" fill="#f7ecd2" opacity="0.35"/><circle cx="980" cy="120" r="42" fill="#f6ecd0" opacity="0.95"/><circle cx="996" cy="112" r="36" fill="url(#sky)" opacity="0.92"/>
<rect x="330" y="370" width="540" height="190" fill="#12141c"/><path d="M 500 560 L 500 300 Q 600 230 700 300 L 700 560 Z" fill="#12141c"/><path d="M 528 560 L 528 320 Q 600 264 672 320 L 672 560 Z" fill="#0c0e14"/><path d="M 552 560 L 552 344 Q 600 298 648 344 L 648 560 Z" fill="#d8b45a" opacity="0.4"/><path d="M 430 310 C 430 177.06, 506.5 153.6, 600 153.6 C 693.5 153.6, 770 177.06, 770 310 Z" fill="#d9b98a"/><line x1="600" y1="153.6" x2="600" y2="131.6" stroke="#d8b45a" stroke-width="3"/><circle cx="600" cy="127.6" r="4.5" fill="#d8b45a"/><path d="M 600 113.6 a 8 8 0 1 0 6 13 a 6.4 6.4 0 1 1 -6 -13 Z" fill="#d8b45a"/>
<rect x="0" y="560" width="1200" height="140" fill="#0c0e14"/>

<rect x="0" y="556" width="1200" height="4" fill="#d8b45a" opacity="0.55"/>
</svg>