<svg xmlns="http://www.w3.org/2000/svg" viewBox="0 0 1200 700" role="img">
<defs>
<linearGradient id="sky" x1="0" y1="0" x2="0" y2="1">
<stop offset="0" stop-color="#0a1026"/><stop offset="0.62" stop-color="#152046"/><stop offset="1" stop-color="#2b3a6b"/>
</linearGradient>
<pattern id="g1" width="120" height="120" patternUnits="userSpaceOnUse"><polygon points="111.6,60.0 80.0,68.3 96.5,96.5 68.3,80.0 60.0,111.6 51.7,80.0 23.5,96.5 40.0,68.3 8.4,60.0 40.0,51.7 23.5,23.5 51.7,40.0 60.0,8.4 68.3,40.0 96.5,23.5 80.0,51.7" fill="none" stroke="#e8d9a8" stroke-width="1.6" opacity="0.1"/><rect x="17.4" y="17.4" width="85.2" height="85.2" fill="none" stroke="#e8d9a8" stroke-width="1.6" opacity="0.06999999999999999" transform="rotate(45 60.0 60.0)"/></pattern>
</defs>
<rect width="1200" height="700" fill="url(#sky)"/>
<rect width="1200" height="700" fill="url(#g1)"/>
<circle cx="393" cy="283" r="1.3" fill="#f7ecd2" opacity="0.54"/><circle cx="67" cy="96" r="1.3" fill="#f7ecd2" opacity="0.67"/><circle cx="406" cy="124" r="1.8" fill="#f7ecd2" opacity="0.79"/><circle cx="90" cy="247" r="1.3" fill="#f7ecd2" opacity="0.65"/><circle cx="1159" cy="125" r="0.8" fill="#f7ecd2" opacity="0.60"/><circle cx="133" cy="338" r="0.8" fill="#f7ecd2" opacity="0.39"/><circle cx="972" cy="226" r="1.3" fill="#f7ecd2" opacity="0.57"/><circle cx="1156" cy="209" r="0.8" fill="#f7ecd2" opacity="0.39"/><circle cx="325" cy="7" r="1.8" fill="#f7ecd2" opacity="0.60"/><circle cx="999" cy="220" r="1.3" fill="#f7ecd2" opacity="0.65"/><circle cx="1138" cy="168" r="1.3" fill="#f7ecd2" opacity="0.69"/><circle cx="622" cy="211" r="1.8" fill="#f7ecd2" opacity="0.77"/><circle cx="291" cy="209" r="1.8" fill="#f7ecd2" opacity="0.54"/><circle cx="265" cy="142" r="1.8" fill="#f7ecd2" opacity="0.65"/><circle cx="904" cy="290" r="0.8" fill="#f7ecd2" opacity="0.45"/><circle cx="888" cy="193" r="1.3" fill="#f7ecd2" opacity="0.69"/><circle cx="1057" cy="51" r="1.3" fill="#f7ecd2" opacity="0.42"/><circle cx="331" cy="44" r="0.8" fill="#f7ecd2" opacity="0.49"/><circle cx="270" cy="252" r="0.8" fill="#f7ecd2" opacity="0.75"/><circle cx="754" cy="15" r="1.3" fill="#f7ecd2" opacity="0.45"/><circle cx="223" cy="273" r="1.3" fill="#f7ecd2" opacity="0.64"/><circle cx="1197" cy="266" r="1.8" fill="#f7ecd2" opacity="0.37"/><circle cx="436" cy="194" r="0.8" fill="#f7ecd2" opacity="0.69"/><circle cx="220" cy="17" r="0.8" fill="#f7ecd2" opacity="0.75"/><circle cx="189" cy="135" r="0.8" fill="#f7ecd2" opacity="0.50"/><circle cx="463" cy="188" r="0.8" fill="#f7ecd2" opacity="0.79"/><circle cx="202" cy="316" r="1.8" fill="#f7ecd2" opacity="0.67"/><circle cx="486" cy="339" r="0.8" fill="#f7ecd2" opacity="0.39"/><circle cx="955" cy="317" r="0.8" fill="#f7ecd2" opacity="0.70"/><circle cx="529" cy="90" r="1.3" fill="#f7ecd2" opacity="0.45"/><circle cx="768" cy="78" r="0.8" fill="#f7ecd2" opacity="0.39"/><circle cx="352" cy="161" r="0.8" fill="#f7ecd2" opacity="0.57"/><circle cx="121" cy="199" r="1.8" fill="#f7ecd2" opacity="0.64"/><circle cx="195" cy="172" r="1.3" fill="#f7ecd2" opacity="0.75"/><circle cx="934" cy="20" r="0.8" fill="#f7ecd2" opacity="0.65"/><circle cx="1018" cy="303" r="1.3" fill="#f7ecd2" opacity="0.39"/><circle cx="87" cy="61" r="1.3" fill="#f7ecd2" opacity="0.42"/><circle cx="661" cy="234" r="1.3" fill="#f7ecd2" opacity="0.59"/><circle cx="700" cy="142" r="1.8" fill="#f7ecd2" opacity="0.35"/><circle cx="84" cy="145" r="1.3" fill="#f7ecd2" opacity="0.65"/><circle cx="853" cy="243" r="1.3" fill="#f7ecd2" opacity="0.64"/><circle cx="727" cy="136" r="1.8" fill="#f7ecd2" opacity="0.57"/><circle cx="66" cy="104" r="1.8" fill="#f7ecd2" opacity="0.49"/><circle cx="1150" cy="107" r="0.8" fill="#f7ecd2" opacity="0.35"/><circle cx="19" cy="125" r="0.8" fill="#f7ecd2" opacity="0.60"/><circle cx="393" cy="218" r="1.8" fill="#f7ecd2" opacity="0.59"/><circle cx="232" cy="46" r="1.8" fill="#f7ecd2" opacity="0.57"/><circle cx="616" cy="109" r="1.8" fill="#f7ecd2" opacity="0.79"/><circle cx="1185" cy="127" r="1.3" fill="#f7ecd2" opacity="0.80"/><circle cx="859" cy="280" r="1.8" fill="#f7ecd2" opacity="0.55"/><circle cx="1198" cy="308" r="0.8" fill="#f7ecd2" opacity="0.69"/><circle cx="882" cy="91" r="1.3" fill="#f7ecd2" opacity="0.47"/><circle cx="751" cy="169" r="1.8" fill="#f7ecd2" opacity="0.54"/><circle cx="925" cy="182" r="0.8" fill="#f7ecd2" opacity="0.35"/><circle cx="564" cy="270" r="0.8" fill="#f7ecd2" opacity="0.65"/><circle cx="748" cy="253" r="1.8" fill="#f7ecd2" opacity="0.79"/><circle cx="1117" cy="191" r="0.8" fill="#f7ecd2" opacity="0.82"/><circle cx="591" cy="264" r="0.8" fill="#f7ecd2" opacity="0.59"/><circle cx="730" cy="212" r="0.8" fill="#f7ecd2" opacity="0.45"/><circle cx="214" cy="255" r="1.3" fill="#f7ecd2" opacity="0.55"/><circle cx="980" cy="120" r="42" fill="#f6ecd0" opacity="0.95"/><circle cx="996" cy="112" r="36" fill="url(#sky)" opacity="0.92"/>
<rect x="330" y="370" width="540" height="190" fill="#12141c"/><path d="M 500 560 L 500 300 Q 600 230 700 300 L 700 560 Z" fill="#12141c"/><path d="M 528 560 L 528 320 Q 600 264 672 320 L 672 560 Z" fill="#0c0e14"/><path d="M 552 560 L 552 344 Q 600 298 648 344 L 648 560 Z" fill="#d8b45a" opacity="0.4"/><path d="M 430 310 C 430 177.06, 506.5 153.6, 600 153.6 C 693.5 153.6, 770 177.06, 770 310 Z" fill="#d9b98a"/><line x1="600" y1="153.6" x2="600" y2="131.6" stroke="#d8b45a" stroke-width="3"/><circle cx="600" cy="127.6" r="4.5" fill="#d8b45a"/><path d="M 600 113.6 a 8 8 0 1 0 6 13 a 6.4 6.4 0 1 1 -6 -13 Z" fill="#d8b45a"/>
<rect x="0" y="560" width="1200" height="140" fill="#0c0e14"/>

<rect x="0" y="556" width="1200" height="4" fill="#d8b45a" opacity="0.55"/>
</svg>