<svg xmlns="http://www.w3.org/2000/svg" viewBox="0 0 1200 700" role="img">
<defs>
<linearGradient id="sky" x1="0" y1="0" x2="0" y2="1">
<stop offset="0" stop-color="#0a1026"/><stop offset="0.62" stop-color="#152046"/><stop offset="1" stop-color="#2b3a6b"/>
</linearGradient>
<pattern id="g1" width="120" height="120" patternUnits="userSpaceOnUse"><polygon points="111.6,60.0 80.0,68.3 96.5,96.5 68.3,80.0 60.0,111.6 51.7,80.0 23.5,96.5 40.0,68.3 8.4,60.0 40.0,51.7 23.5,23.5 51.7,40.0 60.0,8.4 68.3,40.0 96.5,23.5 80.0,51.7" fill="none" stroke="#e8d9a8" stroke-width="1.6" opacity="0.1"/><rect x="17.4" y="17.4" width="85.2" height="85.2" fill="none" stroke="#e8d9a8" stroke-width="1.6" opacity="0.06999999999999999" transform="rotate(45 60.0 60.0)"/></pattern>
</defs>
<rect width="1200" height="700" fill="url(#sky)"/>
<rect width="1200" height="700" fill="url(#g1)"/>
<circle cx="245" cy="115" r="0.8" fill="#f7ecd2" opacity="0.60"/><circle cx="63" cy="312" r="0.8" fill="#f7ecd2" opacity="0.41"/><circle cx="114" cy="252" r="0.8" fill="#f7ecd2" opacity="0.63"/><circle cx="374" cy="211" r="0.8" fill="#f7ecd2" opacity="0.49"/><circle cx="291" cy="77" r="1.8" fill="#f7ecd2" opacity="0.42"/><circle cx="369" cy="174" r="0.8" fill="#f7ecd2" opacity="0.41"/><circle cx="200" cy="94" r="0.8" fill="#f7ecd2" opacity="0.35"/><circle cx="0" cy="73" r="1.3" fill="#f7ecd2" opacity="0.35"/><circle cx="1137" cy="19" r="1.3" fill="#f7ecd2" opacity="0.38"/><circle cx="275" cy="216" r="1.8" fill="#f7ecd2" opacity="0.35"/><circle cx="1086" cy="256" r="1.3" fill="#f7ecd2" opacity="0.51"/><circle cx="426" cy="255" r="0.8" fill="#f7ecd2" opacity="0.65"/><circle cx="383" cy="1" r="0.8" fill="#f7ecd2" opacity="0.68"/><circle cx="981" cy="238" r="1.3" fill="#f7ecd2" opacity="0.63"/><circle cx="372" cy="118" r="1.3" fill="#f7ecd2" opacity="0.81"/><circle cx="452" cy="277" r="0.8" fill="#f7ecd2" opacity="0.39"/><circle cx="429" cy="303" r="0.8" fill="#f7ecd2" opacity="0.72"/><circle cx="87" cy="300" r="0.8" fill="#f7ecd2" opacity="0.35"/><circle cx="458" cy="300" r="1.8" fill="#f7ecd2" opacity="0.35"/><circle cx="78" cy="139" r="1.3" fill="#f7ecd2" opacity="0.77"/><circle cx="75" cy="105" r="0.8" fill="#f7ecd2" opacity="0.60"/><circle cx="1193" cy="142" r="0.8" fill="#f7ecd2" opacity="0.41"/><circle cx="144" cy="322" r="1.3" fill="#f7ecd2" opacity="0.53"/><circle cx="504" cy="321" r="0.8" fill="#f7ecd2" opacity="0.69"/><circle cx="521" cy="227" r="1.3" fill="#f7ecd2" opacity="0.52"/><circle cx="699" cy="24" r="0.8" fill="#f7ecd2" opacity="0.61"/><circle cx="630" cy="324" r="0.8" fill="#f7ecd2" opacity="0.55"/><circle cx="530" cy="3" r="1.8" fill="#f7ecd2" opacity="0.75"/><circle cx="567" cy="189" r="0.8" fill="#f7ecd2" opacity="0.48"/><circle cx="1005" cy="226" r="1.3" fill="#f7ecd2" opacity="0.65"/><circle cx="716" cy="166" r="0.8" fill="#f7ecd2" opacity="0.41"/><circle cx="156" cy="205" r="1.3" fill="#f7ecd2" opacity="0.65"/><circle cx="213" cy="331" r="1.3" fill="#f7ecd2" opacity="0.38"/><circle cx="911" cy="268" r="0.8" fill="#f7ecd2" opacity="0.83"/><circle cx="402" cy="188" r="1.8" fill="#f7ecd2" opacity="0.61"/><circle cx="582" cy="47" r="1.8" fill="#f7ecd2" opacity="0.39"/><circle cx="659" cy="113" r="1.3" fill="#f7ecd2" opacity="0.52"/><circle cx="417" cy="150" r="0.8" fill="#f7ecd2" opacity="0.35"/><circle cx="888" cy="190" r="1.3" fill="#f7ecd2" opacity="0.55"/><circle cx="608" cy="69" r="1.8" fill="#f7ecd2" opacity="0.37"/><circle cx="705" cy="75" r="0.8" fill="#f7ecd2" opacity="0.60"/><circle cx="723" cy="12" r="0.8" fill="#f7ecd2" opacity="0.61"/><circle cx="974" cy="32" r="1.3" fill="#f7ecd2" opacity="0.53"/><circle cx="234" cy="271" r="1.3" fill="#f7ecd2" opacity="0.49"/><circle cx="351" cy="217" r="1.3" fill="#f7ecd2" opacity="0.52"/><circle cx="629" cy="54" r="1.8" fill="#f7ecd2" opacity="0.51"/><circle cx="660" cy="54" r="0.8" fill="#f7ecd2" opacity="0.75"/><circle cx="660" cy="113" r="1.8" fill="#f7ecd2" opacity="0.65"/><circle cx="797" cy="339" r="1.8" fill="#f7ecd2" opacity="0.68"/><circle cx="135" cy="276" r="0.8" fill="#f7ecd2" opacity="0.45"/><circle cx="1146" cy="56" r="1.8" fill="#f7ecd2" opacity="0.61"/><circle cx="686" cy="135" r="1.8" fill="#f7ecd2" opacity="0.45"/><circle cx="843" cy="301" r="1.3" fill="#f7ecd2" opacity="0.78"/><circle cx="441" cy="138" r="0.8" fill="#f7ecd2" opacity="0.43"/><circle cx="32" cy="98" r="1.3" fill="#f7ecd2" opacity="0.71"/><circle cx="312" cy="337" r="1.3" fill="#f7ecd2" opacity="0.79"/><circle cx="489" cy="103" r="1.3" fill="#f7ecd2" opacity="0.52"/><circle cx="347" cy="180" r="1.8" fill="#f7ecd2" opacity="0.45"/><circle cx="918" cy="260" r="1.8" fill="#f7ecd2" opacity="0.65"/><circle cx="738" cy="179" r="1.8" fill="#f7ecd2" opacity="0.37"/><circle cx="980" cy="120" r="42" fill="#f6ecd0" opacity="0.95"/><circle cx="996" cy="112" r="36" fill="url(#sky)" opacity="0.92"/>
<rect x="330" y="370" width="540" height="190" fill="#12141c"/><path d="M 500 560 L 500 300 Q 600 230 700 300 L 700 560 Z" fill="#12141c"/><path d="M 528 560 L 528 320 Q 600 264 672 320 L 672 560 Z" fill="#0c0e14"/><path d="M 552 560 L 552 344 Q 600 298 648 344 L 648 560 Z" fill="#d8b45a" opacity="0.4"/><path d="M 430 310 C 430 177.06, 506.5 153.6, 600 153.6 C 693.5 153.6, 770 177.06, 770 310 Z" fill="#d9b98a"/><line x1="600" y1="153.6" x2="600" y2="131.6" stroke="#d8b45a" stroke-width="3"/><circle cx="600" cy="127.6" r="4.5" fill="#d8b45a"/><path d="M 600 113.6 a 8 8 0 1 0 6 13 a 6.4 6.4 0 1 1 -6 -13 Z" fill="#d8b45a"/>
<rect x="0" y="560" width="1200" height="140" fill="#0c0e14"/>

<rect x="0" y="556" width="1200" height="4" fill="#d8b45a" opacity="0.55"/>
</svg>