<svg xmlns="http://www.w3.org/2000/svg" viewBox="0 0 1200 700" role="img">
<defs>
<linearGradient id="sky" x1="0" y1="0" x2="0" y2="1">
<stop offset="0" stop-color="#0a1026"/><stop offset="0.62" stop-color="#152046"/><stop offset="1" stop-color="#2b3a6b"/>
</linearGradient>
<pattern id="g1" width="120" height="120" patternUnits="userSpaceOnUse"><polygon points="111.6,60.0 80.0,68.3 96.5,96.5 68.3,80.0 60.0,111.6 51.7,80.0 23.5,96.5 40.0,68.3 8.4,60.0 40.0,51.7 23.5,23.5 51.7,40.0 60.0,8.4 68.3,40.0 96.5,23.5 80.0,51.7" fill="none" stroke="#e8d9a8" stroke-width="1.6" opacity="0.1"/><rect x="17.4" y="17.4" width="85.2" height="85.2" fill="none" stroke="#e8d9a8" stroke-width="1.6" opacity="0.06999999999999999" transform="rotate(45 60.0 60.0)"/></pattern>
</defs>
<rect width="1200" height="700" fill="url(#sky)"/>
<rect width="1200" height="700" fill="url(#g1)"/>
<circle cx="580" cy="300" r="1.3" fill="#f7ecd2" opacity="0.35"/><circle cx="518" cy="137" r="1.3" fill="#f7ecd2" opacity="0.51"/><circle cx="929" cy="17" r="1.3" fill="#f7ecd2" opacity="0.78"/><circle cx="1069" cy="336" r="1.3" fill="#f7ecd2" opacity="0.69"/><circle cx="626" cy="262" r="0.8" fill="#f7ecd2" opacity="0.47"/><circle cx="824" cy="339" r="1.8" fill="#f7ecd2" opacity="0.71"/><circle cx="1015" cy="199" r="1.8" fill="#f7ecd2" opacity="0.70"/><circle cx="695" cy="198" r="1.8" fill="#f7ecd2" opacity="0.45"/><circle cx="272" cy="64" r="0.8" fill="#f7ecd2" opacity="0.43"/><circle cx="730" cy="41" r="0.8" fill="#f7ecd2" opacity="0.65"/><circle cx="701" cy="221" r="1.3" fill="#f7ecd2" opacity="0.56"/><circle cx="1121" cy="40" r="0.8" fill="#f7ecd2" opacity="0.75"/><circle cx="718" cy="186" r="1.3" fill="#f7ecd2" opacity="0.83"/><circle cx="236" cy="263" r="1.3" fill="#f7ecd2" opacity="0.53"/><circle cx="1187" cy="223" r="0.8" fill="#f7ecd2" opacity="0.36"/><circle cx="1147" cy="62" r="0.8" fill="#f7ecd2" opacity="0.49"/><circle cx="764" cy="148" r="0.8" fill="#f7ecd2" opacity="0.57"/><circle cx="542" cy="125" r="1.3" fill="#f7ecd2" opacity="0.35"/><circle cx="73" cy="265" r="1.8" fill="#f7ecd2" opacity="0.80"/><circle cx="773" cy="264" r="1.8" fill="#f7ecd2" opacity="0.57"/><circle cx="410" cy="290" r="1.3" fill="#f7ecd2" opacity="0.35"/><circle cx="448" cy="167" r="0.8" fill="#f7ecd2" opacity="0.51"/><circle cx="959" cy="87" r="1.8" fill="#f7ecd2" opacity="0.68"/><circle cx="1199" cy="106" r="0.8" fill="#f7ecd2" opacity="0.79"/><circle cx="856" cy="72" r="1.3" fill="#f7ecd2" opacity="0.67"/><circle cx="1154" cy="189" r="1.8" fill="#f7ecd2" opacity="0.41"/><circle cx="245" cy="289" r="0.8" fill="#f7ecd2" opacity="0.40"/><circle cx="25" cy="328" r="1.8" fill="#f7ecd2" opacity="0.35"/><circle cx="902" cy="34" r="0.8" fill="#f7ecd2" opacity="0.53"/><circle cx="260" cy="251" r="1.3" fill="#f7ecd2" opacity="0.45"/><circle cx="331" cy="131" r="0.8" fill="#f7ecd2" opacity="0.46"/><circle cx="851" cy="330" r="1.8" fill="#f7ecd2" opacity="0.65"/><circle cx="548" cy="176" r="1.3" fill="#f7ecd2" opacity="0.83"/><circle cx="166" cy="293" r="0.8" fill="#f7ecd2" opacity="0.73"/><circle cx="17" cy="153" r="1.8" fill="#f7ecd2" opacity="0.36"/><circle cx="77" cy="32" r="1.3" fill="#f7ecd2" opacity="0.49"/><circle cx="994" cy="298" r="1.8" fill="#f7ecd2" opacity="0.47"/><circle cx="872" cy="315" r="1.8" fill="#f7ecd2" opacity="0.65"/><circle cx="503" cy="155" r="1.3" fill="#f7ecd2" opacity="0.50"/><circle cx="103" cy="54" r="1.3" fill="#f7ecd2" opacity="0.47"/><circle cx="1040" cy="260" r="1.3" fill="#f7ecd2" opacity="0.35"/><circle cx="1178" cy="177" r="1.8" fill="#f7ecd2" opacity="0.41"/><circle cx="589" cy="337" r="1.8" fill="#f7ecd2" opacity="0.78"/><circle cx="929" cy="56" r="1.3" fill="#f7ecd2" opacity="0.59"/><circle cx="686" cy="62" r="1.3" fill="#f7ecd2" opacity="0.67"/><circle cx="1084" cy="219" r="1.3" fill="#f7ecd2" opacity="0.81"/><circle cx="275" cy="19" r="0.8" fill="#f7ecd2" opacity="0.60"/><circle cx="155" cy="98" r="1.3" fill="#f7ecd2" opacity="0.75"/><circle cx="1132" cy="184" r="1.8" fill="#f7ecd2" opacity="0.73"/><circle cx="590" cy="101" r="1.3" fill="#f7ecd2" opacity="0.75"/><circle cx="761" cy="21" r="1.8" fill="#f7ecd2" opacity="0.66"/><circle cx="181" cy="120" r="1.3" fill="#f7ecd2" opacity="0.55"/><circle cx="1178" cy="146" r="1.3" fill="#f7ecd2" opacity="0.73"/><circle cx="896" cy="303" r="1.8" fill="#f7ecd2" opacity="0.73"/><circle cx="847" cy="203" r="0.8" fill="#f7ecd2" opacity="0.76"/><circle cx="1007" cy="122" r="1.3" fill="#f7ecd2" opacity="0.39"/><circle cx="824" cy="288" r="1.8" fill="#f7ecd2" opacity="0.47"/><circle cx="802" cy="5" r="0.8" fill="#f7ecd2" opacity="0.45"/><circle cx="533" cy="225" r="1.8" fill="#f7ecd2" opacity="0.60"/><circle cx="233" cy="164" r="1.3" fill="#f7ecd2" opacity="0.47"/><circle cx="980" cy="120" r="42" fill="#f6ecd0" opacity="0.95"/><circle cx="996" cy="112" r="36" fill="url(#sky)" opacity="0.92"/>
<path d="M 90 560 L 90 464 A 34 34 0 0 1 158 464 L 158 560 Z" fill="none" stroke="#b8493f" stroke-width="9" opacity="0.95"/><path d="M 186 560 L 186 464 A 34 34 0 0 1 254 464 L 254 560 Z" fill="none" stroke="#e8ddc8" stroke-width="9" opacity="0.95"/><path d="M 282 560 L 282 464 A 34 34 0 0 1 350 464 L 350 560 Z" fill="none" stroke="#b8493f" stroke-width="9" opacity="0.95"/><path d="M 378 560 L 378 464 A 34 34 0 0 1 446 464 L 446 560 Z" fill="none" stroke="#e8ddc8" stroke-width="9" opacity="0.95"/><path d="M 474 560 L 474 464 A 34 34 0 0 1 542 464 L 542 560 Z" fill="none" stroke="#b8493f" stroke-width="9" opacity="0.95"/><path d="M 570 560 L 570 464 A 34 34 0 0 1 638 464 L 638 560 Z" fill="none" stroke="#e8ddc8" stroke-width="9" opacity="0.95"/><path d="M 666 560 L 666 464 A 34 34 0 0 1 734 464 L 734 560 Z" fill="none" stroke="#b8493f" stroke-width="9" opacity="0.95"/><path d="M 762 560 L 762 464 A 34 34 0 0 1 830 464 L 830 560 Z" fill="none" stroke="#e8ddc8" stroke-width="9" opacity="0.95"/><path d="M 858 560 L 858 464 A 34 34 0 0 1 926 464 L 926 560 Z" fill="none" stroke="#b8493f" stroke-width="9" opacity="0.95"/><path d="M 954 560 L 954 464 A 34 34 0 0 1 1022 464 L 1022 560 Z" fill="none" stroke="#e8ddc8" stroke-width="9" opacity="0.95"/><path d="M 1050 560 L 1050 464 A 34 34 0 0 1 1118 464 L 1118 560 Z" fill="none" stroke="#b8493f" stroke-width="9" opacity="0.95"/><path d="M 90 430 L 90 354 A 34 34 0 0 1 158 354 L 158 430 Z" fill="none" stroke="#e8ddc8" stroke-width="9" opacity="0.8"/><path d="M 186 430 L 186 354 A 34 34 0 0 1 254 354 L 254 430 Z" fill="none" stroke="#b8493f" stroke-width="9" opacity="0.8"/><path d="M 282 430 L 282 354 A 34 34 0 0 1 350 354 L 350 430 Z" fill="none" stroke="#e8ddc8" stroke-width="9" opacity="0.8"/><path d="M 378 430 L 378 354 A 34 34 0 0 1 446 354 L 446 430 Z" fill="none" stroke="#b8493f" stroke-width="9" opacity="0.8"/><path d="M 474 430 L 474 354 A 34 34 0 0 1 542 354 L 542 430 Z" fill="none" stroke="#e8ddc8" stroke-width="9" opacity="0.8"/><path d="M 570 430 L 570 354 A 34 34 0 0 1 638 354 L 638 430 Z" fill="none" stroke="#b8493f" stroke-width="9" opacity="0.8"/><path d="M 666 430 L 666 354 A 34 34 0 0 1 734 354 L 734 430 Z" fill="none" stroke="#e8ddc8" stroke-width="9" opacity="0.8"/><path d="M 762 430 L 762 354 A 34 34 0 0 1 830 354 L 830 430 Z" fill="none" stroke="#b8493f" stroke-width="9" opacity="0.8"/><path d="M 858 430 L 858 354 A 34 34 0 0 1 926 354 L 926 430 Z" fill="none" stroke="#e8ddc8" stroke-width="9" opacity="0.8"/><path d="M 954 430 L 954 354 A 34 34 0 0 1 1022 354 L 1022 430 Z" fill="none" stroke="#b8493f" stroke-width="9" opacity="0.8"/><path d="M 1050 430 L 1050 354 A 34 34 0 0 1 1118 354 L 1118 430 Z" fill="none" stroke="#e8ddc8" stroke-width="9" opacity="0.8"/><rect x="570.0" y="70" width="60" height="250" fill="#12141c"/><rect x="580.8" y="44" width="38.4" height="26" fill="#12141c"/><circle cx="600" cy="36" r="6" fill="#d8b45a"/><circle cx="600" cy="24" r="4.5" fill="#d8b45a"/><circle cx="600" cy="14" r="3" fill="#d8b45a"/>
<rect x="0" y="560" width="1200" height="140" fill="#0c0e14"/>

<rect x="0" y="556" width="1200" height="4" fill="#d8b45a" opacity="0.55"/>
</svg>