<svg xmlns="http://www.w3.org/2000/svg" viewBox="0 0 1200 700" role="img">
<defs>
<linearGradient id="sky" x1="0" y1="0" x2="0" y2="1">
<stop offset="0" stop-color="#0a1026"/><stop offset="0.62" stop-color="#152046"/><stop offset="1" stop-color="#2b3a6b"/>
</linearGradient>
<pattern id="g1" width="120" height="120" patternUnits="userSpaceOnUse"><polygon points="111.6,60.0 80.0,68.3 96.5,96.5 68.3,80.0 60.0,111.6 51.7,80.0 23.5,96.5 40.0,68.3 8.4,60.0 40.0,51.7 23.5,23.5 51.7,40.0 60.0,8.4 68.3,40.0 96.5,23.5 80.0,51.7" fill="none" stroke="#e8d9a8" stroke-width="1.6" opacity="0.1"/><rect x="17.4" y="17.4" width="85.2" height="85.2" fill="none" stroke="#e8d9a8" stroke-width="1.6" opacity="0.06999999999999999" transform="rotate(45 60.0 60.0)"/></pattern>
</defs>
<rect width="1200" height="700" fill="url(#sky)"/>
<rect width="1200" height="700" fill="url(#g1)"/>
<circle cx="591" cy="301" r="1.3" fill="#f7ecd2" opacity="0.76"/><circle cx="121" cy="70" r="1.8" fill="#f7ecd2" opacity="0.55"/><circle cx="748" cy="186" r="1.3" fill="#f7ecd2" opacity="0.63"/><circle cx="1056" cy="273" r="0.8" fill="#f7ecd2" opacity="0.73"/><circle cx="877" cy="223" r="1.8" fill="#f7ecd2" opacity="0.56"/><circle cx="1147" cy="152" r="0.8" fill="#f7ecd2" opacity="0.79"/><circle cx="594" cy="68" r="1.8" fill="#f7ecd2" opacity="0.77"/><circle cx="1162" cy="55" r="1.8" fill="#f7ecd2" opacity="0.45"/><circle cx="763" cy="325" r="1.8" fill="#f7ecd2" opacity="0.60"/><circle cx="573" cy="274" r="1.3" fill="#f7ecd2" opacity="0.37"/><circle cx="40" cy="130" r="1.8" fill="#f7ecd2" opacity="0.35"/><circle cx="868" cy="17" r="0.8" fill="#f7ecd2" opacity="0.41"/><circle cx="249" cy="267" r="0.8" fill="#f7ecd2" opacity="0.68"/><circle cx="799" cy="36" r="1.3" fill="#f7ecd2" opacity="0.49"/><circle cx="286" cy="172" r="1.8" fill="#f7ecd2" opacity="0.77"/><circle cx="174" cy="159" r="0.8" fill="#f7ecd2" opacity="0.51"/><circle cx="535" cy="189" r="1.3" fill="#f7ecd2" opacity="0.50"/><circle cx="625" cy="318" r="1.3" fill="#f7ecd2" opacity="0.35"/><circle cx="132" cy="54" r="0.8" fill="#f7ecd2" opacity="0.63"/><circle cx="280" cy="281" r="0.8" fill="#f7ecd2" opacity="0.65"/><circle cx="421" cy="291" r="1.3" fill="#f7ecd2" opacity="0.46"/><circle cx="51" cy="100" r="1.3" fill="#f7ecd2" opacity="0.35"/><circle cx="778" cy="256" r="1.8" fill="#f7ecd2" opacity="0.53"/><circle cx="1186" cy="43" r="1.8" fill="#f7ecd2" opacity="0.83"/><circle cx="1107" cy="33" r="0.8" fill="#f7ecd2" opacity="0.66"/><circle cx="277" cy="202" r="1.8" fill="#f7ecd2" opacity="0.39"/><circle cx="1024" cy="298" r="1.8" fill="#f7ecd2" opacity="0.37"/><circle cx="492" cy="185" r="1.8" fill="#f7ecd2" opacity="0.55"/><circle cx="193" cy="155" r="0.8" fill="#f7ecd2" opacity="0.50"/><circle cx="103" cy="144" r="1.3" fill="#f7ecd2" opacity="0.67"/><circle cx="870" cy="180" r="0.8" fill="#f7ecd2" opacity="0.35"/><circle cx="598" cy="307" r="1.8" fill="#f7ecd2" opacity="0.71"/><circle cx="79" cy="257" r="0.8" fill="#f7ecd2" opacity="0.38"/><circle cx="729" cy="66" r="0.8" fill="#f7ecd2" opacity="0.49"/><circle cx="316" cy="242" r="0.8" fill="#f7ecd2" opacity="0.57"/><circle cx="304" cy="269" r="0.8" fill="#f7ecd2" opacity="0.61"/><circle cx="765" cy="339" r="0.8" fill="#f7ecd2" opacity="0.70"/><circle cx="955" cy="168" r="1.3" fill="#f7ecd2" opacity="0.75"/><circle cx="562" cy="284" r="0.8" fill="#f7ecd2" opacity="0.43"/><circle cx="810" cy="211" r="1.3" fill="#f7ecd2" opacity="0.45"/><circle cx="1051" cy="261" r="1.3" fill="#f7ecd2" opacity="0.46"/><circle cx="781" cy="110" r="0.8" fill="#f7ecd2" opacity="0.45"/><circle cx="408" cy="166" r="1.3" fill="#f7ecd2" opacity="0.63"/><circle cx="916" cy="333" r="1.3" fill="#f7ecd2" opacity="0.63"/><circle cx="937" cy="23" r="0.8" fill="#f7ecd2" opacity="0.36"/><circle cx="207" cy="232" r="1.3" fill="#f7ecd2" opacity="0.59"/><circle cx="1054" cy="28" r="1.8" fill="#f7ecd2" opacity="0.47"/><circle cx="622" cy="295" r="1.8" fill="#f7ecd2" opacity="0.75"/><circle cx="423" cy="305" r="1.8" fill="#f7ecd2" opacity="0.50"/><circle cx="433" cy="334" r="1.8" fill="#f7ecd2" opacity="0.57"/><circle cx="100" cy="270" r="1.3" fill="#f7ecd2" opacity="0.35"/><circle cx="1128" cy="237" r="0.8" fill="#f7ecd2" opacity="0.71"/><circle cx="709" cy="227" r="0.8" fill="#f7ecd2" opacity="0.78"/><circle cx="259" cy="276" r="1.3" fill="#f7ecd2" opacity="0.69"/><circle cx="1146" cy="292" r="1.3" fill="#f7ecd2" opacity="0.67"/><circle cx="34" cy="219" r="1.3" fill="#f7ecd2" opacity="0.81"/><circle cx="595" cy="329" r="0.8" fill="#f7ecd2" opacity="0.40"/><circle cx="885" cy="198" r="0.8" fill="#f7ecd2" opacity="0.65"/><circle cx="592" cy="14" r="0.8" fill="#f7ecd2" opacity="0.73"/><circle cx="940" cy="321" r="1.3" fill="#f7ecd2" opacity="0.75"/><circle cx="980" cy="120" r="42" fill="#f6ecd0" opacity="0.95"/><circle cx="996" cy="112" r="36" fill="url(#sky)" opacity="0.92"/>
<path d="M 90 560 L 90 464 A 34 34 0 0 1 158 464 L 158 560 Z" fill="none" stroke="#b8493f" stroke-width="9" opacity="0.95"/><path d="M 186 560 L 186 464 A 34 34 0 0 1 254 464 L 254 560 Z" fill="none" stroke="#e8ddc8" stroke-width="9" opacity="0.95"/><path d="M 282 560 L 282 464 A 34 34 0 0 1 350 464 L 350 560 Z" fill="none" stroke="#b8493f" stroke-width="9" opacity="0.95"/><path d="M 378 560 L 378 464 A 34 34 0 0 1 446 464 L 446 560 Z" fill="none" stroke="#e8ddc8" stroke-width="9" opacity="0.95"/><path d="M 474 560 L 474 464 A 34 34 0 0 1 542 464 L 542 560 Z" fill="none" stroke="#b8493f" stroke-width="9" opacity="0.95"/><path d="M 570 560 L 570 464 A 34 34 0 0 1 638 464 L 638 560 Z" fill="none" stroke="#e8ddc8" stroke-width="9" opacity="0.95"/><path d="M 666 560 L 666 464 A 34 34 0 0 1 734 464 L 734 560 Z" fill="none" stroke="#b8493f" stroke-width="9" opacity="0.95"/><path d="M 762 560 L 762 464 A 34 34 0 0 1 830 464 L 830 560 Z" fill="none" stroke="#e8ddc8" stroke-width="9" opacity="0.95"/><path d="M 858 560 L 858 464 A 34 34 0 0 1 926 464 L 926 560 Z" fill="none" stroke="#b8493f" stroke-width="9" opacity="0.95"/><path d="M 954 560 L 954 464 A 34 34 0 0 1 1022 464 L 1022 560 Z" fill="none" stroke="#e8ddc8" stroke-width="9" opacity="0.95"/><path d="M 1050 560 L 1050 464 A 34 34 0 0 1 1118 464 L 1118 560 Z" fill="none" stroke="#b8493f" stroke-width="9" opacity="0.95"/><path d="M 90 430 L 90 354 A 34 34 0 0 1 158 354 L 158 430 Z" fill="none" stroke="#e8ddc8" stroke-width="9" opacity="0.8"/><path d="M 186 430 L 186 354 A 34 34 0 0 1 254 354 L 254 430 Z" fill="none" stroke="#b8493f" stroke-width="9" opacity="0.8"/><path d="M 282 430 L 282 354 A 34 34 0 0 1 350 354 L 350 430 Z" fill="none" stroke="#e8ddc8" stroke-width="9" opacity="0.8"/><path d="M 378 430 L 378 354 A 34 34 0 0 1 446 354 L 446 430 Z" fill="none" stroke="#b8493f" stroke-width="9" opacity="0.8"/><path d="M 474 430 L 474 354 A 34 34 0 0 1 542 354 L 542 430 Z" fill="none" stroke="#e8ddc8" stroke-width="9" opacity="0.8"/><path d="M 570 430 L 570 354 A 34 34 0 0 1 638 354 L 638 430 Z" fill="none" stroke="#b8493f" stroke-width="9" opacity="0.8"/><path d="M 666 430 L 666 354 A 34 34 0 0 1 734 354 L 734 430 Z" fill="none" stroke="#e8ddc8" stroke-width="9" opacity="0.8"/><path d="M 762 430 L 762 354 A 34 34 0 0 1 830 354 L 830 430 Z" fill="none" stroke="#b8493f" stroke-width="9" opacity="0.8"/><path d="M 858 430 L 858 354 A 34 34 0 0 1 926 354 L 926 430 Z" fill="none" stroke="#e8ddc8" stroke-width="9" opacity="0.8"/><path d="M 954 430 L 954 354 A 34 34 0 0 1 1022 354 L 1022 430 Z" fill="none" stroke="#b8493f" stroke-width="9" opacity="0.8"/><path d="M 1050 430 L 1050 354 A 34 34 0 0 1 1118 354 L 1118 430 Z" fill="none" stroke="#e8ddc8" stroke-width="9" opacity="0.8"/><rect x="570.0" y="70" width="60" height="250" fill="#12141c"/><rect x="580.8" y="44" width="38.4" height="26" fill="#12141c"/><circle cx="600" cy="36" r="6" fill="#d8b45a"/><circle cx="600" cy="24" r="4.5" fill="#d8b45a"/><circle cx="600" cy="14" r="3" fill="#d8b45a"/>
<rect x="0" y="560" width="1200" height="140" fill="#0c0e14"/>

<rect x="0" y="556" width="1200" height="4" fill="#d8b45a" opacity="0.55"/>
</svg>