<svg xmlns="http://www.w3.org/2000/svg" viewBox="0 0 1200 700" role="img">
<defs>
<linearGradient id="sky" x1="0" y1="0" x2="0" y2="1">
<stop offset="0" stop-color="#0a1026"/><stop offset="0.62" stop-color="#152046"/><stop offset="1" stop-color="#2b3a6b"/>
</linearGradient>
<pattern id="g1" width="120" height="120" patternUnits="userSpaceOnUse"><polygon points="111.6,60.0 80.0,68.3 96.5,96.5 68.3,80.0 60.0,111.6 51.7,80.0 23.5,96.5 40.0,68.3 8.4,60.0 40.0,51.7 23.5,23.5 51.7,40.0 60.0,8.4 68.3,40.0 96.5,23.5 80.0,51.7" fill="none" stroke="#e8d9a8" stroke-width="1.6" opacity="0.1"/><rect x="17.4" y="17.4" width="85.2" height="85.2" fill="none" stroke="#e8d9a8" stroke-width="1.6" opacity="0.06999999999999999" transform="rotate(45 60.0 60.0)"/></pattern>
</defs>
<rect width="1200" height="700" fill="url(#sky)"/>
<rect width="1200" height="700" fill="url(#g1)"/>
<circle cx="1108" cy="8" r="0.8" fill="#f7ecd2" opacity="0.49"/><circle cx="662" cy="181" r="0.8" fill="#f7ecd2" opacity="0.57"/><circle cx="641" cy="269" r="1.3" fill="#f7ecd2" opacity="0.64"/><circle cx="445" cy="32" r="0.8" fill="#f7ecd2" opacity="0.75"/><circle cx="674" cy="50" r="1.3" fill="#f7ecd2" opacity="0.35"/><circle cx="728" cy="83" r="1.3" fill="#f7ecd2" opacity="0.59"/><circle cx="7" cy="231" r="1.3" fill="#f7ecd2" opacity="0.52"/><circle cx="311" cy="194" r="1.3" fill="#f7ecd2" opacity="0.69"/><circle cx="1040" cy="72" r="1.8" fill="#f7ecd2" opacity="0.65"/><circle cx="394" cy="165" r="1.3" fill="#f7ecd2" opacity="0.45"/><circle cx="173" cy="173" r="1.3" fill="#f7ecd2" opacity="0.64"/><circle cx="977" cy="336" r="1.8" fill="#f7ecd2" opacity="0.57"/><circle cx="1006" cy="274" r="1.8" fill="#f7ecd2" opacity="0.79"/><circle cx="860" cy="227" r="1.3" fill="#f7ecd2" opacity="0.55"/><circle cx="1139" cy="95" r="1.3" fill="#f7ecd2" opacity="0.40"/><circle cx="43" cy="178" r="1.8" fill="#f7ecd2" opacity="0.39"/><circle cx="572" cy="316" r="0.8" fill="#f7ecd2" opacity="0.37"/><circle cx="926" cy="129" r="1.8" fill="#f7ecd2" opacity="0.39"/><circle cx="505" cy="57" r="1.3" fill="#f7ecd2" opacity="0.70"/><circle cx="1109" cy="140" r="1.3" fill="#f7ecd2" opacity="0.45"/><circle cx="938" cy="338" r="1.3" fill="#f7ecd2" opacity="0.79"/><circle cx="592" cy="211" r="1.8" fill="#f7ecd2" opacity="0.47"/><circle cx="671" cy="339" r="1.8" fill="#f7ecd2" opacity="0.54"/><circle cx="575" cy="142" r="0.8" fill="#f7ecd2" opacity="0.35"/><circle cx="904" cy="200" r="0.8" fill="#f7ecd2" opacity="0.35"/><circle cx="1058" cy="273" r="1.8" fill="#f7ecd2" opacity="0.69"/><circle cx="437" cy="121" r="0.8" fill="#f7ecd2" opacity="0.62"/><circle cx="841" cy="124" r="1.8" fill="#f7ecd2" opacity="0.69"/><circle cx="470" cy="242" r="1.3" fill="#f7ecd2" opacity="0.75"/><circle cx="1124" cy="175" r="0.8" fill="#f7ecd2" opacity="0.35"/><circle cx="1003" cy="223" r="1.8" fill="#f7ecd2" opacity="0.54"/><circle cx="707" cy="286" r="0.8" fill="#f7ecd2" opacity="0.37"/><circle cx="836" cy="264" r="1.8" fill="#f7ecd2" opacity="0.39"/><circle cx="790" cy="257" r="0.8" fill="#f7ecd2" opacity="0.65"/><circle cx="1169" cy="165" r="1.8" fill="#f7ecd2" opacity="0.70"/><circle cx="173" cy="288" r="1.8" fill="#f7ecd2" opacity="0.59"/><circle cx="802" cy="126" r="1.3" fill="#f7ecd2" opacity="0.37"/><circle cx="56" cy="179" r="1.3" fill="#f7ecd2" opacity="0.59"/><circle cx="935" cy="287" r="1.3" fill="#f7ecd2" opacity="0.80"/><circle cx="439" cy="270" r="1.3" fill="#f7ecd2" opacity="0.65"/><circle cx="368" cy="168" r="1.8" fill="#f7ecd2" opacity="0.59"/><circle cx="122" cy="81" r="1.8" fill="#f7ecd2" opacity="0.67"/><circle cx="301" cy="249" r="1.3" fill="#f7ecd2" opacity="0.84"/><circle cx="305" cy="92" r="1.3" fill="#f7ecd2" opacity="0.45"/><circle cx="734" cy="190" r="0.8" fill="#f7ecd2" opacity="0.45"/><circle cx="988" cy="303" r="1.3" fill="#f7ecd2" opacity="0.49"/><circle cx="467" cy="191" r="1.3" fill="#f7ecd2" opacity="0.82"/><circle cx="971" cy="234" r="1.8" fill="#f7ecd2" opacity="0.49"/><circle cx="700" cy="52" r="1.8" fill="#f7ecd2" opacity="0.35"/><circle cx="254" cy="225" r="1.8" fill="#f7ecd2" opacity="0.35"/><circle cx="233" cy="313" r="0.8" fill="#f7ecd2" opacity="0.64"/><circle cx="37" cy="76" r="1.8" fill="#f7ecd2" opacity="0.47"/><circle cx="266" cy="94" r="0.8" fill="#f7ecd2" opacity="0.39"/><circle cx="320" cy="127" r="0.8" fill="#f7ecd2" opacity="0.75"/><circle cx="799" cy="75" r="1.3" fill="#f7ecd2" opacity="0.60"/><circle cx="1103" cy="38" r="1.3" fill="#f7ecd2" opacity="0.49"/><circle cx="632" cy="116" r="1.3" fill="#f7ecd2" opacity="0.47"/><circle cx="1186" cy="9" r="1.3" fill="#f7ecd2" opacity="0.59"/><circle cx="965" cy="17" r="1.3" fill="#f7ecd2" opacity="0.40"/><circle cx="569" cy="40" r="0.8" fill="#f7ecd2" opacity="0.45"/><circle cx="980" cy="120" r="42" fill="#f6ecd0" opacity="0.95"/><circle cx="996" cy="112" r="36" fill="url(#sky)" opacity="0.92"/>
<path d="M 90 560 L 90 464 A 34 34 0 0 1 158 464 L 158 560 Z" fill="none" stroke="#b8493f" stroke-width="9" opacity="0.95"/><path d="M 186 560 L 186 464 A 34 34 0 0 1 254 464 L 254 560 Z" fill="none" stroke="#e8ddc8" stroke-width="9" opacity="0.95"/><path d="M 282 560 L 282 464 A 34 34 0 0 1 350 464 L 350 560 Z" fill="none" stroke="#b8493f" stroke-width="9" opacity="0.95"/><path d="M 378 560 L 378 464 A 34 34 0 0 1 446 464 L 446 560 Z" fill="none" stroke="#e8ddc8" stroke-width="9" opacity="0.95"/><path d="M 474 560 L 474 464 A 34 34 0 0 1 542 464 L 542 560 Z" fill="none" stroke="#b8493f" stroke-width="9" opacity="0.95"/><path d="M 570 560 L 570 464 A 34 34 0 0 1 638 464 L 638 560 Z" fill="none" stroke="#e8ddc8" stroke-width="9" opacity="0.95"/><path d="M 666 560 L 666 464 A 34 34 0 0 1 734 464 L 734 560 Z" fill="none" stroke="#b8493f" stroke-width="9" opacity="0.95"/><path d="M 762 560 L 762 464 A 34 34 0 0 1 830 464 L 830 560 Z" fill="none" stroke="#e8ddc8" stroke-width="9" opacity="0.95"/><path d="M 858 560 L 858 464 A 34 34 0 0 1 926 464 L 926 560 Z" fill="none" stroke="#b8493f" stroke-width="9" opacity="0.95"/><path d="M 954 560 L 954 464 A 34 34 0 0 1 1022 464 L 1022 560 Z" fill="none" stroke="#e8ddc8" stroke-width="9" opacity="0.95"/><path d="M 1050 560 L 1050 464 A 34 34 0 0 1 1118 464 L 1118 560 Z" fill="none" stroke="#b8493f" stroke-width="9" opacity="0.95"/><path d="M 90 430 L 90 354 A 34 34 0 0 1 158 354 L 158 430 Z" fill="none" stroke="#e8ddc8" stroke-width="9" opacity="0.8"/><path d="M 186 430 L 186 354 A 34 34 0 0 1 254 354 L 254 430 Z" fill="none" stroke="#b8493f" stroke-width="9" opacity="0.8"/><path d="M 282 430 L 282 354 A 34 34 0 0 1 350 354 L 350 430 Z" fill="none" stroke="#e8ddc8" stroke-width="9" opacity="0.8"/><path d="M 378 430 L 378 354 A 34 34 0 0 1 446 354 L 446 430 Z" fill="none" stroke="#b8493f" stroke-width="9" opacity="0.8"/><path d="M 474 430 L 474 354 A 34 34 0 0 1 542 354 L 542 430 Z" fill="none" stroke="#e8ddc8" stroke-width="9" opacity="0.8"/><path d="M 570 430 L 570 354 A 34 34 0 0 1 638 354 L 638 430 Z" fill="none" stroke="#b8493f" stroke-width="9" opacity="0.8"/><path d="M 666 430 L 666 354 A 34 34 0 0 1 734 354 L 734 430 Z" fill="none" stroke="#e8ddc8" stroke-width="9" opacity="0.8"/><path d="M 762 430 L 762 354 A 34 34 0 0 1 830 354 L 830 430 Z" fill="none" stroke="#b8493f" stroke-width="9" opacity="0.8"/><path d="M 858 430 L 858 354 A 34 34 0 0 1 926 354 L 926 430 Z" fill="none" stroke="#e8ddc8" stroke-width="9" opacity="0.8"/><path d="M 954 430 L 954 354 A 34 34 0 0 1 1022 354 L 1022 430 Z" fill="none" stroke="#b8493f" stroke-width="9" opacity="0.8"/><path d="M 1050 430 L 1050 354 A 34 34 0 0 1 1118 354 L 1118 430 Z" fill="none" stroke="#e8ddc8" stroke-width="9" opacity="0.8"/><rect x="570.0" y="70" width="60" height="250" fill="#12141c"/><rect x="580.8" y="44" width="38.4" height="26" fill="#12141c"/><circle cx="600" cy="36" r="6" fill="#d8b45a"/><circle cx="600" cy="24" r="4.5" fill="#d8b45a"/><circle cx="600" cy="14" r="3" fill="#d8b45a"/>
<rect x="0" y="560" width="1200" height="140" fill="#0c0e14"/>

<rect x="0" y="556" width="1200" height="4" fill="#d8b45a" opacity="0.55"/>
</svg>