<svg xmlns="http://www.w3.org/2000/svg" viewBox="0 0 1200 700" role="img">
<defs>
<linearGradient id="sky" x1="0" y1="0" x2="0" y2="1">
<stop offset="0" stop-color="#0a1026"/><stop offset="0.62" stop-color="#152046"/><stop offset="1" stop-color="#2b3a6b"/>
</linearGradient>
<pattern id="g1" width="120" height="120" patternUnits="userSpaceOnUse"><polygon points="111.6,60.0 80.0,68.3 96.5,96.5 68.3,80.0 60.0,111.6 51.7,80.0 23.5,96.5 40.0,68.3 8.4,60.0 40.0,51.7 23.5,23.5 51.7,40.0 60.0,8.4 68.3,40.0 96.5,23.5 80.0,51.7" fill="none" stroke="#e8d9a8" stroke-width="1.6" opacity="0.1"/><rect x="17.4" y="17.4" width="85.2" height="85.2" fill="none" stroke="#e8d9a8" stroke-width="1.6" opacity="0.06999999999999999" transform="rotate(45 60.0 60.0)"/></pattern>
</defs>
<rect width="1200" height="700" fill="url(#sky)"/>
<rect width="1200" height="700" fill="url(#g1)"/>
<circle cx="930" cy="270" r="0.8" fill="#f7ecd2" opacity="0.35"/><circle cx="868" cy="107" r="0.8" fill="#f7ecd2" opacity="0.61"/><circle cx="79" cy="187" r="1.8" fill="#f7ecd2" opacity="0.58"/><circle cx="219" cy="166" r="1.3" fill="#f7ecd2" opacity="0.39"/><circle cx="976" cy="232" r="1.8" fill="#f7ecd2" opacity="0.67"/><circle cx="1174" cy="309" r="1.3" fill="#f7ecd2" opacity="0.51"/><circle cx="165" cy="29" r="1.8" fill="#f7ecd2" opacity="0.70"/><circle cx="1045" cy="168" r="1.3" fill="#f7ecd2" opacity="0.45"/><circle cx="622" cy="34" r="1.8" fill="#f7ecd2" opacity="0.83"/><circle cx="1080" cy="11" r="1.8" fill="#f7ecd2" opacity="0.65"/><circle cx="1051" cy="191" r="0.8" fill="#f7ecd2" opacity="0.76"/><circle cx="271" cy="210" r="1.3" fill="#f7ecd2" opacity="0.45"/><circle cx="1068" cy="156" r="0.8" fill="#f7ecd2" opacity="0.43"/><circle cx="586" cy="233" r="0.8" fill="#f7ecd2" opacity="0.73"/><circle cx="337" cy="53" r="0.8" fill="#f7ecd2" opacity="0.46"/><circle cx="297" cy="232" r="1.3" fill="#f7ecd2" opacity="0.39"/><circle cx="1114" cy="118" r="1.8" fill="#f7ecd2" opacity="0.37"/><circle cx="892" cy="95" r="0.8" fill="#f7ecd2" opacity="0.75"/><circle cx="423" cy="235" r="1.3" fill="#f7ecd2" opacity="0.40"/><circle cx="1123" cy="234" r="1.3" fill="#f7ecd2" opacity="0.67"/><circle cx="760" cy="260" r="0.8" fill="#f7ecd2" opacity="0.35"/><circle cx="798" cy="137" r="1.8" fill="#f7ecd2" opacity="0.61"/><circle cx="109" cy="257" r="0.8" fill="#f7ecd2" opacity="0.48"/><circle cx="349" cy="276" r="1.3" fill="#f7ecd2" opacity="0.59"/><circle cx="6" cy="242" r="1.8" fill="#f7ecd2" opacity="0.37"/><circle cx="304" cy="19" r="1.8" fill="#f7ecd2" opacity="0.61"/><circle cx="595" cy="259" r="1.8" fill="#f7ecd2" opacity="0.40"/><circle cx="375" cy="298" r="1.3" fill="#f7ecd2" opacity="0.35"/><circle cx="52" cy="204" r="1.3" fill="#f7ecd2" opacity="0.43"/><circle cx="610" cy="221" r="0.8" fill="#f7ecd2" opacity="0.45"/><circle cx="681" cy="101" r="1.8" fill="#f7ecd2" opacity="0.66"/><circle cx="1" cy="160" r="1.8" fill="#f7ecd2" opacity="0.45"/><circle cx="898" cy="146" r="0.8" fill="#f7ecd2" opacity="0.43"/><circle cx="516" cy="263" r="1.8" fill="#f7ecd2" opacity="0.43"/><circle cx="367" cy="123" r="1.3" fill="#f7ecd2" opacity="0.76"/><circle cx="427" cy="2" r="0.8" fill="#f7ecd2" opacity="0.39"/><circle cx="144" cy="128" r="1.8" fill="#f7ecd2" opacity="0.67"/><circle cx="22" cy="145" r="1.8" fill="#f7ecd2" opacity="0.75"/><circle cx="853" cy="125" r="0.8" fill="#f7ecd2" opacity="0.60"/><circle cx="453" cy="24" r="0.8" fill="#f7ecd2" opacity="0.57"/><circle cx="190" cy="90" r="1.3" fill="#f7ecd2" opacity="0.35"/><circle cx="328" cy="7" r="1.8" fill="#f7ecd2" opacity="0.81"/><circle cx="939" cy="307" r="1.3" fill="#f7ecd2" opacity="0.58"/><circle cx="79" cy="226" r="1.8" fill="#f7ecd2" opacity="0.39"/><circle cx="1036" cy="32" r="0.8" fill="#f7ecd2" opacity="0.37"/><circle cx="234" cy="49" r="1.3" fill="#f7ecd2" opacity="0.51"/><circle cx="625" cy="329" r="0.8" fill="#f7ecd2" opacity="0.60"/><circle cx="505" cy="68" r="0.8" fill="#f7ecd2" opacity="0.75"/><circle cx="282" cy="14" r="1.8" fill="#f7ecd2" opacity="0.83"/><circle cx="940" cy="71" r="0.8" fill="#f7ecd2" opacity="0.75"/><circle cx="1111" cy="331" r="1.8" fill="#f7ecd2" opacity="0.76"/><circle cx="531" cy="90" r="0.8" fill="#f7ecd2" opacity="0.75"/><circle cx="328" cy="316" r="1.8" fill="#f7ecd2" opacity="0.83"/><circle cx="46" cy="133" r="1.8" fill="#f7ecd2" opacity="0.53"/><circle cx="1197" cy="173" r="1.8" fill="#f7ecd2" opacity="0.66"/><circle cx="157" cy="292" r="1.8" fill="#f7ecd2" opacity="0.79"/><circle cx="1174" cy="258" r="1.3" fill="#f7ecd2" opacity="0.77"/><circle cx="1152" cy="315" r="0.8" fill="#f7ecd2" opacity="0.65"/><circle cx="883" cy="195" r="1.3" fill="#f7ecd2" opacity="0.70"/><circle cx="583" cy="134" r="0.8" fill="#f7ecd2" opacity="0.57"/><circle cx="980" cy="120" r="42" fill="#f6ecd0" opacity="0.95"/><circle cx="996" cy="112" r="36" fill="url(#sky)" opacity="0.92"/>
<path d="M 90 560 L 90 464 A 34 34 0 0 1 158 464 L 158 560 Z" fill="none" stroke="#b8493f" stroke-width="9" opacity="0.95"/><path d="M 186 560 L 186 464 A 34 34 0 0 1 254 464 L 254 560 Z" fill="none" stroke="#e8ddc8" stroke-width="9" opacity="0.95"/><path d="M 282 560 L 282 464 A 34 34 0 0 1 350 464 L 350 560 Z" fill="none" stroke="#b8493f" stroke-width="9" opacity="0.95"/><path d="M 378 560 L 378 464 A 34 34 0 0 1 446 464 L 446 560 Z" fill="none" stroke="#e8ddc8" stroke-width="9" opacity="0.95"/><path d="M 474 560 L 474 464 A 34 34 0 0 1 542 464 L 542 560 Z" fill="none" stroke="#b8493f" stroke-width="9" opacity="0.95"/><path d="M 570 560 L 570 464 A 34 34 0 0 1 638 464 L 638 560 Z" fill="none" stroke="#e8ddc8" stroke-width="9" opacity="0.95"/><path d="M 666 560 L 666 464 A 34 34 0 0 1 734 464 L 734 560 Z" fill="none" stroke="#b8493f" stroke-width="9" opacity="0.95"/><path d="M 762 560 L 762 464 A 34 34 0 0 1 830 464 L 830 560 Z" fill="none" stroke="#e8ddc8" stroke-width="9" opacity="0.95"/><path d="M 858 560 L 858 464 A 34 34 0 0 1 926 464 L 926 560 Z" fill="none" stroke="#b8493f" stroke-width="9" opacity="0.95"/><path d="M 954 560 L 954 464 A 34 34 0 0 1 1022 464 L 1022 560 Z" fill="none" stroke="#e8ddc8" stroke-width="9" opacity="0.95"/><path d="M 1050 560 L 1050 464 A 34 34 0 0 1 1118 464 L 1118 560 Z" fill="none" stroke="#b8493f" stroke-width="9" opacity="0.95"/><path d="M 90 430 L 90 354 A 34 34 0 0 1 158 354 L 158 430 Z" fill="none" stroke="#e8ddc8" stroke-width="9" opacity="0.8"/><path d="M 186 430 L 186 354 A 34 34 0 0 1 254 354 L 254 430 Z" fill="none" stroke="#b8493f" stroke-width="9" opacity="0.8"/><path d="M 282 430 L 282 354 A 34 34 0 0 1 350 354 L 350 430 Z" fill="none" stroke="#e8ddc8" stroke-width="9" opacity="0.8"/><path d="M 378 430 L 378 354 A 34 34 0 0 1 446 354 L 446 430 Z" fill="none" stroke="#b8493f" stroke-width="9" opacity="0.8"/><path d="M 474 430 L 474 354 A 34 34 0 0 1 542 354 L 542 430 Z" fill="none" stroke="#e8ddc8" stroke-width="9" opacity="0.8"/><path d="M 570 430 L 570 354 A 34 34 0 0 1 638 354 L 638 430 Z" fill="none" stroke="#b8493f" stroke-width="9" opacity="0.8"/><path d="M 666 430 L 666 354 A 34 34 0 0 1 734 354 L 734 430 Z" fill="none" stroke="#e8ddc8" stroke-width="9" opacity="0.8"/><path d="M 762 430 L 762 354 A 34 34 0 0 1 830 354 L 830 430 Z" fill="none" stroke="#b8493f" stroke-width="9" opacity="0.8"/><path d="M 858 430 L 858 354 A 34 34 0 0 1 926 354 L 926 430 Z" fill="none" stroke="#e8ddc8" stroke-width="9" opacity="0.8"/><path d="M 954 430 L 954 354 A 34 34 0 0 1 1022 354 L 1022 430 Z" fill="none" stroke="#b8493f" stroke-width="9" opacity="0.8"/><path d="M 1050 430 L 1050 354 A 34 34 0 0 1 1118 354 L 1118 430 Z" fill="none" stroke="#e8ddc8" stroke-width="9" opacity="0.8"/><rect x="570.0" y="70" width="60" height="250" fill="#12141c"/><rect x="580.8" y="44" width="38.4" height="26" fill="#12141c"/><circle cx="600" cy="36" r="6" fill="#d8b45a"/><circle cx="600" cy="24" r="4.5" fill="#d8b45a"/><circle cx="600" cy="14" r="3" fill="#d8b45a"/>
<rect x="0" y="560" width="1200" height="140" fill="#0c0e14"/>

<rect x="0" y="556" width="1200" height="4" fill="#d8b45a" opacity="0.55"/>
</svg>