<svg xmlns="http://www.w3.org/2000/svg" viewBox="0 0 1200 700" role="img">
<defs>
<linearGradient id="sky" x1="0" y1="0" x2="0" y2="1">
<stop offset="0" stop-color="#0a1026"/><stop offset="0.62" stop-color="#152046"/><stop offset="1" stop-color="#2b3a6b"/>
</linearGradient>
<pattern id="g1" width="120" height="120" patternUnits="userSpaceOnUse"><polygon points="111.6,60.0 80.0,68.3 96.5,96.5 68.3,80.0 60.0,111.6 51.7,80.0 23.5,96.5 40.0,68.3 8.4,60.0 40.0,51.7 23.5,23.5 51.7,40.0 60.0,8.4 68.3,40.0 96.5,23.5 80.0,51.7" fill="none" stroke="#e8d9a8" stroke-width="1.6" opacity="0.1"/><rect x="17.4" y="17.4" width="85.2" height="85.2" fill="none" stroke="#e8d9a8" stroke-width="1.6" opacity="0.06999999999999999" transform="rotate(45 60.0 60.0)"/></pattern>
</defs>
<rect width="1200" height="700" fill="url(#sky)"/>
<rect width="1200" height="700" fill="url(#g1)"/>
<circle cx="869" cy="79" r="0.8" fill="#f7ecd2" opacity="0.36"/><circle cx="15" cy="184" r="1.3" fill="#f7ecd2" opacity="0.45"/><circle cx="210" cy="168" r="0.8" fill="#f7ecd2" opacity="0.65"/><circle cx="182" cy="39" r="1.8" fill="#f7ecd2" opacity="0.83"/><circle cx="675" cy="81" r="0.8" fill="#f7ecd2" opacity="0.60"/><circle cx="801" cy="306" r="0.8" fill="#f7ecd2" opacity="0.41"/><circle cx="536" cy="310" r="0.8" fill="#f7ecd2" opacity="0.45"/><circle cx="528" cy="121" r="1.3" fill="#f7ecd2" opacity="0.73"/><circle cx="81" cy="263" r="1.8" fill="#f7ecd2" opacity="0.38"/><circle cx="1187" cy="268" r="0.8" fill="#f7ecd2" opacity="0.51"/><circle cx="462" cy="292" r="1.3" fill="#f7ecd2" opacity="0.39"/><circle cx="474" cy="43" r="1.3" fill="#f7ecd2" opacity="0.67"/><circle cx="287" cy="85" r="0.8" fill="#f7ecd2" opacity="0.80"/><circle cx="1173" cy="70" r="1.3" fill="#f7ecd2" opacity="0.45"/><circle cx="1188" cy="254" r="1.8" fill="#f7ecd2" opacity="0.37"/><circle cx="20" cy="145" r="0.8" fill="#f7ecd2" opacity="0.35"/><circle cx="93" cy="87" r="0.8" fill="#f7ecd2" opacity="0.76"/><circle cx="759" cy="52" r="1.3" fill="#f7ecd2" opacity="0.53"/><circle cx="314" cy="256" r="0.8" fill="#f7ecd2" opacity="0.69"/><circle cx="366" cy="227" r="1.8" fill="#f7ecd2" opacity="0.67"/><circle cx="699" cy="69" r="0.8" fill="#f7ecd2" opacity="0.66"/><circle cx="1145" cy="14" r="1.3" fill="#f7ecd2" opacity="0.65"/><circle cx="240" cy="238" r="1.3" fill="#f7ecd2" opacity="0.55"/><circle cx="312" cy="149" r="1.8" fill="#f7ecd2" opacity="0.73"/><circle cx="905" cy="231" r="1.8" fill="#f7ecd2" opacity="0.40"/><circle cx="1131" cy="156" r="0.8" fill="#f7ecd2" opacity="0.71"/><circle cx="966" cy="200" r="1.8" fill="#f7ecd2" opacity="0.35"/><circle cx="1058" cy="51" r="1.8" fill="#f7ecd2" opacity="0.43"/><circle cx="711" cy="233" r="1.8" fill="#f7ecd2" opacity="0.48"/><circle cx="717" cy="138" r="0.8" fill="#f7ecd2" opacity="0.81"/><circle cx="92" cy="202" r="0.8" fill="#f7ecd2" opacity="0.69"/><circle cx="204" cy="333" r="0.8" fill="#f7ecd2" opacity="0.67"/><circle cx="117" cy="75" r="0.8" fill="#f7ecd2" opacity="0.60"/><circle cx="1103" cy="100" r="0.8" fill="#f7ecd2" opacity="0.35"/><circle cx="18" cy="184" r="1.3" fill="#f7ecd2" opacity="0.47"/><circle cx="150" cy="255" r="0.8" fill="#f7ecd2" opacity="0.35"/><circle cx="323" cy="237" r="1.8" fill="#f7ecd2" opacity="0.36"/><circle cx="1089" cy="242" r="1.8" fill="#f7ecd2" opacity="0.73"/><circle cx="744" cy="146" r="1.8" fill="#f7ecd2" opacity="0.59"/><circle cx="896" cy="157" r="0.8" fill="#f7ecd2" opacity="0.57"/><circle cx="129" cy="239" r="1.8" fill="#f7ecd2" opacity="0.66"/><circle cx="675" cy="224" r="1.8" fill="#f7ecd2" opacity="0.35"/><circle cx="1070" cy="288" r="1.8" fill="#f7ecd2" opacity="0.45"/><circle cx="42" cy="99" r="0.8" fill="#f7ecd2" opacity="0.43"/><circle cx="735" cy="221" r="1.8" fill="#f7ecd2" opacity="0.70"/><circle cx="1061" cy="186" r="1.8" fill="#f7ecd2" opacity="0.81"/><circle cx="996" cy="270" r="0.8" fill="#f7ecd2" opacity="0.55"/><circle cx="1188" cy="161" r="1.8" fill="#f7ecd2" opacity="0.53"/><circle cx="941" cy="43" r="0.8" fill="#f7ecd2" opacity="0.48"/><circle cx="1047" cy="328" r="1.3" fill="#f7ecd2" opacity="0.51"/><circle cx="522" cy="92" r="1.8" fill="#f7ecd2" opacity="0.59"/><circle cx="734" cy="263" r="1.3" fill="#f7ecd2" opacity="0.77"/><circle cx="747" cy="45" r="0.8" fill="#f7ecd2" opacity="0.50"/><circle cx="633" cy="310" r="1.3" fill="#f7ecd2" opacity="0.65"/><circle cx="848" cy="234" r="1.8" fill="#f7ecd2" opacity="0.67"/><circle cx="1080" cy="5" r="1.8" fill="#f7ecd2" opacity="0.35"/><circle cx="153" cy="227" r="1.8" fill="#f7ecd2" opacity="0.66"/><circle cx="1019" cy="272" r="1.3" fill="#f7ecd2" opacity="0.53"/><circle cx="774" cy="216" r="0.8" fill="#f7ecd2" opacity="0.69"/><circle cx="1026" cy="267" r="0.8" fill="#f7ecd2" opacity="0.77"/><circle cx="980" cy="120" r="42" fill="#f6ecd0" opacity="0.95"/><circle cx="996" cy="112" r="36" fill="url(#sky)" opacity="0.92"/>
<path d="M 90 560 L 90 464 A 34 34 0 0 1 158 464 L 158 560 Z" fill="none" stroke="#b8493f" stroke-width="9" opacity="0.95"/><path d="M 186 560 L 186 464 A 34 34 0 0 1 254 464 L 254 560 Z" fill="none" stroke="#e8ddc8" stroke-width="9" opacity="0.95"/><path d="M 282 560 L 282 464 A 34 34 0 0 1 350 464 L 350 560 Z" fill="none" stroke="#b8493f" stroke-width="9" opacity="0.95"/><path d="M 378 560 L 378 464 A 34 34 0 0 1 446 464 L 446 560 Z" fill="none" stroke="#e8ddc8" stroke-width="9" opacity="0.95"/><path d="M 474 560 L 474 464 A 34 34 0 0 1 542 464 L 542 560 Z" fill="none" stroke="#b8493f" stroke-width="9" opacity="0.95"/><path d="M 570 560 L 570 464 A 34 34 0 0 1 638 464 L 638 560 Z" fill="none" stroke="#e8ddc8" stroke-width="9" opacity="0.95"/><path d="M 666 560 L 666 464 A 34 34 0 0 1 734 464 L 734 560 Z" fill="none" stroke="#b8493f" stroke-width="9" opacity="0.95"/><path d="M 762 560 L 762 464 A 34 34 0 0 1 830 464 L 830 560 Z" fill="none" stroke="#e8ddc8" stroke-width="9" opacity="0.95"/><path d="M 858 560 L 858 464 A 34 34 0 0 1 926 464 L 926 560 Z" fill="none" stroke="#b8493f" stroke-width="9" opacity="0.95"/><path d="M 954 560 L 954 464 A 34 34 0 0 1 1022 464 L 1022 560 Z" fill="none" stroke="#e8ddc8" stroke-width="9" opacity="0.95"/><path d="M 1050 560 L 1050 464 A 34 34 0 0 1 1118 464 L 1118 560 Z" fill="none" stroke="#b8493f" stroke-width="9" opacity="0.95"/><path d="M 90 430 L 90 354 A 34 34 0 0 1 158 354 L 158 430 Z" fill="none" stroke="#e8ddc8" stroke-width="9" opacity="0.8"/><path d="M 186 430 L 186 354 A 34 34 0 0 1 254 354 L 254 430 Z" fill="none" stroke="#b8493f" stroke-width="9" opacity="0.8"/><path d="M 282 430 L 282 354 A 34 34 0 0 1 350 354 L 350 430 Z" fill="none" stroke="#e8ddc8" stroke-width="9" opacity="0.8"/><path d="M 378 430 L 378 354 A 34 34 0 0 1 446 354 L 446 430 Z" fill="none" stroke="#b8493f" stroke-width="9" opacity="0.8"/><path d="M 474 430 L 474 354 A 34 34 0 0 1 542 354 L 542 430 Z" fill="none" stroke="#e8ddc8" stroke-width="9" opacity="0.8"/><path d="M 570 430 L 570 354 A 34 34 0 0 1 638 354 L 638 430 Z" fill="none" stroke="#b8493f" stroke-width="9" opacity="0.8"/><path d="M 666 430 L 666 354 A 34 34 0 0 1 734 354 L 734 430 Z" fill="none" stroke="#e8ddc8" stroke-width="9" opacity="0.8"/><path d="M 762 430 L 762 354 A 34 34 0 0 1 830 354 L 830 430 Z" fill="none" stroke="#b8493f" stroke-width="9" opacity="0.8"/><path d="M 858 430 L 858 354 A 34 34 0 0 1 926 354 L 926 430 Z" fill="none" stroke="#e8ddc8" stroke-width="9" opacity="0.8"/><path d="M 954 430 L 954 354 A 34 34 0 0 1 1022 354 L 1022 430 Z" fill="none" stroke="#b8493f" stroke-width="9" opacity="0.8"/><path d="M 1050 430 L 1050 354 A 34 34 0 0 1 1118 354 L 1118 430 Z" fill="none" stroke="#e8ddc8" stroke-width="9" opacity="0.8"/><rect x="570.0" y="70" width="60" height="250" fill="#12141c"/><rect x="580.8" y="44" width="38.4" height="26" fill="#12141c"/><circle cx="600" cy="36" r="6" fill="#d8b45a"/><circle cx="600" cy="24" r="4.5" fill="#d8b45a"/><circle cx="600" cy="14" r="3" fill="#d8b45a"/>
<rect x="0" y="560" width="1200" height="140" fill="#0c0e14"/>

<rect x="0" y="556" width="1200" height="4" fill="#d8b45a" opacity="0.55"/>
</svg>