<svg xmlns="http://www.w3.org/2000/svg" viewBox="0 0 1200 700" role="img">
<defs>
<linearGradient id="sky" x1="0" y1="0" x2="0" y2="1">
<stop offset="0" stop-color="#0a1026"/><stop offset="0.62" stop-color="#152046"/><stop offset="1" stop-color="#2b3a6b"/>
</linearGradient>
<pattern id="g1" width="120" height="120" patternUnits="userSpaceOnUse"><polygon points="111.6,60.0 80.0,68.3 96.5,96.5 68.3,80.0 60.0,111.6 51.7,80.0 23.5,96.5 40.0,68.3 8.4,60.0 40.0,51.7 23.5,23.5 51.7,40.0 60.0,8.4 68.3,40.0 96.5,23.5 80.0,51.7" fill="none" stroke="#e8d9a8" stroke-width="1.6" opacity="0.1"/><rect x="17.4" y="17.4" width="85.2" height="85.2" fill="none" stroke="#e8d9a8" stroke-width="1.6" opacity="0.06999999999999999" transform="rotate(45 60.0 60.0)"/></pattern>
</defs>
<rect width="1200" height="700" fill="url(#sky)"/>
<rect width="1200" height="700" fill="url(#g1)"/>
<circle cx="691" cy="1" r="1.8" fill="#f7ecd2" opacity="0.76"/><circle cx="221" cy="110" r="1.3" fill="#f7ecd2" opacity="0.45"/><circle cx="848" cy="226" r="0.8" fill="#f7ecd2" opacity="0.83"/><circle cx="1156" cy="313" r="1.8" fill="#f7ecd2" opacity="0.63"/><circle cx="977" cy="263" r="1.3" fill="#f7ecd2" opacity="0.36"/><circle cx="47" cy="52" r="0.8" fill="#f7ecd2" opacity="0.79"/><circle cx="694" cy="108" r="1.3" fill="#f7ecd2" opacity="0.37"/><circle cx="62" cy="295" r="0.8" fill="#f7ecd2" opacity="0.75"/><circle cx="863" cy="25" r="0.8" fill="#f7ecd2" opacity="0.60"/><circle cx="673" cy="314" r="0.8" fill="#f7ecd2" opacity="0.57"/><circle cx="140" cy="170" r="1.3" fill="#f7ecd2" opacity="0.35"/><circle cx="968" cy="57" r="1.8" fill="#f7ecd2" opacity="0.61"/><circle cx="349" cy="307" r="1.8" fill="#f7ecd2" opacity="0.78"/><circle cx="899" cy="76" r="0.8" fill="#f7ecd2" opacity="0.59"/><circle cx="386" cy="212" r="1.3" fill="#f7ecd2" opacity="0.67"/><circle cx="274" cy="199" r="1.8" fill="#f7ecd2" opacity="0.61"/><circle cx="635" cy="229" r="0.8" fill="#f7ecd2" opacity="0.50"/><circle cx="725" cy="18" r="1.8" fill="#f7ecd2" opacity="0.35"/><circle cx="232" cy="94" r="1.8" fill="#f7ecd2" opacity="0.43"/><circle cx="380" cy="321" r="1.8" fill="#f7ecd2" opacity="0.65"/><circle cx="521" cy="331" r="0.8" fill="#f7ecd2" opacity="0.36"/><circle cx="151" cy="140" r="0.8" fill="#f7ecd2" opacity="0.75"/><circle cx="878" cy="296" r="1.3" fill="#f7ecd2" opacity="0.73"/><circle cx="86" cy="283" r="0.8" fill="#f7ecd2" opacity="0.73"/><circle cx="7" cy="273" r="1.3" fill="#f7ecd2" opacity="0.46"/><circle cx="377" cy="242" r="1.3" fill="#f7ecd2" opacity="0.69"/><circle cx="1124" cy="338" r="1.3" fill="#f7ecd2" opacity="0.47"/><circle cx="592" cy="225" r="1.3" fill="#f7ecd2" opacity="0.35"/><circle cx="293" cy="195" r="1.8" fill="#f7ecd2" opacity="0.70"/><circle cx="203" cy="184" r="0.8" fill="#f7ecd2" opacity="0.37"/><circle cx="970" cy="220" r="1.8" fill="#f7ecd2" opacity="0.35"/><circle cx="698" cy="7" r="0.8" fill="#f7ecd2" opacity="0.71"/><circle cx="179" cy="297" r="1.8" fill="#f7ecd2" opacity="0.48"/><circle cx="829" cy="106" r="1.8" fill="#f7ecd2" opacity="0.59"/><circle cx="416" cy="282" r="1.8" fill="#f7ecd2" opacity="0.47"/><circle cx="404" cy="309" r="1.8" fill="#f7ecd2" opacity="0.71"/><circle cx="865" cy="39" r="1.3" fill="#f7ecd2" opacity="0.70"/><circle cx="1055" cy="208" r="0.8" fill="#f7ecd2" opacity="0.75"/><circle cx="662" cy="324" r="1.8" fill="#f7ecd2" opacity="0.73"/><circle cx="910" cy="251" r="0.8" fill="#f7ecd2" opacity="0.45"/><circle cx="1151" cy="301" r="0.8" fill="#f7ecd2" opacity="0.36"/><circle cx="881" cy="150" r="1.8" fill="#f7ecd2" opacity="0.35"/><circle cx="508" cy="206" r="0.8" fill="#f7ecd2" opacity="0.83"/><circle cx="1016" cy="33" r="1.8" fill="#f7ecd2" opacity="0.63"/><circle cx="1037" cy="63" r="1.8" fill="#f7ecd2" opacity="0.66"/><circle cx="307" cy="272" r="0.8" fill="#f7ecd2" opacity="0.39"/><circle cx="1154" cy="68" r="1.3" fill="#f7ecd2" opacity="0.57"/><circle cx="722" cy="335" r="1.3" fill="#f7ecd2" opacity="0.55"/><circle cx="523" cy="5" r="0.8" fill="#f7ecd2" opacity="0.50"/><circle cx="533" cy="34" r="0.8" fill="#f7ecd2" opacity="0.57"/><circle cx="200" cy="310" r="0.8" fill="#f7ecd2" opacity="0.35"/><circle cx="28" cy="137" r="0.8" fill="#f7ecd2" opacity="0.71"/><circle cx="809" cy="267" r="1.8" fill="#f7ecd2" opacity="0.38"/><circle cx="359" cy="316" r="0.8" fill="#f7ecd2" opacity="0.79"/><circle cx="46" cy="192" r="1.3" fill="#f7ecd2" opacity="0.67"/><circle cx="134" cy="259" r="0.8" fill="#f7ecd2" opacity="0.41"/><circle cx="695" cy="29" r="1.3" fill="#f7ecd2" opacity="0.40"/><circle cx="985" cy="238" r="1.8" fill="#f7ecd2" opacity="0.65"/><circle cx="692" cy="54" r="1.8" fill="#f7ecd2" opacity="0.53"/><circle cx="1040" cy="21" r="1.8" fill="#f7ecd2" opacity="0.75"/><circle cx="980" cy="120" r="42" fill="#f6ecd0" opacity="0.95"/><circle cx="996" cy="112" r="36" fill="url(#sky)" opacity="0.92"/>
<path d="M 90 560 L 90 464 A 34 34 0 0 1 158 464 L 158 560 Z" fill="none" stroke="#b8493f" stroke-width="9" opacity="0.95"/><path d="M 186 560 L 186 464 A 34 34 0 0 1 254 464 L 254 560 Z" fill="none" stroke="#e8ddc8" stroke-width="9" opacity="0.95"/><path d="M 282 560 L 282 464 A 34 34 0 0 1 350 464 L 350 560 Z" fill="none" stroke="#b8493f" stroke-width="9" opacity="0.95"/><path d="M 378 560 L 378 464 A 34 34 0 0 1 446 464 L 446 560 Z" fill="none" stroke="#e8ddc8" stroke-width="9" opacity="0.95"/><path d="M 474 560 L 474 464 A 34 34 0 0 1 542 464 L 542 560 Z" fill="none" stroke="#b8493f" stroke-width="9" opacity="0.95"/><path d="M 570 560 L 570 464 A 34 34 0 0 1 638 464 L 638 560 Z" fill="none" stroke="#e8ddc8" stroke-width="9" opacity="0.95"/><path d="M 666 560 L 666 464 A 34 34 0 0 1 734 464 L 734 560 Z" fill="none" stroke="#b8493f" stroke-width="9" opacity="0.95"/><path d="M 762 560 L 762 464 A 34 34 0 0 1 830 464 L 830 560 Z" fill="none" stroke="#e8ddc8" stroke-width="9" opacity="0.95"/><path d="M 858 560 L 858 464 A 34 34 0 0 1 926 464 L 926 560 Z" fill="none" stroke="#b8493f" stroke-width="9" opacity="0.95"/><path d="M 954 560 L 954 464 A 34 34 0 0 1 1022 464 L 1022 560 Z" fill="none" stroke="#e8ddc8" stroke-width="9" opacity="0.95"/><path d="M 1050 560 L 1050 464 A 34 34 0 0 1 1118 464 L 1118 560 Z" fill="none" stroke="#b8493f" stroke-width="9" opacity="0.95"/><path d="M 90 430 L 90 354 A 34 34 0 0 1 158 354 L 158 430 Z" fill="none" stroke="#e8ddc8" stroke-width="9" opacity="0.8"/><path d="M 186 430 L 186 354 A 34 34 0 0 1 254 354 L 254 430 Z" fill="none" stroke="#b8493f" stroke-width="9" opacity="0.8"/><path d="M 282 430 L 282 354 A 34 34 0 0 1 350 354 L 350 430 Z" fill="none" stroke="#e8ddc8" stroke-width="9" opacity="0.8"/><path d="M 378 430 L 378 354 A 34 34 0 0 1 446 354 L 446 430 Z" fill="none" stroke="#b8493f" stroke-width="9" opacity="0.8"/><path d="M 474 430 L 474 354 A 34 34 0 0 1 542 354 L 542 430 Z" fill="none" stroke="#e8ddc8" stroke-width="9" opacity="0.8"/><path d="M 570 430 L 570 354 A 34 34 0 0 1 638 354 L 638 430 Z" fill="none" stroke="#b8493f" stroke-width="9" opacity="0.8"/><path d="M 666 430 L 666 354 A 34 34 0 0 1 734 354 L 734 430 Z" fill="none" stroke="#e8ddc8" stroke-width="9" opacity="0.8"/><path d="M 762 430 L 762 354 A 34 34 0 0 1 830 354 L 830 430 Z" fill="none" stroke="#b8493f" stroke-width="9" opacity="0.8"/><path d="M 858 430 L 858 354 A 34 34 0 0 1 926 354 L 926 430 Z" fill="none" stroke="#e8ddc8" stroke-width="9" opacity="0.8"/><path d="M 954 430 L 954 354 A 34 34 0 0 1 1022 354 L 1022 430 Z" fill="none" stroke="#b8493f" stroke-width="9" opacity="0.8"/><path d="M 1050 430 L 1050 354 A 34 34 0 0 1 1118 354 L 1118 430 Z" fill="none" stroke="#e8ddc8" stroke-width="9" opacity="0.8"/><rect x="570.0" y="70" width="60" height="250" fill="#12141c"/><rect x="580.8" y="44" width="38.4" height="26" fill="#12141c"/><circle cx="600" cy="36" r="6" fill="#d8b45a"/><circle cx="600" cy="24" r="4.5" fill="#d8b45a"/><circle cx="600" cy="14" r="3" fill="#d8b45a"/>
<rect x="0" y="560" width="1200" height="140" fill="#0c0e14"/>

<rect x="0" y="556" width="1200" height="4" fill="#d8b45a" opacity="0.55"/>
</svg>