<svg xmlns="http://www.w3.org/2000/svg" viewBox="0 0 1200 700" role="img">
<defs>
<linearGradient id="sky" x1="0" y1="0" x2="0" y2="1">
<stop offset="0" stop-color="#0a1026"/><stop offset="0.62" stop-color="#152046"/><stop offset="1" stop-color="#2b3a6b"/>
</linearGradient>
<pattern id="g1" width="120" height="120" patternUnits="userSpaceOnUse"><polygon points="111.6,60.0 80.0,68.3 96.5,96.5 68.3,80.0 60.0,111.6 51.7,80.0 23.5,96.5 40.0,68.3 8.4,60.0 40.0,51.7 23.5,23.5 51.7,40.0 60.0,8.4 68.3,40.0 96.5,23.5 80.0,51.7" fill="none" stroke="#e8d9a8" stroke-width="1.6" opacity="0.1"/><rect x="17.4" y="17.4" width="85.2" height="85.2" fill="none" stroke="#e8d9a8" stroke-width="1.6" opacity="0.06999999999999999" transform="rotate(45 60.0 60.0)"/></pattern>
</defs>
<rect width="1200" height="700" fill="url(#sky)"/>
<rect width="1200" height="700" fill="url(#g1)"/>
<circle cx="637" cy="27" r="1.3" fill="#f7ecd2" opacity="0.84"/><circle cx="1079" cy="188" r="1.3" fill="#f7ecd2" opacity="0.37"/><circle cx="1082" cy="0" r="1.8" fill="#f7ecd2" opacity="0.35"/><circle cx="238" cy="75" r="1.3" fill="#f7ecd2" opacity="0.35"/><circle cx="1163" cy="249" r="1.8" fill="#f7ecd2" opacity="0.72"/><circle cx="425" cy="210" r="1.8" fill="#f7ecd2" opacity="0.35"/><circle cx="688" cy="262" r="1.8" fill="#f7ecd2" opacity="0.41"/><circle cx="824" cy="117" r="1.8" fill="#f7ecd2" opacity="0.43"/><circle cx="89" cy="171" r="1.8" fill="#f7ecd2" opacity="0.54"/><circle cx="571" cy="212" r="0.8" fill="#f7ecd2" opacity="0.37"/><circle cx="1094" cy="164" r="1.3" fill="#f7ecd2" opacity="0.51"/><circle cx="1010" cy="339" r="1.8" fill="#f7ecd2" opacity="0.75"/><circle cx="1015" cy="213" r="1.3" fill="#f7ecd2" opacity="0.80"/><circle cx="317" cy="54" r="1.8" fill="#f7ecd2" opacity="0.53"/><circle cx="1100" cy="246" r="1.8" fill="#f7ecd2" opacity="0.35"/><circle cx="796" cy="61" r="1.8" fill="#f7ecd2" opacity="0.41"/><circle cx="341" cy="295" r="0.8" fill="#f7ecd2" opacity="0.80"/><circle cx="863" cy="216" r="1.8" fill="#f7ecd2" opacity="0.43"/><circle cx="706" cy="168" r="1.3" fill="#f7ecd2" opacity="0.43"/><circle cx="182" cy="303" r="1.8" fill="#f7ecd2" opacity="0.81"/><circle cx="467" cy="17" r="1.3" fill="#f7ecd2" opacity="0.74"/><circle cx="1009" cy="218" r="0.8" fill="#f7ecd2" opacity="0.47"/><circle cx="1112" cy="70" r="0.8" fill="#f7ecd2" opacity="0.75"/><circle cx="368" cy="185" r="1.3" fill="#f7ecd2" opacity="0.65"/><circle cx="193" cy="259" r="1.8" fill="#f7ecd2" opacity="0.72"/><circle cx="755" cy="60" r="1.8" fill="#f7ecd2" opacity="0.35"/><circle cx="1118" cy="152" r="1.3" fill="#f7ecd2" opacity="0.71"/><circle cx="154" cy="247" r="1.8" fill="#f7ecd2" opacity="0.73"/><circle cx="719" cy="141" r="1.8" fill="#f7ecd2" opacity="0.64"/><circle cx="101" cy="82" r="0.8" fill="#f7ecd2" opacity="0.67"/><circle cx="724" cy="74" r="0.8" fill="#f7ecd2" opacity="0.61"/><circle cx="740" cy="289" r="0.8" fill="#f7ecd2" opacity="0.45"/><circle cx="845" cy="203" r="1.3" fill="#f7ecd2" opacity="0.70"/><circle cx="247" cy="84" r="1.3" fill="#f7ecd2" opacity="0.83"/><circle cx="1130" cy="316" r="0.8" fill="#f7ecd2" opacity="0.65"/><circle cx="926" cy="171" r="1.8" fill="#f7ecd2" opacity="0.81"/><circle cx="571" cy="105" r="1.3" fill="#f7ecd2" opacity="0.40"/><circle cx="1193" cy="66" r="1.8" fill="#f7ecd2" opacity="0.73"/><circle cx="1136" cy="58" r="0.8" fill="#f7ecd2" opacity="0.73"/><circle cx="712" cy="233" r="0.8" fill="#f7ecd2" opacity="0.81"/><circle cx="1097" cy="327" r="1.8" fill="#f7ecd2" opacity="0.54"/><circle cx="539" cy="88" r="0.8" fill="#f7ecd2" opacity="0.67"/><circle cx="742" cy="320" r="0.8" fill="#f7ecd2" opacity="0.75"/><circle cx="98" cy="135" r="1.8" fill="#f7ecd2" opacity="0.65"/><circle cx="23" cy="249" r="1.8" fill="#f7ecd2" opacity="0.62"/><circle cx="685" cy="90" r="1.3" fill="#f7ecd2" opacity="0.35"/><circle cx="1148" cy="222" r="1.8" fill="#f7ecd2" opacity="0.41"/><circle cx="284" cy="17" r="1.3" fill="#f7ecd2" opacity="0.63"/><circle cx="949" cy="291" r="1.3" fill="#f7ecd2" opacity="0.44"/><circle cx="431" cy="272" r="1.3" fill="#f7ecd2" opacity="0.67"/><circle cx="1154" cy="304" r="0.8" fill="#f7ecd2" opacity="0.51"/><circle cx="70" cy="79" r="1.8" fill="#f7ecd2" opacity="0.65"/><circle cx="275" cy="33" r="1.8" fill="#f7ecd2" opacity="0.60"/><circle cx="977" cy="94" r="0.8" fill="#f7ecd2" opacity="0.73"/><circle cx="760" cy="226" r="1.8" fill="#f7ecd2" opacity="0.45"/><circle cx="656" cy="121" r="0.8" fill="#f7ecd2" opacity="0.61"/><circle cx="401" cy="95" r="1.3" fill="#f7ecd2" opacity="0.80"/><circle cx="1123" cy="96" r="1.3" fill="#f7ecd2" opacity="0.43"/><circle cx="1166" cy="128" r="1.3" fill="#f7ecd2" opacity="0.83"/><circle cx="842" cy="3" r="1.8" fill="#f7ecd2" opacity="0.61"/><circle cx="980" cy="120" r="42" fill="#f6ecd0" opacity="0.95"/><circle cx="996" cy="112" r="36" fill="url(#sky)" opacity="0.92"/>
<path d="M 90 560 L 90 464 A 34 34 0 0 1 158 464 L 158 560 Z" fill="none" stroke="#b8493f" stroke-width="9" opacity="0.95"/><path d="M 186 560 L 186 464 A 34 34 0 0 1 254 464 L 254 560 Z" fill="none" stroke="#e8ddc8" stroke-width="9" opacity="0.95"/><path d="M 282 560 L 282 464 A 34 34 0 0 1 350 464 L 350 560 Z" fill="none" stroke="#b8493f" stroke-width="9" opacity="0.95"/><path d="M 378 560 L 378 464 A 34 34 0 0 1 446 464 L 446 560 Z" fill="none" stroke="#e8ddc8" stroke-width="9" opacity="0.95"/><path d="M 474 560 L 474 464 A 34 34 0 0 1 542 464 L 542 560 Z" fill="none" stroke="#b8493f" stroke-width="9" opacity="0.95"/><path d="M 570 560 L 570 464 A 34 34 0 0 1 638 464 L 638 560 Z" fill="none" stroke="#e8ddc8" stroke-width="9" opacity="0.95"/><path d="M 666 560 L 666 464 A 34 34 0 0 1 734 464 L 734 560 Z" fill="none" stroke="#b8493f" stroke-width="9" opacity="0.95"/><path d="M 762 560 L 762 464 A 34 34 0 0 1 830 464 L 830 560 Z" fill="none" stroke="#e8ddc8" stroke-width="9" opacity="0.95"/><path d="M 858 560 L 858 464 A 34 34 0 0 1 926 464 L 926 560 Z" fill="none" stroke="#b8493f" stroke-width="9" opacity="0.95"/><path d="M 954 560 L 954 464 A 34 34 0 0 1 1022 464 L 1022 560 Z" fill="none" stroke="#e8ddc8" stroke-width="9" opacity="0.95"/><path d="M 1050 560 L 1050 464 A 34 34 0 0 1 1118 464 L 1118 560 Z" fill="none" stroke="#b8493f" stroke-width="9" opacity="0.95"/><path d="M 90 430 L 90 354 A 34 34 0 0 1 158 354 L 158 430 Z" fill="none" stroke="#e8ddc8" stroke-width="9" opacity="0.8"/><path d="M 186 430 L 186 354 A 34 34 0 0 1 254 354 L 254 430 Z" fill="none" stroke="#b8493f" stroke-width="9" opacity="0.8"/><path d="M 282 430 L 282 354 A 34 34 0 0 1 350 354 L 350 430 Z" fill="none" stroke="#e8ddc8" stroke-width="9" opacity="0.8"/><path d="M 378 430 L 378 354 A 34 34 0 0 1 446 354 L 446 430 Z" fill="none" stroke="#b8493f" stroke-width="9" opacity="0.8"/><path d="M 474 430 L 474 354 A 34 34 0 0 1 542 354 L 542 430 Z" fill="none" stroke="#e8ddc8" stroke-width="9" opacity="0.8"/><path d="M 570 430 L 570 354 A 34 34 0 0 1 638 354 L 638 430 Z" fill="none" stroke="#b8493f" stroke-width="9" opacity="0.8"/><path d="M 666 430 L 666 354 A 34 34 0 0 1 734 354 L 734 430 Z" fill="none" stroke="#e8ddc8" stroke-width="9" opacity="0.8"/><path d="M 762 430 L 762 354 A 34 34 0 0 1 830 354 L 830 430 Z" fill="none" stroke="#b8493f" stroke-width="9" opacity="0.8"/><path d="M 858 430 L 858 354 A 34 34 0 0 1 926 354 L 926 430 Z" fill="none" stroke="#e8ddc8" stroke-width="9" opacity="0.8"/><path d="M 954 430 L 954 354 A 34 34 0 0 1 1022 354 L 1022 430 Z" fill="none" stroke="#b8493f" stroke-width="9" opacity="0.8"/><path d="M 1050 430 L 1050 354 A 34 34 0 0 1 1118 354 L 1118 430 Z" fill="none" stroke="#e8ddc8" stroke-width="9" opacity="0.8"/><rect x="570.0" y="70" width="60" height="250" fill="#12141c"/><rect x="580.8" y="44" width="38.4" height="26" fill="#12141c"/><circle cx="600" cy="36" r="6" fill="#d8b45a"/><circle cx="600" cy="24" r="4.5" fill="#d8b45a"/><circle cx="600" cy="14" r="3" fill="#d8b45a"/>
<rect x="0" y="560" width="1200" height="140" fill="#0c0e14"/>

<rect x="0" y="556" width="1200" height="4" fill="#d8b45a" opacity="0.55"/>
</svg>