<svg xmlns="http://www.w3.org/2000/svg" viewBox="0 0 1200 700" role="img">
<defs>
<linearGradient id="sky" x1="0" y1="0" x2="0" y2="1">
<stop offset="0" stop-color="#0a1026"/><stop offset="0.62" stop-color="#152046"/><stop offset="1" stop-color="#2b3a6b"/>
</linearGradient>
<pattern id="g1" width="120" height="120" patternUnits="userSpaceOnUse"><polygon points="111.6,60.0 80.0,68.3 96.5,96.5 68.3,80.0 60.0,111.6 51.7,80.0 23.5,96.5 40.0,68.3 8.4,60.0 40.0,51.7 23.5,23.5 51.7,40.0 60.0,8.4 68.3,40.0 96.5,23.5 80.0,51.7" fill="none" stroke="#e8d9a8" stroke-width="1.6" opacity="0.1"/><rect x="17.4" y="17.4" width="85.2" height="85.2" fill="none" stroke="#e8d9a8" stroke-width="1.6" opacity="0.06999999999999999" transform="rotate(45 60.0 60.0)"/></pattern>
</defs>
<rect width="1200" height="700" fill="url(#sky)"/>
<rect width="1200" height="700" fill="url(#g1)"/>
<circle cx="325" cy="215" r="0.8" fill="#f7ecd2" opacity="0.60"/><circle cx="1103" cy="252" r="1.8" fill="#f7ecd2" opacity="0.41"/><circle cx="434" cy="312" r="1.8" fill="#f7ecd2" opacity="0.43"/><circle cx="934" cy="231" r="1.3" fill="#f7ecd2" opacity="0.39"/><circle cx="371" cy="177" r="1.8" fill="#f7ecd2" opacity="0.52"/><circle cx="209" cy="314" r="1.3" fill="#f7ecd2" opacity="0.61"/><circle cx="520" cy="154" r="1.8" fill="#f7ecd2" opacity="0.65"/><circle cx="560" cy="93" r="1.8" fill="#f7ecd2" opacity="0.65"/><circle cx="17" cy="319" r="0.8" fill="#f7ecd2" opacity="0.58"/><circle cx="115" cy="16" r="1.8" fill="#f7ecd2" opacity="0.75"/><circle cx="206" cy="176" r="1.3" fill="#f7ecd2" opacity="0.41"/><circle cx="986" cy="275" r="1.3" fill="#f7ecd2" opacity="0.35"/><circle cx="463" cy="101" r="0.8" fill="#f7ecd2" opacity="0.48"/><circle cx="821" cy="38" r="1.3" fill="#f7ecd2" opacity="0.83"/><circle cx="692" cy="178" r="0.8" fill="#f7ecd2" opacity="0.61"/><circle cx="1012" cy="297" r="1.3" fill="#f7ecd2" opacity="0.49"/><circle cx="509" cy="63" r="1.8" fill="#f7ecd2" opacity="0.52"/><circle cx="1127" cy="240" r="1.8" fill="#f7ecd2" opacity="0.65"/><circle cx="778" cy="20" r="0.8" fill="#f7ecd2" opacity="0.45"/><circle cx="638" cy="159" r="1.8" fill="#f7ecd2" opacity="0.77"/><circle cx="155" cy="205" r="0.8" fill="#f7ecd2" opacity="0.60"/><circle cx="1033" cy="282" r="1.3" fill="#f7ecd2" opacity="0.41"/><circle cx="464" cy="42" r="1.8" fill="#f7ecd2" opacity="0.73"/><circle cx="1064" cy="1" r="0.8" fill="#f7ecd2" opacity="0.49"/><circle cx="601" cy="327" r="1.3" fill="#f7ecd2" opacity="0.62"/><circle cx="539" cy="164" r="1.3" fill="#f7ecd2" opacity="0.81"/><circle cx="950" cy="44" r="1.3" fill="#f7ecd2" opacity="0.35"/><circle cx="1090" cy="23" r="0.8" fill="#f7ecd2" opacity="0.55"/><circle cx="647" cy="289" r="0.8" fill="#f7ecd2" opacity="0.68"/><circle cx="845" cy="26" r="1.3" fill="#f7ecd2" opacity="0.55"/><circle cx="1036" cy="226" r="1.8" fill="#f7ecd2" opacity="0.71"/><circle cx="716" cy="225" r="1.8" fill="#f7ecd2" opacity="0.35"/><circle cx="293" cy="91" r="0.8" fill="#f7ecd2" opacity="0.48"/><circle cx="751" cy="68" r="0.8" fill="#f7ecd2" opacity="0.53"/><circle cx="722" cy="248" r="1.3" fill="#f7ecd2" opacity="0.41"/><circle cx="1142" cy="67" r="0.8" fill="#f7ecd2" opacity="0.49"/><circle cx="739" cy="213" r="1.3" fill="#f7ecd2" opacity="0.42"/><circle cx="257" cy="290" r="1.3" fill="#f7ecd2" opacity="0.65"/><circle cx="8" cy="110" r="1.3" fill="#f7ecd2" opacity="0.65"/><circle cx="1168" cy="89" r="0.8" fill="#f7ecd2" opacity="0.37"/><circle cx="785" cy="175" r="0.8" fill="#f7ecd2" opacity="0.60"/><circle cx="563" cy="152" r="1.3" fill="#f7ecd2" opacity="0.61"/><circle cx="94" cy="292" r="1.8" fill="#f7ecd2" opacity="0.83"/><circle cx="794" cy="291" r="1.8" fill="#f7ecd2" opacity="0.39"/><circle cx="431" cy="317" r="1.3" fill="#f7ecd2" opacity="0.62"/><circle cx="469" cy="194" r="0.8" fill="#f7ecd2" opacity="0.71"/><circle cx="980" cy="114" r="1.8" fill="#f7ecd2" opacity="0.55"/><circle cx="20" cy="333" r="1.8" fill="#f7ecd2" opacity="0.45"/><circle cx="877" cy="99" r="1.3" fill="#f7ecd2" opacity="0.58"/><circle cx="1175" cy="216" r="1.8" fill="#f7ecd2" opacity="0.35"/><circle cx="266" cy="316" r="0.8" fill="#f7ecd2" opacity="0.41"/><circle cx="46" cy="15" r="1.3" fill="#f7ecd2" opacity="0.75"/><circle cx="923" cy="61" r="0.8" fill="#f7ecd2" opacity="0.38"/><circle cx="281" cy="278" r="1.3" fill="#f7ecd2" opacity="0.53"/><circle cx="352" cy="158" r="0.8" fill="#f7ecd2" opacity="0.51"/><circle cx="872" cy="17" r="1.3" fill="#f7ecd2" opacity="0.59"/><circle cx="569" cy="203" r="1.3" fill="#f7ecd2" opacity="0.42"/><circle cx="187" cy="320" r="0.8" fill="#f7ecd2" opacity="0.75"/><circle cx="38" cy="180" r="1.8" fill="#f7ecd2" opacity="0.75"/><circle cx="98" cy="59" r="1.3" fill="#f7ecd2" opacity="0.67"/><circle cx="980" cy="120" r="42" fill="#f6ecd0" opacity="0.95"/><circle cx="996" cy="112" r="36" fill="url(#sky)" opacity="0.92"/>
<path d="M 90 560 L 90 464 A 34 34 0 0 1 158 464 L 158 560 Z" fill="none" stroke="#b8493f" stroke-width="9" opacity="0.95"/><path d="M 186 560 L 186 464 A 34 34 0 0 1 254 464 L 254 560 Z" fill="none" stroke="#e8ddc8" stroke-width="9" opacity="0.95"/><path d="M 282 560 L 282 464 A 34 34 0 0 1 350 464 L 350 560 Z" fill="none" stroke="#b8493f" stroke-width="9" opacity="0.95"/><path d="M 378 560 L 378 464 A 34 34 0 0 1 446 464 L 446 560 Z" fill="none" stroke="#e8ddc8" stroke-width="9" opacity="0.95"/><path d="M 474 560 L 474 464 A 34 34 0 0 1 542 464 L 542 560 Z" fill="none" stroke="#b8493f" stroke-width="9" opacity="0.95"/><path d="M 570 560 L 570 464 A 34 34 0 0 1 638 464 L 638 560 Z" fill="none" stroke="#e8ddc8" stroke-width="9" opacity="0.95"/><path d="M 666 560 L 666 464 A 34 34 0 0 1 734 464 L 734 560 Z" fill="none" stroke="#b8493f" stroke-width="9" opacity="0.95"/><path d="M 762 560 L 762 464 A 34 34 0 0 1 830 464 L 830 560 Z" fill="none" stroke="#e8ddc8" stroke-width="9" opacity="0.95"/><path d="M 858 560 L 858 464 A 34 34 0 0 1 926 464 L 926 560 Z" fill="none" stroke="#b8493f" stroke-width="9" opacity="0.95"/><path d="M 954 560 L 954 464 A 34 34 0 0 1 1022 464 L 1022 560 Z" fill="none" stroke="#e8ddc8" stroke-width="9" opacity="0.95"/><path d="M 1050 560 L 1050 464 A 34 34 0 0 1 1118 464 L 1118 560 Z" fill="none" stroke="#b8493f" stroke-width="9" opacity="0.95"/><path d="M 90 430 L 90 354 A 34 34 0 0 1 158 354 L 158 430 Z" fill="none" stroke="#e8ddc8" stroke-width="9" opacity="0.8"/><path d="M 186 430 L 186 354 A 34 34 0 0 1 254 354 L 254 430 Z" fill="none" stroke="#b8493f" stroke-width="9" opacity="0.8"/><path d="M 282 430 L 282 354 A 34 34 0 0 1 350 354 L 350 430 Z" fill="none" stroke="#e8ddc8" stroke-width="9" opacity="0.8"/><path d="M 378 430 L 378 354 A 34 34 0 0 1 446 354 L 446 430 Z" fill="none" stroke="#b8493f" stroke-width="9" opacity="0.8"/><path d="M 474 430 L 474 354 A 34 34 0 0 1 542 354 L 542 430 Z" fill="none" stroke="#e8ddc8" stroke-width="9" opacity="0.8"/><path d="M 570 430 L 570 354 A 34 34 0 0 1 638 354 L 638 430 Z" fill="none" stroke="#b8493f" stroke-width="9" opacity="0.8"/><path d="M 666 430 L 666 354 A 34 34 0 0 1 734 354 L 734 430 Z" fill="none" stroke="#e8ddc8" stroke-width="9" opacity="0.8"/><path d="M 762 430 L 762 354 A 34 34 0 0 1 830 354 L 830 430 Z" fill="none" stroke="#b8493f" stroke-width="9" opacity="0.8"/><path d="M 858 430 L 858 354 A 34 34 0 0 1 926 354 L 926 430 Z" fill="none" stroke="#e8ddc8" stroke-width="9" opacity="0.8"/><path d="M 954 430 L 954 354 A 34 34 0 0 1 1022 354 L 1022 430 Z" fill="none" stroke="#b8493f" stroke-width="9" opacity="0.8"/><path d="M 1050 430 L 1050 354 A 34 34 0 0 1 1118 354 L 1118 430 Z" fill="none" stroke="#e8ddc8" stroke-width="9" opacity="0.8"/><rect x="570.0" y="70" width="60" height="250" fill="#12141c"/><rect x="580.8" y="44" width="38.4" height="26" fill="#12141c"/><circle cx="600" cy="36" r="6" fill="#d8b45a"/><circle cx="600" cy="24" r="4.5" fill="#d8b45a"/><circle cx="600" cy="14" r="3" fill="#d8b45a"/>
<rect x="0" y="560" width="1200" height="140" fill="#0c0e14"/>

<rect x="0" y="556" width="1200" height="4" fill="#d8b45a" opacity="0.55"/>
</svg>