<svg xmlns="http://www.w3.org/2000/svg" viewBox="0 0 1200 700" role="img">
<defs>
<linearGradient id="sky" x1="0" y1="0" x2="0" y2="1">
<stop offset="0" stop-color="#0a1026"/><stop offset="0.62" stop-color="#152046"/><stop offset="1" stop-color="#2b3a6b"/>
</linearGradient>
<pattern id="g1" width="120" height="120" patternUnits="userSpaceOnUse"><polygon points="111.6,60.0 80.0,68.3 96.5,96.5 68.3,80.0 60.0,111.6 51.7,80.0 23.5,96.5 40.0,68.3 8.4,60.0 40.0,51.7 23.5,23.5 51.7,40.0 60.0,8.4 68.3,40.0 96.5,23.5 80.0,51.7" fill="none" stroke="#e8d9a8" stroke-width="1.6" opacity="0.1"/><rect x="17.4" y="17.4" width="85.2" height="85.2" fill="none" stroke="#e8d9a8" stroke-width="1.6" opacity="0.06999999999999999" transform="rotate(45 60.0 60.0)"/></pattern>
</defs>
<rect width="1200" height="700" fill="url(#sky)"/>
<rect width="1200" height="700" fill="url(#g1)"/>
<circle cx="738" cy="98" r="1.8" fill="#f7ecd2" opacity="0.59"/><circle cx="52" cy="311" r="0.8" fill="#f7ecd2" opacity="0.57"/><circle cx="511" cy="319" r="1.8" fill="#f7ecd2" opacity="0.44"/><circle cx="555" cy="42" r="0.8" fill="#f7ecd2" opacity="0.45"/><circle cx="304" cy="140" r="0.8" fill="#f7ecd2" opacity="0.45"/><circle cx="118" cy="213" r="1.3" fill="#f7ecd2" opacity="0.69"/><circle cx="1077" cy="81" r="0.8" fill="#f7ecd2" opacity="0.72"/><circle cx="421" cy="204" r="1.3" fill="#f7ecd2" opacity="0.69"/><circle cx="670" cy="162" r="1.3" fill="#f7ecd2" opacity="0.75"/><circle cx="984" cy="95" r="1.8" fill="#f7ecd2" opacity="0.65"/><circle cx="43" cy="223" r="1.8" fill="#f7ecd2" opacity="0.74"/><circle cx="1087" cy="6" r="1.3" fill="#f7ecd2" opacity="0.57"/><circle cx="636" cy="24" r="0.8" fill="#f7ecd2" opacity="0.49"/><circle cx="250" cy="17" r="0.8" fill="#f7ecd2" opacity="0.35"/><circle cx="1009" cy="145" r="1.8" fill="#f7ecd2" opacity="0.40"/><circle cx="153" cy="188" r="1.8" fill="#f7ecd2" opacity="0.49"/><circle cx="202" cy="66" r="1.3" fill="#f7ecd2" opacity="0.67"/><circle cx="316" cy="259" r="1.8" fill="#f7ecd2" opacity="0.79"/><circle cx="375" cy="107" r="1.8" fill="#f7ecd2" opacity="0.60"/><circle cx="19" cy="10" r="1.8" fill="#f7ecd2" opacity="0.75"/><circle cx="568" cy="88" r="1.8" fill="#f7ecd2" opacity="0.69"/><circle cx="1182" cy="141" r="0.8" fill="#f7ecd2" opacity="0.47"/><circle cx="541" cy="49" r="1.8" fill="#f7ecd2" opacity="0.44"/><circle cx="685" cy="152" r="0.8" fill="#f7ecd2" opacity="0.55"/><circle cx="534" cy="290" r="1.8" fill="#f7ecd2" opacity="0.45"/><circle cx="448" cy="63" r="1.3" fill="#f7ecd2" opacity="0.59"/><circle cx="307" cy="171" r="1.3" fill="#f7ecd2" opacity="0.82"/><circle cx="951" cy="134" r="1.8" fill="#f7ecd2" opacity="0.69"/><circle cx="100" cy="332" r="0.8" fill="#f7ecd2" opacity="0.35"/><circle cx="514" cy="305" r="0.8" fill="#f7ecd2" opacity="0.55"/><circle cx="873" cy="273" r="0.8" fill="#f7ecd2" opacity="0.64"/><circle cx="817" cy="296" r="0.8" fill="#f7ecd2" opacity="0.67"/><circle cx="466" cy="14" r="0.8" fill="#f7ecd2" opacity="0.59"/><circle cx="180" cy="47" r="1.8" fill="#f7ecd2" opacity="0.45"/><circle cx="1039" cy="215" r="0.8" fill="#f7ecd2" opacity="0.70"/><circle cx="283" cy="298" r="1.8" fill="#f7ecd2" opacity="0.69"/><circle cx="432" cy="216" r="0.8" fill="#f7ecd2" opacity="0.47"/><circle cx="646" cy="109" r="1.8" fill="#f7ecd2" opacity="0.49"/><circle cx="805" cy="337" r="1.8" fill="#f7ecd2" opacity="0.70"/><circle cx="549" cy="280" r="1.3" fill="#f7ecd2" opacity="0.55"/><circle cx="1198" cy="58" r="1.8" fill="#f7ecd2" opacity="0.69"/><circle cx="712" cy="11" r="0.8" fill="#f7ecd2" opacity="0.67"/><circle cx="171" cy="299" r="1.8" fill="#f7ecd2" opacity="0.64"/><circle cx="415" cy="102" r="1.3" fill="#f7ecd2" opacity="0.65"/><circle cx="364" cy="280" r="1.8" fill="#f7ecd2" opacity="0.55"/><circle cx="378" cy="93" r="0.8" fill="#f7ecd2" opacity="0.39"/><circle cx="337" cy="241" r="1.8" fill="#f7ecd2" opacity="0.52"/><circle cx="1081" cy="244" r="1.8" fill="#f7ecd2" opacity="0.49"/><circle cx="330" cy="142" r="1.3" fill="#f7ecd2" opacity="0.45"/><circle cx="844" cy="155" r="0.8" fill="#f7ecd2" opacity="0.55"/><circle cx="103" cy="23" r="0.8" fill="#f7ecd2" opacity="0.54"/><circle cx="147" cy="86" r="1.8" fill="#f7ecd2" opacity="0.77"/><circle cx="1096" cy="324" r="1.3" fill="#f7ecd2" opacity="0.39"/><circle cx="910" cy="57" r="1.3" fill="#f7ecd2" opacity="0.55"/><circle cx="669" cy="125" r="1.8" fill="#f7ecd2" opacity="0.60"/><circle cx="13" cy="248" r="0.8" fill="#f7ecd2" opacity="0.59"/><circle cx="262" cy="206" r="0.8" fill="#f7ecd2" opacity="0.57"/><circle cx="576" cy="139" r="1.3" fill="#f7ecd2" opacity="0.49"/><circle cx="835" cy="67" r="1.8" fill="#f7ecd2" opacity="0.80"/><circle cx="679" cy="50" r="0.8" fill="#f7ecd2" opacity="0.35"/><circle cx="980" cy="120" r="42" fill="#f6ecd0" opacity="0.95"/><circle cx="996" cy="112" r="36" fill="url(#sky)" opacity="0.92"/>
<rect x="240" y="410" width="720" height="150" fill="#12141c"/><path d="M 268 560 L 268 472 Q 300 432 332 472 L 332 560 Z" fill="#0c0e14" opacity="0.9"/><path d="M 366 560 L 366 472 Q 398 432 430 472 L 430 560 Z" fill="#0c0e14" opacity="0.9"/><path d="M 464 560 L 464 472 Q 496 432 528 472 L 528 560 Z" fill="#0c0e14" opacity="0.9"/><path d="M 562 560 L 562 472 Q 594 432 626 472 L 626 560 Z" fill="#0c0e14" opacity="0.9"/><path d="M 660 560 L 660 472 Q 692 432 724 472 L 724 560 Z" fill="#0c0e14" opacity="0.9"/><path d="M 758 560 L 758 472 Q 790 432 822 472 L 822 560 Z" fill="#0c0e14" opacity="0.9"/><path d="M 856 560 L 856 472 Q 888 432 920 472 L 920 560 Z" fill="#0c0e14" opacity="0.9"/><path d="M 450 410 C 450 265.5, 517.5 240, 600 240 C 682.5 240, 750 265.5, 750 410 Z" fill="#9aa3ad"/><line x1="600" y1="240" x2="600" y2="218" stroke="#d8b45a" stroke-width="3"/><circle cx="600" cy="214" r="4.5" fill="#d8b45a"/><path d="M 600 200 a 8 8 0 1 0 6 13 a 6.4 6.4 0 1 1 -6 -13 Z" fill="#d8b45a"/><rect x="139.0" y="230" width="22" height="330" fill="#12141c"/><rect x="129.1" y="234" width="41.8" height="7" rx="3" fill="#12141c"/><path d="M 131.3 232 C 131.3 210.495, 139.715 206.7, 150 206.7 C 160.285 206.7, 168.7 210.495, 168.7 232 Z" fill="#12141c"/><line x1="150" y1="206.7" x2="150" y2="184.7" stroke="#d8b45a" stroke-width="3"/><circle cx="150" cy="180.7" r="4.5" fill="#d8b45a"/><path d="M 150 166.7 a 8 8 0 1 0 6 13 a 6.4 6.4 0 1 1 -6 -13 Z" fill="#d8b45a"/>
<rect x="0" y="560" width="1200" height="140" fill="#0c0e14"/>

<rect x="0" y="556" width="1200" height="4" fill="#d8b45a" opacity="0.55"/>
</svg>