<svg xmlns="http://www.w3.org/2000/svg" viewBox="0 0 1200 700" role="img">
<defs>
<linearGradient id="sky" x1="0" y1="0" x2="0" y2="1">
<stop offset="0" stop-color="#0a1026"/><stop offset="0.62" stop-color="#152046"/><stop offset="1" stop-color="#2b3a6b"/>
</linearGradient>
<pattern id="g1" width="120" height="120" patternUnits="userSpaceOnUse"><polygon points="111.6,60.0 80.0,68.3 96.5,96.5 68.3,80.0 60.0,111.6 51.7,80.0 23.5,96.5 40.0,68.3 8.4,60.0 40.0,51.7 23.5,23.5 51.7,40.0 60.0,8.4 68.3,40.0 96.5,23.5 80.0,51.7" fill="none" stroke="#e8d9a8" stroke-width="1.6" opacity="0.1"/><rect x="17.4" y="17.4" width="85.2" height="85.2" fill="none" stroke="#e8d9a8" stroke-width="1.6" opacity="0.06999999999999999" transform="rotate(45 60.0 60.0)"/></pattern>
</defs>
<rect width="1200" height="700" fill="url(#sky)"/>
<rect width="1200" height="700" fill="url(#g1)"/>
<circle cx="642" cy="182" r="1.8" fill="#f7ecd2" opacity="0.79"/><circle cx="244" cy="143" r="0.8" fill="#f7ecd2" opacity="0.77"/><circle cx="127" cy="315" r="1.3" fill="#f7ecd2" opacity="0.40"/><circle cx="123" cy="250" r="1.3" fill="#f7ecd2" opacity="0.35"/><circle cx="1168" cy="64" r="1.8" fill="#f7ecd2" opacity="0.37"/><circle cx="790" cy="305" r="0.8" fill="#f7ecd2" opacity="0.35"/><circle cx="933" cy="37" r="1.3" fill="#f7ecd2" opacity="0.56"/><circle cx="709" cy="292" r="1.8" fill="#f7ecd2" opacity="0.63"/><circle cx="94" cy="326" r="0.8" fill="#f7ecd2" opacity="0.79"/><circle cx="936" cy="307" r="1.3" fill="#f7ecd2" opacity="0.37"/><circle cx="139" cy="139" r="1.8" fill="#f7ecd2" opacity="0.56"/><circle cx="895" cy="174" r="1.3" fill="#f7ecd2" opacity="0.65"/><circle cx="1020" cy="28" r="1.3" fill="#f7ecd2" opacity="0.45"/><circle cx="682" cy="149" r="0.8" fill="#f7ecd2" opacity="0.53"/><circle cx="145" cy="221" r="0.8" fill="#f7ecd2" opacity="0.80"/><circle cx="681" cy="236" r="1.8" fill="#f7ecd2" opacity="0.51"/><circle cx="346" cy="110" r="0.8" fill="#f7ecd2" opacity="0.45"/><circle cx="28" cy="171" r="1.3" fill="#f7ecd2" opacity="0.73"/><circle cx="951" cy="283" r="1.3" fill="#f7ecd2" opacity="0.68"/><circle cx="67" cy="138" r="1.3" fill="#f7ecd2" opacity="0.81"/><circle cx="472" cy="172" r="1.8" fill="#f7ecd2" opacity="0.69"/><circle cx="174" cy="173" r="1.8" fill="#f7ecd2" opacity="0.37"/><circle cx="157" cy="45" r="1.3" fill="#f7ecd2" opacity="0.50"/><circle cx="253" cy="20" r="0.8" fill="#f7ecd2" opacity="0.45"/><circle cx="198" cy="74" r="1.8" fill="#f7ecd2" opacity="0.37"/><circle cx="1120" cy="155" r="0.8" fill="#f7ecd2" opacity="0.35"/><circle cx="163" cy="127" r="1.8" fill="#f7ecd2" opacity="0.36"/><circle cx="39" cy="82" r="1.3" fill="#f7ecd2" opacity="0.83"/><circle cx="724" cy="296" r="0.8" fill="#f7ecd2" opacity="0.39"/><circle cx="466" cy="177" r="1.3" fill="#f7ecd2" opacity="0.67"/><circle cx="969" cy="189" r="0.8" fill="#f7ecd2" opacity="0.76"/><circle cx="625" cy="124" r="1.8" fill="#f7ecd2" opacity="0.35"/><circle cx="850" cy="18" r="1.3" fill="#f7ecd2" opacity="0.35"/><circle cx="612" cy="179" r="1.8" fill="#f7ecd2" opacity="0.83"/><circle cx="175" cy="291" r="1.3" fill="#f7ecd2" opacity="0.60"/><circle cx="811" cy="6" r="1.3" fill="#f7ecd2" opacity="0.51"/><circle cx="576" cy="260" r="1.8" fill="#f7ecd2" opacity="0.45"/><circle cx="358" cy="21" r="1.3" fill="#f7ecd2" opacity="0.53"/><circle cx="181" cy="33" r="1.3" fill="#f7ecd2" opacity="0.58"/><circle cx="597" cy="68" r="1.8" fill="#f7ecd2" opacity="0.81"/><circle cx="1102" cy="142" r="1.8" fill="#f7ecd2" opacity="0.69"/><circle cx="904" cy="183" r="1.3" fill="#f7ecd2" opacity="0.67"/><circle cx="987" cy="95" r="1.8" fill="#f7ecd2" opacity="0.50"/><circle cx="1183" cy="110" r="0.8" fill="#f7ecd2" opacity="0.65"/><circle cx="28" cy="64" r="1.8" fill="#f7ecd2" opacity="0.77"/><circle cx="1050" cy="185" r="1.8" fill="#f7ecd2" opacity="0.35"/><circle cx="193" cy="197" r="0.8" fill="#f7ecd2" opacity="0.56"/><circle cx="169" cy="192" r="1.3" fill="#f7ecd2" opacity="0.83"/><circle cx="954" cy="106" r="1.3" fill="#f7ecd2" opacity="0.59"/><circle cx="796" cy="27" r="1.3" fill="#f7ecd2" opacity="0.77"/><circle cx="199" cy="279" r="1.3" fill="#f7ecd2" opacity="0.56"/><circle cx="1155" cy="54" r="0.8" fill="#f7ecd2" opacity="0.55"/><circle cx="280" cy="188" r="0.8" fill="#f7ecd2" opacity="0.75"/><circle cx="142" cy="49" r="1.8" fill="#f7ecd2" opacity="0.43"/><circle cx="1005" cy="1" r="1.3" fill="#f7ecd2" opacity="0.40"/><circle cx="541" cy="296" r="0.8" fill="#f7ecd2" opacity="0.71"/><circle cx="406" cy="250" r="1.8" fill="#f7ecd2" opacity="0.35"/><circle cx="288" cy="51" r="0.8" fill="#f7ecd2" opacity="0.73"/><circle cx="211" cy="103" r="1.8" fill="#f7ecd2" opacity="0.68"/><circle cx="727" cy="178" r="1.8" fill="#f7ecd2" opacity="0.41"/><circle cx="980" cy="120" r="42" fill="#f6ecd0" opacity="0.95"/><circle cx="996" cy="112" r="36" fill="url(#sky)" opacity="0.92"/>
<rect x="240" y="410" width="720" height="150" fill="#12141c"/><path d="M 268 560 L 268 472 Q 300 432 332 472 L 332 560 Z" fill="#0c0e14" opacity="0.9"/><path d="M 366 560 L 366 472 Q 398 432 430 472 L 430 560 Z" fill="#0c0e14" opacity="0.9"/><path d="M 464 560 L 464 472 Q 496 432 528 472 L 528 560 Z" fill="#0c0e14" opacity="0.9"/><path d="M 562 560 L 562 472 Q 594 432 626 472 L 626 560 Z" fill="#0c0e14" opacity="0.9"/><path d="M 660 560 L 660 472 Q 692 432 724 472 L 724 560 Z" fill="#0c0e14" opacity="0.9"/><path d="M 758 560 L 758 472 Q 790 432 822 472 L 822 560 Z" fill="#0c0e14" opacity="0.9"/><path d="M 856 560 L 856 472 Q 888 432 920 472 L 920 560 Z" fill="#0c0e14" opacity="0.9"/><path d="M 450 410 C 450 265.5, 517.5 240, 600 240 C 682.5 240, 750 265.5, 750 410 Z" fill="#9aa3ad"/><line x1="600" y1="240" x2="600" y2="218" stroke="#d8b45a" stroke-width="3"/><circle cx="600" cy="214" r="4.5" fill="#d8b45a"/><path d="M 600 200 a 8 8 0 1 0 6 13 a 6.4 6.4 0 1 1 -6 -13 Z" fill="#d8b45a"/><rect x="139.0" y="230" width="22" height="330" fill="#12141c"/><rect x="129.1" y="234" width="41.8" height="7" rx="3" fill="#12141c"/><path d="M 131.3 232 C 131.3 210.495, 139.715 206.7, 150 206.7 C 160.285 206.7, 168.7 210.495, 168.7 232 Z" fill="#12141c"/><line x1="150" y1="206.7" x2="150" y2="184.7" stroke="#d8b45a" stroke-width="3"/><circle cx="150" cy="180.7" r="4.5" fill="#d8b45a"/><path d="M 150 166.7 a 8 8 0 1 0 6 13 a 6.4 6.4 0 1 1 -6 -13 Z" fill="#d8b45a"/>
<rect x="0" y="560" width="1200" height="140" fill="#0c0e14"/>

<rect x="0" y="556" width="1200" height="4" fill="#d8b45a" opacity="0.55"/>
</svg>