<svg xmlns="http://www.w3.org/2000/svg" viewBox="0 0 1200 700" role="img">
<defs>
<linearGradient id="sky" x1="0" y1="0" x2="0" y2="1">
<stop offset="0" stop-color="#0a1026"/><stop offset="0.62" stop-color="#152046"/><stop offset="1" stop-color="#2b3a6b"/>
</linearGradient>
<pattern id="g1" width="120" height="120" patternUnits="userSpaceOnUse"><polygon points="111.6,60.0 80.0,68.3 96.5,96.5 68.3,80.0 60.0,111.6 51.7,80.0 23.5,96.5 40.0,68.3 8.4,60.0 40.0,51.7 23.5,23.5 51.7,40.0 60.0,8.4 68.3,40.0 96.5,23.5 80.0,51.7" fill="none" stroke="#e8d9a8" stroke-width="1.6" opacity="0.1"/><rect x="17.4" y="17.4" width="85.2" height="85.2" fill="none" stroke="#e8d9a8" stroke-width="1.6" opacity="0.06999999999999999" transform="rotate(45 60.0 60.0)"/></pattern>
</defs>
<rect width="1200" height="700" fill="url(#sky)"/>
<rect width="1200" height="700" fill="url(#g1)"/>
<circle cx="1116" cy="256" r="1.3" fill="#f7ecd2" opacity="0.81"/><circle cx="46" cy="125" r="0.8" fill="#f7ecd2" opacity="0.35"/><circle cx="73" cy="1" r="1.8" fill="#f7ecd2" opacity="0.58"/><circle cx="981" cy="328" r="1.3" fill="#f7ecd2" opacity="0.53"/><circle cx="202" cy="38" r="0.8" fill="#f7ecd2" opacity="0.61"/><circle cx="1072" cy="207" r="1.3" fill="#f7ecd2" opacity="0.39"/><circle cx="1119" cy="23" r="1.8" fill="#f7ecd2" opacity="0.72"/><circle cx="1087" cy="110" r="0.8" fill="#f7ecd2" opacity="0.55"/><circle cx="88" cy="140" r="0.8" fill="#f7ecd2" opacity="0.55"/><circle cx="498" cy="329" r="1.8" fill="#f7ecd2" opacity="0.77"/><circle cx="565" cy="85" r="1.8" fill="#f7ecd2" opacity="0.60"/><circle cx="793" cy="72" r="1.3" fill="#f7ecd2" opacity="0.81"/><circle cx="774" cy="222" r="0.8" fill="#f7ecd2" opacity="0.63"/><circle cx="724" cy="91" r="1.8" fill="#f7ecd2" opacity="0.69"/><circle cx="811" cy="127" r="1.8" fill="#f7ecd2" opacity="0.82"/><circle cx="99" cy="214" r="1.3" fill="#f7ecd2" opacity="0.71"/><circle cx="1060" cy="144" r="1.3" fill="#f7ecd2" opacity="0.75"/><circle cx="550" cy="33" r="1.3" fill="#f7ecd2" opacity="0.35"/><circle cx="657" cy="9" r="0.8" fill="#f7ecd2" opacity="0.48"/><circle cx="205" cy="336" r="1.3" fill="#f7ecd2" opacity="0.65"/><circle cx="946" cy="246" r="1.3" fill="#f7ecd2" opacity="0.51"/><circle cx="1176" cy="295" r="1.3" fill="#f7ecd2" opacity="0.55"/><circle cx="103" cy="71" r="0.8" fill="#f7ecd2" opacity="0.48"/><circle cx="1111" cy="98" r="0.8" fill="#f7ecd2" opacity="0.63"/><circle cx="432" cy="188" r="1.8" fill="#f7ecd2" opacity="0.51"/><circle cx="202" cy="257" r="0.8" fill="#f7ecd2" opacity="0.49"/><circle cx="349" cy="113" r="0.8" fill="#f7ecd2" opacity="0.72"/><circle cx="417" cy="240" r="0.8" fill="#f7ecd2" opacity="0.65"/><circle cx="718" cy="110" r="0.8" fill="#f7ecd2" opacity="0.65"/><circle cx="28" cy="199" r="1.8" fill="#f7ecd2" opacity="0.57"/><circle cx="195" cy="335" r="1.8" fill="#f7ecd2" opacity="0.60"/><circle cx="523" cy="22" r="1.8" fill="#f7ecd2" opacity="0.41"/><circle cx="604" cy="212" r="0.8" fill="#f7ecd2" opacity="0.83"/><circle cx="654" cy="121" r="1.3" fill="#f7ecd2" opacity="0.69"/><circle cx="841" cy="197" r="0.8" fill="#f7ecd2" opacity="0.62"/><circle cx="229" cy="324" r="1.3" fill="#f7ecd2" opacity="0.81"/><circle cx="90" cy="154" r="1.3" fill="#f7ecd2" opacity="0.45"/><circle cx="880" cy="223" r="1.8" fill="#f7ecd2" opacity="0.75"/><circle cx="1087" cy="239" r="0.8" fill="#f7ecd2" opacity="0.78"/><circle cx="735" cy="266" r="1.8" fill="#f7ecd2" opacity="0.45"/><circle cx="376" cy="76" r="1.8" fill="#f7ecd2" opacity="0.61"/><circle cx="706" cy="165" r="1.3" fill="#f7ecd2" opacity="0.75"/><circle cx="933" cy="121" r="1.3" fill="#f7ecd2" opacity="0.78"/><circle cx="841" cy="48" r="1.3" fill="#f7ecd2" opacity="0.53"/><circle cx="262" cy="178" r="1.8" fill="#f7ecd2" opacity="0.71"/><circle cx="132" cy="287" r="1.8" fill="#f7ecd2" opacity="0.69"/><circle cx="379" cy="183" r="1.3" fill="#f7ecd2" opacity="0.42"/><circle cx="547" cy="10" r="1.8" fill="#f7ecd2" opacity="0.55"/><circle cx="948" cy="260" r="1.8" fill="#f7ecd2" opacity="0.65"/><circle cx="358" cy="49" r="1.8" fill="#f7ecd2" opacity="0.77"/><circle cx="625" cy="225" r="1.3" fill="#f7ecd2" opacity="0.60"/><circle cx="1053" cy="292" r="1.3" fill="#f7ecd2" opacity="0.61"/><circle cx="34" cy="42" r="1.3" fill="#f7ecd2" opacity="0.63"/><circle cx="184" cy="331" r="1.8" fill="#f7ecd2" opacity="0.39"/><circle cx="471" cy="107" r="1.8" fill="#f7ecd2" opacity="0.82"/><circle cx="1159" cy="74" r="0.8" fill="#f7ecd2" opacity="0.51"/><circle cx="1120" cy="284" r="0.8" fill="#f7ecd2" opacity="0.65"/><circle cx="810" cy="253" r="1.3" fill="#f7ecd2" opacity="0.65"/><circle cx="1117" cy="309" r="1.3" fill="#f7ecd2" opacity="0.38"/><circle cx="865" cy="36" r="1.3" fill="#f7ecd2" opacity="0.75"/><circle cx="980" cy="120" r="42" fill="#f6ecd0" opacity="0.95"/><circle cx="996" cy="112" r="36" fill="url(#sky)" opacity="0.92"/>
<rect x="240" y="410" width="720" height="150" fill="#12141c"/><path d="M 268 560 L 268 472 Q 300 432 332 472 L 332 560 Z" fill="#0c0e14" opacity="0.9"/><path d="M 366 560 L 366 472 Q 398 432 430 472 L 430 560 Z" fill="#0c0e14" opacity="0.9"/><path d="M 464 560 L 464 472 Q 496 432 528 472 L 528 560 Z" fill="#0c0e14" opacity="0.9"/><path d="M 562 560 L 562 472 Q 594 432 626 472 L 626 560 Z" fill="#0c0e14" opacity="0.9"/><path d="M 660 560 L 660 472 Q 692 432 724 472 L 724 560 Z" fill="#0c0e14" opacity="0.9"/><path d="M 758 560 L 758 472 Q 790 432 822 472 L 822 560 Z" fill="#0c0e14" opacity="0.9"/><path d="M 856 560 L 856 472 Q 888 432 920 472 L 920 560 Z" fill="#0c0e14" opacity="0.9"/><path d="M 450 410 C 450 265.5, 517.5 240, 600 240 C 682.5 240, 750 265.5, 750 410 Z" fill="#9aa3ad"/><line x1="600" y1="240" x2="600" y2="218" stroke="#d8b45a" stroke-width="3"/><circle cx="600" cy="214" r="4.5" fill="#d8b45a"/><path d="M 600 200 a 8 8 0 1 0 6 13 a 6.4 6.4 0 1 1 -6 -13 Z" fill="#d8b45a"/><rect x="139.0" y="230" width="22" height="330" fill="#12141c"/><rect x="129.1" y="234" width="41.8" height="7" rx="3" fill="#12141c"/><path d="M 131.3 232 C 131.3 210.495, 139.715 206.7, 150 206.7 C 160.285 206.7, 168.7 210.495, 168.7 232 Z" fill="#12141c"/><line x1="150" y1="206.7" x2="150" y2="184.7" stroke="#d8b45a" stroke-width="3"/><circle cx="150" cy="180.7" r="4.5" fill="#d8b45a"/><path d="M 150 166.7 a 8 8 0 1 0 6 13 a 6.4 6.4 0 1 1 -6 -13 Z" fill="#d8b45a"/>
<rect x="0" y="560" width="1200" height="140" fill="#0c0e14"/>

<rect x="0" y="556" width="1200" height="4" fill="#d8b45a" opacity="0.55"/>
</svg>