<svg xmlns="http://www.w3.org/2000/svg" viewBox="0 0 1200 700" role="img">
<defs>
<linearGradient id="sky" x1="0" y1="0" x2="0" y2="1">
<stop offset="0" stop-color="#0a1026"/><stop offset="0.62" stop-color="#152046"/><stop offset="1" stop-color="#2b3a6b"/>
</linearGradient>
<pattern id="g1" width="120" height="120" patternUnits="userSpaceOnUse"><polygon points="111.6,60.0 80.0,68.3 96.5,96.5 68.3,80.0 60.0,111.6 51.7,80.0 23.5,96.5 40.0,68.3 8.4,60.0 40.0,51.7 23.5,23.5 51.7,40.0 60.0,8.4 68.3,40.0 96.5,23.5 80.0,51.7" fill="none" stroke="#e8d9a8" stroke-width="1.6" opacity="0.1"/><rect x="17.4" y="17.4" width="85.2" height="85.2" fill="none" stroke="#e8d9a8" stroke-width="1.6" opacity="0.06999999999999999" transform="rotate(45 60.0 60.0)"/></pattern>
</defs>
<rect width="1200" height="700" fill="url(#sky)"/>
<rect width="1200" height="700" fill="url(#g1)"/>
<circle cx="484" cy="44" r="0.8" fill="#f7ecd2" opacity="0.81"/><circle cx="710" cy="309" r="1.8" fill="#f7ecd2" opacity="0.75"/><circle cx="545" cy="13" r="0.8" fill="#f7ecd2" opacity="0.70"/><circle cx="637" cy="204" r="1.3" fill="#f7ecd2" opacity="0.83"/><circle cx="290" cy="46" r="0.8" fill="#f7ecd2" opacity="0.75"/><circle cx="296" cy="291" r="1.8" fill="#f7ecd2" opacity="0.71"/><circle cx="871" cy="155" r="0.8" fill="#f7ecd2" opacity="0.40"/><circle cx="983" cy="286" r="0.8" fill="#f7ecd2" opacity="0.73"/><circle cx="896" cy="28" r="0.8" fill="#f7ecd2" opacity="0.73"/><circle cx="682" cy="253" r="1.8" fill="#f7ecd2" opacity="0.81"/><circle cx="797" cy="137" r="1.3" fill="#f7ecd2" opacity="0.74"/><circle cx="929" cy="208" r="0.8" fill="#f7ecd2" opacity="0.67"/><circle cx="1102" cy="190" r="1.8" fill="#f7ecd2" opacity="0.65"/><circle cx="668" cy="55" r="0.8" fill="#f7ecd2" opacity="0.75"/><circle cx="323" cy="299" r="1.3" fill="#f7ecd2" opacity="0.62"/><circle cx="475" cy="310" r="1.8" fill="#f7ecd2" opacity="0.35"/><circle cx="908" cy="192" r="1.8" fill="#f7ecd2" opacity="0.71"/><circle cx="254" cy="37" r="0.8" fill="#f7ecd2" opacity="0.83"/><circle cx="649" cy="101" r="0.8" fill="#f7ecd2" opacity="0.84"/><circle cx="821" cy="52" r="0.8" fill="#f7ecd2" opacity="0.77"/><circle cx="314" cy="34" r="0.8" fill="#f7ecd2" opacity="0.61"/><circle cx="640" cy="339" r="1.3" fill="#f7ecd2" opacity="0.45"/><circle cx="575" cy="83" r="1.3" fill="#f7ecd2" opacity="0.60"/><circle cx="767" cy="314" r="1.3" fill="#f7ecd2" opacity="0.73"/><circle cx="520" cy="196" r="1.8" fill="#f7ecd2" opacity="0.55"/><circle cx="626" cy="141" r="1.8" fill="#f7ecd2" opacity="0.51"/><circle cx="101" cy="245" r="1.3" fill="#f7ecd2" opacity="0.80"/><circle cx="313" cy="76" r="1.8" fill="#f7ecd2" opacity="0.73"/><circle cx="326" cy="198" r="1.8" fill="#f7ecd2" opacity="0.83"/><circle cx="212" cy="123" r="1.8" fill="#f7ecd2" opacity="0.61"/><circle cx="427" cy="47" r="0.8" fill="#f7ecd2" opacity="0.54"/><circle cx="659" cy="158" r="1.3" fill="#f7ecd2" opacity="0.57"/><circle cx="932" cy="180" r="1.8" fill="#f7ecd2" opacity="0.45"/><circle cx="598" cy="85" r="1.8" fill="#f7ecd2" opacity="0.65"/><circle cx="353" cy="29" r="1.3" fill="#f7ecd2" opacity="0.72"/><circle cx="605" cy="80" r="1.3" fill="#f7ecd2" opacity="0.35"/><circle cx="1138" cy="2" r="0.8" fill="#f7ecd2" opacity="0.61"/><circle cx="584" cy="227" r="1.3" fill="#f7ecd2" opacity="0.53"/><circle cx="1079" cy="331" r="0.8" fill="#f7ecd2" opacity="0.84"/><circle cx="151" cy="182" r="0.8" fill="#f7ecd2" opacity="0.67"/><circle cx="944" cy="4" r="0.8" fill="#f7ecd2" opacity="0.61"/><circle cx="170" cy="209" r="1.3" fill="#f7ecd2" opacity="0.65"/><circle cx="205" cy="333" r="1.3" fill="#f7ecd2" opacity="0.50"/><circle cx="497" cy="264" r="1.8" fill="#f7ecd2" opacity="0.43"/><circle cx="350" cy="186" r="1.8" fill="#f7ecd2" opacity="0.35"/><circle cx="556" cy="171" r="1.3" fill="#f7ecd2" opacity="0.61"/><circle cx="131" cy="315" r="1.8" fill="#f7ecd2" opacity="0.50"/><circle cx="443" cy="186" r="1.8" fill="#f7ecd2" opacity="0.83"/><circle cx="556" cy="8" r="0.8" fill="#f7ecd2" opacity="0.83"/><circle cx="542" cy="313" r="0.8" fill="#f7ecd2" opacity="0.81"/><circle cx="857" cy="277" r="0.8" fill="#f7ecd2" opacity="0.74"/><circle cx="1189" cy="88" r="1.8" fill="#f7ecd2" opacity="0.67"/><circle cx="362" cy="10" r="0.8" fill="#f7ecd2" opacity="0.55"/><circle cx="128" cy="295" r="0.8" fill="#f7ecd2" opacity="0.45"/><circle cx="1183" cy="79" r="1.8" fill="#f7ecd2" opacity="0.42"/><circle cx="335" cy="30" r="1.8" fill="#f7ecd2" opacity="0.35"/><circle cx="968" cy="332" r="1.3" fill="#f7ecd2" opacity="0.61"/><circle cx="514" cy="257" r="0.8" fill="#f7ecd2" opacity="0.83"/><circle cx="1109" cy="61" r="0.8" fill="#f7ecd2" opacity="0.84"/><circle cx="281" cy="292" r="0.8" fill="#f7ecd2" opacity="0.37"/><circle cx="980" cy="120" r="42" fill="#f6ecd0" opacity="0.95"/><circle cx="996" cy="112" r="36" fill="url(#sky)" opacity="0.92"/>
<path d="M 200 560 L 220 370 L 1000 370 L 1020 560 Z" fill="#12141c"/><path d="M 278 370 L 292 190 Q 330 160 368 190 L 382 370 Z" fill="#12141c"/><ellipse cx="330" cy="168" rx="9" ry="12" fill="#f2e6c8"/><line x1="300" y1="210" x2="284" y2="210" stroke="#0c0e14" stroke-width="5"/><line x1="360" y1="210" x2="376" y2="210" stroke="#0c0e14" stroke-width="5"/><line x1="300" y1="252" x2="284" y2="252" stroke="#0c0e14" stroke-width="5"/><line x1="360" y1="252" x2="376" y2="252" stroke="#0c0e14" stroke-width="5"/><line x1="300" y1="294" x2="284" y2="294" stroke="#0c0e14" stroke-width="5"/><line x1="360" y1="294" x2="376" y2="294" stroke="#0c0e14" stroke-width="5"/><line x1="300" y1="336" x2="284" y2="336" stroke="#0c0e14" stroke-width="5"/><line x1="360" y1="336" x2="376" y2="336" stroke="#0c0e14" stroke-width="5"/><path d="M 548 370 L 562 190 Q 600 160 638 190 L 652 370 Z" fill="#12141c"/><ellipse cx="600" cy="168" rx="9" ry="12" fill="#f2e6c8"/><line x1="570" y1="210" x2="554" y2="210" stroke="#0c0e14" stroke-width="5"/><line x1="630" y1="210" x2="646" y2="210" stroke="#0c0e14" stroke-width="5"/><line x1="570" y1="252" x2="554" y2="252" stroke="#0c0e14" stroke-width="5"/><line x1="630" y1="252" x2="646" y2="252" stroke="#0c0e14" stroke-width="5"/><line x1="570" y1="294" x2="554" y2="294" stroke="#0c0e14" stroke-width="5"/><line x1="630" y1="294" x2="646" y2="294" stroke="#0c0e14" stroke-width="5"/><line x1="570" y1="336" x2="554" y2="336" stroke="#0c0e14" stroke-width="5"/><line x1="630" y1="336" x2="646" y2="336" stroke="#0c0e14" stroke-width="5"/><path d="M 818 370 L 832 190 Q 870 160 908 190 L 922 370 Z" fill="#12141c"/><ellipse cx="870" cy="168" rx="9" ry="12" fill="#f2e6c8"/><line x1="840" y1="210" x2="824" y2="210" stroke="#0c0e14" stroke-width="5"/><line x1="900" y1="210" x2="916" y2="210" stroke="#0c0e14" stroke-width="5"/><line x1="840" y1="252" x2="824" y2="252" stroke="#0c0e14" stroke-width="5"/><line x1="900" y1="252" x2="916" y2="252" stroke="#0c0e14" stroke-width="5"/><line x1="840" y1="294" x2="824" y2="294" stroke="#0c0e14" stroke-width="5"/><line x1="900" y1="294" x2="916" y2="294" stroke="#0c0e14" stroke-width="5"/><line x1="840" y1="336" x2="824" y2="336" stroke="#0c0e14" stroke-width="5"/><line x1="900" y1="336" x2="916" y2="336" stroke="#0c0e14" stroke-width="5"/><path d="M 245 370 L 254 335 L 263 370 Z" fill="#12141c"/><path d="M 300 370 L 309 335 L 318 370 Z" fill="#12141c"/><path d="M 355 370 L 364 335 L 373 370 Z" fill="#12141c"/><path d="M 410 370 L 419 335 L 428 370 Z" fill="#12141c"/><path d="M 465 370 L 474 335 L 483 370 Z" fill="#12141c"/><path d="M 520 370 L 529 335 L 538 370 Z" fill="#12141c"/><path d="M 575 370 L 584 335 L 593 370 Z" fill="#12141c"/><path d="M 630 370 L 639 335 L 648 370 Z" fill="#12141c"/><path d="M 685 370 L 694 335 L 703 370 Z" fill="#12141c"/><path d="M 740 370 L 749 335 L 758 370 Z" fill="#12141c"/><path d="M 795 370 L 804 335 L 813 370 Z" fill="#12141c"/><path d="M 850 370 L 859 335 L 868 370 Z" fill="#12141c"/><path d="M 905 370 L 914 335 L 923 370 Z" fill="#12141c"/><path d="M 960 370 L 969 335 L 978 370 Z" fill="#12141c"/>
<rect x="0" y="560" width="1200" height="140" fill="#0c0e14"/>

<rect x="0" y="556" width="1200" height="4" fill="#d8b45a" opacity="0.55"/>
</svg>