<svg xmlns="http://www.w3.org/2000/svg" viewBox="0 0 1200 700" role="img">
<defs>
<linearGradient id="sky" x1="0" y1="0" x2="0" y2="1">
<stop offset="0" stop-color="#0a1026"/><stop offset="0.62" stop-color="#152046"/><stop offset="1" stop-color="#2b3a6b"/>
</linearGradient>
<pattern id="g1" width="120" height="120" patternUnits="userSpaceOnUse"><polygon points="111.6,60.0 80.0,68.3 96.5,96.5 68.3,80.0 60.0,111.6 51.7,80.0 23.5,96.5 40.0,68.3 8.4,60.0 40.0,51.7 23.5,23.5 51.7,40.0 60.0,8.4 68.3,40.0 96.5,23.5 80.0,51.7" fill="none" stroke="#e8d9a8" stroke-width="1.6" opacity="0.1"/><rect x="17.4" y="17.4" width="85.2" height="85.2" fill="none" stroke="#e8d9a8" stroke-width="1.6" opacity="0.06999999999999999" transform="rotate(45 60.0 60.0)"/></pattern>
</defs>
<rect width="1200" height="700" fill="url(#sky)"/>
<rect width="1200" height="700" fill="url(#g1)"/>
<circle cx="1164" cy="44" r="1.8" fill="#f7ecd2" opacity="0.51"/><circle cx="1150" cy="9" r="1.3" fill="#f7ecd2" opacity="0.35"/><circle cx="265" cy="173" r="0.8" fill="#f7ecd2" opacity="0.80"/><circle cx="597" cy="324" r="0.8" fill="#f7ecd2" opacity="0.63"/><circle cx="970" cy="46" r="1.8" fill="#f7ecd2" opacity="0.55"/><circle cx="736" cy="331" r="1.8" fill="#f7ecd2" opacity="0.51"/><circle cx="591" cy="315" r="0.8" fill="#f7ecd2" opacity="0.50"/><circle cx="943" cy="66" r="1.3" fill="#f7ecd2" opacity="0.73"/><circle cx="376" cy="228" r="1.3" fill="#f7ecd2" opacity="0.63"/><circle cx="1122" cy="293" r="1.8" fill="#f7ecd2" opacity="0.81"/><circle cx="517" cy="297" r="1.3" fill="#f7ecd2" opacity="0.84"/><circle cx="889" cy="328" r="1.8" fill="#f7ecd2" opacity="0.77"/><circle cx="582" cy="50" r="1.8" fill="#f7ecd2" opacity="0.35"/><circle cx="1108" cy="95" r="0.8" fill="#f7ecd2" opacity="0.45"/><circle cx="43" cy="119" r="0.8" fill="#f7ecd2" opacity="0.52"/><circle cx="435" cy="90" r="0.8" fill="#f7ecd2" opacity="0.35"/><circle cx="388" cy="52" r="1.8" fill="#f7ecd2" opacity="0.61"/><circle cx="694" cy="77" r="0.8" fill="#f7ecd2" opacity="0.73"/><circle cx="369" cy="261" r="0.8" fill="#f7ecd2" opacity="0.44"/><circle cx="781" cy="172" r="1.8" fill="#f7ecd2" opacity="0.67"/><circle cx="994" cy="34" r="1.8" fill="#f7ecd2" opacity="0.81"/><circle cx="1080" cy="39" r="0.8" fill="#f7ecd2" opacity="0.55"/><circle cx="295" cy="243" r="1.3" fill="#f7ecd2" opacity="0.70"/><circle cx="727" cy="94" r="1.8" fill="#f7ecd2" opacity="0.73"/><circle cx="0" cy="56" r="1.8" fill="#f7ecd2" opacity="0.35"/><circle cx="1066" cy="181" r="1.8" fill="#f7ecd2" opacity="0.81"/><circle cx="1021" cy="205" r="1.8" fill="#f7ecd2" opacity="0.40"/><circle cx="273" cy="196" r="1.3" fill="#f7ecd2" opacity="0.43"/><circle cx="1006" cy="198" r="1.3" fill="#f7ecd2" opacity="0.73"/><circle cx="652" cy="163" r="1.8" fill="#f7ecd2" opacity="0.61"/><circle cx="147" cy="207" r="0.8" fill="#f7ecd2" opacity="0.64"/><circle cx="619" cy="278" r="0.8" fill="#f7ecd2" opacity="0.67"/><circle cx="412" cy="40" r="1.8" fill="#f7ecd2" opacity="0.65"/><circle cx="1038" cy="125" r="1.8" fill="#f7ecd2" opacity="0.35"/><circle cx="73" cy="189" r="1.3" fill="#f7ecd2" opacity="0.82"/><circle cx="565" cy="200" r="0.8" fill="#f7ecd2" opacity="0.35"/><circle cx="618" cy="202" r="1.3" fill="#f7ecd2" opacity="0.71"/><circle cx="1024" cy="267" r="1.3" fill="#f7ecd2" opacity="0.43"/><circle cx="799" cy="151" r="1.8" fill="#f7ecd2" opacity="0.84"/><circle cx="111" cy="302" r="1.8" fill="#f7ecd2" opacity="0.57"/><circle cx="424" cy="204" r="1.3" fill="#f7ecd2" opacity="0.81"/><circle cx="610" cy="249" r="1.3" fill="#f7ecd2" opacity="0.75"/><circle cx="1125" cy="293" r="1.8" fill="#f7ecd2" opacity="0.60"/><circle cx="457" cy="44" r="0.8" fill="#f7ecd2" opacity="0.43"/><circle cx="1030" cy="186" r="1.3" fill="#f7ecd2" opacity="0.65"/><circle cx="996" cy="211" r="1.3" fill="#f7ecd2" opacity="0.41"/><circle cx="1051" cy="275" r="0.8" fill="#f7ecd2" opacity="0.60"/><circle cx="403" cy="306" r="1.3" fill="#f7ecd2" opacity="0.53"/><circle cx="36" cy="208" r="1.3" fill="#f7ecd2" opacity="0.73"/><circle cx="982" cy="13" r="1.8" fill="#f7ecd2" opacity="0.51"/><circle cx="577" cy="97" r="1.8" fill="#f7ecd2" opacity="0.54"/><circle cx="1149" cy="208" r="1.3" fill="#f7ecd2" opacity="0.77"/><circle cx="1042" cy="10" r="1.8" fill="#f7ecd2" opacity="0.55"/><circle cx="568" cy="335" r="0.8" fill="#f7ecd2" opacity="0.65"/><circle cx="903" cy="239" r="1.8" fill="#f7ecd2" opacity="0.52"/><circle cx="295" cy="150" r="1.3" fill="#f7ecd2" opacity="0.35"/><circle cx="448" cy="192" r="1.3" fill="#f7ecd2" opacity="0.51"/><circle cx="954" cy="297" r="0.8" fill="#f7ecd2" opacity="0.73"/><circle cx="829" cy="221" r="0.8" fill="#f7ecd2" opacity="0.44"/><circle cx="241" cy="72" r="1.3" fill="#f7ecd2" opacity="0.37"/><circle cx="980" cy="120" r="42" fill="#f6ecd0" opacity="0.95"/><circle cx="996" cy="112" r="36" fill="url(#sky)" opacity="0.92"/>
<path d="M 200 560 L 220 370 L 1000 370 L 1020 560 Z" fill="#12141c"/><path d="M 278 370 L 292 190 Q 330 160 368 190 L 382 370 Z" fill="#12141c"/><ellipse cx="330" cy="168" rx="9" ry="12" fill="#f2e6c8"/><line x1="300" y1="210" x2="284" y2="210" stroke="#0c0e14" stroke-width="5"/><line x1="360" y1="210" x2="376" y2="210" stroke="#0c0e14" stroke-width="5"/><line x1="300" y1="252" x2="284" y2="252" stroke="#0c0e14" stroke-width="5"/><line x1="360" y1="252" x2="376" y2="252" stroke="#0c0e14" stroke-width="5"/><line x1="300" y1="294" x2="284" y2="294" stroke="#0c0e14" stroke-width="5"/><line x1="360" y1="294" x2="376" y2="294" stroke="#0c0e14" stroke-width="5"/><line x1="300" y1="336" x2="284" y2="336" stroke="#0c0e14" stroke-width="5"/><line x1="360" y1="336" x2="376" y2="336" stroke="#0c0e14" stroke-width="5"/><path d="M 548 370 L 562 190 Q 600 160 638 190 L 652 370 Z" fill="#12141c"/><ellipse cx="600" cy="168" rx="9" ry="12" fill="#f2e6c8"/><line x1="570" y1="210" x2="554" y2="210" stroke="#0c0e14" stroke-width="5"/><line x1="630" y1="210" x2="646" y2="210" stroke="#0c0e14" stroke-width="5"/><line x1="570" y1="252" x2="554" y2="252" stroke="#0c0e14" stroke-width="5"/><line x1="630" y1="252" x2="646" y2="252" stroke="#0c0e14" stroke-width="5"/><line x1="570" y1="294" x2="554" y2="294" stroke="#0c0e14" stroke-width="5"/><line x1="630" y1="294" x2="646" y2="294" stroke="#0c0e14" stroke-width="5"/><line x1="570" y1="336" x2="554" y2="336" stroke="#0c0e14" stroke-width="5"/><line x1="630" y1="336" x2="646" y2="336" stroke="#0c0e14" stroke-width="5"/><path d="M 818 370 L 832 190 Q 870 160 908 190 L 922 370 Z" fill="#12141c"/><ellipse cx="870" cy="168" rx="9" ry="12" fill="#f2e6c8"/><line x1="840" y1="210" x2="824" y2="210" stroke="#0c0e14" stroke-width="5"/><line x1="900" y1="210" x2="916" y2="210" stroke="#0c0e14" stroke-width="5"/><line x1="840" y1="252" x2="824" y2="252" stroke="#0c0e14" stroke-width="5"/><line x1="900" y1="252" x2="916" y2="252" stroke="#0c0e14" stroke-width="5"/><line x1="840" y1="294" x2="824" y2="294" stroke="#0c0e14" stroke-width="5"/><line x1="900" y1="294" x2="916" y2="294" stroke="#0c0e14" stroke-width="5"/><line x1="840" y1="336" x2="824" y2="336" stroke="#0c0e14" stroke-width="5"/><line x1="900" y1="336" x2="916" y2="336" stroke="#0c0e14" stroke-width="5"/><path d="M 245 370 L 254 335 L 263 370 Z" fill="#12141c"/><path d="M 300 370 L 309 335 L 318 370 Z" fill="#12141c"/><path d="M 355 370 L 364 335 L 373 370 Z" fill="#12141c"/><path d="M 410 370 L 419 335 L 428 370 Z" fill="#12141c"/><path d="M 465 370 L 474 335 L 483 370 Z" fill="#12141c"/><path d="M 520 370 L 529 335 L 538 370 Z" fill="#12141c"/><path d="M 575 370 L 584 335 L 593 370 Z" fill="#12141c"/><path d="M 630 370 L 639 335 L 648 370 Z" fill="#12141c"/><path d="M 685 370 L 694 335 L 703 370 Z" fill="#12141c"/><path d="M 740 370 L 749 335 L 758 370 Z" fill="#12141c"/><path d="M 795 370 L 804 335 L 813 370 Z" fill="#12141c"/><path d="M 850 370 L 859 335 L 868 370 Z" fill="#12141c"/><path d="M 905 370 L 914 335 L 923 370 Z" fill="#12141c"/><path d="M 960 370 L 969 335 L 978 370 Z" fill="#12141c"/>
<rect x="0" y="560" width="1200" height="140" fill="#0c0e14"/>

<rect x="0" y="556" width="1200" height="4" fill="#d8b45a" opacity="0.55"/>
</svg>