<svg xmlns="http://www.w3.org/2000/svg" viewBox="0 0 1200 700" role="img">
<defs>
<linearGradient id="sky" x1="0" y1="0" x2="0" y2="1">
<stop offset="0" stop-color="#0a1026"/><stop offset="0.62" stop-color="#152046"/><stop offset="1" stop-color="#2b3a6b"/>
</linearGradient>
<pattern id="g1" width="120" height="120" patternUnits="userSpaceOnUse"><polygon points="111.6,60.0 80.0,68.3 96.5,96.5 68.3,80.0 60.0,111.6 51.7,80.0 23.5,96.5 40.0,68.3 8.4,60.0 40.0,51.7 23.5,23.5 51.7,40.0 60.0,8.4 68.3,40.0 96.5,23.5 80.0,51.7" fill="none" stroke="#e8d9a8" stroke-width="1.6" opacity="0.1"/><rect x="17.4" y="17.4" width="85.2" height="85.2" fill="none" stroke="#e8d9a8" stroke-width="1.6" opacity="0.06999999999999999" transform="rotate(45 60.0 60.0)"/></pattern>
</defs>
<rect width="1200" height="700" fill="url(#sky)"/>
<rect width="1200" height="700" fill="url(#g1)"/>
<circle cx="692" cy="32" r="1.3" fill="#f7ecd2" opacity="0.79"/><circle cx="294" cy="333" r="0.8" fill="#f7ecd2" opacity="0.37"/><circle cx="177" cy="165" r="0.8" fill="#f7ecd2" opacity="0.40"/><circle cx="173" cy="100" r="0.8" fill="#f7ecd2" opacity="0.35"/><circle cx="18" cy="114" r="0.8" fill="#f7ecd2" opacity="0.37"/><circle cx="840" cy="155" r="1.8" fill="#f7ecd2" opacity="0.35"/><circle cx="983" cy="227" r="1.3" fill="#f7ecd2" opacity="0.76"/><circle cx="759" cy="142" r="1.3" fill="#f7ecd2" opacity="0.63"/><circle cx="144" cy="176" r="1.8" fill="#f7ecd2" opacity="0.79"/><circle cx="986" cy="157" r="0.8" fill="#f7ecd2" opacity="0.37"/><circle cx="189" cy="329" r="1.8" fill="#f7ecd2" opacity="0.66"/><circle cx="945" cy="24" r="0.8" fill="#f7ecd2" opacity="0.65"/><circle cx="1070" cy="218" r="1.3" fill="#f7ecd2" opacity="0.45"/><circle cx="732" cy="339" r="0.8" fill="#f7ecd2" opacity="0.83"/><circle cx="195" cy="71" r="1.8" fill="#f7ecd2" opacity="0.80"/><circle cx="731" cy="86" r="1.3" fill="#f7ecd2" opacity="0.51"/><circle cx="396" cy="300" r="0.8" fill="#f7ecd2" opacity="0.35"/><circle cx="78" cy="21" r="0.8" fill="#f7ecd2" opacity="0.73"/><circle cx="1001" cy="133" r="0.8" fill="#f7ecd2" opacity="0.68"/><circle cx="117" cy="328" r="1.3" fill="#f7ecd2" opacity="0.61"/><circle cx="522" cy="22" r="1.3" fill="#f7ecd2" opacity="0.69"/><circle cx="224" cy="23" r="1.3" fill="#f7ecd2" opacity="0.37"/><circle cx="207" cy="235" r="1.3" fill="#f7ecd2" opacity="0.80"/><circle cx="303" cy="210" r="0.8" fill="#f7ecd2" opacity="0.65"/><circle cx="248" cy="264" r="1.8" fill="#f7ecd2" opacity="0.57"/><circle cx="1170" cy="5" r="1.8" fill="#f7ecd2" opacity="0.35"/><circle cx="213" cy="317" r="1.8" fill="#f7ecd2" opacity="0.56"/><circle cx="89" cy="272" r="1.3" fill="#f7ecd2" opacity="0.43"/><circle cx="774" cy="146" r="1.8" fill="#f7ecd2" opacity="0.39"/><circle cx="516" cy="27" r="0.8" fill="#f7ecd2" opacity="0.67"/><circle cx="1019" cy="39" r="1.8" fill="#f7ecd2" opacity="0.76"/><circle cx="675" cy="314" r="1.8" fill="#f7ecd2" opacity="0.35"/><circle cx="900" cy="208" r="1.3" fill="#f7ecd2" opacity="0.35"/><circle cx="662" cy="29" r="1.3" fill="#f7ecd2" opacity="0.83"/><circle cx="225" cy="141" r="0.8" fill="#f7ecd2" opacity="0.60"/><circle cx="861" cy="196" r="1.3" fill="#f7ecd2" opacity="0.41"/><circle cx="626" cy="110" r="1.3" fill="#f7ecd2" opacity="0.45"/><circle cx="408" cy="211" r="1.3" fill="#f7ecd2" opacity="0.73"/><circle cx="231" cy="223" r="1.3" fill="#f7ecd2" opacity="0.48"/><circle cx="647" cy="258" r="1.8" fill="#f7ecd2" opacity="0.61"/><circle cx="1152" cy="332" r="1.8" fill="#f7ecd2" opacity="0.49"/><circle cx="954" cy="33" r="0.8" fill="#f7ecd2" opacity="0.67"/><circle cx="1037" cy="285" r="1.8" fill="#f7ecd2" opacity="0.80"/><circle cx="33" cy="160" r="1.3" fill="#f7ecd2" opacity="0.65"/><circle cx="78" cy="254" r="1.8" fill="#f7ecd2" opacity="0.47"/><circle cx="1100" cy="35" r="1.3" fill="#f7ecd2" opacity="0.35"/><circle cx="243" cy="47" r="1.8" fill="#f7ecd2" opacity="0.56"/><circle cx="219" cy="42" r="0.8" fill="#f7ecd2" opacity="0.83"/><circle cx="1004" cy="296" r="1.3" fill="#f7ecd2" opacity="0.69"/><circle cx="846" cy="217" r="1.3" fill="#f7ecd2" opacity="0.67"/><circle cx="249" cy="129" r="0.8" fill="#f7ecd2" opacity="0.56"/><circle cx="5" cy="104" r="1.3" fill="#f7ecd2" opacity="0.55"/><circle cx="330" cy="38" r="1.8" fill="#f7ecd2" opacity="0.75"/><circle cx="192" cy="239" r="1.8" fill="#f7ecd2" opacity="0.73"/><circle cx="1055" cy="191" r="1.3" fill="#f7ecd2" opacity="0.40"/><circle cx="591" cy="146" r="1.8" fill="#f7ecd2" opacity="0.71"/><circle cx="456" cy="100" r="1.3" fill="#f7ecd2" opacity="0.35"/><circle cx="338" cy="241" r="0.8" fill="#f7ecd2" opacity="0.43"/><circle cx="261" cy="293" r="1.8" fill="#f7ecd2" opacity="0.58"/><circle cx="777" cy="28" r="1.3" fill="#f7ecd2" opacity="0.41"/><circle cx="980" cy="120" r="42" fill="#f6ecd0" opacity="0.95"/><circle cx="996" cy="112" r="36" fill="url(#sky)" opacity="0.92"/>
<path d="M 200 560 L 220 370 L 1000 370 L 1020 560 Z" fill="#12141c"/><path d="M 278 370 L 292 190 Q 330 160 368 190 L 382 370 Z" fill="#12141c"/><ellipse cx="330" cy="168" rx="9" ry="12" fill="#f2e6c8"/><line x1="300" y1="210" x2="284" y2="210" stroke="#0c0e14" stroke-width="5"/><line x1="360" y1="210" x2="376" y2="210" stroke="#0c0e14" stroke-width="5"/><line x1="300" y1="252" x2="284" y2="252" stroke="#0c0e14" stroke-width="5"/><line x1="360" y1="252" x2="376" y2="252" stroke="#0c0e14" stroke-width="5"/><line x1="300" y1="294" x2="284" y2="294" stroke="#0c0e14" stroke-width="5"/><line x1="360" y1="294" x2="376" y2="294" stroke="#0c0e14" stroke-width="5"/><line x1="300" y1="336" x2="284" y2="336" stroke="#0c0e14" stroke-width="5"/><line x1="360" y1="336" x2="376" y2="336" stroke="#0c0e14" stroke-width="5"/><path d="M 548 370 L 562 190 Q 600 160 638 190 L 652 370 Z" fill="#12141c"/><ellipse cx="600" cy="168" rx="9" ry="12" fill="#f2e6c8"/><line x1="570" y1="210" x2="554" y2="210" stroke="#0c0e14" stroke-width="5"/><line x1="630" y1="210" x2="646" y2="210" stroke="#0c0e14" stroke-width="5"/><line x1="570" y1="252" x2="554" y2="252" stroke="#0c0e14" stroke-width="5"/><line x1="630" y1="252" x2="646" y2="252" stroke="#0c0e14" stroke-width="5"/><line x1="570" y1="294" x2="554" y2="294" stroke="#0c0e14" stroke-width="5"/><line x1="630" y1="294" x2="646" y2="294" stroke="#0c0e14" stroke-width="5"/><line x1="570" y1="336" x2="554" y2="336" stroke="#0c0e14" stroke-width="5"/><line x1="630" y1="336" x2="646" y2="336" stroke="#0c0e14" stroke-width="5"/><path d="M 818 370 L 832 190 Q 870 160 908 190 L 922 370 Z" fill="#12141c"/><ellipse cx="870" cy="168" rx="9" ry="12" fill="#f2e6c8"/><line x1="840" y1="210" x2="824" y2="210" stroke="#0c0e14" stroke-width="5"/><line x1="900" y1="210" x2="916" y2="210" stroke="#0c0e14" stroke-width="5"/><line x1="840" y1="252" x2="824" y2="252" stroke="#0c0e14" stroke-width="5"/><line x1="900" y1="252" x2="916" y2="252" stroke="#0c0e14" stroke-width="5"/><line x1="840" y1="294" x2="824" y2="294" stroke="#0c0e14" stroke-width="5"/><line x1="900" y1="294" x2="916" y2="294" stroke="#0c0e14" stroke-width="5"/><line x1="840" y1="336" x2="824" y2="336" stroke="#0c0e14" stroke-width="5"/><line x1="900" y1="336" x2="916" y2="336" stroke="#0c0e14" stroke-width="5"/><path d="M 245 370 L 254 335 L 263 370 Z" fill="#12141c"/><path d="M 300 370 L 309 335 L 318 370 Z" fill="#12141c"/><path d="M 355 370 L 364 335 L 373 370 Z" fill="#12141c"/><path d="M 410 370 L 419 335 L 428 370 Z" fill="#12141c"/><path d="M 465 370 L 474 335 L 483 370 Z" fill="#12141c"/><path d="M 520 370 L 529 335 L 538 370 Z" fill="#12141c"/><path d="M 575 370 L 584 335 L 593 370 Z" fill="#12141c"/><path d="M 630 370 L 639 335 L 648 370 Z" fill="#12141c"/><path d="M 685 370 L 694 335 L 703 370 Z" fill="#12141c"/><path d="M 740 370 L 749 335 L 758 370 Z" fill="#12141c"/><path d="M 795 370 L 804 335 L 813 370 Z" fill="#12141c"/><path d="M 850 370 L 859 335 L 868 370 Z" fill="#12141c"/><path d="M 905 370 L 914 335 L 923 370 Z" fill="#12141c"/><path d="M 960 370 L 969 335 L 978 370 Z" fill="#12141c"/>
<rect x="0" y="560" width="1200" height="140" fill="#0c0e14"/>

<rect x="0" y="556" width="1200" height="4" fill="#d8b45a" opacity="0.55"/>
</svg>