<svg xmlns="http://www.w3.org/2000/svg" viewBox="0 0 1200 700" role="img">
<defs>
<linearGradient id="sky" x1="0" y1="0" x2="0" y2="1">
<stop offset="0" stop-color="#0a1026"/><stop offset="0.62" stop-color="#152046"/><stop offset="1" stop-color="#2b3a6b"/>
</linearGradient>
<pattern id="g1" width="120" height="120" patternUnits="userSpaceOnUse"><polygon points="111.6,60.0 80.0,68.3 96.5,96.5 68.3,80.0 60.0,111.6 51.7,80.0 23.5,96.5 40.0,68.3 8.4,60.0 40.0,51.7 23.5,23.5 51.7,40.0 60.0,8.4 68.3,40.0 96.5,23.5 80.0,51.7" fill="none" stroke="#e8d9a8" stroke-width="1.6" opacity="0.1"/><rect x="17.4" y="17.4" width="85.2" height="85.2" fill="none" stroke="#e8d9a8" stroke-width="1.6" opacity="0.06999999999999999" transform="rotate(45 60.0 60.0)"/></pattern>
</defs>
<rect width="1200" height="700" fill="url(#sky)"/>
<rect width="1200" height="700" fill="url(#g1)"/>
<circle cx="435" cy="225" r="0.8" fill="#f7ecd2" opacity="0.60"/><circle cx="733" cy="2" r="0.8" fill="#f7ecd2" opacity="0.51"/><circle cx="1024" cy="242" r="0.8" fill="#f7ecd2" opacity="0.43"/><circle cx="804" cy="281" r="1.8" fill="#f7ecd2" opacity="0.59"/><circle cx="481" cy="187" r="1.8" fill="#f7ecd2" opacity="0.82"/><circle cx="1039" cy="204" r="1.3" fill="#f7ecd2" opacity="0.41"/><circle cx="1110" cy="84" r="0.8" fill="#f7ecd2" opacity="0.75"/><circle cx="430" cy="143" r="0.8" fill="#f7ecd2" opacity="0.75"/><circle cx="127" cy="329" r="0.8" fill="#f7ecd2" opacity="0.68"/><circle cx="945" cy="246" r="0.8" fill="#f7ecd2" opacity="0.55"/><circle cx="796" cy="106" r="1.8" fill="#f7ecd2" opacity="0.61"/><circle cx="856" cy="325" r="1.8" fill="#f7ecd2" opacity="0.35"/><circle cx="573" cy="111" r="0.8" fill="#f7ecd2" opacity="0.38"/><circle cx="451" cy="128" r="0.8" fill="#f7ecd2" opacity="0.63"/><circle cx="82" cy="308" r="0.8" fill="#f7ecd2" opacity="0.41"/><circle cx="882" cy="7" r="1.3" fill="#f7ecd2" opacity="0.59"/><circle cx="619" cy="73" r="1.8" fill="#f7ecd2" opacity="0.72"/><circle cx="757" cy="330" r="1.3" fill="#f7ecd2" opacity="0.45"/><circle cx="168" cy="150" r="0.8" fill="#f7ecd2" opacity="0.35"/><circle cx="508" cy="209" r="0.8" fill="#f7ecd2" opacity="0.57"/><circle cx="265" cy="215" r="0.8" fill="#f7ecd2" opacity="0.60"/><circle cx="663" cy="32" r="1.8" fill="#f7ecd2" opacity="0.51"/><circle cx="1054" cy="312" r="1.3" fill="#f7ecd2" opacity="0.83"/><circle cx="934" cy="51" r="1.3" fill="#f7ecd2" opacity="0.69"/><circle cx="711" cy="337" r="1.3" fill="#f7ecd2" opacity="0.42"/><circle cx="169" cy="254" r="0.8" fill="#f7ecd2" opacity="0.61"/><circle cx="340" cy="174" r="1.3" fill="#f7ecd2" opacity="0.45"/><circle cx="960" cy="73" r="1.3" fill="#f7ecd2" opacity="0.65"/><circle cx="757" cy="299" r="0.8" fill="#f7ecd2" opacity="0.78"/><circle cx="475" cy="116" r="0.8" fill="#f7ecd2" opacity="0.35"/><circle cx="426" cy="16" r="1.3" fill="#f7ecd2" opacity="0.51"/><circle cx="586" cy="275" r="0.8" fill="#f7ecd2" opacity="0.35"/><circle cx="403" cy="101" r="0.8" fill="#f7ecd2" opacity="0.38"/><circle cx="381" cy="158" r="1.8" fill="#f7ecd2" opacity="0.83"/><circle cx="112" cy="38" r="0.8" fill="#f7ecd2" opacity="0.41"/><circle cx="1012" cy="117" r="1.3" fill="#f7ecd2" opacity="0.39"/><circle cx="849" cy="223" r="1.3" fill="#f7ecd2" opacity="0.62"/><circle cx="1087" cy="180" r="1.3" fill="#f7ecd2" opacity="0.45"/><circle cx="598" cy="40" r="1.8" fill="#f7ecd2" opacity="0.55"/><circle cx="1038" cy="139" r="1.3" fill="#f7ecd2" opacity="0.67"/><circle cx="895" cy="185" r="0.8" fill="#f7ecd2" opacity="0.60"/><circle cx="193" cy="242" r="0.8" fill="#f7ecd2" opacity="0.41"/><circle cx="684" cy="222" r="0.8" fill="#f7ecd2" opacity="0.83"/><circle cx="664" cy="1" r="1.8" fill="#f7ecd2" opacity="0.49"/><circle cx="541" cy="327" r="1.3" fill="#f7ecd2" opacity="0.42"/><circle cx="99" cy="284" r="1.8" fill="#f7ecd2" opacity="0.51"/><circle cx="370" cy="244" r="1.8" fill="#f7ecd2" opacity="0.65"/><circle cx="1090" cy="183" r="1.3" fill="#f7ecd2" opacity="0.55"/><circle cx="987" cy="109" r="1.3" fill="#f7ecd2" opacity="0.68"/><circle cx="805" cy="306" r="1.3" fill="#f7ecd2" opacity="0.65"/><circle cx="856" cy="246" r="1.3" fill="#f7ecd2" opacity="0.61"/><circle cx="1116" cy="205" r="1.3" fill="#f7ecd2" opacity="0.65"/><circle cx="1033" cy="71" r="0.8" fill="#f7ecd2" opacity="0.78"/><circle cx="1111" cy="168" r="1.3" fill="#f7ecd2" opacity="0.83"/><circle cx="942" cy="88" r="1.3" fill="#f7ecd2" opacity="0.81"/><circle cx="742" cy="67" r="1.8" fill="#f7ecd2" opacity="0.49"/><circle cx="679" cy="213" r="1.3" fill="#f7ecd2" opacity="0.62"/><circle cx="1017" cy="210" r="0.8" fill="#f7ecd2" opacity="0.55"/><circle cx="628" cy="110" r="0.8" fill="#f7ecd2" opacity="0.65"/><circle cx="1168" cy="249" r="1.3" fill="#f7ecd2" opacity="0.67"/><circle cx="980" cy="120" r="42" fill="#f6ecd0" opacity="0.95"/><circle cx="996" cy="112" r="36" fill="url(#sky)" opacity="0.92"/>
<path d="M 200 560 L 220 370 L 1000 370 L 1020 560 Z" fill="#12141c"/><path d="M 278 370 L 292 190 Q 330 160 368 190 L 382 370 Z" fill="#12141c"/><ellipse cx="330" cy="168" rx="9" ry="12" fill="#f2e6c8"/><line x1="300" y1="210" x2="284" y2="210" stroke="#0c0e14" stroke-width="5"/><line x1="360" y1="210" x2="376" y2="210" stroke="#0c0e14" stroke-width="5"/><line x1="300" y1="252" x2="284" y2="252" stroke="#0c0e14" stroke-width="5"/><line x1="360" y1="252" x2="376" y2="252" stroke="#0c0e14" stroke-width="5"/><line x1="300" y1="294" x2="284" y2="294" stroke="#0c0e14" stroke-width="5"/><line x1="360" y1="294" x2="376" y2="294" stroke="#0c0e14" stroke-width="5"/><line x1="300" y1="336" x2="284" y2="336" stroke="#0c0e14" stroke-width="5"/><line x1="360" y1="336" x2="376" y2="336" stroke="#0c0e14" stroke-width="5"/><path d="M 548 370 L 562 190 Q 600 160 638 190 L 652 370 Z" fill="#12141c"/><ellipse cx="600" cy="168" rx="9" ry="12" fill="#f2e6c8"/><line x1="570" y1="210" x2="554" y2="210" stroke="#0c0e14" stroke-width="5"/><line x1="630" y1="210" x2="646" y2="210" stroke="#0c0e14" stroke-width="5"/><line x1="570" y1="252" x2="554" y2="252" stroke="#0c0e14" stroke-width="5"/><line x1="630" y1="252" x2="646" y2="252" stroke="#0c0e14" stroke-width="5"/><line x1="570" y1="294" x2="554" y2="294" stroke="#0c0e14" stroke-width="5"/><line x1="630" y1="294" x2="646" y2="294" stroke="#0c0e14" stroke-width="5"/><line x1="570" y1="336" x2="554" y2="336" stroke="#0c0e14" stroke-width="5"/><line x1="630" y1="336" x2="646" y2="336" stroke="#0c0e14" stroke-width="5"/><path d="M 818 370 L 832 190 Q 870 160 908 190 L 922 370 Z" fill="#12141c"/><ellipse cx="870" cy="168" rx="9" ry="12" fill="#f2e6c8"/><line x1="840" y1="210" x2="824" y2="210" stroke="#0c0e14" stroke-width="5"/><line x1="900" y1="210" x2="916" y2="210" stroke="#0c0e14" stroke-width="5"/><line x1="840" y1="252" x2="824" y2="252" stroke="#0c0e14" stroke-width="5"/><line x1="900" y1="252" x2="916" y2="252" stroke="#0c0e14" stroke-width="5"/><line x1="840" y1="294" x2="824" y2="294" stroke="#0c0e14" stroke-width="5"/><line x1="900" y1="294" x2="916" y2="294" stroke="#0c0e14" stroke-width="5"/><line x1="840" y1="336" x2="824" y2="336" stroke="#0c0e14" stroke-width="5"/><line x1="900" y1="336" x2="916" y2="336" stroke="#0c0e14" stroke-width="5"/><path d="M 245 370 L 254 335 L 263 370 Z" fill="#12141c"/><path d="M 300 370 L 309 335 L 318 370 Z" fill="#12141c"/><path d="M 355 370 L 364 335 L 373 370 Z" fill="#12141c"/><path d="M 410 370 L 419 335 L 428 370 Z" fill="#12141c"/><path d="M 465 370 L 474 335 L 483 370 Z" fill="#12141c"/><path d="M 520 370 L 529 335 L 538 370 Z" fill="#12141c"/><path d="M 575 370 L 584 335 L 593 370 Z" fill="#12141c"/><path d="M 630 370 L 639 335 L 648 370 Z" fill="#12141c"/><path d="M 685 370 L 694 335 L 703 370 Z" fill="#12141c"/><path d="M 740 370 L 749 335 L 758 370 Z" fill="#12141c"/><path d="M 795 370 L 804 335 L 813 370 Z" fill="#12141c"/><path d="M 850 370 L 859 335 L 868 370 Z" fill="#12141c"/><path d="M 905 370 L 914 335 L 923 370 Z" fill="#12141c"/><path d="M 960 370 L 969 335 L 978 370 Z" fill="#12141c"/>
<rect x="0" y="560" width="1200" height="140" fill="#0c0e14"/>

<rect x="0" y="556" width="1200" height="4" fill="#d8b45a" opacity="0.55"/>
</svg>