<svg xmlns="http://www.w3.org/2000/svg" viewBox="0 0 1200 700" role="img">
<defs>
<linearGradient id="sky" x1="0" y1="0" x2="0" y2="1">
<stop offset="0" stop-color="#0a1026"/><stop offset="0.62" stop-color="#152046"/><stop offset="1" stop-color="#2b3a6b"/>
</linearGradient>
<pattern id="g1" width="120" height="120" patternUnits="userSpaceOnUse"><polygon points="111.6,60.0 80.0,68.3 96.5,96.5 68.3,80.0 60.0,111.6 51.7,80.0 23.5,96.5 40.0,68.3 8.4,60.0 40.0,51.7 23.5,23.5 51.7,40.0 60.0,8.4 68.3,40.0 96.5,23.5 80.0,51.7" fill="none" stroke="#e8d9a8" stroke-width="1.6" opacity="0.1"/><rect x="17.4" y="17.4" width="85.2" height="85.2" fill="none" stroke="#e8d9a8" stroke-width="1.6" opacity="0.06999999999999999" transform="rotate(45 60.0 60.0)"/></pattern>
</defs>
<rect width="1200" height="700" fill="url(#sky)"/>
<rect width="1200" height="700" fill="url(#g1)"/>
<circle cx="1025" cy="155" r="1.3" fill="#f7ecd2" opacity="0.60"/><circle cx="603" cy="52" r="1.3" fill="#f7ecd2" opacity="0.41"/><circle cx="1134" cy="252" r="0.8" fill="#f7ecd2" opacity="0.53"/><circle cx="434" cy="31" r="0.8" fill="#f7ecd2" opacity="0.39"/><circle cx="1071" cy="117" r="0.8" fill="#f7ecd2" opacity="0.42"/><circle cx="909" cy="254" r="1.8" fill="#f7ecd2" opacity="0.71"/><circle cx="20" cy="294" r="1.8" fill="#f7ecd2" opacity="0.65"/><circle cx="60" cy="233" r="1.8" fill="#f7ecd2" opacity="0.65"/><circle cx="717" cy="259" r="1.3" fill="#f7ecd2" opacity="0.38"/><circle cx="815" cy="296" r="1.3" fill="#f7ecd2" opacity="0.75"/><circle cx="906" cy="116" r="1.8" fill="#f7ecd2" opacity="0.81"/><circle cx="486" cy="75" r="0.8" fill="#f7ecd2" opacity="0.35"/><circle cx="1163" cy="41" r="1.3" fill="#f7ecd2" opacity="0.68"/><circle cx="321" cy="178" r="1.3" fill="#f7ecd2" opacity="0.73"/><circle cx="192" cy="318" r="0.8" fill="#f7ecd2" opacity="0.41"/><circle cx="512" cy="97" r="0.8" fill="#f7ecd2" opacity="0.49"/><circle cx="9" cy="203" r="1.8" fill="#f7ecd2" opacity="0.62"/><circle cx="627" cy="40" r="1.3" fill="#f7ecd2" opacity="0.65"/><circle cx="278" cy="160" r="0.8" fill="#f7ecd2" opacity="0.65"/><circle cx="138" cy="299" r="1.8" fill="#f7ecd2" opacity="0.47"/><circle cx="855" cy="145" r="1.3" fill="#f7ecd2" opacity="0.60"/><circle cx="533" cy="82" r="0.8" fill="#f7ecd2" opacity="0.41"/><circle cx="1164" cy="322" r="1.3" fill="#f7ecd2" opacity="0.43"/><circle cx="564" cy="141" r="0.8" fill="#f7ecd2" opacity="0.59"/><circle cx="101" cy="127" r="0.8" fill="#f7ecd2" opacity="0.62"/><circle cx="39" cy="304" r="1.3" fill="#f7ecd2" opacity="0.41"/><circle cx="450" cy="184" r="1.3" fill="#f7ecd2" opacity="0.35"/><circle cx="590" cy="163" r="0.8" fill="#f7ecd2" opacity="0.55"/><circle cx="147" cy="89" r="1.8" fill="#f7ecd2" opacity="0.68"/><circle cx="345" cy="166" r="1.3" fill="#f7ecd2" opacity="0.55"/><circle cx="536" cy="26" r="1.3" fill="#f7ecd2" opacity="0.71"/><circle cx="216" cy="25" r="1.3" fill="#f7ecd2" opacity="0.35"/><circle cx="993" cy="31" r="1.3" fill="#f7ecd2" opacity="0.68"/><circle cx="251" cy="208" r="0.8" fill="#f7ecd2" opacity="0.43"/><circle cx="222" cy="48" r="0.8" fill="#f7ecd2" opacity="0.41"/><circle cx="642" cy="207" r="0.8" fill="#f7ecd2" opacity="0.79"/><circle cx="239" cy="13" r="0.8" fill="#f7ecd2" opacity="0.42"/><circle cx="957" cy="230" r="1.8" fill="#f7ecd2" opacity="0.45"/><circle cx="708" cy="50" r="1.8" fill="#f7ecd2" opacity="0.35"/><circle cx="668" cy="229" r="0.8" fill="#f7ecd2" opacity="0.57"/><circle cx="285" cy="315" r="0.8" fill="#f7ecd2" opacity="0.60"/><circle cx="63" cy="292" r="1.3" fill="#f7ecd2" opacity="0.81"/><circle cx="794" cy="232" r="0.8" fill="#f7ecd2" opacity="0.43"/><circle cx="294" cy="91" r="1.3" fill="#f7ecd2" opacity="0.39"/><circle cx="1131" cy="257" r="1.8" fill="#f7ecd2" opacity="0.52"/><circle cx="1169" cy="134" r="1.3" fill="#f7ecd2" opacity="0.81"/><circle cx="480" cy="254" r="1.8" fill="#f7ecd2" opacity="0.55"/><circle cx="720" cy="273" r="0.8" fill="#f7ecd2" opacity="0.45"/><circle cx="377" cy="239" r="1.3" fill="#f7ecd2" opacity="0.38"/><circle cx="675" cy="16" r="1.3" fill="#f7ecd2" opacity="0.35"/><circle cx="966" cy="256" r="1.3" fill="#f7ecd2" opacity="0.81"/><circle cx="746" cy="295" r="0.8" fill="#f7ecd2" opacity="0.55"/><circle cx="423" cy="201" r="0.8" fill="#f7ecd2" opacity="0.58"/><circle cx="981" cy="218" r="1.8" fill="#f7ecd2" opacity="0.43"/><circle cx="1052" cy="98" r="1.3" fill="#f7ecd2" opacity="0.81"/><circle cx="372" cy="157" r="1.3" fill="#f7ecd2" opacity="0.39"/><circle cx="69" cy="3" r="0.8" fill="#f7ecd2" opacity="0.42"/><circle cx="887" cy="260" r="1.3" fill="#f7ecd2" opacity="0.55"/><circle cx="738" cy="120" r="0.8" fill="#f7ecd2" opacity="0.45"/><circle cx="798" cy="339" r="0.8" fill="#f7ecd2" opacity="0.57"/><circle cx="980" cy="120" r="42" fill="#f6ecd0" opacity="0.95"/><circle cx="996" cy="112" r="36" fill="url(#sky)" opacity="0.92"/>
<path d="M 200 560 L 220 370 L 1000 370 L 1020 560 Z" fill="#12141c"/><path d="M 278 370 L 292 190 Q 330 160 368 190 L 382 370 Z" fill="#12141c"/><ellipse cx="330" cy="168" rx="9" ry="12" fill="#f2e6c8"/><line x1="300" y1="210" x2="284" y2="210" stroke="#0c0e14" stroke-width="5"/><line x1="360" y1="210" x2="376" y2="210" stroke="#0c0e14" stroke-width="5"/><line x1="300" y1="252" x2="284" y2="252" stroke="#0c0e14" stroke-width="5"/><line x1="360" y1="252" x2="376" y2="252" stroke="#0c0e14" stroke-width="5"/><line x1="300" y1="294" x2="284" y2="294" stroke="#0c0e14" stroke-width="5"/><line x1="360" y1="294" x2="376" y2="294" stroke="#0c0e14" stroke-width="5"/><line x1="300" y1="336" x2="284" y2="336" stroke="#0c0e14" stroke-width="5"/><line x1="360" y1="336" x2="376" y2="336" stroke="#0c0e14" stroke-width="5"/><path d="M 548 370 L 562 190 Q 600 160 638 190 L 652 370 Z" fill="#12141c"/><ellipse cx="600" cy="168" rx="9" ry="12" fill="#f2e6c8"/><line x1="570" y1="210" x2="554" y2="210" stroke="#0c0e14" stroke-width="5"/><line x1="630" y1="210" x2="646" y2="210" stroke="#0c0e14" stroke-width="5"/><line x1="570" y1="252" x2="554" y2="252" stroke="#0c0e14" stroke-width="5"/><line x1="630" y1="252" x2="646" y2="252" stroke="#0c0e14" stroke-width="5"/><line x1="570" y1="294" x2="554" y2="294" stroke="#0c0e14" stroke-width="5"/><line x1="630" y1="294" x2="646" y2="294" stroke="#0c0e14" stroke-width="5"/><line x1="570" y1="336" x2="554" y2="336" stroke="#0c0e14" stroke-width="5"/><line x1="630" y1="336" x2="646" y2="336" stroke="#0c0e14" stroke-width="5"/><path d="M 818 370 L 832 190 Q 870 160 908 190 L 922 370 Z" fill="#12141c"/><ellipse cx="870" cy="168" rx="9" ry="12" fill="#f2e6c8"/><line x1="840" y1="210" x2="824" y2="210" stroke="#0c0e14" stroke-width="5"/><line x1="900" y1="210" x2="916" y2="210" stroke="#0c0e14" stroke-width="5"/><line x1="840" y1="252" x2="824" y2="252" stroke="#0c0e14" stroke-width="5"/><line x1="900" y1="252" x2="916" y2="252" stroke="#0c0e14" stroke-width="5"/><line x1="840" y1="294" x2="824" y2="294" stroke="#0c0e14" stroke-width="5"/><line x1="900" y1="294" x2="916" y2="294" stroke="#0c0e14" stroke-width="5"/><line x1="840" y1="336" x2="824" y2="336" stroke="#0c0e14" stroke-width="5"/><line x1="900" y1="336" x2="916" y2="336" stroke="#0c0e14" stroke-width="5"/><path d="M 245 370 L 254 335 L 263 370 Z" fill="#12141c"/><path d="M 300 370 L 309 335 L 318 370 Z" fill="#12141c"/><path d="M 355 370 L 364 335 L 373 370 Z" fill="#12141c"/><path d="M 410 370 L 419 335 L 428 370 Z" fill="#12141c"/><path d="M 465 370 L 474 335 L 483 370 Z" fill="#12141c"/><path d="M 520 370 L 529 335 L 538 370 Z" fill="#12141c"/><path d="M 575 370 L 584 335 L 593 370 Z" fill="#12141c"/><path d="M 630 370 L 639 335 L 648 370 Z" fill="#12141c"/><path d="M 685 370 L 694 335 L 703 370 Z" fill="#12141c"/><path d="M 740 370 L 749 335 L 758 370 Z" fill="#12141c"/><path d="M 795 370 L 804 335 L 813 370 Z" fill="#12141c"/><path d="M 850 370 L 859 335 L 868 370 Z" fill="#12141c"/><path d="M 905 370 L 914 335 L 923 370 Z" fill="#12141c"/><path d="M 960 370 L 969 335 L 978 370 Z" fill="#12141c"/>
<rect x="0" y="560" width="1200" height="140" fill="#0c0e14"/>

<rect x="0" y="556" width="1200" height="4" fill="#d8b45a" opacity="0.55"/>
</svg>