<svg xmlns="http://www.w3.org/2000/svg" viewBox="0 0 1200 700" role="img">
<defs>
<linearGradient id="sky" x1="0" y1="0" x2="0" y2="1">
<stop offset="0" stop-color="#0a1026"/><stop offset="0.62" stop-color="#152046"/><stop offset="1" stop-color="#2b3a6b"/>
</linearGradient>
<pattern id="g1" width="120" height="120" patternUnits="userSpaceOnUse"><polygon points="111.6,60.0 80.0,68.3 96.5,96.5 68.3,80.0 60.0,111.6 51.7,80.0 23.5,96.5 40.0,68.3 8.4,60.0 40.0,51.7 23.5,23.5 51.7,40.0 60.0,8.4 68.3,40.0 96.5,23.5 80.0,51.7" fill="none" stroke="#e8d9a8" stroke-width="1.6" opacity="0.1"/><rect x="17.4" y="17.4" width="85.2" height="85.2" fill="none" stroke="#e8d9a8" stroke-width="1.6" opacity="0.06999999999999999" transform="rotate(45 60.0 60.0)"/></pattern>
</defs>
<rect width="1200" height="700" fill="url(#sky)"/>
<rect width="1200" height="700" fill="url(#g1)"/>
<circle cx="782" cy="102" r="1.8" fill="#f7ecd2" opacity="0.49"/><circle cx="864" cy="323" r="1.8" fill="#f7ecd2" opacity="0.57"/><circle cx="987" cy="115" r="1.3" fill="#f7ecd2" opacity="0.40"/><circle cx="503" cy="130" r="0.8" fill="#f7ecd2" opacity="0.75"/><circle cx="108" cy="184" r="1.3" fill="#f7ecd2" opacity="0.57"/><circle cx="210" cy="5" r="1.8" fill="#f7ecd2" opacity="0.35"/><circle cx="593" cy="37" r="0.8" fill="#f7ecd2" opacity="0.76"/><circle cx="1089" cy="172" r="1.3" fill="#f7ecd2" opacity="0.43"/><circle cx="234" cy="246" r="0.8" fill="#f7ecd2" opacity="0.49"/><circle cx="356" cy="7" r="0.8" fill="#f7ecd2" opacity="0.77"/><circle cx="999" cy="279" r="0.8" fill="#f7ecd2" opacity="0.56"/><circle cx="75" cy="254" r="1.8" fill="#f7ecd2" opacity="0.35"/><circle cx="1160" cy="288" r="1.8" fill="#f7ecd2" opacity="0.65"/><circle cx="102" cy="189" r="0.8" fill="#f7ecd2" opacity="0.63"/><circle cx="1005" cy="21" r="0.8" fill="#f7ecd2" opacity="0.40"/><circle cx="1061" cy="116" r="1.3" fill="#f7ecd2" opacity="0.61"/><circle cx="486" cy="30" r="0.8" fill="#f7ecd2" opacity="0.65"/><circle cx="648" cy="11" r="1.8" fill="#f7ecd2" opacity="0.63"/><circle cx="611" cy="283" r="0.8" fill="#f7ecd2" opacity="0.48"/><circle cx="447" cy="18" r="0.8" fill="#f7ecd2" opacity="0.81"/><circle cx="612" cy="92" r="1.8" fill="#f7ecd2" opacity="0.39"/><circle cx="794" cy="13" r="0.8" fill="#f7ecd2" opacity="0.57"/><circle cx="1017" cy="185" r="1.8" fill="#f7ecd2" opacity="0.80"/><circle cx="633" cy="240" r="0.8" fill="#f7ecd2" opacity="0.55"/><circle cx="338" cy="334" r="0.8" fill="#f7ecd2" opacity="0.77"/><circle cx="540" cy="195" r="0.8" fill="#f7ecd2" opacity="0.35"/><circle cx="1023" cy="267" r="0.8" fill="#f7ecd2" opacity="0.76"/><circle cx="419" cy="302" r="1.3" fill="#f7ecd2" opacity="0.73"/><circle cx="864" cy="216" r="0.8" fill="#f7ecd2" opacity="0.59"/><circle cx="1086" cy="17" r="1.8" fill="#f7ecd2" opacity="0.47"/><circle cx="629" cy="189" r="1.8" fill="#f7ecd2" opacity="0.66"/><circle cx="1005" cy="4" r="1.3" fill="#f7ecd2" opacity="0.55"/><circle cx="990" cy="278" r="1.8" fill="#f7ecd2" opacity="0.55"/><circle cx="32" cy="219" r="1.8" fill="#f7ecd2" opacity="0.43"/><circle cx="1035" cy="91" r="1.3" fill="#f7ecd2" opacity="0.70"/><circle cx="1191" cy="226" r="1.3" fill="#f7ecd2" opacity="0.51"/><circle cx="716" cy="180" r="1.8" fill="#f7ecd2" opacity="0.65"/><circle cx="978" cy="201" r="0.8" fill="#f7ecd2" opacity="0.63"/><circle cx="1041" cy="173" r="1.8" fill="#f7ecd2" opacity="0.78"/><circle cx="977" cy="288" r="1.8" fill="#f7ecd2" opacity="0.61"/><circle cx="42" cy="262" r="1.3" fill="#f7ecd2" opacity="0.39"/><circle cx="324" cy="223" r="1.3" fill="#f7ecd2" opacity="0.37"/><circle cx="647" cy="95" r="1.3" fill="#f7ecd2" opacity="0.50"/><circle cx="363" cy="190" r="1.3" fill="#f7ecd2" opacity="0.55"/><circle cx="168" cy="324" r="0.8" fill="#f7ecd2" opacity="0.67"/><circle cx="470" cy="225" r="1.8" fill="#f7ecd2" opacity="0.35"/><circle cx="1053" cy="337" r="1.3" fill="#f7ecd2" opacity="0.46"/><circle cx="549" cy="72" r="0.8" fill="#f7ecd2" opacity="0.63"/><circle cx="1094" cy="26" r="1.3" fill="#f7ecd2" opacity="0.79"/><circle cx="216" cy="67" r="1.3" fill="#f7ecd2" opacity="0.57"/><circle cx="1059" cy="79" r="1.3" fill="#f7ecd2" opacity="0.46"/><circle cx="335" cy="134" r="1.3" fill="#f7ecd2" opacity="0.75"/><circle cx="420" cy="108" r="0.8" fill="#f7ecd2" opacity="0.45"/><circle cx="762" cy="229" r="1.3" fill="#f7ecd2" opacity="0.83"/><circle cx="665" cy="1" r="0.8" fill="#f7ecd2" opacity="0.50"/><circle cx="921" cy="176" r="1.8" fill="#f7ecd2" opacity="0.81"/><circle cx="546" cy="170" r="1.8" fill="#f7ecd2" opacity="0.55"/><circle cx="908" cy="231" r="1.8" fill="#f7ecd2" opacity="0.83"/><circle cx="1071" cy="243" r="0.8" fill="#f7ecd2" opacity="0.38"/><circle cx="1107" cy="58" r="1.3" fill="#f7ecd2" opacity="0.41"/><circle cx="980" cy="120" r="42" fill="#f6ecd0" opacity="0.95"/><circle cx="996" cy="112" r="36" fill="url(#sky)" opacity="0.92"/>
<path d="M 200 560 L 220 370 L 1000 370 L 1020 560 Z" fill="#12141c"/><path d="M 278 370 L 292 190 Q 330 160 368 190 L 382 370 Z" fill="#12141c"/><ellipse cx="330" cy="168" rx="9" ry="12" fill="#f2e6c8"/><line x1="300" y1="210" x2="284" y2="210" stroke="#0c0e14" stroke-width="5"/><line x1="360" y1="210" x2="376" y2="210" stroke="#0c0e14" stroke-width="5"/><line x1="300" y1="252" x2="284" y2="252" stroke="#0c0e14" stroke-width="5"/><line x1="360" y1="252" x2="376" y2="252" stroke="#0c0e14" stroke-width="5"/><line x1="300" y1="294" x2="284" y2="294" stroke="#0c0e14" stroke-width="5"/><line x1="360" y1="294" x2="376" y2="294" stroke="#0c0e14" stroke-width="5"/><line x1="300" y1="336" x2="284" y2="336" stroke="#0c0e14" stroke-width="5"/><line x1="360" y1="336" x2="376" y2="336" stroke="#0c0e14" stroke-width="5"/><path d="M 548 370 L 562 190 Q 600 160 638 190 L 652 370 Z" fill="#12141c"/><ellipse cx="600" cy="168" rx="9" ry="12" fill="#f2e6c8"/><line x1="570" y1="210" x2="554" y2="210" stroke="#0c0e14" stroke-width="5"/><line x1="630" y1="210" x2="646" y2="210" stroke="#0c0e14" stroke-width="5"/><line x1="570" y1="252" x2="554" y2="252" stroke="#0c0e14" stroke-width="5"/><line x1="630" y1="252" x2="646" y2="252" stroke="#0c0e14" stroke-width="5"/><line x1="570" y1="294" x2="554" y2="294" stroke="#0c0e14" stroke-width="5"/><line x1="630" y1="294" x2="646" y2="294" stroke="#0c0e14" stroke-width="5"/><line x1="570" y1="336" x2="554" y2="336" stroke="#0c0e14" stroke-width="5"/><line x1="630" y1="336" x2="646" y2="336" stroke="#0c0e14" stroke-width="5"/><path d="M 818 370 L 832 190 Q 870 160 908 190 L 922 370 Z" fill="#12141c"/><ellipse cx="870" cy="168" rx="9" ry="12" fill="#f2e6c8"/><line x1="840" y1="210" x2="824" y2="210" stroke="#0c0e14" stroke-width="5"/><line x1="900" y1="210" x2="916" y2="210" stroke="#0c0e14" stroke-width="5"/><line x1="840" y1="252" x2="824" y2="252" stroke="#0c0e14" stroke-width="5"/><line x1="900" y1="252" x2="916" y2="252" stroke="#0c0e14" stroke-width="5"/><line x1="840" y1="294" x2="824" y2="294" stroke="#0c0e14" stroke-width="5"/><line x1="900" y1="294" x2="916" y2="294" stroke="#0c0e14" stroke-width="5"/><line x1="840" y1="336" x2="824" y2="336" stroke="#0c0e14" stroke-width="5"/><line x1="900" y1="336" x2="916" y2="336" stroke="#0c0e14" stroke-width="5"/><path d="M 245 370 L 254 335 L 263 370 Z" fill="#12141c"/><path d="M 300 370 L 309 335 L 318 370 Z" fill="#12141c"/><path d="M 355 370 L 364 335 L 373 370 Z" fill="#12141c"/><path d="M 410 370 L 419 335 L 428 370 Z" fill="#12141c"/><path d="M 465 370 L 474 335 L 483 370 Z" fill="#12141c"/><path d="M 520 370 L 529 335 L 538 370 Z" fill="#12141c"/><path d="M 575 370 L 584 335 L 593 370 Z" fill="#12141c"/><path d="M 630 370 L 639 335 L 648 370 Z" fill="#12141c"/><path d="M 685 370 L 694 335 L 703 370 Z" fill="#12141c"/><path d="M 740 370 L 749 335 L 758 370 Z" fill="#12141c"/><path d="M 795 370 L 804 335 L 813 370 Z" fill="#12141c"/><path d="M 850 370 L 859 335 L 868 370 Z" fill="#12141c"/><path d="M 905 370 L 914 335 L 923 370 Z" fill="#12141c"/><path d="M 960 370 L 969 335 L 978 370 Z" fill="#12141c"/>
<rect x="0" y="560" width="1200" height="140" fill="#0c0e14"/>

<rect x="0" y="556" width="1200" height="4" fill="#d8b45a" opacity="0.55"/>
</svg>