<svg xmlns="http://www.w3.org/2000/svg" viewBox="0 0 1200 700" role="img">
<defs>
<linearGradient id="sky" x1="0" y1="0" x2="0" y2="1">
<stop offset="0" stop-color="#0a1026"/><stop offset="0.62" stop-color="#152046"/><stop offset="1" stop-color="#2b3a6b"/>
</linearGradient>
<pattern id="g1" width="120" height="120" patternUnits="userSpaceOnUse"><polygon points="111.6,60.0 80.0,68.3 96.5,96.5 68.3,80.0 60.0,111.6 51.7,80.0 23.5,96.5 40.0,68.3 8.4,60.0 40.0,51.7 23.5,23.5 51.7,40.0 60.0,8.4 68.3,40.0 96.5,23.5 80.0,51.7" fill="none" stroke="#e8d9a8" stroke-width="1.6" opacity="0.1"/><rect x="17.4" y="17.4" width="85.2" height="85.2" fill="none" stroke="#e8d9a8" stroke-width="1.6" opacity="0.06999999999999999" transform="rotate(45 60.0 60.0)"/></pattern>
</defs>
<rect width="1200" height="700" fill="url(#sky)"/>
<rect width="1200" height="700" fill="url(#g1)"/>
<circle cx="1046" cy="126" r="1.8" fill="#f7ecd2" opacity="0.81"/><circle cx="936" cy="175" r="1.3" fill="#f7ecd2" opacity="0.35"/><circle cx="243" cy="171" r="0.8" fill="#f7ecd2" opacity="0.38"/><circle cx="191" cy="318" r="1.8" fill="#f7ecd2" opacity="0.73"/><circle cx="132" cy="248" r="1.8" fill="#f7ecd2" opacity="0.71"/><circle cx="762" cy="117" r="0.8" fill="#f7ecd2" opacity="0.39"/><circle cx="89" cy="53" r="1.3" fill="#f7ecd2" opacity="0.52"/><circle cx="297" cy="100" r="1.3" fill="#f7ecd2" opacity="0.35"/><circle cx="18" cy="10" r="1.3" fill="#f7ecd2" opacity="0.65"/><circle cx="188" cy="239" r="1.3" fill="#f7ecd2" opacity="0.67"/><circle cx="735" cy="255" r="0.8" fill="#f7ecd2" opacity="0.60"/><circle cx="3" cy="62" r="1.8" fill="#f7ecd2" opacity="0.71"/><circle cx="704" cy="92" r="1.3" fill="#f7ecd2" opacity="0.53"/><circle cx="414" cy="1" r="1.3" fill="#f7ecd2" opacity="0.49"/><circle cx="981" cy="297" r="0.8" fill="#f7ecd2" opacity="0.42"/><circle cx="509" cy="4" r="0.8" fill="#f7ecd2" opacity="0.71"/><circle cx="990" cy="14" r="1.8" fill="#f7ecd2" opacity="0.45"/><circle cx="240" cy="283" r="1.3" fill="#f7ecd2" opacity="0.55"/><circle cx="827" cy="179" r="1.3" fill="#f7ecd2" opacity="0.68"/><circle cx="615" cy="126" r="0.8" fill="#f7ecd2" opacity="0.75"/><circle cx="876" cy="116" r="1.8" fill="#f7ecd2" opacity="0.51"/><circle cx="866" cy="205" r="0.8" fill="#f7ecd2" opacity="0.65"/><circle cx="273" cy="241" r="1.3" fill="#f7ecd2" opacity="0.78"/><circle cx="321" cy="88" r="1.3" fill="#f7ecd2" opacity="0.83"/><circle cx="362" cy="58" r="0.8" fill="#f7ecd2" opacity="0.81"/><circle cx="1092" cy="307" r="1.3" fill="#f7ecd2" opacity="0.79"/><circle cx="519" cy="283" r="1.3" fill="#f7ecd2" opacity="0.62"/><circle cx="827" cy="30" r="1.8" fill="#f7ecd2" opacity="0.45"/><circle cx="648" cy="320" r="1.8" fill="#f7ecd2" opacity="0.45"/><circle cx="918" cy="249" r="0.8" fill="#f7ecd2" opacity="0.67"/><circle cx="365" cy="165" r="1.8" fill="#f7ecd2" opacity="0.60"/><circle cx="933" cy="152" r="1.8" fill="#f7ecd2" opacity="0.51"/><circle cx="534" cy="82" r="1.3" fill="#f7ecd2" opacity="0.73"/><circle cx="344" cy="31" r="0.8" fill="#f7ecd2" opacity="0.49"/><circle cx="1011" cy="27" r="0.8" fill="#f7ecd2" opacity="0.82"/><circle cx="639" cy="114" r="0.8" fill="#f7ecd2" opacity="0.81"/><circle cx="20" cy="24" r="1.8" fill="#f7ecd2" opacity="0.65"/><circle cx="570" cy="133" r="1.3" fill="#f7ecd2" opacity="0.45"/><circle cx="57" cy="269" r="1.8" fill="#f7ecd2" opacity="0.68"/><circle cx="1145" cy="56" r="1.3" fill="#f7ecd2" opacity="0.55"/><circle cx="306" cy="286" r="1.3" fill="#f7ecd2" opacity="0.51"/><circle cx="396" cy="75" r="0.8" fill="#f7ecd2" opacity="0.35"/><circle cx="1103" cy="291" r="1.8" fill="#f7ecd2" opacity="0.58"/><circle cx="51" cy="38" r="1.8" fill="#f7ecd2" opacity="0.73"/><circle cx="192" cy="48" r="0.8" fill="#f7ecd2" opacity="0.51"/><circle cx="1022" cy="337" r="0.8" fill="#f7ecd2" opacity="0.49"/><circle cx="549" cy="13" r="1.3" fill="#f7ecd2" opacity="0.72"/><circle cx="957" cy="140" r="1.8" fill="#f7ecd2" opacity="0.65"/><circle cx="878" cy="130" r="0.8" fill="#f7ecd2" opacity="0.75"/><circle cx="48" cy="299" r="1.8" fill="#f7ecd2" opacity="0.37"/><circle cx="795" cy="55" r="1.3" fill="#f7ecd2" opacity="0.60"/><circle cx="263" cy="282" r="1.8" fill="#f7ecd2" opacity="0.51"/><circle cx="1164" cy="52" r="1.3" fill="#f7ecd2" opacity="0.63"/><circle cx="1074" cy="41" r="1.8" fill="#f7ecd2" opacity="0.69"/><circle cx="641" cy="277" r="0.8" fill="#f7ecd2" opacity="0.42"/><circle cx="369" cy="64" r="1.3" fill="#f7ecd2" opacity="0.51"/><circle cx="1050" cy="154" r="1.3" fill="#f7ecd2" opacity="0.35"/><circle cx="500" cy="163" r="0.8" fill="#f7ecd2" opacity="0.35"/><circle cx="87" cy="339" r="0.8" fill="#f7ecd2" opacity="0.78"/><circle cx="75" cy="26" r="1.8" fill="#f7ecd2" opacity="0.35"/><circle cx="980" cy="120" r="42" fill="#f6ecd0" opacity="0.95"/><circle cx="996" cy="112" r="36" fill="url(#sky)" opacity="0.92"/>
<path d="M 200 560 L 220 370 L 1000 370 L 1020 560 Z" fill="#12141c"/><path d="M 278 370 L 292 190 Q 330 160 368 190 L 382 370 Z" fill="#12141c"/><ellipse cx="330" cy="168" rx="9" ry="12" fill="#f2e6c8"/><line x1="300" y1="210" x2="284" y2="210" stroke="#0c0e14" stroke-width="5"/><line x1="360" y1="210" x2="376" y2="210" stroke="#0c0e14" stroke-width="5"/><line x1="300" y1="252" x2="284" y2="252" stroke="#0c0e14" stroke-width="5"/><line x1="360" y1="252" x2="376" y2="252" stroke="#0c0e14" stroke-width="5"/><line x1="300" y1="294" x2="284" y2="294" stroke="#0c0e14" stroke-width="5"/><line x1="360" y1="294" x2="376" y2="294" stroke="#0c0e14" stroke-width="5"/><line x1="300" y1="336" x2="284" y2="336" stroke="#0c0e14" stroke-width="5"/><line x1="360" y1="336" x2="376" y2="336" stroke="#0c0e14" stroke-width="5"/><path d="M 548 370 L 562 190 Q 600 160 638 190 L 652 370 Z" fill="#12141c"/><ellipse cx="600" cy="168" rx="9" ry="12" fill="#f2e6c8"/><line x1="570" y1="210" x2="554" y2="210" stroke="#0c0e14" stroke-width="5"/><line x1="630" y1="210" x2="646" y2="210" stroke="#0c0e14" stroke-width="5"/><line x1="570" y1="252" x2="554" y2="252" stroke="#0c0e14" stroke-width="5"/><line x1="630" y1="252" x2="646" y2="252" stroke="#0c0e14" stroke-width="5"/><line x1="570" y1="294" x2="554" y2="294" stroke="#0c0e14" stroke-width="5"/><line x1="630" y1="294" x2="646" y2="294" stroke="#0c0e14" stroke-width="5"/><line x1="570" y1="336" x2="554" y2="336" stroke="#0c0e14" stroke-width="5"/><line x1="630" y1="336" x2="646" y2="336" stroke="#0c0e14" stroke-width="5"/><path d="M 818 370 L 832 190 Q 870 160 908 190 L 922 370 Z" fill="#12141c"/><ellipse cx="870" cy="168" rx="9" ry="12" fill="#f2e6c8"/><line x1="840" y1="210" x2="824" y2="210" stroke="#0c0e14" stroke-width="5"/><line x1="900" y1="210" x2="916" y2="210" stroke="#0c0e14" stroke-width="5"/><line x1="840" y1="252" x2="824" y2="252" stroke="#0c0e14" stroke-width="5"/><line x1="900" y1="252" x2="916" y2="252" stroke="#0c0e14" stroke-width="5"/><line x1="840" y1="294" x2="824" y2="294" stroke="#0c0e14" stroke-width="5"/><line x1="900" y1="294" x2="916" y2="294" stroke="#0c0e14" stroke-width="5"/><line x1="840" y1="336" x2="824" y2="336" stroke="#0c0e14" stroke-width="5"/><line x1="900" y1="336" x2="916" y2="336" stroke="#0c0e14" stroke-width="5"/><path d="M 245 370 L 254 335 L 263 370 Z" fill="#12141c"/><path d="M 300 370 L 309 335 L 318 370 Z" fill="#12141c"/><path d="M 355 370 L 364 335 L 373 370 Z" fill="#12141c"/><path d="M 410 370 L 419 335 L 428 370 Z" fill="#12141c"/><path d="M 465 370 L 474 335 L 483 370 Z" fill="#12141c"/><path d="M 520 370 L 529 335 L 538 370 Z" fill="#12141c"/><path d="M 575 370 L 584 335 L 593 370 Z" fill="#12141c"/><path d="M 630 370 L 639 335 L 648 370 Z" fill="#12141c"/><path d="M 685 370 L 694 335 L 703 370 Z" fill="#12141c"/><path d="M 740 370 L 749 335 L 758 370 Z" fill="#12141c"/><path d="M 795 370 L 804 335 L 813 370 Z" fill="#12141c"/><path d="M 850 370 L 859 335 L 868 370 Z" fill="#12141c"/><path d="M 905 370 L 914 335 L 923 370 Z" fill="#12141c"/><path d="M 960 370 L 969 335 L 978 370 Z" fill="#12141c"/>
<rect x="0" y="560" width="1200" height="140" fill="#0c0e14"/>

<rect x="0" y="556" width="1200" height="4" fill="#d8b45a" opacity="0.55"/>
</svg>