<svg xmlns="http://www.w3.org/2000/svg" viewBox="0 0 1200 700" role="img">
<defs>
<linearGradient id="sky" x1="0" y1="0" x2="0" y2="1">
<stop offset="0" stop-color="#0a1026"/><stop offset="0.62" stop-color="#152046"/><stop offset="1" stop-color="#2b3a6b"/>
</linearGradient>
<pattern id="g1" width="120" height="120" patternUnits="userSpaceOnUse"><polygon points="111.6,60.0 80.0,68.3 96.5,96.5 68.3,80.0 60.0,111.6 51.7,80.0 23.5,96.5 40.0,68.3 8.4,60.0 40.0,51.7 23.5,23.5 51.7,40.0 60.0,8.4 68.3,40.0 96.5,23.5 80.0,51.7" fill="none" stroke="#e8d9a8" stroke-width="1.6" opacity="0.1"/><rect x="17.4" y="17.4" width="85.2" height="85.2" fill="none" stroke="#e8d9a8" stroke-width="1.6" opacity="0.06999999999999999" transform="rotate(45 60.0 60.0)"/></pattern>
</defs>
<rect width="1200" height="700" fill="url(#sky)"/>
<rect width="1200" height="700" fill="url(#g1)"/>
<circle cx="885" cy="235" r="1.3" fill="#f7ecd2" opacity="0.60"/><circle cx="1183" cy="12" r="1.3" fill="#f7ecd2" opacity="0.81"/><circle cx="274" cy="112" r="1.8" fill="#f7ecd2" opacity="0.73"/><circle cx="54" cy="151" r="1.3" fill="#f7ecd2" opacity="0.39"/><circle cx="931" cy="197" r="0.8" fill="#f7ecd2" opacity="0.42"/><circle cx="289" cy="74" r="0.8" fill="#f7ecd2" opacity="0.71"/><circle cx="360" cy="294" r="0.8" fill="#f7ecd2" opacity="0.75"/><circle cx="880" cy="153" r="1.3" fill="#f7ecd2" opacity="0.75"/><circle cx="577" cy="339" r="1.3" fill="#f7ecd2" opacity="0.38"/><circle cx="195" cy="116" r="1.8" fill="#f7ecd2" opacity="0.55"/><circle cx="46" cy="316" r="1.8" fill="#f7ecd2" opacity="0.71"/><circle cx="106" cy="195" r="1.3" fill="#f7ecd2" opacity="0.55"/><circle cx="1023" cy="121" r="1.3" fill="#f7ecd2" opacity="0.68"/><circle cx="901" cy="138" r="1.3" fill="#f7ecd2" opacity="0.73"/><circle cx="532" cy="318" r="1.3" fill="#f7ecd2" opacity="0.61"/><circle cx="132" cy="217" r="1.3" fill="#f7ecd2" opacity="0.79"/><circle cx="1069" cy="83" r="0.8" fill="#f7ecd2" opacity="0.62"/><circle cx="7" cy="200" r="0.8" fill="#f7ecd2" opacity="0.35"/><circle cx="618" cy="160" r="1.3" fill="#f7ecd2" opacity="0.65"/><circle cx="958" cy="219" r="1.3" fill="#f7ecd2" opacity="0.37"/><circle cx="715" cy="225" r="1.3" fill="#f7ecd2" opacity="0.60"/><circle cx="1113" cy="42" r="0.8" fill="#f7ecd2" opacity="0.81"/><circle cx="304" cy="182" r="0.8" fill="#f7ecd2" opacity="0.63"/><circle cx="184" cy="261" r="1.3" fill="#f7ecd2" opacity="0.59"/><circle cx="1161" cy="7" r="1.3" fill="#f7ecd2" opacity="0.62"/><circle cx="619" cy="264" r="1.3" fill="#f7ecd2" opacity="0.51"/><circle cx="790" cy="184" r="1.8" fill="#f7ecd2" opacity="0.45"/><circle cx="210" cy="283" r="1.3" fill="#f7ecd2" opacity="0.65"/><circle cx="7" cy="169" r="1.8" fill="#f7ecd2" opacity="0.68"/><circle cx="925" cy="126" r="1.3" fill="#f7ecd2" opacity="0.35"/><circle cx="876" cy="26" r="1.8" fill="#f7ecd2" opacity="0.61"/><circle cx="1036" cy="285" r="1.3" fill="#f7ecd2" opacity="0.45"/><circle cx="853" cy="111" r="1.3" fill="#f7ecd2" opacity="0.68"/><circle cx="831" cy="168" r="0.8" fill="#f7ecd2" opacity="0.43"/><circle cx="562" cy="48" r="1.3" fill="#f7ecd2" opacity="0.61"/><circle cx="262" cy="327" r="1.3" fill="#f7ecd2" opacity="0.59"/><circle cx="99" cy="93" r="0.8" fill="#f7ecd2" opacity="0.42"/><circle cx="337" cy="50" r="0.8" fill="#f7ecd2" opacity="0.35"/><circle cx="1048" cy="50" r="0.8" fill="#f7ecd2" opacity="0.35"/><circle cx="288" cy="9" r="0.8" fill="#f7ecd2" opacity="0.77"/><circle cx="145" cy="55" r="1.8" fill="#f7ecd2" opacity="0.60"/><circle cx="643" cy="252" r="1.3" fill="#f7ecd2" opacity="0.71"/><circle cx="1134" cy="232" r="1.3" fill="#f7ecd2" opacity="0.73"/><circle cx="1114" cy="11" r="0.8" fill="#f7ecd2" opacity="0.39"/><circle cx="991" cy="337" r="1.8" fill="#f7ecd2" opacity="0.52"/><circle cx="549" cy="294" r="0.8" fill="#f7ecd2" opacity="0.41"/><circle cx="820" cy="254" r="0.8" fill="#f7ecd2" opacity="0.65"/><circle cx="340" cy="53" r="0.8" fill="#f7ecd2" opacity="0.55"/><circle cx="237" cy="319" r="1.3" fill="#f7ecd2" opacity="0.38"/><circle cx="55" cy="176" r="0.8" fill="#f7ecd2" opacity="0.65"/><circle cx="106" cy="116" r="0.8" fill="#f7ecd2" opacity="0.81"/><circle cx="366" cy="75" r="0.8" fill="#f7ecd2" opacity="0.35"/><circle cx="283" cy="281" r="0.8" fill="#f7ecd2" opacity="0.58"/><circle cx="361" cy="38" r="0.8" fill="#f7ecd2" opacity="0.53"/><circle cx="192" cy="298" r="1.3" fill="#f7ecd2" opacity="0.51"/><circle cx="1192" cy="77" r="0.8" fill="#f7ecd2" opacity="0.69"/><circle cx="1129" cy="223" r="1.8" fill="#f7ecd2" opacity="0.52"/><circle cx="267" cy="80" r="1.8" fill="#f7ecd2" opacity="0.45"/><circle cx="1078" cy="120" r="1.3" fill="#f7ecd2" opacity="0.45"/><circle cx="418" cy="119" r="0.8" fill="#f7ecd2" opacity="0.77"/><circle cx="980" cy="120" r="42" fill="#f6ecd0" opacity="0.95"/><circle cx="996" cy="112" r="36" fill="url(#sky)" opacity="0.92"/>
<rect x="240" y="410" width="720" height="150" fill="#12141c"/><path d="M 268 560 L 268 472 Q 300 432 332 472 L 332 560 Z" fill="#0c0e14" opacity="0.9"/><path d="M 366 560 L 366 472 Q 398 432 430 472 L 430 560 Z" fill="#0c0e14" opacity="0.9"/><path d="M 464 560 L 464 472 Q 496 432 528 472 L 528 560 Z" fill="#0c0e14" opacity="0.9"/><path d="M 562 560 L 562 472 Q 594 432 626 472 L 626 560 Z" fill="#0c0e14" opacity="0.9"/><path d="M 660 560 L 660 472 Q 692 432 724 472 L 724 560 Z" fill="#0c0e14" opacity="0.9"/><path d="M 758 560 L 758 472 Q 790 432 822 472 L 822 560 Z" fill="#0c0e14" opacity="0.9"/><path d="M 856 560 L 856 472 Q 888 432 920 472 L 920 560 Z" fill="#0c0e14" opacity="0.9"/><path d="M 410 410 C 410 282.5, 495.5 260, 600 260 C 704.5 260, 790 282.5, 790 410 Z" fill="#12141c"/><line x1="600" y1="260" x2="600" y2="238" stroke="#d8b45a" stroke-width="3"/><circle cx="600" cy="234" r="4.5" fill="#d8b45a"/><path d="M 600 220 a 8 8 0 1 0 6 13 a 6.4 6.4 0 1 1 -6 -13 Z" fill="#d8b45a"/><path d="M 345 412 C 345 347.4, 387.75 336.0, 440 336.0 C 492.25 336.0, 535 347.4, 535 412 Z" fill="#12141c"/><line x1="440" y1="336.0" x2="440" y2="314.0" stroke="#d8b45a" stroke-width="3"/><circle cx="440" cy="310.0" r="4.5" fill="#d8b45a"/><path d="M 440 296.0 a 8 8 0 1 0 6 13 a 6.4 6.4 0 1 1 -6 -13 Z" fill="#d8b45a"/><path d="M 665 412 C 665 347.4, 707.75 336.0, 760 336.0 C 812.25 336.0, 855 347.4, 855 412 Z" fill="#12141c"/><line x1="760" y1="336.0" x2="760" y2="314.0" stroke="#d8b45a" stroke-width="3"/><circle cx="760" cy="310.0" r="4.5" fill="#d8b45a"/><path d="M 760 296.0 a 8 8 0 1 0 6 13 a 6.4 6.4 0 1 1 -6 -13 Z" fill="#d8b45a"/><path d="M 270 412 C 270 371.2, 297.0 364.0, 330 364.0 C 363.0 364.0, 390 371.2, 390 412 Z" fill="#12141c"/><line x1="330" y1="364.0" x2="330" y2="342.0" stroke="#d8b45a" stroke-width="3"/><circle cx="330" cy="338.0" r="4.5" fill="#d8b45a"/><path d="M 330 324.0 a 8 8 0 1 0 6 13 a 6.4 6.4 0 1 1 -6 -13 Z" fill="#d8b45a"/><path d="M 810 412 C 810 371.2, 837.0 364.0, 870 364.0 C 903.0 364.0, 930 371.2, 930 412 Z" fill="#12141c"/><line x1="870" y1="364.0" x2="870" y2="342.0" stroke="#d8b45a" stroke-width="3"/><circle cx="870" cy="338.0" r="4.5" fill="#d8b45a"/><path d="M 870 324.0 a 8 8 0 1 0 6 13 a 6.4 6.4 0 1 1 -6 -13 Z" fill="#d8b45a"/><rect x="59.0" y="170" width="22" height="390" fill="#12141c"/><rect x="49.1" y="174" width="41.8" height="7" rx="3" fill="#12141c"/><path d="M 54.6 172 L 70 114 L 85.4 172 Z" fill="#12141c"/><rect x="159.0" y="170" width="22" height="390" fill="#12141c"/><rect x="149.1" y="174" width="41.8" height="7" rx="3" fill="#12141c"/><path d="M 154.6 172 L 170 114 L 185.4 172 Z" fill="#12141c"/><rect x="259.0" y="170" width="22" height="390" fill="#12141c"/><rect x="249.1" y="174" width="41.8" height="7" rx="3" fill="#12141c"/><path d="M 254.6 172 L 270 114 L 285.4 172 Z" fill="#12141c"/><rect x="919.0" y="170" width="22" height="390" fill="#12141c"/><rect x="909.1" y="174" width="41.8" height="7" rx="3" fill="#12141c"/><path d="M 914.6 172 L 930 114 L 945.4 172 Z" fill="#12141c"/><rect x="1019.0" y="170" width="22" height="390" fill="#12141c"/><rect x="1009.1" y="174" width="41.8" height="7" rx="3" fill="#12141c"/><path d="M 1014.6 172 L 1030 114 L 1045.4 172 Z" fill="#12141c"/><rect x="1119.0" y="170" width="22" height="390" fill="#12141c"/><rect x="1109.1" y="174" width="41.8" height="7" rx="3" fill="#12141c"/><path d="M 1114.6 172 L 1130 114 L 1145.4 172 Z" fill="#12141c"/>
<rect x="0" y="560" width="1200" height="140" fill="#0c0e14"/>

<rect x="0" y="556" width="1200" height="4" fill="#d8b45a" opacity="0.55"/>
</svg>