<svg xmlns="http://www.w3.org/2000/svg" viewBox="0 0 1200 700" role="img">
<defs>
<linearGradient id="sky" x1="0" y1="0" x2="0" y2="1">
<stop offset="0" stop-color="#0a1026"/><stop offset="0.62" stop-color="#152046"/><stop offset="1" stop-color="#2b3a6b"/>
</linearGradient>
<pattern id="g1" width="120" height="120" patternUnits="userSpaceOnUse"><polygon points="111.6,60.0 80.0,68.3 96.5,96.5 68.3,80.0 60.0,111.6 51.7,80.0 23.5,96.5 40.0,68.3 8.4,60.0 40.0,51.7 23.5,23.5 51.7,40.0 60.0,8.4 68.3,40.0 96.5,23.5 80.0,51.7" fill="none" stroke="#e8d9a8" stroke-width="1.6" opacity="0.1"/><rect x="17.4" y="17.4" width="85.2" height="85.2" fill="none" stroke="#e8d9a8" stroke-width="1.6" opacity="0.06999999999999999" transform="rotate(45 60.0 60.0)"/></pattern>
</defs>
<rect width="1200" height="700" fill="url(#sky)"/>
<rect width="1200" height="700" fill="url(#g1)"/>
<circle cx="504" cy="324" r="0.8" fill="#f7ecd2" opacity="0.81"/><circle cx="970" cy="209" r="0.8" fill="#f7ecd2" opacity="0.65"/><circle cx="325" cy="333" r="1.3" fill="#f7ecd2" opacity="0.60"/><circle cx="177" cy="224" r="1.8" fill="#f7ecd2" opacity="0.83"/><circle cx="310" cy="326" r="0.8" fill="#f7ecd2" opacity="0.45"/><circle cx="556" cy="191" r="0.8" fill="#f7ecd2" opacity="0.81"/><circle cx="651" cy="135" r="0.8" fill="#f7ecd2" opacity="0.70"/><circle cx="523" cy="306" r="1.3" fill="#f7ecd2" opacity="0.73"/><circle cx="916" cy="308" r="0.8" fill="#f7ecd2" opacity="0.63"/><circle cx="942" cy="153" r="0.8" fill="#f7ecd2" opacity="0.61"/><circle cx="577" cy="117" r="1.3" fill="#f7ecd2" opacity="0.44"/><circle cx="469" cy="228" r="1.3" fill="#f7ecd2" opacity="0.67"/><circle cx="1122" cy="130" r="1.3" fill="#f7ecd2" opacity="0.45"/><circle cx="928" cy="295" r="1.8" fill="#f7ecd2" opacity="0.45"/><circle cx="103" cy="279" r="1.3" fill="#f7ecd2" opacity="0.72"/><circle cx="15" cy="330" r="0.8" fill="#f7ecd2" opacity="0.35"/><circle cx="928" cy="132" r="1.3" fill="#f7ecd2" opacity="0.81"/><circle cx="514" cy="277" r="1.8" fill="#f7ecd2" opacity="0.63"/><circle cx="429" cy="81" r="0.8" fill="#f7ecd2" opacity="0.84"/><circle cx="361" cy="72" r="1.3" fill="#f7ecd2" opacity="0.77"/><circle cx="334" cy="314" r="0.8" fill="#f7ecd2" opacity="0.61"/><circle cx="900" cy="239" r="1.8" fill="#f7ecd2" opacity="0.35"/><circle cx="355" cy="63" r="1.3" fill="#f7ecd2" opacity="0.50"/><circle cx="307" cy="334" r="1.8" fill="#f7ecd2" opacity="0.73"/><circle cx="540" cy="136" r="1.3" fill="#f7ecd2" opacity="0.75"/><circle cx="886" cy="41" r="0.8" fill="#f7ecd2" opacity="0.61"/><circle cx="1081" cy="25" r="1.8" fill="#f7ecd2" opacity="0.60"/><circle cx="1053" cy="236" r="1.8" fill="#f7ecd2" opacity="0.43"/><circle cx="346" cy="138" r="1.3" fill="#f7ecd2" opacity="0.83"/><circle cx="472" cy="23" r="0.8" fill="#f7ecd2" opacity="0.41"/><circle cx="207" cy="27" r="0.8" fill="#f7ecd2" opacity="0.74"/><circle cx="199" cy="178" r="1.8" fill="#f7ecd2" opacity="0.57"/><circle cx="952" cy="120" r="1.3" fill="#f7ecd2" opacity="0.75"/><circle cx="858" cy="325" r="1.3" fill="#f7ecd2" opacity="0.35"/><circle cx="133" cy="9" r="1.3" fill="#f7ecd2" opacity="0.82"/><circle cx="145" cy="100" r="1.8" fill="#f7ecd2" opacity="0.35"/><circle cx="1158" cy="282" r="0.8" fill="#f7ecd2" opacity="0.41"/><circle cx="844" cy="127" r="1.8" fill="#f7ecd2" opacity="0.73"/><circle cx="859" cy="311" r="0.8" fill="#f7ecd2" opacity="0.84"/><circle cx="891" cy="2" r="1.8" fill="#f7ecd2" opacity="0.67"/><circle cx="964" cy="284" r="0.8" fill="#f7ecd2" opacity="0.61"/><circle cx="430" cy="109" r="1.8" fill="#f7ecd2" opacity="0.55"/><circle cx="1185" cy="113" r="1.8" fill="#f7ecd2" opacity="0.40"/><circle cx="37" cy="284" r="0.8" fill="#f7ecd2" opacity="0.43"/><circle cx="370" cy="126" r="1.3" fill="#f7ecd2" opacity="0.55"/><circle cx="816" cy="71" r="1.8" fill="#f7ecd2" opacity="0.71"/><circle cx="1111" cy="95" r="0.8" fill="#f7ecd2" opacity="0.80"/><circle cx="1183" cy="6" r="1.3" fill="#f7ecd2" opacity="0.83"/><circle cx="576" cy="288" r="0.8" fill="#f7ecd2" opacity="0.73"/><circle cx="802" cy="213" r="1.3" fill="#f7ecd2" opacity="0.61"/><circle cx="637" cy="257" r="0.8" fill="#f7ecd2" opacity="0.44"/><circle cx="729" cy="108" r="0.8" fill="#f7ecd2" opacity="0.67"/><circle cx="382" cy="290" r="0.8" fill="#f7ecd2" opacity="0.65"/><circle cx="388" cy="195" r="1.3" fill="#f7ecd2" opacity="0.45"/><circle cx="963" cy="59" r="1.8" fill="#f7ecd2" opacity="0.52"/><circle cx="1075" cy="190" r="1.8" fill="#f7ecd2" opacity="0.35"/><circle cx="988" cy="272" r="0.8" fill="#f7ecd2" opacity="0.71"/><circle cx="774" cy="157" r="1.3" fill="#f7ecd2" opacity="0.53"/><circle cx="889" cy="41" r="0.8" fill="#f7ecd2" opacity="0.84"/><circle cx="1021" cy="112" r="1.8" fill="#f7ecd2" opacity="0.37"/><circle cx="980" cy="120" r="42" fill="#f6ecd0" opacity="0.95"/><circle cx="996" cy="112" r="36" fill="url(#sky)" opacity="0.92"/>
<rect x="240" y="410" width="720" height="150" fill="#12141c"/><path d="M 268 560 L 268 472 Q 300 432 332 472 L 332 560 Z" fill="#0c0e14" opacity="0.9"/><path d="M 366 560 L 366 472 Q 398 432 430 472 L 430 560 Z" fill="#0c0e14" opacity="0.9"/><path d="M 464 560 L 464 472 Q 496 432 528 472 L 528 560 Z" fill="#0c0e14" opacity="0.9"/><path d="M 562 560 L 562 472 Q 594 432 626 472 L 626 560 Z" fill="#0c0e14" opacity="0.9"/><path d="M 660 560 L 660 472 Q 692 432 724 472 L 724 560 Z" fill="#0c0e14" opacity="0.9"/><path d="M 758 560 L 758 472 Q 790 432 822 472 L 822 560 Z" fill="#0c0e14" opacity="0.9"/><path d="M 856 560 L 856 472 Q 888 432 920 472 L 920 560 Z" fill="#0c0e14" opacity="0.9"/><path d="M 410 410 C 410 282.5, 495.5 260, 600 260 C 704.5 260, 790 282.5, 790 410 Z" fill="#12141c"/><line x1="600" y1="260" x2="600" y2="238" stroke="#d8b45a" stroke-width="3"/><circle cx="600" cy="234" r="4.5" fill="#d8b45a"/><path d="M 600 220 a 8 8 0 1 0 6 13 a 6.4 6.4 0 1 1 -6 -13 Z" fill="#d8b45a"/><path d="M 345 412 C 345 347.4, 387.75 336.0, 440 336.0 C 492.25 336.0, 535 347.4, 535 412 Z" fill="#12141c"/><line x1="440" y1="336.0" x2="440" y2="314.0" stroke="#d8b45a" stroke-width="3"/><circle cx="440" cy="310.0" r="4.5" fill="#d8b45a"/><path d="M 440 296.0 a 8 8 0 1 0 6 13 a 6.4 6.4 0 1 1 -6 -13 Z" fill="#d8b45a"/><path d="M 665 412 C 665 347.4, 707.75 336.0, 760 336.0 C 812.25 336.0, 855 347.4, 855 412 Z" fill="#12141c"/><line x1="760" y1="336.0" x2="760" y2="314.0" stroke="#d8b45a" stroke-width="3"/><circle cx="760" cy="310.0" r="4.5" fill="#d8b45a"/><path d="M 760 296.0 a 8 8 0 1 0 6 13 a 6.4 6.4 0 1 1 -6 -13 Z" fill="#d8b45a"/><path d="M 270 412 C 270 371.2, 297.0 364.0, 330 364.0 C 363.0 364.0, 390 371.2, 390 412 Z" fill="#12141c"/><line x1="330" y1="364.0" x2="330" y2="342.0" stroke="#d8b45a" stroke-width="3"/><circle cx="330" cy="338.0" r="4.5" fill="#d8b45a"/><path d="M 330 324.0 a 8 8 0 1 0 6 13 a 6.4 6.4 0 1 1 -6 -13 Z" fill="#d8b45a"/><path d="M 810 412 C 810 371.2, 837.0 364.0, 870 364.0 C 903.0 364.0, 930 371.2, 930 412 Z" fill="#12141c"/><line x1="870" y1="364.0" x2="870" y2="342.0" stroke="#d8b45a" stroke-width="3"/><circle cx="870" cy="338.0" r="4.5" fill="#d8b45a"/><path d="M 870 324.0 a 8 8 0 1 0 6 13 a 6.4 6.4 0 1 1 -6 -13 Z" fill="#d8b45a"/><rect x="59.0" y="170" width="22" height="390" fill="#12141c"/><rect x="49.1" y="174" width="41.8" height="7" rx="3" fill="#12141c"/><path d="M 54.6 172 L 70 114 L 85.4 172 Z" fill="#12141c"/><rect x="159.0" y="170" width="22" height="390" fill="#12141c"/><rect x="149.1" y="174" width="41.8" height="7" rx="3" fill="#12141c"/><path d="M 154.6 172 L 170 114 L 185.4 172 Z" fill="#12141c"/><rect x="259.0" y="170" width="22" height="390" fill="#12141c"/><rect x="249.1" y="174" width="41.8" height="7" rx="3" fill="#12141c"/><path d="M 254.6 172 L 270 114 L 285.4 172 Z" fill="#12141c"/><rect x="919.0" y="170" width="22" height="390" fill="#12141c"/><rect x="909.1" y="174" width="41.8" height="7" rx="3" fill="#12141c"/><path d="M 914.6 172 L 930 114 L 945.4 172 Z" fill="#12141c"/><rect x="1019.0" y="170" width="22" height="390" fill="#12141c"/><rect x="1009.1" y="174" width="41.8" height="7" rx="3" fill="#12141c"/><path d="M 1014.6 172 L 1030 114 L 1045.4 172 Z" fill="#12141c"/><rect x="1119.0" y="170" width="22" height="390" fill="#12141c"/><rect x="1109.1" y="174" width="41.8" height="7" rx="3" fill="#12141c"/><path d="M 1114.6 172 L 1130 114 L 1145.4 172 Z" fill="#12141c"/>
<rect x="0" y="560" width="1200" height="140" fill="#0c0e14"/>

<rect x="0" y="556" width="1200" height="4" fill="#d8b45a" opacity="0.55"/>
</svg>