<svg xmlns="http://www.w3.org/2000/svg" viewBox="0 0 1200 700" role="img">
<defs>
<linearGradient id="sky" x1="0" y1="0" x2="0" y2="1">
<stop offset="0" stop-color="#3a1f2f"/><stop offset="0.62" stop-color="#8a4a3f"/><stop offset="1" stop-color="#f2c98f"/>
</linearGradient>
<pattern id="g1" width="120" height="120" patternUnits="userSpaceOnUse"><polygon points="111.6,60.0 80.0,68.3 96.5,96.5 68.3,80.0 60.0,111.6 51.7,80.0 23.5,96.5 40.0,68.3 8.4,60.0 40.0,51.7 23.5,23.5 51.7,40.0 60.0,8.4 68.3,40.0 96.5,23.5 80.0,51.7" fill="none" stroke="#e8d9a8" stroke-width="1.6" opacity="0.1"/><rect x="17.4" y="17.4" width="85.2" height="85.2" fill="none" stroke="#e8d9a8" stroke-width="1.6" opacity="0.06999999999999999" transform="rotate(45 60.0 60.0)"/></pattern>
</defs>
<rect width="1200" height="700" fill="url(#sky)"/>
<rect width="1200" height="700" fill="url(#g1)"/>
<circle cx="955" cy="125" r="0.8" fill="#f7ecd2" opacity="0.60"/><circle cx="293" cy="122" r="1.3" fill="#f7ecd2" opacity="0.81"/><circle cx="104" cy="42" r="1.8" fill="#f7ecd2" opacity="0.53"/><circle cx="844" cy="161" r="0.8" fill="#f7ecd2" opacity="0.69"/><circle cx="1001" cy="27" r="1.8" fill="#f7ecd2" opacity="0.62"/><circle cx="599" cy="164" r="1.3" fill="#f7ecd2" opacity="0.71"/><circle cx="190" cy="84" r="1.3" fill="#f7ecd2" opacity="0.45"/><circle cx="470" cy="23" r="1.3" fill="#f7ecd2" opacity="0.45"/><circle cx="647" cy="69" r="1.8" fill="#f7ecd2" opacity="0.78"/><circle cx="505" cy="126" r="1.3" fill="#f7ecd2" opacity="0.65"/><circle cx="1076" cy="66" r="1.8" fill="#f7ecd2" opacity="0.51"/><circle cx="896" cy="45" r="1.8" fill="#f7ecd2" opacity="0.55"/><circle cx="1093" cy="51" r="1.3" fill="#f7ecd2" opacity="0.78"/><circle cx="11" cy="8" r="1.3" fill="#f7ecd2" opacity="0.73"/><circle cx="362" cy="168" r="1.8" fill="#f7ecd2" opacity="0.51"/><circle cx="922" cy="207" r="1.3" fill="#f7ecd2" opacity="0.39"/><circle cx="1139" cy="173" r="1.3" fill="#f7ecd2" opacity="0.82"/><circle cx="317" cy="50" r="1.3" fill="#f7ecd2" opacity="0.35"/><circle cx="448" cy="210" r="1.3" fill="#f7ecd2" opacity="0.65"/><circle cx="548" cy="69" r="1.8" fill="#f7ecd2" opacity="0.47"/><circle cx="785" cy="215" r="1.3" fill="#f7ecd2" opacity="0.60"/><circle cx="223" cy="12" r="1.3" fill="#f7ecd2" opacity="0.61"/><circle cx="134" cy="172" r="0.8" fill="#f7ecd2" opacity="0.83"/><circle cx="974" cy="91" r="0.8" fill="#f7ecd2" opacity="0.69"/><circle cx="31" cy="177" r="1.3" fill="#f7ecd2" opacity="0.72"/><circle cx="929" cy="134" r="1.3" fill="#f7ecd2" opacity="0.71"/><circle cx="620" cy="74" r="1.3" fill="#f7ecd2" opacity="0.65"/><circle cx="1000" cy="33" r="1.3" fill="#f7ecd2" opacity="0.35"/><circle cx="77" cy="79" r="0.8" fill="#f7ecd2" opacity="0.68"/><circle cx="35" cy="156" r="1.8" fill="#f7ecd2" opacity="0.45"/><circle cx="960" cy="210" r="110.00000000000001" fill="#f2c98f" opacity="0.18"/><circle cx="960" cy="210" r="50" fill="#f2c98f" opacity="0.9"/>
<rect x="300" y="430" width="620" height="130" fill="#12141c"/><path d="M 330 560 L 330 490 Q 360 448 390 490 L 390 560 Z" fill="#0c0e14" opacity="0.9"/><path d="M 426 560 L 426 490 Q 456 448 486 490 L 486 560 Z" fill="#0c0e14" opacity="0.9"/><path d="M 522 560 L 522 490 Q 552 448 582 490 L 582 560 Z" fill="#0c0e14" opacity="0.9"/><path d="M 618 560 L 618 490 Q 648 448 678 490 L 678 560 Z" fill="#0c0e14" opacity="0.9"/><path d="M 714 560 L 714 490 Q 744 448 774 490 L 774 560 Z" fill="#0c0e14" opacity="0.9"/><path d="M 810 560 L 810 490 Q 840 448 870 490 L 870 560 Z" fill="#0c0e14" opacity="0.9"/><path d="M 300 430 L 920 430 L 920 410 L 300 410 Z" fill="#d8b45a" opacity="0.6"/><rect x="563.0" y="90" width="74" height="470" fill="#12141c"/><rect x="576.32" y="64" width="47.36" height="26" fill="#12141c"/><circle cx="600" cy="56" r="6" fill="#d8b45a"/><circle cx="600" cy="44" r="4.5" fill="#d8b45a"/><circle cx="600" cy="34" r="3" fill="#d8b45a"/><rect x="566" y="230" width="68" height="60" fill="#d8b45a" opacity="0.35"/>
<rect x="0" y="560" width="1200" height="140" fill="#0c0e14"/>

<rect x="0" y="556" width="1200" height="4" fill="#d8b45a" opacity="0.55"/>
</svg>