<svg xmlns="http://www.w3.org/2000/svg" viewBox="0 0 1200 700" role="img">
<defs>
<linearGradient id="sky" x1="0" y1="0" x2="0" y2="1">
<stop offset="0" stop-color="#3a1f2f"/><stop offset="0.62" stop-color="#8a4a3f"/><stop offset="1" stop-color="#f2c98f"/>
</linearGradient>
<pattern id="g1" width="120" height="120" patternUnits="userSpaceOnUse"><polygon points="111.6,60.0 80.0,68.3 96.5,96.5 68.3,80.0 60.0,111.6 51.7,80.0 23.5,96.5 40.0,68.3 8.4,60.0 40.0,51.7 23.5,23.5 51.7,40.0 60.0,8.4 68.3,40.0 96.5,23.5 80.0,51.7" fill="none" stroke="#e8d9a8" stroke-width="1.6" opacity="0.1"/><rect x="17.4" y="17.4" width="85.2" height="85.2" fill="none" stroke="#e8d9a8" stroke-width="1.6" opacity="0.06999999999999999" transform="rotate(45 60.0 60.0)"/></pattern>
</defs>
<rect width="1200" height="700" fill="url(#sky)"/>
<rect width="1200" height="700" fill="url(#g1)"/>
<circle cx="360" cy="160" r="1.3" fill="#f7ecd2" opacity="0.35"/><circle cx="58" cy="97" r="1.8" fill="#f7ecd2" opacity="0.61"/><circle cx="949" cy="57" r="1.3" fill="#f7ecd2" opacity="0.78"/><circle cx="129" cy="216" r="0.8" fill="#f7ecd2" opacity="0.49"/><circle cx="406" cy="62" r="0.8" fill="#f7ecd2" opacity="0.57"/><circle cx="364" cy="139" r="1.8" fill="#f7ecd2" opacity="0.81"/><circle cx="1035" cy="99" r="0.8" fill="#f7ecd2" opacity="0.50"/><circle cx="955" cy="98" r="0.8" fill="#f7ecd2" opacity="0.75"/><circle cx="52" cy="104" r="0.8" fill="#f7ecd2" opacity="0.43"/><circle cx="270" cy="101" r="1.8" fill="#f7ecd2" opacity="0.55"/><circle cx="721" cy="61" r="1.8" fill="#f7ecd2" opacity="0.66"/><circle cx="181" cy="100" r="1.8" fill="#f7ecd2" opacity="0.35"/><circle cx="498" cy="86" r="1.8" fill="#f7ecd2" opacity="0.63"/><circle cx="976" cy="3" r="1.3" fill="#f7ecd2" opacity="0.63"/><circle cx="7" cy="163" r="1.8" fill="#f7ecd2" opacity="0.76"/><circle cx="207" cy="42" r="0.8" fill="#f7ecd2" opacity="0.79"/><circle cx="544" cy="208" r="1.8" fill="#f7ecd2" opacity="0.37"/><circle cx="82" cy="25" r="1.8" fill="#f7ecd2" opacity="0.35"/><circle cx="93" cy="205" r="1.3" fill="#f7ecd2" opacity="0.50"/><circle cx="1033" cy="144" r="1.3" fill="#f7ecd2" opacity="0.37"/><circle cx="190" cy="30" r="1.3" fill="#f7ecd2" opacity="0.35"/><circle cx="1188" cy="7" r="1.3" fill="#f7ecd2" opacity="0.51"/><circle cx="979" cy="187" r="1.8" fill="#f7ecd2" opacity="0.58"/><circle cx="259" cy="146" r="0.8" fill="#f7ecd2" opacity="0.49"/><circle cx="636" cy="12" r="0.8" fill="#f7ecd2" opacity="0.67"/><circle cx="694" cy="109" r="1.8" fill="#f7ecd2" opacity="0.81"/><circle cx="265" cy="69" r="1.3" fill="#f7ecd2" opacity="0.70"/><circle cx="285" cy="88" r="1.3" fill="#f7ecd2" opacity="0.65"/><circle cx="682" cy="134" r="0.8" fill="#f7ecd2" opacity="0.73"/><circle cx="1000" cy="151" r="1.8" fill="#f7ecd2" opacity="0.35"/><circle cx="960" cy="210" r="110.00000000000001" fill="#f2c98f" opacity="0.18"/><circle cx="960" cy="210" r="50" fill="#f2c98f" opacity="0.9"/>
<rect x="300" y="430" width="620" height="130" fill="#12141c"/><path d="M 330 560 L 330 490 Q 360 448 390 490 L 390 560 Z" fill="#0c0e14" opacity="0.9"/><path d="M 426 560 L 426 490 Q 456 448 486 490 L 486 560 Z" fill="#0c0e14" opacity="0.9"/><path d="M 522 560 L 522 490 Q 552 448 582 490 L 582 560 Z" fill="#0c0e14" opacity="0.9"/><path d="M 618 560 L 618 490 Q 648 448 678 490 L 678 560 Z" fill="#0c0e14" opacity="0.9"/><path d="M 714 560 L 714 490 Q 744 448 774 490 L 774 560 Z" fill="#0c0e14" opacity="0.9"/><path d="M 810 560 L 810 490 Q 840 448 870 490 L 870 560 Z" fill="#0c0e14" opacity="0.9"/><path d="M 300 430 L 920 430 L 920 410 L 300 410 Z" fill="#d8b45a" opacity="0.6"/><rect x="563.0" y="90" width="74" height="470" fill="#12141c"/><rect x="576.32" y="64" width="47.36" height="26" fill="#12141c"/><circle cx="600" cy="56" r="6" fill="#d8b45a"/><circle cx="600" cy="44" r="4.5" fill="#d8b45a"/><circle cx="600" cy="34" r="3" fill="#d8b45a"/><rect x="566" y="230" width="68" height="60" fill="#d8b45a" opacity="0.35"/>
<rect x="0" y="560" width="1200" height="140" fill="#0c0e14"/>

<rect x="0" y="556" width="1200" height="4" fill="#d8b45a" opacity="0.55"/>
</svg>