<svg xmlns="http://www.w3.org/2000/svg" viewBox="0 0 1200 700" role="img">
<defs>
<linearGradient id="sky" x1="0" y1="0" x2="0" y2="1">
<stop offset="0" stop-color="#0a1026"/><stop offset="0.62" stop-color="#152046"/><stop offset="1" stop-color="#2b3a6b"/>
</linearGradient>
<pattern id="g1" width="120" height="120" patternUnits="userSpaceOnUse"><polygon points="111.6,60.0 80.0,68.3 96.5,96.5 68.3,80.0 60.0,111.6 51.7,80.0 23.5,96.5 40.0,68.3 8.4,60.0 40.0,51.7 23.5,23.5 51.7,40.0 60.0,8.4 68.3,40.0 96.5,23.5 80.0,51.7" fill="none" stroke="#e8d9a8" stroke-width="1.6" opacity="0.1"/><rect x="17.4" y="17.4" width="85.2" height="85.2" fill="none" stroke="#e8d9a8" stroke-width="1.6" opacity="0.06999999999999999" transform="rotate(45 60.0 60.0)"/></pattern>
</defs>
<rect width="1200" height="700" fill="url(#sky)"/>
<rect width="1200" height="700" fill="url(#g1)"/>
<circle cx="400" cy="160" r="1.8" fill="#f7ecd2" opacity="0.35"/><circle cx="578" cy="297" r="1.8" fill="#f7ecd2" opacity="0.51"/><circle cx="509" cy="257" r="1.3" fill="#f7ecd2" opacity="0.48"/><circle cx="409" cy="276" r="1.3" fill="#f7ecd2" opacity="0.69"/><circle cx="446" cy="122" r="1.3" fill="#f7ecd2" opacity="0.47"/><circle cx="884" cy="159" r="1.8" fill="#f7ecd2" opacity="0.41"/><circle cx="595" cy="99" r="1.3" fill="#f7ecd2" opacity="0.40"/><circle cx="35" cy="138" r="1.8" fill="#f7ecd2" opacity="0.65"/><circle cx="92" cy="264" r="1.8" fill="#f7ecd2" opacity="0.73"/><circle cx="790" cy="201" r="1.3" fill="#f7ecd2" opacity="0.75"/><circle cx="281" cy="121" r="0.8" fill="#f7ecd2" opacity="0.36"/><circle cx="461" cy="320" r="1.3" fill="#f7ecd2" opacity="0.55"/><circle cx="538" cy="46" r="1.8" fill="#f7ecd2" opacity="0.83"/><circle cx="296" cy="83" r="1.3" fill="#f7ecd2" opacity="0.53"/><circle cx="767" cy="123" r="1.8" fill="#f7ecd2" opacity="0.76"/><circle cx="487" cy="2" r="0.8" fill="#f7ecd2" opacity="0.59"/><circle cx="584" cy="8" r="1.3" fill="#f7ecd2" opacity="0.57"/><circle cx="602" cy="285" r="1.8" fill="#f7ecd2" opacity="0.55"/><circle cx="853" cy="305" r="0.8" fill="#f7ecd2" opacity="0.50"/><circle cx="113" cy="204" r="1.8" fill="#f7ecd2" opacity="0.37"/><circle cx="230" cy="150" r="1.8" fill="#f7ecd2" opacity="0.35"/><circle cx="508" cy="327" r="1.3" fill="#f7ecd2" opacity="0.51"/><circle cx="539" cy="327" r="1.8" fill="#f7ecd2" opacity="0.38"/><circle cx="539" cy="46" r="0.8" fill="#f7ecd2" opacity="0.79"/><circle cx="676" cy="272" r="0.8" fill="#f7ecd2" opacity="0.57"/><circle cx="14" cy="209" r="1.3" fill="#f7ecd2" opacity="0.61"/><circle cx="1025" cy="329" r="1.3" fill="#f7ecd2" opacity="0.60"/><circle cx="565" cy="68" r="0.8" fill="#f7ecd2" opacity="0.55"/><circle cx="722" cy="234" r="1.8" fill="#f7ecd2" opacity="0.83"/><circle cx="320" cy="71" r="1.3" fill="#f7ecd2" opacity="0.55"/><circle cx="1111" cy="171" r="1.3" fill="#f7ecd2" opacity="0.66"/><circle cx="191" cy="270" r="1.8" fill="#f7ecd2" opacity="0.55"/><circle cx="368" cy="36" r="1.8" fill="#f7ecd2" opacity="0.83"/><circle cx="226" cy="113" r="0.8" fill="#f7ecd2" opacity="0.73"/><circle cx="797" cy="193" r="0.8" fill="#f7ecd2" opacity="0.56"/><circle cx="617" cy="112" r="0.8" fill="#f7ecd2" opacity="0.39"/><circle cx="814" cy="158" r="0.8" fill="#f7ecd2" opacity="0.47"/><circle cx="932" cy="135" r="1.8" fill="#f7ecd2" opacity="0.55"/><circle cx="83" cy="55" r="0.8" fill="#f7ecd2" opacity="0.50"/><circle cx="643" cy="134" r="0.8" fill="#f7ecd2" opacity="0.47"/><circle cx="860" cy="120" r="1.8" fill="#f7ecd2" opacity="0.35"/><circle cx="38" cy="197" r="1.3" fill="#f7ecd2" opacity="0.71"/><circle cx="169" cy="237" r="1.3" fill="#f7ecd2" opacity="0.38"/><circle cx="269" cy="336" r="1.8" fill="#f7ecd2" opacity="0.69"/><circle cx="506" cy="262" r="0.8" fill="#f7ecd2" opacity="0.57"/><circle cx="1144" cy="39" r="1.3" fill="#f7ecd2" opacity="0.51"/><circle cx="1055" cy="59" r="1.3" fill="#f7ecd2" opacity="0.80"/><circle cx="695" cy="178" r="0.8" fill="#f7ecd2" opacity="0.45"/><circle cx="952" cy="44" r="0.8" fill="#f7ecd2" opacity="0.73"/><circle cx="650" cy="261" r="1.8" fill="#f7ecd2" opacity="0.35"/><circle cx="341" cy="261" r="1.8" fill="#f7ecd2" opacity="0.36"/><circle cx="721" cy="200" r="0.8" fill="#f7ecd2" opacity="0.35"/><circle cx="998" cy="6" r="1.8" fill="#f7ecd2" opacity="0.73"/><circle cx="956" cy="123" r="1.8" fill="#f7ecd2" opacity="0.73"/><circle cx="427" cy="103" r="1.8" fill="#f7ecd2" opacity="0.66"/><circle cx="347" cy="62" r="1.3" fill="#f7ecd2" opacity="0.49"/><circle cx="644" cy="148" r="0.8" fill="#f7ecd2" opacity="0.47"/><circle cx="862" cy="165" r="1.3" fill="#f7ecd2" opacity="0.65"/><circle cx="113" cy="125" r="1.3" fill="#f7ecd2" opacity="0.60"/><circle cx="773" cy="244" r="0.8" fill="#f7ecd2" opacity="0.47"/><circle cx="980" cy="120" r="42" fill="#f6ecd0" opacity="0.95"/><circle cx="996" cy="112" r="36" fill="url(#sky)" opacity="0.92"/>
<rect x="300" y="430" width="620" height="130" fill="#12141c"/><path d="M 330 560 L 330 490 Q 360 448 390 490 L 390 560 Z" fill="#0c0e14" opacity="0.9"/><path d="M 426 560 L 426 490 Q 456 448 486 490 L 486 560 Z" fill="#0c0e14" opacity="0.9"/><path d="M 522 560 L 522 490 Q 552 448 582 490 L 582 560 Z" fill="#0c0e14" opacity="0.9"/><path d="M 618 560 L 618 490 Q 648 448 678 490 L 678 560 Z" fill="#0c0e14" opacity="0.9"/><path d="M 714 560 L 714 490 Q 744 448 774 490 L 774 560 Z" fill="#0c0e14" opacity="0.9"/><path d="M 810 560 L 810 490 Q 840 448 870 490 L 870 560 Z" fill="#0c0e14" opacity="0.9"/><path d="M 300 430 L 920 430 L 920 410 L 300 410 Z" fill="#d8b45a" opacity="0.6"/><rect x="563.0" y="90" width="74" height="470" fill="#12141c"/><rect x="576.32" y="64" width="47.36" height="26" fill="#12141c"/><circle cx="600" cy="56" r="6" fill="#d8b45a"/><circle cx="600" cy="44" r="4.5" fill="#d8b45a"/><circle cx="600" cy="34" r="3" fill="#d8b45a"/><rect x="566" y="230" width="68" height="60" fill="#d8b45a" opacity="0.35"/>
<rect x="0" y="560" width="1200" height="140" fill="#0c0e14"/>

<rect x="0" y="556" width="1200" height="4" fill="#d8b45a" opacity="0.55"/>
</svg>