<svg xmlns="http://www.w3.org/2000/svg" viewBox="0 0 1200 700" role="img">
<defs>
<linearGradient id="sky" x1="0" y1="0" x2="0" y2="1">
<stop offset="0" stop-color="#0a1026"/><stop offset="0.62" stop-color="#152046"/><stop offset="1" stop-color="#2b3a6b"/>
</linearGradient>
<pattern id="g1" width="120" height="120" patternUnits="userSpaceOnUse"><polygon points="111.6,60.0 80.0,68.3 96.5,96.5 68.3,80.0 60.0,111.6 51.7,80.0 23.5,96.5 40.0,68.3 8.4,60.0 40.0,51.7 23.5,23.5 51.7,40.0 60.0,8.4 68.3,40.0 96.5,23.5 80.0,51.7" fill="none" stroke="#e8d9a8" stroke-width="1.6" opacity="0.1"/><rect x="17.4" y="17.4" width="85.2" height="85.2" fill="none" stroke="#e8d9a8" stroke-width="1.6" opacity="0.06999999999999999" transform="rotate(45 60.0 60.0)"/></pattern>
</defs>
<rect width="1200" height="700" fill="url(#sky)"/>
<rect width="1200" height="700" fill="url(#g1)"/>
<circle cx="221" cy="51" r="1.8" fill="#f7ecd2" opacity="0.56"/><circle cx="711" cy="0" r="0.8" fill="#f7ecd2" opacity="0.35"/><circle cx="618" cy="236" r="1.8" fill="#f7ecd2" opacity="0.83"/><circle cx="1166" cy="283" r="0.8" fill="#f7ecd2" opacity="0.63"/><circle cx="507" cy="313" r="1.3" fill="#f7ecd2" opacity="0.76"/><circle cx="537" cy="282" r="0.8" fill="#f7ecd2" opacity="0.69"/><circle cx="464" cy="118" r="0.8" fill="#f7ecd2" opacity="0.37"/><circle cx="72" cy="265" r="1.3" fill="#f7ecd2" opacity="0.65"/><circle cx="393" cy="75" r="0.8" fill="#f7ecd2" opacity="0.60"/><circle cx="1163" cy="204" r="1.8" fill="#f7ecd2" opacity="0.37"/><circle cx="1110" cy="320" r="1.8" fill="#f7ecd2" opacity="0.35"/><circle cx="978" cy="27" r="0.8" fill="#f7ecd2" opacity="0.41"/><circle cx="1079" cy="157" r="0.8" fill="#f7ecd2" opacity="0.38"/><circle cx="189" cy="166" r="1.3" fill="#f7ecd2" opacity="0.59"/><circle cx="156" cy="222" r="0.8" fill="#f7ecd2" opacity="0.67"/><circle cx="284" cy="169" r="0.8" fill="#f7ecd2" opacity="0.81"/><circle cx="165" cy="279" r="0.8" fill="#f7ecd2" opacity="0.70"/><circle cx="15" cy="108" r="0.8" fill="#f7ecd2" opacity="0.55"/><circle cx="2" cy="104" r="1.3" fill="#f7ecd2" opacity="0.43"/><circle cx="390" cy="291" r="0.8" fill="#f7ecd2" opacity="0.75"/><circle cx="51" cy="41" r="1.8" fill="#f7ecd2" opacity="0.76"/><circle cx="641" cy="30" r="1.8" fill="#f7ecd2" opacity="0.65"/><circle cx="648" cy="306" r="0.8" fill="#f7ecd2" opacity="0.73"/><circle cx="96" cy="253" r="1.3" fill="#f7ecd2" opacity="0.73"/><circle cx="737" cy="123" r="1.8" fill="#f7ecd2" opacity="0.36"/><circle cx="867" cy="132" r="0.8" fill="#f7ecd2" opacity="0.79"/><circle cx="894" cy="8" r="1.8" fill="#f7ecd2" opacity="0.37"/><circle cx="602" cy="195" r="1.8" fill="#f7ecd2" opacity="0.75"/><circle cx="1023" cy="45" r="0.8" fill="#f7ecd2" opacity="0.70"/><circle cx="693" cy="74" r="1.8" fill="#f7ecd2" opacity="0.67"/><circle cx="740" cy="230" r="1.3" fill="#f7ecd2" opacity="0.35"/><circle cx="708" cy="317" r="1.8" fill="#f7ecd2" opacity="0.71"/><circle cx="909" cy="147" r="0.8" fill="#f7ecd2" opacity="0.58"/><circle cx="119" cy="196" r="0.8" fill="#f7ecd2" opacity="0.59"/><circle cx="186" cy="292" r="1.3" fill="#f7ecd2" opacity="0.47"/><circle cx="414" cy="279" r="0.8" fill="#f7ecd2" opacity="0.41"/><circle cx="395" cy="89" r="1.3" fill="#f7ecd2" opacity="0.40"/><circle cx="345" cy="298" r="1.3" fill="#f7ecd2" opacity="0.45"/><circle cx="432" cy="334" r="1.3" fill="#f7ecd2" opacity="0.73"/><circle cx="920" cy="221" r="1.3" fill="#f7ecd2" opacity="0.55"/><circle cx="681" cy="11" r="1.8" fill="#f7ecd2" opacity="0.76"/><circle cx="171" cy="240" r="0.8" fill="#f7ecd2" opacity="0.75"/><circle cx="278" cy="216" r="1.8" fill="#f7ecd2" opacity="0.83"/><circle cx="1026" cy="3" r="0.8" fill="#f7ecd2" opacity="0.63"/><circle cx="567" cy="113" r="1.8" fill="#f7ecd2" opacity="0.56"/><circle cx="797" cy="162" r="1.8" fill="#f7ecd2" opacity="0.49"/><circle cx="924" cy="78" r="0.8" fill="#f7ecd2" opacity="0.57"/><circle cx="732" cy="305" r="1.8" fill="#f7ecd2" opacity="0.45"/><circle cx="53" cy="55" r="0.8" fill="#f7ecd2" opacity="0.50"/><circle cx="1023" cy="264" r="0.8" fill="#f7ecd2" opacity="0.57"/><circle cx="1170" cy="120" r="0.8" fill="#f7ecd2" opacity="0.35"/><circle cx="38" cy="107" r="1.3" fill="#f7ecd2" opacity="0.51"/><circle cx="339" cy="317" r="1.8" fill="#f7ecd2" opacity="0.48"/><circle cx="849" cy="206" r="1.8" fill="#f7ecd2" opacity="0.79"/><circle cx="1016" cy="2" r="1.3" fill="#f7ecd2" opacity="0.67"/><circle cx="144" cy="229" r="1.3" fill="#f7ecd2" opacity="0.61"/><circle cx="225" cy="79" r="1.3" fill="#f7ecd2" opacity="0.60"/><circle cx="275" cy="328" r="0.8" fill="#f7ecd2" opacity="0.35"/><circle cx="462" cy="64" r="1.3" fill="#f7ecd2" opacity="0.53"/><circle cx="1050" cy="331" r="1.3" fill="#f7ecd2" opacity="0.35"/><circle cx="980" cy="120" r="42" fill="#f6ecd0" opacity="0.95"/><circle cx="996" cy="112" r="36" fill="url(#sky)" opacity="0.92"/>
<rect x="300" y="430" width="620" height="130" fill="#12141c"/><path d="M 330 560 L 330 490 Q 360 448 390 490 L 390 560 Z" fill="#0c0e14" opacity="0.9"/><path d="M 426 560 L 426 490 Q 456 448 486 490 L 486 560 Z" fill="#0c0e14" opacity="0.9"/><path d="M 522 560 L 522 490 Q 552 448 582 490 L 582 560 Z" fill="#0c0e14" opacity="0.9"/><path d="M 618 560 L 618 490 Q 648 448 678 490 L 678 560 Z" fill="#0c0e14" opacity="0.9"/><path d="M 714 560 L 714 490 Q 744 448 774 490 L 774 560 Z" fill="#0c0e14" opacity="0.9"/><path d="M 810 560 L 810 490 Q 840 448 870 490 L 870 560 Z" fill="#0c0e14" opacity="0.9"/><path d="M 300 430 L 920 430 L 920 410 L 300 410 Z" fill="#d8b45a" opacity="0.6"/><rect x="563.0" y="90" width="74" height="470" fill="#12141c"/><rect x="576.32" y="64" width="47.36" height="26" fill="#12141c"/><circle cx="600" cy="56" r="6" fill="#d8b45a"/><circle cx="600" cy="44" r="4.5" fill="#d8b45a"/><circle cx="600" cy="34" r="3" fill="#d8b45a"/><rect x="566" y="230" width="68" height="60" fill="#d8b45a" opacity="0.35"/>
<rect x="0" y="560" width="1200" height="140" fill="#0c0e14"/>

<rect x="0" y="556" width="1200" height="4" fill="#d8b45a" opacity="0.55"/>
</svg>