<svg xmlns="http://www.w3.org/2000/svg" viewBox="0 0 1200 700" role="img">
<defs>
<linearGradient id="sky" x1="0" y1="0" x2="0" y2="1">
<stop offset="0" stop-color="#0a1026"/><stop offset="0.62" stop-color="#152046"/><stop offset="1" stop-color="#2b3a6b"/>
</linearGradient>
<pattern id="g1" width="120" height="120" patternUnits="userSpaceOnUse"><polygon points="111.6,60.0 80.0,68.3 96.5,96.5 68.3,80.0 60.0,111.6 51.7,80.0 23.5,96.5 40.0,68.3 8.4,60.0 40.0,51.7 23.5,23.5 51.7,40.0 60.0,8.4 68.3,40.0 96.5,23.5 80.0,51.7" fill="none" stroke="#e8d9a8" stroke-width="1.6" opacity="0.1"/><rect x="17.4" y="17.4" width="85.2" height="85.2" fill="none" stroke="#e8d9a8" stroke-width="1.6" opacity="0.06999999999999999" transform="rotate(45 60.0 60.0)"/></pattern>
</defs>
<rect width="1200" height="700" fill="url(#sky)"/>
<rect width="1200" height="700" fill="url(#g1)"/>
<circle cx="619" cy="149" r="0.8" fill="#f7ecd2" opacity="0.66"/><circle cx="965" cy="54" r="1.8" fill="#f7ecd2" opacity="0.45"/><circle cx="1160" cy="38" r="1.3" fill="#f7ecd2" opacity="0.65"/><circle cx="1132" cy="249" r="1.3" fill="#f7ecd2" opacity="0.53"/><circle cx="425" cy="151" r="0.8" fill="#f7ecd2" opacity="0.60"/><circle cx="551" cy="36" r="1.8" fill="#f7ecd2" opacity="0.71"/><circle cx="286" cy="40" r="1.8" fill="#f7ecd2" opacity="0.75"/><circle cx="278" cy="191" r="1.3" fill="#f7ecd2" opacity="0.83"/><circle cx="1031" cy="133" r="0.8" fill="#f7ecd2" opacity="0.58"/><circle cx="937" cy="338" r="0.8" fill="#f7ecd2" opacity="0.41"/><circle cx="212" cy="22" r="0.8" fill="#f7ecd2" opacity="0.49"/><circle cx="224" cy="113" r="1.3" fill="#f7ecd2" opacity="0.47"/><circle cx="37" cy="155" r="0.8" fill="#f7ecd2" opacity="0.70"/><circle cx="923" cy="140" r="1.3" fill="#f7ecd2" opacity="0.55"/><circle cx="938" cy="324" r="1.8" fill="#f7ecd2" opacity="0.47"/><circle cx="970" cy="15" r="1.3" fill="#f7ecd2" opacity="0.35"/><circle cx="1043" cy="297" r="1.8" fill="#f7ecd2" opacity="0.56"/><circle cx="509" cy="122" r="1.3" fill="#f7ecd2" opacity="0.83"/><circle cx="64" cy="326" r="0.8" fill="#f7ecd2" opacity="0.49"/><circle cx="116" cy="297" r="1.8" fill="#f7ecd2" opacity="0.37"/><circle cx="449" cy="139" r="0.8" fill="#f7ecd2" opacity="0.46"/><circle cx="895" cy="84" r="1.3" fill="#f7ecd2" opacity="0.65"/><circle cx="1190" cy="108" r="1.8" fill="#f7ecd2" opacity="0.55"/><circle cx="62" cy="219" r="1.8" fill="#f7ecd2" opacity="0.63"/><circle cx="655" cy="301" r="1.8" fill="#f7ecd2" opacity="0.40"/><circle cx="881" cy="226" r="0.8" fill="#f7ecd2" opacity="0.41"/><circle cx="716" cy="270" r="1.8" fill="#f7ecd2" opacity="0.55"/><circle cx="808" cy="121" r="1.8" fill="#f7ecd2" opacity="0.53"/><circle cx="461" cy="303" r="1.8" fill="#f7ecd2" opacity="0.68"/><circle cx="467" cy="208" r="0.8" fill="#f7ecd2" opacity="0.71"/><circle cx="1042" cy="72" r="1.3" fill="#f7ecd2" opacity="0.59"/><circle cx="1154" cy="203" r="1.3" fill="#f7ecd2" opacity="0.47"/><circle cx="1067" cy="285" r="1.8" fill="#f7ecd2" opacity="0.80"/><circle cx="853" cy="170" r="0.8" fill="#f7ecd2" opacity="0.45"/><circle cx="968" cy="54" r="1.8" fill="#f7ecd2" opacity="0.57"/><circle cx="1100" cy="125" r="1.3" fill="#f7ecd2" opacity="0.35"/><circle cx="73" cy="307" r="1.8" fill="#f7ecd2" opacity="0.46"/><circle cx="839" cy="312" r="1.8" fill="#f7ecd2" opacity="0.53"/><circle cx="494" cy="216" r="1.8" fill="#f7ecd2" opacity="0.39"/><circle cx="646" cy="227" r="0.8" fill="#f7ecd2" opacity="0.77"/><circle cx="1079" cy="109" r="0.8" fill="#f7ecd2" opacity="0.46"/><circle cx="425" cy="294" r="1.8" fill="#f7ecd2" opacity="0.35"/><circle cx="820" cy="18" r="1.3" fill="#f7ecd2" opacity="0.45"/><circle cx="992" cy="309" r="1.8" fill="#f7ecd2" opacity="0.63"/><circle cx="485" cy="291" r="1.8" fill="#f7ecd2" opacity="0.70"/><circle cx="811" cy="256" r="1.8" fill="#f7ecd2" opacity="0.51"/><circle cx="746" cy="0" r="1.8" fill="#f7ecd2" opacity="0.35"/><circle cx="938" cy="231" r="1.8" fill="#f7ecd2" opacity="0.63"/><circle cx="691" cy="113" r="0.8" fill="#f7ecd2" opacity="0.68"/><circle cx="797" cy="58" r="0.8" fill="#f7ecd2" opacity="0.61"/><circle cx="272" cy="162" r="1.8" fill="#f7ecd2" opacity="0.49"/><circle cx="484" cy="333" r="1.3" fill="#f7ecd2" opacity="0.57"/><circle cx="497" cy="115" r="0.8" fill="#f7ecd2" opacity="0.40"/><circle cx="383" cy="40" r="0.8" fill="#f7ecd2" opacity="0.55"/><circle cx="598" cy="304" r="1.8" fill="#f7ecd2" opacity="0.77"/><circle cx="830" cy="75" r="1.8" fill="#f7ecd2" opacity="0.35"/><circle cx="1103" cy="97" r="0.8" fill="#f7ecd2" opacity="0.76"/><circle cx="769" cy="2" r="0.8" fill="#f7ecd2" opacity="0.73"/><circle cx="524" cy="286" r="0.8" fill="#f7ecd2" opacity="0.49"/><circle cx="776" cy="337" r="0.8" fill="#f7ecd2" opacity="0.47"/><circle cx="980" cy="120" r="42" fill="#f6ecd0" opacity="0.95"/><circle cx="996" cy="112" r="36" fill="url(#sky)" opacity="0.92"/>
<rect x="300" y="430" width="620" height="130" fill="#12141c"/><path d="M 330 560 L 330 490 Q 360 448 390 490 L 390 560 Z" fill="#0c0e14" opacity="0.9"/><path d="M 426 560 L 426 490 Q 456 448 486 490 L 486 560 Z" fill="#0c0e14" opacity="0.9"/><path d="M 522 560 L 522 490 Q 552 448 582 490 L 582 560 Z" fill="#0c0e14" opacity="0.9"/><path d="M 618 560 L 618 490 Q 648 448 678 490 L 678 560 Z" fill="#0c0e14" opacity="0.9"/><path d="M 714 560 L 714 490 Q 744 448 774 490 L 774 560 Z" fill="#0c0e14" opacity="0.9"/><path d="M 810 560 L 810 490 Q 840 448 870 490 L 870 560 Z" fill="#0c0e14" opacity="0.9"/><path d="M 300 430 L 920 430 L 920 410 L 300 410 Z" fill="#d8b45a" opacity="0.6"/><rect x="563.0" y="90" width="74" height="470" fill="#12141c"/><rect x="576.32" y="64" width="47.36" height="26" fill="#12141c"/><circle cx="600" cy="56" r="6" fill="#d8b45a"/><circle cx="600" cy="44" r="4.5" fill="#d8b45a"/><circle cx="600" cy="34" r="3" fill="#d8b45a"/><rect x="566" y="230" width="68" height="60" fill="#d8b45a" opacity="0.35"/>
<rect x="0" y="560" width="1200" height="140" fill="#0c0e14"/>

<rect x="0" y="556" width="1200" height="4" fill="#d8b45a" opacity="0.55"/>
</svg>