<svg xmlns="http://www.w3.org/2000/svg" viewBox="0 0 1200 700" role="img">
<defs>
<linearGradient id="sky" x1="0" y1="0" x2="0" y2="1">
<stop offset="0" stop-color="#0a1026"/><stop offset="0.62" stop-color="#152046"/><stop offset="1" stop-color="#2b3a6b"/>
</linearGradient>
<pattern id="g1" width="120" height="120" patternUnits="userSpaceOnUse"><polygon points="111.6,60.0 80.0,68.3 96.5,96.5 68.3,80.0 60.0,111.6 51.7,80.0 23.5,96.5 40.0,68.3 8.4,60.0 40.0,51.7 23.5,23.5 51.7,40.0 60.0,8.4 68.3,40.0 96.5,23.5 80.0,51.7" fill="none" stroke="#e8d9a8" stroke-width="1.6" opacity="0.1"/><rect x="17.4" y="17.4" width="85.2" height="85.2" fill="none" stroke="#e8d9a8" stroke-width="1.6" opacity="0.06999999999999999" transform="rotate(45 60.0 60.0)"/></pattern>
</defs>
<rect width="1200" height="700" fill="url(#sky)"/>
<rect width="1200" height="700" fill="url(#g1)"/>
<circle cx="411" cy="161" r="1.8" fill="#f7ecd2" opacity="0.56"/><circle cx="181" cy="230" r="0.8" fill="#f7ecd2" opacity="0.65"/><circle cx="328" cy="86" r="0.8" fill="#f7ecd2" opacity="0.43"/><circle cx="396" cy="213" r="0.8" fill="#f7ecd2" opacity="0.83"/><circle cx="697" cy="83" r="0.8" fill="#f7ecd2" opacity="0.36"/><circle cx="7" cy="172" r="1.8" fill="#f7ecd2" opacity="0.39"/><circle cx="174" cy="308" r="1.8" fill="#f7ecd2" opacity="0.77"/><circle cx="502" cy="335" r="0.8" fill="#f7ecd2" opacity="0.55"/><circle cx="583" cy="185" r="0.8" fill="#f7ecd2" opacity="0.40"/><circle cx="633" cy="94" r="1.3" fill="#f7ecd2" opacity="0.37"/><circle cx="820" cy="170" r="0.8" fill="#f7ecd2" opacity="0.35"/><circle cx="208" cy="297" r="1.3" fill="#f7ecd2" opacity="0.61"/><circle cx="69" cy="127" r="1.3" fill="#f7ecd2" opacity="0.48"/><circle cx="859" cy="196" r="1.8" fill="#f7ecd2" opacity="0.49"/><circle cx="1066" cy="212" r="0.8" fill="#f7ecd2" opacity="0.77"/><circle cx="714" cy="239" r="1.8" fill="#f7ecd2" opacity="0.81"/><circle cx="355" cy="49" r="1.8" fill="#f7ecd2" opacity="0.80"/><circle cx="685" cy="138" r="1.3" fill="#f7ecd2" opacity="0.65"/><circle cx="912" cy="94" r="1.3" fill="#f7ecd2" opacity="0.63"/><circle cx="820" cy="21" r="1.3" fill="#f7ecd2" opacity="0.55"/><circle cx="241" cy="151" r="1.8" fill="#f7ecd2" opacity="0.76"/><circle cx="111" cy="260" r="1.8" fill="#f7ecd2" opacity="0.45"/><circle cx="358" cy="156" r="1.3" fill="#f7ecd2" opacity="0.83"/><circle cx="526" cy="323" r="0.8" fill="#f7ecd2" opacity="0.83"/><circle cx="927" cy="233" r="1.8" fill="#f7ecd2" opacity="0.76"/><circle cx="337" cy="22" r="1.8" fill="#f7ecd2" opacity="0.49"/><circle cx="604" cy="198" r="1.3" fill="#f7ecd2" opacity="0.77"/><circle cx="1032" cy="265" r="1.3" fill="#f7ecd2" opacity="0.65"/><circle cx="13" cy="15" r="1.3" fill="#f7ecd2" opacity="0.80"/><circle cx="163" cy="304" r="1.8" fill="#f7ecd2" opacity="0.37"/><circle cx="450" cy="80" r="1.8" fill="#f7ecd2" opacity="0.35"/><circle cx="1138" cy="47" r="0.8" fill="#f7ecd2" opacity="0.71"/><circle cx="1099" cy="257" r="0.8" fill="#f7ecd2" opacity="0.78"/><circle cx="789" cy="226" r="1.3" fill="#f7ecd2" opacity="0.49"/><circle cx="1096" cy="282" r="1.3" fill="#f7ecd2" opacity="0.57"/><circle cx="844" cy="9" r="1.3" fill="#f7ecd2" opacity="0.81"/><circle cx="585" cy="199" r="1.3" fill="#f7ecd2" opacity="0.50"/><circle cx="1015" cy="328" r="1.8" fill="#f7ecd2" opacity="0.55"/><circle cx="142" cy="184" r="1.8" fill="#f7ecd2" opacity="0.63"/><circle cx="150" cy="151" r="1.3" fill="#f7ecd2" opacity="0.35"/><circle cx="871" cy="121" r="1.8" fill="#f7ecd2" opacity="0.76"/><circle cx="841" cy="270" r="1.3" fill="#f7ecd2" opacity="0.55"/><circle cx="1188" cy="206" r="1.8" fill="#f7ecd2" opacity="0.63"/><circle cx="256" cy="273" r="1.3" fill="#f7ecd2" opacity="0.73"/><circle cx="757" cy="223" r="1.8" fill="#f7ecd2" opacity="0.46"/><circle cx="267" cy="52" r="1.3" fill="#f7ecd2" opacity="0.69"/><circle cx="634" cy="268" r="1.8" fill="#f7ecd2" opacity="0.47"/><circle cx="1162" cy="35" r="0.8" fill="#f7ecd2" opacity="0.55"/><circle cx="243" cy="165" r="0.8" fill="#f7ecd2" opacity="0.80"/><circle cx="493" cy="154" r="1.8" fill="#f7ecd2" opacity="0.57"/><circle cx="880" cy="310" r="1.8" fill="#f7ecd2" opacity="0.35"/><circle cx="468" cy="177" r="0.8" fill="#f7ecd2" opacity="0.71"/><circle cx="529" cy="87" r="1.3" fill="#f7ecd2" opacity="0.58"/><circle cx="319" cy="96" r="1.3" fill="#f7ecd2" opacity="0.59"/><circle cx="726" cy="192" r="0.8" fill="#f7ecd2" opacity="0.77"/><circle cx="574" cy="299" r="0.8" fill="#f7ecd2" opacity="0.61"/><circle cx="415" cy="189" r="1.3" fill="#f7ecd2" opacity="0.70"/><circle cx="945" cy="18" r="0.8" fill="#f7ecd2" opacity="0.45"/><circle cx="172" cy="254" r="0.8" fill="#f7ecd2" opacity="0.73"/><circle cx="280" cy="261" r="1.3" fill="#f7ecd2" opacity="0.65"/><circle cx="980" cy="120" r="42" fill="#f6ecd0" opacity="0.95"/><circle cx="996" cy="112" r="36" fill="url(#sky)" opacity="0.92"/>
<rect x="300" y="430" width="620" height="130" fill="#12141c"/><path d="M 330 560 L 330 490 Q 360 448 390 490 L 390 560 Z" fill="#0c0e14" opacity="0.9"/><path d="M 426 560 L 426 490 Q 456 448 486 490 L 486 560 Z" fill="#0c0e14" opacity="0.9"/><path d="M 522 560 L 522 490 Q 552 448 582 490 L 582 560 Z" fill="#0c0e14" opacity="0.9"/><path d="M 618 560 L 618 490 Q 648 448 678 490 L 678 560 Z" fill="#0c0e14" opacity="0.9"/><path d="M 714 560 L 714 490 Q 744 448 774 490 L 774 560 Z" fill="#0c0e14" opacity="0.9"/><path d="M 810 560 L 810 490 Q 840 448 870 490 L 870 560 Z" fill="#0c0e14" opacity="0.9"/><path d="M 300 430 L 920 430 L 920 410 L 300 410 Z" fill="#d8b45a" opacity="0.6"/><rect x="563.0" y="90" width="74" height="470" fill="#12141c"/><rect x="576.32" y="64" width="47.36" height="26" fill="#12141c"/><circle cx="600" cy="56" r="6" fill="#d8b45a"/><circle cx="600" cy="44" r="4.5" fill="#d8b45a"/><circle cx="600" cy="34" r="3" fill="#d8b45a"/><rect x="566" y="230" width="68" height="60" fill="#d8b45a" opacity="0.35"/>
<rect x="0" y="560" width="1200" height="140" fill="#0c0e14"/>

<rect x="0" y="556" width="1200" height="4" fill="#d8b45a" opacity="0.55"/>
</svg>