<svg xmlns="http://www.w3.org/2000/svg" viewBox="0 0 1200 700" role="img">
<defs>
<linearGradient id="sky" x1="0" y1="0" x2="0" y2="1">
<stop offset="0" stop-color="#0a1026"/><stop offset="0.62" stop-color="#152046"/><stop offset="1" stop-color="#2b3a6b"/>
</linearGradient>
<pattern id="g1" width="120" height="120" patternUnits="userSpaceOnUse"><polygon points="111.6,60.0 80.0,68.3 96.5,96.5 68.3,80.0 60.0,111.6 51.7,80.0 23.5,96.5 40.0,68.3 8.4,60.0 40.0,51.7 23.5,23.5 51.7,40.0 60.0,8.4 68.3,40.0 96.5,23.5 80.0,51.7" fill="none" stroke="#e8d9a8" stroke-width="1.6" opacity="0.1"/><rect x="17.4" y="17.4" width="85.2" height="85.2" fill="none" stroke="#e8d9a8" stroke-width="1.6" opacity="0.06999999999999999" transform="rotate(45 60.0 60.0)"/></pattern>
</defs>
<rect width="1200" height="700" fill="url(#sky)"/>
<rect width="1200" height="700" fill="url(#g1)"/>
<circle cx="713" cy="3" r="1.8" fill="#f7ecd2" opacity="0.74"/><circle cx="627" cy="116" r="1.8" fill="#f7ecd2" opacity="0.67"/><circle cx="486" cy="224" r="1.8" fill="#f7ecd2" opacity="0.49"/><circle cx="1130" cy="187" r="0.8" fill="#f7ecd2" opacity="0.45"/><circle cx="279" cy="45" r="0.8" fill="#f7ecd2" opacity="0.40"/><circle cx="693" cy="18" r="0.8" fill="#f7ecd2" opacity="0.59"/><circle cx="1052" cy="326" r="1.3" fill="#f7ecd2" opacity="0.37"/><circle cx="996" cy="9" r="0.8" fill="#f7ecd2" opacity="0.49"/><circle cx="645" cy="67" r="1.3" fill="#f7ecd2" opacity="0.50"/><circle cx="359" cy="100" r="0.8" fill="#f7ecd2" opacity="0.35"/><circle cx="18" cy="128" r="1.8" fill="#f7ecd2" opacity="0.39"/><circle cx="462" cy="11" r="1.8" fill="#f7ecd2" opacity="0.67"/><circle cx="611" cy="269" r="1.3" fill="#f7ecd2" opacity="0.44"/><circle cx="825" cy="162" r="0.8" fill="#f7ecd2" opacity="0.35"/><circle cx="984" cy="50" r="1.8" fill="#f7ecd2" opacity="0.35"/><circle cx="728" cy="333" r="1.8" fill="#f7ecd2" opacity="0.59"/><circle cx="177" cy="311" r="1.8" fill="#f7ecd2" opacity="0.82"/><circle cx="891" cy="64" r="1.3" fill="#f7ecd2" opacity="0.59"/><circle cx="350" cy="12" r="1.8" fill="#f7ecd2" opacity="0.35"/><circle cx="594" cy="155" r="1.8" fill="#f7ecd2" opacity="0.55"/><circle cx="543" cy="333" r="0.8" fill="#f7ecd2" opacity="0.54"/><circle cx="557" cy="146" r="1.3" fill="#f7ecd2" opacity="0.57"/><circle cx="516" cy="294" r="0.8" fill="#f7ecd2" opacity="0.39"/><circle cx="60" cy="157" r="1.3" fill="#f7ecd2" opacity="0.55"/><circle cx="509" cy="195" r="1.8" fill="#f7ecd2" opacity="0.40"/><circle cx="1023" cy="208" r="1.3" fill="#f7ecd2" opacity="0.69"/><circle cx="282" cy="76" r="1.3" fill="#f7ecd2" opacity="0.67"/><circle cx="326" cy="139" r="0.8" fill="#f7ecd2" opacity="0.49"/><circle cx="75" cy="237" r="0.8" fill="#f7ecd2" opacity="0.60"/><circle cx="1089" cy="110" r="1.8" fill="#f7ecd2" opacity="0.75"/><circle cx="848" cy="178" r="0.8" fill="#f7ecd2" opacity="0.79"/><circle cx="192" cy="301" r="1.3" fill="#f7ecd2" opacity="0.77"/><circle cx="441" cy="259" r="1.3" fill="#f7ecd2" opacity="0.54"/><circle cx="755" cy="192" r="1.8" fill="#f7ecd2" opacity="0.45"/><circle cx="1014" cy="120" r="0.8" fill="#f7ecd2" opacity="0.65"/><circle cx="858" cy="103" r="1.3" fill="#f7ecd2" opacity="0.59"/><circle cx="407" cy="121" r="0.8" fill="#f7ecd2" opacity="0.82"/><circle cx="21" cy="114" r="0.8" fill="#f7ecd2" opacity="0.79"/><circle cx="780" cy="242" r="1.8" fill="#f7ecd2" opacity="0.45"/><circle cx="1124" cy="85" r="0.8" fill="#f7ecd2" opacity="0.75"/><circle cx="1173" cy="303" r="0.8" fill="#f7ecd2" opacity="0.54"/><circle cx="87" cy="16" r="1.3" fill="#f7ecd2" opacity="0.77"/><circle cx="146" cy="204" r="1.8" fill="#f7ecd2" opacity="0.69"/><circle cx="990" cy="247" r="1.3" fill="#f7ecd2" opacity="0.65"/><circle cx="339" cy="185" r="1.8" fill="#f7ecd2" opacity="0.50"/><circle cx="953" cy="238" r="0.8" fill="#f7ecd2" opacity="0.49"/><circle cx="312" cy="146" r="1.8" fill="#f7ecd2" opacity="0.37"/><circle cx="456" cy="249" r="0.8" fill="#f7ecd2" opacity="0.79"/><circle cx="305" cy="47" r="1.3" fill="#f7ecd2" opacity="0.70"/><circle cx="219" cy="160" r="1.3" fill="#f7ecd2" opacity="0.75"/><circle cx="78" cy="268" r="1.3" fill="#f7ecd2" opacity="0.39"/><circle cx="722" cy="231" r="1.8" fill="#f7ecd2" opacity="0.67"/><circle cx="1071" cy="229" r="1.3" fill="#f7ecd2" opacity="0.44"/><circle cx="285" cy="62" r="1.8" fill="#f7ecd2" opacity="0.55"/><circle cx="644" cy="30" r="1.8" fill="#f7ecd2" opacity="0.55"/><circle cx="588" cy="53" r="1.8" fill="#f7ecd2" opacity="0.49"/><circle cx="237" cy="111" r="0.8" fill="#f7ecd2" opacity="0.42"/><circle cx="1151" cy="284" r="1.3" fill="#f7ecd2" opacity="0.69"/><circle cx="810" cy="312" r="0.8" fill="#f7ecd2" opacity="0.55"/><circle cx="54" cy="55" r="1.3" fill="#f7ecd2" opacity="0.55"/><circle cx="980" cy="120" r="42" fill="#f6ecd0" opacity="0.95"/><circle cx="996" cy="112" r="36" fill="url(#sky)" opacity="0.92"/>
<rect x="300" y="430" width="620" height="130" fill="#12141c"/><path d="M 330 560 L 330 490 Q 360 448 390 490 L 390 560 Z" fill="#0c0e14" opacity="0.9"/><path d="M 426 560 L 426 490 Q 456 448 486 490 L 486 560 Z" fill="#0c0e14" opacity="0.9"/><path d="M 522 560 L 522 490 Q 552 448 582 490 L 582 560 Z" fill="#0c0e14" opacity="0.9"/><path d="M 618 560 L 618 490 Q 648 448 678 490 L 678 560 Z" fill="#0c0e14" opacity="0.9"/><path d="M 714 560 L 714 490 Q 744 448 774 490 L 774 560 Z" fill="#0c0e14" opacity="0.9"/><path d="M 810 560 L 810 490 Q 840 448 870 490 L 870 560 Z" fill="#0c0e14" opacity="0.9"/><path d="M 300 430 L 920 430 L 920 410 L 300 410 Z" fill="#d8b45a" opacity="0.6"/><rect x="563.0" y="90" width="74" height="470" fill="#12141c"/><rect x="576.32" y="64" width="47.36" height="26" fill="#12141c"/><circle cx="600" cy="56" r="6" fill="#d8b45a"/><circle cx="600" cy="44" r="4.5" fill="#d8b45a"/><circle cx="600" cy="34" r="3" fill="#d8b45a"/><rect x="566" y="230" width="68" height="60" fill="#d8b45a" opacity="0.35"/>
<rect x="0" y="560" width="1200" height="140" fill="#0c0e14"/>

<rect x="0" y="556" width="1200" height="4" fill="#d8b45a" opacity="0.55"/>
</svg>