<svg xmlns="http://www.w3.org/2000/svg" viewBox="0 0 1200 700" role="img">
<defs>
<linearGradient id="sky" x1="0" y1="0" x2="0" y2="1">
<stop offset="0" stop-color="#0a1026"/><stop offset="0.62" stop-color="#152046"/><stop offset="1" stop-color="#2b3a6b"/>
</linearGradient>
<pattern id="g1" width="120" height="120" patternUnits="userSpaceOnUse"><polygon points="111.6,60.0 80.0,68.3 96.5,96.5 68.3,80.0 60.0,111.6 51.7,80.0 23.5,96.5 40.0,68.3 8.4,60.0 40.0,51.7 23.5,23.5 51.7,40.0 60.0,8.4 68.3,40.0 96.5,23.5 80.0,51.7" fill="none" stroke="#e8d9a8" stroke-width="1.6" opacity="0.1"/><rect x="17.4" y="17.4" width="85.2" height="85.2" fill="none" stroke="#e8d9a8" stroke-width="1.6" opacity="0.06999999999999999" transform="rotate(45 60.0 60.0)"/></pattern>
</defs>
<rect width="1200" height="700" fill="url(#sky)"/>
<rect width="1200" height="700" fill="url(#g1)"/>
<circle cx="1120" cy="40" r="1.8" fill="#f7ecd2" opacity="0.35"/><circle cx="338" cy="337" r="0.8" fill="#f7ecd2" opacity="0.41"/><circle cx="989" cy="177" r="1.8" fill="#f7ecd2" opacity="0.38"/><circle cx="649" cy="236" r="0.8" fill="#f7ecd2" opacity="0.49"/><circle cx="1166" cy="2" r="1.3" fill="#f7ecd2" opacity="0.67"/><circle cx="644" cy="199" r="0.8" fill="#f7ecd2" opacity="0.41"/><circle cx="1075" cy="19" r="1.8" fill="#f7ecd2" opacity="0.60"/><circle cx="275" cy="98" r="1.3" fill="#f7ecd2" opacity="0.35"/><circle cx="812" cy="144" r="1.8" fill="#f7ecd2" opacity="0.63"/><circle cx="550" cy="241" r="1.8" fill="#f7ecd2" opacity="0.35"/><circle cx="761" cy="41" r="1.3" fill="#f7ecd2" opacity="0.36"/><circle cx="701" cy="280" r="0.8" fill="#f7ecd2" opacity="0.65"/><circle cx="58" cy="126" r="1.3" fill="#f7ecd2" opacity="0.43"/><circle cx="56" cy="123" r="1.8" fill="#f7ecd2" opacity="0.73"/><circle cx="47" cy="243" r="1.8" fill="#f7ecd2" opacity="0.56"/><circle cx="727" cy="302" r="0.8" fill="#f7ecd2" opacity="0.39"/><circle cx="104" cy="88" r="0.8" fill="#f7ecd2" opacity="0.37"/><circle cx="362" cy="325" r="0.8" fill="#f7ecd2" opacity="0.35"/><circle cx="133" cy="85" r="1.8" fill="#f7ecd2" opacity="0.40"/><circle cx="353" cy="164" r="1.3" fill="#f7ecd2" opacity="0.77"/><circle cx="950" cy="30" r="1.8" fill="#f7ecd2" opacity="0.35"/><circle cx="268" cy="27" r="1.3" fill="#f7ecd2" opacity="0.71"/><circle cx="1019" cy="247" r="0.8" fill="#f7ecd2" opacity="0.78"/><circle cx="779" cy="6" r="1.8" fill="#f7ecd2" opacity="0.59"/><circle cx="196" cy="12" r="1.3" fill="#f7ecd2" opacity="0.37"/><circle cx="974" cy="49" r="0.8" fill="#f7ecd2" opacity="0.61"/><circle cx="305" cy="109" r="0.8" fill="#f7ecd2" opacity="0.80"/><circle cx="805" cy="28" r="1.8" fill="#f7ecd2" opacity="0.75"/><circle cx="242" cy="314" r="1.3" fill="#f7ecd2" opacity="0.73"/><circle cx="80" cy="111" r="1.8" fill="#f7ecd2" opacity="0.65"/><circle cx="391" cy="291" r="1.3" fill="#f7ecd2" opacity="0.66"/><circle cx="431" cy="230" r="1.3" fill="#f7ecd2" opacity="0.65"/><circle cx="1088" cy="256" r="0.8" fill="#f7ecd2" opacity="0.63"/><circle cx="1186" cy="293" r="0.8" fill="#f7ecd2" opacity="0.83"/><circle cx="77" cy="313" r="0.8" fill="#f7ecd2" opacity="0.36"/><circle cx="857" cy="72" r="1.8" fill="#f7ecd2" opacity="0.39"/><circle cx="334" cy="238" r="1.8" fill="#f7ecd2" opacity="0.77"/><circle cx="692" cy="175" r="0.8" fill="#f7ecd2" opacity="0.35"/><circle cx="563" cy="315" r="1.8" fill="#f7ecd2" opacity="0.80"/><circle cx="883" cy="94" r="1.8" fill="#f7ecd2" opacity="0.37"/><circle cx="380" cy="200" r="1.3" fill="#f7ecd2" opacity="0.35"/><circle cx="998" cy="37" r="0.8" fill="#f7ecd2" opacity="0.61"/><circle cx="649" cy="157" r="1.8" fill="#f7ecd2" opacity="0.78"/><circle cx="509" cy="296" r="1.3" fill="#f7ecd2" opacity="0.49"/><circle cx="26" cy="2" r="1.3" fill="#f7ecd2" opacity="0.37"/><circle cx="904" cy="79" r="1.8" fill="#f7ecd2" opacity="0.51"/><circle cx="335" cy="179" r="1.3" fill="#f7ecd2" opacity="0.50"/><circle cx="935" cy="138" r="1.8" fill="#f7ecd2" opacity="0.65"/><circle cx="472" cy="124" r="1.8" fill="#f7ecd2" opacity="0.63"/><circle cx="410" cy="301" r="0.8" fill="#f7ecd2" opacity="0.45"/><circle cx="821" cy="181" r="0.8" fill="#f7ecd2" opacity="0.36"/><circle cx="961" cy="160" r="1.8" fill="#f7ecd2" opacity="0.45"/><circle cx="518" cy="86" r="1.3" fill="#f7ecd2" opacity="0.83"/><circle cx="716" cy="163" r="0.8" fill="#f7ecd2" opacity="0.43"/><circle cx="907" cy="23" r="0.8" fill="#f7ecd2" opacity="0.46"/><circle cx="587" cy="22" r="0.8" fill="#f7ecd2" opacity="0.49"/><circle cx="164" cy="228" r="1.8" fill="#f7ecd2" opacity="0.77"/><circle cx="622" cy="205" r="1.8" fill="#f7ecd2" opacity="0.45"/><circle cx="593" cy="45" r="1.8" fill="#f7ecd2" opacity="0.70"/><circle cx="1013" cy="204" r="1.8" fill="#f7ecd2" opacity="0.37"/><circle cx="980" cy="120" r="42" fill="#f6ecd0" opacity="0.95"/><circle cx="996" cy="112" r="36" fill="url(#sky)" opacity="0.92"/>
<rect x="300" y="430" width="620" height="130" fill="#12141c"/><path d="M 330 560 L 330 490 Q 360 448 390 490 L 390 560 Z" fill="#0c0e14" opacity="0.9"/><path d="M 426 560 L 426 490 Q 456 448 486 490 L 486 560 Z" fill="#0c0e14" opacity="0.9"/><path d="M 522 560 L 522 490 Q 552 448 582 490 L 582 560 Z" fill="#0c0e14" opacity="0.9"/><path d="M 618 560 L 618 490 Q 648 448 678 490 L 678 560 Z" fill="#0c0e14" opacity="0.9"/><path d="M 714 560 L 714 490 Q 744 448 774 490 L 774 560 Z" fill="#0c0e14" opacity="0.9"/><path d="M 810 560 L 810 490 Q 840 448 870 490 L 870 560 Z" fill="#0c0e14" opacity="0.9"/><path d="M 300 430 L 920 430 L 920 410 L 300 410 Z" fill="#d8b45a" opacity="0.6"/><rect x="563.0" y="90" width="74" height="470" fill="#12141c"/><rect x="576.32" y="64" width="47.36" height="26" fill="#12141c"/><circle cx="600" cy="56" r="6" fill="#d8b45a"/><circle cx="600" cy="44" r="4.5" fill="#d8b45a"/><circle cx="600" cy="34" r="3" fill="#d8b45a"/><rect x="566" y="230" width="68" height="60" fill="#d8b45a" opacity="0.35"/>
<rect x="0" y="560" width="1200" height="140" fill="#0c0e14"/>

<rect x="0" y="556" width="1200" height="4" fill="#d8b45a" opacity="0.55"/>
</svg>