<svg xmlns="http://www.w3.org/2000/svg" viewBox="0 0 1200 700" role="img">
<defs>
<linearGradient id="sky" x1="0" y1="0" x2="0" y2="1">
<stop offset="0" stop-color="#0a1026"/><stop offset="0.62" stop-color="#152046"/><stop offset="1" stop-color="#2b3a6b"/>
</linearGradient>
<pattern id="g1" width="120" height="120" patternUnits="userSpaceOnUse"><polygon points="111.6,60.0 80.0,68.3 96.5,96.5 68.3,80.0 60.0,111.6 51.7,80.0 23.5,96.5 40.0,68.3 8.4,60.0 40.0,51.7 23.5,23.5 51.7,40.0 60.0,8.4 68.3,40.0 96.5,23.5 80.0,51.7" fill="none" stroke="#e8d9a8" stroke-width="1.6" opacity="0.1"/><rect x="17.4" y="17.4" width="85.2" height="85.2" fill="none" stroke="#e8d9a8" stroke-width="1.6" opacity="0.06999999999999999" transform="rotate(45 60.0 60.0)"/></pattern>
</defs>
<rect width="1200" height="700" fill="url(#sky)"/>
<rect width="1200" height="700" fill="url(#g1)"/>
<circle cx="316" cy="276" r="1.3" fill="#f7ecd2" opacity="0.51"/><circle cx="446" cy="285" r="1.8" fill="#f7ecd2" opacity="0.45"/><circle cx="473" cy="161" r="1.3" fill="#f7ecd2" opacity="0.38"/><circle cx="181" cy="8" r="0.8" fill="#f7ecd2" opacity="0.83"/><circle cx="602" cy="198" r="1.8" fill="#f7ecd2" opacity="0.81"/><circle cx="272" cy="227" r="1.3" fill="#f7ecd2" opacity="0.79"/><circle cx="319" cy="43" r="1.8" fill="#f7ecd2" opacity="0.52"/><circle cx="287" cy="130" r="0.8" fill="#f7ecd2" opacity="0.45"/><circle cx="488" cy="300" r="1.8" fill="#f7ecd2" opacity="0.35"/><circle cx="898" cy="149" r="0.8" fill="#f7ecd2" opacity="0.37"/><circle cx="965" cy="245" r="1.3" fill="#f7ecd2" opacity="0.60"/><circle cx="1193" cy="232" r="0.8" fill="#f7ecd2" opacity="0.61"/><circle cx="1174" cy="42" r="1.3" fill="#f7ecd2" opacity="0.43"/><circle cx="1124" cy="251" r="1.3" fill="#f7ecd2" opacity="0.59"/><circle cx="11" cy="147" r="1.8" fill="#f7ecd2" opacity="0.52"/><circle cx="499" cy="34" r="1.8" fill="#f7ecd2" opacity="0.51"/><circle cx="260" cy="164" r="1.3" fill="#f7ecd2" opacity="0.75"/><circle cx="950" cy="193" r="0.8" fill="#f7ecd2" opacity="0.35"/><circle cx="1057" cy="169" r="1.8" fill="#f7ecd2" opacity="0.68"/><circle cx="605" cy="156" r="1.8" fill="#f7ecd2" opacity="0.65"/><circle cx="146" cy="266" r="1.3" fill="#f7ecd2" opacity="0.71"/><circle cx="376" cy="315" r="1.3" fill="#f7ecd2" opacity="0.75"/><circle cx="503" cy="231" r="1.8" fill="#f7ecd2" opacity="0.78"/><circle cx="311" cy="118" r="0.8" fill="#f7ecd2" opacity="0.83"/><circle cx="832" cy="8" r="0.8" fill="#f7ecd2" opacity="0.41"/><circle cx="602" cy="77" r="1.3" fill="#f7ecd2" opacity="0.39"/><circle cx="749" cy="273" r="1.8" fill="#f7ecd2" opacity="0.62"/><circle cx="817" cy="60" r="1.3" fill="#f7ecd2" opacity="0.55"/><circle cx="1118" cy="270" r="1.8" fill="#f7ecd2" opacity="0.45"/><circle cx="428" cy="19" r="0.8" fill="#f7ecd2" opacity="0.67"/><circle cx="595" cy="155" r="0.8" fill="#f7ecd2" opacity="0.60"/><circle cx="923" cy="182" r="1.3" fill="#f7ecd2" opacity="0.71"/><circle cx="1004" cy="32" r="1.3" fill="#f7ecd2" opacity="0.63"/><circle cx="1054" cy="281" r="0.8" fill="#f7ecd2" opacity="0.59"/><circle cx="41" cy="217" r="0.8" fill="#f7ecd2" opacity="0.82"/><circle cx="629" cy="144" r="1.8" fill="#f7ecd2" opacity="0.61"/><circle cx="490" cy="314" r="0.8" fill="#f7ecd2" opacity="0.45"/><circle cx="80" cy="243" r="1.8" fill="#f7ecd2" opacity="0.75"/><circle cx="287" cy="259" r="0.8" fill="#f7ecd2" opacity="0.68"/><circle cx="1135" cy="86" r="0.8" fill="#f7ecd2" opacity="0.45"/><circle cx="776" cy="236" r="1.3" fill="#f7ecd2" opacity="0.71"/><circle cx="1106" cy="325" r="0.8" fill="#f7ecd2" opacity="0.35"/><circle cx="133" cy="141" r="1.3" fill="#f7ecd2" opacity="0.38"/><circle cx="41" cy="68" r="1.3" fill="#f7ecd2" opacity="0.73"/><circle cx="662" cy="338" r="1.3" fill="#f7ecd2" opacity="0.41"/><circle cx="532" cy="107" r="0.8" fill="#f7ecd2" opacity="0.59"/><circle cx="779" cy="3" r="1.8" fill="#f7ecd2" opacity="0.72"/><circle cx="947" cy="170" r="1.3" fill="#f7ecd2" opacity="0.75"/><circle cx="148" cy="280" r="1.8" fill="#f7ecd2" opacity="0.75"/><circle cx="758" cy="209" r="1.3" fill="#f7ecd2" opacity="0.57"/><circle cx="1025" cy="45" r="1.8" fill="#f7ecd2" opacity="0.60"/><circle cx="253" cy="312" r="1.3" fill="#f7ecd2" opacity="0.71"/><circle cx="434" cy="202" r="0.8" fill="#f7ecd2" opacity="0.53"/><circle cx="584" cy="151" r="0.8" fill="#f7ecd2" opacity="0.69"/><circle cx="871" cy="267" r="1.3" fill="#f7ecd2" opacity="0.42"/><circle cx="359" cy="94" r="0.8" fill="#f7ecd2" opacity="0.81"/><circle cx="320" cy="304" r="0.8" fill="#f7ecd2" opacity="0.65"/><circle cx="10" cy="273" r="1.3" fill="#f7ecd2" opacity="0.65"/><circle cx="317" cy="329" r="1.3" fill="#f7ecd2" opacity="0.78"/><circle cx="65" cy="56" r="1.3" fill="#f7ecd2" opacity="0.75"/><circle cx="980" cy="120" r="42" fill="#f6ecd0" opacity="0.95"/><circle cx="996" cy="112" r="36" fill="url(#sky)" opacity="0.92"/>
<rect x="300" y="430" width="620" height="130" fill="#12141c"/><path d="M 330 560 L 330 490 Q 360 448 390 490 L 390 560 Z" fill="#0c0e14" opacity="0.9"/><path d="M 426 560 L 426 490 Q 456 448 486 490 L 486 560 Z" fill="#0c0e14" opacity="0.9"/><path d="M 522 560 L 522 490 Q 552 448 582 490 L 582 560 Z" fill="#0c0e14" opacity="0.9"/><path d="M 618 560 L 618 490 Q 648 448 678 490 L 678 560 Z" fill="#0c0e14" opacity="0.9"/><path d="M 714 560 L 714 490 Q 744 448 774 490 L 774 560 Z" fill="#0c0e14" opacity="0.9"/><path d="M 810 560 L 810 490 Q 840 448 870 490 L 870 560 Z" fill="#0c0e14" opacity="0.9"/><path d="M 300 430 L 920 430 L 920 410 L 300 410 Z" fill="#d8b45a" opacity="0.6"/><rect x="563.0" y="90" width="74" height="470" fill="#12141c"/><rect x="576.32" y="64" width="47.36" height="26" fill="#12141c"/><circle cx="600" cy="56" r="6" fill="#d8b45a"/><circle cx="600" cy="44" r="4.5" fill="#d8b45a"/><circle cx="600" cy="34" r="3" fill="#d8b45a"/><rect x="566" y="230" width="68" height="60" fill="#d8b45a" opacity="0.35"/>
<rect x="0" y="560" width="1200" height="140" fill="#0c0e14"/>

<rect x="0" y="556" width="1200" height="4" fill="#d8b45a" opacity="0.55"/>
</svg>