<svg xmlns="http://www.w3.org/2000/svg" viewBox="0 0 1200 700" role="img">
<defs>
<linearGradient id="sky" x1="0" y1="0" x2="0" y2="1">
<stop offset="0" stop-color="#0a1026"/><stop offset="0.62" stop-color="#152046"/><stop offset="1" stop-color="#2b3a6b"/>
</linearGradient>
<pattern id="g1" width="120" height="120" patternUnits="userSpaceOnUse"><polygon points="111.6,60.0 80.0,68.3 96.5,96.5 68.3,80.0 60.0,111.6 51.7,80.0 23.5,96.5 40.0,68.3 8.4,60.0 40.0,51.7 23.5,23.5 51.7,40.0 60.0,8.4 68.3,40.0 96.5,23.5 80.0,51.7" fill="none" stroke="#e8d9a8" stroke-width="1.6" opacity="0.1"/><rect x="17.4" y="17.4" width="85.2" height="85.2" fill="none" stroke="#e8d9a8" stroke-width="1.6" opacity="0.06999999999999999" transform="rotate(45 60.0 60.0)"/></pattern>
</defs>
<rect width="1200" height="700" fill="url(#sky)"/>
<rect width="1200" height="700" fill="url(#g1)"/>
<circle cx="1089" cy="99" r="0.8" fill="#f7ecd2" opacity="0.46"/><circle cx="475" cy="164" r="0.8" fill="#f7ecd2" opacity="0.35"/><circle cx="190" cy="228" r="1.3" fill="#f7ecd2" opacity="0.55"/><circle cx="1122" cy="279" r="0.8" fill="#f7ecd2" opacity="0.73"/><circle cx="895" cy="101" r="0.8" fill="#f7ecd2" opacity="0.80"/><circle cx="61" cy="146" r="0.8" fill="#f7ecd2" opacity="0.41"/><circle cx="516" cy="30" r="0.8" fill="#f7ecd2" opacity="0.65"/><circle cx="268" cy="221" r="0.8" fill="#f7ecd2" opacity="0.63"/><circle cx="301" cy="283" r="1.8" fill="#f7ecd2" opacity="0.68"/><circle cx="447" cy="108" r="0.8" fill="#f7ecd2" opacity="0.61"/><circle cx="442" cy="12" r="1.3" fill="#f7ecd2" opacity="0.39"/><circle cx="214" cy="143" r="0.8" fill="#f7ecd2" opacity="0.37"/><circle cx="507" cy="105" r="0.8" fill="#f7ecd2" opacity="0.70"/><circle cx="433" cy="250" r="1.8" fill="#f7ecd2" opacity="0.35"/><circle cx="1168" cy="314" r="0.8" fill="#f7ecd2" opacity="0.37"/><circle cx="960" cy="45" r="0.8" fill="#f7ecd2" opacity="0.35"/><circle cx="313" cy="107" r="0.8" fill="#f7ecd2" opacity="0.76"/><circle cx="19" cy="232" r="1.8" fill="#f7ecd2" opacity="0.43"/><circle cx="294" cy="316" r="1.3" fill="#f7ecd2" opacity="0.39"/><circle cx="106" cy="327" r="1.3" fill="#f7ecd2" opacity="0.47"/><circle cx="919" cy="89" r="0.8" fill="#f7ecd2" opacity="0.76"/><circle cx="405" cy="194" r="1.8" fill="#f7ecd2" opacity="0.55"/><circle cx="220" cy="298" r="1.8" fill="#f7ecd2" opacity="0.45"/><circle cx="52" cy="249" r="1.3" fill="#f7ecd2" opacity="0.83"/><circle cx="1125" cy="251" r="1.8" fill="#f7ecd2" opacity="0.60"/><circle cx="391" cy="336" r="1.3" fill="#f7ecd2" opacity="0.61"/><circle cx="946" cy="260" r="0.8" fill="#f7ecd2" opacity="0.45"/><circle cx="798" cy="151" r="1.3" fill="#f7ecd2" opacity="0.83"/><circle cx="931" cy="253" r="1.8" fill="#f7ecd2" opacity="0.78"/><circle cx="1177" cy="118" r="1.8" fill="#f7ecd2" opacity="0.71"/><circle cx="72" cy="262" r="1.3" fill="#f7ecd2" opacity="0.49"/><circle cx="1144" cy="233" r="0.8" fill="#f7ecd2" opacity="0.37"/><circle cx="337" cy="95" r="0.8" fill="#f7ecd2" opacity="0.50"/><circle cx="363" cy="280" r="1.3" fill="#f7ecd2" opacity="0.75"/><circle cx="1198" cy="44" r="0.8" fill="#f7ecd2" opacity="0.47"/><circle cx="1090" cy="155" r="0.8" fill="#f7ecd2" opacity="0.35"/><circle cx="543" cy="257" r="1.8" fill="#f7ecd2" opacity="0.36"/><circle cx="349" cy="82" r="1.8" fill="#f7ecd2" opacity="0.53"/><circle cx="724" cy="206" r="0.8" fill="#f7ecd2" opacity="0.79"/><circle cx="636" cy="257" r="1.8" fill="#f7ecd2" opacity="0.37"/><circle cx="349" cy="259" r="1.8" fill="#f7ecd2" opacity="0.76"/><circle cx="1135" cy="204" r="1.3" fill="#f7ecd2" opacity="0.75"/><circle cx="1050" cy="8" r="1.8" fill="#f7ecd2" opacity="0.35"/><circle cx="982" cy="339" r="1.3" fill="#f7ecd2" opacity="0.83"/><circle cx="955" cy="241" r="1.8" fill="#f7ecd2" opacity="0.40"/><circle cx="321" cy="26" r="1.8" fill="#f7ecd2" opacity="0.81"/><circle cx="976" cy="330" r="1.3" fill="#f7ecd2" opacity="0.65"/><circle cx="928" cy="261" r="1.3" fill="#f7ecd2" opacity="0.43"/><circle cx="1161" cy="63" r="0.8" fill="#f7ecd2" opacity="0.78"/><circle cx="307" cy="168" r="1.3" fill="#f7ecd2" opacity="0.61"/><circle cx="502" cy="152" r="0.8" fill="#f7ecd2" opacity="0.39"/><circle cx="474" cy="23" r="1.8" fill="#f7ecd2" opacity="0.37"/><circle cx="967" cy="65" r="0.8" fill="#f7ecd2" opacity="0.40"/><circle cx="1093" cy="290" r="0.8" fill="#f7ecd2" opacity="0.55"/><circle cx="828" cy="294" r="0.8" fill="#f7ecd2" opacity="0.67"/><circle cx="820" cy="105" r="1.3" fill="#f7ecd2" opacity="0.35"/><circle cx="373" cy="247" r="1.8" fill="#f7ecd2" opacity="0.66"/><circle cx="279" cy="112" r="1.3" fill="#f7ecd2" opacity="0.83"/><circle cx="754" cy="276" r="1.3" fill="#f7ecd2" opacity="0.39"/><circle cx="766" cy="27" r="1.3" fill="#f7ecd2" opacity="0.67"/><circle cx="980" cy="120" r="42" fill="#f6ecd0" opacity="0.95"/><circle cx="996" cy="112" r="36" fill="url(#sky)" opacity="0.92"/>
<rect x="300" y="430" width="620" height="130" fill="#12141c"/><path d="M 330 560 L 330 490 Q 360 448 390 490 L 390 560 Z" fill="#0c0e14" opacity="0.9"/><path d="M 426 560 L 426 490 Q 456 448 486 490 L 486 560 Z" fill="#0c0e14" opacity="0.9"/><path d="M 522 560 L 522 490 Q 552 448 582 490 L 582 560 Z" fill="#0c0e14" opacity="0.9"/><path d="M 618 560 L 618 490 Q 648 448 678 490 L 678 560 Z" fill="#0c0e14" opacity="0.9"/><path d="M 714 560 L 714 490 Q 744 448 774 490 L 774 560 Z" fill="#0c0e14" opacity="0.9"/><path d="M 810 560 L 810 490 Q 840 448 870 490 L 870 560 Z" fill="#0c0e14" opacity="0.9"/><path d="M 300 430 L 920 430 L 920 410 L 300 410 Z" fill="#d8b45a" opacity="0.6"/><rect x="563.0" y="90" width="74" height="470" fill="#12141c"/><rect x="576.32" y="64" width="47.36" height="26" fill="#12141c"/><circle cx="600" cy="56" r="6" fill="#d8b45a"/><circle cx="600" cy="44" r="4.5" fill="#d8b45a"/><circle cx="600" cy="34" r="3" fill="#d8b45a"/><rect x="566" y="230" width="68" height="60" fill="#d8b45a" opacity="0.35"/>
<rect x="0" y="560" width="1200" height="140" fill="#0c0e14"/>

<rect x="0" y="556" width="1200" height="4" fill="#d8b45a" opacity="0.55"/>
</svg>