<svg xmlns="http://www.w3.org/2000/svg" viewBox="0 0 1200 700" role="img">
<defs>
<linearGradient id="sky" x1="0" y1="0" x2="0" y2="1">
<stop offset="0" stop-color="#0a1026"/><stop offset="0.62" stop-color="#152046"/><stop offset="1" stop-color="#2b3a6b"/>
</linearGradient>
<pattern id="g1" width="120" height="120" patternUnits="userSpaceOnUse"><polygon points="111.6,60.0 80.0,68.3 96.5,96.5 68.3,80.0 60.0,111.6 51.7,80.0 23.5,96.5 40.0,68.3 8.4,60.0 40.0,51.7 23.5,23.5 51.7,40.0 60.0,8.4 68.3,40.0 96.5,23.5 80.0,51.7" fill="none" stroke="#e8d9a8" stroke-width="1.6" opacity="0.1"/><rect x="17.4" y="17.4" width="85.2" height="85.2" fill="none" stroke="#e8d9a8" stroke-width="1.6" opacity="0.06999999999999999" transform="rotate(45 60.0 60.0)"/></pattern>
</defs>
<rect width="1200" height="700" fill="url(#sky)"/>
<rect width="1200" height="700" fill="url(#g1)"/>
<circle cx="8" cy="248" r="1.3" fill="#f7ecd2" opacity="0.69"/><circle cx="762" cy="221" r="1.8" fill="#f7ecd2" opacity="0.37"/><circle cx="741" cy="309" r="0.8" fill="#f7ecd2" opacity="0.54"/><circle cx="545" cy="72" r="1.8" fill="#f7ecd2" opacity="0.75"/><circle cx="774" cy="90" r="0.8" fill="#f7ecd2" opacity="0.45"/><circle cx="828" cy="123" r="0.8" fill="#f7ecd2" opacity="0.79"/><circle cx="107" cy="271" r="0.8" fill="#f7ecd2" opacity="0.82"/><circle cx="411" cy="234" r="0.8" fill="#f7ecd2" opacity="0.59"/><circle cx="1140" cy="112" r="1.3" fill="#f7ecd2" opacity="0.65"/><circle cx="494" cy="205" r="0.8" fill="#f7ecd2" opacity="0.55"/><circle cx="273" cy="213" r="0.8" fill="#f7ecd2" opacity="0.84"/><circle cx="1077" cy="36" r="0.8" fill="#f7ecd2" opacity="0.57"/><circle cx="1106" cy="314" r="1.3" fill="#f7ecd2" opacity="0.69"/><circle cx="960" cy="267" r="0.8" fill="#f7ecd2" opacity="0.55"/><circle cx="39" cy="335" r="1.8" fill="#f7ecd2" opacity="0.50"/><circle cx="143" cy="218" r="1.3" fill="#f7ecd2" opacity="0.59"/><circle cx="672" cy="16" r="1.3" fill="#f7ecd2" opacity="0.37"/><circle cx="1026" cy="169" r="1.3" fill="#f7ecd2" opacity="0.79"/><circle cx="605" cy="97" r="0.8" fill="#f7ecd2" opacity="0.70"/><circle cx="9" cy="40" r="1.3" fill="#f7ecd2" opacity="0.45"/><circle cx="1038" cy="38" r="1.8" fill="#f7ecd2" opacity="0.79"/><circle cx="692" cy="251" r="1.3" fill="#f7ecd2" opacity="0.77"/><circle cx="771" cy="39" r="0.8" fill="#f7ecd2" opacity="0.54"/><circle cx="675" cy="182" r="1.8" fill="#f7ecd2" opacity="0.35"/><circle cx="1004" cy="240" r="1.8" fill="#f7ecd2" opacity="0.45"/><circle cx="1158" cy="313" r="1.3" fill="#f7ecd2" opacity="0.39"/><circle cx="537" cy="161" r="1.8" fill="#f7ecd2" opacity="0.42"/><circle cx="941" cy="164" r="1.3" fill="#f7ecd2" opacity="0.59"/><circle cx="570" cy="282" r="0.8" fill="#f7ecd2" opacity="0.75"/><circle cx="24" cy="75" r="0.8" fill="#f7ecd2" opacity="0.35"/><circle cx="1103" cy="263" r="1.3" fill="#f7ecd2" opacity="0.74"/><circle cx="807" cy="326" r="1.8" fill="#f7ecd2" opacity="0.67"/><circle cx="936" cy="304" r="1.3" fill="#f7ecd2" opacity="0.79"/><circle cx="890" cy="297" r="1.8" fill="#f7ecd2" opacity="0.65"/><circle cx="69" cy="65" r="1.8" fill="#f7ecd2" opacity="0.70"/><circle cx="273" cy="328" r="1.3" fill="#f7ecd2" opacity="0.79"/><circle cx="902" cy="166" r="0.8" fill="#f7ecd2" opacity="0.67"/><circle cx="156" cy="219" r="0.8" fill="#f7ecd2" opacity="0.49"/><circle cx="1035" cy="327" r="0.8" fill="#f7ecd2" opacity="0.80"/><circle cx="539" cy="310" r="0.8" fill="#f7ecd2" opacity="0.75"/><circle cx="468" cy="208" r="1.3" fill="#f7ecd2" opacity="0.79"/><circle cx="222" cy="121" r="1.3" fill="#f7ecd2" opacity="0.47"/><circle cx="401" cy="289" r="0.8" fill="#f7ecd2" opacity="0.74"/><circle cx="405" cy="132" r="0.8" fill="#f7ecd2" opacity="0.45"/><circle cx="834" cy="230" r="1.8" fill="#f7ecd2" opacity="0.55"/><circle cx="1088" cy="3" r="1.8" fill="#f7ecd2" opacity="0.49"/><circle cx="567" cy="231" r="0.8" fill="#f7ecd2" opacity="0.62"/><circle cx="1071" cy="274" r="1.3" fill="#f7ecd2" opacity="0.39"/><circle cx="800" cy="92" r="1.3" fill="#f7ecd2" opacity="0.35"/><circle cx="354" cy="265" r="1.3" fill="#f7ecd2" opacity="0.45"/><circle cx="333" cy="13" r="1.3" fill="#f7ecd2" opacity="0.64"/><circle cx="137" cy="116" r="1.3" fill="#f7ecd2" opacity="0.77"/><circle cx="366" cy="134" r="1.8" fill="#f7ecd2" opacity="0.79"/><circle cx="420" cy="167" r="1.8" fill="#f7ecd2" opacity="0.75"/><circle cx="899" cy="115" r="0.8" fill="#f7ecd2" opacity="0.70"/><circle cx="3" cy="278" r="1.8" fill="#f7ecd2" opacity="0.69"/><circle cx="732" cy="156" r="0.8" fill="#f7ecd2" opacity="0.77"/><circle cx="86" cy="249" r="1.8" fill="#f7ecd2" opacity="0.49"/><circle cx="1065" cy="57" r="0.8" fill="#f7ecd2" opacity="0.40"/><circle cx="669" cy="80" r="1.8" fill="#f7ecd2" opacity="0.55"/><circle cx="980" cy="120" r="42" fill="#f6ecd0" opacity="0.95"/><circle cx="996" cy="112" r="36" fill="url(#sky)" opacity="0.92"/>
<rect x="300" y="430" width="620" height="130" fill="#12141c"/><path d="M 330 560 L 330 490 Q 360 448 390 490 L 390 560 Z" fill="#0c0e14" opacity="0.9"/><path d="M 426 560 L 426 490 Q 456 448 486 490 L 486 560 Z" fill="#0c0e14" opacity="0.9"/><path d="M 522 560 L 522 490 Q 552 448 582 490 L 582 560 Z" fill="#0c0e14" opacity="0.9"/><path d="M 618 560 L 618 490 Q 648 448 678 490 L 678 560 Z" fill="#0c0e14" opacity="0.9"/><path d="M 714 560 L 714 490 Q 744 448 774 490 L 774 560 Z" fill="#0c0e14" opacity="0.9"/><path d="M 810 560 L 810 490 Q 840 448 870 490 L 870 560 Z" fill="#0c0e14" opacity="0.9"/><path d="M 300 430 L 920 430 L 920 410 L 300 410 Z" fill="#d8b45a" opacity="0.6"/><rect x="563.0" y="90" width="74" height="470" fill="#12141c"/><rect x="576.32" y="64" width="47.36" height="26" fill="#12141c"/><circle cx="600" cy="56" r="6" fill="#d8b45a"/><circle cx="600" cy="44" r="4.5" fill="#d8b45a"/><circle cx="600" cy="34" r="3" fill="#d8b45a"/><rect x="566" y="230" width="68" height="60" fill="#d8b45a" opacity="0.35"/>
<rect x="0" y="560" width="1200" height="140" fill="#0c0e14"/>

<rect x="0" y="556" width="1200" height="4" fill="#d8b45a" opacity="0.55"/>
</svg>