<svg xmlns="http://www.w3.org/2000/svg" viewBox="0 0 1200 700" role="img">
<defs>
<linearGradient id="sky" x1="0" y1="0" x2="0" y2="1">
<stop offset="0" stop-color="#0a1026"/><stop offset="0.62" stop-color="#152046"/><stop offset="1" stop-color="#2b3a6b"/>
</linearGradient>
<pattern id="g1" width="120" height="120" patternUnits="userSpaceOnUse"><polygon points="111.6,60.0 80.0,68.3 96.5,96.5 68.3,80.0 60.0,111.6 51.7,80.0 23.5,96.5 40.0,68.3 8.4,60.0 40.0,51.7 23.5,23.5 51.7,40.0 60.0,8.4 68.3,40.0 96.5,23.5 80.0,51.7" fill="none" stroke="#e8d9a8" stroke-width="1.6" opacity="0.1"/><rect x="17.4" y="17.4" width="85.2" height="85.2" fill="none" stroke="#e8d9a8" stroke-width="1.6" opacity="0.06999999999999999" transform="rotate(45 60.0 60.0)"/></pattern>
</defs>
<rect width="1200" height="700" fill="url(#sky)"/>
<rect width="1200" height="700" fill="url(#g1)"/>
<circle cx="300" cy="120" r="0.8" fill="#f7ecd2" opacity="0.35"/><circle cx="478" cy="257" r="0.8" fill="#f7ecd2" opacity="0.81"/><circle cx="409" cy="217" r="1.8" fill="#f7ecd2" opacity="0.38"/><circle cx="309" cy="236" r="1.8" fill="#f7ecd2" opacity="0.59"/><circle cx="346" cy="82" r="1.8" fill="#f7ecd2" opacity="0.57"/><circle cx="784" cy="119" r="0.8" fill="#f7ecd2" opacity="0.81"/><circle cx="495" cy="59" r="1.8" fill="#f7ecd2" opacity="0.40"/><circle cx="1135" cy="238" r="1.8" fill="#f7ecd2" opacity="0.65"/><circle cx="1192" cy="24" r="1.3" fill="#f7ecd2" opacity="0.43"/><circle cx="690" cy="161" r="1.8" fill="#f7ecd2" opacity="0.75"/><circle cx="181" cy="81" r="1.3" fill="#f7ecd2" opacity="0.46"/><circle cx="361" cy="280" r="1.8" fill="#f7ecd2" opacity="0.65"/><circle cx="438" cy="6" r="0.8" fill="#f7ecd2" opacity="0.63"/><circle cx="196" cy="43" r="1.8" fill="#f7ecd2" opacity="0.63"/><circle cx="667" cy="83" r="0.8" fill="#f7ecd2" opacity="0.46"/><circle cx="387" cy="302" r="1.8" fill="#f7ecd2" opacity="0.59"/><circle cx="484" cy="308" r="0.8" fill="#f7ecd2" opacity="0.57"/><circle cx="502" cy="245" r="0.8" fill="#f7ecd2" opacity="0.75"/><circle cx="753" cy="265" r="1.3" fill="#f7ecd2" opacity="0.80"/><circle cx="13" cy="164" r="0.8" fill="#f7ecd2" opacity="0.67"/><circle cx="130" cy="110" r="0.8" fill="#f7ecd2" opacity="0.35"/><circle cx="408" cy="287" r="1.8" fill="#f7ecd2" opacity="0.81"/><circle cx="439" cy="287" r="0.8" fill="#f7ecd2" opacity="0.78"/><circle cx="439" cy="6" r="1.3" fill="#f7ecd2" opacity="0.69"/><circle cx="576" cy="232" r="1.3" fill="#f7ecd2" opacity="0.67"/><circle cx="1114" cy="309" r="1.3" fill="#f7ecd2" opacity="0.61"/><circle cx="925" cy="289" r="1.8" fill="#f7ecd2" opacity="0.60"/><circle cx="465" cy="28" r="1.3" fill="#f7ecd2" opacity="0.55"/><circle cx="622" cy="194" r="0.8" fill="#f7ecd2" opacity="0.53"/><circle cx="220" cy="31" r="1.8" fill="#f7ecd2" opacity="0.55"/><circle cx="1011" cy="131" r="1.8" fill="#f7ecd2" opacity="0.76"/><circle cx="91" cy="230" r="0.8" fill="#f7ecd2" opacity="0.65"/><circle cx="268" cy="336" r="1.3" fill="#f7ecd2" opacity="0.83"/><circle cx="126" cy="73" r="1.3" fill="#f7ecd2" opacity="0.83"/><circle cx="697" cy="153" r="1.3" fill="#f7ecd2" opacity="0.76"/><circle cx="517" cy="72" r="1.3" fill="#f7ecd2" opacity="0.59"/><circle cx="714" cy="118" r="1.3" fill="#f7ecd2" opacity="0.37"/><circle cx="832" cy="95" r="0.8" fill="#f7ecd2" opacity="0.75"/><circle cx="1183" cy="155" r="0.8" fill="#f7ecd2" opacity="0.50"/><circle cx="543" cy="94" r="1.3" fill="#f7ecd2" opacity="0.77"/><circle cx="760" cy="80" r="0.8" fill="#f7ecd2" opacity="0.35"/><circle cx="1138" cy="297" r="1.3" fill="#f7ecd2" opacity="0.71"/><circle cx="69" cy="197" r="1.8" fill="#f7ecd2" opacity="0.78"/><circle cx="169" cy="296" r="0.8" fill="#f7ecd2" opacity="0.59"/><circle cx="406" cy="222" r="1.3" fill="#f7ecd2" opacity="0.67"/><circle cx="1044" cy="339" r="0.8" fill="#f7ecd2" opacity="0.51"/><circle cx="955" cy="19" r="1.8" fill="#f7ecd2" opacity="0.80"/><circle cx="595" cy="138" r="1.3" fill="#f7ecd2" opacity="0.45"/><circle cx="852" cy="4" r="1.3" fill="#f7ecd2" opacity="0.43"/><circle cx="550" cy="221" r="0.8" fill="#f7ecd2" opacity="0.35"/><circle cx="241" cy="221" r="0.8" fill="#f7ecd2" opacity="0.46"/><circle cx="621" cy="160" r="1.3" fill="#f7ecd2" opacity="0.45"/><circle cx="898" cy="306" r="1.3" fill="#f7ecd2" opacity="0.73"/><circle cx="856" cy="83" r="0.8" fill="#f7ecd2" opacity="0.83"/><circle cx="327" cy="63" r="0.8" fill="#f7ecd2" opacity="0.36"/><circle cx="247" cy="22" r="1.8" fill="#f7ecd2" opacity="0.69"/><circle cx="544" cy="108" r="1.3" fill="#f7ecd2" opacity="0.37"/><circle cx="762" cy="125" r="1.8" fill="#f7ecd2" opacity="0.35"/><circle cx="13" cy="85" r="1.8" fill="#f7ecd2" opacity="0.40"/><circle cx="673" cy="204" r="1.3" fill="#f7ecd2" opacity="0.77"/><circle cx="980" cy="120" r="42" fill="#f6ecd0" opacity="0.95"/><circle cx="996" cy="112" r="36" fill="url(#sky)" opacity="0.92"/>
<rect x="300" y="430" width="620" height="130" fill="#12141c"/><path d="M 330 560 L 330 490 Q 360 448 390 490 L 390 560 Z" fill="#0c0e14" opacity="0.9"/><path d="M 426 560 L 426 490 Q 456 448 486 490 L 486 560 Z" fill="#0c0e14" opacity="0.9"/><path d="M 522 560 L 522 490 Q 552 448 582 490 L 582 560 Z" fill="#0c0e14" opacity="0.9"/><path d="M 618 560 L 618 490 Q 648 448 678 490 L 678 560 Z" fill="#0c0e14" opacity="0.9"/><path d="M 714 560 L 714 490 Q 744 448 774 490 L 774 560 Z" fill="#0c0e14" opacity="0.9"/><path d="M 810 560 L 810 490 Q 840 448 870 490 L 870 560 Z" fill="#0c0e14" opacity="0.9"/><path d="M 300 430 L 920 430 L 920 410 L 300 410 Z" fill="#d8b45a" opacity="0.6"/><rect x="563.0" y="90" width="74" height="470" fill="#12141c"/><rect x="576.32" y="64" width="47.36" height="26" fill="#12141c"/><circle cx="600" cy="56" r="6" fill="#d8b45a"/><circle cx="600" cy="44" r="4.5" fill="#d8b45a"/><circle cx="600" cy="34" r="3" fill="#d8b45a"/><rect x="566" y="230" width="68" height="60" fill="#d8b45a" opacity="0.35"/>
<rect x="0" y="560" width="1200" height="140" fill="#0c0e14"/>

<rect x="0" y="556" width="1200" height="4" fill="#d8b45a" opacity="0.55"/>
</svg>