<svg xmlns="http://www.w3.org/2000/svg" viewBox="0 0 1200 700" role="img">
<defs>
<linearGradient id="sky" x1="0" y1="0" x2="0" y2="1">
<stop offset="0" stop-color="#0a1026"/><stop offset="0.62" stop-color="#152046"/><stop offset="1" stop-color="#2b3a6b"/>
</linearGradient>
<pattern id="g1" width="120" height="120" patternUnits="userSpaceOnUse"><polygon points="111.6,60.0 80.0,68.3 96.5,96.5 68.3,80.0 60.0,111.6 51.7,80.0 23.5,96.5 40.0,68.3 8.4,60.0 40.0,51.7 23.5,23.5 51.7,40.0 60.0,8.4 68.3,40.0 96.5,23.5 80.0,51.7" fill="none" stroke="#e8d9a8" stroke-width="1.6" opacity="0.1"/><rect x="17.4" y="17.4" width="85.2" height="85.2" fill="none" stroke="#e8d9a8" stroke-width="1.6" opacity="0.06999999999999999" transform="rotate(45 60.0 60.0)"/></pattern>
</defs>
<rect width="1200" height="700" fill="url(#sky)"/>
<rect width="1200" height="700" fill="url(#g1)"/>
<circle cx="360" cy="280" r="1.3" fill="#f7ecd2" opacity="0.35"/><circle cx="58" cy="157" r="1.8" fill="#f7ecd2" opacity="0.41"/><circle cx="949" cy="297" r="1.3" fill="#f7ecd2" opacity="0.38"/><circle cx="129" cy="96" r="0.8" fill="#f7ecd2" opacity="0.69"/><circle cx="406" cy="242" r="0.8" fill="#f7ecd2" opacity="0.37"/><circle cx="364" cy="19" r="1.8" fill="#f7ecd2" opacity="0.51"/><circle cx="1035" cy="139" r="1.3" fill="#f7ecd2" opacity="0.50"/><circle cx="955" cy="98" r="0.8" fill="#f7ecd2" opacity="0.75"/><circle cx="52" cy="44" r="0.8" fill="#f7ecd2" opacity="0.73"/><circle cx="270" cy="61" r="1.3" fill="#f7ecd2" opacity="0.55"/><circle cx="721" cy="161" r="0.8" fill="#f7ecd2" opacity="0.66"/><circle cx="181" cy="140" r="0.8" fill="#f7ecd2" opacity="0.75"/><circle cx="498" cy="166" r="1.3" fill="#f7ecd2" opacity="0.53"/><circle cx="976" cy="83" r="0.8" fill="#f7ecd2" opacity="0.43"/><circle cx="7" cy="23" r="0.8" fill="#f7ecd2" opacity="0.46"/><circle cx="207" cy="162" r="0.8" fill="#f7ecd2" opacity="0.69"/><circle cx="544" cy="128" r="0.8" fill="#f7ecd2" opacity="0.67"/><circle cx="82" cy="145" r="1.8" fill="#f7ecd2" opacity="0.75"/><circle cx="93" cy="205" r="1.3" fill="#f7ecd2" opacity="0.50"/><circle cx="1033" cy="164" r="0.8" fill="#f7ecd2" opacity="0.47"/><circle cx="190" cy="270" r="1.3" fill="#f7ecd2" opacity="0.35"/><circle cx="1188" cy="327" r="0.8" fill="#f7ecd2" opacity="0.61"/><circle cx="979" cy="27" r="1.3" fill="#f7ecd2" opacity="0.68"/><circle cx="259" cy="206" r="0.8" fill="#f7ecd2" opacity="0.39"/><circle cx="636" cy="52" r="1.3" fill="#f7ecd2" opacity="0.57"/><circle cx="694" cy="209" r="0.8" fill="#f7ecd2" opacity="0.81"/><circle cx="265" cy="229" r="1.8" fill="#f7ecd2" opacity="0.70"/><circle cx="285" cy="228" r="0.8" fill="#f7ecd2" opacity="0.65"/><circle cx="682" cy="14" r="0.8" fill="#f7ecd2" opacity="0.83"/><circle cx="1000" cy="71" r="0.8" fill="#f7ecd2" opacity="0.35"/><circle cx="351" cy="71" r="1.8" fill="#f7ecd2" opacity="0.56"/><circle cx="1111" cy="230" r="0.8" fill="#f7ecd2" opacity="0.65"/><circle cx="328" cy="156" r="1.3" fill="#f7ecd2" opacity="0.53"/><circle cx="906" cy="113" r="1.8" fill="#f7ecd2" opacity="0.63"/><circle cx="37" cy="93" r="1.3" fill="#f7ecd2" opacity="0.76"/><circle cx="337" cy="272" r="0.8" fill="#f7ecd2" opacity="0.49"/><circle cx="774" cy="278" r="1.8" fill="#f7ecd2" opacity="0.57"/><circle cx="412" cy="335" r="0.8" fill="#f7ecd2" opacity="0.55"/><circle cx="523" cy="95" r="0.8" fill="#f7ecd2" opacity="0.70"/><circle cx="363" cy="294" r="0.8" fill="#f7ecd2" opacity="0.57"/><circle cx="820" cy="240" r="1.3" fill="#f7ecd2" opacity="0.35"/><circle cx="718" cy="197" r="0.8" fill="#f7ecd2" opacity="0.81"/><circle cx="609" cy="277" r="1.3" fill="#f7ecd2" opacity="0.78"/><circle cx="1189" cy="296" r="0.8" fill="#f7ecd2" opacity="0.79"/><circle cx="466" cy="42" r="1.3" fill="#f7ecd2" opacity="0.57"/><circle cx="624" cy="239" r="1.8" fill="#f7ecd2" opacity="0.71"/><circle cx="295" cy="299" r="0.8" fill="#f7ecd2" opacity="0.40"/><circle cx="415" cy="338" r="0.8" fill="#f7ecd2" opacity="0.55"/><circle cx="912" cy="164" r="1.8" fill="#f7ecd2" opacity="0.53"/><circle cx="130" cy="121" r="1.8" fill="#f7ecd2" opacity="0.65"/><circle cx="781" cy="301" r="1.8" fill="#f7ecd2" opacity="0.66"/><circle cx="441" cy="20" r="1.8" fill="#f7ecd2" opacity="0.55"/><circle cx="958" cy="126" r="1.3" fill="#f7ecd2" opacity="0.43"/><circle cx="436" cy="323" r="0.8" fill="#f7ecd2" opacity="0.63"/><circle cx="867" cy="143" r="1.8" fill="#f7ecd2" opacity="0.66"/><circle cx="67" cy="222" r="1.3" fill="#f7ecd2" opacity="0.59"/><circle cx="604" cy="268" r="1.8" fill="#f7ecd2" opacity="0.57"/><circle cx="342" cy="25" r="1.3" fill="#f7ecd2" opacity="0.35"/><circle cx="553" cy="165" r="1.3" fill="#f7ecd2" opacity="0.80"/><circle cx="493" cy="64" r="1.8" fill="#f7ecd2" opacity="0.37"/><circle cx="980" cy="120" r="42" fill="#f6ecd0" opacity="0.95"/><circle cx="996" cy="112" r="36" fill="url(#sky)" opacity="0.92"/>
<rect x="300" y="430" width="620" height="130" fill="#12141c"/><path d="M 330 560 L 330 490 Q 360 448 390 490 L 390 560 Z" fill="#0c0e14" opacity="0.9"/><path d="M 426 560 L 426 490 Q 456 448 486 490 L 486 560 Z" fill="#0c0e14" opacity="0.9"/><path d="M 522 560 L 522 490 Q 552 448 582 490 L 582 560 Z" fill="#0c0e14" opacity="0.9"/><path d="M 618 560 L 618 490 Q 648 448 678 490 L 678 560 Z" fill="#0c0e14" opacity="0.9"/><path d="M 714 560 L 714 490 Q 744 448 774 490 L 774 560 Z" fill="#0c0e14" opacity="0.9"/><path d="M 810 560 L 810 490 Q 840 448 870 490 L 870 560 Z" fill="#0c0e14" opacity="0.9"/><path d="M 300 430 L 920 430 L 920 410 L 300 410 Z" fill="#d8b45a" opacity="0.6"/><rect x="563.0" y="90" width="74" height="470" fill="#12141c"/><rect x="576.32" y="64" width="47.36" height="26" fill="#12141c"/><circle cx="600" cy="56" r="6" fill="#d8b45a"/><circle cx="600" cy="44" r="4.5" fill="#d8b45a"/><circle cx="600" cy="34" r="3" fill="#d8b45a"/><rect x="566" y="230" width="68" height="60" fill="#d8b45a" opacity="0.35"/>
<rect x="0" y="560" width="1200" height="140" fill="#0c0e14"/>

<rect x="0" y="556" width="1200" height="4" fill="#d8b45a" opacity="0.55"/>
</svg>