<svg xmlns="http://www.w3.org/2000/svg" viewBox="0 0 1200 700" role="img">
<defs>
<linearGradient id="sky" x1="0" y1="0" x2="0" y2="1">
<stop offset="0" stop-color="#0a1026"/><stop offset="0.62" stop-color="#152046"/><stop offset="1" stop-color="#2b3a6b"/>
</linearGradient>
<pattern id="g1" width="120" height="120" patternUnits="userSpaceOnUse"><polygon points="111.6,60.0 80.0,68.3 96.5,96.5 68.3,80.0 60.0,111.6 51.7,80.0 23.5,96.5 40.0,68.3 8.4,60.0 40.0,51.7 23.5,23.5 51.7,40.0 60.0,8.4 68.3,40.0 96.5,23.5 80.0,51.7" fill="none" stroke="#e8d9a8" stroke-width="1.6" opacity="0.1"/><rect x="17.4" y="17.4" width="85.2" height="85.2" fill="none" stroke="#e8d9a8" stroke-width="1.6" opacity="0.06999999999999999" transform="rotate(45 60.0 60.0)"/></pattern>
</defs>
<rect width="1200" height="700" fill="url(#sky)"/>
<rect width="1200" height="700" fill="url(#g1)"/>
<circle cx="551" cy="81" r="1.8" fill="#f7ecd2" opacity="0.66"/><circle cx="801" cy="70" r="1.3" fill="#f7ecd2" opacity="0.55"/><circle cx="1188" cy="226" r="1.3" fill="#f7ecd2" opacity="0.73"/><circle cx="776" cy="93" r="1.8" fill="#f7ecd2" opacity="0.53"/><circle cx="837" cy="3" r="0.8" fill="#f7ecd2" opacity="0.46"/><circle cx="627" cy="12" r="0.8" fill="#f7ecd2" opacity="0.59"/><circle cx="1034" cy="108" r="1.8" fill="#f7ecd2" opacity="0.57"/><circle cx="882" cy="215" r="1.8" fill="#f7ecd2" opacity="0.65"/><circle cx="723" cy="105" r="0.8" fill="#f7ecd2" opacity="0.50"/><circle cx="53" cy="134" r="1.3" fill="#f7ecd2" opacity="0.37"/><circle cx="480" cy="170" r="1.8" fill="#f7ecd2" opacity="0.35"/><circle cx="588" cy="177" r="0.8" fill="#f7ecd2" opacity="0.61"/><circle cx="209" cy="47" r="1.3" fill="#f7ecd2" opacity="0.58"/><circle cx="279" cy="236" r="1.8" fill="#f7ecd2" opacity="0.79"/><circle cx="726" cy="212" r="1.8" fill="#f7ecd2" opacity="0.47"/><circle cx="1094" cy="119" r="1.3" fill="#f7ecd2" opacity="0.71"/><circle cx="495" cy="309" r="0.8" fill="#f7ecd2" opacity="0.40"/><circle cx="105" cy="178" r="1.3" fill="#f7ecd2" opacity="0.75"/><circle cx="572" cy="94" r="0.8" fill="#f7ecd2" opacity="0.53"/><circle cx="0" cy="101" r="1.8" fill="#f7ecd2" opacity="0.35"/><circle cx="381" cy="71" r="1.8" fill="#f7ecd2" opacity="0.36"/><circle cx="731" cy="100" r="0.8" fill="#f7ecd2" opacity="0.35"/><circle cx="18" cy="156" r="0.8" fill="#f7ecd2" opacity="0.43"/><circle cx="906" cy="203" r="1.8" fill="#f7ecd2" opacity="0.53"/><circle cx="1067" cy="153" r="1.8" fill="#f7ecd2" opacity="0.36"/><circle cx="957" cy="202" r="1.3" fill="#f7ecd2" opacity="0.49"/><circle cx="264" cy="198" r="0.8" fill="#f7ecd2" opacity="0.57"/><circle cx="212" cy="5" r="1.3" fill="#f7ecd2" opacity="0.45"/><circle cx="153" cy="275" r="1.8" fill="#f7ecd2" opacity="0.60"/><circle cx="783" cy="144" r="0.8" fill="#f7ecd2" opacity="0.37"/><circle cx="110" cy="80" r="1.3" fill="#f7ecd2" opacity="0.35"/><circle cx="318" cy="127" r="1.3" fill="#f7ecd2" opacity="0.71"/><circle cx="39" cy="37" r="1.3" fill="#f7ecd2" opacity="0.78"/><circle cx="209" cy="266" r="1.3" fill="#f7ecd2" opacity="0.79"/><circle cx="756" cy="282" r="0.8" fill="#f7ecd2" opacity="0.77"/><circle cx="24" cy="89" r="1.8" fill="#f7ecd2" opacity="0.71"/><circle cx="725" cy="119" r="1.3" fill="#f7ecd2" opacity="0.60"/><circle cx="435" cy="28" r="1.3" fill="#f7ecd2" opacity="0.65"/><circle cx="1002" cy="324" r="0.8" fill="#f7ecd2" opacity="0.83"/><circle cx="530" cy="31" r="0.8" fill="#f7ecd2" opacity="0.65"/><circle cx="1011" cy="41" r="1.8" fill="#f7ecd2" opacity="0.36"/><circle cx="261" cy="310" r="1.3" fill="#f7ecd2" opacity="0.45"/><circle cx="848" cy="206" r="1.3" fill="#f7ecd2" opacity="0.73"/><circle cx="636" cy="153" r="0.8" fill="#f7ecd2" opacity="0.43"/><circle cx="897" cy="143" r="1.8" fill="#f7ecd2" opacity="0.56"/><circle cx="887" cy="232" r="0.8" fill="#f7ecd2" opacity="0.69"/><circle cx="294" cy="268" r="1.3" fill="#f7ecd2" opacity="0.77"/><circle cx="342" cy="115" r="1.3" fill="#f7ecd2" opacity="0.65"/><circle cx="383" cy="85" r="0.8" fill="#f7ecd2" opacity="0.40"/><circle cx="1113" cy="334" r="1.3" fill="#f7ecd2" opacity="0.77"/><circle cx="540" cy="310" r="1.3" fill="#f7ecd2" opacity="0.35"/><circle cx="848" cy="57" r="1.8" fill="#f7ecd2" opacity="0.71"/><circle cx="669" cy="7" r="1.3" fill="#f7ecd2" opacity="0.68"/><circle cx="939" cy="276" r="0.8" fill="#f7ecd2" opacity="0.49"/><circle cx="386" cy="192" r="1.8" fill="#f7ecd2" opacity="0.47"/><circle cx="954" cy="179" r="1.8" fill="#f7ecd2" opacity="0.51"/><circle cx="555" cy="109" r="1.3" fill="#f7ecd2" opacity="0.80"/><circle cx="365" cy="58" r="0.8" fill="#f7ecd2" opacity="0.55"/><circle cx="1032" cy="54" r="0.8" fill="#f7ecd2" opacity="0.63"/><circle cx="660" cy="141" r="0.8" fill="#f7ecd2" opacity="0.45"/><circle cx="980" cy="120" r="42" fill="#f6ecd0" opacity="0.95"/><circle cx="996" cy="112" r="36" fill="url(#sky)" opacity="0.92"/>
<rect x="300" y="430" width="620" height="130" fill="#12141c"/><path d="M 330 560 L 330 490 Q 360 448 390 490 L 390 560 Z" fill="#0c0e14" opacity="0.9"/><path d="M 426 560 L 426 490 Q 456 448 486 490 L 486 560 Z" fill="#0c0e14" opacity="0.9"/><path d="M 522 560 L 522 490 Q 552 448 582 490 L 582 560 Z" fill="#0c0e14" opacity="0.9"/><path d="M 618 560 L 618 490 Q 648 448 678 490 L 678 560 Z" fill="#0c0e14" opacity="0.9"/><path d="M 714 560 L 714 490 Q 744 448 774 490 L 774 560 Z" fill="#0c0e14" opacity="0.9"/><path d="M 810 560 L 810 490 Q 840 448 870 490 L 870 560 Z" fill="#0c0e14" opacity="0.9"/><path d="M 300 430 L 920 430 L 920 410 L 300 410 Z" fill="#d8b45a" opacity="0.6"/><rect x="563.0" y="90" width="74" height="470" fill="#12141c"/><rect x="576.32" y="64" width="47.36" height="26" fill="#12141c"/><circle cx="600" cy="56" r="6" fill="#d8b45a"/><circle cx="600" cy="44" r="4.5" fill="#d8b45a"/><circle cx="600" cy="34" r="3" fill="#d8b45a"/><rect x="566" y="230" width="68" height="60" fill="#d8b45a" opacity="0.35"/>
<rect x="0" y="560" width="1200" height="140" fill="#0c0e14"/>

<rect x="0" y="556" width="1200" height="4" fill="#d8b45a" opacity="0.55"/>
</svg>