<svg xmlns="http://www.w3.org/2000/svg" viewBox="0 0 1200 700" role="img">
<defs>
<linearGradient id="sky" x1="0" y1="0" x2="0" y2="1">
<stop offset="0" stop-color="#2b2340"/><stop offset="0.62" stop-color="#8a5a6a"/><stop offset="1" stop-color="#f2c98f"/>
</linearGradient>
<pattern id="g1" width="120" height="120" patternUnits="userSpaceOnUse"><polygon points="111.6,60.0 80.0,68.3 96.5,96.5 68.3,80.0 60.0,111.6 51.7,80.0 23.5,96.5 40.0,68.3 8.4,60.0 40.0,51.7 23.5,23.5 51.7,40.0 60.0,8.4 68.3,40.0 96.5,23.5 80.0,51.7" fill="none" stroke="#e8d9a8" stroke-width="1.6" opacity="0.1"/><rect x="17.4" y="17.4" width="85.2" height="85.2" fill="none" stroke="#e8d9a8" stroke-width="1.6" opacity="0.06999999999999999" transform="rotate(45 60.0 60.0)"/></pattern>
</defs>
<rect width="1200" height="700" fill="url(#sky)"/>
<rect width="1200" height="700" fill="url(#g1)"/>
<circle cx="240" cy="250" r="136.4" fill="#f6d9a0" opacity="0.18"/><circle cx="240" cy="250" r="62" fill="#f6d9a0" opacity="0.9"/>
<path d="M 350 560 L 600 230 L 850 560 Z" fill="#1c1826"/><path d="M 440 560 L 600 230 L 760 560 Z" fill="#f0ead9" opacity="0.22"/><path d="M 560 560 L 600 230 L 640 560 Z" fill="#d8b45a" opacity="0.5"/><path d="M 241 560 L 246 170 L 250 140 L 254 170 L 259 560 Z" fill="#1c1826"/><path d="M 321 560 L 326 170 L 330 140 L 334 170 L 339 560 Z" fill="#1c1826"/><path d="M 861 560 L 866 170 L 870 140 L 874 170 L 879 560 Z" fill="#1c1826"/><path d="M 941 560 L 946 170 L 950 140 L 954 170 L 959 560 Z" fill="#1c1826"/>
<rect x="0" y="560" width="1200" height="140" fill="#0c0e14"/>

<rect x="0" y="556" width="1200" height="4" fill="#d8b45a" opacity="0.55"/>
</svg>