<svg xmlns="http://www.w3.org/2000/svg" viewBox="0 0 1200 700" role="img">
<defs>
<linearGradient id="sky" x1="0" y1="0" x2="0" y2="1">
<stop offset="0" stop-color="#1f3a45"/><stop offset="0.62" stop-color="#3f7a7a"/><stop offset="1" stop-color="#f0d9a8"/>
</linearGradient>
<pattern id="g1" width="120" height="120" patternUnits="userSpaceOnUse"><polygon points="111.6,60.0 80.0,68.3 96.5,96.5 68.3,80.0 60.0,111.6 51.7,80.0 23.5,96.5 40.0,68.3 8.4,60.0 40.0,51.7 23.5,23.5 51.7,40.0 60.0,8.4 68.3,40.0 96.5,23.5 80.0,51.7" fill="none" stroke="#e8d9a8" stroke-width="1.6" opacity="0.1"/><rect x="17.4" y="17.4" width="85.2" height="85.2" fill="none" stroke="#e8d9a8" stroke-width="1.6" opacity="0.06999999999999999" transform="rotate(45 60.0 60.0)"/></pattern>
</defs>
<rect width="1200" height="700" fill="url(#sky)"/>
<rect width="1200" height="700" fill="url(#g1)"/>
<circle cx="541" cy="51" r="1.3" fill="#f7ecd2" opacity="0.76"/><circle cx="71" cy="60" r="1.8" fill="#f7ecd2" opacity="0.45"/><circle cx="698" cy="196" r="0.8" fill="#f7ecd2" opacity="0.43"/><circle cx="1006" cy="123" r="1.3" fill="#f7ecd2" opacity="0.73"/><circle cx="827" cy="133" r="0.8" fill="#f7ecd2" opacity="0.76"/><circle cx="1097" cy="202" r="0.8" fill="#f7ecd2" opacity="0.79"/><circle cx="544" cy="58" r="1.8" fill="#f7ecd2" opacity="0.37"/><circle cx="1112" cy="125" r="1.3" fill="#f7ecd2" opacity="0.35"/><circle cx="713" cy="135" r="1.8" fill="#f7ecd2" opacity="0.40"/><circle cx="523" cy="24" r="1.3" fill="#f7ecd2" opacity="0.37"/><circle cx="1190" cy="80" r="1.3" fill="#f7ecd2" opacity="0.35"/><circle cx="818" cy="47" r="1.3" fill="#f7ecd2" opacity="0.81"/><circle cx="199" cy="57" r="1.3" fill="#f7ecd2" opacity="0.78"/><circle cx="749" cy="6" r="1.8" fill="#f7ecd2" opacity="0.79"/><circle cx="236" cy="2" r="1.3" fill="#f7ecd2" opacity="0.57"/><circle cx="124" cy="109" r="1.8" fill="#f7ecd2" opacity="0.51"/><circle cx="485" cy="139" r="0.8" fill="#f7ecd2" opacity="0.50"/><circle cx="575" cy="128" r="1.3" fill="#f7ecd2" opacity="0.35"/><circle cx="82" cy="84" r="1.3" fill="#f7ecd2" opacity="0.73"/><circle cx="230" cy="111" r="1.8" fill="#f7ecd2" opacity="0.65"/><circle cx="371" cy="141" r="1.8" fill="#f7ecd2" opacity="0.46"/><circle cx="1" cy="170" r="0.8" fill="#f7ecd2" opacity="0.55"/><circle cx="728" cy="106" r="0.8" fill="#f7ecd2" opacity="0.53"/><circle cx="1136" cy="53" r="1.3" fill="#f7ecd2" opacity="0.43"/><circle cx="1057" cy="83" r="0.8" fill="#f7ecd2" opacity="0.66"/><circle cx="227" cy="152" r="1.3" fill="#f7ecd2" opacity="0.39"/><circle cx="974" cy="48" r="1.8" fill="#f7ecd2" opacity="0.37"/><circle cx="442" cy="115" r="1.8" fill="#f7ecd2" opacity="0.65"/><circle cx="143" cy="145" r="0.8" fill="#f7ecd2" opacity="0.70"/><circle cx="53" cy="54" r="1.8" fill="#f7ecd2" opacity="0.47"/><circle cx="960" cy="210" r="110.00000000000001" fill="#f0d9a8" opacity="0.18"/><circle cx="960" cy="210" r="50" fill="#f0d9a8" opacity="0.9"/>
<path d="M 350 560 L 600 230 L 850 560 Z" fill="#12141c"/><path d="M 440 560 L 600 230 L 760 560 Z" fill="#f0ead9" opacity="0.22"/><path d="M 560 560 L 600 230 L 640 560 Z" fill="#d8b45a" opacity="0.5"/><path d="M 241 560 L 246 170 L 250 140 L 254 170 L 259 560 Z" fill="#12141c"/><path d="M 321 560 L 326 170 L 330 140 L 334 170 L 339 560 Z" fill="#12141c"/><path d="M 861 560 L 866 170 L 870 140 L 874 170 L 879 560 Z" fill="#12141c"/><path d="M 941 560 L 946 170 L 950 140 L 954 170 L 959 560 Z" fill="#12141c"/>
<rect x="0" y="560" width="1200" height="140" fill="#0c0e14"/>

<rect x="0" y="556" width="1200" height="4" fill="#d8b45a" opacity="0.55"/>
</svg>