<svg xmlns="http://www.w3.org/2000/svg" viewBox="0 0 1200 700" role="img">
<defs>
<linearGradient id="sky" x1="0" y1="0" x2="0" y2="1">
<stop offset="0" stop-color="#1f3a45"/><stop offset="0.62" stop-color="#3f7a7a"/><stop offset="1" stop-color="#f0d9a8"/>
</linearGradient>
<pattern id="g1" width="120" height="120" patternUnits="userSpaceOnUse"><polygon points="111.6,60.0 80.0,68.3 96.5,96.5 68.3,80.0 60.0,111.6 51.7,80.0 23.5,96.5 40.0,68.3 8.4,60.0 40.0,51.7 23.5,23.5 51.7,40.0 60.0,8.4 68.3,40.0 96.5,23.5 80.0,51.7" fill="none" stroke="#e8d9a8" stroke-width="1.6" opacity="0.1"/><rect x="17.4" y="17.4" width="85.2" height="85.2" fill="none" stroke="#e8d9a8" stroke-width="1.6" opacity="0.06999999999999999" transform="rotate(45 60.0 60.0)"/></pattern>
</defs>
<rect width="1200" height="700" fill="url(#sky)"/>
<rect width="1200" height="700" fill="url(#g1)"/>
<circle cx="518" cy="218" r="1.3" fill="#f7ecd2" opacity="0.59"/><circle cx="792" cy="191" r="1.8" fill="#f7ecd2" opacity="0.57"/><circle cx="531" cy="79" r="1.3" fill="#f7ecd2" opacity="0.84"/><circle cx="815" cy="142" r="0.8" fill="#f7ecd2" opacity="0.65"/><circle cx="84" cy="200" r="1.8" fill="#f7ecd2" opacity="0.35"/><circle cx="858" cy="53" r="1.8" fill="#f7ecd2" opacity="0.59"/><circle cx="1097" cy="41" r="1.3" fill="#f7ecd2" opacity="0.62"/><circle cx="681" cy="184" r="1.3" fill="#f7ecd2" opacity="0.39"/><circle cx="450" cy="122" r="1.8" fill="#f7ecd2" opacity="0.35"/><circle cx="524" cy="55" r="0.8" fill="#f7ecd2" opacity="0.55"/><circle cx="63" cy="123" r="0.8" fill="#f7ecd2" opacity="0.84"/><circle cx="147" cy="146" r="1.8" fill="#f7ecd2" opacity="0.47"/><circle cx="416" cy="184" r="0.8" fill="#f7ecd2" opacity="0.79"/><circle cx="990" cy="217" r="1.3" fill="#f7ecd2" opacity="0.65"/><circle cx="1029" cy="165" r="0.8" fill="#f7ecd2" opacity="0.70"/><circle cx="413" cy="48" r="1.8" fill="#f7ecd2" opacity="0.59"/><circle cx="1182" cy="186" r="0.8" fill="#f7ecd2" opacity="0.37"/><circle cx="1056" cy="79" r="1.3" fill="#f7ecd2" opacity="0.59"/><circle cx="395" cy="107" r="1.3" fill="#f7ecd2" opacity="0.50"/><circle cx="279" cy="90" r="0.8" fill="#f7ecd2" opacity="0.45"/><circle cx="348" cy="88" r="1.3" fill="#f7ecd2" opacity="0.59"/><circle cx="722" cy="81" r="1.8" fill="#f7ecd2" opacity="0.67"/><circle cx="561" cy="209" r="1.8" fill="#f7ecd2" opacity="0.84"/><circle cx="945" cy="72" r="0.8" fill="#f7ecd2" opacity="0.75"/><circle cx="314" cy="150" r="1.8" fill="#f7ecd2" opacity="0.35"/><circle cx="1188" cy="23" r="1.8" fill="#f7ecd2" opacity="0.59"/><circle cx="327" cy="11" r="1.8" fill="#f7ecd2" opacity="0.82"/><circle cx="11" cy="174" r="1.8" fill="#f7ecd2" opacity="0.49"/><circle cx="1080" cy="152" r="1.8" fill="#f7ecd2" opacity="0.45"/><circle cx="54" cy="85" r="1.3" fill="#f7ecd2" opacity="0.75"/><circle cx="960" cy="210" r="110.00000000000001" fill="#f0d9a8" opacity="0.18"/><circle cx="960" cy="210" r="50" fill="#f0d9a8" opacity="0.9"/>
<path d="M 350 560 L 600 230 L 850 560 Z" fill="#12141c"/><path d="M 440 560 L 600 230 L 760 560 Z" fill="#f0ead9" opacity="0.22"/><path d="M 560 560 L 600 230 L 640 560 Z" fill="#d8b45a" opacity="0.5"/><path d="M 241 560 L 246 170 L 250 140 L 254 170 L 259 560 Z" fill="#12141c"/><path d="M 321 560 L 326 170 L 330 140 L 334 170 L 339 560 Z" fill="#12141c"/><path d="M 861 560 L 866 170 L 870 140 L 874 170 L 879 560 Z" fill="#12141c"/><path d="M 941 560 L 946 170 L 950 140 L 954 170 L 959 560 Z" fill="#12141c"/>
<rect x="0" y="560" width="1200" height="140" fill="#0c0e14"/>

<rect x="0" y="556" width="1200" height="4" fill="#d8b45a" opacity="0.55"/>
</svg>