<svg xmlns="http://www.w3.org/2000/svg" viewBox="0 0 1200 700" role="img">
<defs>
<linearGradient id="sky" x1="0" y1="0" x2="0" y2="1">
<stop offset="0" stop-color="#1f3a45"/><stop offset="0.62" stop-color="#3f7a7a"/><stop offset="1" stop-color="#f0d9a8"/>
</linearGradient>
<pattern id="g1" width="120" height="120" patternUnits="userSpaceOnUse"><polygon points="111.6,60.0 80.0,68.3 96.5,96.5 68.3,80.0 60.0,111.6 51.7,80.0 23.5,96.5 40.0,68.3 8.4,60.0 40.0,51.7 23.5,23.5 51.7,40.0 60.0,8.4 68.3,40.0 96.5,23.5 80.0,51.7" fill="none" stroke="#e8d9a8" stroke-width="1.6" opacity="0.1"/><rect x="17.4" y="17.4" width="85.2" height="85.2" fill="none" stroke="#e8d9a8" stroke-width="1.6" opacity="0.06999999999999999" transform="rotate(45 60.0 60.0)"/></pattern>
</defs>
<rect width="1200" height="700" fill="url(#sky)"/>
<rect width="1200" height="700" fill="url(#g1)"/>
<circle cx="352" cy="132" r="1.3" fill="#f7ecd2" opacity="0.49"/><circle cx="674" cy="53" r="1.3" fill="#f7ecd2" opacity="0.57"/><circle cx="317" cy="45" r="1.8" fill="#f7ecd2" opacity="0.50"/><circle cx="793" cy="120" r="1.3" fill="#f7ecd2" opacity="0.45"/><circle cx="878" cy="174" r="1.8" fill="#f7ecd2" opacity="0.57"/><circle cx="20" cy="35" r="1.3" fill="#f7ecd2" opacity="0.35"/><circle cx="1123" cy="187" r="1.8" fill="#f7ecd2" opacity="0.36"/><circle cx="179" cy="22" r="0.8" fill="#f7ecd2" opacity="0.73"/><circle cx="1004" cy="136" r="0.8" fill="#f7ecd2" opacity="0.79"/><circle cx="166" cy="177" r="1.3" fill="#f7ecd2" opacity="0.67"/><circle cx="329" cy="9" r="1.8" fill="#f7ecd2" opacity="0.46"/><circle cx="365" cy="84" r="1.8" fill="#f7ecd2" opacity="0.45"/><circle cx="730" cy="18" r="1.3" fill="#f7ecd2" opacity="0.75"/><circle cx="1112" cy="39" r="1.8" fill="#f7ecd2" opacity="0.53"/><circle cx="335" cy="211" r="0.8" fill="#f7ecd2" opacity="0.70"/><circle cx="151" cy="66" r="1.3" fill="#f7ecd2" opacity="0.51"/><circle cx="56" cy="40" r="0.8" fill="#f7ecd2" opacity="0.75"/><circle cx="458" cy="21" r="1.8" fill="#f7ecd2" opacity="0.53"/><circle cx="1141" cy="133" r="1.8" fill="#f7ecd2" opacity="0.38"/><circle cx="737" cy="208" r="0.8" fill="#f7ecd2" opacity="0.81"/><circle cx="182" cy="2" r="1.3" fill="#f7ecd2" opacity="0.49"/><circle cx="604" cy="163" r="1.8" fill="#f7ecd2" opacity="0.37"/><circle cx="347" cy="175" r="0.8" fill="#f7ecd2" opacity="0.60"/><circle cx="923" cy="50" r="1.3" fill="#f7ecd2" opacity="0.35"/><circle cx="1108" cy="124" r="1.8" fill="#f7ecd2" opacity="0.77"/><circle cx="350" cy="5" r="1.3" fill="#f7ecd2" opacity="0.35"/><circle cx="353" cy="157" r="0.8" fill="#f7ecd2" opacity="0.56"/><circle cx="709" cy="32" r="0.8" fill="#f7ecd2" opacity="0.73"/><circle cx="434" cy="146" r="1.3" fill="#f7ecd2" opacity="0.49"/><circle cx="896" cy="7" r="0.8" fill="#f7ecd2" opacity="0.57"/><circle cx="960" cy="210" r="110.00000000000001" fill="#f0d9a8" opacity="0.18"/><circle cx="960" cy="210" r="50" fill="#f0d9a8" opacity="0.9"/>
<path d="M 350 560 L 600 230 L 850 560 Z" fill="#12141c"/><path d="M 440 560 L 600 230 L 760 560 Z" fill="#f0ead9" opacity="0.22"/><path d="M 560 560 L 600 230 L 640 560 Z" fill="#d8b45a" opacity="0.5"/><path d="M 241 560 L 246 170 L 250 140 L 254 170 L 259 560 Z" fill="#12141c"/><path d="M 321 560 L 326 170 L 330 140 L 334 170 L 339 560 Z" fill="#12141c"/><path d="M 861 560 L 866 170 L 870 140 L 874 170 L 879 560 Z" fill="#12141c"/><path d="M 941 560 L 946 170 L 950 140 L 954 170 L 959 560 Z" fill="#12141c"/>
<rect x="0" y="560" width="1200" height="140" fill="#0c0e14"/>

<rect x="0" y="556" width="1200" height="4" fill="#d8b45a" opacity="0.55"/>
</svg>