<svg xmlns="http://www.w3.org/2000/svg" viewBox="0 0 1200 700" role="img">
<defs>
<linearGradient id="sky" x1="0" y1="0" x2="0" y2="1">
<stop offset="0" stop-color="#1f3a45"/><stop offset="0.62" stop-color="#3f7a7a"/><stop offset="1" stop-color="#f0d9a8"/>
</linearGradient>
<pattern id="g1" width="120" height="120" patternUnits="userSpaceOnUse"><polygon points="111.6,60.0 80.0,68.3 96.5,96.5 68.3,80.0 60.0,111.6 51.7,80.0 23.5,96.5 40.0,68.3 8.4,60.0 40.0,51.7 23.5,23.5 51.7,40.0 60.0,8.4 68.3,40.0 96.5,23.5 80.0,51.7" fill="none" stroke="#e8d9a8" stroke-width="1.6" opacity="0.1"/><rect x="17.4" y="17.4" width="85.2" height="85.2" fill="none" stroke="#e8d9a8" stroke-width="1.6" opacity="0.06999999999999999" transform="rotate(45 60.0 60.0)"/></pattern>
</defs>
<rect width="1200" height="700" fill="url(#sky)"/>
<rect width="1200" height="700" fill="url(#g1)"/>
<circle cx="579" cy="129" r="0.8" fill="#f7ecd2" opacity="0.76"/><circle cx="445" cy="214" r="1.8" fill="#f7ecd2" opacity="0.65"/><circle cx="400" cy="198" r="1.3" fill="#f7ecd2" opacity="0.35"/><circle cx="852" cy="189" r="0.8" fill="#f7ecd2" opacity="0.63"/><circle cx="385" cy="71" r="0.8" fill="#f7ecd2" opacity="0.70"/><circle cx="31" cy="156" r="1.3" fill="#f7ecd2" opacity="0.71"/><circle cx="726" cy="200" r="1.8" fill="#f7ecd2" opacity="0.35"/><circle cx="1198" cy="151" r="1.8" fill="#f7ecd2" opacity="0.83"/><circle cx="991" cy="173" r="0.8" fill="#f7ecd2" opacity="0.78"/><circle cx="417" cy="38" r="1.8" fill="#f7ecd2" opacity="0.81"/><circle cx="652" cy="122" r="0.8" fill="#f7ecd2" opacity="0.79"/><circle cx="1144" cy="33" r="1.3" fill="#f7ecd2" opacity="0.37"/><circle cx="1197" cy="195" r="0.8" fill="#f7ecd2" opacity="0.50"/><circle cx="403" cy="60" r="1.3" fill="#f7ecd2" opacity="0.65"/><circle cx="178" cy="184" r="1.8" fill="#f7ecd2" opacity="0.37"/><circle cx="690" cy="55" r="1.3" fill="#f7ecd2" opacity="0.35"/><circle cx="1003" cy="137" r="0.8" fill="#f7ecd2" opacity="0.46"/><circle cx="1189" cy="22" r="1.8" fill="#f7ecd2" opacity="0.43"/><circle cx="504" cy="186" r="0.8" fill="#f7ecd2" opacity="0.79"/><circle cx="1036" cy="17" r="0.8" fill="#f7ecd2" opacity="0.47"/><circle cx="409" cy="219" r="1.3" fill="#f7ecd2" opacity="0.56"/><circle cx="375" cy="104" r="1.8" fill="#f7ecd2" opacity="0.35"/><circle cx="430" cy="108" r="1.3" fill="#f7ecd2" opacity="0.75"/><circle cx="982" cy="119" r="0.8" fill="#f7ecd2" opacity="0.43"/><circle cx="615" cy="21" r="0.8" fill="#f7ecd2" opacity="0.50"/><circle cx="361" cy="126" r="1.3" fill="#f7ecd2" opacity="0.71"/><circle cx="1156" cy="190" r="1.8" fill="#f7ecd2" opacity="0.75"/><circle cx="528" cy="141" r="0.8" fill="#f7ecd2" opacity="0.83"/><circle cx="421" cy="183" r="1.3" fill="#f7ecd2" opacity="0.78"/><circle cx="1147" cy="88" r="1.8" fill="#f7ecd2" opacity="0.71"/><circle cx="960" cy="210" r="110.00000000000001" fill="#f0d9a8" opacity="0.18"/><circle cx="960" cy="210" r="50" fill="#f0d9a8" opacity="0.9"/>
<path d="M 350 560 L 600 230 L 850 560 Z" fill="#12141c"/><path d="M 440 560 L 600 230 L 760 560 Z" fill="#f0ead9" opacity="0.22"/><path d="M 560 560 L 600 230 L 640 560 Z" fill="#d8b45a" opacity="0.5"/><path d="M 241 560 L 246 170 L 250 140 L 254 170 L 259 560 Z" fill="#12141c"/><path d="M 321 560 L 326 170 L 330 140 L 334 170 L 339 560 Z" fill="#12141c"/><path d="M 861 560 L 866 170 L 870 140 L 874 170 L 879 560 Z" fill="#12141c"/><path d="M 941 560 L 946 170 L 950 140 L 954 170 L 959 560 Z" fill="#12141c"/>
<rect x="0" y="560" width="1200" height="140" fill="#0c0e14"/>

<rect x="0" y="556" width="1200" height="4" fill="#d8b45a" opacity="0.55"/>
</svg>