<svg xmlns="http://www.w3.org/2000/svg" viewBox="0 0 1200 700" role="img">
<defs>
<linearGradient id="sky" x1="0" y1="0" x2="0" y2="1">
<stop offset="0" stop-color="#1f3a45"/><stop offset="0.62" stop-color="#3f7a7a"/><stop offset="1" stop-color="#f0d9a8"/>
</linearGradient>
<pattern id="g1" width="120" height="120" patternUnits="userSpaceOnUse"><polygon points="111.6,60.0 80.0,68.3 96.5,96.5 68.3,80.0 60.0,111.6 51.7,80.0 23.5,96.5 40.0,68.3 8.4,60.0 40.0,51.7 23.5,23.5 51.7,40.0 60.0,8.4 68.3,40.0 96.5,23.5 80.0,51.7" fill="none" stroke="#e8d9a8" stroke-width="1.6" opacity="0.1"/><rect x="17.4" y="17.4" width="85.2" height="85.2" fill="none" stroke="#e8d9a8" stroke-width="1.6" opacity="0.06999999999999999" transform="rotate(45 60.0 60.0)"/></pattern>
</defs>
<rect width="1200" height="700" fill="url(#sky)"/>
<rect width="1200" height="700" fill="url(#g1)"/>
<circle cx="930" cy="10" r="1.3" fill="#f7ecd2" opacity="0.35"/><circle cx="868" cy="127" r="1.8" fill="#f7ecd2" opacity="0.71"/><circle cx="79" cy="147" r="1.3" fill="#f7ecd2" opacity="0.48"/><circle cx="219" cy="146" r="1.8" fill="#f7ecd2" opacity="0.59"/><circle cx="976" cy="132" r="1.3" fill="#f7ecd2" opacity="0.67"/><circle cx="1174" cy="169" r="1.8" fill="#f7ecd2" opacity="0.41"/><circle cx="165" cy="189" r="0.8" fill="#f7ecd2" opacity="0.70"/><circle cx="1045" cy="28" r="1.8" fill="#f7ecd2" opacity="0.45"/><circle cx="622" cy="174" r="1.3" fill="#f7ecd2" opacity="0.63"/><circle cx="1080" cy="131" r="1.8" fill="#f7ecd2" opacity="0.65"/><circle cx="1051" cy="171" r="1.3" fill="#f7ecd2" opacity="0.56"/><circle cx="271" cy="30" r="1.3" fill="#f7ecd2" opacity="0.65"/><circle cx="1068" cy="156" r="0.8" fill="#f7ecd2" opacity="0.43"/><circle cx="586" cy="13" r="1.8" fill="#f7ecd2" opacity="0.53"/><circle cx="337" cy="53" r="0.8" fill="#f7ecd2" opacity="0.46"/><circle cx="297" cy="192" r="0.8" fill="#f7ecd2" opacity="0.59"/><circle cx="1114" cy="58" r="1.8" fill="#f7ecd2" opacity="0.47"/><circle cx="892" cy="55" r="1.8" fill="#f7ecd2" opacity="0.45"/><circle cx="423" cy="95" r="1.8" fill="#f7ecd2" opacity="0.70"/><circle cx="1123" cy="74" r="0.8" fill="#f7ecd2" opacity="0.37"/><circle cx="760" cy="100" r="1.8" fill="#f7ecd2" opacity="0.35"/><circle cx="798" cy="17" r="1.8" fill="#f7ecd2" opacity="0.51"/><circle cx="109" cy="57" r="1.3" fill="#f7ecd2" opacity="0.48"/><circle cx="349" cy="76" r="1.8" fill="#f7ecd2" opacity="0.59"/><circle cx="6" cy="62" r="1.8" fill="#f7ecd2" opacity="0.57"/><circle cx="304" cy="119" r="0.8" fill="#f7ecd2" opacity="0.61"/><circle cx="595" cy="179" r="0.8" fill="#f7ecd2" opacity="0.40"/><circle cx="375" cy="18" r="0.8" fill="#f7ecd2" opacity="0.35"/><circle cx="52" cy="184" r="1.8" fill="#f7ecd2" opacity="0.53"/><circle cx="610" cy="161" r="0.8" fill="#f7ecd2" opacity="0.45"/><circle cx="960" cy="210" r="110.00000000000001" fill="#f0d9a8" opacity="0.18"/><circle cx="960" cy="210" r="50" fill="#f0d9a8" opacity="0.9"/>
<path d="M 350 560 L 600 230 L 850 560 Z" fill="#12141c"/><path d="M 440 560 L 600 230 L 760 560 Z" fill="#f0ead9" opacity="0.22"/><path d="M 560 560 L 600 230 L 640 560 Z" fill="#d8b45a" opacity="0.5"/><path d="M 241 560 L 246 170 L 250 140 L 254 170 L 259 560 Z" fill="#12141c"/><path d="M 321 560 L 326 170 L 330 140 L 334 170 L 339 560 Z" fill="#12141c"/><path d="M 861 560 L 866 170 L 870 140 L 874 170 L 879 560 Z" fill="#12141c"/><path d="M 941 560 L 946 170 L 950 140 L 954 170 L 959 560 Z" fill="#12141c"/>
<rect x="0" y="560" width="1200" height="140" fill="#0c0e14"/>

<rect x="0" y="556" width="1200" height="4" fill="#d8b45a" opacity="0.55"/>
</svg>