<svg xmlns="http://www.w3.org/2000/svg" viewBox="0 0 1200 700" role="img">
<defs>
<linearGradient id="sky" x1="0" y1="0" x2="0" y2="1">
<stop offset="0" stop-color="#1f3a45"/><stop offset="0.62" stop-color="#3f7a7a"/><stop offset="1" stop-color="#f0d9a8"/>
</linearGradient>
<pattern id="g1" width="120" height="120" patternUnits="userSpaceOnUse"><polygon points="111.6,60.0 80.0,68.3 96.5,96.5 68.3,80.0 60.0,111.6 51.7,80.0 23.5,96.5 40.0,68.3 8.4,60.0 40.0,51.7 23.5,23.5 51.7,40.0 60.0,8.4 68.3,40.0 96.5,23.5 80.0,51.7" fill="none" stroke="#e8d9a8" stroke-width="1.6" opacity="0.1"/><rect x="17.4" y="17.4" width="85.2" height="85.2" fill="none" stroke="#e8d9a8" stroke-width="1.6" opacity="0.06999999999999999" transform="rotate(45 60.0 60.0)"/></pattern>
</defs>
<rect width="1200" height="700" fill="url(#sky)"/>
<rect width="1200" height="700" fill="url(#g1)"/>
<circle cx="1150" cy="10" r="1.8" fill="#f7ecd2" opacity="0.35"/><circle cx="128" cy="67" r="0.8" fill="#f7ecd2" opacity="0.61"/><circle cx="59" cy="187" r="0.8" fill="#f7ecd2" opacity="0.68"/><circle cx="1159" cy="26" r="0.8" fill="#f7ecd2" opacity="0.69"/><circle cx="1196" cy="132" r="1.8" fill="#f7ecd2" opacity="0.57"/><circle cx="434" cy="109" r="0.8" fill="#f7ecd2" opacity="0.41"/><circle cx="145" cy="9" r="1.3" fill="#f7ecd2" opacity="0.40"/><circle cx="785" cy="108" r="1.8" fill="#f7ecd2" opacity="0.65"/><circle cx="842" cy="174" r="1.8" fill="#f7ecd2" opacity="0.43"/><circle cx="340" cy="71" r="0.8" fill="#f7ecd2" opacity="0.75"/><circle cx="1031" cy="211" r="0.8" fill="#f7ecd2" opacity="0.76"/><circle cx="11" cy="110" r="1.3" fill="#f7ecd2" opacity="0.45"/><circle cx="88" cy="136" r="1.8" fill="#f7ecd2" opacity="0.53"/><circle cx="1046" cy="193" r="0.8" fill="#f7ecd2" opacity="0.63"/><circle cx="317" cy="93" r="1.8" fill="#f7ecd2" opacity="0.66"/><circle cx="37" cy="52" r="1.8" fill="#f7ecd2" opacity="0.59"/><circle cx="134" cy="38" r="1.3" fill="#f7ecd2" opacity="0.77"/><circle cx="152" cy="215" r="1.3" fill="#f7ecd2" opacity="0.65"/><circle cx="403" cy="135" r="1.3" fill="#f7ecd2" opacity="0.40"/><circle cx="863" cy="154" r="0.8" fill="#f7ecd2" opacity="0.37"/><circle cx="980" cy="100" r="0.8" fill="#f7ecd2" opacity="0.35"/><circle cx="58" cy="177" r="1.3" fill="#f7ecd2" opacity="0.51"/><circle cx="89" cy="97" r="0.8" fill="#f7ecd2" opacity="0.68"/><circle cx="89" cy="156" r="1.8" fill="#f7ecd2" opacity="0.69"/><circle cx="226" cy="62" r="0.8" fill="#f7ecd2" opacity="0.47"/><circle cx="764" cy="79" r="0.8" fill="#f7ecd2" opacity="0.41"/><circle cx="575" cy="219" r="1.8" fill="#f7ecd2" opacity="0.60"/><circle cx="115" cy="98" r="0.8" fill="#f7ecd2" opacity="0.55"/><circle cx="272" cy="184" r="0.8" fill="#f7ecd2" opacity="0.83"/><circle cx="1070" cy="121" r="0.8" fill="#f7ecd2" opacity="0.55"/><circle cx="960" cy="210" r="110.00000000000001" fill="#f0d9a8" opacity="0.18"/><circle cx="960" cy="210" r="50" fill="#f0d9a8" opacity="0.9"/>
<path d="M 350 560 L 600 230 L 850 560 Z" fill="#12141c"/><path d="M 440 560 L 600 230 L 760 560 Z" fill="#f0ead9" opacity="0.22"/><path d="M 560 560 L 600 230 L 640 560 Z" fill="#d8b45a" opacity="0.5"/><path d="M 241 560 L 246 170 L 250 140 L 254 170 L 259 560 Z" fill="#12141c"/><path d="M 321 560 L 326 170 L 330 140 L 334 170 L 339 560 Z" fill="#12141c"/><path d="M 861 560 L 866 170 L 870 140 L 874 170 L 879 560 Z" fill="#12141c"/><path d="M 941 560 L 946 170 L 950 140 L 954 170 L 959 560 Z" fill="#12141c"/>
<rect x="0" y="560" width="1200" height="140" fill="#0c0e14"/>

<rect x="0" y="556" width="1200" height="4" fill="#d8b45a" opacity="0.55"/>
</svg>