<svg xmlns="http://www.w3.org/2000/svg" viewBox="0 0 1200 700" role="img">
<defs>
<linearGradient id="sky" x1="0" y1="0" x2="0" y2="1">
<stop offset="0" stop-color="#0a1026"/><stop offset="0.62" stop-color="#152046"/><stop offset="1" stop-color="#2b3a6b"/>
</linearGradient>
<pattern id="g1" width="120" height="120" patternUnits="userSpaceOnUse"><polygon points="111.6,60.0 80.0,68.3 96.5,96.5 68.3,80.0 60.0,111.6 51.7,80.0 23.5,96.5 40.0,68.3 8.4,60.0 40.0,51.7 23.5,23.5 51.7,40.0 60.0,8.4 68.3,40.0 96.5,23.5 80.0,51.7" fill="none" stroke="#e8d9a8" stroke-width="1.6" opacity="0.1"/><rect x="17.4" y="17.4" width="85.2" height="85.2" fill="none" stroke="#e8d9a8" stroke-width="1.6" opacity="0.06999999999999999" transform="rotate(45 60.0 60.0)"/></pattern>
</defs>
<rect width="1200" height="700" fill="url(#sky)"/>
<rect width="1200" height="700" fill="url(#g1)"/>
<circle cx="658" cy="338" r="0.8" fill="#f7ecd2" opacity="0.39"/><circle cx="212" cy="171" r="1.8" fill="#f7ecd2" opacity="0.37"/><circle cx="191" cy="259" r="0.8" fill="#f7ecd2" opacity="0.54"/><circle cx="1195" cy="162" r="1.3" fill="#f7ecd2" opacity="0.75"/><circle cx="224" cy="40" r="0.8" fill="#f7ecd2" opacity="0.45"/><circle cx="278" cy="73" r="0.8" fill="#f7ecd2" opacity="0.79"/><circle cx="757" cy="21" r="1.3" fill="#f7ecd2" opacity="0.82"/><circle cx="1061" cy="324" r="1.8" fill="#f7ecd2" opacity="0.49"/><circle cx="590" cy="62" r="1.3" fill="#f7ecd2" opacity="0.65"/><circle cx="1144" cy="295" r="1.8" fill="#f7ecd2" opacity="0.65"/><circle cx="923" cy="303" r="1.8" fill="#f7ecd2" opacity="0.54"/><circle cx="527" cy="326" r="1.3" fill="#f7ecd2" opacity="0.37"/><circle cx="556" cy="264" r="1.3" fill="#f7ecd2" opacity="0.69"/><circle cx="410" cy="217" r="0.8" fill="#f7ecd2" opacity="0.55"/><circle cx="689" cy="85" r="0.8" fill="#f7ecd2" opacity="0.50"/><circle cx="793" cy="308" r="0.8" fill="#f7ecd2" opacity="0.79"/><circle cx="122" cy="306" r="1.8" fill="#f7ecd2" opacity="0.67"/><circle cx="476" cy="119" r="1.3" fill="#f7ecd2" opacity="0.79"/><circle cx="55" cy="47" r="0.8" fill="#f7ecd2" opacity="0.70"/><circle cx="659" cy="130" r="0.8" fill="#f7ecd2" opacity="0.55"/><circle cx="488" cy="328" r="0.8" fill="#f7ecd2" opacity="0.49"/><circle cx="142" cy="201" r="1.3" fill="#f7ecd2" opacity="0.77"/><circle cx="221" cy="329" r="1.3" fill="#f7ecd2" opacity="0.44"/><circle cx="125" cy="132" r="1.8" fill="#f7ecd2" opacity="0.35"/><circle cx="454" cy="190" r="1.8" fill="#f7ecd2" opacity="0.45"/><circle cx="608" cy="263" r="1.3" fill="#f7ecd2" opacity="0.39"/><circle cx="1187" cy="251" r="1.3" fill="#f7ecd2" opacity="0.72"/><circle cx="391" cy="114" r="1.3" fill="#f7ecd2" opacity="0.59"/><circle cx="20" cy="232" r="0.8" fill="#f7ecd2" opacity="0.75"/><circle cx="674" cy="165" r="1.8" fill="#f7ecd2" opacity="0.45"/><circle cx="553" cy="213" r="1.3" fill="#f7ecd2" opacity="0.74"/><circle cx="257" cy="276" r="1.8" fill="#f7ecd2" opacity="0.67"/><circle cx="386" cy="254" r="1.3" fill="#f7ecd2" opacity="0.79"/><circle cx="340" cy="247" r="1.8" fill="#f7ecd2" opacity="0.65"/><circle cx="719" cy="155" r="1.3" fill="#f7ecd2" opacity="0.80"/><circle cx="923" cy="78" r="1.8" fill="#f7ecd2" opacity="0.79"/><circle cx="352" cy="116" r="0.8" fill="#f7ecd2" opacity="0.67"/><circle cx="806" cy="309" r="1.8" fill="#f7ecd2" opacity="0.39"/><circle cx="485" cy="277" r="0.8" fill="#f7ecd2" opacity="0.80"/><circle cx="1189" cy="60" r="1.3" fill="#f7ecd2" opacity="0.75"/><circle cx="1118" cy="298" r="0.8" fill="#f7ecd2" opacity="0.49"/><circle cx="872" cy="211" r="0.8" fill="#f7ecd2" opacity="0.77"/><circle cx="1051" cy="39" r="1.3" fill="#f7ecd2" opacity="0.74"/><circle cx="1055" cy="222" r="1.8" fill="#f7ecd2" opacity="0.45"/><circle cx="284" cy="180" r="1.8" fill="#f7ecd2" opacity="0.55"/><circle cx="538" cy="293" r="0.8" fill="#f7ecd2" opacity="0.69"/><circle cx="17" cy="181" r="0.8" fill="#f7ecd2" opacity="0.62"/><circle cx="521" cy="224" r="1.3" fill="#f7ecd2" opacity="0.39"/><circle cx="250" cy="42" r="1.3" fill="#f7ecd2" opacity="0.35"/><circle cx="1004" cy="15" r="1.8" fill="#f7ecd2" opacity="0.45"/><circle cx="983" cy="103" r="0.8" fill="#f7ecd2" opacity="0.84"/><circle cx="787" cy="206" r="0.8" fill="#f7ecd2" opacity="0.57"/><circle cx="1016" cy="224" r="1.3" fill="#f7ecd2" opacity="0.69"/><circle cx="1070" cy="257" r="1.3" fill="#f7ecd2" opacity="0.75"/><circle cx="349" cy="65" r="0.8" fill="#f7ecd2" opacity="0.70"/><circle cx="653" cy="28" r="0.8" fill="#f7ecd2" opacity="0.69"/><circle cx="182" cy="106" r="0.8" fill="#f7ecd2" opacity="0.77"/><circle cx="736" cy="339" r="1.3" fill="#f7ecd2" opacity="0.39"/><circle cx="515" cy="7" r="0.8" fill="#f7ecd2" opacity="0.40"/><circle cx="119" cy="30" r="1.8" fill="#f7ecd2" opacity="0.55"/><circle cx="980" cy="120" r="42" fill="#f6ecd0" opacity="0.95"/><circle cx="996" cy="112" r="36" fill="url(#sky)" opacity="0.92"/>
<path d="M 350 560 L 600 230 L 850 560 Z" fill="#12141c"/><path d="M 440 560 L 600 230 L 760 560 Z" fill="#f0ead9" opacity="0.22"/><path d="M 560 560 L 600 230 L 640 560 Z" fill="#d8b45a" opacity="0.5"/><path d="M 241 560 L 246 170 L 250 140 L 254 170 L 259 560 Z" fill="#12141c"/><path d="M 321 560 L 326 170 L 330 140 L 334 170 L 339 560 Z" fill="#12141c"/><path d="M 861 560 L 866 170 L 870 140 L 874 170 L 879 560 Z" fill="#12141c"/><path d="M 941 560 L 946 170 L 950 140 L 954 170 L 959 560 Z" fill="#12141c"/>
<rect x="0" y="560" width="1200" height="140" fill="#0c0e14"/>

<rect x="0" y="556" width="1200" height="4" fill="#d8b45a" opacity="0.55"/>
</svg>