<svg xmlns="http://www.w3.org/2000/svg" viewBox="0 0 1200 700" role="img">
<defs>
<linearGradient id="sky" x1="0" y1="0" x2="0" y2="1">
<stop offset="0" stop-color="#0a1026"/><stop offset="0.62" stop-color="#152046"/><stop offset="1" stop-color="#2b3a6b"/>
</linearGradient>
<pattern id="g1" width="120" height="120" patternUnits="userSpaceOnUse"><polygon points="111.6,60.0 80.0,68.3 96.5,96.5 68.3,80.0 60.0,111.6 51.7,80.0 23.5,96.5 40.0,68.3 8.4,60.0 40.0,51.7 23.5,23.5 51.7,40.0 60.0,8.4 68.3,40.0 96.5,23.5 80.0,51.7" fill="none" stroke="#e8d9a8" stroke-width="1.6" opacity="0.1"/><rect x="17.4" y="17.4" width="85.2" height="85.2" fill="none" stroke="#e8d9a8" stroke-width="1.6" opacity="0.06999999999999999" transform="rotate(45 60.0 60.0)"/></pattern>
</defs>
<rect width="1200" height="700" fill="url(#sky)"/>
<rect width="1200" height="700" fill="url(#g1)"/>
<circle cx="91" cy="101" r="0.8" fill="#f7ecd2" opacity="0.76"/><circle cx="821" cy="10" r="0.8" fill="#f7ecd2" opacity="0.45"/><circle cx="248" cy="326" r="1.3" fill="#f7ecd2" opacity="0.83"/><circle cx="556" cy="73" r="1.8" fill="#f7ecd2" opacity="0.73"/><circle cx="377" cy="23" r="1.3" fill="#f7ecd2" opacity="0.56"/><circle cx="647" cy="292" r="0.8" fill="#f7ecd2" opacity="0.59"/><circle cx="94" cy="208" r="1.8" fill="#f7ecd2" opacity="0.37"/><circle cx="662" cy="195" r="1.8" fill="#f7ecd2" opacity="0.75"/><circle cx="263" cy="125" r="1.3" fill="#f7ecd2" opacity="0.60"/><circle cx="73" cy="74" r="0.8" fill="#f7ecd2" opacity="0.37"/><circle cx="740" cy="70" r="0.8" fill="#f7ecd2" opacity="0.35"/><circle cx="368" cy="157" r="0.8" fill="#f7ecd2" opacity="0.61"/><circle cx="949" cy="207" r="1.3" fill="#f7ecd2" opacity="0.78"/><circle cx="299" cy="176" r="1.3" fill="#f7ecd2" opacity="0.59"/><circle cx="986" cy="112" r="0.8" fill="#f7ecd2" opacity="0.67"/><circle cx="874" cy="99" r="1.3" fill="#f7ecd2" opacity="0.61"/><circle cx="35" cy="329" r="1.3" fill="#f7ecd2" opacity="0.50"/><circle cx="125" cy="118" r="0.8" fill="#f7ecd2" opacity="0.35"/><circle cx="832" cy="334" r="1.8" fill="#f7ecd2" opacity="0.73"/><circle cx="980" cy="221" r="1.3" fill="#f7ecd2" opacity="0.65"/><circle cx="1121" cy="231" r="1.8" fill="#f7ecd2" opacity="0.36"/><circle cx="751" cy="40" r="1.8" fill="#f7ecd2" opacity="0.75"/><circle cx="278" cy="56" r="1.3" fill="#f7ecd2" opacity="0.53"/><circle cx="686" cy="183" r="1.8" fill="#f7ecd2" opacity="0.73"/><circle cx="607" cy="173" r="0.8" fill="#f7ecd2" opacity="0.46"/><circle cx="977" cy="142" r="0.8" fill="#f7ecd2" opacity="0.69"/><circle cx="524" cy="98" r="1.3" fill="#f7ecd2" opacity="0.37"/><circle cx="1192" cy="125" r="0.8" fill="#f7ecd2" opacity="0.35"/><circle cx="893" cy="95" r="1.3" fill="#f7ecd2" opacity="0.70"/><circle cx="803" cy="84" r="1.8" fill="#f7ecd2" opacity="0.37"/><circle cx="370" cy="320" r="0.8" fill="#f7ecd2" opacity="0.35"/><circle cx="98" cy="107" r="1.3" fill="#f7ecd2" opacity="0.71"/><circle cx="779" cy="197" r="1.3" fill="#f7ecd2" opacity="0.48"/><circle cx="229" cy="206" r="0.8" fill="#f7ecd2" opacity="0.59"/><circle cx="1016" cy="182" r="1.3" fill="#f7ecd2" opacity="0.47"/><circle cx="1004" cy="209" r="1.3" fill="#f7ecd2" opacity="0.71"/><circle cx="265" cy="139" r="1.8" fill="#f7ecd2" opacity="0.70"/><circle cx="455" cy="308" r="1.3" fill="#f7ecd2" opacity="0.75"/><circle cx="62" cy="84" r="1.8" fill="#f7ecd2" opacity="0.43"/><circle cx="310" cy="11" r="0.8" fill="#f7ecd2" opacity="0.45"/><circle cx="551" cy="61" r="0.8" fill="#f7ecd2" opacity="0.46"/><circle cx="281" cy="250" r="0.8" fill="#f7ecd2" opacity="0.35"/><circle cx="1108" cy="106" r="1.8" fill="#f7ecd2" opacity="0.83"/><circle cx="416" cy="133" r="0.8" fill="#f7ecd2" opacity="0.63"/><circle cx="437" cy="163" r="0.8" fill="#f7ecd2" opacity="0.66"/><circle cx="907" cy="172" r="1.8" fill="#f7ecd2" opacity="0.39"/><circle cx="554" cy="168" r="1.8" fill="#f7ecd2" opacity="0.57"/><circle cx="122" cy="95" r="1.3" fill="#f7ecd2" opacity="0.75"/><circle cx="1123" cy="245" r="0.8" fill="#f7ecd2" opacity="0.70"/><circle cx="1133" cy="274" r="0.8" fill="#f7ecd2" opacity="0.77"/><circle cx="800" cy="210" r="1.8" fill="#f7ecd2" opacity="0.35"/><circle cx="628" cy="37" r="1.8" fill="#f7ecd2" opacity="0.71"/><circle cx="209" cy="27" r="1.8" fill="#f7ecd2" opacity="0.78"/><circle cx="959" cy="216" r="1.8" fill="#f7ecd2" opacity="0.79"/><circle cx="646" cy="92" r="0.8" fill="#f7ecd2" opacity="0.67"/><circle cx="734" cy="159" r="1.8" fill="#f7ecd2" opacity="0.41"/><circle cx="95" cy="129" r="1.8" fill="#f7ecd2" opacity="0.40"/><circle cx="385" cy="338" r="0.8" fill="#f7ecd2" opacity="0.65"/><circle cx="92" cy="154" r="0.8" fill="#f7ecd2" opacity="0.53"/><circle cx="440" cy="121" r="0.8" fill="#f7ecd2" opacity="0.75"/><circle cx="980" cy="120" r="42" fill="#f6ecd0" opacity="0.95"/><circle cx="996" cy="112" r="36" fill="url(#sky)" opacity="0.92"/>
<path d="M 350 560 L 600 230 L 850 560 Z" fill="#12141c"/><path d="M 440 560 L 600 230 L 760 560 Z" fill="#f0ead9" opacity="0.22"/><path d="M 560 560 L 600 230 L 640 560 Z" fill="#d8b45a" opacity="0.5"/><path d="M 241 560 L 246 170 L 250 140 L 254 170 L 259 560 Z" fill="#12141c"/><path d="M 321 560 L 326 170 L 330 140 L 334 170 L 339 560 Z" fill="#12141c"/><path d="M 861 560 L 866 170 L 870 140 L 874 170 L 879 560 Z" fill="#12141c"/><path d="M 941 560 L 946 170 L 950 140 L 954 170 L 959 560 Z" fill="#12141c"/>
<rect x="0" y="560" width="1200" height="140" fill="#0c0e14"/>

<rect x="0" y="556" width="1200" height="4" fill="#d8b45a" opacity="0.55"/>
</svg>