<svg xmlns="http://www.w3.org/2000/svg" viewBox="0 0 1200 700" role="img">
<defs>
<linearGradient id="sky" x1="0" y1="0" x2="0" y2="1">
<stop offset="0" stop-color="#0a1026"/><stop offset="0.62" stop-color="#152046"/><stop offset="1" stop-color="#2b3a6b"/>
</linearGradient>
<pattern id="g1" width="120" height="120" patternUnits="userSpaceOnUse"><polygon points="111.6,60.0 80.0,68.3 96.5,96.5 68.3,80.0 60.0,111.6 51.7,80.0 23.5,96.5 40.0,68.3 8.4,60.0 40.0,51.7 23.5,23.5 51.7,40.0 60.0,8.4 68.3,40.0 96.5,23.5 80.0,51.7" fill="none" stroke="#e8d9a8" stroke-width="1.6" opacity="0.1"/><rect x="17.4" y="17.4" width="85.2" height="85.2" fill="none" stroke="#e8d9a8" stroke-width="1.6" opacity="0.06999999999999999" transform="rotate(45 60.0 60.0)"/></pattern>
</defs>
<rect width="1200" height="700" fill="url(#sky)"/>
<rect width="1200" height="700" fill="url(#g1)"/>
<circle cx="216" cy="236" r="1.8" fill="#f7ecd2" opacity="0.61"/><circle cx="346" cy="245" r="0.8" fill="#f7ecd2" opacity="0.55"/><circle cx="373" cy="121" r="1.8" fill="#f7ecd2" opacity="0.68"/><circle cx="81" cy="308" r="1.8" fill="#f7ecd2" opacity="0.83"/><circle cx="502" cy="158" r="0.8" fill="#f7ecd2" opacity="0.51"/><circle cx="172" cy="187" r="1.8" fill="#f7ecd2" opacity="0.49"/><circle cx="219" cy="3" r="0.8" fill="#f7ecd2" opacity="0.42"/><circle cx="187" cy="90" r="1.3" fill="#f7ecd2" opacity="0.65"/><circle cx="388" cy="260" r="0.8" fill="#f7ecd2" opacity="0.65"/><circle cx="798" cy="109" r="1.3" fill="#f7ecd2" opacity="0.67"/><circle cx="865" cy="205" r="1.8" fill="#f7ecd2" opacity="0.60"/><circle cx="1093" cy="192" r="1.3" fill="#f7ecd2" opacity="0.41"/><circle cx="1074" cy="2" r="1.8" fill="#f7ecd2" opacity="0.83"/><circle cx="1024" cy="211" r="1.8" fill="#f7ecd2" opacity="0.49"/><circle cx="1111" cy="247" r="1.8" fill="#f7ecd2" opacity="0.52"/><circle cx="399" cy="334" r="1.3" fill="#f7ecd2" opacity="0.51"/><circle cx="160" cy="124" r="1.8" fill="#f7ecd2" opacity="0.75"/><circle cx="850" cy="153" r="1.3" fill="#f7ecd2" opacity="0.35"/><circle cx="957" cy="129" r="0.8" fill="#f7ecd2" opacity="0.38"/><circle cx="505" cy="116" r="0.8" fill="#f7ecd2" opacity="0.65"/><circle cx="46" cy="226" r="1.8" fill="#f7ecd2" opacity="0.81"/><circle cx="276" cy="275" r="1.8" fill="#f7ecd2" opacity="0.35"/><circle cx="403" cy="191" r="0.8" fill="#f7ecd2" opacity="0.58"/><circle cx="211" cy="78" r="1.3" fill="#f7ecd2" opacity="0.43"/><circle cx="732" cy="308" r="1.8" fill="#f7ecd2" opacity="0.41"/><circle cx="502" cy="37" r="1.8" fill="#f7ecd2" opacity="0.59"/><circle cx="649" cy="233" r="0.8" fill="#f7ecd2" opacity="0.52"/><circle cx="717" cy="20" r="1.8" fill="#f7ecd2" opacity="0.75"/><circle cx="1018" cy="230" r="0.8" fill="#f7ecd2" opacity="0.75"/><circle cx="328" cy="319" r="1.8" fill="#f7ecd2" opacity="0.67"/><circle cx="495" cy="115" r="1.3" fill="#f7ecd2" opacity="0.60"/><circle cx="823" cy="142" r="1.8" fill="#f7ecd2" opacity="0.51"/><circle cx="904" cy="332" r="0.8" fill="#f7ecd2" opacity="0.63"/><circle cx="954" cy="241" r="1.3" fill="#f7ecd2" opacity="0.49"/><circle cx="1141" cy="317" r="0.8" fill="#f7ecd2" opacity="0.82"/><circle cx="529" cy="104" r="0.8" fill="#f7ecd2" opacity="0.51"/><circle cx="390" cy="274" r="1.3" fill="#f7ecd2" opacity="0.45"/><circle cx="1180" cy="3" r="1.3" fill="#f7ecd2" opacity="0.75"/><circle cx="187" cy="219" r="1.3" fill="#f7ecd2" opacity="0.38"/><circle cx="1035" cy="46" r="1.3" fill="#f7ecd2" opacity="0.45"/><circle cx="676" cy="196" r="1.8" fill="#f7ecd2" opacity="0.81"/><circle cx="1006" cy="285" r="1.3" fill="#f7ecd2" opacity="0.45"/><circle cx="33" cy="101" r="1.8" fill="#f7ecd2" opacity="0.68"/><circle cx="1141" cy="168" r="1.3" fill="#f7ecd2" opacity="0.73"/><circle cx="562" cy="298" r="1.8" fill="#f7ecd2" opacity="0.61"/><circle cx="432" cy="67" r="1.3" fill="#f7ecd2" opacity="0.79"/><circle cx="679" cy="303" r="1.3" fill="#f7ecd2" opacity="0.72"/><circle cx="847" cy="130" r="1.8" fill="#f7ecd2" opacity="0.45"/><circle cx="48" cy="240" r="0.8" fill="#f7ecd2" opacity="0.55"/><circle cx="658" cy="169" r="1.8" fill="#f7ecd2" opacity="0.37"/><circle cx="925" cy="5" r="0.8" fill="#f7ecd2" opacity="0.60"/><circle cx="153" cy="272" r="1.8" fill="#f7ecd2" opacity="0.51"/><circle cx="334" cy="162" r="1.3" fill="#f7ecd2" opacity="0.43"/><circle cx="484" cy="111" r="1.3" fill="#f7ecd2" opacity="0.59"/><circle cx="771" cy="227" r="1.8" fill="#f7ecd2" opacity="0.52"/><circle cx="259" cy="54" r="1.3" fill="#f7ecd2" opacity="0.71"/><circle cx="220" cy="264" r="1.3" fill="#f7ecd2" opacity="0.65"/><circle cx="1110" cy="33" r="0.8" fill="#f7ecd2" opacity="0.65"/><circle cx="217" cy="289" r="1.8" fill="#f7ecd2" opacity="0.48"/><circle cx="1165" cy="156" r="1.3" fill="#f7ecd2" opacity="0.75"/><circle cx="980" cy="120" r="42" fill="#f6ecd0" opacity="0.95"/><circle cx="996" cy="112" r="36" fill="url(#sky)" opacity="0.92"/>
<path d="M 350 560 L 600 230 L 850 560 Z" fill="#12141c"/><path d="M 440 560 L 600 230 L 760 560 Z" fill="#f0ead9" opacity="0.22"/><path d="M 560 560 L 600 230 L 640 560 Z" fill="#d8b45a" opacity="0.5"/><path d="M 241 560 L 246 170 L 250 140 L 254 170 L 259 560 Z" fill="#12141c"/><path d="M 321 560 L 326 170 L 330 140 L 334 170 L 339 560 Z" fill="#12141c"/><path d="M 861 560 L 866 170 L 870 140 L 874 170 L 879 560 Z" fill="#12141c"/><path d="M 941 560 L 946 170 L 950 140 L 954 170 L 959 560 Z" fill="#12141c"/>
<rect x="0" y="560" width="1200" height="140" fill="#0c0e14"/>

<rect x="0" y="556" width="1200" height="4" fill="#d8b45a" opacity="0.55"/>
</svg>