<svg xmlns="http://www.w3.org/2000/svg" viewBox="0 0 1200 700" role="img">
<defs>
<linearGradient id="sky" x1="0" y1="0" x2="0" y2="1">
<stop offset="0" stop-color="#0a1026"/><stop offset="0.62" stop-color="#152046"/><stop offset="1" stop-color="#2b3a6b"/>
</linearGradient>
<pattern id="g1" width="120" height="120" patternUnits="userSpaceOnUse"><polygon points="111.6,60.0 80.0,68.3 96.5,96.5 68.3,80.0 60.0,111.6 51.7,80.0 23.5,96.5 40.0,68.3 8.4,60.0 40.0,51.7 23.5,23.5 51.7,40.0 60.0,8.4 68.3,40.0 96.5,23.5 80.0,51.7" fill="none" stroke="#e8d9a8" stroke-width="1.6" opacity="0.1"/><rect x="17.4" y="17.4" width="85.2" height="85.2" fill="none" stroke="#e8d9a8" stroke-width="1.6" opacity="0.06999999999999999" transform="rotate(45 60.0 60.0)"/></pattern>
</defs>
<rect width="1200" height="700" fill="url(#sky)"/>
<rect width="1200" height="700" fill="url(#g1)"/>
<circle cx="92" cy="132" r="1.8" fill="#f7ecd2" opacity="0.79"/><circle cx="894" cy="233" r="1.8" fill="#f7ecd2" opacity="0.37"/><circle cx="777" cy="65" r="1.8" fill="#f7ecd2" opacity="0.40"/><circle cx="773" cy="0" r="1.8" fill="#f7ecd2" opacity="0.35"/><circle cx="618" cy="14" r="1.8" fill="#f7ecd2" opacity="0.37"/><circle cx="240" cy="255" r="0.8" fill="#f7ecd2" opacity="0.35"/><circle cx="383" cy="327" r="1.8" fill="#f7ecd2" opacity="0.76"/><circle cx="159" cy="242" r="1.8" fill="#f7ecd2" opacity="0.63"/><circle cx="744" cy="76" r="1.3" fill="#f7ecd2" opacity="0.79"/><circle cx="386" cy="257" r="1.3" fill="#f7ecd2" opacity="0.37"/><circle cx="789" cy="229" r="1.3" fill="#f7ecd2" opacity="0.66"/><circle cx="345" cy="124" r="1.3" fill="#f7ecd2" opacity="0.65"/><circle cx="470" cy="318" r="1.8" fill="#f7ecd2" opacity="0.45"/><circle cx="132" cy="99" r="0.8" fill="#f7ecd2" opacity="0.53"/><circle cx="795" cy="311" r="1.8" fill="#f7ecd2" opacity="0.80"/><circle cx="131" cy="186" r="1.8" fill="#f7ecd2" opacity="0.51"/><circle cx="996" cy="200" r="1.8" fill="#f7ecd2" opacity="0.35"/><circle cx="678" cy="261" r="0.8" fill="#f7ecd2" opacity="0.43"/><circle cx="401" cy="233" r="1.3" fill="#f7ecd2" opacity="0.68"/><circle cx="717" cy="228" r="0.8" fill="#f7ecd2" opacity="0.61"/><circle cx="1122" cy="262" r="1.3" fill="#f7ecd2" opacity="0.49"/><circle cx="824" cy="263" r="1.3" fill="#f7ecd2" opacity="0.47"/><circle cx="807" cy="135" r="0.8" fill="#f7ecd2" opacity="0.80"/><circle cx="903" cy="110" r="1.8" fill="#f7ecd2" opacity="0.65"/><circle cx="848" cy="164" r="1.3" fill="#f7ecd2" opacity="0.57"/><circle cx="570" cy="105" r="0.8" fill="#f7ecd2" opacity="0.35"/><circle cx="813" cy="217" r="1.3" fill="#f7ecd2" opacity="0.56"/><circle cx="689" cy="172" r="0.8" fill="#f7ecd2" opacity="0.43"/><circle cx="174" cy="246" r="0.8" fill="#f7ecd2" opacity="0.39"/><circle cx="1116" cy="267" r="0.8" fill="#f7ecd2" opacity="0.57"/><circle cx="419" cy="139" r="0.8" fill="#f7ecd2" opacity="0.76"/><circle cx="75" cy="74" r="1.8" fill="#f7ecd2" opacity="0.35"/><circle cx="300" cy="308" r="1.8" fill="#f7ecd2" opacity="0.35"/><circle cx="62" cy="129" r="1.8" fill="#f7ecd2" opacity="0.83"/><circle cx="825" cy="41" r="1.8" fill="#f7ecd2" opacity="0.60"/><circle cx="261" cy="296" r="1.8" fill="#f7ecd2" opacity="0.41"/><circle cx="26" cy="210" r="1.8" fill="#f7ecd2" opacity="0.45"/><circle cx="1008" cy="111" r="0.8" fill="#f7ecd2" opacity="0.73"/><circle cx="831" cy="123" r="0.8" fill="#f7ecd2" opacity="0.48"/><circle cx="47" cy="18" r="1.8" fill="#f7ecd2" opacity="0.81"/><circle cx="552" cy="92" r="1.8" fill="#f7ecd2" opacity="0.69"/><circle cx="354" cy="133" r="1.3" fill="#f7ecd2" opacity="0.67"/><circle cx="437" cy="45" r="1.8" fill="#f7ecd2" opacity="0.50"/><circle cx="633" cy="60" r="0.8" fill="#f7ecd2" opacity="0.65"/><circle cx="678" cy="154" r="1.3" fill="#f7ecd2" opacity="0.47"/><circle cx="500" cy="135" r="1.8" fill="#f7ecd2" opacity="0.35"/><circle cx="843" cy="287" r="1.8" fill="#f7ecd2" opacity="0.76"/><circle cx="819" cy="282" r="0.8" fill="#f7ecd2" opacity="0.43"/><circle cx="404" cy="56" r="1.3" fill="#f7ecd2" opacity="0.59"/><circle cx="246" cy="317" r="1.8" fill="#f7ecd2" opacity="0.67"/><circle cx="849" cy="29" r="1.8" fill="#f7ecd2" opacity="0.56"/><circle cx="605" cy="4" r="0.8" fill="#f7ecd2" opacity="0.55"/><circle cx="930" cy="278" r="1.8" fill="#f7ecd2" opacity="0.75"/><circle cx="792" cy="139" r="1.3" fill="#f7ecd2" opacity="0.73"/><circle cx="455" cy="291" r="1.8" fill="#f7ecd2" opacity="0.40"/><circle cx="1191" cy="46" r="1.3" fill="#f7ecd2" opacity="0.71"/><circle cx="1056" cy="0" r="0.8" fill="#f7ecd2" opacity="0.35"/><circle cx="938" cy="141" r="1.8" fill="#f7ecd2" opacity="0.43"/><circle cx="861" cy="193" r="1.3" fill="#f7ecd2" opacity="0.58"/><circle cx="177" cy="128" r="1.8" fill="#f7ecd2" opacity="0.41"/><circle cx="980" cy="120" r="42" fill="#f6ecd0" opacity="0.95"/><circle cx="996" cy="112" r="36" fill="url(#sky)" opacity="0.92"/>
<path d="M 350 560 L 600 230 L 850 560 Z" fill="#12141c"/><path d="M 440 560 L 600 230 L 760 560 Z" fill="#f0ead9" opacity="0.22"/><path d="M 560 560 L 600 230 L 640 560 Z" fill="#d8b45a" opacity="0.5"/><path d="M 241 560 L 246 170 L 250 140 L 254 170 L 259 560 Z" fill="#12141c"/><path d="M 321 560 L 326 170 L 330 140 L 334 170 L 339 560 Z" fill="#12141c"/><path d="M 861 560 L 866 170 L 870 140 L 874 170 L 879 560 Z" fill="#12141c"/><path d="M 941 560 L 946 170 L 950 140 L 954 170 L 959 560 Z" fill="#12141c"/>
<rect x="0" y="560" width="1200" height="140" fill="#0c0e14"/>

<rect x="0" y="556" width="1200" height="4" fill="#d8b45a" opacity="0.55"/>
</svg>