<svg xmlns="http://www.w3.org/2000/svg" viewBox="0 0 1200 700" role="img">
<defs>
<linearGradient id="sky" x1="0" y1="0" x2="0" y2="1">
<stop offset="0" stop-color="#0a1026"/><stop offset="0.62" stop-color="#152046"/><stop offset="1" stop-color="#2b3a6b"/>
</linearGradient>
<pattern id="g1" width="120" height="120" patternUnits="userSpaceOnUse"><polygon points="111.6,60.0 80.0,68.3 96.5,96.5 68.3,80.0 60.0,111.6 51.7,80.0 23.5,96.5 40.0,68.3 8.4,60.0 40.0,51.7 23.5,23.5 51.7,40.0 60.0,8.4 68.3,40.0 96.5,23.5 80.0,51.7" fill="none" stroke="#e8d9a8" stroke-width="1.6" opacity="0.1"/><rect x="17.4" y="17.4" width="85.2" height="85.2" fill="none" stroke="#e8d9a8" stroke-width="1.6" opacity="0.06999999999999999" transform="rotate(45 60.0 60.0)"/></pattern>
</defs>
<rect width="1200" height="700" fill="url(#sky)"/>
<rect width="1200" height="700" fill="url(#g1)"/>
<circle cx="831" cy="261" r="0.8" fill="#f7ecd2" opacity="0.76"/><circle cx="841" cy="290" r="0.8" fill="#f7ecd2" opacity="0.75"/><circle cx="508" cy="226" r="1.8" fill="#f7ecd2" opacity="0.43"/><circle cx="336" cy="53" r="1.8" fill="#f7ecd2" opacity="0.43"/><circle cx="1117" cy="183" r="1.3" fill="#f7ecd2" opacity="0.46"/><circle cx="667" cy="232" r="1.8" fill="#f7ecd2" opacity="0.79"/><circle cx="354" cy="108" r="0.8" fill="#f7ecd2" opacity="0.67"/><circle cx="442" cy="175" r="1.8" fill="#f7ecd2" opacity="0.35"/><circle cx="1003" cy="285" r="1.3" fill="#f7ecd2" opacity="0.40"/><circle cx="93" cy="14" r="1.8" fill="#f7ecd2" opacity="0.37"/><circle cx="1000" cy="310" r="1.8" fill="#f7ecd2" opacity="0.35"/><circle cx="148" cy="137" r="0.8" fill="#f7ecd2" opacity="0.61"/><circle cx="489" cy="227" r="1.8" fill="#f7ecd2" opacity="0.38"/><circle cx="319" cy="116" r="0.8" fill="#f7ecd2" opacity="0.39"/><circle cx="46" cy="212" r="0.8" fill="#f7ecd2" opacity="0.37"/><circle cx="654" cy="79" r="1.3" fill="#f7ecd2" opacity="0.51"/><circle cx="775" cy="149" r="0.8" fill="#f7ecd2" opacity="0.60"/><circle cx="145" cy="58" r="1.8" fill="#f7ecd2" opacity="0.45"/><circle cx="1092" cy="234" r="0.8" fill="#f7ecd2" opacity="0.63"/><circle cx="760" cy="201" r="1.3" fill="#f7ecd2" opacity="0.45"/><circle cx="661" cy="251" r="0.8" fill="#f7ecd2" opacity="0.46"/><circle cx="771" cy="320" r="1.8" fill="#f7ecd2" opacity="0.55"/><circle cx="538" cy="296" r="0.8" fill="#f7ecd2" opacity="0.83"/><circle cx="466" cy="163" r="1.8" fill="#f7ecd2" opacity="0.43"/><circle cx="147" cy="193" r="1.3" fill="#f7ecd2" opacity="0.56"/><circle cx="997" cy="82" r="1.8" fill="#f7ecd2" opacity="0.39"/><circle cx="784" cy="338" r="0.8" fill="#f7ecd2" opacity="0.77"/><circle cx="972" cy="105" r="0.8" fill="#f7ecd2" opacity="0.45"/><circle cx="433" cy="115" r="1.8" fill="#f7ecd2" opacity="0.80"/><circle cx="823" cy="24" r="1.3" fill="#f7ecd2" opacity="0.37"/><circle cx="630" cy="220" r="1.3" fill="#f7ecd2" opacity="0.35"/><circle cx="1078" cy="227" r="0.8" fill="#f7ecd2" opacity="0.41"/><circle cx="319" cy="217" r="1.8" fill="#f7ecd2" opacity="0.58"/><circle cx="249" cy="146" r="1.8" fill="#f7ecd2" opacity="0.39"/><circle cx="76" cy="282" r="1.3" fill="#f7ecd2" opacity="0.67"/><circle cx="784" cy="189" r="1.3" fill="#f7ecd2" opacity="0.61"/><circle cx="1005" cy="299" r="1.8" fill="#f7ecd2" opacity="0.80"/><circle cx="475" cy="248" r="0.8" fill="#f7ecd2" opacity="0.35"/><circle cx="322" cy="324" r="1.3" fill="#f7ecd2" opacity="0.63"/><circle cx="90" cy="331" r="1.3" fill="#f7ecd2" opacity="0.75"/><circle cx="91" cy="81" r="1.3" fill="#f7ecd2" opacity="0.56"/><circle cx="301" cy="190" r="1.8" fill="#f7ecd2" opacity="0.75"/><circle cx="168" cy="206" r="1.8" fill="#f7ecd2" opacity="0.43"/><circle cx="196" cy="113" r="0.8" fill="#f7ecd2" opacity="0.83"/><circle cx="1177" cy="323" r="0.8" fill="#f7ecd2" opacity="0.56"/><circle cx="927" cy="112" r="1.3" fill="#f7ecd2" opacity="0.59"/><circle cx="814" cy="68" r="0.8" fill="#f7ecd2" opacity="0.37"/><circle cx="1102" cy="215" r="0.8" fill="#f7ecd2" opacity="0.65"/><circle cx="663" cy="265" r="1.3" fill="#f7ecd2" opacity="0.80"/><circle cx="1153" cy="214" r="1.8" fill="#f7ecd2" opacity="0.77"/><circle cx="1060" cy="110" r="0.8" fill="#f7ecd2" opacity="0.35"/><circle cx="408" cy="17" r="1.8" fill="#f7ecd2" opacity="0.71"/><circle cx="949" cy="187" r="1.8" fill="#f7ecd2" opacity="0.48"/><circle cx="979" cy="156" r="1.3" fill="#f7ecd2" opacity="0.59"/><circle cx="906" cy="332" r="1.8" fill="#f7ecd2" opacity="0.77"/><circle cx="514" cy="139" r="1.8" fill="#f7ecd2" opacity="0.81"/><circle cx="835" cy="289" r="1.8" fill="#f7ecd2" opacity="0.50"/><circle cx="405" cy="278" r="1.8" fill="#f7ecd2" opacity="0.75"/><circle cx="352" cy="54" r="1.3" fill="#f7ecd2" opacity="0.43"/><circle cx="220" cy="101" r="0.8" fill="#f7ecd2" opacity="0.55"/><circle cx="980" cy="120" r="42" fill="#f6ecd0" opacity="0.95"/><circle cx="996" cy="112" r="36" fill="url(#sky)" opacity="0.92"/>
<path d="M 350 560 L 600 230 L 850 560 Z" fill="#12141c"/><path d="M 440 560 L 600 230 L 760 560 Z" fill="#f0ead9" opacity="0.22"/><path d="M 560 560 L 600 230 L 640 560 Z" fill="#d8b45a" opacity="0.5"/><path d="M 241 560 L 246 170 L 250 140 L 254 170 L 259 560 Z" fill="#12141c"/><path d="M 321 560 L 326 170 L 330 140 L 334 170 L 339 560 Z" fill="#12141c"/><path d="M 861 560 L 866 170 L 870 140 L 874 170 L 879 560 Z" fill="#12141c"/><path d="M 941 560 L 946 170 L 950 140 L 954 170 L 959 560 Z" fill="#12141c"/>
<rect x="0" y="560" width="1200" height="140" fill="#0c0e14"/>

<rect x="0" y="556" width="1200" height="4" fill="#d8b45a" opacity="0.55"/>
</svg>