<svg xmlns="http://www.w3.org/2000/svg" viewBox="0 0 1200 700" role="img">
<defs>
<linearGradient id="sky" x1="0" y1="0" x2="0" y2="1">
<stop offset="0" stop-color="#0a1026"/><stop offset="0.62" stop-color="#152046"/><stop offset="1" stop-color="#2b3a6b"/>
</linearGradient>
<pattern id="g1" width="120" height="120" patternUnits="userSpaceOnUse"><polygon points="111.6,60.0 80.0,68.3 96.5,96.5 68.3,80.0 60.0,111.6 51.7,80.0 23.5,96.5 40.0,68.3 8.4,60.0 40.0,51.7 23.5,23.5 51.7,40.0 60.0,8.4 68.3,40.0 96.5,23.5 80.0,51.7" fill="none" stroke="#e8d9a8" stroke-width="1.6" opacity="0.1"/><rect x="17.4" y="17.4" width="85.2" height="85.2" fill="none" stroke="#e8d9a8" stroke-width="1.6" opacity="0.06999999999999999" transform="rotate(45 60.0 60.0)"/></pattern>
</defs>
<rect width="1200" height="700" fill="url(#sky)"/>
<rect width="1200" height="700" fill="url(#g1)"/>
<circle cx="648" cy="28" r="1.3" fill="#f7ecd2" opacity="0.79"/><circle cx="682" cy="121" r="1.8" fill="#f7ecd2" opacity="0.57"/><circle cx="901" cy="169" r="1.8" fill="#f7ecd2" opacity="0.54"/><circle cx="225" cy="12" r="0.8" fill="#f7ecd2" opacity="0.35"/><circle cx="214" cy="70" r="1.8" fill="#f7ecd2" opacity="0.65"/><circle cx="748" cy="23" r="0.8" fill="#f7ecd2" opacity="0.39"/><circle cx="267" cy="131" r="1.8" fill="#f7ecd2" opacity="0.62"/><circle cx="91" cy="174" r="1.3" fill="#f7ecd2" opacity="0.69"/><circle cx="580" cy="92" r="0.8" fill="#f7ecd2" opacity="0.45"/><circle cx="414" cy="105" r="0.8" fill="#f7ecd2" opacity="0.55"/><circle cx="433" cy="73" r="1.8" fill="#f7ecd2" opacity="0.44"/><circle cx="757" cy="316" r="1.8" fill="#f7ecd2" opacity="0.47"/><circle cx="546" cy="294" r="0.8" fill="#f7ecd2" opacity="0.59"/><circle cx="880" cy="167" r="0.8" fill="#f7ecd2" opacity="0.45"/><circle cx="199" cy="195" r="1.3" fill="#f7ecd2" opacity="0.40"/><circle cx="1023" cy="298" r="1.3" fill="#f7ecd2" opacity="0.39"/><circle cx="112" cy="336" r="1.3" fill="#f7ecd2" opacity="0.67"/><circle cx="946" cy="69" r="1.3" fill="#f7ecd2" opacity="0.59"/><circle cx="765" cy="297" r="0.8" fill="#f7ecd2" opacity="0.40"/><circle cx="889" cy="120" r="1.3" fill="#f7ecd2" opacity="0.65"/><circle cx="478" cy="18" r="1.3" fill="#f7ecd2" opacity="0.39"/><circle cx="612" cy="151" r="1.3" fill="#f7ecd2" opacity="0.47"/><circle cx="931" cy="239" r="0.8" fill="#f7ecd2" opacity="0.44"/><circle cx="355" cy="122" r="0.8" fill="#f7ecd2" opacity="0.45"/><circle cx="444" cy="220" r="1.3" fill="#f7ecd2" opacity="0.65"/><circle cx="1078" cy="213" r="1.3" fill="#f7ecd2" opacity="0.49"/><circle cx="697" cy="21" r="1.3" fill="#f7ecd2" opacity="0.72"/><circle cx="621" cy="104" r="1.8" fill="#f7ecd2" opacity="0.69"/><circle cx="10" cy="262" r="1.8" fill="#f7ecd2" opacity="0.55"/><circle cx="1144" cy="115" r="1.8" fill="#f7ecd2" opacity="0.45"/><circle cx="63" cy="323" r="1.8" fill="#f7ecd2" opacity="0.84"/><circle cx="487" cy="266" r="0.8" fill="#f7ecd2" opacity="0.77"/><circle cx="376" cy="284" r="0.8" fill="#f7ecd2" opacity="0.69"/><circle cx="810" cy="197" r="1.8" fill="#f7ecd2" opacity="0.55"/><circle cx="229" cy="265" r="1.8" fill="#f7ecd2" opacity="0.70"/><circle cx="1153" cy="68" r="0.8" fill="#f7ecd2" opacity="0.39"/><circle cx="342" cy="146" r="1.8" fill="#f7ecd2" opacity="0.67"/><circle cx="76" cy="119" r="0.8" fill="#f7ecd2" opacity="0.79"/><circle cx="1195" cy="187" r="1.8" fill="#f7ecd2" opacity="0.50"/><circle cx="219" cy="250" r="1.3" fill="#f7ecd2" opacity="0.35"/><circle cx="1108" cy="328" r="1.8" fill="#f7ecd2" opacity="0.59"/><circle cx="142" cy="21" r="1.3" fill="#f7ecd2" opacity="0.67"/><circle cx="561" cy="149" r="1.8" fill="#f7ecd2" opacity="0.74"/><circle cx="85" cy="72" r="1.3" fill="#f7ecd2" opacity="0.55"/><circle cx="274" cy="210" r="1.3" fill="#f7ecd2" opacity="0.75"/><circle cx="1008" cy="243" r="0.8" fill="#f7ecd2" opacity="0.79"/><circle cx="727" cy="91" r="1.8" fill="#f7ecd2" opacity="0.42"/><circle cx="751" cy="214" r="1.8" fill="#f7ecd2" opacity="0.49"/><circle cx="240" cy="72" r="0.8" fill="#f7ecd2" opacity="0.65"/><circle cx="274" cy="165" r="1.3" fill="#f7ecd2" opacity="0.45"/><circle cx="493" cy="213" r="1.3" fill="#f7ecd2" opacity="0.44"/><circle cx="1017" cy="196" r="1.3" fill="#f7ecd2" opacity="0.67"/><circle cx="1006" cy="254" r="0.8" fill="#f7ecd2" opacity="0.59"/><circle cx="340" cy="67" r="1.8" fill="#f7ecd2" opacity="0.65"/><circle cx="1059" cy="315" r="0.8" fill="#f7ecd2" opacity="0.70"/><circle cx="883" cy="18" r="1.3" fill="#f7ecd2" opacity="0.79"/><circle cx="172" cy="136" r="1.8" fill="#f7ecd2" opacity="0.77"/><circle cx="6" cy="149" r="1.8" fill="#f7ecd2" opacity="0.79"/><circle cx="25" cy="117" r="1.3" fill="#f7ecd2" opacity="0.60"/><circle cx="349" cy="20" r="0.8" fill="#f7ecd2" opacity="0.65"/><circle cx="980" cy="120" r="42" fill="#f6ecd0" opacity="0.95"/><circle cx="996" cy="112" r="36" fill="url(#sky)" opacity="0.92"/>
<path d="M 350 560 L 600 230 L 850 560 Z" fill="#12141c"/><path d="M 440 560 L 600 230 L 760 560 Z" fill="#f0ead9" opacity="0.22"/><path d="M 560 560 L 600 230 L 640 560 Z" fill="#d8b45a" opacity="0.5"/><path d="M 241 560 L 246 170 L 250 140 L 254 170 L 259 560 Z" fill="#12141c"/><path d="M 321 560 L 326 170 L 330 140 L 334 170 L 339 560 Z" fill="#12141c"/><path d="M 861 560 L 866 170 L 870 140 L 874 170 L 879 560 Z" fill="#12141c"/><path d="M 941 560 L 946 170 L 950 140 L 954 170 L 959 560 Z" fill="#12141c"/>
<rect x="0" y="560" width="1200" height="140" fill="#0c0e14"/>

<rect x="0" y="556" width="1200" height="4" fill="#d8b45a" opacity="0.55"/>
</svg>