<svg xmlns="http://www.w3.org/2000/svg" viewBox="0 0 1200 700" role="img">
<defs>
<linearGradient id="sky" x1="0" y1="0" x2="0" y2="1">
<stop offset="0" stop-color="#0a1026"/><stop offset="0.62" stop-color="#152046"/><stop offset="1" stop-color="#2b3a6b"/>
</linearGradient>
<pattern id="g1" width="120" height="120" patternUnits="userSpaceOnUse"><polygon points="111.6,60.0 80.0,68.3 96.5,96.5 68.3,80.0 60.0,111.6 51.7,80.0 23.5,96.5 40.0,68.3 8.4,60.0 40.0,51.7 23.5,23.5 51.7,40.0 60.0,8.4 68.3,40.0 96.5,23.5 80.0,51.7" fill="none" stroke="#e8d9a8" stroke-width="1.6" opacity="0.1"/><rect x="17.4" y="17.4" width="85.2" height="85.2" fill="none" stroke="#e8d9a8" stroke-width="1.6" opacity="0.06999999999999999" transform="rotate(45 60.0 60.0)"/></pattern>
</defs>
<rect width="1200" height="700" fill="url(#sky)"/>
<rect width="1200" height="700" fill="url(#g1)"/>
<circle cx="67" cy="37" r="1.8" fill="#f7ecd2" opacity="0.64"/><circle cx="269" cy="238" r="0.8" fill="#f7ecd2" opacity="0.57"/><circle cx="752" cy="310" r="0.8" fill="#f7ecd2" opacity="0.55"/><circle cx="148" cy="5" r="0.8" fill="#f7ecd2" opacity="0.75"/><circle cx="593" cy="259" r="0.8" fill="#f7ecd2" opacity="0.72"/><circle cx="815" cy="60" r="1.8" fill="#f7ecd2" opacity="0.35"/><circle cx="358" cy="232" r="1.8" fill="#f7ecd2" opacity="0.41"/><circle cx="734" cy="47" r="1.3" fill="#f7ecd2" opacity="0.83"/><circle cx="719" cy="321" r="1.8" fill="#f7ecd2" opacity="0.84"/><circle cx="961" cy="62" r="0.8" fill="#f7ecd2" opacity="0.67"/><circle cx="764" cy="134" r="1.3" fill="#f7ecd2" opacity="0.61"/><circle cx="920" cy="269" r="1.3" fill="#f7ecd2" opacity="0.65"/><circle cx="445" cy="223" r="1.8" fill="#f7ecd2" opacity="0.70"/><circle cx="707" cy="244" r="0.8" fill="#f7ecd2" opacity="0.43"/><circle cx="770" cy="216" r="1.8" fill="#f7ecd2" opacity="0.55"/><circle cx="706" cy="331" r="1.8" fill="#f7ecd2" opacity="0.71"/><circle cx="971" cy="105" r="1.8" fill="#f7ecd2" opacity="0.40"/><circle cx="53" cy="266" r="1.3" fill="#f7ecd2" opacity="0.83"/><circle cx="376" cy="138" r="1.3" fill="#f7ecd2" opacity="0.73"/><circle cx="92" cy="233" r="1.3" fill="#f7ecd2" opacity="0.71"/><circle cx="1097" cy="167" r="1.3" fill="#f7ecd2" opacity="0.84"/><circle cx="199" cy="268" r="1.8" fill="#f7ecd2" opacity="0.67"/><circle cx="782" cy="40" r="0.8" fill="#f7ecd2" opacity="0.65"/><circle cx="278" cy="115" r="0.8" fill="#f7ecd2" opacity="0.55"/><circle cx="823" cy="69" r="1.3" fill="#f7ecd2" opacity="0.72"/><circle cx="1145" cy="250" r="0.8" fill="#f7ecd2" opacity="0.35"/><circle cx="788" cy="122" r="1.3" fill="#f7ecd2" opacity="0.71"/><circle cx="64" cy="177" r="1.3" fill="#f7ecd2" opacity="0.63"/><circle cx="149" cy="151" r="0.8" fill="#f7ecd2" opacity="0.84"/><circle cx="491" cy="272" r="1.3" fill="#f7ecd2" opacity="0.37"/><circle cx="394" cy="44" r="0.8" fill="#f7ecd2" opacity="0.71"/><circle cx="650" cy="219" r="1.8" fill="#f7ecd2" opacity="0.35"/><circle cx="275" cy="213" r="1.8" fill="#f7ecd2" opacity="0.60"/><circle cx="637" cy="274" r="1.8" fill="#f7ecd2" opacity="0.73"/><circle cx="800" cy="286" r="0.8" fill="#f7ecd2" opacity="0.35"/><circle cx="836" cy="101" r="1.3" fill="#f7ecd2" opacity="0.71"/><circle cx="1" cy="115" r="1.8" fill="#f7ecd2" opacity="0.50"/><circle cx="383" cy="116" r="1.3" fill="#f7ecd2" opacity="0.63"/><circle cx="806" cy="28" r="0.8" fill="#f7ecd2" opacity="0.53"/><circle cx="622" cy="163" r="1.8" fill="#f7ecd2" opacity="0.71"/><circle cx="527" cy="337" r="0.8" fill="#f7ecd2" opacity="0.84"/><circle cx="929" cy="278" r="1.3" fill="#f7ecd2" opacity="0.47"/><circle cx="412" cy="290" r="0.8" fill="#f7ecd2" opacity="0.65"/><circle cx="8" cy="65" r="1.3" fill="#f7ecd2" opacity="0.55"/><circle cx="653" cy="59" r="1.3" fill="#f7ecd2" opacity="0.62"/><circle cx="1075" cy="280" r="1.8" fill="#f7ecd2" opacity="0.35"/><circle cx="818" cy="192" r="1.8" fill="#f7ecd2" opacity="0.41"/><circle cx="194" cy="287" r="1.3" fill="#f7ecd2" opacity="0.63"/><circle cx="379" cy="301" r="1.8" fill="#f7ecd2" opacity="0.64"/><circle cx="821" cy="122" r="1.3" fill="#f7ecd2" opacity="0.47"/><circle cx="824" cy="274" r="0.8" fill="#f7ecd2" opacity="0.61"/><circle cx="1180" cy="149" r="0.8" fill="#f7ecd2" opacity="0.55"/><circle cx="905" cy="183" r="1.8" fill="#f7ecd2" opacity="0.50"/><circle cx="167" cy="144" r="1.8" fill="#f7ecd2" opacity="0.83"/><circle cx="430" cy="196" r="1.8" fill="#f7ecd2" opacity="0.65"/><circle cx="566" cy="51" r="1.8" fill="#f7ecd2" opacity="0.51"/><circle cx="1031" cy="245" r="1.3" fill="#f7ecd2" opacity="0.80"/><circle cx="313" cy="146" r="0.8" fill="#f7ecd2" opacity="0.83"/><circle cx="836" cy="98" r="1.3" fill="#f7ecd2" opacity="0.63"/><circle cx="752" cy="273" r="1.8" fill="#f7ecd2" opacity="0.81"/><circle cx="980" cy="120" r="42" fill="#f6ecd0" opacity="0.95"/><circle cx="996" cy="112" r="36" fill="url(#sky)" opacity="0.92"/>
<path d="M 350 560 L 600 230 L 850 560 Z" fill="#12141c"/><path d="M 440 560 L 600 230 L 760 560 Z" fill="#f0ead9" opacity="0.22"/><path d="M 560 560 L 600 230 L 640 560 Z" fill="#d8b45a" opacity="0.5"/><path d="M 241 560 L 246 170 L 250 140 L 254 170 L 259 560 Z" fill="#12141c"/><path d="M 321 560 L 326 170 L 330 140 L 334 170 L 339 560 Z" fill="#12141c"/><path d="M 861 560 L 866 170 L 870 140 L 874 170 L 879 560 Z" fill="#12141c"/><path d="M 941 560 L 946 170 L 950 140 L 954 170 L 959 560 Z" fill="#12141c"/>
<rect x="0" y="560" width="1200" height="140" fill="#0c0e14"/>

<rect x="0" y="556" width="1200" height="4" fill="#d8b45a" opacity="0.55"/>
</svg>