<svg xmlns="http://www.w3.org/2000/svg" viewBox="0 0 1200 700" role="img">
<defs>
<linearGradient id="sky" x1="0" y1="0" x2="0" y2="1">
<stop offset="0" stop-color="#0a1026"/><stop offset="0.62" stop-color="#152046"/><stop offset="1" stop-color="#2b3a6b"/>
</linearGradient>
<pattern id="g1" width="120" height="120" patternUnits="userSpaceOnUse"><polygon points="111.6,60.0 80.0,68.3 96.5,96.5 68.3,80.0 60.0,111.6 51.7,80.0 23.5,96.5 40.0,68.3 8.4,60.0 40.0,51.7 23.5,23.5 51.7,40.0 60.0,8.4 68.3,40.0 96.5,23.5 80.0,51.7" fill="none" stroke="#e8d9a8" stroke-width="1.6" opacity="0.1"/><rect x="17.4" y="17.4" width="85.2" height="85.2" fill="none" stroke="#e8d9a8" stroke-width="1.6" opacity="0.06999999999999999" transform="rotate(45 60.0 60.0)"/></pattern>
</defs>
<rect width="1200" height="700" fill="url(#sky)"/>
<rect width="1200" height="700" fill="url(#g1)"/>
<circle cx="314" cy="214" r="0.8" fill="#f7ecd2" opacity="0.81"/><circle cx="300" cy="179" r="1.8" fill="#f7ecd2" opacity="0.35"/><circle cx="615" cy="143" r="1.8" fill="#f7ecd2" opacity="0.80"/><circle cx="947" cy="294" r="1.8" fill="#f7ecd2" opacity="0.53"/><circle cx="120" cy="216" r="0.8" fill="#f7ecd2" opacity="0.55"/><circle cx="1086" cy="301" r="1.3" fill="#f7ecd2" opacity="0.71"/><circle cx="941" cy="285" r="1.8" fill="#f7ecd2" opacity="0.70"/><circle cx="93" cy="236" r="1.8" fill="#f7ecd2" opacity="0.83"/><circle cx="726" cy="198" r="0.8" fill="#f7ecd2" opacity="0.83"/><circle cx="272" cy="123" r="1.8" fill="#f7ecd2" opacity="0.41"/><circle cx="867" cy="267" r="0.8" fill="#f7ecd2" opacity="0.74"/><circle cx="39" cy="158" r="1.8" fill="#f7ecd2" opacity="0.47"/><circle cx="932" cy="20" r="1.3" fill="#f7ecd2" opacity="0.75"/><circle cx="258" cy="265" r="1.3" fill="#f7ecd2" opacity="0.55"/><circle cx="393" cy="89" r="1.8" fill="#f7ecd2" opacity="0.62"/><circle cx="785" cy="60" r="1.8" fill="#f7ecd2" opacity="0.35"/><circle cx="738" cy="22" r="1.3" fill="#f7ecd2" opacity="0.71"/><circle cx="1044" cy="47" r="1.8" fill="#f7ecd2" opacity="0.53"/><circle cx="719" cy="231" r="1.8" fill="#f7ecd2" opacity="0.74"/><circle cx="1131" cy="142" r="1.3" fill="#f7ecd2" opacity="0.37"/><circle cx="144" cy="204" r="0.8" fill="#f7ecd2" opacity="0.61"/><circle cx="230" cy="209" r="1.3" fill="#f7ecd2" opacity="0.55"/><circle cx="645" cy="213" r="0.8" fill="#f7ecd2" opacity="0.70"/><circle cx="1077" cy="64" r="1.3" fill="#f7ecd2" opacity="0.63"/><circle cx="350" cy="26" r="1.3" fill="#f7ecd2" opacity="0.35"/><circle cx="216" cy="11" r="1.8" fill="#f7ecd2" opacity="0.61"/><circle cx="171" cy="35" r="1.8" fill="#f7ecd2" opacity="0.70"/><circle cx="623" cy="166" r="0.8" fill="#f7ecd2" opacity="0.53"/><circle cx="156" cy="28" r="1.3" fill="#f7ecd2" opacity="0.53"/><circle cx="1002" cy="133" r="1.3" fill="#f7ecd2" opacity="0.51"/><circle cx="497" cy="177" r="1.8" fill="#f7ecd2" opacity="0.54"/><circle cx="969" cy="248" r="1.8" fill="#f7ecd2" opacity="0.47"/><circle cx="762" cy="10" r="1.3" fill="#f7ecd2" opacity="0.55"/><circle cx="188" cy="295" r="0.8" fill="#f7ecd2" opacity="0.45"/><circle cx="423" cy="159" r="0.8" fill="#f7ecd2" opacity="0.42"/><circle cx="915" cy="170" r="1.8" fill="#f7ecd2" opacity="0.35"/><circle cx="968" cy="172" r="0.8" fill="#f7ecd2" opacity="0.81"/><circle cx="174" cy="97" r="1.3" fill="#f7ecd2" opacity="0.63"/><circle cx="1149" cy="121" r="1.3" fill="#f7ecd2" opacity="0.64"/><circle cx="461" cy="272" r="1.3" fill="#f7ecd2" opacity="0.77"/><circle cx="774" cy="174" r="0.8" fill="#f7ecd2" opacity="0.61"/><circle cx="960" cy="219" r="0.8" fill="#f7ecd2" opacity="0.75"/><circle cx="275" cy="123" r="1.8" fill="#f7ecd2" opacity="0.60"/><circle cx="807" cy="14" r="1.8" fill="#f7ecd2" opacity="0.83"/><circle cx="180" cy="16" r="1.3" fill="#f7ecd2" opacity="0.65"/><circle cx="146" cy="41" r="1.3" fill="#f7ecd2" opacity="0.71"/><circle cx="201" cy="105" r="0.8" fill="#f7ecd2" opacity="0.40"/><circle cx="753" cy="276" r="0.8" fill="#f7ecd2" opacity="0.63"/><circle cx="386" cy="178" r="0.8" fill="#f7ecd2" opacity="0.43"/><circle cx="132" cy="183" r="0.8" fill="#f7ecd2" opacity="0.41"/><circle cx="927" cy="67" r="1.3" fill="#f7ecd2" opacity="0.44"/><circle cx="299" cy="38" r="1.3" fill="#f7ecd2" opacity="0.47"/><circle cx="192" cy="180" r="0.8" fill="#f7ecd2" opacity="0.45"/><circle cx="918" cy="305" r="1.8" fill="#f7ecd2" opacity="0.75"/><circle cx="53" cy="69" r="1.8" fill="#f7ecd2" opacity="0.42"/><circle cx="645" cy="120" r="0.8" fill="#f7ecd2" opacity="0.35"/><circle cx="798" cy="162" r="0.8" fill="#f7ecd2" opacity="0.61"/><circle cx="104" cy="127" r="0.8" fill="#f7ecd2" opacity="0.43"/><circle cx="1179" cy="191" r="1.8" fill="#f7ecd2" opacity="0.74"/><circle cx="591" cy="42" r="0.8" fill="#f7ecd2" opacity="0.57"/><circle cx="980" cy="120" r="42" fill="#f6ecd0" opacity="0.95"/><circle cx="996" cy="112" r="36" fill="url(#sky)" opacity="0.92"/>
<path d="M 350 560 L 600 230 L 850 560 Z" fill="#12141c"/><path d="M 440 560 L 600 230 L 760 560 Z" fill="#f0ead9" opacity="0.22"/><path d="M 560 560 L 600 230 L 640 560 Z" fill="#d8b45a" opacity="0.5"/><path d="M 241 560 L 246 170 L 250 140 L 254 170 L 259 560 Z" fill="#12141c"/><path d="M 321 560 L 326 170 L 330 140 L 334 170 L 339 560 Z" fill="#12141c"/><path d="M 861 560 L 866 170 L 870 140 L 874 170 L 879 560 Z" fill="#12141c"/><path d="M 941 560 L 946 170 L 950 140 L 954 170 L 959 560 Z" fill="#12141c"/>
<rect x="0" y="560" width="1200" height="140" fill="#0c0e14"/>

<rect x="0" y="556" width="1200" height="4" fill="#d8b45a" opacity="0.55"/>
</svg>