<svg xmlns="http://www.w3.org/2000/svg" viewBox="0 0 1200 700" role="img">
<defs>
<linearGradient id="sky" x1="0" y1="0" x2="0" y2="1">
<stop offset="0" stop-color="#0a1026"/><stop offset="0.62" stop-color="#152046"/><stop offset="1" stop-color="#2b3a6b"/>
</linearGradient>
<pattern id="g1" width="120" height="120" patternUnits="userSpaceOnUse"><polygon points="111.6,60.0 80.0,68.3 96.5,96.5 68.3,80.0 60.0,111.6 51.7,80.0 23.5,96.5 40.0,68.3 8.4,60.0 40.0,51.7 23.5,23.5 51.7,40.0 60.0,8.4 68.3,40.0 96.5,23.5 80.0,51.7" fill="none" stroke="#e8d9a8" stroke-width="1.6" opacity="0.1"/><rect x="17.4" y="17.4" width="85.2" height="85.2" fill="none" stroke="#e8d9a8" stroke-width="1.6" opacity="0.06999999999999999" transform="rotate(45 60.0 60.0)"/></pattern>
</defs>
<rect width="1200" height="700" fill="url(#sky)"/>
<rect width="1200" height="700" fill="url(#g1)"/>
<circle cx="352" cy="32" r="0.8" fill="#f7ecd2" opacity="0.49"/><circle cx="674" cy="213" r="1.8" fill="#f7ecd2" opacity="0.47"/><circle cx="317" cy="85" r="0.8" fill="#f7ecd2" opacity="0.80"/><circle cx="793" cy="280" r="1.8" fill="#f7ecd2" opacity="0.75"/><circle cx="878" cy="254" r="1.3" fill="#f7ecd2" opacity="0.47"/><circle cx="20" cy="235" r="0.8" fill="#f7ecd2" opacity="0.35"/><circle cx="1123" cy="147" r="1.3" fill="#f7ecd2" opacity="0.66"/><circle cx="179" cy="182" r="1.3" fill="#f7ecd2" opacity="0.63"/><circle cx="1004" cy="316" r="0.8" fill="#f7ecd2" opacity="0.49"/><circle cx="166" cy="237" r="1.3" fill="#f7ecd2" opacity="0.77"/><circle cx="329" cy="249" r="1.8" fill="#f7ecd2" opacity="0.56"/><circle cx="365" cy="64" r="0.8" fill="#f7ecd2" opacity="0.45"/><circle cx="730" cy="218" r="0.8" fill="#f7ecd2" opacity="0.75"/><circle cx="1112" cy="219" r="1.8" fill="#f7ecd2" opacity="0.63"/><circle cx="335" cy="331" r="0.8" fill="#f7ecd2" opacity="0.70"/><circle cx="151" cy="126" r="1.3" fill="#f7ecd2" opacity="0.61"/><circle cx="56" cy="300" r="1.8" fill="#f7ecd2" opacity="0.35"/><circle cx="458" cy="241" r="0.8" fill="#f7ecd2" opacity="0.63"/><circle cx="1141" cy="53" r="0.8" fill="#f7ecd2" opacity="0.58"/><circle cx="737" cy="168" r="1.8" fill="#f7ecd2" opacity="0.51"/><circle cx="182" cy="22" r="0.8" fill="#f7ecd2" opacity="0.39"/><circle cx="604" cy="243" r="1.3" fill="#f7ecd2" opacity="0.57"/><circle cx="347" cy="155" r="1.3" fill="#f7ecd2" opacity="0.70"/><circle cx="923" cy="50" r="1.3" fill="#f7ecd2" opacity="0.35"/><circle cx="1108" cy="64" r="1.8" fill="#f7ecd2" opacity="0.47"/><circle cx="350" cy="85" r="0.8" fill="#f7ecd2" opacity="0.35"/><circle cx="353" cy="237" r="1.8" fill="#f7ecd2" opacity="0.46"/><circle cx="709" cy="112" r="1.8" fill="#f7ecd2" opacity="0.43"/><circle cx="434" cy="146" r="1.3" fill="#f7ecd2" opacity="0.49"/><circle cx="896" cy="247" r="0.8" fill="#f7ecd2" opacity="0.47"/><circle cx="1159" cy="299" r="0.8" fill="#f7ecd2" opacity="0.76"/><circle cx="95" cy="14" r="1.3" fill="#f7ecd2" opacity="0.65"/><circle cx="560" cy="208" r="0.8" fill="#f7ecd2" opacity="0.65"/><circle cx="1042" cy="249" r="1.3" fill="#f7ecd2" opacity="0.43"/><circle cx="365" cy="61" r="0.8" fill="#f7ecd2" opacity="0.50"/><circle cx="281" cy="236" r="1.3" fill="#f7ecd2" opacity="0.51"/><circle cx="286" cy="110" r="0.8" fill="#f7ecd2" opacity="0.45"/><circle cx="788" cy="91" r="0.8" fill="#f7ecd2" opacity="0.43"/><circle cx="371" cy="143" r="1.3" fill="#f7ecd2" opacity="0.38"/><circle cx="67" cy="298" r="1.8" fill="#f7ecd2" opacity="0.51"/><circle cx="812" cy="332" r="1.3" fill="#f7ecd2" opacity="0.69"/><circle cx="134" cy="113" r="1.3" fill="#f7ecd2" opacity="0.77"/><circle cx="1177" cy="205" r="1.8" fill="#f7ecd2" opacity="0.70"/><circle cx="653" cy="0" r="1.8" fill="#f7ecd2" opacity="0.35"/><circle cx="938" cy="54" r="1.8" fill="#f7ecd2" opacity="0.37"/><circle cx="280" cy="115" r="1.8" fill="#f7ecd2" opacity="0.35"/><circle cx="383" cy="307" r="0.8" fill="#f7ecd2" opacity="0.66"/><circle cx="839" cy="222" r="1.8" fill="#f7ecd2" opacity="0.43"/><circle cx="664" cy="296" r="0.8" fill="#f7ecd2" opacity="0.79"/><circle cx="26" cy="297" r="1.8" fill="#f7ecd2" opacity="0.57"/><circle cx="389" cy="49" r="0.8" fill="#f7ecd2" opacity="0.46"/><circle cx="625" cy="284" r="0.8" fill="#f7ecd2" opacity="0.35"/><circle cx="1190" cy="178" r="0.8" fill="#f7ecd2" opacity="0.55"/><circle cx="572" cy="119" r="1.3" fill="#f7ecd2" opacity="0.53"/><circle cx="1195" cy="111" r="1.3" fill="#f7ecd2" opacity="0.80"/><circle cx="11" cy="186" r="1.8" fill="#f7ecd2" opacity="0.81"/><circle cx="116" cy="100" r="0.8" fill="#f7ecd2" opacity="0.35"/><circle cx="718" cy="121" r="1.8" fill="#f7ecd2" opacity="0.63"/><circle cx="401" cy="213" r="1.8" fill="#f7ecd2" opacity="0.48"/><circle cx="197" cy="68" r="1.3" fill="#f7ecd2" opacity="0.81"/><circle cx="980" cy="120" r="42" fill="#f6ecd0" opacity="0.95"/><circle cx="996" cy="112" r="36" fill="url(#sky)" opacity="0.92"/>
<path d="M 350 560 L 600 230 L 850 560 Z" fill="#12141c"/><path d="M 440 560 L 600 230 L 760 560 Z" fill="#f0ead9" opacity="0.22"/><path d="M 560 560 L 600 230 L 640 560 Z" fill="#d8b45a" opacity="0.5"/><path d="M 241 560 L 246 170 L 250 140 L 254 170 L 259 560 Z" fill="#12141c"/><path d="M 321 560 L 326 170 L 330 140 L 334 170 L 339 560 Z" fill="#12141c"/><path d="M 861 560 L 866 170 L 870 140 L 874 170 L 879 560 Z" fill="#12141c"/><path d="M 941 560 L 946 170 L 950 140 L 954 170 L 959 560 Z" fill="#12141c"/>
<rect x="0" y="560" width="1200" height="140" fill="#0c0e14"/>

<rect x="0" y="556" width="1200" height="4" fill="#d8b45a" opacity="0.55"/>
</svg>