<svg xmlns="http://www.w3.org/2000/svg" viewBox="0 0 1200 700" role="img">
<defs>
<linearGradient id="sky" x1="0" y1="0" x2="0" y2="1">
<stop offset="0" stop-color="#0a1026"/><stop offset="0.62" stop-color="#152046"/><stop offset="1" stop-color="#2b3a6b"/>
</linearGradient>
<pattern id="g1" width="120" height="120" patternUnits="userSpaceOnUse"><polygon points="111.6,60.0 80.0,68.3 96.5,96.5 68.3,80.0 60.0,111.6 51.7,80.0 23.5,96.5 40.0,68.3 8.4,60.0 40.0,51.7 23.5,23.5 51.7,40.0 60.0,8.4 68.3,40.0 96.5,23.5 80.0,51.7" fill="none" stroke="#e8d9a8" stroke-width="1.6" opacity="0.1"/><rect x="17.4" y="17.4" width="85.2" height="85.2" fill="none" stroke="#e8d9a8" stroke-width="1.6" opacity="0.06999999999999999" transform="rotate(45 60.0 60.0)"/></pattern>
</defs>
<rect width="1200" height="700" fill="url(#sky)"/>
<rect width="1200" height="700" fill="url(#g1)"/>
<circle cx="405" cy="315" r="0.8" fill="#f7ecd2" opacity="0.60"/><circle cx="943" cy="52" r="1.8" fill="#f7ecd2" opacity="0.71"/><circle cx="754" cy="32" r="0.8" fill="#f7ecd2" opacity="0.63"/><circle cx="294" cy="111" r="0.8" fill="#f7ecd2" opacity="0.69"/><circle cx="451" cy="277" r="1.8" fill="#f7ecd2" opacity="0.62"/><circle cx="49" cy="114" r="1.3" fill="#f7ecd2" opacity="0.71"/><circle cx="840" cy="214" r="1.3" fill="#f7ecd2" opacity="0.45"/><circle cx="1120" cy="113" r="0.8" fill="#f7ecd2" opacity="0.45"/><circle cx="97" cy="79" r="1.8" fill="#f7ecd2" opacity="0.48"/><circle cx="1155" cy="296" r="1.8" fill="#f7ecd2" opacity="0.65"/><circle cx="526" cy="236" r="0.8" fill="#f7ecd2" opacity="0.71"/><circle cx="346" cy="155" r="0.8" fill="#f7ecd2" opacity="0.65"/><circle cx="543" cy="201" r="0.8" fill="#f7ecd2" opacity="0.78"/><circle cx="661" cy="178" r="1.8" fill="#f7ecd2" opacity="0.43"/><circle cx="1012" cy="238" r="1.8" fill="#f7ecd2" opacity="0.41"/><circle cx="372" cy="177" r="0.8" fill="#f7ecd2" opacity="0.79"/><circle cx="589" cy="163" r="1.8" fill="#f7ecd2" opacity="0.42"/><circle cx="967" cy="40" r="1.8" fill="#f7ecd2" opacity="0.65"/><circle cx="1098" cy="80" r="1.8" fill="#f7ecd2" opacity="0.75"/><circle cx="1198" cy="179" r="0.8" fill="#f7ecd2" opacity="0.77"/><circle cx="235" cy="305" r="0.8" fill="#f7ecd2" opacity="0.60"/><circle cx="873" cy="82" r="1.3" fill="#f7ecd2" opacity="0.71"/><circle cx="784" cy="102" r="1.3" fill="#f7ecd2" opacity="0.53"/><circle cx="424" cy="221" r="0.8" fill="#f7ecd2" opacity="0.39"/><circle cx="681" cy="87" r="0.8" fill="#f7ecd2" opacity="0.82"/><circle cx="379" cy="304" r="1.8" fill="#f7ecd2" opacity="0.51"/><circle cx="70" cy="304" r="1.8" fill="#f7ecd2" opacity="0.65"/><circle cx="450" cy="243" r="0.8" fill="#f7ecd2" opacity="0.35"/><circle cx="727" cy="49" r="1.8" fill="#f7ecd2" opacity="0.58"/><circle cx="685" cy="166" r="1.8" fill="#f7ecd2" opacity="0.45"/><circle cx="156" cy="146" r="1.8" fill="#f7ecd2" opacity="0.61"/><circle cx="76" cy="105" r="1.3" fill="#f7ecd2" opacity="0.65"/><circle cx="373" cy="191" r="0.8" fill="#f7ecd2" opacity="0.78"/><circle cx="591" cy="208" r="1.3" fill="#f7ecd2" opacity="0.63"/><circle cx="1042" cy="308" r="0.8" fill="#f7ecd2" opacity="0.71"/><circle cx="502" cy="287" r="0.8" fill="#f7ecd2" opacity="0.59"/><circle cx="819" cy="313" r="1.3" fill="#f7ecd2" opacity="0.82"/><circle cx="97" cy="90" r="1.3" fill="#f7ecd2" opacity="0.65"/><circle cx="328" cy="170" r="0.8" fill="#f7ecd2" opacity="0.45"/><circle cx="528" cy="309" r="0.8" fill="#f7ecd2" opacity="0.37"/><circle cx="865" cy="275" r="0.8" fill="#f7ecd2" opacity="0.60"/><circle cx="403" cy="292" r="1.8" fill="#f7ecd2" opacity="0.61"/><circle cx="414" cy="12" r="0.8" fill="#f7ecd2" opacity="0.53"/><circle cx="154" cy="171" r="1.3" fill="#f7ecd2" opacity="0.69"/><circle cx="511" cy="77" r="0.8" fill="#f7ecd2" opacity="0.82"/><circle cx="309" cy="334" r="1.3" fill="#f7ecd2" opacity="0.41"/><circle cx="100" cy="34" r="1.8" fill="#f7ecd2" opacity="0.35"/><circle cx="580" cy="13" r="1.8" fill="#f7ecd2" opacity="0.75"/><circle cx="957" cy="199" r="1.3" fill="#f7ecd2" opacity="0.78"/><circle cx="1015" cy="16" r="1.8" fill="#f7ecd2" opacity="0.75"/><circle cx="586" cy="36" r="1.3" fill="#f7ecd2" opacity="0.81"/><circle cx="606" cy="35" r="1.8" fill="#f7ecd2" opacity="0.45"/><circle cx="1003" cy="161" r="0.8" fill="#f7ecd2" opacity="0.68"/><circle cx="121" cy="78" r="1.3" fill="#f7ecd2" opacity="0.73"/><circle cx="672" cy="218" r="1.8" fill="#f7ecd2" opacity="0.81"/><circle cx="232" cy="237" r="1.3" fill="#f7ecd2" opacity="0.69"/><circle cx="649" cy="303" r="1.3" fill="#f7ecd2" opacity="0.82"/><circle cx="27" cy="120" r="0.8" fill="#f7ecd2" opacity="0.75"/><circle cx="358" cy="240" r="1.3" fill="#f7ecd2" opacity="0.55"/><circle cx="658" cy="79" r="1.8" fill="#f7ecd2" opacity="0.67"/><circle cx="980" cy="120" r="42" fill="#f6ecd0" opacity="0.95"/><circle cx="996" cy="112" r="36" fill="url(#sky)" opacity="0.92"/>
<path d="M 350 560 L 600 230 L 850 560 Z" fill="#12141c"/><path d="M 440 560 L 600 230 L 760 560 Z" fill="#f0ead9" opacity="0.22"/><path d="M 560 560 L 600 230 L 640 560 Z" fill="#d8b45a" opacity="0.5"/><path d="M 241 560 L 246 170 L 250 140 L 254 170 L 259 560 Z" fill="#12141c"/><path d="M 321 560 L 326 170 L 330 140 L 334 170 L 339 560 Z" fill="#12141c"/><path d="M 861 560 L 866 170 L 870 140 L 874 170 L 879 560 Z" fill="#12141c"/><path d="M 941 560 L 946 170 L 950 140 L 954 170 L 959 560 Z" fill="#12141c"/>
<rect x="0" y="560" width="1200" height="140" fill="#0c0e14"/>

<rect x="0" y="556" width="1200" height="4" fill="#d8b45a" opacity="0.55"/>
</svg>