<svg xmlns="http://www.w3.org/2000/svg" viewBox="0 0 1200 700" role="img">
<defs>
<linearGradient id="sky" x1="0" y1="0" x2="0" y2="1">
<stop offset="0" stop-color="#0a1026"/><stop offset="0.62" stop-color="#152046"/><stop offset="1" stop-color="#2b3a6b"/>
</linearGradient>
<pattern id="g1" width="120" height="120" patternUnits="userSpaceOnUse"><polygon points="111.6,60.0 80.0,68.3 96.5,96.5 68.3,80.0 60.0,111.6 51.7,80.0 23.5,96.5 40.0,68.3 8.4,60.0 40.0,51.7 23.5,23.5 51.7,40.0 60.0,8.4 68.3,40.0 96.5,23.5 80.0,51.7" fill="none" stroke="#e8d9a8" stroke-width="1.6" opacity="0.1"/><rect x="17.4" y="17.4" width="85.2" height="85.2" fill="none" stroke="#e8d9a8" stroke-width="1.6" opacity="0.06999999999999999" transform="rotate(45 60.0 60.0)"/></pattern>
</defs>
<rect width="1200" height="700" fill="url(#sky)"/>
<rect width="1200" height="700" fill="url(#g1)"/>
<circle cx="34" cy="34" r="1.8" fill="#f7ecd2" opacity="0.41"/><circle cx="260" cy="299" r="1.3" fill="#f7ecd2" opacity="0.75"/><circle cx="95" cy="3" r="1.8" fill="#f7ecd2" opacity="0.70"/><circle cx="187" cy="194" r="0.8" fill="#f7ecd2" opacity="0.63"/><circle cx="1040" cy="176" r="1.3" fill="#f7ecd2" opacity="0.75"/><circle cx="1046" cy="81" r="1.8" fill="#f7ecd2" opacity="0.61"/><circle cx="421" cy="145" r="1.8" fill="#f7ecd2" opacity="0.80"/><circle cx="533" cy="276" r="1.8" fill="#f7ecd2" opacity="0.43"/><circle cx="446" cy="18" r="1.8" fill="#f7ecd2" opacity="0.63"/><circle cx="232" cy="243" r="1.3" fill="#f7ecd2" opacity="0.61"/><circle cx="347" cy="127" r="0.8" fill="#f7ecd2" opacity="0.54"/><circle cx="479" cy="198" r="1.8" fill="#f7ecd2" opacity="0.77"/><circle cx="652" cy="180" r="1.3" fill="#f7ecd2" opacity="0.45"/><circle cx="218" cy="45" r="1.8" fill="#f7ecd2" opacity="0.45"/><circle cx="1073" cy="89" r="1.3" fill="#f7ecd2" opacity="0.82"/><circle cx="25" cy="300" r="1.3" fill="#f7ecd2" opacity="0.35"/><circle cx="458" cy="182" r="1.3" fill="#f7ecd2" opacity="0.41"/><circle cx="1004" cy="167" r="1.3" fill="#f7ecd2" opacity="0.53"/><circle cx="199" cy="91" r="1.8" fill="#f7ecd2" opacity="0.44"/><circle cx="371" cy="42" r="1.8" fill="#f7ecd2" opacity="0.67"/><circle cx="1064" cy="164" r="1.3" fill="#f7ecd2" opacity="0.81"/><circle cx="190" cy="329" r="0.8" fill="#f7ecd2" opacity="0.45"/><circle cx="125" cy="73" r="0.8" fill="#f7ecd2" opacity="0.60"/><circle cx="317" cy="304" r="0.8" fill="#f7ecd2" opacity="0.53"/><circle cx="70" cy="186" r="1.3" fill="#f7ecd2" opacity="0.55"/><circle cx="176" cy="131" r="1.3" fill="#f7ecd2" opacity="0.41"/><circle cx="851" cy="35" r="1.3" fill="#f7ecd2" opacity="0.70"/><circle cx="1063" cy="206" r="0.8" fill="#f7ecd2" opacity="0.63"/><circle cx="1076" cy="328" r="0.8" fill="#f7ecd2" opacity="0.63"/><circle cx="962" cy="253" r="0.8" fill="#f7ecd2" opacity="0.71"/><circle cx="1177" cy="177" r="1.3" fill="#f7ecd2" opacity="0.64"/><circle cx="209" cy="148" r="0.8" fill="#f7ecd2" opacity="0.67"/><circle cx="482" cy="170" r="1.3" fill="#f7ecd2" opacity="0.75"/><circle cx="148" cy="75" r="1.3" fill="#f7ecd2" opacity="0.35"/><circle cx="1103" cy="159" r="1.8" fill="#f7ecd2" opacity="0.62"/><circle cx="155" cy="70" r="0.8" fill="#f7ecd2" opacity="0.35"/><circle cx="688" cy="332" r="0.8" fill="#f7ecd2" opacity="0.51"/><circle cx="134" cy="217" r="0.8" fill="#f7ecd2" opacity="0.63"/><circle cx="629" cy="321" r="1.8" fill="#f7ecd2" opacity="0.44"/><circle cx="901" cy="312" r="1.3" fill="#f7ecd2" opacity="0.47"/><circle cx="494" cy="334" r="0.8" fill="#f7ecd2" opacity="0.81"/><circle cx="920" cy="339" r="1.8" fill="#f7ecd2" opacity="0.65"/><circle cx="955" cy="123" r="1.3" fill="#f7ecd2" opacity="0.50"/><circle cx="47" cy="254" r="1.3" fill="#f7ecd2" opacity="0.73"/><circle cx="1100" cy="316" r="0.8" fill="#f7ecd2" opacity="0.35"/><circle cx="106" cy="161" r="0.8" fill="#f7ecd2" opacity="0.51"/><circle cx="881" cy="105" r="1.8" fill="#f7ecd2" opacity="0.40"/><circle cx="1193" cy="316" r="0.8" fill="#f7ecd2" opacity="0.73"/><circle cx="106" cy="338" r="0.8" fill="#f7ecd2" opacity="0.63"/><circle cx="92" cy="303" r="1.8" fill="#f7ecd2" opacity="0.61"/><circle cx="407" cy="267" r="1.8" fill="#f7ecd2" opacity="0.54"/><circle cx="739" cy="78" r="1.3" fill="#f7ecd2" opacity="0.77"/><circle cx="1112" cy="140" r="1.3" fill="#f7ecd2" opacity="0.65"/><circle cx="878" cy="85" r="0.8" fill="#f7ecd2" opacity="0.65"/><circle cx="733" cy="69" r="1.3" fill="#f7ecd2" opacity="0.62"/><circle cx="1085" cy="160" r="0.8" fill="#f7ecd2" opacity="0.35"/><circle cx="518" cy="322" r="0.8" fill="#f7ecd2" opacity="0.81"/><circle cx="64" cy="247" r="1.8" fill="#f7ecd2" opacity="0.43"/><circle cx="659" cy="51" r="1.8" fill="#f7ecd2" opacity="0.44"/><circle cx="1031" cy="82" r="0.8" fill="#f7ecd2" opacity="0.77"/><circle cx="980" cy="120" r="42" fill="#f6ecd0" opacity="0.95"/><circle cx="996" cy="112" r="36" fill="url(#sky)" opacity="0.92"/>
<path d="M 350 560 L 600 230 L 850 560 Z" fill="#12141c"/><path d="M 440 560 L 600 230 L 760 560 Z" fill="#f0ead9" opacity="0.22"/><path d="M 560 560 L 600 230 L 640 560 Z" fill="#d8b45a" opacity="0.5"/><path d="M 241 560 L 246 170 L 250 140 L 254 170 L 259 560 Z" fill="#12141c"/><path d="M 321 560 L 326 170 L 330 140 L 334 170 L 339 560 Z" fill="#12141c"/><path d="M 861 560 L 866 170 L 870 140 L 874 170 L 879 560 Z" fill="#12141c"/><path d="M 941 560 L 946 170 L 950 140 L 954 170 L 959 560 Z" fill="#12141c"/>
<rect x="0" y="560" width="1200" height="140" fill="#0c0e14"/>

<rect x="0" y="556" width="1200" height="4" fill="#d8b45a" opacity="0.55"/>
</svg>