<svg xmlns="http://www.w3.org/2000/svg" viewBox="0 0 1200 700" role="img">
<defs>
<linearGradient id="sky" x1="0" y1="0" x2="0" y2="1">
<stop offset="0" stop-color="#0a1026"/><stop offset="0.62" stop-color="#152046"/><stop offset="1" stop-color="#2b3a6b"/>
</linearGradient>
<pattern id="g1" width="120" height="120" patternUnits="userSpaceOnUse"><polygon points="111.6,60.0 80.0,68.3 96.5,96.5 68.3,80.0 60.0,111.6 51.7,80.0 23.5,96.5 40.0,68.3 8.4,60.0 40.0,51.7 23.5,23.5 51.7,40.0 60.0,8.4 68.3,40.0 96.5,23.5 80.0,51.7" fill="none" stroke="#e8d9a8" stroke-width="1.6" opacity="0.1"/><rect x="17.4" y="17.4" width="85.2" height="85.2" fill="none" stroke="#e8d9a8" stroke-width="1.6" opacity="0.06999999999999999" transform="rotate(45 60.0 60.0)"/></pattern>
</defs>
<rect width="1200" height="700" fill="url(#sky)"/>
<rect width="1200" height="700" fill="url(#g1)"/>
<circle cx="1150" cy="290" r="0.8" fill="#f7ecd2" opacity="0.35"/><circle cx="128" cy="287" r="1.3" fill="#f7ecd2" opacity="0.71"/><circle cx="59" cy="247" r="0.8" fill="#f7ecd2" opacity="0.58"/><circle cx="1159" cy="66" r="1.3" fill="#f7ecd2" opacity="0.79"/><circle cx="1196" cy="252" r="1.8" fill="#f7ecd2" opacity="0.77"/><circle cx="434" cy="149" r="1.3" fill="#f7ecd2" opacity="0.51"/><circle cx="145" cy="89" r="0.8" fill="#f7ecd2" opacity="0.40"/><circle cx="785" cy="268" r="0.8" fill="#f7ecd2" opacity="0.65"/><circle cx="842" cy="54" r="1.8" fill="#f7ecd2" opacity="0.53"/><circle cx="340" cy="191" r="0.8" fill="#f7ecd2" opacity="0.75"/><circle cx="1031" cy="251" r="1.3" fill="#f7ecd2" opacity="0.66"/><circle cx="11" cy="310" r="0.8" fill="#f7ecd2" opacity="0.45"/><circle cx="88" cy="36" r="1.3" fill="#f7ecd2" opacity="0.53"/><circle cx="1046" cy="213" r="1.8" fill="#f7ecd2" opacity="0.83"/><circle cx="317" cy="113" r="1.3" fill="#f7ecd2" opacity="0.56"/><circle cx="37" cy="332" r="0.8" fill="#f7ecd2" opacity="0.69"/><circle cx="134" cy="338" r="1.3" fill="#f7ecd2" opacity="0.77"/><circle cx="152" cy="275" r="1.3" fill="#f7ecd2" opacity="0.35"/><circle cx="403" cy="295" r="1.8" fill="#f7ecd2" opacity="0.70"/><circle cx="863" cy="334" r="0.8" fill="#f7ecd2" opacity="0.77"/><circle cx="980" cy="280" r="0.8" fill="#f7ecd2" opacity="0.35"/><circle cx="58" cy="317" r="0.8" fill="#f7ecd2" opacity="0.71"/><circle cx="89" cy="317" r="1.3" fill="#f7ecd2" opacity="0.48"/><circle cx="89" cy="36" r="1.8" fill="#f7ecd2" opacity="0.39"/><circle cx="226" cy="262" r="1.8" fill="#f7ecd2" opacity="0.47"/><circle cx="764" cy="339" r="1.8" fill="#f7ecd2" opacity="0.81"/><circle cx="575" cy="319" r="0.8" fill="#f7ecd2" opacity="0.60"/><circle cx="115" cy="58" r="1.8" fill="#f7ecd2" opacity="0.55"/><circle cx="272" cy="224" r="1.3" fill="#f7ecd2" opacity="0.63"/><circle cx="1070" cy="201" r="1.8" fill="#f7ecd2" opacity="0.55"/><circle cx="661" cy="161" r="0.8" fill="#f7ecd2" opacity="0.56"/><circle cx="941" cy="60" r="1.8" fill="#f7ecd2" opacity="0.45"/><circle cx="1118" cy="166" r="0.8" fill="#f7ecd2" opacity="0.73"/><circle cx="976" cy="243" r="1.3" fill="#f7ecd2" opacity="0.53"/><circle cx="347" cy="183" r="1.8" fill="#f7ecd2" opacity="0.36"/><circle cx="167" cy="102" r="1.8" fill="#f7ecd2" opacity="0.69"/><circle cx="364" cy="148" r="1.8" fill="#f7ecd2" opacity="0.57"/><circle cx="482" cy="125" r="1.3" fill="#f7ecd2" opacity="0.35"/><circle cx="833" cy="185" r="1.3" fill="#f7ecd2" opacity="0.40"/><circle cx="193" cy="124" r="1.8" fill="#f7ecd2" opacity="0.67"/><circle cx="410" cy="110" r="1.3" fill="#f7ecd2" opacity="0.35"/><circle cx="788" cy="327" r="1.8" fill="#f7ecd2" opacity="0.61"/><circle cx="919" cy="27" r="1.3" fill="#f7ecd2" opacity="0.48"/><circle cx="1019" cy="126" r="1.8" fill="#f7ecd2" opacity="0.79"/><circle cx="56" cy="252" r="1.8" fill="#f7ecd2" opacity="0.47"/><circle cx="694" cy="29" r="0.8" fill="#f7ecd2" opacity="0.61"/><circle cx="605" cy="49" r="0.8" fill="#f7ecd2" opacity="0.80"/><circle cx="245" cy="168" r="1.8" fill="#f7ecd2" opacity="0.45"/><circle cx="502" cy="34" r="1.8" fill="#f7ecd2" opacity="0.53"/><circle cx="200" cy="251" r="1.3" fill="#f7ecd2" opacity="0.35"/><circle cx="1091" cy="51" r="1.8" fill="#f7ecd2" opacity="0.76"/><circle cx="271" cy="190" r="1.8" fill="#f7ecd2" opacity="0.75"/><circle cx="548" cy="336" r="1.8" fill="#f7ecd2" opacity="0.63"/><circle cx="506" cy="113" r="1.3" fill="#f7ecd2" opacity="0.63"/><circle cx="1177" cy="233" r="0.8" fill="#f7ecd2" opacity="0.76"/><circle cx="1097" cy="192" r="1.8" fill="#f7ecd2" opacity="0.59"/><circle cx="194" cy="138" r="1.8" fill="#f7ecd2" opacity="0.57"/><circle cx="412" cy="155" r="0.8" fill="#f7ecd2" opacity="0.45"/><circle cx="863" cy="255" r="1.8" fill="#f7ecd2" opacity="0.50"/><circle cx="323" cy="234" r="1.8" fill="#f7ecd2" opacity="0.67"/><circle cx="980" cy="120" r="42" fill="#f6ecd0" opacity="0.95"/><circle cx="996" cy="112" r="36" fill="url(#sky)" opacity="0.92"/>
<path d="M 350 560 L 600 230 L 850 560 Z" fill="#12141c"/><path d="M 440 560 L 600 230 L 760 560 Z" fill="#f0ead9" opacity="0.22"/><path d="M 560 560 L 600 230 L 640 560 Z" fill="#d8b45a" opacity="0.5"/><path d="M 241 560 L 246 170 L 250 140 L 254 170 L 259 560 Z" fill="#12141c"/><path d="M 321 560 L 326 170 L 330 140 L 334 170 L 339 560 Z" fill="#12141c"/><path d="M 861 560 L 866 170 L 870 140 L 874 170 L 879 560 Z" fill="#12141c"/><path d="M 941 560 L 946 170 L 950 140 L 954 170 L 959 560 Z" fill="#12141c"/>
<rect x="0" y="560" width="1200" height="140" fill="#0c0e14"/>

<rect x="0" y="556" width="1200" height="4" fill="#d8b45a" opacity="0.55"/>
</svg>