<svg xmlns="http://www.w3.org/2000/svg" viewBox="0 0 1200 700" role="img">
<defs>
<linearGradient id="sky" x1="0" y1="0" x2="0" y2="1">
<stop offset="0" stop-color="#0a1026"/><stop offset="0.62" stop-color="#152046"/><stop offset="1" stop-color="#2b3a6b"/>
</linearGradient>
<pattern id="g1" width="120" height="120" patternUnits="userSpaceOnUse"><polygon points="111.6,60.0 80.0,68.3 96.5,96.5 68.3,80.0 60.0,111.6 51.7,80.0 23.5,96.5 40.0,68.3 8.4,60.0 40.0,51.7 23.5,23.5 51.7,40.0 60.0,8.4 68.3,40.0 96.5,23.5 80.0,51.7" fill="none" stroke="#e8d9a8" stroke-width="1.6" opacity="0.1"/><rect x="17.4" y="17.4" width="85.2" height="85.2" fill="none" stroke="#e8d9a8" stroke-width="1.6" opacity="0.06999999999999999" transform="rotate(45 60.0 60.0)"/></pattern>
</defs>
<rect width="1200" height="700" fill="url(#sky)"/>
<rect width="1200" height="700" fill="url(#g1)"/>
<circle cx="541" cy="111" r="1.3" fill="#f7ecd2" opacity="0.36"/><circle cx="71" cy="220" r="0.8" fill="#f7ecd2" opacity="0.55"/><circle cx="698" cy="336" r="1.8" fill="#f7ecd2" opacity="0.63"/><circle cx="1006" cy="83" r="0.8" fill="#f7ecd2" opacity="0.83"/><circle cx="827" cy="33" r="1.8" fill="#f7ecd2" opacity="0.76"/><circle cx="1097" cy="302" r="1.3" fill="#f7ecd2" opacity="0.79"/><circle cx="544" cy="218" r="0.8" fill="#f7ecd2" opacity="0.77"/><circle cx="1112" cy="205" r="0.8" fill="#f7ecd2" opacity="0.45"/><circle cx="713" cy="135" r="1.8" fill="#f7ecd2" opacity="0.40"/><circle cx="523" cy="84" r="1.3" fill="#f7ecd2" opacity="0.67"/><circle cx="1190" cy="80" r="1.3" fill="#f7ecd2" opacity="0.35"/><circle cx="818" cy="167" r="1.3" fill="#f7ecd2" opacity="0.41"/><circle cx="199" cy="77" r="0.8" fill="#f7ecd2" opacity="0.58"/><circle cx="749" cy="186" r="1.8" fill="#f7ecd2" opacity="0.49"/><circle cx="236" cy="322" r="0.8" fill="#f7ecd2" opacity="0.77"/><circle cx="124" cy="309" r="1.3" fill="#f7ecd2" opacity="0.51"/><circle cx="485" cy="339" r="1.8" fill="#f7ecd2" opacity="0.50"/><circle cx="575" cy="128" r="1.3" fill="#f7ecd2" opacity="0.35"/><circle cx="82" cy="204" r="1.3" fill="#f7ecd2" opacity="0.63"/><circle cx="230" cy="91" r="0.8" fill="#f7ecd2" opacity="0.65"/><circle cx="371" cy="101" r="1.3" fill="#f7ecd2" opacity="0.56"/><circle cx="1" cy="250" r="1.8" fill="#f7ecd2" opacity="0.35"/><circle cx="728" cy="66" r="1.8" fill="#f7ecd2" opacity="0.83"/><circle cx="1136" cy="193" r="0.8" fill="#f7ecd2" opacity="0.83"/><circle cx="1057" cy="183" r="1.3" fill="#f7ecd2" opacity="0.66"/><circle cx="227" cy="12" r="1.8" fill="#f7ecd2" opacity="0.59"/><circle cx="974" cy="108" r="1.8" fill="#f7ecd2" opacity="0.77"/><circle cx="442" cy="335" r="0.8" fill="#f7ecd2" opacity="0.55"/><circle cx="143" cy="305" r="1.3" fill="#f7ecd2" opacity="0.50"/><circle cx="53" cy="294" r="1.8" fill="#f7ecd2" opacity="0.67"/><circle cx="820" cy="330" r="1.3" fill="#f7ecd2" opacity="0.35"/><circle cx="548" cy="117" r="1.8" fill="#f7ecd2" opacity="0.51"/><circle cx="29" cy="67" r="0.8" fill="#f7ecd2" opacity="0.78"/><circle cx="679" cy="216" r="1.3" fill="#f7ecd2" opacity="0.49"/><circle cx="266" cy="52" r="0.8" fill="#f7ecd2" opacity="0.67"/><circle cx="254" cy="79" r="0.8" fill="#f7ecd2" opacity="0.51"/><circle cx="715" cy="149" r="0.8" fill="#f7ecd2" opacity="0.70"/><circle cx="905" cy="318" r="1.8" fill="#f7ecd2" opacity="0.75"/><circle cx="512" cy="94" r="0.8" fill="#f7ecd2" opacity="0.63"/><circle cx="760" cy="21" r="1.3" fill="#f7ecd2" opacity="0.45"/><circle cx="1001" cy="71" r="1.3" fill="#f7ecd2" opacity="0.56"/><circle cx="731" cy="260" r="1.3" fill="#f7ecd2" opacity="0.45"/><circle cx="358" cy="316" r="1.8" fill="#f7ecd2" opacity="0.63"/><circle cx="866" cy="143" r="1.3" fill="#f7ecd2" opacity="0.73"/><circle cx="887" cy="173" r="1.3" fill="#f7ecd2" opacity="0.36"/><circle cx="157" cy="42" r="1.3" fill="#f7ecd2" opacity="0.79"/><circle cx="1004" cy="178" r="0.8" fill="#f7ecd2" opacity="0.47"/><circle cx="572" cy="105" r="1.8" fill="#f7ecd2" opacity="0.45"/><circle cx="373" cy="115" r="1.8" fill="#f7ecd2" opacity="0.80"/><circle cx="383" cy="144" r="1.8" fill="#f7ecd2" opacity="0.37"/><circle cx="50" cy="80" r="1.3" fill="#f7ecd2" opacity="0.35"/><circle cx="1078" cy="47" r="0.8" fill="#f7ecd2" opacity="0.51"/><circle cx="659" cy="37" r="0.8" fill="#f7ecd2" opacity="0.68"/><circle cx="209" cy="86" r="1.3" fill="#f7ecd2" opacity="0.59"/><circle cx="1096" cy="102" r="1.3" fill="#f7ecd2" opacity="0.77"/><circle cx="1184" cy="169" r="0.8" fill="#f7ecd2" opacity="0.81"/><circle cx="545" cy="139" r="0.8" fill="#f7ecd2" opacity="0.40"/><circle cx="835" cy="8" r="0.8" fill="#f7ecd2" opacity="0.65"/><circle cx="542" cy="164" r="1.3" fill="#f7ecd2" opacity="0.73"/><circle cx="890" cy="131" r="1.3" fill="#f7ecd2" opacity="0.75"/><circle cx="980" cy="120" r="42" fill="#f6ecd0" opacity="0.95"/><circle cx="996" cy="112" r="36" fill="url(#sky)" opacity="0.92"/>
<path d="M 350 560 L 600 230 L 850 560 Z" fill="#12141c"/><path d="M 440 560 L 600 230 L 760 560 Z" fill="#f0ead9" opacity="0.22"/><path d="M 560 560 L 600 230 L 640 560 Z" fill="#d8b45a" opacity="0.5"/><path d="M 241 560 L 246 170 L 250 140 L 254 170 L 259 560 Z" fill="#12141c"/><path d="M 321 560 L 326 170 L 330 140 L 334 170 L 339 560 Z" fill="#12141c"/><path d="M 861 560 L 866 170 L 870 140 L 874 170 L 879 560 Z" fill="#12141c"/><path d="M 941 560 L 946 170 L 950 140 L 954 170 L 959 560 Z" fill="#12141c"/>
<rect x="0" y="560" width="1200" height="140" fill="#0c0e14"/>

<rect x="0" y="556" width="1200" height="4" fill="#d8b45a" opacity="0.55"/>
</svg>