<svg xmlns="http://www.w3.org/2000/svg" viewBox="0 0 1200 700" role="img">
<defs>
<linearGradient id="sky" x1="0" y1="0" x2="0" y2="1">
<stop offset="0" stop-color="#0a1026"/><stop offset="0.62" stop-color="#152046"/><stop offset="1" stop-color="#2b3a6b"/>
</linearGradient>
<pattern id="g1" width="120" height="120" patternUnits="userSpaceOnUse"><polygon points="111.6,60.0 80.0,68.3 96.5,96.5 68.3,80.0 60.0,111.6 51.7,80.0 23.5,96.5 40.0,68.3 8.4,60.0 40.0,51.7 23.5,23.5 51.7,40.0 60.0,8.4 68.3,40.0 96.5,23.5 80.0,51.7" fill="none" stroke="#e8d9a8" stroke-width="1.6" opacity="0.1"/><rect x="17.4" y="17.4" width="85.2" height="85.2" fill="none" stroke="#e8d9a8" stroke-width="1.6" opacity="0.06999999999999999" transform="rotate(45 60.0 60.0)"/></pattern>
</defs>
<rect width="1200" height="700" fill="url(#sky)"/>
<rect width="1200" height="700" fill="url(#g1)"/>
<circle cx="141" cy="291" r="0.8" fill="#f7ecd2" opacity="0.66"/><circle cx="871" cy="200" r="0.8" fill="#f7ecd2" opacity="0.35"/><circle cx="298" cy="176" r="0.8" fill="#f7ecd2" opacity="0.83"/><circle cx="606" cy="263" r="1.8" fill="#f7ecd2" opacity="0.63"/><circle cx="427" cy="213" r="1.3" fill="#f7ecd2" opacity="0.36"/><circle cx="697" cy="142" r="1.8" fill="#f7ecd2" opacity="0.59"/><circle cx="144" cy="58" r="1.3" fill="#f7ecd2" opacity="0.37"/><circle cx="712" cy="45" r="1.3" fill="#f7ecd2" opacity="0.75"/><circle cx="313" cy="315" r="1.3" fill="#f7ecd2" opacity="0.80"/><circle cx="123" cy="264" r="0.8" fill="#f7ecd2" opacity="0.57"/><circle cx="790" cy="260" r="0.8" fill="#f7ecd2" opacity="0.35"/><circle cx="418" cy="7" r="1.8" fill="#f7ecd2" opacity="0.61"/><circle cx="999" cy="57" r="0.8" fill="#f7ecd2" opacity="0.78"/><circle cx="349" cy="26" r="0.8" fill="#f7ecd2" opacity="0.59"/><circle cx="1036" cy="302" r="0.8" fill="#f7ecd2" opacity="0.57"/><circle cx="924" cy="289" r="1.3" fill="#f7ecd2" opacity="0.71"/><circle cx="85" cy="179" r="0.8" fill="#f7ecd2" opacity="0.50"/><circle cx="175" cy="308" r="0.8" fill="#f7ecd2" opacity="0.35"/><circle cx="882" cy="184" r="1.3" fill="#f7ecd2" opacity="0.73"/><circle cx="1030" cy="71" r="0.8" fill="#f7ecd2" opacity="0.65"/><circle cx="1171" cy="81" r="1.3" fill="#f7ecd2" opacity="0.36"/><circle cx="801" cy="230" r="1.8" fill="#f7ecd2" opacity="0.65"/><circle cx="328" cy="246" r="1.3" fill="#f7ecd2" opacity="0.73"/><circle cx="736" cy="33" r="1.3" fill="#f7ecd2" opacity="0.73"/><circle cx="657" cy="23" r="1.8" fill="#f7ecd2" opacity="0.46"/><circle cx="1027" cy="332" r="0.8" fill="#f7ecd2" opacity="0.49"/><circle cx="574" cy="288" r="1.3" fill="#f7ecd2" opacity="0.47"/><circle cx="42" cy="175" r="1.3" fill="#f7ecd2" opacity="0.35"/><circle cx="943" cy="285" r="1.3" fill="#f7ecd2" opacity="0.40"/><circle cx="853" cy="274" r="1.8" fill="#f7ecd2" opacity="0.57"/><circle cx="420" cy="170" r="1.8" fill="#f7ecd2" opacity="0.35"/><circle cx="148" cy="297" r="1.3" fill="#f7ecd2" opacity="0.41"/><circle cx="829" cy="47" r="0.8" fill="#f7ecd2" opacity="0.48"/><circle cx="279" cy="56" r="1.8" fill="#f7ecd2" opacity="0.59"/><circle cx="1066" cy="32" r="0.8" fill="#f7ecd2" opacity="0.47"/><circle cx="1054" cy="59" r="0.8" fill="#f7ecd2" opacity="0.71"/><circle cx="315" cy="329" r="1.8" fill="#f7ecd2" opacity="0.70"/><circle cx="505" cy="158" r="0.8" fill="#f7ecd2" opacity="0.75"/><circle cx="112" cy="274" r="1.8" fill="#f7ecd2" opacity="0.73"/><circle cx="360" cy="201" r="0.8" fill="#f7ecd2" opacity="0.45"/><circle cx="601" cy="251" r="0.8" fill="#f7ecd2" opacity="0.36"/><circle cx="331" cy="100" r="1.8" fill="#f7ecd2" opacity="0.35"/><circle cx="1158" cy="296" r="1.8" fill="#f7ecd2" opacity="0.53"/><circle cx="466" cy="323" r="0.8" fill="#f7ecd2" opacity="0.53"/><circle cx="487" cy="13" r="1.8" fill="#f7ecd2" opacity="0.66"/><circle cx="957" cy="22" r="1.3" fill="#f7ecd2" opacity="0.39"/><circle cx="604" cy="18" r="1.3" fill="#f7ecd2" opacity="0.57"/><circle cx="172" cy="285" r="1.3" fill="#f7ecd2" opacity="0.55"/><circle cx="1173" cy="95" r="1.8" fill="#f7ecd2" opacity="0.70"/><circle cx="1183" cy="124" r="1.8" fill="#f7ecd2" opacity="0.77"/><circle cx="850" cy="60" r="1.3" fill="#f7ecd2" opacity="0.35"/><circle cx="678" cy="227" r="1.8" fill="#f7ecd2" opacity="0.41"/><circle cx="259" cy="217" r="1.8" fill="#f7ecd2" opacity="0.38"/><circle cx="1009" cy="66" r="1.3" fill="#f7ecd2" opacity="0.79"/><circle cx="696" cy="282" r="0.8" fill="#f7ecd2" opacity="0.57"/><circle cx="784" cy="9" r="1.3" fill="#f7ecd2" opacity="0.41"/><circle cx="145" cy="319" r="1.8" fill="#f7ecd2" opacity="0.40"/><circle cx="435" cy="188" r="1.8" fill="#f7ecd2" opacity="0.65"/><circle cx="142" cy="4" r="1.8" fill="#f7ecd2" opacity="0.53"/><circle cx="490" cy="311" r="0.8" fill="#f7ecd2" opacity="0.75"/><circle cx="980" cy="120" r="42" fill="#f6ecd0" opacity="0.95"/><circle cx="996" cy="112" r="36" fill="url(#sky)" opacity="0.92"/>
<path d="M 350 560 L 600 230 L 850 560 Z" fill="#12141c"/><path d="M 440 560 L 600 230 L 760 560 Z" fill="#f0ead9" opacity="0.22"/><path d="M 560 560 L 600 230 L 640 560 Z" fill="#d8b45a" opacity="0.5"/><path d="M 241 560 L 246 170 L 250 140 L 254 170 L 259 560 Z" fill="#12141c"/><path d="M 321 560 L 326 170 L 330 140 L 334 170 L 339 560 Z" fill="#12141c"/><path d="M 861 560 L 866 170 L 870 140 L 874 170 L 879 560 Z" fill="#12141c"/><path d="M 941 560 L 946 170 L 950 140 L 954 170 L 959 560 Z" fill="#12141c"/>
<rect x="0" y="560" width="1200" height="140" fill="#0c0e14"/>

<rect x="0" y="556" width="1200" height="4" fill="#d8b45a" opacity="0.55"/>
</svg>