<svg xmlns="http://www.w3.org/2000/svg" viewBox="0 0 1200 700" role="img">
<defs>
<linearGradient id="sky" x1="0" y1="0" x2="0" y2="1">
<stop offset="0" stop-color="#0a1026"/><stop offset="0.62" stop-color="#152046"/><stop offset="1" stop-color="#2b3a6b"/>
</linearGradient>
<pattern id="g1" width="120" height="120" patternUnits="userSpaceOnUse"><polygon points="111.6,60.0 80.0,68.3 96.5,96.5 68.3,80.0 60.0,111.6 51.7,80.0 23.5,96.5 40.0,68.3 8.4,60.0 40.0,51.7 23.5,23.5 51.7,40.0 60.0,8.4 68.3,40.0 96.5,23.5 80.0,51.7" fill="none" stroke="#e8d9a8" stroke-width="1.6" opacity="0.1"/><rect x="17.4" y="17.4" width="85.2" height="85.2" fill="none" stroke="#e8d9a8" stroke-width="1.6" opacity="0.06999999999999999" transform="rotate(45 60.0 60.0)"/></pattern>
</defs>
<rect width="1200" height="700" fill="url(#sky)"/>
<rect width="1200" height="700" fill="url(#g1)"/>
<circle cx="654" cy="214" r="1.3" fill="#f7ecd2" opacity="0.41"/><circle cx="1120" cy="99" r="1.3" fill="#f7ecd2" opacity="0.65"/><circle cx="475" cy="223" r="1.8" fill="#f7ecd2" opacity="0.60"/><circle cx="327" cy="114" r="0.8" fill="#f7ecd2" opacity="0.63"/><circle cx="460" cy="216" r="1.3" fill="#f7ecd2" opacity="0.45"/><circle cx="706" cy="81" r="1.3" fill="#f7ecd2" opacity="0.71"/><circle cx="801" cy="25" r="1.3" fill="#f7ecd2" opacity="0.60"/><circle cx="673" cy="196" r="1.8" fill="#f7ecd2" opacity="0.43"/><circle cx="1066" cy="198" r="1.3" fill="#f7ecd2" opacity="0.53"/><circle cx="1092" cy="43" r="1.3" fill="#f7ecd2" opacity="0.41"/><circle cx="727" cy="7" r="1.8" fill="#f7ecd2" opacity="0.74"/><circle cx="619" cy="118" r="1.8" fill="#f7ecd2" opacity="0.77"/><circle cx="72" cy="220" r="1.3" fill="#f7ecd2" opacity="0.75"/><circle cx="1078" cy="185" r="0.8" fill="#f7ecd2" opacity="0.65"/><circle cx="253" cy="169" r="1.8" fill="#f7ecd2" opacity="0.42"/><circle cx="165" cy="220" r="1.3" fill="#f7ecd2" opacity="0.35"/><circle cx="1078" cy="22" r="1.8" fill="#f7ecd2" opacity="0.51"/><circle cx="664" cy="167" r="0.8" fill="#f7ecd2" opacity="0.73"/><circle cx="579" cy="311" r="1.8" fill="#f7ecd2" opacity="0.54"/><circle cx="511" cy="302" r="0.8" fill="#f7ecd2" opacity="0.57"/><circle cx="484" cy="204" r="1.3" fill="#f7ecd2" opacity="0.71"/><circle cx="1050" cy="129" r="0.8" fill="#f7ecd2" opacity="0.35"/><circle cx="505" cy="293" r="0.8" fill="#f7ecd2" opacity="0.50"/><circle cx="457" cy="224" r="0.8" fill="#f7ecd2" opacity="0.53"/><circle cx="690" cy="26" r="1.8" fill="#f7ecd2" opacity="0.75"/><circle cx="1036" cy="271" r="1.8" fill="#f7ecd2" opacity="0.41"/><circle cx="31" cy="115" r="1.8" fill="#f7ecd2" opacity="0.50"/><circle cx="3" cy="326" r="1.8" fill="#f7ecd2" opacity="0.63"/><circle cx="496" cy="28" r="1.8" fill="#f7ecd2" opacity="0.73"/><circle cx="622" cy="253" r="1.8" fill="#f7ecd2" opacity="0.51"/><circle cx="357" cy="257" r="1.8" fill="#f7ecd2" opacity="0.84"/><circle cx="349" cy="68" r="0.8" fill="#f7ecd2" opacity="0.67"/><circle cx="1102" cy="10" r="1.8" fill="#f7ecd2" opacity="0.55"/><circle cx="1008" cy="215" r="1.8" fill="#f7ecd2" opacity="0.55"/><circle cx="283" cy="239" r="0.8" fill="#f7ecd2" opacity="0.72"/><circle cx="295" cy="330" r="1.3" fill="#f7ecd2" opacity="0.35"/><circle cx="108" cy="32" r="1.8" fill="#f7ecd2" opacity="0.41"/><circle cx="994" cy="17" r="0.8" fill="#f7ecd2" opacity="0.83"/><circle cx="1009" cy="201" r="1.3" fill="#f7ecd2" opacity="0.44"/><circle cx="1041" cy="232" r="1.3" fill="#f7ecd2" opacity="0.47"/><circle cx="1114" cy="174" r="1.3" fill="#f7ecd2" opacity="0.71"/><circle cx="580" cy="339" r="1.3" fill="#f7ecd2" opacity="0.55"/><circle cx="135" cy="203" r="1.8" fill="#f7ecd2" opacity="0.40"/><circle cx="187" cy="174" r="1.3" fill="#f7ecd2" opacity="0.73"/><circle cx="520" cy="16" r="1.8" fill="#f7ecd2" opacity="0.55"/><circle cx="966" cy="301" r="1.3" fill="#f7ecd2" opacity="0.51"/><circle cx="61" cy="185" r="0.8" fill="#f7ecd2" opacity="0.70"/><circle cx="133" cy="96" r="1.3" fill="#f7ecd2" opacity="0.53"/><circle cx="726" cy="178" r="1.3" fill="#f7ecd2" opacity="0.63"/><circle cx="952" cy="103" r="1.8" fill="#f7ecd2" opacity="0.41"/><circle cx="787" cy="147" r="1.3" fill="#f7ecd2" opacity="0.74"/><circle cx="879" cy="338" r="1.8" fill="#f7ecd2" opacity="0.37"/><circle cx="532" cy="180" r="1.3" fill="#f7ecd2" opacity="0.45"/><circle cx="538" cy="85" r="1.8" fill="#f7ecd2" opacity="0.65"/><circle cx="1113" cy="289" r="1.3" fill="#f7ecd2" opacity="0.42"/><circle cx="25" cy="280" r="1.8" fill="#f7ecd2" opacity="0.35"/><circle cx="1138" cy="162" r="1.3" fill="#f7ecd2" opacity="0.41"/><circle cx="924" cy="47" r="1.8" fill="#f7ecd2" opacity="0.63"/><circle cx="1039" cy="271" r="1.8" fill="#f7ecd2" opacity="0.54"/><circle cx="1171" cy="2" r="0.8" fill="#f7ecd2" opacity="0.77"/><circle cx="980" cy="120" r="42" fill="#f6ecd0" opacity="0.95"/><circle cx="996" cy="112" r="36" fill="url(#sky)" opacity="0.92"/>
<path d="M 350 560 L 600 230 L 850 560 Z" fill="#12141c"/><path d="M 440 560 L 600 230 L 760 560 Z" fill="#f0ead9" opacity="0.22"/><path d="M 560 560 L 600 230 L 640 560 Z" fill="#d8b45a" opacity="0.5"/><path d="M 241 560 L 246 170 L 250 140 L 254 170 L 259 560 Z" fill="#12141c"/><path d="M 321 560 L 326 170 L 330 140 L 334 170 L 339 560 Z" fill="#12141c"/><path d="M 861 560 L 866 170 L 870 140 L 874 170 L 879 560 Z" fill="#12141c"/><path d="M 941 560 L 946 170 L 950 140 L 954 170 L 959 560 Z" fill="#12141c"/>
<rect x="0" y="560" width="1200" height="140" fill="#0c0e14"/>

<rect x="0" y="556" width="1200" height="4" fill="#d8b45a" opacity="0.55"/>
</svg>