<svg xmlns="http://www.w3.org/2000/svg" viewBox="0 0 1200 700" role="img">
<defs>
<linearGradient id="sky" x1="0" y1="0" x2="0" y2="1">
<stop offset="0" stop-color="#0a1026"/><stop offset="0.62" stop-color="#152046"/><stop offset="1" stop-color="#2b3a6b"/>
</linearGradient>
<pattern id="g1" width="120" height="120" patternUnits="userSpaceOnUse"><polygon points="111.6,60.0 80.0,68.3 96.5,96.5 68.3,80.0 60.0,111.6 51.7,80.0 23.5,96.5 40.0,68.3 8.4,60.0 40.0,51.7 23.5,23.5 51.7,40.0 60.0,8.4 68.3,40.0 96.5,23.5 80.0,51.7" fill="none" stroke="#e8d9a8" stroke-width="1.6" opacity="0.1"/><rect x="17.4" y="17.4" width="85.2" height="85.2" fill="none" stroke="#e8d9a8" stroke-width="1.6" opacity="0.06999999999999999" transform="rotate(45 60.0 60.0)"/></pattern>
</defs>
<rect width="1200" height="700" fill="url(#sky)"/>
<rect width="1200" height="700" fill="url(#g1)"/>
<circle cx="579" cy="269" r="1.8" fill="#f7ecd2" opacity="0.36"/><circle cx="445" cy="254" r="0.8" fill="#f7ecd2" opacity="0.65"/><circle cx="400" cy="278" r="0.8" fill="#f7ecd2" opacity="0.35"/><circle cx="852" cy="69" r="0.8" fill="#f7ecd2" opacity="0.73"/><circle cx="385" cy="271" r="1.8" fill="#f7ecd2" opacity="0.70"/><circle cx="31" cy="236" r="0.8" fill="#f7ecd2" opacity="0.51"/><circle cx="726" cy="80" r="1.8" fill="#f7ecd2" opacity="0.65"/><circle cx="1198" cy="151" r="1.8" fill="#f7ecd2" opacity="0.83"/><circle cx="991" cy="253" r="1.8" fill="#f7ecd2" opacity="0.58"/><circle cx="417" cy="198" r="0.8" fill="#f7ecd2" opacity="0.51"/><circle cx="652" cy="62" r="0.8" fill="#f7ecd2" opacity="0.59"/><circle cx="1144" cy="73" r="1.8" fill="#f7ecd2" opacity="0.47"/><circle cx="1197" cy="75" r="0.8" fill="#f7ecd2" opacity="0.60"/><circle cx="403" cy="0" r="1.3" fill="#f7ecd2" opacity="0.35"/><circle cx="178" cy="224" r="0.8" fill="#f7ecd2" opacity="0.57"/><circle cx="690" cy="175" r="1.3" fill="#f7ecd2" opacity="0.35"/><circle cx="1003" cy="77" r="0.8" fill="#f7ecd2" opacity="0.66"/><circle cx="1189" cy="122" r="0.8" fill="#f7ecd2" opacity="0.43"/><circle cx="504" cy="26" r="1.8" fill="#f7ecd2" opacity="0.39"/><circle cx="1036" cy="257" r="0.8" fill="#f7ecd2" opacity="0.37"/><circle cx="409" cy="259" r="1.8" fill="#f7ecd2" opacity="0.66"/><circle cx="375" cy="284" r="1.8" fill="#f7ecd2" opacity="0.35"/><circle cx="430" cy="8" r="0.8" fill="#f7ecd2" opacity="0.75"/><circle cx="982" cy="179" r="0.8" fill="#f7ecd2" opacity="0.63"/><circle cx="615" cy="81" r="0.8" fill="#f7ecd2" opacity="0.50"/><circle cx="361" cy="86" r="0.8" fill="#f7ecd2" opacity="0.81"/><circle cx="1156" cy="310" r="1.8" fill="#f7ecd2" opacity="0.45"/><circle cx="528" cy="281" r="1.8" fill="#f7ecd2" opacity="0.53"/><circle cx="421" cy="83" r="0.8" fill="#f7ecd2" opacity="0.78"/><circle cx="1147" cy="208" r="1.8" fill="#f7ecd2" opacity="0.61"/><circle cx="282" cy="312" r="0.8" fill="#f7ecd2" opacity="0.69"/><circle cx="874" cy="23" r="0.8" fill="#f7ecd2" opacity="0.37"/><circle cx="1027" cy="65" r="0.8" fill="#f7ecd2" opacity="0.40"/><circle cx="333" cy="30" r="0.8" fill="#f7ecd2" opacity="0.75"/><circle cx="208" cy="294" r="1.3" fill="#f7ecd2" opacity="0.37"/><circle cx="820" cy="285" r="1.3" fill="#f7ecd2" opacity="0.35"/><circle cx="33" cy="87" r="0.8" fill="#f7ecd2" opacity="0.56"/><circle cx="319" cy="172" r="1.8" fill="#f7ecd2" opacity="0.53"/><circle cx="934" cy="256" r="1.8" fill="#f7ecd2" opacity="0.39"/><circle cx="366" cy="47" r="1.8" fill="#f7ecd2" opacity="0.37"/><circle cx="1039" cy="229" r="1.8" fill="#f7ecd2" opacity="0.66"/><circle cx="1105" cy="294" r="1.3" fill="#f7ecd2" opacity="0.55"/><circle cx="60" cy="258" r="0.8" fill="#f7ecd2" opacity="0.65"/><circle cx="712" cy="129" r="1.3" fill="#f7ecd2" opacity="0.83"/><circle cx="445" cy="71" r="0.8" fill="#f7ecd2" opacity="0.80"/><circle cx="291" cy="116" r="1.8" fill="#f7ecd2" opacity="0.41"/><circle cx="1186" cy="40" r="1.8" fill="#f7ecd2" opacity="0.75"/><circle cx="658" cy="51" r="1.3" fill="#f7ecd2" opacity="0.43"/><circle cx="651" cy="233" r="1.8" fill="#f7ecd2" opacity="0.68"/><circle cx="277" cy="258" r="1.3" fill="#f7ecd2" opacity="0.51"/><circle cx="712" cy="202" r="1.8" fill="#f7ecd2" opacity="0.59"/><circle cx="204" cy="153" r="0.8" fill="#f7ecd2" opacity="0.47"/><circle cx="457" cy="235" r="1.8" fill="#f7ecd2" opacity="0.80"/><circle cx="1063" cy="40" r="1.8" fill="#f7ecd2" opacity="0.55"/><circle cx="1038" cy="4" r="1.3" fill="#f7ecd2" opacity="0.37"/><circle cx="550" cy="235" r="1.8" fill="#f7ecd2" opacity="0.35"/><circle cx="1063" cy="217" r="1.8" fill="#f7ecd2" opacity="0.56"/><circle cx="249" cy="202" r="1.3" fill="#f7ecd2" opacity="0.83"/><circle cx="964" cy="326" r="0.8" fill="#f7ecd2" opacity="0.49"/><circle cx="496" cy="157" r="1.8" fill="#f7ecd2" opacity="0.57"/><circle cx="980" cy="120" r="42" fill="#f6ecd0" opacity="0.95"/><circle cx="996" cy="112" r="36" fill="url(#sky)" opacity="0.92"/>
<path d="M 350 560 L 600 230 L 850 560 Z" fill="#12141c"/><path d="M 440 560 L 600 230 L 760 560 Z" fill="#f0ead9" opacity="0.22"/><path d="M 560 560 L 600 230 L 640 560 Z" fill="#d8b45a" opacity="0.5"/><path d="M 241 560 L 246 170 L 250 140 L 254 170 L 259 560 Z" fill="#12141c"/><path d="M 321 560 L 326 170 L 330 140 L 334 170 L 339 560 Z" fill="#12141c"/><path d="M 861 560 L 866 170 L 870 140 L 874 170 L 879 560 Z" fill="#12141c"/><path d="M 941 560 L 946 170 L 950 140 L 954 170 L 959 560 Z" fill="#12141c"/>
<rect x="0" y="560" width="1200" height="140" fill="#0c0e14"/>

<rect x="0" y="556" width="1200" height="4" fill="#d8b45a" opacity="0.55"/>
</svg>