<svg xmlns="http://www.w3.org/2000/svg" viewBox="0 0 1200 700" role="img">
<defs>
<linearGradient id="sky" x1="0" y1="0" x2="0" y2="1">
<stop offset="0" stop-color="#0a1026"/><stop offset="0.62" stop-color="#152046"/><stop offset="1" stop-color="#2b3a6b"/>
</linearGradient>
<pattern id="g1" width="120" height="120" patternUnits="userSpaceOnUse"><polygon points="111.6,60.0 80.0,68.3 96.5,96.5 68.3,80.0 60.0,111.6 51.7,80.0 23.5,96.5 40.0,68.3 8.4,60.0 40.0,51.7 23.5,23.5 51.7,40.0 60.0,8.4 68.3,40.0 96.5,23.5 80.0,51.7" fill="none" stroke="#e8d9a8" stroke-width="1.6" opacity="0.1"/><rect x="17.4" y="17.4" width="85.2" height="85.2" fill="none" stroke="#e8d9a8" stroke-width="1.6" opacity="0.06999999999999999" transform="rotate(45 60.0 60.0)"/></pattern>
</defs>
<rect width="1200" height="700" fill="url(#sky)"/>
<rect width="1200" height="700" fill="url(#g1)"/>
<circle cx="930" cy="270" r="0.8" fill="#f7ecd2" opacity="0.35"/><circle cx="868" cy="107" r="0.8" fill="#f7ecd2" opacity="0.61"/><circle cx="79" cy="187" r="1.8" fill="#f7ecd2" opacity="0.58"/><circle cx="219" cy="166" r="1.3" fill="#f7ecd2" opacity="0.39"/><circle cx="976" cy="232" r="1.8" fill="#f7ecd2" opacity="0.67"/><circle cx="1174" cy="309" r="1.3" fill="#f7ecd2" opacity="0.51"/><circle cx="165" cy="29" r="1.8" fill="#f7ecd2" opacity="0.70"/><circle cx="1045" cy="168" r="1.3" fill="#f7ecd2" opacity="0.45"/><circle cx="622" cy="34" r="1.8" fill="#f7ecd2" opacity="0.83"/><circle cx="1080" cy="11" r="1.8" fill="#f7ecd2" opacity="0.65"/><circle cx="1051" cy="191" r="0.8" fill="#f7ecd2" opacity="0.76"/><circle cx="271" cy="210" r="1.3" fill="#f7ecd2" opacity="0.45"/><circle cx="1068" cy="156" r="0.8" fill="#f7ecd2" opacity="0.43"/><circle cx="586" cy="233" r="0.8" fill="#f7ecd2" opacity="0.73"/><circle cx="337" cy="53" r="0.8" fill="#f7ecd2" opacity="0.46"/><circle cx="297" cy="232" r="1.3" fill="#f7ecd2" opacity="0.39"/><circle cx="1114" cy="118" r="1.8" fill="#f7ecd2" opacity="0.37"/><circle cx="892" cy="95" r="0.8" fill="#f7ecd2" opacity="0.75"/><circle cx="423" cy="235" r="1.3" fill="#f7ecd2" opacity="0.40"/><circle cx="1123" cy="234" r="1.3" fill="#f7ecd2" opacity="0.67"/><circle cx="760" cy="260" r="0.8" fill="#f7ecd2" opacity="0.35"/><circle cx="798" cy="137" r="1.8" fill="#f7ecd2" opacity="0.61"/><circle cx="109" cy="257" r="0.8" fill="#f7ecd2" opacity="0.48"/><circle cx="349" cy="276" r="1.3" fill="#f7ecd2" opacity="0.59"/><circle cx="6" cy="242" r="1.8" fill="#f7ecd2" opacity="0.37"/><circle cx="304" cy="19" r="1.8" fill="#f7ecd2" opacity="0.61"/><circle cx="595" cy="259" r="1.8" fill="#f7ecd2" opacity="0.40"/><circle cx="375" cy="298" r="1.3" fill="#f7ecd2" opacity="0.35"/><circle cx="52" cy="204" r="1.3" fill="#f7ecd2" opacity="0.43"/><circle cx="610" cy="221" r="0.8" fill="#f7ecd2" opacity="0.45"/><circle cx="681" cy="101" r="1.8" fill="#f7ecd2" opacity="0.66"/><circle cx="1" cy="160" r="1.8" fill="#f7ecd2" opacity="0.45"/><circle cx="898" cy="146" r="0.8" fill="#f7ecd2" opacity="0.43"/><circle cx="516" cy="263" r="1.8" fill="#f7ecd2" opacity="0.43"/><circle cx="367" cy="123" r="1.3" fill="#f7ecd2" opacity="0.76"/><circle cx="427" cy="2" r="0.8" fill="#f7ecd2" opacity="0.39"/><circle cx="144" cy="128" r="1.8" fill="#f7ecd2" opacity="0.67"/><circle cx="22" cy="145" r="1.8" fill="#f7ecd2" opacity="0.75"/><circle cx="853" cy="125" r="0.8" fill="#f7ecd2" opacity="0.60"/><circle cx="453" cy="24" r="0.8" fill="#f7ecd2" opacity="0.57"/><circle cx="190" cy="90" r="1.3" fill="#f7ecd2" opacity="0.35"/><circle cx="328" cy="7" r="1.8" fill="#f7ecd2" opacity="0.81"/><circle cx="939" cy="307" r="1.3" fill="#f7ecd2" opacity="0.58"/><circle cx="79" cy="226" r="1.8" fill="#f7ecd2" opacity="0.39"/><circle cx="1036" cy="32" r="0.8" fill="#f7ecd2" opacity="0.37"/><circle cx="234" cy="49" r="1.3" fill="#f7ecd2" opacity="0.51"/><circle cx="625" cy="329" r="0.8" fill="#f7ecd2" opacity="0.60"/><circle cx="505" cy="68" r="0.8" fill="#f7ecd2" opacity="0.75"/><circle cx="282" cy="14" r="1.8" fill="#f7ecd2" opacity="0.83"/><circle cx="940" cy="71" r="0.8" fill="#f7ecd2" opacity="0.75"/><circle cx="1111" cy="331" r="1.8" fill="#f7ecd2" opacity="0.76"/><circle cx="531" cy="90" r="0.8" fill="#f7ecd2" opacity="0.75"/><circle cx="328" cy="316" r="1.8" fill="#f7ecd2" opacity="0.83"/><circle cx="46" cy="133" r="1.8" fill="#f7ecd2" opacity="0.53"/><circle cx="1197" cy="173" r="1.8" fill="#f7ecd2" opacity="0.66"/><circle cx="157" cy="292" r="1.8" fill="#f7ecd2" opacity="0.79"/><circle cx="1174" cy="258" r="1.3" fill="#f7ecd2" opacity="0.77"/><circle cx="1152" cy="315" r="0.8" fill="#f7ecd2" opacity="0.65"/><circle cx="883" cy="195" r="1.3" fill="#f7ecd2" opacity="0.70"/><circle cx="583" cy="134" r="0.8" fill="#f7ecd2" opacity="0.57"/><circle cx="980" cy="120" r="42" fill="#f6ecd0" opacity="0.95"/><circle cx="996" cy="112" r="36" fill="url(#sky)" opacity="0.92"/>
<path d="M 350 560 L 600 230 L 850 560 Z" fill="#12141c"/><path d="M 440 560 L 600 230 L 760 560 Z" fill="#f0ead9" opacity="0.22"/><path d="M 560 560 L 600 230 L 640 560 Z" fill="#d8b45a" opacity="0.5"/><path d="M 241 560 L 246 170 L 250 140 L 254 170 L 259 560 Z" fill="#12141c"/><path d="M 321 560 L 326 170 L 330 140 L 334 170 L 339 560 Z" fill="#12141c"/><path d="M 861 560 L 866 170 L 870 140 L 874 170 L 879 560 Z" fill="#12141c"/><path d="M 941 560 L 946 170 L 950 140 L 954 170 L 959 560 Z" fill="#12141c"/>
<rect x="0" y="560" width="1200" height="140" fill="#0c0e14"/>

<rect x="0" y="556" width="1200" height="4" fill="#d8b45a" opacity="0.55"/>
</svg>