<svg xmlns="http://www.w3.org/2000/svg" viewBox="0 0 1200 700" role="img">
<defs>
<linearGradient id="sky" x1="0" y1="0" x2="0" y2="1">
<stop offset="0" stop-color="#0a1026"/><stop offset="0.62" stop-color="#152046"/><stop offset="1" stop-color="#2b3a6b"/>
</linearGradient>
<pattern id="g1" width="120" height="120" patternUnits="userSpaceOnUse"><polygon points="111.6,60.0 80.0,68.3 96.5,96.5 68.3,80.0 60.0,111.6 51.7,80.0 23.5,96.5 40.0,68.3 8.4,60.0 40.0,51.7 23.5,23.5 51.7,40.0 60.0,8.4 68.3,40.0 96.5,23.5 80.0,51.7" fill="none" stroke="#e8d9a8" stroke-width="1.6" opacity="0.1"/><rect x="17.4" y="17.4" width="85.2" height="85.2" fill="none" stroke="#e8d9a8" stroke-width="1.6" opacity="0.06999999999999999" transform="rotate(45 60.0 60.0)"/></pattern>
</defs>
<rect width="1200" height="700" fill="url(#sky)"/>
<rect width="1200" height="700" fill="url(#g1)"/>
<circle cx="124" cy="104" r="0.8" fill="#f7ecd2" opacity="0.81"/><circle cx="830" cy="289" r="0.8" fill="#f7ecd2" opacity="0.55"/><circle cx="905" cy="293" r="1.3" fill="#f7ecd2" opacity="0.50"/><circle cx="517" cy="224" r="0.8" fill="#f7ecd2" opacity="0.43"/><circle cx="1130" cy="246" r="1.8" fill="#f7ecd2" opacity="0.65"/><circle cx="416" cy="271" r="0.8" fill="#f7ecd2" opacity="0.71"/><circle cx="31" cy="295" r="1.8" fill="#f7ecd2" opacity="0.80"/><circle cx="863" cy="306" r="1.8" fill="#f7ecd2" opacity="0.63"/><circle cx="536" cy="88" r="0.8" fill="#f7ecd2" opacity="0.53"/><circle cx="802" cy="233" r="0.8" fill="#f7ecd2" opacity="0.51"/><circle cx="1157" cy="77" r="1.3" fill="#f7ecd2" opacity="0.74"/><circle cx="809" cy="228" r="1.8" fill="#f7ecd2" opacity="0.37"/><circle cx="742" cy="250" r="1.8" fill="#f7ecd2" opacity="0.35"/><circle cx="788" cy="35" r="1.3" fill="#f7ecd2" opacity="0.65"/><circle cx="683" cy="239" r="1.3" fill="#f7ecd2" opacity="0.72"/><circle cx="355" cy="330" r="1.3" fill="#f7ecd2" opacity="0.35"/><circle cx="548" cy="252" r="1.8" fill="#f7ecd2" opacity="0.81"/><circle cx="374" cy="17" r="1.3" fill="#f7ecd2" opacity="0.43"/><circle cx="1009" cy="41" r="0.8" fill="#f7ecd2" opacity="0.54"/><circle cx="701" cy="72" r="1.8" fill="#f7ecd2" opacity="0.57"/><circle cx="1154" cy="234" r="1.8" fill="#f7ecd2" opacity="0.71"/><circle cx="760" cy="319" r="1.8" fill="#f7ecd2" opacity="0.75"/><circle cx="935" cy="23" r="1.3" fill="#f7ecd2" opacity="0.40"/><circle cx="647" cy="334" r="0.8" fill="#f7ecd2" opacity="0.83"/><circle cx="160" cy="256" r="1.8" fill="#f7ecd2" opacity="0.45"/><circle cx="746" cy="121" r="0.8" fill="#f7ecd2" opacity="0.51"/><circle cx="461" cy="185" r="1.3" fill="#f7ecd2" opacity="0.70"/><circle cx="193" cy="96" r="1.3" fill="#f7ecd2" opacity="0.63"/><circle cx="1166" cy="58" r="0.8" fill="#f7ecd2" opacity="0.63"/><circle cx="332" cy="103" r="0.8" fill="#f7ecd2" opacity="0.81"/><circle cx="787" cy="327" r="1.3" fill="#f7ecd2" opacity="0.84"/><circle cx="539" cy="178" r="0.8" fill="#f7ecd2" opacity="0.77"/><circle cx="572" cy="240" r="1.8" fill="#f7ecd2" opacity="0.65"/><circle cx="718" cy="65" r="0.8" fill="#f7ecd2" opacity="0.55"/><circle cx="713" cy="309" r="1.8" fill="#f7ecd2" opacity="0.52"/><circle cx="485" cy="100" r="0.8" fill="#f7ecd2" opacity="0.35"/><circle cx="778" cy="62" r="0.8" fill="#f7ecd2" opacity="0.71"/><circle cx="704" cy="207" r="1.8" fill="#f7ecd2" opacity="0.63"/><circle cx="239" cy="131" r="1.3" fill="#f7ecd2" opacity="0.44"/><circle cx="31" cy="202" r="1.8" fill="#f7ecd2" opacity="0.47"/><circle cx="584" cy="64" r="0.8" fill="#f7ecd2" opacity="0.61"/><circle cx="290" cy="189" r="1.8" fill="#f7ecd2" opacity="0.45"/><circle cx="565" cy="273" r="1.3" fill="#f7ecd2" opacity="0.80"/><circle cx="377" cy="284" r="1.3" fill="#f7ecd2" opacity="0.53"/><circle cx="1190" cy="46" r="0.8" fill="#f7ecd2" opacity="0.75"/><circle cx="676" cy="151" r="1.8" fill="#f7ecd2" opacity="0.61"/><circle cx="491" cy="255" r="1.8" fill="#f7ecd2" opacity="0.40"/><circle cx="323" cy="206" r="1.3" fill="#f7ecd2" opacity="0.73"/><circle cx="196" cy="68" r="0.8" fill="#f7ecd2" opacity="0.63"/><circle cx="662" cy="293" r="1.3" fill="#f7ecd2" opacity="0.51"/><circle cx="17" cy="77" r="1.3" fill="#f7ecd2" opacity="0.44"/><circle cx="1069" cy="108" r="1.3" fill="#f7ecd2" opacity="0.37"/><circle cx="2" cy="70" r="0.8" fill="#f7ecd2" opacity="0.75"/><circle cx="248" cy="275" r="1.3" fill="#f7ecd2" opacity="0.35"/><circle cx="343" cy="219" r="1.3" fill="#f7ecd2" opacity="0.52"/><circle cx="215" cy="50" r="1.3" fill="#f7ecd2" opacity="0.35"/><circle cx="608" cy="52" r="0.8" fill="#f7ecd2" opacity="0.51"/><circle cx="634" cy="237" r="1.3" fill="#f7ecd2" opacity="0.43"/><circle cx="269" cy="201" r="1.8" fill="#f7ecd2" opacity="0.54"/><circle cx="161" cy="312" r="1.8" fill="#f7ecd2" opacity="0.67"/><circle cx="980" cy="120" r="42" fill="#f6ecd0" opacity="0.95"/><circle cx="996" cy="112" r="36" fill="url(#sky)" opacity="0.92"/>
<path d="M 350 560 L 600 230 L 850 560 Z" fill="#12141c"/><path d="M 440 560 L 600 230 L 760 560 Z" fill="#f0ead9" opacity="0.22"/><path d="M 560 560 L 600 230 L 640 560 Z" fill="#d8b45a" opacity="0.5"/><path d="M 241 560 L 246 170 L 250 140 L 254 170 L 259 560 Z" fill="#12141c"/><path d="M 321 560 L 326 170 L 330 140 L 334 170 L 339 560 Z" fill="#12141c"/><path d="M 861 560 L 866 170 L 870 140 L 874 170 L 879 560 Z" fill="#12141c"/><path d="M 941 560 L 946 170 L 950 140 L 954 170 L 959 560 Z" fill="#12141c"/>
<rect x="0" y="560" width="1200" height="140" fill="#0c0e14"/>

<rect x="0" y="556" width="1200" height="4" fill="#d8b45a" opacity="0.55"/>
</svg>