<svg xmlns="http://www.w3.org/2000/svg" viewBox="0 0 1200 700" role="img">
<defs>
<linearGradient id="sky" x1="0" y1="0" x2="0" y2="1">
<stop offset="0" stop-color="#0a1026"/><stop offset="0.62" stop-color="#152046"/><stop offset="1" stop-color="#2b3a6b"/>
</linearGradient>
<pattern id="g1" width="120" height="120" patternUnits="userSpaceOnUse"><polygon points="111.6,60.0 80.0,68.3 96.5,96.5 68.3,80.0 60.0,111.6 51.7,80.0 23.5,96.5 40.0,68.3 8.4,60.0 40.0,51.7 23.5,23.5 51.7,40.0 60.0,8.4 68.3,40.0 96.5,23.5 80.0,51.7" fill="none" stroke="#e8d9a8" stroke-width="1.6" opacity="0.1"/><rect x="17.4" y="17.4" width="85.2" height="85.2" fill="none" stroke="#e8d9a8" stroke-width="1.6" opacity="0.06999999999999999" transform="rotate(45 60.0 60.0)"/></pattern>
</defs>
<rect width="1200" height="700" fill="url(#sky)"/>
<rect width="1200" height="700" fill="url(#g1)"/>
<circle cx="346" cy="186" r="1.3" fill="#f7ecd2" opacity="0.41"/><circle cx="236" cy="235" r="0.8" fill="#f7ecd2" opacity="0.45"/><circle cx="743" cy="31" r="0.8" fill="#f7ecd2" opacity="0.68"/><circle cx="691" cy="178" r="1.8" fill="#f7ecd2" opacity="0.83"/><circle cx="632" cy="108" r="1.8" fill="#f7ecd2" opacity="0.41"/><circle cx="62" cy="177" r="1.8" fill="#f7ecd2" opacity="0.59"/><circle cx="589" cy="253" r="1.8" fill="#f7ecd2" opacity="0.52"/><circle cx="797" cy="300" r="1.8" fill="#f7ecd2" opacity="0.35"/><circle cx="518" cy="210" r="1.8" fill="#f7ecd2" opacity="0.65"/><circle cx="688" cy="99" r="1.3" fill="#f7ecd2" opacity="0.47"/><circle cx="35" cy="315" r="1.8" fill="#f7ecd2" opacity="0.60"/><circle cx="503" cy="262" r="0.8" fill="#f7ecd2" opacity="0.71"/><circle cx="4" cy="152" r="0.8" fill="#f7ecd2" opacity="0.43"/><circle cx="914" cy="201" r="1.8" fill="#f7ecd2" opacity="0.49"/><circle cx="281" cy="17" r="1.3" fill="#f7ecd2" opacity="0.62"/><circle cx="1009" cy="204" r="1.3" fill="#f7ecd2" opacity="0.71"/><circle cx="290" cy="74" r="1.3" fill="#f7ecd2" opacity="0.45"/><circle cx="740" cy="143" r="1.3" fill="#f7ecd2" opacity="0.55"/><circle cx="127" cy="239" r="0.8" fill="#f7ecd2" opacity="0.38"/><circle cx="1115" cy="326" r="1.3" fill="#f7ecd2" opacity="0.75"/><circle cx="176" cy="176" r="1.3" fill="#f7ecd2" opacity="0.61"/><circle cx="166" cy="265" r="1.8" fill="#f7ecd2" opacity="0.75"/><circle cx="773" cy="101" r="1.3" fill="#f7ecd2" opacity="0.58"/><circle cx="821" cy="288" r="1.8" fill="#f7ecd2" opacity="0.83"/><circle cx="862" cy="258" r="1.3" fill="#f7ecd2" opacity="0.81"/><circle cx="392" cy="27" r="1.8" fill="#f7ecd2" opacity="0.69"/><circle cx="1019" cy="143" r="1.3" fill="#f7ecd2" opacity="0.52"/><circle cx="127" cy="90" r="1.3" fill="#f7ecd2" opacity="0.65"/><circle cx="1148" cy="180" r="1.8" fill="#f7ecd2" opacity="0.75"/><circle cx="218" cy="309" r="1.8" fill="#f7ecd2" opacity="0.47"/><circle cx="865" cy="25" r="1.8" fill="#f7ecd2" opacity="0.60"/><circle cx="233" cy="212" r="1.3" fill="#f7ecd2" opacity="0.81"/><circle cx="1034" cy="282" r="1.8" fill="#f7ecd2" opacity="0.73"/><circle cx="844" cy="231" r="1.3" fill="#f7ecd2" opacity="0.49"/><circle cx="311" cy="87" r="1.8" fill="#f7ecd2" opacity="0.42"/><circle cx="1139" cy="314" r="1.3" fill="#f7ecd2" opacity="0.81"/><circle cx="520" cy="224" r="0.8" fill="#f7ecd2" opacity="0.65"/><circle cx="1070" cy="333" r="1.8" fill="#f7ecd2" opacity="0.45"/><circle cx="557" cy="129" r="1.8" fill="#f7ecd2" opacity="0.38"/><circle cx="445" cy="116" r="0.8" fill="#f7ecd2" opacity="0.55"/><circle cx="806" cy="146" r="1.3" fill="#f7ecd2" opacity="0.61"/><circle cx="896" cy="275" r="1.3" fill="#f7ecd2" opacity="0.35"/><circle cx="403" cy="11" r="0.8" fill="#f7ecd2" opacity="0.68"/><circle cx="551" cy="238" r="0.8" fill="#f7ecd2" opacity="0.73"/><circle cx="692" cy="248" r="1.3" fill="#f7ecd2" opacity="0.51"/><circle cx="322" cy="57" r="1.3" fill="#f7ecd2" opacity="0.39"/><circle cx="1049" cy="213" r="1.8" fill="#f7ecd2" opacity="0.72"/><circle cx="257" cy="200" r="1.3" fill="#f7ecd2" opacity="0.35"/><circle cx="178" cy="190" r="1.8" fill="#f7ecd2" opacity="0.55"/><circle cx="548" cy="159" r="1.8" fill="#f7ecd2" opacity="0.67"/><circle cx="95" cy="115" r="0.8" fill="#f7ecd2" opacity="0.60"/><circle cx="763" cy="142" r="1.8" fill="#f7ecd2" opacity="0.81"/><circle cx="464" cy="112" r="0.8" fill="#f7ecd2" opacity="0.53"/><circle cx="374" cy="101" r="1.3" fill="#f7ecd2" opacity="0.59"/><circle cx="1141" cy="137" r="0.8" fill="#f7ecd2" opacity="0.52"/><circle cx="869" cy="264" r="1.8" fill="#f7ecd2" opacity="0.51"/><circle cx="350" cy="214" r="0.8" fill="#f7ecd2" opacity="0.35"/><circle cx="1000" cy="23" r="0.8" fill="#f7ecd2" opacity="0.35"/><circle cx="587" cy="199" r="0.8" fill="#f7ecd2" opacity="0.48"/><circle cx="575" cy="226" r="0.8" fill="#f7ecd2" opacity="0.35"/><circle cx="980" cy="120" r="42" fill="#f6ecd0" opacity="0.95"/><circle cx="996" cy="112" r="36" fill="url(#sky)" opacity="0.92"/>
<path d="M 350 560 L 600 230 L 850 560 Z" fill="#12141c"/><path d="M 440 560 L 600 230 L 760 560 Z" fill="#f0ead9" opacity="0.22"/><path d="M 560 560 L 600 230 L 640 560 Z" fill="#d8b45a" opacity="0.5"/><path d="M 241 560 L 246 170 L 250 140 L 254 170 L 259 560 Z" fill="#12141c"/><path d="M 321 560 L 326 170 L 330 140 L 334 170 L 339 560 Z" fill="#12141c"/><path d="M 861 560 L 866 170 L 870 140 L 874 170 L 879 560 Z" fill="#12141c"/><path d="M 941 560 L 946 170 L 950 140 L 954 170 L 959 560 Z" fill="#12141c"/>
<rect x="0" y="560" width="1200" height="140" fill="#0c0e14"/>

<rect x="0" y="556" width="1200" height="4" fill="#d8b45a" opacity="0.55"/>
</svg>