<svg xmlns="http://www.w3.org/2000/svg" viewBox="0 0 1200 700" role="img">
<defs>
<linearGradient id="sky" x1="0" y1="0" x2="0" y2="1">
<stop offset="0" stop-color="#0a1026"/><stop offset="0.62" stop-color="#152046"/><stop offset="1" stop-color="#2b3a6b"/>
</linearGradient>
<pattern id="g1" width="120" height="120" patternUnits="userSpaceOnUse"><polygon points="111.6,60.0 80.0,68.3 96.5,96.5 68.3,80.0 60.0,111.6 51.7,80.0 23.5,96.5 40.0,68.3 8.4,60.0 40.0,51.7 23.5,23.5 51.7,40.0 60.0,8.4 68.3,40.0 96.5,23.5 80.0,51.7" fill="none" stroke="#e8d9a8" stroke-width="1.6" opacity="0.1"/><rect x="17.4" y="17.4" width="85.2" height="85.2" fill="none" stroke="#e8d9a8" stroke-width="1.6" opacity="0.06999999999999999" transform="rotate(45 60.0 60.0)"/></pattern>
</defs>
<rect width="1200" height="700" fill="url(#sky)"/>
<rect width="1200" height="700" fill="url(#g1)"/>
<circle cx="1192" cy="232" r="1.8" fill="#f7ecd2" opacity="0.79"/><circle cx="794" cy="193" r="0.8" fill="#f7ecd2" opacity="0.77"/><circle cx="677" cy="25" r="0.8" fill="#f7ecd2" opacity="0.60"/><circle cx="673" cy="300" r="1.3" fill="#f7ecd2" opacity="0.35"/><circle cx="518" cy="314" r="1.3" fill="#f7ecd2" opacity="0.37"/><circle cx="140" cy="215" r="1.3" fill="#f7ecd2" opacity="0.35"/><circle cx="283" cy="287" r="0.8" fill="#f7ecd2" opacity="0.56"/><circle cx="59" cy="202" r="0.8" fill="#f7ecd2" opacity="0.53"/><circle cx="644" cy="36" r="1.8" fill="#f7ecd2" opacity="0.69"/><circle cx="286" cy="217" r="1.8" fill="#f7ecd2" opacity="0.47"/><circle cx="689" cy="189" r="1.8" fill="#f7ecd2" opacity="0.56"/><circle cx="245" cy="84" r="1.8" fill="#f7ecd2" opacity="0.65"/><circle cx="370" cy="278" r="0.8" fill="#f7ecd2" opacity="0.45"/><circle cx="32" cy="59" r="1.3" fill="#f7ecd2" opacity="0.73"/><circle cx="695" cy="271" r="0.8" fill="#f7ecd2" opacity="0.80"/><circle cx="31" cy="146" r="0.8" fill="#f7ecd2" opacity="0.61"/><circle cx="896" cy="160" r="0.8" fill="#f7ecd2" opacity="0.45"/><circle cx="578" cy="221" r="1.3" fill="#f7ecd2" opacity="0.73"/><circle cx="301" cy="193" r="1.8" fill="#f7ecd2" opacity="0.78"/><circle cx="617" cy="188" r="1.3" fill="#f7ecd2" opacity="0.81"/><circle cx="1022" cy="222" r="1.8" fill="#f7ecd2" opacity="0.69"/><circle cx="724" cy="223" r="1.8" fill="#f7ecd2" opacity="0.37"/><circle cx="707" cy="95" r="1.3" fill="#f7ecd2" opacity="0.50"/><circle cx="803" cy="70" r="0.8" fill="#f7ecd2" opacity="0.45"/><circle cx="748" cy="124" r="1.8" fill="#f7ecd2" opacity="0.37"/><circle cx="470" cy="65" r="1.3" fill="#f7ecd2" opacity="0.35"/><circle cx="713" cy="177" r="1.8" fill="#f7ecd2" opacity="0.36"/><circle cx="589" cy="132" r="1.3" fill="#f7ecd2" opacity="0.83"/><circle cx="74" cy="206" r="1.3" fill="#f7ecd2" opacity="0.79"/><circle cx="1016" cy="227" r="1.3" fill="#f7ecd2" opacity="0.67"/><circle cx="319" cy="99" r="1.3" fill="#f7ecd2" opacity="0.66"/><circle cx="1175" cy="174" r="1.8" fill="#f7ecd2" opacity="0.35"/><circle cx="200" cy="268" r="0.8" fill="#f7ecd2" opacity="0.35"/><circle cx="1162" cy="229" r="1.8" fill="#f7ecd2" opacity="0.83"/><circle cx="725" cy="1" r="0.8" fill="#f7ecd2" opacity="0.60"/><circle cx="161" cy="256" r="0.8" fill="#f7ecd2" opacity="0.51"/><circle cx="1126" cy="310" r="1.8" fill="#f7ecd2" opacity="0.45"/><circle cx="908" cy="71" r="1.3" fill="#f7ecd2" opacity="0.53"/><circle cx="731" cy="83" r="1.3" fill="#f7ecd2" opacity="0.58"/><circle cx="1147" cy="118" r="1.8" fill="#f7ecd2" opacity="0.81"/><circle cx="452" cy="52" r="0.8" fill="#f7ecd2" opacity="0.39"/><circle cx="254" cy="93" r="1.8" fill="#f7ecd2" opacity="0.57"/><circle cx="337" cy="5" r="0.8" fill="#f7ecd2" opacity="0.70"/><circle cx="533" cy="20" r="1.3" fill="#f7ecd2" opacity="0.45"/><circle cx="578" cy="114" r="1.8" fill="#f7ecd2" opacity="0.77"/><circle cx="400" cy="95" r="0.8" fill="#f7ecd2" opacity="0.35"/><circle cx="743" cy="247" r="0.8" fill="#f7ecd2" opacity="0.56"/><circle cx="719" cy="242" r="1.3" fill="#f7ecd2" opacity="0.83"/><circle cx="304" cy="16" r="1.8" fill="#f7ecd2" opacity="0.49"/><circle cx="146" cy="277" r="0.8" fill="#f7ecd2" opacity="0.77"/><circle cx="749" cy="329" r="1.3" fill="#f7ecd2" opacity="0.56"/><circle cx="505" cy="304" r="1.8" fill="#f7ecd2" opacity="0.55"/><circle cx="830" cy="238" r="0.8" fill="#f7ecd2" opacity="0.75"/><circle cx="692" cy="99" r="1.8" fill="#f7ecd2" opacity="0.43"/><circle cx="355" cy="251" r="0.8" fill="#f7ecd2" opacity="0.40"/><circle cx="1091" cy="6" r="1.8" fill="#f7ecd2" opacity="0.81"/><circle cx="956" cy="300" r="1.8" fill="#f7ecd2" opacity="0.35"/><circle cx="838" cy="101" r="0.8" fill="#f7ecd2" opacity="0.73"/><circle cx="761" cy="153" r="1.8" fill="#f7ecd2" opacity="0.68"/><circle cx="77" cy="88" r="0.8" fill="#f7ecd2" opacity="0.61"/><circle cx="980" cy="120" r="42" fill="#f6ecd0" opacity="0.95"/><circle cx="996" cy="112" r="36" fill="url(#sky)" opacity="0.92"/>
<path d="M 350 560 L 600 230 L 850 560 Z" fill="#12141c"/><path d="M 440 560 L 600 230 L 760 560 Z" fill="#f0ead9" opacity="0.22"/><path d="M 560 560 L 600 230 L 640 560 Z" fill="#d8b45a" opacity="0.5"/><path d="M 241 560 L 246 170 L 250 140 L 254 170 L 259 560 Z" fill="#12141c"/><path d="M 321 560 L 326 170 L 330 140 L 334 170 L 339 560 Z" fill="#12141c"/><path d="M 861 560 L 866 170 L 870 140 L 874 170 L 879 560 Z" fill="#12141c"/><path d="M 941 560 L 946 170 L 950 140 L 954 170 L 959 560 Z" fill="#12141c"/>
<rect x="0" y="560" width="1200" height="140" fill="#0c0e14"/>

<rect x="0" y="556" width="1200" height="4" fill="#d8b45a" opacity="0.55"/>
</svg>