<svg xmlns="http://www.w3.org/2000/svg" viewBox="0 0 1200 700" role="img">
<defs>
<linearGradient id="sky" x1="0" y1="0" x2="0" y2="1">
<stop offset="0" stop-color="#41214f"/><stop offset="0.62" stop-color="#a04a6a"/><stop offset="1" stop-color="#f2b98f"/>
</linearGradient>
<pattern id="g1" width="120" height="120" patternUnits="userSpaceOnUse"><polygon points="111.6,60.0 80.0,68.3 96.5,96.5 68.3,80.0 60.0,111.6 51.7,80.0 23.5,96.5 40.0,68.3 8.4,60.0 40.0,51.7 23.5,23.5 51.7,40.0 60.0,8.4 68.3,40.0 96.5,23.5 80.0,51.7" fill="none" stroke="#e8d9a8" stroke-width="1.6" opacity="0.1"/><rect x="17.4" y="17.4" width="85.2" height="85.2" fill="none" stroke="#e8d9a8" stroke-width="1.6" opacity="0.06999999999999999" transform="rotate(45 60.0 60.0)"/></pattern>
</defs>
<rect width="1200" height="700" fill="url(#sky)"/>
<rect width="1200" height="700" fill="url(#g1)"/>
<circle cx="968" cy="88" r="0.8" fill="#f7ecd2" opacity="0.69"/><circle cx="42" cy="41" r="1.8" fill="#f7ecd2" opacity="0.57"/><circle cx="981" cy="169" r="1.3" fill="#f7ecd2" opacity="0.74"/><circle cx="65" cy="212" r="1.3" fill="#f7ecd2" opacity="0.65"/><circle cx="534" cy="70" r="1.3" fill="#f7ecd2" opacity="0.65"/><circle cx="108" cy="123" r="0.8" fill="#f7ecd2" opacity="0.69"/><circle cx="347" cy="111" r="1.8" fill="#f7ecd2" opacity="0.52"/><circle cx="1131" cy="54" r="0.8" fill="#f7ecd2" opacity="0.59"/><circle cx="900" cy="212" r="1.8" fill="#f7ecd2" opacity="0.35"/><circle cx="974" cy="145" r="0.8" fill="#f7ecd2" opacity="0.65"/><circle cx="513" cy="213" r="0.8" fill="#f7ecd2" opacity="0.54"/><circle cx="597" cy="16" r="1.3" fill="#f7ecd2" opacity="0.37"/><circle cx="866" cy="54" r="1.8" fill="#f7ecd2" opacity="0.49"/><circle cx="240" cy="67" r="1.3" fill="#f7ecd2" opacity="0.65"/><circle cx="279" cy="15" r="0.8" fill="#f7ecd2" opacity="0.70"/><circle cx="863" cy="138" r="1.8" fill="#f7ecd2" opacity="0.79"/><circle cx="432" cy="36" r="0.8" fill="#f7ecd2" opacity="0.37"/><circle cx="306" cy="149" r="1.8" fill="#f7ecd2" opacity="0.79"/><circle cx="845" cy="197" r="1.3" fill="#f7ecd2" opacity="0.50"/><circle cx="729" cy="180" r="0.8" fill="#f7ecd2" opacity="0.55"/><circle cx="798" cy="178" r="1.3" fill="#f7ecd2" opacity="0.79"/><circle cx="1172" cy="171" r="1.8" fill="#f7ecd2" opacity="0.47"/><circle cx="1011" cy="79" r="1.3" fill="#f7ecd2" opacity="0.54"/><circle cx="195" cy="142" r="1.3" fill="#f7ecd2" opacity="0.75"/><circle cx="764" cy="20" r="1.3" fill="#f7ecd2" opacity="0.65"/><circle cx="438" cy="93" r="0.8" fill="#f7ecd2" opacity="0.69"/><circle cx="777" cy="101" r="1.8" fill="#f7ecd2" opacity="0.62"/><circle cx="461" cy="44" r="1.3" fill="#f7ecd2" opacity="0.69"/><circle cx="330" cy="2" r="1.8" fill="#f7ecd2" opacity="0.45"/><circle cx="504" cy="175" r="1.3" fill="#f7ecd2" opacity="0.35"/><circle cx="960" cy="210" r="110.00000000000001" fill="#f2b98f" opacity="0.18"/><circle cx="960" cy="210" r="50" fill="#f2b98f" opacity="0.9"/>
<rect x="330" y="370" width="540" height="190" fill="#12141c"/><path d="M 500 560 L 500 300 Q 600 230 700 300 L 700 560 Z" fill="#12141c"/><path d="M 528 560 L 528 320 Q 600 264 672 320 L 672 560 Z" fill="#0c0e14"/><path d="M 552 560 L 552 344 Q 600 298 648 344 L 648 560 Z" fill="#d8b45a" opacity="0.4"/><path d="M 470 370 C 470 268.34, 528.5 250.39999999999998, 600 250.39999999999998 C 671.5 250.39999999999998, 730 268.34, 730 370 Z" fill="#c96a7a"/><line x1="600" y1="250.39999999999998" x2="600" y2="228.39999999999998" stroke="#d8b45a" stroke-width="3"/><circle cx="600" cy="224.39999999999998" r="4.5" fill="#d8b45a"/><path d="M 600 210.39999999999998 a 8 8 0 1 0 6 13 a 6.4 6.4 0 1 1 -6 -13 Z" fill="#d8b45a"/><path d="M 356 520 L 356 440 Q 371 420 386 440 L 386 520 Z" fill="#d84f6a" opacity="0.9"/><path d="M 398 520 L 398 440 Q 413 420 428 440 L 428 520 Z" fill="#e8a04f" opacity="0.9"/><path d="M 440 520 L 440 440 Q 455 420 470 440 L 470 520 Z" fill="#4f8ad8" opacity="0.9"/><path d="M 482 520 L 482 440 Q 497 420 512 440 L 512 520 Z" fill="#5fb87a" opacity="0.9"/><path d="M 524 520 L 524 440 Q 539 420 554 440 L 554 520 Z" fill="#b85fd8" opacity="0.9"/>
<rect x="0" y="560" width="1200" height="140" fill="#0c0e14"/>

<rect x="0" y="556" width="1200" height="4" fill="#d8b45a" opacity="0.55"/>
</svg>