<svg xmlns="http://www.w3.org/2000/svg" viewBox="0 0 1200 700" role="img">
<defs>
<linearGradient id="sky" x1="0" y1="0" x2="0" y2="1">
<stop offset="0" stop-color="#0a1026"/><stop offset="0.62" stop-color="#152046"/><stop offset="1" stop-color="#2b3a6b"/>
</linearGradient>
<pattern id="g1" width="120" height="120" patternUnits="userSpaceOnUse"><polygon points="111.6,60.0 80.0,68.3 96.5,96.5 68.3,80.0 60.0,111.6 51.7,80.0 23.5,96.5 40.0,68.3 8.4,60.0 40.0,51.7 23.5,23.5 51.7,40.0 60.0,8.4 68.3,40.0 96.5,23.5 80.0,51.7" fill="none" stroke="#e8d9a8" stroke-width="1.6" opacity="0.1"/><rect x="17.4" y="17.4" width="85.2" height="85.2" fill="none" stroke="#e8d9a8" stroke-width="1.6" opacity="0.06999999999999999" transform="rotate(45 60.0 60.0)"/></pattern>
</defs>
<rect width="1200" height="700" fill="url(#sky)"/>
<rect width="1200" height="700" fill="url(#g1)"/>
<circle cx="22" cy="2" r="0.8" fill="#f7ecd2" opacity="0.79"/><circle cx="584" cy="143" r="1.3" fill="#f7ecd2" opacity="0.47"/><circle cx="947" cy="235" r="0.8" fill="#f7ecd2" opacity="0.80"/><circle cx="1183" cy="130" r="1.8" fill="#f7ecd2" opacity="0.75"/><circle cx="548" cy="224" r="1.3" fill="#f7ecd2" opacity="0.37"/><circle cx="1130" cy="305" r="1.3" fill="#f7ecd2" opacity="0.35"/><circle cx="553" cy="157" r="1.8" fill="#f7ecd2" opacity="0.56"/><circle cx="569" cy="32" r="1.3" fill="#f7ecd2" opacity="0.43"/><circle cx="674" cy="286" r="0.8" fill="#f7ecd2" opacity="0.49"/><circle cx="76" cy="167" r="0.8" fill="#f7ecd2" opacity="0.77"/><circle cx="959" cy="59" r="1.3" fill="#f7ecd2" opacity="0.66"/><circle cx="755" cy="254" r="1.3" fill="#f7ecd2" opacity="0.55"/><circle cx="400" cy="188" r="0.8" fill="#f7ecd2" opacity="0.35"/><circle cx="1022" cy="149" r="1.3" fill="#f7ecd2" opacity="0.63"/><circle cx="965" cy="141" r="1.8" fill="#f7ecd2" opacity="0.50"/><circle cx="541" cy="316" r="1.8" fill="#f7ecd2" opacity="0.41"/><circle cx="926" cy="70" r="0.8" fill="#f7ecd2" opacity="0.55"/><circle cx="368" cy="171" r="1.8" fill="#f7ecd2" opacity="0.63"/><circle cx="571" cy="63" r="1.3" fill="#f7ecd2" opacity="0.58"/><circle cx="1127" cy="18" r="1.8" fill="#f7ecd2" opacity="0.71"/><circle cx="1052" cy="132" r="1.8" fill="#f7ecd2" opacity="0.49"/><circle cx="514" cy="173" r="0.8" fill="#f7ecd2" opacity="0.57"/><circle cx="977" cy="305" r="1.3" fill="#f7ecd2" opacity="0.70"/><circle cx="113" cy="100" r="0.8" fill="#f7ecd2" opacity="0.35"/><circle cx="778" cy="34" r="1.8" fill="#f7ecd2" opacity="0.37"/><circle cx="260" cy="15" r="1.8" fill="#f7ecd2" opacity="0.35"/><circle cx="983" cy="47" r="1.3" fill="#f7ecd2" opacity="0.36"/><circle cx="1099" cy="302" r="0.8" fill="#f7ecd2" opacity="0.83"/><circle cx="104" cy="116" r="1.3" fill="#f7ecd2" opacity="0.49"/><circle cx="806" cy="177" r="1.8" fill="#f7ecd2" opacity="0.47"/><circle cx="589" cy="309" r="1.3" fill="#f7ecd2" opacity="0.36"/><circle cx="485" cy="204" r="1.8" fill="#f7ecd2" opacity="0.75"/><circle cx="230" cy="178" r="0.8" fill="#f7ecd2" opacity="0.75"/><circle cx="952" cy="179" r="0.8" fill="#f7ecd2" opacity="0.43"/><circle cx="995" cy="211" r="0.8" fill="#f7ecd2" opacity="0.80"/><circle cx="671" cy="86" r="1.3" fill="#f7ecd2" opacity="0.41"/><circle cx="1156" cy="220" r="1.8" fill="#f7ecd2" opacity="0.55"/><circle cx="698" cy="21" r="1.8" fill="#f7ecd2" opacity="0.43"/><circle cx="1001" cy="293" r="1.3" fill="#f7ecd2" opacity="0.78"/><circle cx="457" cy="148" r="1.8" fill="#f7ecd2" opacity="0.71"/><circle cx="482" cy="302" r="1.3" fill="#f7ecd2" opacity="0.49"/><circle cx="44" cy="43" r="0.8" fill="#f7ecd2" opacity="0.77"/><circle cx="607" cy="215" r="0.8" fill="#f7ecd2" opacity="0.40"/><circle cx="1043" cy="190" r="0.8" fill="#f7ecd2" opacity="0.55"/><circle cx="608" cy="24" r="1.8" fill="#f7ecd2" opacity="0.77"/><circle cx="190" cy="45" r="1.3" fill="#f7ecd2" opacity="0.35"/><circle cx="1013" cy="117" r="1.8" fill="#f7ecd2" opacity="0.56"/><circle cx="29" cy="272" r="1.3" fill="#f7ecd2" opacity="0.73"/><circle cx="334" cy="266" r="0.8" fill="#f7ecd2" opacity="0.79"/><circle cx="1136" cy="27" r="1.8" fill="#f7ecd2" opacity="0.57"/><circle cx="1019" cy="199" r="0.8" fill="#f7ecd2" opacity="0.66"/><circle cx="1015" cy="134" r="0.8" fill="#f7ecd2" opacity="0.45"/><circle cx="860" cy="148" r="0.8" fill="#f7ecd2" opacity="0.65"/><circle cx="482" cy="49" r="0.8" fill="#f7ecd2" opacity="0.53"/><circle cx="625" cy="121" r="1.8" fill="#f7ecd2" opacity="0.60"/><circle cx="401" cy="36" r="1.8" fill="#f7ecd2" opacity="0.71"/><circle cx="986" cy="210" r="1.8" fill="#f7ecd2" opacity="0.45"/><circle cx="628" cy="51" r="1.3" fill="#f7ecd2" opacity="0.63"/><circle cx="1031" cy="23" r="1.3" fill="#f7ecd2" opacity="0.48"/><circle cx="587" cy="258" r="1.8" fill="#f7ecd2" opacity="0.81"/><circle cx="980" cy="120" r="42" fill="#f6ecd0" opacity="0.95"/><circle cx="996" cy="112" r="36" fill="url(#sky)" opacity="0.92"/>
<rect x="330" y="370" width="540" height="190" fill="#12141c"/><path d="M 500 560 L 500 300 Q 600 230 700 300 L 700 560 Z" fill="#12141c"/><path d="M 528 560 L 528 320 Q 600 264 672 320 L 672 560 Z" fill="#0c0e14"/><path d="M 552 560 L 552 344 Q 600 298 648 344 L 648 560 Z" fill="#d8b45a" opacity="0.4"/><path d="M 470 370 C 470 268.34, 528.5 250.39999999999998, 600 250.39999999999998 C 671.5 250.39999999999998, 730 268.34, 730 370 Z" fill="#c96a7a"/><line x1="600" y1="250.39999999999998" x2="600" y2="228.39999999999998" stroke="#d8b45a" stroke-width="3"/><circle cx="600" cy="224.39999999999998" r="4.5" fill="#d8b45a"/><path d="M 600 210.39999999999998 a 8 8 0 1 0 6 13 a 6.4 6.4 0 1 1 -6 -13 Z" fill="#d8b45a"/><path d="M 356 520 L 356 440 Q 371 420 386 440 L 386 520 Z" fill="#d84f6a" opacity="0.9"/><path d="M 398 520 L 398 440 Q 413 420 428 440 L 428 520 Z" fill="#e8a04f" opacity="0.9"/><path d="M 440 520 L 440 440 Q 455 420 470 440 L 470 520 Z" fill="#4f8ad8" opacity="0.9"/><path d="M 482 520 L 482 440 Q 497 420 512 440 L 512 520 Z" fill="#5fb87a" opacity="0.9"/><path d="M 524 520 L 524 440 Q 539 420 554 440 L 554 520 Z" fill="#b85fd8" opacity="0.9"/>
<rect x="0" y="560" width="1200" height="140" fill="#0c0e14"/>

<rect x="0" y="556" width="1200" height="4" fill="#d8b45a" opacity="0.55"/>
</svg>