<svg xmlns="http://www.w3.org/2000/svg" viewBox="0 0 1200 700" role="img">
<defs>
<linearGradient id="sky" x1="0" y1="0" x2="0" y2="1">
<stop offset="0" stop-color="#0a1026"/><stop offset="0.62" stop-color="#152046"/><stop offset="1" stop-color="#2b3a6b"/>
</linearGradient>
<pattern id="g1" width="120" height="120" patternUnits="userSpaceOnUse"><polygon points="111.6,60.0 80.0,68.3 96.5,96.5 68.3,80.0 60.0,111.6 51.7,80.0 23.5,96.5 40.0,68.3 8.4,60.0 40.0,51.7 23.5,23.5 51.7,40.0 60.0,8.4 68.3,40.0 96.5,23.5 80.0,51.7" fill="none" stroke="#e8d9a8" stroke-width="1.6" opacity="0.1"/><rect x="17.4" y="17.4" width="85.2" height="85.2" fill="none" stroke="#e8d9a8" stroke-width="1.6" opacity="0.06999999999999999" transform="rotate(45 60.0 60.0)"/></pattern>
</defs>
<rect width="1200" height="700" fill="url(#sky)"/>
<rect width="1200" height="700" fill="url(#g1)"/>
<circle cx="732" cy="252" r="0.8" fill="#f7ecd2" opacity="0.49"/><circle cx="814" cy="133" r="1.8" fill="#f7ecd2" opacity="0.47"/><circle cx="937" cy="265" r="1.8" fill="#f7ecd2" opacity="0.40"/><circle cx="453" cy="280" r="1.3" fill="#f7ecd2" opacity="0.75"/><circle cx="58" cy="334" r="1.8" fill="#f7ecd2" opacity="0.57"/><circle cx="160" cy="155" r="0.8" fill="#f7ecd2" opacity="0.35"/><circle cx="543" cy="187" r="1.3" fill="#f7ecd2" opacity="0.76"/><circle cx="1039" cy="322" r="1.8" fill="#f7ecd2" opacity="0.43"/><circle cx="184" cy="56" r="0.8" fill="#f7ecd2" opacity="0.39"/><circle cx="306" cy="157" r="1.3" fill="#f7ecd2" opacity="0.77"/><circle cx="949" cy="89" r="0.8" fill="#f7ecd2" opacity="0.46"/><circle cx="25" cy="64" r="1.8" fill="#f7ecd2" opacity="0.35"/><circle cx="1110" cy="98" r="1.8" fill="#f7ecd2" opacity="0.65"/><circle cx="52" cy="339" r="1.3" fill="#f7ecd2" opacity="0.63"/><circle cx="955" cy="171" r="1.3" fill="#f7ecd2" opacity="0.40"/><circle cx="1011" cy="266" r="1.8" fill="#f7ecd2" opacity="0.61"/><circle cx="436" cy="180" r="1.3" fill="#f7ecd2" opacity="0.65"/><circle cx="598" cy="161" r="0.8" fill="#f7ecd2" opacity="0.63"/><circle cx="561" cy="93" r="0.8" fill="#f7ecd2" opacity="0.58"/><circle cx="397" cy="168" r="1.3" fill="#f7ecd2" opacity="0.81"/><circle cx="562" cy="242" r="0.8" fill="#f7ecd2" opacity="0.39"/><circle cx="744" cy="163" r="1.3" fill="#f7ecd2" opacity="0.57"/><circle cx="967" cy="335" r="0.8" fill="#f7ecd2" opacity="0.80"/><circle cx="583" cy="50" r="0.8" fill="#f7ecd2" opacity="0.35"/><circle cx="288" cy="144" r="0.8" fill="#f7ecd2" opacity="0.57"/><circle cx="490" cy="5" r="0.8" fill="#f7ecd2" opacity="0.35"/><circle cx="973" cy="77" r="0.8" fill="#f7ecd2" opacity="0.56"/><circle cx="369" cy="112" r="1.3" fill="#f7ecd2" opacity="0.63"/><circle cx="814" cy="26" r="0.8" fill="#f7ecd2" opacity="0.49"/><circle cx="1036" cy="167" r="0.8" fill="#f7ecd2" opacity="0.47"/><circle cx="579" cy="339" r="0.8" fill="#f7ecd2" opacity="0.66"/><circle cx="955" cy="154" r="1.8" fill="#f7ecd2" opacity="0.55"/><circle cx="940" cy="88" r="1.8" fill="#f7ecd2" opacity="0.55"/><circle cx="1182" cy="169" r="1.3" fill="#f7ecd2" opacity="0.43"/><circle cx="985" cy="241" r="1.8" fill="#f7ecd2" opacity="0.70"/><circle cx="1141" cy="36" r="1.3" fill="#f7ecd2" opacity="0.61"/><circle cx="666" cy="330" r="0.8" fill="#f7ecd2" opacity="0.65"/><circle cx="928" cy="11" r="0.8" fill="#f7ecd2" opacity="0.43"/><circle cx="991" cy="323" r="0.8" fill="#f7ecd2" opacity="0.78"/><circle cx="927" cy="98" r="1.8" fill="#f7ecd2" opacity="0.81"/><circle cx="1192" cy="212" r="0.8" fill="#f7ecd2" opacity="0.39"/><circle cx="274" cy="33" r="1.3" fill="#f7ecd2" opacity="0.77"/><circle cx="597" cy="245" r="1.8" fill="#f7ecd2" opacity="0.50"/><circle cx="313" cy="0" r="1.3" fill="#f7ecd2" opacity="0.35"/><circle cx="118" cy="134" r="0.8" fill="#f7ecd2" opacity="0.47"/><circle cx="420" cy="35" r="1.8" fill="#f7ecd2" opacity="0.35"/><circle cx="1003" cy="147" r="1.3" fill="#f7ecd2" opacity="0.76"/><circle cx="499" cy="222" r="1.3" fill="#f7ecd2" opacity="0.63"/><circle cx="1044" cy="176" r="1.8" fill="#f7ecd2" opacity="0.79"/><circle cx="166" cy="217" r="1.8" fill="#f7ecd2" opacity="0.57"/><circle cx="1009" cy="229" r="1.8" fill="#f7ecd2" opacity="0.46"/><circle cx="285" cy="284" r="1.8" fill="#f7ecd2" opacity="0.75"/><circle cx="370" cy="258" r="1.3" fill="#f7ecd2" opacity="0.45"/><circle cx="712" cy="39" r="1.3" fill="#f7ecd2" opacity="0.53"/><circle cx="615" cy="151" r="1.3" fill="#f7ecd2" opacity="0.50"/><circle cx="871" cy="326" r="0.8" fill="#f7ecd2" opacity="0.81"/><circle cx="496" cy="320" r="0.8" fill="#f7ecd2" opacity="0.55"/><circle cx="858" cy="41" r="1.8" fill="#f7ecd2" opacity="0.63"/><circle cx="1021" cy="53" r="0.8" fill="#f7ecd2" opacity="0.48"/><circle cx="1057" cy="208" r="1.8" fill="#f7ecd2" opacity="0.41"/><circle cx="980" cy="120" r="42" fill="#f6ecd0" opacity="0.95"/><circle cx="996" cy="112" r="36" fill="url(#sky)" opacity="0.92"/>
<rect x="330" y="370" width="540" height="190" fill="#12141c"/><path d="M 500 560 L 500 300 Q 600 230 700 300 L 700 560 Z" fill="#12141c"/><path d="M 528 560 L 528 320 Q 600 264 672 320 L 672 560 Z" fill="#0c0e14"/><path d="M 552 560 L 552 344 Q 600 298 648 344 L 648 560 Z" fill="#d8b45a" opacity="0.4"/><path d="M 470 370 C 470 268.34, 528.5 250.39999999999998, 600 250.39999999999998 C 671.5 250.39999999999998, 730 268.34, 730 370 Z" fill="#c96a7a"/><line x1="600" y1="250.39999999999998" x2="600" y2="228.39999999999998" stroke="#d8b45a" stroke-width="3"/><circle cx="600" cy="224.39999999999998" r="4.5" fill="#d8b45a"/><path d="M 600 210.39999999999998 a 8 8 0 1 0 6 13 a 6.4 6.4 0 1 1 -6 -13 Z" fill="#d8b45a"/><path d="M 356 520 L 356 440 Q 371 420 386 440 L 386 520 Z" fill="#d84f6a" opacity="0.9"/><path d="M 398 520 L 398 440 Q 413 420 428 440 L 428 520 Z" fill="#e8a04f" opacity="0.9"/><path d="M 440 520 L 440 440 Q 455 420 470 440 L 470 520 Z" fill="#4f8ad8" opacity="0.9"/><path d="M 482 520 L 482 440 Q 497 420 512 440 L 512 520 Z" fill="#5fb87a" opacity="0.9"/><path d="M 524 520 L 524 440 Q 539 420 554 440 L 554 520 Z" fill="#b85fd8" opacity="0.9"/>
<rect x="0" y="560" width="1200" height="140" fill="#0c0e14"/>

<rect x="0" y="556" width="1200" height="4" fill="#d8b45a" opacity="0.55"/>
</svg>