<svg xmlns="http://www.w3.org/2000/svg" viewBox="0 0 1200 700" role="img">
<defs>
<linearGradient id="sky" x1="0" y1="0" x2="0" y2="1">
<stop offset="0" stop-color="#0a1026"/><stop offset="0.62" stop-color="#152046"/><stop offset="1" stop-color="#2b3a6b"/>
</linearGradient>
<pattern id="g1" width="120" height="120" patternUnits="userSpaceOnUse"><polygon points="111.6,60.0 80.0,68.3 96.5,96.5 68.3,80.0 60.0,111.6 51.7,80.0 23.5,96.5 40.0,68.3 8.4,60.0 40.0,51.7 23.5,23.5 51.7,40.0 60.0,8.4 68.3,40.0 96.5,23.5 80.0,51.7" fill="none" stroke="#e8d9a8" stroke-width="1.6" opacity="0.1"/><rect x="17.4" y="17.4" width="85.2" height="85.2" fill="none" stroke="#e8d9a8" stroke-width="1.6" opacity="0.06999999999999999" transform="rotate(45 60.0 60.0)"/></pattern>
</defs>
<rect width="1200" height="700" fill="url(#sky)"/>
<rect width="1200" height="700" fill="url(#g1)"/>
<circle cx="465" cy="135" r="0.8" fill="#f7ecd2" opacity="0.60"/><circle cx="523" cy="292" r="1.8" fill="#f7ecd2" opacity="0.51"/><circle cx="94" cy="312" r="1.3" fill="#f7ecd2" opacity="0.63"/><circle cx="114" cy="311" r="1.8" fill="#f7ecd2" opacity="0.39"/><circle cx="511" cy="97" r="1.8" fill="#f7ecd2" opacity="0.52"/><circle cx="829" cy="154" r="1.8" fill="#f7ecd2" opacity="0.51"/><circle cx="180" cy="154" r="1.3" fill="#f7ecd2" opacity="0.55"/><circle cx="940" cy="313" r="1.8" fill="#f7ecd2" opacity="0.55"/><circle cx="157" cy="239" r="0.8" fill="#f7ecd2" opacity="0.58"/><circle cx="735" cy="196" r="1.3" fill="#f7ecd2" opacity="0.45"/><circle cx="1066" cy="316" r="1.8" fill="#f7ecd2" opacity="0.41"/><circle cx="166" cy="15" r="1.3" fill="#f7ecd2" opacity="0.75"/><circle cx="603" cy="21" r="0.8" fill="#f7ecd2" opacity="0.48"/><circle cx="241" cy="78" r="1.3" fill="#f7ecd2" opacity="0.83"/><circle cx="352" cy="178" r="1.8" fill="#f7ecd2" opacity="0.41"/><circle cx="192" cy="37" r="1.3" fill="#f7ecd2" opacity="0.39"/><circle cx="649" cy="323" r="0.8" fill="#f7ecd2" opacity="0.62"/><circle cx="547" cy="280" r="1.8" fill="#f7ecd2" opacity="0.45"/><circle cx="438" cy="20" r="1.8" fill="#f7ecd2" opacity="0.45"/><circle cx="1018" cy="39" r="1.3" fill="#f7ecd2" opacity="0.37"/><circle cx="295" cy="125" r="0.8" fill="#f7ecd2" opacity="0.60"/><circle cx="453" cy="322" r="1.3" fill="#f7ecd2" opacity="0.51"/><circle cx="124" cy="42" r="1.3" fill="#f7ecd2" opacity="0.43"/><circle cx="244" cy="81" r="1.3" fill="#f7ecd2" opacity="0.49"/><circle cx="741" cy="247" r="1.3" fill="#f7ecd2" opacity="0.62"/><circle cx="1159" cy="4" r="1.8" fill="#f7ecd2" opacity="0.71"/><circle cx="610" cy="44" r="0.8" fill="#f7ecd2" opacity="0.75"/><circle cx="270" cy="103" r="1.3" fill="#f7ecd2" opacity="0.45"/><circle cx="787" cy="209" r="0.8" fill="#f7ecd2" opacity="0.68"/><circle cx="265" cy="66" r="1.3" fill="#f7ecd2" opacity="0.75"/><circle cx="696" cy="226" r="1.3" fill="#f7ecd2" opacity="0.81"/><circle cx="1096" cy="105" r="1.3" fill="#f7ecd2" opacity="0.65"/><circle cx="433" cy="11" r="0.8" fill="#f7ecd2" opacity="0.48"/><circle cx="171" cy="108" r="0.8" fill="#f7ecd2" opacity="0.53"/><circle cx="382" cy="248" r="0.8" fill="#f7ecd2" opacity="0.71"/><circle cx="322" cy="147" r="1.3" fill="#f7ecd2" opacity="0.69"/><circle cx="879" cy="133" r="1.3" fill="#f7ecd2" opacity="0.42"/><circle cx="877" cy="130" r="1.8" fill="#f7ecd2" opacity="0.45"/><circle cx="868" cy="250" r="1.8" fill="#f7ecd2" opacity="0.35"/><circle cx="348" cy="169" r="1.3" fill="#f7ecd2" opacity="0.47"/><circle cx="925" cy="95" r="0.8" fill="#f7ecd2" opacity="0.60"/><circle cx="1183" cy="332" r="0.8" fill="#f7ecd2" opacity="0.41"/><circle cx="954" cy="92" r="1.8" fill="#f7ecd2" opacity="0.53"/><circle cx="1174" cy="171" r="1.3" fill="#f7ecd2" opacity="0.39"/><circle cx="571" cy="237" r="1.3" fill="#f7ecd2" opacity="0.62"/><circle cx="1089" cy="34" r="1.3" fill="#f7ecd2" opacity="0.61"/><circle cx="640" cy="114" r="1.3" fill="#f7ecd2" opacity="0.45"/><circle cx="400" cy="213" r="1.3" fill="#f7ecd2" opacity="0.35"/><circle cx="1017" cy="19" r="1.3" fill="#f7ecd2" opacity="0.58"/><circle cx="595" cy="256" r="1.8" fill="#f7ecd2" opacity="0.55"/><circle cx="1126" cy="116" r="0.8" fill="#f7ecd2" opacity="0.51"/><circle cx="426" cy="235" r="1.3" fill="#f7ecd2" opacity="0.45"/><circle cx="1063" cy="321" r="1.3" fill="#f7ecd2" opacity="0.58"/><circle cx="901" cy="118" r="1.8" fill="#f7ecd2" opacity="0.53"/><circle cx="12" cy="158" r="1.8" fill="#f7ecd2" opacity="0.81"/><circle cx="52" cy="97" r="1.8" fill="#f7ecd2" opacity="0.79"/><circle cx="709" cy="123" r="1.3" fill="#f7ecd2" opacity="0.42"/><circle cx="807" cy="160" r="1.3" fill="#f7ecd2" opacity="0.55"/><circle cx="898" cy="320" r="0.8" fill="#f7ecd2" opacity="0.45"/><circle cx="478" cy="279" r="1.3" fill="#f7ecd2" opacity="0.47"/><circle cx="980" cy="120" r="42" fill="#f6ecd0" opacity="0.95"/><circle cx="996" cy="112" r="36" fill="url(#sky)" opacity="0.92"/>
<rect x="330" y="370" width="540" height="190" fill="#12141c"/><path d="M 500 560 L 500 300 Q 600 230 700 300 L 700 560 Z" fill="#12141c"/><path d="M 528 560 L 528 320 Q 600 264 672 320 L 672 560 Z" fill="#0c0e14"/><path d="M 552 560 L 552 344 Q 600 298 648 344 L 648 560 Z" fill="#d8b45a" opacity="0.4"/><path d="M 470 370 C 470 268.34, 528.5 250.39999999999998, 600 250.39999999999998 C 671.5 250.39999999999998, 730 268.34, 730 370 Z" fill="#c96a7a"/><line x1="600" y1="250.39999999999998" x2="600" y2="228.39999999999998" stroke="#d8b45a" stroke-width="3"/><circle cx="600" cy="224.39999999999998" r="4.5" fill="#d8b45a"/><path d="M 600 210.39999999999998 a 8 8 0 1 0 6 13 a 6.4 6.4 0 1 1 -6 -13 Z" fill="#d8b45a"/><path d="M 356 520 L 356 440 Q 371 420 386 440 L 386 520 Z" fill="#d84f6a" opacity="0.9"/><path d="M 398 520 L 398 440 Q 413 420 428 440 L 428 520 Z" fill="#e8a04f" opacity="0.9"/><path d="M 440 520 L 440 440 Q 455 420 470 440 L 470 520 Z" fill="#4f8ad8" opacity="0.9"/><path d="M 482 520 L 482 440 Q 497 420 512 440 L 512 520 Z" fill="#5fb87a" opacity="0.9"/><path d="M 524 520 L 524 440 Q 539 420 554 440 L 554 520 Z" fill="#b85fd8" opacity="0.9"/>
<rect x="0" y="560" width="1200" height="140" fill="#0c0e14"/>

<rect x="0" y="556" width="1200" height="4" fill="#d8b45a" opacity="0.55"/>
</svg>