<svg xmlns="http://www.w3.org/2000/svg" viewBox="0 0 1200 700" role="img">
<defs>
<linearGradient id="sky" x1="0" y1="0" x2="0" y2="1">
<stop offset="0" stop-color="#0a1026"/><stop offset="0.62" stop-color="#152046"/><stop offset="1" stop-color="#2b3a6b"/>
</linearGradient>
<pattern id="g1" width="120" height="120" patternUnits="userSpaceOnUse"><polygon points="111.6,60.0 80.0,68.3 96.5,96.5 68.3,80.0 60.0,111.6 51.7,80.0 23.5,96.5 40.0,68.3 8.4,60.0 40.0,51.7 23.5,23.5 51.7,40.0 60.0,8.4 68.3,40.0 96.5,23.5 80.0,51.7" fill="none" stroke="#e8d9a8" stroke-width="1.6" opacity="0.1"/><rect x="17.4" y="17.4" width="85.2" height="85.2" fill="none" stroke="#e8d9a8" stroke-width="1.6" opacity="0.06999999999999999" transform="rotate(45 60.0 60.0)"/></pattern>
</defs>
<rect width="1200" height="700" fill="url(#sky)"/>
<rect width="1200" height="700" fill="url(#g1)"/>
<circle cx="1044" cy="64" r="1.3" fill="#f7ecd2" opacity="0.51"/><circle cx="790" cy="69" r="1.3" fill="#f7ecd2" opacity="0.45"/><circle cx="385" cy="153" r="1.3" fill="#f7ecd2" opacity="0.40"/><circle cx="957" cy="264" r="0.8" fill="#f7ecd2" opacity="0.83"/><circle cx="850" cy="66" r="1.3" fill="#f7ecd2" opacity="0.35"/><circle cx="376" cy="51" r="1.3" fill="#f7ecd2" opacity="0.61"/><circle cx="711" cy="295" r="1.3" fill="#f7ecd2" opacity="0.80"/><circle cx="103" cy="206" r="0.8" fill="#f7ecd2" opacity="0.53"/><circle cx="256" cy="248" r="0.8" fill="#f7ecd2" opacity="0.73"/><circle cx="762" cy="13" r="1.3" fill="#f7ecd2" opacity="0.41"/><circle cx="637" cy="277" r="1.8" fill="#f7ecd2" opacity="0.84"/><circle cx="49" cy="128" r="0.8" fill="#f7ecd2" opacity="0.57"/><circle cx="462" cy="70" r="1.3" fill="#f7ecd2" opacity="0.75"/><circle cx="748" cy="155" r="0.8" fill="#f7ecd2" opacity="0.75"/><circle cx="163" cy="99" r="1.3" fill="#f7ecd2" opacity="0.72"/><circle cx="795" cy="30" r="0.8" fill="#f7ecd2" opacity="0.35"/><circle cx="268" cy="72" r="1.3" fill="#f7ecd2" opacity="0.81"/><circle cx="334" cy="137" r="0.8" fill="#f7ecd2" opacity="0.43"/><circle cx="489" cy="241" r="1.3" fill="#f7ecd2" opacity="0.84"/><circle cx="1141" cy="112" r="1.8" fill="#f7ecd2" opacity="0.77"/><circle cx="874" cy="54" r="1.3" fill="#f7ecd2" opacity="0.81"/><circle cx="720" cy="99" r="0.8" fill="#f7ecd2" opacity="0.65"/><circle cx="415" cy="223" r="1.8" fill="#f7ecd2" opacity="0.80"/><circle cx="1087" cy="34" r="1.8" fill="#f7ecd2" opacity="0.43"/><circle cx="1080" cy="216" r="0.8" fill="#f7ecd2" opacity="0.65"/><circle cx="706" cy="241" r="1.8" fill="#f7ecd2" opacity="0.81"/><circle cx="1141" cy="185" r="0.8" fill="#f7ecd2" opacity="0.70"/><circle cx="633" cy="136" r="1.3" fill="#f7ecd2" opacity="0.73"/><circle cx="886" cy="218" r="0.8" fill="#f7ecd2" opacity="0.83"/><circle cx="292" cy="223" r="1.8" fill="#f7ecd2" opacity="0.51"/><circle cx="267" cy="187" r="1.3" fill="#f7ecd2" opacity="0.64"/><circle cx="979" cy="218" r="0.8" fill="#f7ecd2" opacity="0.57"/><circle cx="292" cy="60" r="1.3" fill="#f7ecd2" opacity="0.55"/><circle cx="678" cy="185" r="1.8" fill="#f7ecd2" opacity="0.65"/><circle cx="193" cy="169" r="1.8" fill="#f7ecd2" opacity="0.52"/><circle cx="925" cy="140" r="0.8" fill="#f7ecd2" opacity="0.35"/><circle cx="498" cy="222" r="0.8" fill="#f7ecd2" opacity="0.41"/><circle cx="664" cy="327" r="1.3" fill="#f7ecd2" opacity="0.63"/><circle cx="919" cy="131" r="0.8" fill="#f7ecd2" opacity="0.74"/><circle cx="471" cy="242" r="1.8" fill="#f7ecd2" opacity="0.67"/><circle cx="304" cy="224" r="0.8" fill="#f7ecd2" opacity="0.81"/><circle cx="250" cy="309" r="1.3" fill="#f7ecd2" opacity="0.35"/><circle cx="45" cy="133" r="1.3" fill="#f7ecd2" opacity="0.70"/><circle cx="817" cy="324" r="1.3" fill="#f7ecd2" opacity="0.43"/><circle cx="910" cy="206" r="0.8" fill="#f7ecd2" opacity="0.45"/><circle cx="636" cy="271" r="1.3" fill="#f7ecd2" opacity="0.41"/><circle cx="1171" cy="255" r="1.3" fill="#f7ecd2" opacity="0.40"/><circle cx="763" cy="246" r="1.3" fill="#f7ecd2" opacity="0.83"/><circle cx="1116" cy="28" r="1.3" fill="#f7ecd2" opacity="0.83"/><circle cx="622" cy="73" r="1.8" fill="#f7ecd2" opacity="0.41"/><circle cx="697" cy="77" r="0.8" fill="#f7ecd2" opacity="0.54"/><circle cx="309" cy="8" r="1.8" fill="#f7ecd2" opacity="0.57"/><circle cx="922" cy="30" r="1.3" fill="#f7ecd2" opacity="0.45"/><circle cx="208" cy="55" r="1.8" fill="#f7ecd2" opacity="0.75"/><circle cx="1023" cy="219" r="0.8" fill="#f7ecd2" opacity="0.72"/><circle cx="655" cy="90" r="1.3" fill="#f7ecd2" opacity="0.35"/><circle cx="328" cy="212" r="0.8" fill="#f7ecd2" opacity="0.71"/><circle cx="594" cy="17" r="1.8" fill="#f7ecd2" opacity="0.83"/><circle cx="949" cy="201" r="1.3" fill="#f7ecd2" opacity="0.84"/><circle cx="601" cy="12" r="1.3" fill="#f7ecd2" opacity="0.47"/><circle cx="980" cy="120" r="42" fill="#f6ecd0" opacity="0.95"/><circle cx="996" cy="112" r="36" fill="url(#sky)" opacity="0.92"/>
<rect x="330" y="370" width="540" height="190" fill="#12141c"/><path d="M 500 560 L 500 300 Q 600 230 700 300 L 700 560 Z" fill="#12141c"/><path d="M 528 560 L 528 320 Q 600 264 672 320 L 672 560 Z" fill="#0c0e14"/><path d="M 552 560 L 552 344 Q 600 298 648 344 L 648 560 Z" fill="#d8b45a" opacity="0.4"/><path d="M 470 370 C 470 268.34, 528.5 250.39999999999998, 600 250.39999999999998 C 671.5 250.39999999999998, 730 268.34, 730 370 Z" fill="#c96a7a"/><line x1="600" y1="250.39999999999998" x2="600" y2="228.39999999999998" stroke="#d8b45a" stroke-width="3"/><circle cx="600" cy="224.39999999999998" r="4.5" fill="#d8b45a"/><path d="M 600 210.39999999999998 a 8 8 0 1 0 6 13 a 6.4 6.4 0 1 1 -6 -13 Z" fill="#d8b45a"/><path d="M 356 520 L 356 440 Q 371 420 386 440 L 386 520 Z" fill="#d84f6a" opacity="0.9"/><path d="M 398 520 L 398 440 Q 413 420 428 440 L 428 520 Z" fill="#e8a04f" opacity="0.9"/><path d="M 440 520 L 440 440 Q 455 420 470 440 L 470 520 Z" fill="#4f8ad8" opacity="0.9"/><path d="M 482 520 L 482 440 Q 497 420 512 440 L 512 520 Z" fill="#5fb87a" opacity="0.9"/><path d="M 524 520 L 524 440 Q 539 420 554 440 L 554 520 Z" fill="#b85fd8" opacity="0.9"/>
<rect x="0" y="560" width="1200" height="140" fill="#0c0e14"/>

<rect x="0" y="556" width="1200" height="4" fill="#d8b45a" opacity="0.55"/>
</svg>