<svg xmlns="http://www.w3.org/2000/svg" viewBox="0 0 1200 700" role="img">
<defs>
<linearGradient id="sky" x1="0" y1="0" x2="0" y2="1">
<stop offset="0" stop-color="#0a1026"/><stop offset="0.62" stop-color="#152046"/><stop offset="1" stop-color="#2b3a6b"/>
</linearGradient>
<pattern id="g1" width="120" height="120" patternUnits="userSpaceOnUse"><polygon points="111.6,60.0 80.0,68.3 96.5,96.5 68.3,80.0 60.0,111.6 51.7,80.0 23.5,96.5 40.0,68.3 8.4,60.0 40.0,51.7 23.5,23.5 51.7,40.0 60.0,8.4 68.3,40.0 96.5,23.5 80.0,51.7" fill="none" stroke="#e8d9a8" stroke-width="1.6" opacity="0.1"/><rect x="17.4" y="17.4" width="85.2" height="85.2" fill="none" stroke="#e8d9a8" stroke-width="1.6" opacity="0.06999999999999999" transform="rotate(45 60.0 60.0)"/></pattern>
</defs>
<rect width="1200" height="700" fill="url(#sky)"/>
<rect width="1200" height="700" fill="url(#g1)"/>
<circle cx="1093" cy="223" r="1.8" fill="#f7ecd2" opacity="0.74"/><circle cx="767" cy="36" r="1.8" fill="#f7ecd2" opacity="0.47"/><circle cx="1106" cy="64" r="0.8" fill="#f7ecd2" opacity="0.69"/><circle cx="790" cy="187" r="1.8" fill="#f7ecd2" opacity="0.65"/><circle cx="659" cy="265" r="0.8" fill="#f7ecd2" opacity="0.70"/><circle cx="833" cy="278" r="1.3" fill="#f7ecd2" opacity="0.59"/><circle cx="472" cy="26" r="0.8" fill="#f7ecd2" opacity="0.57"/><circle cx="656" cy="9" r="1.8" fill="#f7ecd2" opacity="0.39"/><circle cx="1025" cy="287" r="1.3" fill="#f7ecd2" opacity="0.60"/><circle cx="499" cy="20" r="0.8" fill="#f7ecd2" opacity="0.65"/><circle cx="638" cy="308" r="1.3" fill="#f7ecd2" opacity="0.39"/><circle cx="122" cy="11" r="1.3" fill="#f7ecd2" opacity="0.77"/><circle cx="991" cy="149" r="0.8" fill="#f7ecd2" opacity="0.44"/><circle cx="965" cy="82" r="0.8" fill="#f7ecd2" opacity="0.65"/><circle cx="404" cy="90" r="1.8" fill="#f7ecd2" opacity="0.45"/><circle cx="388" cy="333" r="1.3" fill="#f7ecd2" opacity="0.39"/><circle cx="557" cy="191" r="1.3" fill="#f7ecd2" opacity="0.72"/><circle cx="1031" cy="324" r="1.8" fill="#f7ecd2" opacity="0.79"/><circle cx="970" cy="192" r="1.3" fill="#f7ecd2" opacity="0.75"/><circle cx="254" cy="155" r="1.3" fill="#f7ecd2" opacity="0.55"/><circle cx="923" cy="213" r="1.8" fill="#f7ecd2" opacity="0.84"/><circle cx="697" cy="66" r="1.3" fill="#f7ecd2" opacity="0.37"/><circle cx="1136" cy="134" r="1.3" fill="#f7ecd2" opacity="0.59"/><circle cx="920" cy="297" r="1.8" fill="#f7ecd2" opacity="0.75"/><circle cx="889" cy="75" r="1.3" fill="#f7ecd2" opacity="0.60"/><circle cx="1163" cy="128" r="1.3" fill="#f7ecd2" opacity="0.49"/><circle cx="902" cy="256" r="0.8" fill="#f7ecd2" opacity="0.47"/><circle cx="1186" cy="279" r="1.3" fill="#f7ecd2" opacity="0.79"/><circle cx="455" cy="117" r="1.8" fill="#f7ecd2" opacity="0.70"/><circle cx="29" cy="230" r="1.3" fill="#f7ecd2" opacity="0.55"/><circle cx="268" cy="218" r="0.8" fill="#f7ecd2" opacity="0.59"/><circle cx="1052" cy="101" r="1.3" fill="#f7ecd2" opacity="0.37"/><circle cx="821" cy="139" r="0.8" fill="#f7ecd2" opacity="0.54"/><circle cx="895" cy="112" r="1.8" fill="#f7ecd2" opacity="0.75"/><circle cx="434" cy="160" r="0.8" fill="#f7ecd2" opacity="0.75"/><circle cx="518" cy="103" r="0.8" fill="#f7ecd2" opacity="0.39"/><circle cx="787" cy="1" r="1.8" fill="#f7ecd2" opacity="0.72"/><circle cx="161" cy="34" r="0.8" fill="#f7ecd2" opacity="0.59"/><circle cx="200" cy="282" r="1.8" fill="#f7ecd2" opacity="0.35"/><circle cx="784" cy="85" r="1.8" fill="#f7ecd2" opacity="0.75"/><circle cx="353" cy="43" r="0.8" fill="#f7ecd2" opacity="0.64"/><circle cx="227" cy="276" r="1.8" fill="#f7ecd2" opacity="0.37"/><circle cx="766" cy="44" r="0.8" fill="#f7ecd2" opacity="0.39"/><circle cx="650" cy="247" r="0.8" fill="#f7ecd2" opacity="0.35"/><circle cx="719" cy="65" r="1.3" fill="#f7ecd2" opacity="0.70"/><circle cx="1093" cy="158" r="0.8" fill="#f7ecd2" opacity="0.79"/><circle cx="932" cy="326" r="1.3" fill="#f7ecd2" opacity="0.67"/><circle cx="116" cy="249" r="1.8" fill="#f7ecd2" opacity="0.69"/><circle cx="685" cy="267" r="1.3" fill="#f7ecd2" opacity="0.80"/><circle cx="359" cy="80" r="1.3" fill="#f7ecd2" opacity="0.55"/><circle cx="698" cy="108" r="1.8" fill="#f7ecd2" opacity="0.69"/><circle cx="382" cy="231" r="1.3" fill="#f7ecd2" opacity="0.77"/><circle cx="251" cy="309" r="1.8" fill="#f7ecd2" opacity="0.44"/><circle cx="425" cy="322" r="0.8" fill="#f7ecd2" opacity="0.35"/><circle cx="64" cy="70" r="1.8" fill="#f7ecd2" opacity="0.65"/><circle cx="248" cy="53" r="1.3" fill="#f7ecd2" opacity="0.79"/><circle cx="617" cy="331" r="0.8" fill="#f7ecd2" opacity="0.62"/><circle cx="91" cy="64" r="1.8" fill="#f7ecd2" opacity="0.59"/><circle cx="230" cy="12" r="1.8" fill="#f7ecd2" opacity="0.45"/><circle cx="914" cy="195" r="1.8" fill="#f7ecd2" opacity="0.65"/><circle cx="980" cy="120" r="42" fill="#f6ecd0" opacity="0.95"/><circle cx="996" cy="112" r="36" fill="url(#sky)" opacity="0.92"/>
<rect x="330" y="370" width="540" height="190" fill="#12141c"/><path d="M 500 560 L 500 300 Q 600 230 700 300 L 700 560 Z" fill="#12141c"/><path d="M 528 560 L 528 320 Q 600 264 672 320 L 672 560 Z" fill="#0c0e14"/><path d="M 552 560 L 552 344 Q 600 298 648 344 L 648 560 Z" fill="#d8b45a" opacity="0.4"/><path d="M 470 370 C 470 268.34, 528.5 250.39999999999998, 600 250.39999999999998 C 671.5 250.39999999999998, 730 268.34, 730 370 Z" fill="#c96a7a"/><line x1="600" y1="250.39999999999998" x2="600" y2="228.39999999999998" stroke="#d8b45a" stroke-width="3"/><circle cx="600" cy="224.39999999999998" r="4.5" fill="#d8b45a"/><path d="M 600 210.39999999999998 a 8 8 0 1 0 6 13 a 6.4 6.4 0 1 1 -6 -13 Z" fill="#d8b45a"/><path d="M 356 520 L 356 440 Q 371 420 386 440 L 386 520 Z" fill="#d84f6a" opacity="0.9"/><path d="M 398 520 L 398 440 Q 413 420 428 440 L 428 520 Z" fill="#e8a04f" opacity="0.9"/><path d="M 440 520 L 440 440 Q 455 420 470 440 L 470 520 Z" fill="#4f8ad8" opacity="0.9"/><path d="M 482 520 L 482 440 Q 497 420 512 440 L 512 520 Z" fill="#5fb87a" opacity="0.9"/><path d="M 524 520 L 524 440 Q 539 420 554 440 L 554 520 Z" fill="#b85fd8" opacity="0.9"/>
<rect x="0" y="560" width="1200" height="140" fill="#0c0e14"/>

<rect x="0" y="556" width="1200" height="4" fill="#d8b45a" opacity="0.55"/>
</svg>