<svg xmlns="http://www.w3.org/2000/svg" viewBox="0 0 1200 700" role="img">
<defs>
<linearGradient id="sky" x1="0" y1="0" x2="0" y2="1">
<stop offset="0" stop-color="#0a1026"/><stop offset="0.62" stop-color="#152046"/><stop offset="1" stop-color="#2b3a6b"/>
</linearGradient>
<pattern id="g1" width="120" height="120" patternUnits="userSpaceOnUse"><polygon points="111.6,60.0 80.0,68.3 96.5,96.5 68.3,80.0 60.0,111.6 51.7,80.0 23.5,96.5 40.0,68.3 8.4,60.0 40.0,51.7 23.5,23.5 51.7,40.0 60.0,8.4 68.3,40.0 96.5,23.5 80.0,51.7" fill="none" stroke="#e8d9a8" stroke-width="1.6" opacity="0.1"/><rect x="17.4" y="17.4" width="85.2" height="85.2" fill="none" stroke="#e8d9a8" stroke-width="1.6" opacity="0.06999999999999999" transform="rotate(45 60.0 60.0)"/></pattern>
</defs>
<rect width="1200" height="700" fill="url(#sky)"/>
<rect width="1200" height="700" fill="url(#g1)"/>
<circle cx="49" cy="159" r="1.3" fill="#f7ecd2" opacity="0.76"/><circle cx="155" cy="104" r="1.3" fill="#f7ecd2" opacity="0.55"/><circle cx="830" cy="8" r="1.3" fill="#f7ecd2" opacity="0.75"/><circle cx="1042" cy="179" r="0.8" fill="#f7ecd2" opacity="0.53"/><circle cx="1055" cy="301" r="0.8" fill="#f7ecd2" opacity="0.40"/><circle cx="941" cy="226" r="0.8" fill="#f7ecd2" opacity="0.51"/><circle cx="1156" cy="150" r="1.3" fill="#f7ecd2" opacity="0.35"/><circle cx="188" cy="121" r="0.8" fill="#f7ecd2" opacity="0.83"/><circle cx="461" cy="143" r="1.3" fill="#f7ecd2" opacity="0.58"/><circle cx="127" cy="48" r="1.3" fill="#f7ecd2" opacity="0.81"/><circle cx="1082" cy="132" r="1.8" fill="#f7ecd2" opacity="0.59"/><circle cx="134" cy="43" r="0.8" fill="#f7ecd2" opacity="0.47"/><circle cx="667" cy="305" r="0.8" fill="#f7ecd2" opacity="0.70"/><circle cx="113" cy="190" r="0.8" fill="#f7ecd2" opacity="0.55"/><circle cx="608" cy="294" r="1.8" fill="#f7ecd2" opacity="0.37"/><circle cx="880" cy="285" r="1.3" fill="#f7ecd2" opacity="0.35"/><circle cx="473" cy="307" r="0.8" fill="#f7ecd2" opacity="0.46"/><circle cx="899" cy="312" r="1.8" fill="#f7ecd2" opacity="0.73"/><circle cx="934" cy="96" r="1.3" fill="#f7ecd2" opacity="0.49"/><circle cx="26" cy="227" r="1.3" fill="#f7ecd2" opacity="0.37"/><circle cx="1079" cy="289" r="0.8" fill="#f7ecd2" opacity="0.66"/><circle cx="85" cy="134" r="0.8" fill="#f7ecd2" opacity="0.75"/><circle cx="860" cy="78" r="1.8" fill="#f7ecd2" opacity="0.65"/><circle cx="1172" cy="289" r="0.8" fill="#f7ecd2" opacity="0.43"/><circle cx="85" cy="311" r="0.8" fill="#f7ecd2" opacity="0.70"/><circle cx="71" cy="276" r="1.8" fill="#f7ecd2" opacity="0.81"/><circle cx="386" cy="240" r="1.8" fill="#f7ecd2" opacity="0.75"/><circle cx="718" cy="51" r="1.3" fill="#f7ecd2" opacity="0.53"/><circle cx="1091" cy="113" r="1.3" fill="#f7ecd2" opacity="0.68"/><circle cx="857" cy="58" r="0.8" fill="#f7ecd2" opacity="0.41"/><circle cx="712" cy="42" r="1.3" fill="#f7ecd2" opacity="0.39"/><circle cx="1064" cy="133" r="0.8" fill="#f7ecd2" opacity="0.47"/><circle cx="497" cy="295" r="0.8" fill="#f7ecd2" opacity="0.50"/><circle cx="43" cy="220" r="1.8" fill="#f7ecd2" opacity="0.45"/><circle cx="638" cy="24" r="1.8" fill="#f7ecd2" opacity="0.47"/><circle cx="1010" cy="55" r="0.8" fill="#f7ecd2" opacity="0.35"/><circle cx="703" cy="117" r="1.3" fill="#f7ecd2" opacity="0.36"/><circle cx="29" cy="22" r="0.8" fill="#f7ecd2" opacity="0.73"/><circle cx="164" cy="186" r="1.8" fill="#f7ecd2" opacity="0.39"/><circle cx="556" cy="157" r="1.8" fill="#f7ecd2" opacity="0.77"/><circle cx="509" cy="119" r="1.3" fill="#f7ecd2" opacity="0.56"/><circle cx="815" cy="144" r="1.8" fill="#f7ecd2" opacity="0.45"/><circle cx="490" cy="328" r="1.8" fill="#f7ecd2" opacity="0.55"/><circle cx="902" cy="239" r="1.3" fill="#f7ecd2" opacity="0.63"/><circle cx="1115" cy="101" r="1.3" fill="#f7ecd2" opacity="0.50"/><circle cx="1" cy="306" r="1.3" fill="#f7ecd2" opacity="0.41"/><circle cx="416" cy="310" r="0.8" fill="#f7ecd2" opacity="0.45"/><circle cx="848" cy="161" r="1.3" fill="#f7ecd2" opacity="0.63"/><circle cx="121" cy="123" r="1.3" fill="#f7ecd2" opacity="0.68"/><circle cx="1187" cy="248" r="1.3" fill="#f7ecd2" opacity="0.61"/><circle cx="1142" cy="272" r="1.3" fill="#f7ecd2" opacity="0.59"/><circle cx="394" cy="263" r="0.8" fill="#f7ecd2" opacity="0.57"/><circle cx="1127" cy="265" r="0.8" fill="#f7ecd2" opacity="0.40"/><circle cx="773" cy="230" r="1.3" fill="#f7ecd2" opacity="0.75"/><circle cx="268" cy="274" r="1.8" fill="#f7ecd2" opacity="0.67"/><circle cx="740" cy="5" r="1.3" fill="#f7ecd2" opacity="0.35"/><circle cx="533" cy="107" r="1.3" fill="#f7ecd2" opacity="0.66"/><circle cx="1159" cy="192" r="1.3" fill="#f7ecd2" opacity="0.63"/><circle cx="194" cy="256" r="0.8" fill="#f7ecd2" opacity="0.49"/><circle cx="686" cy="267" r="1.8" fill="#f7ecd2" opacity="0.47"/><circle cx="980" cy="120" r="42" fill="#f6ecd0" opacity="0.95"/><circle cx="996" cy="112" r="36" fill="url(#sky)" opacity="0.92"/>
<rect x="330" y="370" width="540" height="190" fill="#12141c"/><path d="M 500 560 L 500 300 Q 600 230 700 300 L 700 560 Z" fill="#12141c"/><path d="M 528 560 L 528 320 Q 600 264 672 320 L 672 560 Z" fill="#0c0e14"/><path d="M 552 560 L 552 344 Q 600 298 648 344 L 648 560 Z" fill="#d8b45a" opacity="0.4"/><path d="M 470 370 C 470 268.34, 528.5 250.39999999999998, 600 250.39999999999998 C 671.5 250.39999999999998, 730 268.34, 730 370 Z" fill="#c96a7a"/><line x1="600" y1="250.39999999999998" x2="600" y2="228.39999999999998" stroke="#d8b45a" stroke-width="3"/><circle cx="600" cy="224.39999999999998" r="4.5" fill="#d8b45a"/><path d="M 600 210.39999999999998 a 8 8 0 1 0 6 13 a 6.4 6.4 0 1 1 -6 -13 Z" fill="#d8b45a"/><path d="M 356 520 L 356 440 Q 371 420 386 440 L 386 520 Z" fill="#d84f6a" opacity="0.9"/><path d="M 398 520 L 398 440 Q 413 420 428 440 L 428 520 Z" fill="#e8a04f" opacity="0.9"/><path d="M 440 520 L 440 440 Q 455 420 470 440 L 470 520 Z" fill="#4f8ad8" opacity="0.9"/><path d="M 482 520 L 482 440 Q 497 420 512 440 L 512 520 Z" fill="#5fb87a" opacity="0.9"/><path d="M 524 520 L 524 440 Q 539 420 554 440 L 554 520 Z" fill="#b85fd8" opacity="0.9"/>
<rect x="0" y="560" width="1200" height="140" fill="#0c0e14"/>

<rect x="0" y="556" width="1200" height="4" fill="#d8b45a" opacity="0.55"/>
</svg>