<svg xmlns="http://www.w3.org/2000/svg" viewBox="0 0 1200 700" role="img">
<defs>
<linearGradient id="sky" x1="0" y1="0" x2="0" y2="1">
<stop offset="0" stop-color="#1a2a4a"/><stop offset="0.62" stop-color="#3d5a8e"/><stop offset="1" stop-color="#e8c97a"/>
</linearGradient>
<pattern id="g1" width="120" height="120" patternUnits="userSpaceOnUse"><polygon points="111.6,60.0 80.0,68.3 96.5,96.5 68.3,80.0 60.0,111.6 51.7,80.0 23.5,96.5 40.0,68.3 8.4,60.0 40.0,51.7 23.5,23.5 51.7,40.0 60.0,8.4 68.3,40.0 96.5,23.5 80.0,51.7" fill="none" stroke="#e8d9a8" stroke-width="1.6" opacity="0.1"/><rect x="17.4" y="17.4" width="85.2" height="85.2" fill="none" stroke="#e8d9a8" stroke-width="1.6" opacity="0.06999999999999999" transform="rotate(45 60.0 60.0)"/></pattern>
</defs>
<rect width="1200" height="700" fill="url(#sky)"/>
<rect width="1200" height="700" fill="url(#g1)"/>
<circle cx="731" cy="1" r="0.8" fill="#f7ecd2" opacity="0.66"/><circle cx="741" cy="150" r="0.8" fill="#f7ecd2" opacity="0.35"/><circle cx="408" cy="6" r="0.8" fill="#f7ecd2" opacity="0.83"/><circle cx="236" cy="13" r="0.8" fill="#f7ecd2" opacity="0.53"/><circle cx="1017" cy="83" r="1.8" fill="#f7ecd2" opacity="0.46"/><circle cx="567" cy="52" r="1.3" fill="#f7ecd2" opacity="0.69"/><circle cx="254" cy="88" r="0.8" fill="#f7ecd2" opacity="0.37"/><circle cx="342" cy="15" r="0.8" fill="#f7ecd2" opacity="0.65"/><circle cx="903" cy="85" r="1.3" fill="#f7ecd2" opacity="0.40"/><circle cx="1193" cy="114" r="1.8" fill="#f7ecd2" opacity="0.37"/><circle cx="900" cy="110" r="1.8" fill="#f7ecd2" opacity="0.35"/><circle cx="48" cy="157" r="1.3" fill="#f7ecd2" opacity="0.71"/><circle cx="389" cy="7" r="0.8" fill="#f7ecd2" opacity="0.58"/><circle cx="219" cy="76" r="1.3" fill="#f7ecd2" opacity="0.79"/><circle cx="1146" cy="52" r="1.3" fill="#f7ecd2" opacity="0.77"/><circle cx="554" cy="19" r="0.8" fill="#f7ecd2" opacity="0.61"/><circle cx="675" cy="89" r="1.8" fill="#f7ecd2" opacity="0.60"/><circle cx="45" cy="198" r="0.8" fill="#f7ecd2" opacity="0.45"/><circle cx="992" cy="134" r="1.3" fill="#f7ecd2" opacity="0.63"/><circle cx="660" cy="21" r="0.8" fill="#f7ecd2" opacity="0.45"/><circle cx="561" cy="91" r="1.3" fill="#f7ecd2" opacity="0.36"/><circle cx="671" cy="40" r="0.8" fill="#f7ecd2" opacity="0.75"/><circle cx="438" cy="136" r="1.3" fill="#f7ecd2" opacity="0.53"/><circle cx="366" cy="163" r="1.3" fill="#f7ecd2" opacity="0.43"/><circle cx="47" cy="13" r="0.8" fill="#f7ecd2" opacity="0.46"/><circle cx="897" cy="22" r="1.3" fill="#f7ecd2" opacity="0.69"/><circle cx="684" cy="78" r="0.8" fill="#f7ecd2" opacity="0.37"/><circle cx="872" cy="25" r="0.8" fill="#f7ecd2" opacity="0.35"/><circle cx="333" cy="95" r="1.8" fill="#f7ecd2" opacity="0.70"/><circle cx="723" cy="144" r="0.8" fill="#f7ecd2" opacity="0.47"/><circle cx="960" cy="210" r="110.00000000000001" fill="#e8c97a" opacity="0.18"/><circle cx="960" cy="210" r="50" fill="#e8c97a" opacity="0.9"/>
<rect x="240" y="410" width="720" height="150" fill="#12141c"/><path d="M 268 560 L 268 472 Q 300 432 332 472 L 332 560 Z" fill="#0c0e14" opacity="0.9"/><path d="M 366 560 L 366 472 Q 398 432 430 472 L 430 560 Z" fill="#0c0e14" opacity="0.9"/><path d="M 464 560 L 464 472 Q 496 432 528 472 L 528 560 Z" fill="#0c0e14" opacity="0.9"/><path d="M 562 560 L 562 472 Q 594 432 626 472 L 626 560 Z" fill="#0c0e14" opacity="0.9"/><path d="M 660 560 L 660 472 Q 692 432 724 472 L 724 560 Z" fill="#0c0e14" opacity="0.9"/><path d="M 758 560 L 758 472 Q 790 432 822 472 L 822 560 Z" fill="#0c0e14" opacity="0.9"/><path d="M 856 560 L 856 472 Q 888 432 920 472 L 920 560 Z" fill="#0c0e14" opacity="0.9"/><path d="M 410 410 C 410 282.5, 495.5 260, 600 260 C 704.5 260, 790 282.5, 790 410 Z" fill="#12141c"/><line x1="600" y1="260" x2="600" y2="238" stroke="#d8b45a" stroke-width="3"/><circle cx="600" cy="234" r="4.5" fill="#d8b45a"/><path d="M 600 220 a 8 8 0 1 0 6 13 a 6.4 6.4 0 1 1 -6 -13 Z" fill="#d8b45a"/><path d="M 345 412 C 345 347.4, 387.75 336.0, 440 336.0 C 492.25 336.0, 535 347.4, 535 412 Z" fill="#12141c"/><line x1="440" y1="336.0" x2="440" y2="314.0" stroke="#d8b45a" stroke-width="3"/><circle cx="440" cy="310.0" r="4.5" fill="#d8b45a"/><path d="M 440 296.0 a 8 8 0 1 0 6 13 a 6.4 6.4 0 1 1 -6 -13 Z" fill="#d8b45a"/><path d="M 665 412 C 665 347.4, 707.75 336.0, 760 336.0 C 812.25 336.0, 855 347.4, 855 412 Z" fill="#12141c"/><line x1="760" y1="336.0" x2="760" y2="314.0" stroke="#d8b45a" stroke-width="3"/><circle cx="760" cy="310.0" r="4.5" fill="#d8b45a"/><path d="M 760 296.0 a 8 8 0 1 0 6 13 a 6.4 6.4 0 1 1 -6 -13 Z" fill="#d8b45a"/><path d="M 270 412 C 270 371.2, 297.0 364.0, 330 364.0 C 363.0 364.0, 390 371.2, 390 412 Z" fill="#12141c"/><line x1="330" y1="364.0" x2="330" y2="342.0" stroke="#d8b45a" stroke-width="3"/><circle cx="330" cy="338.0" r="4.5" fill="#d8b45a"/><path d="M 330 324.0 a 8 8 0 1 0 6 13 a 6.4 6.4 0 1 1 -6 -13 Z" fill="#d8b45a"/><path d="M 810 412 C 810 371.2, 837.0 364.0, 870 364.0 C 903.0 364.0, 930 371.2, 930 412 Z" fill="#12141c"/><line x1="870" y1="364.0" x2="870" y2="342.0" stroke="#d8b45a" stroke-width="3"/><circle cx="870" cy="338.0" r="4.5" fill="#d8b45a"/><path d="M 870 324.0 a 8 8 0 1 0 6 13 a 6.4 6.4 0 1 1 -6 -13 Z" fill="#d8b45a"/><rect x="139.0" y="170" width="22" height="390" fill="#12141c"/><rect x="129.1" y="174" width="41.8" height="7" rx="3" fill="#12141c"/><path d="M 134.6 172 L 150 114 L 165.4 172 Z" fill="#12141c"/>
<rect x="0" y="560" width="1200" height="140" fill="#0c0e14"/>

<rect x="0" y="556" width="1200" height="4" fill="#d8b45a" opacity="0.55"/>
</svg>