<svg xmlns="http://www.w3.org/2000/svg" viewBox="0 0 1200 700" role="img">
<defs>
<linearGradient id="sky" x1="0" y1="0" x2="0" y2="1">
<stop offset="0" stop-color="#0a1026"/><stop offset="0.62" stop-color="#152046"/><stop offset="1" stop-color="#2b3a6b"/>
</linearGradient>
<pattern id="g1" width="120" height="120" patternUnits="userSpaceOnUse"><polygon points="111.6,60.0 80.0,68.3 96.5,96.5 68.3,80.0 60.0,111.6 51.7,80.0 23.5,96.5 40.0,68.3 8.4,60.0 40.0,51.7 23.5,23.5 51.7,40.0 60.0,8.4 68.3,40.0 96.5,23.5 80.0,51.7" fill="none" stroke="#e8d9a8" stroke-width="1.6" opacity="0.1"/><rect x="17.4" y="17.4" width="85.2" height="85.2" fill="none" stroke="#e8d9a8" stroke-width="1.6" opacity="0.06999999999999999" transform="rotate(45 60.0 60.0)"/></pattern>
</defs>
<rect width="1200" height="700" fill="url(#sky)"/>
<rect width="1200" height="700" fill="url(#g1)"/>
<circle cx="777" cy="287" r="1.8" fill="#f7ecd2" opacity="0.84"/><circle cx="499" cy="228" r="1.3" fill="#f7ecd2" opacity="0.57"/><circle cx="742" cy="0" r="1.3" fill="#f7ecd2" opacity="0.35"/><circle cx="618" cy="295" r="1.3" fill="#f7ecd2" opacity="0.45"/><circle cx="103" cy="29" r="0.8" fill="#f7ecd2" opacity="0.72"/><circle cx="1045" cy="50" r="0.8" fill="#f7ecd2" opacity="0.35"/><circle cx="348" cy="262" r="1.3" fill="#f7ecd2" opacity="0.61"/><circle cx="4" cy="197" r="0.8" fill="#f7ecd2" opacity="0.73"/><circle cx="229" cy="91" r="1.8" fill="#f7ecd2" opacity="0.74"/><circle cx="1191" cy="52" r="1.3" fill="#f7ecd2" opacity="0.67"/><circle cx="754" cy="164" r="0.8" fill="#f7ecd2" opacity="0.41"/><circle cx="190" cy="79" r="1.8" fill="#f7ecd2" opacity="0.45"/><circle cx="1155" cy="133" r="1.3" fill="#f7ecd2" opacity="0.50"/><circle cx="937" cy="234" r="1.3" fill="#f7ecd2" opacity="0.43"/><circle cx="760" cy="246" r="1.3" fill="#f7ecd2" opacity="0.45"/><circle cx="1176" cy="281" r="1.8" fill="#f7ecd2" opacity="0.41"/><circle cx="481" cy="215" r="0.8" fill="#f7ecd2" opacity="0.50"/><circle cx="283" cy="256" r="1.8" fill="#f7ecd2" opacity="0.83"/><circle cx="366" cy="168" r="0.8" fill="#f7ecd2" opacity="0.73"/><circle cx="562" cy="183" r="1.3" fill="#f7ecd2" opacity="0.81"/><circle cx="607" cy="277" r="1.8" fill="#f7ecd2" opacity="0.74"/><circle cx="429" cy="258" r="0.8" fill="#f7ecd2" opacity="0.67"/><circle cx="772" cy="70" r="1.8" fill="#f7ecd2" opacity="0.75"/><circle cx="748" cy="65" r="0.8" fill="#f7ecd2" opacity="0.55"/><circle cx="333" cy="179" r="1.8" fill="#f7ecd2" opacity="0.42"/><circle cx="175" cy="100" r="1.8" fill="#f7ecd2" opacity="0.35"/><circle cx="778" cy="152" r="0.8" fill="#f7ecd2" opacity="0.41"/><circle cx="534" cy="127" r="1.3" fill="#f7ecd2" opacity="0.53"/><circle cx="859" cy="61" r="1.8" fill="#f7ecd2" opacity="0.84"/><circle cx="721" cy="262" r="1.8" fill="#f7ecd2" opacity="0.37"/><circle cx="384" cy="74" r="1.8" fill="#f7ecd2" opacity="0.51"/><circle cx="1120" cy="169" r="1.8" fill="#f7ecd2" opacity="0.65"/><circle cx="985" cy="123" r="1.3" fill="#f7ecd2" opacity="0.40"/><circle cx="867" cy="264" r="0.8" fill="#f7ecd2" opacity="0.73"/><circle cx="790" cy="316" r="1.8" fill="#f7ecd2" opacity="0.75"/><circle cx="106" cy="251" r="0.8" fill="#f7ecd2" opacity="0.41"/><circle cx="711" cy="25" r="1.3" fill="#f7ecd2" opacity="0.60"/><circle cx="613" cy="106" r="1.8" fill="#f7ecd2" opacity="0.63"/><circle cx="796" cy="58" r="1.8" fill="#f7ecd2" opacity="0.53"/><circle cx="1092" cy="113" r="1.8" fill="#f7ecd2" opacity="0.81"/><circle cx="37" cy="107" r="0.8" fill="#f7ecd2" opacity="0.44"/><circle cx="1159" cy="268" r="1.8" fill="#f7ecd2" opacity="0.47"/><circle cx="402" cy="320" r="1.8" fill="#f7ecd2" opacity="0.75"/><circle cx="478" cy="15" r="1.3" fill="#f7ecd2" opacity="0.55"/><circle cx="163" cy="169" r="1.8" fill="#f7ecd2" opacity="0.82"/><circle cx="105" cy="130" r="1.3" fill="#f7ecd2" opacity="0.35"/><circle cx="808" cy="222" r="1.3" fill="#f7ecd2" opacity="0.61"/><circle cx="664" cy="237" r="1.3" fill="#f7ecd2" opacity="0.53"/><circle cx="1089" cy="211" r="1.3" fill="#f7ecd2" opacity="0.64"/><circle cx="1051" cy="112" r="1.8" fill="#f7ecd2" opacity="0.47"/><circle cx="814" cy="304" r="1.8" fill="#f7ecd2" opacity="0.41"/><circle cx="450" cy="299" r="1.8" fill="#f7ecd2" opacity="0.35"/><circle cx="415" cy="293" r="0.8" fill="#f7ecd2" opacity="0.80"/><circle cx="397" cy="134" r="0.8" fill="#f7ecd2" opacity="0.83"/><circle cx="420" cy="226" r="1.3" fill="#f7ecd2" opacity="0.55"/><circle cx="1036" cy="1" r="1.8" fill="#f7ecd2" opacity="0.71"/><circle cx="541" cy="15" r="1.3" fill="#f7ecd2" opacity="0.50"/><circle cx="543" cy="136" r="1.3" fill="#f7ecd2" opacity="0.83"/><circle cx="826" cy="128" r="0.8" fill="#f7ecd2" opacity="0.63"/><circle cx="22" cy="83" r="0.8" fill="#f7ecd2" opacity="0.61"/><circle cx="980" cy="120" r="42" fill="#f6ecd0" opacity="0.95"/><circle cx="996" cy="112" r="36" fill="url(#sky)" opacity="0.92"/>
<rect x="240" y="410" width="720" height="150" fill="#12141c"/><path d="M 268 560 L 268 472 Q 300 432 332 472 L 332 560 Z" fill="#0c0e14" opacity="0.9"/><path d="M 366 560 L 366 472 Q 398 432 430 472 L 430 560 Z" fill="#0c0e14" opacity="0.9"/><path d="M 464 560 L 464 472 Q 496 432 528 472 L 528 560 Z" fill="#0c0e14" opacity="0.9"/><path d="M 562 560 L 562 472 Q 594 432 626 472 L 626 560 Z" fill="#0c0e14" opacity="0.9"/><path d="M 660 560 L 660 472 Q 692 432 724 472 L 724 560 Z" fill="#0c0e14" opacity="0.9"/><path d="M 758 560 L 758 472 Q 790 432 822 472 L 822 560 Z" fill="#0c0e14" opacity="0.9"/><path d="M 856 560 L 856 472 Q 888 432 920 472 L 920 560 Z" fill="#0c0e14" opacity="0.9"/><path d="M 450 410 C 450 265.5, 517.5 240, 600 240 C 682.5 240, 750 265.5, 750 410 Z" fill="#e9e4d8"/><line x1="600" y1="240" x2="600" y2="218" stroke="#d8b45a" stroke-width="3"/><circle cx="600" cy="214" r="4.5" fill="#d8b45a"/><path d="M 600 200 a 8 8 0 1 0 6 13 a 6.4 6.4 0 1 1 -6 -13 Z" fill="#d8b45a"/><path d="M 300 410 C 300 312.25, 345.0 295, 400 295 C 455.0 295, 500 312.25, 500 410 Z" fill="#e9e4d8"/><line x1="400" y1="295" x2="400" y2="273" stroke="#d8b45a" stroke-width="3"/><circle cx="400" cy="269" r="4.5" fill="#d8b45a"/><path d="M 400 255 a 8 8 0 1 0 6 13 a 6.4 6.4 0 1 1 -6 -13 Z" fill="#d8b45a"/><path d="M 700 410 C 700 312.25, 745.0 295, 800 295 C 855.0 295, 900 312.25, 900 410 Z" fill="#e9e4d8"/><line x1="800" y1="295" x2="800" y2="273" stroke="#d8b45a" stroke-width="3"/><circle cx="800" cy="269" r="4.5" fill="#d8b45a"/><path d="M 800 255 a 8 8 0 1 0 6 13 a 6.4 6.4 0 1 1 -6 -13 Z" fill="#d8b45a"/><path d="M 223 410 C 223 348.8, 250.9 338, 285 338 C 319.1 338, 347 348.8, 347 410 Z" fill="#e9e4d8"/><line x1="285" y1="338" x2="285" y2="316" stroke="#d8b45a" stroke-width="3"/><circle cx="285" cy="312" r="4.5" fill="#d8b45a"/><path d="M 285 298 a 8 8 0 1 0 6 13 a 6.4 6.4 0 1 1 -6 -13 Z" fill="#d8b45a"/><path d="M 853 410 C 853 348.8, 880.9 338, 915 338 C 949.1 338, 977 348.8, 977 410 Z" fill="#e9e4d8"/><line x1="915" y1="338" x2="915" y2="316" stroke="#d8b45a" stroke-width="3"/><circle cx="915" cy="312" r="4.5" fill="#d8b45a"/><path d="M 915 298 a 8 8 0 1 0 6 13 a 6.4 6.4 0 1 1 -6 -13 Z" fill="#d8b45a"/><rect x="99.0" y="230" width="22" height="330" fill="#12141c"/><rect x="89.1" y="234" width="41.8" height="7" rx="3" fill="#12141c"/><path d="M 91.3 232 C 91.3 210.495, 99.715 206.7, 110 206.7 C 120.285 206.7, 128.7 210.495, 128.7 232 Z" fill="#12141c"/><line x1="110" y1="206.7" x2="110" y2="184.7" stroke="#d8b45a" stroke-width="3"/><circle cx="110" cy="180.7" r="4.5" fill="#d8b45a"/><path d="M 110 166.7 a 8 8 0 1 0 6 13 a 6.4 6.4 0 1 1 -6 -13 Z" fill="#d8b45a"/><rect x="224.0" y="230" width="22" height="330" fill="#12141c"/><rect x="214.1" y="234" width="41.8" height="7" rx="3" fill="#12141c"/><path d="M 216.3 232 C 216.3 210.495, 224.715 206.7, 235 206.7 C 245.285 206.7, 253.7 210.495, 253.7 232 Z" fill="#12141c"/><line x1="235" y1="206.7" x2="235" y2="184.7" stroke="#d8b45a" stroke-width="3"/><circle cx="235" cy="180.7" r="4.5" fill="#d8b45a"/><path d="M 235 166.7 a 8 8 0 1 0 6 13 a 6.4 6.4 0 1 1 -6 -13 Z" fill="#d8b45a"/><rect x="954.0" y="230" width="22" height="330" fill="#12141c"/><rect x="944.1" y="234" width="41.8" height="7" rx="3" fill="#12141c"/><path d="M 946.3 232 C 946.3 210.495, 954.715 206.7, 965 206.7 C 975.285 206.7, 983.7 210.495, 983.7 232 Z" fill="#12141c"/><line x1="965" y1="206.7" x2="965" y2="184.7" stroke="#d8b45a" stroke-width="3"/><circle cx="965" cy="180.7" r="4.5" fill="#d8b45a"/><path d="M 965 166.7 a 8 8 0 1 0 6 13 a 6.4 6.4 0 1 1 -6 -13 Z" fill="#d8b45a"/><rect x="1079.0" y="230" width="22" height="330" fill="#12141c"/><rect x="1069.1" y="234" width="41.8" height="7" rx="3" fill="#12141c"/><path d="M 1071.3 232 C 1071.3 210.495, 1079.715 206.7, 1090 206.7 C 1100.285 206.7, 1108.7 210.495, 1108.7 232 Z" fill="#12141c"/><line x1="1090" y1="206.7" x2="1090" y2="184.7" stroke="#d8b45a" stroke-width="3"/><circle cx="1090" cy="180.7" r="4.5" fill="#d8b45a"/><path d="M 1090 166.7 a 8 8 0 1 0 6 13 a 6.4 6.4 0 1 1 -6 -13 Z" fill="#d8b45a"/>
<rect x="0" y="560" width="1200" height="140" fill="#0c0e14"/>

<rect x="0" y="556" width="1200" height="4" fill="#d8b45a" opacity="0.55"/>
</svg>