<svg xmlns="http://www.w3.org/2000/svg" viewBox="0 0 1200 700" role="img">
<defs>
<linearGradient id="sky" x1="0" y1="0" x2="0" y2="1">
<stop offset="0" stop-color="#2a2014"/><stop offset="0.62" stop-color="#8a6a3a"/><stop offset="1" stop-color="#f2d9a0"/>
</linearGradient>
<pattern id="g1" width="120" height="120" patternUnits="userSpaceOnUse"><polygon points="111.6,60.0 80.0,68.3 96.5,96.5 68.3,80.0 60.0,111.6 51.7,80.0 23.5,96.5 40.0,68.3 8.4,60.0 40.0,51.7 23.5,23.5 51.7,40.0 60.0,8.4 68.3,40.0 96.5,23.5 80.0,51.7" fill="none" stroke="#e8d9a8" stroke-width="1.6" opacity="0.1"/><rect x="17.4" y="17.4" width="85.2" height="85.2" fill="none" stroke="#e8d9a8" stroke-width="1.6" opacity="0.06999999999999999" transform="rotate(45 60.0 60.0)"/></pattern>
</defs>
<rect width="1200" height="700" fill="url(#sky)"/>
<rect width="1200" height="700" fill="url(#g1)"/>
<circle cx="775" cy="45" r="1.3" fill="#f7ecd2" opacity="0.60"/><circle cx="353" cy="2" r="1.3" fill="#f7ecd2" opacity="0.41"/><circle cx="884" cy="22" r="0.8" fill="#f7ecd2" opacity="0.83"/><circle cx="184" cy="161" r="0.8" fill="#f7ecd2" opacity="0.59"/><circle cx="821" cy="167" r="1.3" fill="#f7ecd2" opacity="0.42"/><circle cx="659" cy="44" r="1.3" fill="#f7ecd2" opacity="0.81"/><circle cx="970" cy="64" r="1.8" fill="#f7ecd2" opacity="0.65"/><circle cx="1010" cy="43" r="0.8" fill="#f7ecd2" opacity="0.65"/><circle cx="467" cy="209" r="1.3" fill="#f7ecd2" opacity="0.38"/><circle cx="565" cy="6" r="1.3" fill="#f7ecd2" opacity="0.75"/><circle cx="656" cy="26" r="1.3" fill="#f7ecd2" opacity="0.41"/><circle cx="236" cy="45" r="1.8" fill="#f7ecd2" opacity="0.55"/><circle cx="913" cy="191" r="0.8" fill="#f7ecd2" opacity="0.68"/><circle cx="71" cy="108" r="1.8" fill="#f7ecd2" opacity="0.53"/><circle cx="1142" cy="148" r="0.8" fill="#f7ecd2" opacity="0.51"/><circle cx="262" cy="207" r="1.3" fill="#f7ecd2" opacity="0.69"/><circle cx="959" cy="93" r="1.8" fill="#f7ecd2" opacity="0.72"/><circle cx="377" cy="150" r="1.8" fill="#f7ecd2" opacity="0.35"/><circle cx="28" cy="170" r="0.8" fill="#f7ecd2" opacity="0.45"/><circle cx="1088" cy="89" r="1.3" fill="#f7ecd2" opacity="0.67"/><circle cx="605" cy="135" r="1.8" fill="#f7ecd2" opacity="0.60"/><circle cx="283" cy="112" r="1.8" fill="#f7ecd2" opacity="0.81"/><circle cx="914" cy="152" r="1.3" fill="#f7ecd2" opacity="0.63"/><circle cx="314" cy="91" r="0.8" fill="#f7ecd2" opacity="0.59"/><circle cx="1051" cy="117" r="1.3" fill="#f7ecd2" opacity="0.52"/><circle cx="989" cy="14" r="1.3" fill="#f7ecd2" opacity="0.81"/><circle cx="200" cy="34" r="0.8" fill="#f7ecd2" opacity="0.35"/><circle cx="340" cy="33" r="1.3" fill="#f7ecd2" opacity="0.55"/><circle cx="1097" cy="19" r="0.8" fill="#f7ecd2" opacity="0.78"/><circle cx="95" cy="36" r="1.8" fill="#f7ecd2" opacity="0.55"/><circle cx="960" cy="210" r="110.00000000000001" fill="#f2d9a0" opacity="0.18"/><circle cx="960" cy="210" r="50" fill="#f2d9a0" opacity="0.9"/>
<path d="M 200 560 L 220 370 L 1000 370 L 1020 560 Z" fill="#12141c"/><path d="M 278 370 L 292 190 Q 330 160 368 190 L 382 370 Z" fill="#12141c"/><ellipse cx="330" cy="168" rx="9" ry="12" fill="#f2e6c8"/><line x1="300" y1="210" x2="284" y2="210" stroke="#0c0e14" stroke-width="5"/><line x1="360" y1="210" x2="376" y2="210" stroke="#0c0e14" stroke-width="5"/><line x1="300" y1="252" x2="284" y2="252" stroke="#0c0e14" stroke-width="5"/><line x1="360" y1="252" x2="376" y2="252" stroke="#0c0e14" stroke-width="5"/><line x1="300" y1="294" x2="284" y2="294" stroke="#0c0e14" stroke-width="5"/><line x1="360" y1="294" x2="376" y2="294" stroke="#0c0e14" stroke-width="5"/><line x1="300" y1="336" x2="284" y2="336" stroke="#0c0e14" stroke-width="5"/><line x1="360" y1="336" x2="376" y2="336" stroke="#0c0e14" stroke-width="5"/><path d="M 548 370 L 562 190 Q 600 160 638 190 L 652 370 Z" fill="#12141c"/><ellipse cx="600" cy="168" rx="9" ry="12" fill="#f2e6c8"/><line x1="570" y1="210" x2="554" y2="210" stroke="#0c0e14" stroke-width="5"/><line x1="630" y1="210" x2="646" y2="210" stroke="#0c0e14" stroke-width="5"/><line x1="570" y1="252" x2="554" y2="252" stroke="#0c0e14" stroke-width="5"/><line x1="630" y1="252" x2="646" y2="252" stroke="#0c0e14" stroke-width="5"/><line x1="570" y1="294" x2="554" y2="294" stroke="#0c0e14" stroke-width="5"/><line x1="630" y1="294" x2="646" y2="294" stroke="#0c0e14" stroke-width="5"/><line x1="570" y1="336" x2="554" y2="336" stroke="#0c0e14" stroke-width="5"/><line x1="630" y1="336" x2="646" y2="336" stroke="#0c0e14" stroke-width="5"/><path d="M 818 370 L 832 190 Q 870 160 908 190 L 922 370 Z" fill="#12141c"/><ellipse cx="870" cy="168" rx="9" ry="12" fill="#f2e6c8"/><line x1="840" y1="210" x2="824" y2="210" stroke="#0c0e14" stroke-width="5"/><line x1="900" y1="210" x2="916" y2="210" stroke="#0c0e14" stroke-width="5"/><line x1="840" y1="252" x2="824" y2="252" stroke="#0c0e14" stroke-width="5"/><line x1="900" y1="252" x2="916" y2="252" stroke="#0c0e14" stroke-width="5"/><line x1="840" y1="294" x2="824" y2="294" stroke="#0c0e14" stroke-width="5"/><line x1="900" y1="294" x2="916" y2="294" stroke="#0c0e14" stroke-width="5"/><line x1="840" y1="336" x2="824" y2="336" stroke="#0c0e14" stroke-width="5"/><line x1="900" y1="336" x2="916" y2="336" stroke="#0c0e14" stroke-width="5"/><path d="M 245 370 L 254 335 L 263 370 Z" fill="#12141c"/><path d="M 300 370 L 309 335 L 318 370 Z" fill="#12141c"/><path d="M 355 370 L 364 335 L 373 370 Z" fill="#12141c"/><path d="M 410 370 L 419 335 L 428 370 Z" fill="#12141c"/><path d="M 465 370 L 474 335 L 483 370 Z" fill="#12141c"/><path d="M 520 370 L 529 335 L 538 370 Z" fill="#12141c"/><path d="M 575 370 L 584 335 L 593 370 Z" fill="#12141c"/><path d="M 630 370 L 639 335 L 648 370 Z" fill="#12141c"/><path d="M 685 370 L 694 335 L 703 370 Z" fill="#12141c"/><path d="M 740 370 L 749 335 L 758 370 Z" fill="#12141c"/><path d="M 795 370 L 804 335 L 813 370 Z" fill="#12141c"/><path d="M 850 370 L 859 335 L 868 370 Z" fill="#12141c"/><path d="M 905 370 L 914 335 L 923 370 Z" fill="#12141c"/><path d="M 960 370 L 969 335 L 978 370 Z" fill="#12141c"/>
<rect x="0" y="560" width="1200" height="140" fill="#0c0e14"/>

<rect x="0" y="556" width="1200" height="4" fill="#d8b45a" opacity="0.55"/>
</svg>