<svg xmlns="http://www.w3.org/2000/svg" viewBox="0 0 1200 700" role="img">
<defs>
<linearGradient id="sky" x1="0" y1="0" x2="0" y2="1">
<stop offset="0" stop-color="#0a1026"/><stop offset="0.62" stop-color="#152046"/><stop offset="1" stop-color="#2b3a6b"/>
</linearGradient>
<pattern id="g1" width="120" height="120" patternUnits="userSpaceOnUse"><polygon points="111.6,60.0 80.0,68.3 96.5,96.5 68.3,80.0 60.0,111.6 51.7,80.0 23.5,96.5 40.0,68.3 8.4,60.0 40.0,51.7 23.5,23.5 51.7,40.0 60.0,8.4 68.3,40.0 96.5,23.5 80.0,51.7" fill="none" stroke="#e8d9a8" stroke-width="1.6" opacity="0.1"/><rect x="17.4" y="17.4" width="85.2" height="85.2" fill="none" stroke="#e8d9a8" stroke-width="1.6" opacity="0.06999999999999999" transform="rotate(45 60.0 60.0)"/></pattern>
</defs>
<rect width="1200" height="700" fill="url(#sky)"/>
<rect width="1200" height="700" fill="url(#g1)"/>
<circle cx="775" cy="225" r="1.3" fill="#f7ecd2" opacity="0.60"/><circle cx="353" cy="122" r="1.3" fill="#f7ecd2" opacity="0.51"/><circle cx="884" cy="322" r="0.8" fill="#f7ecd2" opacity="0.83"/><circle cx="184" cy="101" r="0.8" fill="#f7ecd2" opacity="0.69"/><circle cx="821" cy="187" r="0.8" fill="#f7ecd2" opacity="0.62"/><circle cx="659" cy="324" r="1.8" fill="#f7ecd2" opacity="0.51"/><circle cx="970" cy="164" r="0.8" fill="#f7ecd2" opacity="0.65"/><circle cx="1010" cy="103" r="0.8" fill="#f7ecd2" opacity="0.65"/><circle cx="467" cy="329" r="1.3" fill="#f7ecd2" opacity="0.78"/><circle cx="565" cy="26" r="0.8" fill="#f7ecd2" opacity="0.75"/><circle cx="656" cy="186" r="1.8" fill="#f7ecd2" opacity="0.51"/><circle cx="236" cy="145" r="0.8" fill="#f7ecd2" opacity="0.55"/><circle cx="913" cy="111" r="1.3" fill="#f7ecd2" opacity="0.78"/><circle cx="71" cy="248" r="1.3" fill="#f7ecd2" opacity="0.43"/><circle cx="1142" cy="188" r="1.3" fill="#f7ecd2" opacity="0.81"/><circle cx="262" cy="167" r="0.8" fill="#f7ecd2" opacity="0.39"/><circle cx="959" cy="73" r="0.8" fill="#f7ecd2" opacity="0.42"/><circle cx="377" cy="110" r="1.3" fill="#f7ecd2" opacity="0.55"/><circle cx="28" cy="230" r="0.8" fill="#f7ecd2" opacity="0.75"/><circle cx="1088" cy="169" r="0.8" fill="#f7ecd2" opacity="0.57"/><circle cx="605" cy="215" r="1.3" fill="#f7ecd2" opacity="0.60"/><circle cx="283" cy="152" r="0.8" fill="#f7ecd2" opacity="0.51"/><circle cx="914" cy="52" r="0.8" fill="#f7ecd2" opacity="0.63"/><circle cx="314" cy="211" r="0.8" fill="#f7ecd2" opacity="0.39"/><circle cx="1051" cy="337" r="1.8" fill="#f7ecd2" opacity="0.72"/><circle cx="989" cy="174" r="1.8" fill="#f7ecd2" opacity="0.71"/><circle cx="200" cy="254" r="1.3" fill="#f7ecd2" opacity="0.35"/><circle cx="340" cy="233" r="0.8" fill="#f7ecd2" opacity="0.55"/><circle cx="1097" cy="299" r="1.3" fill="#f7ecd2" opacity="0.38"/><circle cx="95" cy="236" r="1.3" fill="#f7ecd2" opacity="0.55"/><circle cx="286" cy="96" r="1.3" fill="#f7ecd2" opacity="0.41"/><circle cx="1166" cy="235" r="0.8" fill="#f7ecd2" opacity="0.45"/><circle cx="743" cy="101" r="1.3" fill="#f7ecd2" opacity="0.78"/><circle cx="1" cy="278" r="0.8" fill="#f7ecd2" opacity="0.63"/><circle cx="1172" cy="258" r="1.8" fill="#f7ecd2" opacity="0.61"/><circle cx="392" cy="277" r="0.8" fill="#f7ecd2" opacity="0.69"/><circle cx="1189" cy="223" r="1.8" fill="#f7ecd2" opacity="0.82"/><circle cx="707" cy="300" r="1.8" fill="#f7ecd2" opacity="0.35"/><circle cx="458" cy="120" r="1.8" fill="#f7ecd2" opacity="0.45"/><circle cx="418" cy="299" r="0.8" fill="#f7ecd2" opacity="0.67"/><circle cx="35" cy="45" r="1.8" fill="#f7ecd2" opacity="0.60"/><circle cx="1013" cy="162" r="1.8" fill="#f7ecd2" opacity="0.41"/><circle cx="544" cy="302" r="0.8" fill="#f7ecd2" opacity="0.73"/><circle cx="44" cy="161" r="1.3" fill="#f7ecd2" opacity="0.69"/><circle cx="881" cy="327" r="1.8" fill="#f7ecd2" opacity="0.72"/><circle cx="919" cy="204" r="1.3" fill="#f7ecd2" opacity="0.61"/><circle cx="230" cy="324" r="1.8" fill="#f7ecd2" opacity="0.55"/><circle cx="470" cy="3" r="1.8" fill="#f7ecd2" opacity="0.45"/><circle cx="127" cy="309" r="1.3" fill="#f7ecd2" opacity="0.78"/><circle cx="425" cy="86" r="1.3" fill="#f7ecd2" opacity="0.35"/><circle cx="716" cy="326" r="1.3" fill="#f7ecd2" opacity="0.51"/><circle cx="496" cy="25" r="1.8" fill="#f7ecd2" opacity="0.35"/><circle cx="173" cy="271" r="0.8" fill="#f7ecd2" opacity="0.68"/><circle cx="731" cy="288" r="1.8" fill="#f7ecd2" opacity="0.63"/><circle cx="802" cy="168" r="1.3" fill="#f7ecd2" opacity="0.71"/><circle cx="122" cy="227" r="1.3" fill="#f7ecd2" opacity="0.79"/><circle cx="1019" cy="213" r="1.8" fill="#f7ecd2" opacity="0.82"/><circle cx="637" cy="330" r="1.3" fill="#f7ecd2" opacity="0.45"/><circle cx="488" cy="190" r="0.8" fill="#f7ecd2" opacity="0.55"/><circle cx="548" cy="69" r="1.8" fill="#f7ecd2" opacity="0.47"/><circle cx="980" cy="120" r="42" fill="#f6ecd0" opacity="0.95"/><circle cx="996" cy="112" r="36" fill="url(#sky)" opacity="0.92"/>
<path d="M 200 560 L 220 370 L 1000 370 L 1020 560 Z" fill="#12141c"/><path d="M 278 370 L 292 190 Q 330 160 368 190 L 382 370 Z" fill="#12141c"/><ellipse cx="330" cy="168" rx="9" ry="12" fill="#f2e6c8"/><line x1="300" y1="210" x2="284" y2="210" stroke="#0c0e14" stroke-width="5"/><line x1="360" y1="210" x2="376" y2="210" stroke="#0c0e14" stroke-width="5"/><line x1="300" y1="252" x2="284" y2="252" stroke="#0c0e14" stroke-width="5"/><line x1="360" y1="252" x2="376" y2="252" stroke="#0c0e14" stroke-width="5"/><line x1="300" y1="294" x2="284" y2="294" stroke="#0c0e14" stroke-width="5"/><line x1="360" y1="294" x2="376" y2="294" stroke="#0c0e14" stroke-width="5"/><line x1="300" y1="336" x2="284" y2="336" stroke="#0c0e14" stroke-width="5"/><line x1="360" y1="336" x2="376" y2="336" stroke="#0c0e14" stroke-width="5"/><path d="M 548 370 L 562 190 Q 600 160 638 190 L 652 370 Z" fill="#12141c"/><ellipse cx="600" cy="168" rx="9" ry="12" fill="#f2e6c8"/><line x1="570" y1="210" x2="554" y2="210" stroke="#0c0e14" stroke-width="5"/><line x1="630" y1="210" x2="646" y2="210" stroke="#0c0e14" stroke-width="5"/><line x1="570" y1="252" x2="554" y2="252" stroke="#0c0e14" stroke-width="5"/><line x1="630" y1="252" x2="646" y2="252" stroke="#0c0e14" stroke-width="5"/><line x1="570" y1="294" x2="554" y2="294" stroke="#0c0e14" stroke-width="5"/><line x1="630" y1="294" x2="646" y2="294" stroke="#0c0e14" stroke-width="5"/><line x1="570" y1="336" x2="554" y2="336" stroke="#0c0e14" stroke-width="5"/><line x1="630" y1="336" x2="646" y2="336" stroke="#0c0e14" stroke-width="5"/><path d="M 818 370 L 832 190 Q 870 160 908 190 L 922 370 Z" fill="#12141c"/><ellipse cx="870" cy="168" rx="9" ry="12" fill="#f2e6c8"/><line x1="840" y1="210" x2="824" y2="210" stroke="#0c0e14" stroke-width="5"/><line x1="900" y1="210" x2="916" y2="210" stroke="#0c0e14" stroke-width="5"/><line x1="840" y1="252" x2="824" y2="252" stroke="#0c0e14" stroke-width="5"/><line x1="900" y1="252" x2="916" y2="252" stroke="#0c0e14" stroke-width="5"/><line x1="840" y1="294" x2="824" y2="294" stroke="#0c0e14" stroke-width="5"/><line x1="900" y1="294" x2="916" y2="294" stroke="#0c0e14" stroke-width="5"/><line x1="840" y1="336" x2="824" y2="336" stroke="#0c0e14" stroke-width="5"/><line x1="900" y1="336" x2="916" y2="336" stroke="#0c0e14" stroke-width="5"/><path d="M 245 370 L 254 335 L 263 370 Z" fill="#12141c"/><path d="M 300 370 L 309 335 L 318 370 Z" fill="#12141c"/><path d="M 355 370 L 364 335 L 373 370 Z" fill="#12141c"/><path d="M 410 370 L 419 335 L 428 370 Z" fill="#12141c"/><path d="M 465 370 L 474 335 L 483 370 Z" fill="#12141c"/><path d="M 520 370 L 529 335 L 538 370 Z" fill="#12141c"/><path d="M 575 370 L 584 335 L 593 370 Z" fill="#12141c"/><path d="M 630 370 L 639 335 L 648 370 Z" fill="#12141c"/><path d="M 685 370 L 694 335 L 703 370 Z" fill="#12141c"/><path d="M 740 370 L 749 335 L 758 370 Z" fill="#12141c"/><path d="M 795 370 L 804 335 L 813 370 Z" fill="#12141c"/><path d="M 850 370 L 859 335 L 868 370 Z" fill="#12141c"/><path d="M 905 370 L 914 335 L 923 370 Z" fill="#12141c"/><path d="M 960 370 L 969 335 L 978 370 Z" fill="#12141c"/>
<rect x="0" y="560" width="1200" height="140" fill="#0c0e14"/>

<rect x="0" y="556" width="1200" height="4" fill="#d8b45a" opacity="0.55"/>
</svg>