<svg xmlns="http://www.w3.org/2000/svg" viewBox="0 0 1200 700" role="img">
<defs>
<linearGradient id="sky" x1="0" y1="0" x2="0" y2="1">
<stop offset="0" stop-color="#4a1f1f"/><stop offset="0.62" stop-color="#a3543a"/><stop offset="1" stop-color="#f2cf8f"/>
</linearGradient>
<pattern id="g1" width="120" height="120" patternUnits="userSpaceOnUse"><polygon points="111.6,60.0 80.0,68.3 96.5,96.5 68.3,80.0 60.0,111.6 51.7,80.0 23.5,96.5 40.0,68.3 8.4,60.0 40.0,51.7 23.5,23.5 51.7,40.0 60.0,8.4 68.3,40.0 96.5,23.5 80.0,51.7" fill="none" stroke="#e8d9a8" stroke-width="1.6" opacity="0.1"/><rect x="17.4" y="17.4" width="85.2" height="85.2" fill="none" stroke="#e8d9a8" stroke-width="1.6" opacity="0.06999999999999999" transform="rotate(45 60.0 60.0)"/></pattern>
</defs>
<rect width="1200" height="700" fill="url(#sky)"/>
<rect width="1200" height="700" fill="url(#g1)"/>
<circle cx="472" cy="112" r="1.8" fill="#f7ecd2" opacity="0.49"/><circle cx="1034" cy="213" r="1.8" fill="#f7ecd2" opacity="0.77"/><circle cx="197" cy="65" r="1.3" fill="#f7ecd2" opacity="0.40"/><circle cx="433" cy="180" r="1.3" fill="#f7ecd2" opacity="0.75"/><circle cx="998" cy="154" r="0.8" fill="#f7ecd2" opacity="0.77"/><circle cx="380" cy="195" r="1.8" fill="#f7ecd2" opacity="0.35"/><circle cx="1003" cy="207" r="1.3" fill="#f7ecd2" opacity="0.56"/><circle cx="1019" cy="102" r="1.8" fill="#f7ecd2" opacity="0.73"/><circle cx="1124" cy="116" r="1.3" fill="#f7ecd2" opacity="0.69"/><circle cx="526" cy="117" r="1.3" fill="#f7ecd2" opacity="0.77"/><circle cx="209" cy="29" r="1.3" fill="#f7ecd2" opacity="0.46"/><circle cx="5" cy="144" r="1.8" fill="#f7ecd2" opacity="0.55"/><circle cx="850" cy="218" r="0.8" fill="#f7ecd2" opacity="0.35"/><circle cx="272" cy="179" r="1.3" fill="#f7ecd2" opacity="0.73"/><circle cx="215" cy="11" r="1.3" fill="#f7ecd2" opacity="0.50"/><circle cx="991" cy="146" r="0.8" fill="#f7ecd2" opacity="0.71"/><circle cx="176" cy="20" r="1.3" fill="#f7ecd2" opacity="0.55"/><circle cx="818" cy="181" r="0.8" fill="#f7ecd2" opacity="0.43"/><circle cx="1021" cy="153" r="1.3" fill="#f7ecd2" opacity="0.48"/><circle cx="377" cy="48" r="1.8" fill="#f7ecd2" opacity="0.81"/><circle cx="302" cy="202" r="0.8" fill="#f7ecd2" opacity="0.39"/><circle cx="964" cy="103" r="1.8" fill="#f7ecd2" opacity="0.77"/><circle cx="227" cy="195" r="1.8" fill="#f7ecd2" opacity="0.50"/><circle cx="563" cy="110" r="1.3" fill="#f7ecd2" opacity="0.65"/><circle cx="28" cy="84" r="1.3" fill="#f7ecd2" opacity="0.37"/><circle cx="710" cy="165" r="1.8" fill="#f7ecd2" opacity="0.35"/><circle cx="233" cy="177" r="1.8" fill="#f7ecd2" opacity="0.76"/><circle cx="349" cy="92" r="0.8" fill="#f7ecd2" opacity="0.43"/><circle cx="554" cy="126" r="1.8" fill="#f7ecd2" opacity="0.39"/><circle cx="56" cy="147" r="1.8" fill="#f7ecd2" opacity="0.67"/><circle cx="960" cy="210" r="110.00000000000001" fill="#f2cf8f" opacity="0.18"/><circle cx="960" cy="210" r="50" fill="#f2cf8f" opacity="0.9"/>
<rect x="240" y="410" width="720" height="150" fill="#12141c"/><path d="M 268 560 L 268 472 Q 300 432 332 472 L 332 560 Z" fill="#0c0e14" opacity="0.9"/><path d="M 366 560 L 366 472 Q 398 432 430 472 L 430 560 Z" fill="#0c0e14" opacity="0.9"/><path d="M 464 560 L 464 472 Q 496 432 528 472 L 528 560 Z" fill="#0c0e14" opacity="0.9"/><path d="M 562 560 L 562 472 Q 594 432 626 472 L 626 560 Z" fill="#0c0e14" opacity="0.9"/><path d="M 660 560 L 660 472 Q 692 432 724 472 L 724 560 Z" fill="#0c0e14" opacity="0.9"/><path d="M 758 560 L 758 472 Q 790 432 822 472 L 822 560 Z" fill="#0c0e14" opacity="0.9"/><path d="M 856 560 L 856 472 Q 888 432 920 472 L 920 560 Z" fill="#0c0e14" opacity="0.9"/><path d="M 450 410 C 450 265.5, 517.5 240, 600 240 C 682.5 240, 750 265.5, 750 410 Z" fill="#efe9df"/><line x1="600" y1="240" x2="600" y2="218" stroke="#d8b45a" stroke-width="3"/><circle cx="600" cy="214" r="4.5" fill="#d8b45a"/><path d="M 600 200 a 8 8 0 1 0 6 13 a 6.4 6.4 0 1 1 -6 -13 Z" fill="#d8b45a"/><path d="M 300 410 C 300 312.25, 345.0 295, 400 295 C 455.0 295, 500 312.25, 500 410 Z" fill="#efe9df"/><line x1="400" y1="295" x2="400" y2="273" stroke="#d8b45a" stroke-width="3"/><circle cx="400" cy="269" r="4.5" fill="#d8b45a"/><path d="M 400 255 a 8 8 0 1 0 6 13 a 6.4 6.4 0 1 1 -6 -13 Z" fill="#d8b45a"/><path d="M 700 410 C 700 312.25, 745.0 295, 800 295 C 855.0 295, 900 312.25, 900 410 Z" fill="#efe9df"/><line x1="800" y1="295" x2="800" y2="273" stroke="#d8b45a" stroke-width="3"/><circle cx="800" cy="269" r="4.5" fill="#d8b45a"/><path d="M 800 255 a 8 8 0 1 0 6 13 a 6.4 6.4 0 1 1 -6 -13 Z" fill="#d8b45a"/><rect x="139.0" y="230" width="22" height="330" fill="#12141c"/><rect x="129.1" y="234" width="41.8" height="7" rx="3" fill="#12141c"/><path d="M 131.3 232 C 131.3 210.495, 139.715 206.7, 150 206.7 C 160.285 206.7, 168.7 210.495, 168.7 232 Z" fill="#12141c"/><line x1="150" y1="206.7" x2="150" y2="184.7" stroke="#d8b45a" stroke-width="3"/><circle cx="150" cy="180.7" r="4.5" fill="#d8b45a"/><path d="M 150 166.7 a 8 8 0 1 0 6 13 a 6.4 6.4 0 1 1 -6 -13 Z" fill="#d8b45a"/><rect x="1039.0" y="230" width="22" height="330" fill="#12141c"/><rect x="1029.1" y="234" width="41.8" height="7" rx="3" fill="#12141c"/><path d="M 1031.3 232 C 1031.3 210.495, 1039.715 206.7, 1050 206.7 C 1060.285 206.7, 1068.7 210.495, 1068.7 232 Z" fill="#12141c"/><line x1="1050" y1="206.7" x2="1050" y2="184.7" stroke="#d8b45a" stroke-width="3"/><circle cx="1050" cy="180.7" r="4.5" fill="#d8b45a"/><path d="M 1050 166.7 a 8 8 0 1 0 6 13 a 6.4 6.4 0 1 1 -6 -13 Z" fill="#d8b45a"/>
<rect x="0" y="560" width="1200" height="140" fill="#0c0e14"/>

<rect x="0" y="556" width="1200" height="4" fill="#d8b45a" opacity="0.55"/>
</svg>