<svg xmlns="http://www.w3.org/2000/svg" viewBox="0 0 1200 700" role="img">
<defs>
<linearGradient id="sky" x1="0" y1="0" x2="0" y2="1">
<stop offset="0" stop-color="#0a1026"/><stop offset="0.62" stop-color="#152046"/><stop offset="1" stop-color="#2b3a6b"/>
</linearGradient>
<pattern id="g1" width="120" height="120" patternUnits="userSpaceOnUse"><polygon points="111.6,60.0 80.0,68.3 96.5,96.5 68.3,80.0 60.0,111.6 51.7,80.0 23.5,96.5 40.0,68.3 8.4,60.0 40.0,51.7 23.5,23.5 51.7,40.0 60.0,8.4 68.3,40.0 96.5,23.5 80.0,51.7" fill="none" stroke="#e8d9a8" stroke-width="1.6" opacity="0.1"/><rect x="17.4" y="17.4" width="85.2" height="85.2" fill="none" stroke="#e8d9a8" stroke-width="1.6" opacity="0.06999999999999999" transform="rotate(45 60.0 60.0)"/></pattern>
</defs>
<rect width="1200" height="700" fill="url(#sky)"/>
<rect width="1200" height="700" fill="url(#g1)"/>
<circle cx="836" cy="76" r="0.8" fill="#f7ecd2" opacity="0.71"/><circle cx="6" cy="245" r="1.8" fill="#f7ecd2" opacity="0.55"/><circle cx="753" cy="1" r="1.3" fill="#f7ecd2" opacity="0.38"/><circle cx="221" cy="228" r="1.8" fill="#f7ecd2" opacity="0.73"/><circle cx="1122" cy="338" r="1.8" fill="#f7ecd2" opacity="0.71"/><circle cx="1032" cy="327" r="0.8" fill="#f7ecd2" opacity="0.49"/><circle cx="599" cy="223" r="0.8" fill="#f7ecd2" opacity="0.62"/><circle cx="327" cy="10" r="1.3" fill="#f7ecd2" opacity="0.55"/><circle cx="1008" cy="100" r="1.3" fill="#f7ecd2" opacity="0.35"/><circle cx="458" cy="109" r="0.8" fill="#f7ecd2" opacity="0.57"/><circle cx="45" cy="285" r="0.8" fill="#f7ecd2" opacity="0.60"/><circle cx="33" cy="312" r="0.8" fill="#f7ecd2" opacity="0.81"/><circle cx="494" cy="42" r="1.8" fill="#f7ecd2" opacity="0.83"/><circle cx="684" cy="211" r="1.3" fill="#f7ecd2" opacity="0.59"/><circle cx="291" cy="327" r="0.8" fill="#f7ecd2" opacity="0.42"/><circle cx="539" cy="254" r="1.3" fill="#f7ecd2" opacity="0.41"/><circle cx="780" cy="304" r="1.3" fill="#f7ecd2" opacity="0.55"/><circle cx="510" cy="153" r="0.8" fill="#f7ecd2" opacity="0.65"/><circle cx="137" cy="209" r="1.3" fill="#f7ecd2" opacity="0.68"/><circle cx="645" cy="36" r="0.8" fill="#f7ecd2" opacity="0.55"/><circle cx="666" cy="66" r="0.8" fill="#f7ecd2" opacity="0.41"/><circle cx="1136" cy="75" r="1.8" fill="#f7ecd2" opacity="0.35"/><circle cx="783" cy="71" r="1.8" fill="#f7ecd2" opacity="0.78"/><circle cx="351" cy="338" r="1.8" fill="#f7ecd2" opacity="0.73"/><circle cx="152" cy="8" r="1.3" fill="#f7ecd2" opacity="0.51"/><circle cx="162" cy="37" r="1.3" fill="#f7ecd2" opacity="0.79"/><circle cx="1029" cy="113" r="1.8" fill="#f7ecd2" opacity="0.62"/><circle cx="857" cy="280" r="0.8" fill="#f7ecd2" opacity="0.45"/><circle cx="438" cy="270" r="0.8" fill="#f7ecd2" opacity="0.45"/><circle cx="1188" cy="119" r="1.8" fill="#f7ecd2" opacity="0.57"/><circle cx="875" cy="335" r="1.3" fill="#f7ecd2" opacity="0.60"/><circle cx="963" cy="62" r="1.8" fill="#f7ecd2" opacity="0.41"/><circle cx="324" cy="32" r="1.8" fill="#f7ecd2" opacity="0.53"/><circle cx="614" cy="241" r="0.8" fill="#f7ecd2" opacity="0.59"/><circle cx="321" cy="57" r="0.8" fill="#f7ecd2" opacity="0.82"/><circle cx="669" cy="24" r="0.8" fill="#f7ecd2" opacity="0.41"/><circle cx="1010" cy="114" r="1.8" fill="#f7ecd2" opacity="0.75"/><circle cx="840" cy="3" r="0.8" fill="#f7ecd2" opacity="0.55"/><circle cx="567" cy="99" r="0.8" fill="#f7ecd2" opacity="0.68"/><circle cx="1175" cy="306" r="1.8" fill="#f7ecd2" opacity="0.35"/><circle cx="96" cy="236" r="1.8" fill="#f7ecd2" opacity="0.41"/><circle cx="666" cy="285" r="0.8" fill="#f7ecd2" opacity="0.45"/><circle cx="413" cy="321" r="1.8" fill="#f7ecd2" opacity="0.58"/><circle cx="81" cy="288" r="0.8" fill="#f7ecd2" opacity="0.63"/><circle cx="1182" cy="138" r="0.8" fill="#f7ecd2" opacity="0.51"/><circle cx="92" cy="67" r="0.8" fill="#f7ecd2" opacity="0.49"/><circle cx="1059" cy="183" r="0.8" fill="#f7ecd2" opacity="0.82"/><circle cx="987" cy="50" r="1.8" fill="#f7ecd2" opacity="0.35"/><circle cx="668" cy="80" r="1.3" fill="#f7ecd2" opacity="0.75"/><circle cx="318" cy="169" r="1.3" fill="#f7ecd2" opacity="0.77"/><circle cx="105" cy="85" r="1.3" fill="#f7ecd2" opacity="0.60"/><circle cx="293" cy="192" r="1.8" fill="#f7ecd2" opacity="0.41"/><circle cx="954" cy="2" r="1.8" fill="#f7ecd2" opacity="0.43"/><circle cx="144" cy="111" r="0.8" fill="#f7ecd2" opacity="0.69"/><circle cx="1151" cy="107" r="1.3" fill="#f7ecd2" opacity="0.42"/><circle cx="399" cy="314" r="1.8" fill="#f7ecd2" opacity="0.71"/><circle cx="840" cy="104" r="1.8" fill="#f7ecd2" opacity="0.45"/><circle cx="770" cy="33" r="1.8" fill="#f7ecd2" opacity="0.45"/><circle cx="597" cy="169" r="1.3" fill="#f7ecd2" opacity="0.78"/><circle cx="105" cy="276" r="0.8" fill="#f7ecd2" opacity="0.65"/><circle cx="980" cy="120" r="42" fill="#f6ecd0" opacity="0.95"/><circle cx="996" cy="112" r="36" fill="url(#sky)" opacity="0.92"/>
<rect x="240" y="410" width="720" height="150" fill="#12141c"/><path d="M 268 560 L 268 472 Q 300 432 332 472 L 332 560 Z" fill="#0c0e14" opacity="0.9"/><path d="M 366 560 L 366 472 Q 398 432 430 472 L 430 560 Z" fill="#0c0e14" opacity="0.9"/><path d="M 464 560 L 464 472 Q 496 432 528 472 L 528 560 Z" fill="#0c0e14" opacity="0.9"/><path d="M 562 560 L 562 472 Q 594 432 626 472 L 626 560 Z" fill="#0c0e14" opacity="0.9"/><path d="M 660 560 L 660 472 Q 692 432 724 472 L 724 560 Z" fill="#0c0e14" opacity="0.9"/><path d="M 758 560 L 758 472 Q 790 432 822 472 L 822 560 Z" fill="#0c0e14" opacity="0.9"/><path d="M 856 560 L 856 472 Q 888 432 920 472 L 920 560 Z" fill="#0c0e14" opacity="0.9"/><path d="M 450 410 C 450 265.5, 517.5 240, 600 240 C 682.5 240, 750 265.5, 750 410 Z" fill="#efe9df"/><line x1="600" y1="240" x2="600" y2="218" stroke="#d8b45a" stroke-width="3"/><circle cx="600" cy="214" r="4.5" fill="#d8b45a"/><path d="M 600 200 a 8 8 0 1 0 6 13 a 6.4 6.4 0 1 1 -6 -13 Z" fill="#d8b45a"/><path d="M 300 410 C 300 312.25, 345.0 295, 400 295 C 455.0 295, 500 312.25, 500 410 Z" fill="#efe9df"/><line x1="400" y1="295" x2="400" y2="273" stroke="#d8b45a" stroke-width="3"/><circle cx="400" cy="269" r="4.5" fill="#d8b45a"/><path d="M 400 255 a 8 8 0 1 0 6 13 a 6.4 6.4 0 1 1 -6 -13 Z" fill="#d8b45a"/><path d="M 700 410 C 700 312.25, 745.0 295, 800 295 C 855.0 295, 900 312.25, 900 410 Z" fill="#efe9df"/><line x1="800" y1="295" x2="800" y2="273" stroke="#d8b45a" stroke-width="3"/><circle cx="800" cy="269" r="4.5" fill="#d8b45a"/><path d="M 800 255 a 8 8 0 1 0 6 13 a 6.4 6.4 0 1 1 -6 -13 Z" fill="#d8b45a"/><rect x="139.0" y="230" width="22" height="330" fill="#12141c"/><rect x="129.1" y="234" width="41.8" height="7" rx="3" fill="#12141c"/><path d="M 131.3 232 C 131.3 210.495, 139.715 206.7, 150 206.7 C 160.285 206.7, 168.7 210.495, 168.7 232 Z" fill="#12141c"/><line x1="150" y1="206.7" x2="150" y2="184.7" stroke="#d8b45a" stroke-width="3"/><circle cx="150" cy="180.7" r="4.5" fill="#d8b45a"/><path d="M 150 166.7 a 8 8 0 1 0 6 13 a 6.4 6.4 0 1 1 -6 -13 Z" fill="#d8b45a"/><rect x="1039.0" y="230" width="22" height="330" fill="#12141c"/><rect x="1029.1" y="234" width="41.8" height="7" rx="3" fill="#12141c"/><path d="M 1031.3 232 C 1031.3 210.495, 1039.715 206.7, 1050 206.7 C 1060.285 206.7, 1068.7 210.495, 1068.7 232 Z" fill="#12141c"/><line x1="1050" y1="206.7" x2="1050" y2="184.7" stroke="#d8b45a" stroke-width="3"/><circle cx="1050" cy="180.7" r="4.5" fill="#d8b45a"/><path d="M 1050 166.7 a 8 8 0 1 0 6 13 a 6.4 6.4 0 1 1 -6 -13 Z" fill="#d8b45a"/>
<rect x="0" y="560" width="1200" height="140" fill="#0c0e14"/>

<rect x="0" y="556" width="1200" height="4" fill="#d8b45a" opacity="0.55"/>
</svg>