<svg xmlns="http://www.w3.org/2000/svg" viewBox="0 0 1200 700" role="img">
<defs>
<linearGradient id="sky" x1="0" y1="0" x2="0" y2="1">
<stop offset="0" stop-color="#0a1026"/><stop offset="0.62" stop-color="#152046"/><stop offset="1" stop-color="#2b3a6b"/>
</linearGradient>
<pattern id="g1" width="120" height="120" patternUnits="userSpaceOnUse"><polygon points="111.6,60.0 80.0,68.3 96.5,96.5 68.3,80.0 60.0,111.6 51.7,80.0 23.5,96.5 40.0,68.3 8.4,60.0 40.0,51.7 23.5,23.5 51.7,40.0 60.0,8.4 68.3,40.0 96.5,23.5 80.0,51.7" fill="none" stroke="#e8d9a8" stroke-width="1.6" opacity="0.1"/><rect x="17.4" y="17.4" width="85.2" height="85.2" fill="none" stroke="#e8d9a8" stroke-width="1.6" opacity="0.06999999999999999" transform="rotate(45 60.0 60.0)"/></pattern>
</defs>
<rect width="1200" height="700" fill="url(#sky)"/>
<rect width="1200" height="700" fill="url(#g1)"/>
<circle cx="299" cy="89" r="1.3" fill="#f7ecd2" opacity="0.46"/><circle cx="405" cy="34" r="1.3" fill="#f7ecd2" opacity="0.55"/><circle cx="1080" cy="278" r="1.8" fill="#f7ecd2" opacity="0.75"/><circle cx="92" cy="309" r="1.8" fill="#f7ecd2" opacity="0.63"/><circle cx="105" cy="91" r="1.3" fill="#f7ecd2" opacity="0.40"/><circle cx="1191" cy="156" r="0.8" fill="#f7ecd2" opacity="0.81"/><circle cx="206" cy="280" r="0.8" fill="#f7ecd2" opacity="0.65"/><circle cx="438" cy="51" r="0.8" fill="#f7ecd2" opacity="0.73"/><circle cx="711" cy="73" r="1.3" fill="#f7ecd2" opacity="0.38"/><circle cx="377" cy="318" r="1.8" fill="#f7ecd2" opacity="0.71"/><circle cx="132" cy="262" r="1.3" fill="#f7ecd2" opacity="0.69"/><circle cx="384" cy="313" r="1.3" fill="#f7ecd2" opacity="0.77"/><circle cx="917" cy="235" r="0.8" fill="#f7ecd2" opacity="0.80"/><circle cx="363" cy="120" r="0.8" fill="#f7ecd2" opacity="0.45"/><circle cx="858" cy="224" r="1.8" fill="#f7ecd2" opacity="0.77"/><circle cx="1130" cy="215" r="1.3" fill="#f7ecd2" opacity="0.35"/><circle cx="723" cy="237" r="0.8" fill="#f7ecd2" opacity="0.36"/><circle cx="1149" cy="242" r="1.8" fill="#f7ecd2" opacity="0.43"/><circle cx="1184" cy="26" r="1.3" fill="#f7ecd2" opacity="0.69"/><circle cx="276" cy="157" r="1.3" fill="#f7ecd2" opacity="0.67"/><circle cx="129" cy="79" r="1.3" fill="#f7ecd2" opacity="0.76"/><circle cx="335" cy="64" r="0.8" fill="#f7ecd2" opacity="0.75"/><circle cx="1110" cy="8" r="1.8" fill="#f7ecd2" opacity="0.65"/><circle cx="222" cy="79" r="1.3" fill="#f7ecd2" opacity="0.73"/><circle cx="335" cy="241" r="0.8" fill="#f7ecd2" opacity="0.70"/><circle cx="321" cy="206" r="1.8" fill="#f7ecd2" opacity="0.61"/><circle cx="636" cy="170" r="1.8" fill="#f7ecd2" opacity="0.55"/><circle cx="968" cy="321" r="1.8" fill="#f7ecd2" opacity="0.63"/><circle cx="141" cy="243" r="0.8" fill="#f7ecd2" opacity="0.48"/><circle cx="1107" cy="328" r="1.3" fill="#f7ecd2" opacity="0.81"/><circle cx="962" cy="312" r="1.8" fill="#f7ecd2" opacity="0.79"/><circle cx="114" cy="263" r="1.8" fill="#f7ecd2" opacity="0.67"/><circle cx="747" cy="225" r="0.8" fill="#f7ecd2" opacity="0.60"/><circle cx="293" cy="150" r="1.8" fill="#f7ecd2" opacity="0.35"/><circle cx="888" cy="294" r="0.8" fill="#f7ecd2" opacity="0.57"/><circle cx="60" cy="185" r="1.8" fill="#f7ecd2" opacity="0.35"/><circle cx="953" cy="47" r="1.3" fill="#f7ecd2" opacity="0.76"/><circle cx="279" cy="292" r="1.3" fill="#f7ecd2" opacity="0.53"/><circle cx="414" cy="116" r="1.8" fill="#f7ecd2" opacity="0.59"/><circle cx="806" cy="87" r="1.8" fill="#f7ecd2" opacity="0.57"/><circle cx="759" cy="49" r="1.3" fill="#f7ecd2" opacity="0.76"/><circle cx="1065" cy="74" r="1.8" fill="#f7ecd2" opacity="0.45"/><circle cx="740" cy="258" r="1.8" fill="#f7ecd2" opacity="0.55"/><circle cx="1152" cy="169" r="1.3" fill="#f7ecd2" opacity="0.73"/><circle cx="165" cy="231" r="0.8" fill="#f7ecd2" opacity="0.50"/><circle cx="251" cy="236" r="1.3" fill="#f7ecd2" opacity="0.71"/><circle cx="666" cy="240" r="0.8" fill="#f7ecd2" opacity="0.75"/><circle cx="1098" cy="91" r="1.3" fill="#f7ecd2" opacity="0.53"/><circle cx="371" cy="53" r="1.3" fill="#f7ecd2" opacity="0.48"/><circle cx="237" cy="38" r="1.8" fill="#f7ecd2" opacity="0.41"/><circle cx="192" cy="62" r="1.8" fill="#f7ecd2" opacity="0.39"/><circle cx="644" cy="193" r="0.8" fill="#f7ecd2" opacity="0.77"/><circle cx="177" cy="55" r="1.3" fill="#f7ecd2" opacity="0.70"/><circle cx="1023" cy="160" r="1.3" fill="#f7ecd2" opacity="0.65"/><circle cx="518" cy="204" r="1.8" fill="#f7ecd2" opacity="0.57"/><circle cx="990" cy="275" r="1.8" fill="#f7ecd2" opacity="0.35"/><circle cx="783" cy="37" r="1.3" fill="#f7ecd2" opacity="0.56"/><circle cx="209" cy="322" r="0.8" fill="#f7ecd2" opacity="0.83"/><circle cx="444" cy="186" r="0.8" fill="#f7ecd2" opacity="0.69"/><circle cx="936" cy="197" r="1.8" fill="#f7ecd2" opacity="0.77"/><circle cx="980" cy="120" r="42" fill="#f6ecd0" opacity="0.95"/><circle cx="996" cy="112" r="36" fill="url(#sky)" opacity="0.92"/>
<rect x="80" y="180" width="1040" height="380" fill="#12141c" opacity="0.25" rx="8"/><path d="M 110 560 L 110 440 Q 150 385 190 440 L 190 560 Z" fill="#12141c" opacity="0.55"/><path d="M 220 560 L 220 440 Q 260 385 300 440 L 300 560 Z" fill="#12141c" opacity="0.55"/><path d="M 330 560 L 330 440 Q 370 385 410 440 L 410 560 Z" fill="#12141c" opacity="0.55"/><path d="M 440 560 L 440 440 Q 480 385 520 440 L 520 560 Z" fill="#12141c" opacity="0.55"/><path d="M 550 560 L 550 440 Q 590 385 630 440 L 630 560 Z" fill="#12141c" opacity="0.55"/><path d="M 660 560 L 660 440 Q 700 385 740 440 L 740 560 Z" fill="#12141c" opacity="0.55"/><path d="M 770 560 L 770 440 Q 810 385 850 440 L 850 560 Z" fill="#12141c" opacity="0.55"/><path d="M 880 560 L 880 440 Q 920 385 960 440 L 960 560 Z" fill="#12141c" opacity="0.55"/><path d="M 990 560 L 990 440 Q 1030 385 1070 440 L 1070 560 Z" fill="#12141c" opacity="0.55"/><rect x="127.0" y="170" width="26" height="270" fill="#12141c"/><rect x="115.3" y="174" width="49.4" height="7" rx="3" fill="#12141c"/><path d="M 117.9 172 C 117.9 146.585, 127.845 142.1, 140 142.1 C 152.155 142.1, 162.1 146.585, 162.1 172 Z" fill="#12141c"/><line x1="140" y1="142.1" x2="140" y2="120.1" stroke="#d8b45a" stroke-width="3"/><circle cx="140" cy="116.1" r="4.5" fill="#d8b45a"/><path d="M 140 102.1 a 8 8 0 1 0 6 13 a 6.4 6.4 0 1 1 -6 -13 Z" fill="#d8b45a"/><rect x="407.0" y="170" width="26" height="270" fill="#12141c"/><rect x="395.3" y="174" width="49.4" height="7" rx="3" fill="#12141c"/><path d="M 397.9 172 C 397.9 146.585, 407.845 142.1, 420 142.1 C 432.155 142.1, 442.1 146.585, 442.1 172 Z" fill="#12141c"/><line x1="420" y1="142.1" x2="420" y2="120.1" stroke="#d8b45a" stroke-width="3"/><circle cx="420" cy="116.1" r="4.5" fill="#d8b45a"/><path d="M 420 102.1 a 8 8 0 1 0 6 13 a 6.4 6.4 0 1 1 -6 -13 Z" fill="#d8b45a"/><rect x="767.0" y="170" width="26" height="270" fill="#12141c"/><rect x="755.3" y="174" width="49.4" height="7" rx="3" fill="#12141c"/><path d="M 757.9 172 C 757.9 146.585, 767.845 142.1, 780 142.1 C 792.155 142.1, 802.1 146.585, 802.1 172 Z" fill="#12141c"/><line x1="780" y1="142.1" x2="780" y2="120.1" stroke="#d8b45a" stroke-width="3"/><circle cx="780" cy="116.1" r="4.5" fill="#d8b45a"/><path d="M 780 102.1 a 8 8 0 1 0 6 13 a 6.4 6.4 0 1 1 -6 -13 Z" fill="#d8b45a"/><rect x="1047.0" y="170" width="26" height="270" fill="#12141c"/><rect x="1035.3" y="174" width="49.4" height="7" rx="3" fill="#12141c"/><path d="M 1037.9 172 C 1037.9 146.585, 1047.845 142.1, 1060 142.1 C 1072.155 142.1, 1082.1 146.585, 1082.1 172 Z" fill="#12141c"/><line x1="1060" y1="142.1" x2="1060" y2="120.1" stroke="#d8b45a" stroke-width="3"/><circle cx="1060" cy="116.1" r="4.5" fill="#d8b45a"/><path d="M 1060 102.1 a 8 8 0 1 0 6 13 a 6.4 6.4 0 1 1 -6 -13 Z" fill="#d8b45a"/><rect x="530" y="350" width="140" height="210" fill="#111318"/><rect x="530" y="410" width="140" height="16" fill="#d8b45a"/><rect x="576" y="442" width="48" height="118" fill="#d8b45a" opacity="0.85"/>
<rect x="0" y="560" width="1200" height="140" fill="#0c0e14"/>

<rect x="0" y="556" width="1200" height="4" fill="#d8b45a" opacity="0.55"/>
</svg>