<svg xmlns="http://www.w3.org/2000/svg" viewBox="0 0 1200 700" role="img">
<defs>
<linearGradient id="sky" x1="0" y1="0" x2="0" y2="1">
<stop offset="0" stop-color="#4a2b1f"/><stop offset="0.62" stop-color="#9a5f3a"/><stop offset="1" stop-color="#f2d59a"/>
</linearGradient>
<pattern id="g1" width="120" height="120" patternUnits="userSpaceOnUse"><polygon points="111.6,60.0 80.0,68.3 96.5,96.5 68.3,80.0 60.0,111.6 51.7,80.0 23.5,96.5 40.0,68.3 8.4,60.0 40.0,51.7 23.5,23.5 51.7,40.0 60.0,8.4 68.3,40.0 96.5,23.5 80.0,51.7" fill="none" stroke="#e8d9a8" stroke-width="1.6" opacity="0.1"/><rect x="17.4" y="17.4" width="85.2" height="85.2" fill="none" stroke="#e8d9a8" stroke-width="1.6" opacity="0.06999999999999999" transform="rotate(45 60.0 60.0)"/></pattern>
</defs>
<rect width="1200" height="700" fill="url(#sky)"/>
<rect width="1200" height="700" fill="url(#g1)"/>
<circle cx="1038" cy="58" r="1.3" fill="#f7ecd2" opacity="0.39"/><circle cx="352" cy="191" r="0.8" fill="#f7ecd2" opacity="0.67"/><circle cx="811" cy="179" r="0.8" fill="#f7ecd2" opacity="0.54"/><circle cx="855" cy="62" r="1.8" fill="#f7ecd2" opacity="0.45"/><circle cx="604" cy="40" r="1.8" fill="#f7ecd2" opacity="0.45"/><circle cx="418" cy="53" r="0.8" fill="#f7ecd2" opacity="0.39"/><circle cx="177" cy="121" r="1.3" fill="#f7ecd2" opacity="0.52"/><circle cx="721" cy="104" r="0.8" fill="#f7ecd2" opacity="0.69"/><circle cx="970" cy="182" r="0.8" fill="#f7ecd2" opacity="0.75"/><circle cx="84" cy="55" r="1.3" fill="#f7ecd2" opacity="0.55"/><circle cx="343" cy="3" r="1.3" fill="#f7ecd2" opacity="0.64"/><circle cx="187" cy="66" r="1.3" fill="#f7ecd2" opacity="0.77"/><circle cx="936" cy="24" r="0.8" fill="#f7ecd2" opacity="0.49"/><circle cx="550" cy="217" r="1.8" fill="#f7ecd2" opacity="0.35"/><circle cx="109" cy="25" r="1.8" fill="#f7ecd2" opacity="0.60"/><circle cx="453" cy="188" r="1.8" fill="#f7ecd2" opacity="0.49"/><circle cx="502" cy="6" r="1.3" fill="#f7ecd2" opacity="0.47"/><circle cx="616" cy="79" r="1.8" fill="#f7ecd2" opacity="0.49"/><circle cx="675" cy="207" r="0.8" fill="#f7ecd2" opacity="0.60"/><circle cx="319" cy="10" r="1.8" fill="#f7ecd2" opacity="0.75"/><circle cx="868" cy="148" r="1.8" fill="#f7ecd2" opacity="0.49"/><circle cx="282" cy="81" r="0.8" fill="#f7ecd2" opacity="0.77"/><circle cx="841" cy="89" r="0.8" fill="#f7ecd2" opacity="0.84"/><circle cx="985" cy="212" r="0.8" fill="#f7ecd2" opacity="0.55"/><circle cx="834" cy="210" r="0.8" fill="#f7ecd2" opacity="0.75"/><circle cx="748" cy="23" r="0.8" fill="#f7ecd2" opacity="0.39"/><circle cx="607" cy="111" r="1.3" fill="#f7ecd2" opacity="0.62"/><circle cx="51" cy="94" r="1.3" fill="#f7ecd2" opacity="0.79"/><circle cx="400" cy="192" r="1.3" fill="#f7ecd2" opacity="0.35"/><circle cx="814" cy="105" r="1.3" fill="#f7ecd2" opacity="0.55"/><circle cx="960" cy="210" r="110.00000000000001" fill="#f2d59a" opacity="0.18"/><circle cx="960" cy="210" r="50" fill="#f2d59a" opacity="0.9"/>
<rect x="280" y="390" width="640" height="170" fill="#12141c"/><path d="M 306 390 l 22 -26 l 22 26 Z" fill="#12141c"/><path d="M 382 390 l 22 -26 l 22 26 Z" fill="#12141c"/><path d="M 458 390 l 22 -26 l 22 26 Z" fill="#12141c"/><path d="M 534 390 l 22 -26 l 22 26 Z" fill="#12141c"/><path d="M 610 390 l 22 -26 l 22 26 Z" fill="#12141c"/><path d="M 686 390 l 22 -26 l 22 26 Z" fill="#12141c"/><path d="M 762 390 l 22 -26 l 22 26 Z" fill="#12141c"/><path d="M 838 390 l 22 -26 l 22 26 Z" fill="#12141c"/><path d="M 680 390 C 680 313.5, 716.0 300, 760 300 C 804.0 300, 840 313.5, 840 390 Z" fill="#caa96a"/><line x1="760" y1="300" x2="760" y2="278" stroke="#d8b45a" stroke-width="3"/><circle cx="760" cy="274" r="4.5" fill="#d8b45a"/><path d="M 760 260 a 8 8 0 1 0 6 13 a 6.4 6.4 0 1 1 -6 -13 Z" fill="#d8b45a"/><path d="M 372 560 L 400 90 L 460 90 L 488 560 Z" fill="#12141c"/><path d="M 374.0 500 Q 430 476 478.0 466" fill="none" stroke="#d8b45a" stroke-width="5" opacity="0.85"/><path d="M 381.5 434 Q 430 410 470.5 400" fill="none" stroke="#d8b45a" stroke-width="5" opacity="0.85"/><path d="M 389.0 368 Q 430 344 463.0 334" fill="none" stroke="#d8b45a" stroke-width="5" opacity="0.85"/><path d="M 396.5 302 Q 430 278 455.5 268" fill="none" stroke="#d8b45a" stroke-width="5" opacity="0.85"/><path d="M 404.0 236 Q 430 212 448.0 202" fill="none" stroke="#d8b45a" stroke-width="5" opacity="0.85"/><path d="M 411.5 170 Q 430 146 440.5 136" fill="none" stroke="#d8b45a" stroke-width="5" opacity="0.85"/><rect x="414" y="56" width="32" height="34" fill="#12141c"/>
<rect x="0" y="560" width="1200" height="140" fill="#0c0e14"/>

<rect x="0" y="556" width="1200" height="4" fill="#d8b45a" opacity="0.55"/>
</svg>