<svg xmlns="http://www.w3.org/2000/svg" viewBox="0 0 1200 700" role="img">
<defs>
<linearGradient id="sky" x1="0" y1="0" x2="0" y2="1">
<stop offset="0" stop-color="#4a2b1f"/><stop offset="0.62" stop-color="#9a5f3a"/><stop offset="1" stop-color="#f2d59a"/>
</linearGradient>
<pattern id="g1" width="120" height="120" patternUnits="userSpaceOnUse"><polygon points="111.6,60.0 80.0,68.3 96.5,96.5 68.3,80.0 60.0,111.6 51.7,80.0 23.5,96.5 40.0,68.3 8.4,60.0 40.0,51.7 23.5,23.5 51.7,40.0 60.0,8.4 68.3,40.0 96.5,23.5 80.0,51.7" fill="none" stroke="#e8d9a8" stroke-width="1.6" opacity="0.1"/><rect x="17.4" y="17.4" width="85.2" height="85.2" fill="none" stroke="#e8d9a8" stroke-width="1.6" opacity="0.06999999999999999" transform="rotate(45 60.0 60.0)"/></pattern>
</defs>
<rect width="1200" height="700" fill="url(#sky)"/>
<rect width="1200" height="700" fill="url(#g1)"/>
<circle cx="256" cy="16" r="1.8" fill="#f7ecd2" opacity="0.81"/><circle cx="866" cy="65" r="1.3" fill="#f7ecd2" opacity="0.75"/><circle cx="1133" cy="41" r="1.3" fill="#f7ecd2" opacity="0.38"/><circle cx="361" cy="148" r="1.8" fill="#f7ecd2" opacity="0.63"/><circle cx="542" cy="98" r="1.3" fill="#f7ecd2" opacity="0.51"/><circle cx="692" cy="187" r="0.8" fill="#f7ecd2" opacity="0.39"/><circle cx="979" cy="123" r="1.3" fill="#f7ecd2" opacity="0.52"/><circle cx="467" cy="150" r="1.8" fill="#f7ecd2" opacity="0.35"/><circle cx="428" cy="100" r="0.8" fill="#f7ecd2" opacity="0.35"/><circle cx="118" cy="9" r="1.3" fill="#f7ecd2" opacity="0.47"/><circle cx="425" cy="125" r="1.3" fill="#f7ecd2" opacity="0.60"/><circle cx="173" cy="72" r="1.8" fill="#f7ecd2" opacity="0.41"/><circle cx="1114" cy="42" r="1.3" fill="#f7ecd2" opacity="0.73"/><circle cx="344" cy="211" r="0.8" fill="#f7ecd2" opacity="0.69"/><circle cx="671" cy="67" r="0.8" fill="#f7ecd2" opacity="0.42"/><circle cx="679" cy="154" r="1.8" fill="#f7ecd2" opacity="0.51"/><circle cx="200" cy="104" r="1.3" fill="#f7ecd2" opacity="0.35"/><circle cx="170" cy="113" r="1.3" fill="#f7ecd2" opacity="0.45"/><circle cx="517" cy="149" r="0.8" fill="#f7ecd2" opacity="0.68"/><circle cx="785" cy="156" r="1.8" fill="#f7ecd2" opacity="0.45"/><circle cx="86" cy="106" r="0.8" fill="#f7ecd2" opacity="0.51"/><circle cx="796" cy="175" r="1.8" fill="#f7ecd2" opacity="0.35"/><circle cx="1163" cy="171" r="1.8" fill="#f7ecd2" opacity="0.58"/><circle cx="491" cy="78" r="1.8" fill="#f7ecd2" opacity="0.83"/><circle cx="772" cy="48" r="1.3" fill="#f7ecd2" opacity="0.41"/><circle cx="1022" cy="157" r="0.8" fill="#f7ecd2" opacity="0.39"/><circle cx="209" cy="93" r="1.8" fill="#f7ecd2" opacity="0.72"/><circle cx="997" cy="160" r="1.8" fill="#f7ecd2" opacity="0.55"/><circle cx="1058" cy="130" r="0.8" fill="#f7ecd2" opacity="0.75"/><circle cx="848" cy="59" r="1.3" fill="#f7ecd2" opacity="0.67"/><circle cx="960" cy="210" r="110.00000000000001" fill="#f2d59a" opacity="0.18"/><circle cx="960" cy="210" r="50" fill="#f2d59a" opacity="0.9"/>
<rect x="280" y="390" width="640" height="170" fill="#12141c"/><path d="M 306 390 l 22 -26 l 22 26 Z" fill="#12141c"/><path d="M 382 390 l 22 -26 l 22 26 Z" fill="#12141c"/><path d="M 458 390 l 22 -26 l 22 26 Z" fill="#12141c"/><path d="M 534 390 l 22 -26 l 22 26 Z" fill="#12141c"/><path d="M 610 390 l 22 -26 l 22 26 Z" fill="#12141c"/><path d="M 686 390 l 22 -26 l 22 26 Z" fill="#12141c"/><path d="M 762 390 l 22 -26 l 22 26 Z" fill="#12141c"/><path d="M 838 390 l 22 -26 l 22 26 Z" fill="#12141c"/><path d="M 680 390 C 680 313.5, 716.0 300, 760 300 C 804.0 300, 840 313.5, 840 390 Z" fill="#caa96a"/><line x1="760" y1="300" x2="760" y2="278" stroke="#d8b45a" stroke-width="3"/><circle cx="760" cy="274" r="4.5" fill="#d8b45a"/><path d="M 760 260 a 8 8 0 1 0 6 13 a 6.4 6.4 0 1 1 -6 -13 Z" fill="#d8b45a"/><path d="M 372 560 L 400 90 L 460 90 L 488 560 Z" fill="#12141c"/><path d="M 374.0 500 Q 430 476 478.0 466" fill="none" stroke="#d8b45a" stroke-width="5" opacity="0.85"/><path d="M 381.5 434 Q 430 410 470.5 400" fill="none" stroke="#d8b45a" stroke-width="5" opacity="0.85"/><path d="M 389.0 368 Q 430 344 463.0 334" fill="none" stroke="#d8b45a" stroke-width="5" opacity="0.85"/><path d="M 396.5 302 Q 430 278 455.5 268" fill="none" stroke="#d8b45a" stroke-width="5" opacity="0.85"/><path d="M 404.0 236 Q 430 212 448.0 202" fill="none" stroke="#d8b45a" stroke-width="5" opacity="0.85"/><path d="M 411.5 170 Q 430 146 440.5 136" fill="none" stroke="#d8b45a" stroke-width="5" opacity="0.85"/><rect x="414" y="56" width="32" height="34" fill="#12141c"/>
<rect x="0" y="560" width="1200" height="140" fill="#0c0e14"/>

<rect x="0" y="556" width="1200" height="4" fill="#d8b45a" opacity="0.55"/>
</svg>