<svg xmlns="http://www.w3.org/2000/svg" viewBox="0 0 1200 700" role="img">
<defs>
<linearGradient id="sky" x1="0" y1="0" x2="0" y2="1">
<stop offset="0" stop-color="#0a1026"/><stop offset="0.62" stop-color="#152046"/><stop offset="1" stop-color="#2b3a6b"/>
</linearGradient>
<pattern id="g1" width="120" height="120" patternUnits="userSpaceOnUse"><polygon points="111.6,60.0 80.0,68.3 96.5,96.5 68.3,80.0 60.0,111.6 51.7,80.0 23.5,96.5 40.0,68.3 8.4,60.0 40.0,51.7 23.5,23.5 51.7,40.0 60.0,8.4 68.3,40.0 96.5,23.5 80.0,51.7" fill="none" stroke="#e8d9a8" stroke-width="1.6" opacity="0.1"/><rect x="17.4" y="17.4" width="85.2" height="85.2" fill="none" stroke="#e8d9a8" stroke-width="1.6" opacity="0.06999999999999999" transform="rotate(45 60.0 60.0)"/></pattern>
</defs>
<rect width="1200" height="700" fill="url(#sky)"/>
<rect width="1200" height="700" fill="url(#g1)"/>
<circle cx="68" cy="68" r="1.3" fill="#f7ecd2" opacity="0.59"/><circle cx="342" cy="121" r="1.3" fill="#f7ecd2" opacity="0.67"/><circle cx="81" cy="249" r="0.8" fill="#f7ecd2" opacity="0.54"/><circle cx="365" cy="272" r="1.3" fill="#f7ecd2" opacity="0.65"/><circle cx="834" cy="250" r="1.3" fill="#f7ecd2" opacity="0.35"/><circle cx="408" cy="23" r="1.8" fill="#f7ecd2" opacity="0.69"/><circle cx="647" cy="11" r="1.3" fill="#f7ecd2" opacity="0.52"/><circle cx="231" cy="94" r="1.3" fill="#f7ecd2" opacity="0.49"/><circle cx="0" cy="132" r="0.8" fill="#f7ecd2" opacity="0.35"/><circle cx="74" cy="105" r="1.8" fill="#f7ecd2" opacity="0.55"/><circle cx="813" cy="293" r="1.8" fill="#f7ecd2" opacity="0.44"/><circle cx="897" cy="236" r="1.8" fill="#f7ecd2" opacity="0.77"/><circle cx="1166" cy="134" r="1.3" fill="#f7ecd2" opacity="0.79"/><circle cx="540" cy="167" r="1.8" fill="#f7ecd2" opacity="0.65"/><circle cx="579" cy="75" r="0.8" fill="#f7ecd2" opacity="0.60"/><circle cx="1163" cy="218" r="1.3" fill="#f7ecd2" opacity="0.69"/><circle cx="732" cy="176" r="1.8" fill="#f7ecd2" opacity="0.67"/><circle cx="606" cy="69" r="0.8" fill="#f7ecd2" opacity="0.49"/><circle cx="1145" cy="177" r="1.8" fill="#f7ecd2" opacity="0.50"/><circle cx="1029" cy="40" r="1.3" fill="#f7ecd2" opacity="0.45"/><circle cx="1098" cy="198" r="0.8" fill="#f7ecd2" opacity="0.39"/><circle cx="272" cy="151" r="0.8" fill="#f7ecd2" opacity="0.57"/><circle cx="111" cy="319" r="1.3" fill="#f7ecd2" opacity="0.44"/><circle cx="495" cy="42" r="0.8" fill="#f7ecd2" opacity="0.75"/><circle cx="1064" cy="60" r="1.8" fill="#f7ecd2" opacity="0.75"/><circle cx="738" cy="213" r="0.8" fill="#f7ecd2" opacity="0.79"/><circle cx="1077" cy="241" r="1.3" fill="#f7ecd2" opacity="0.42"/><circle cx="761" cy="24" r="1.8" fill="#f7ecd2" opacity="0.49"/><circle cx="630" cy="102" r="0.8" fill="#f7ecd2" opacity="0.45"/><circle cx="804" cy="115" r="1.3" fill="#f7ecd2" opacity="0.45"/><circle cx="443" cy="203" r="1.3" fill="#f7ecd2" opacity="0.64"/><circle cx="627" cy="186" r="0.8" fill="#f7ecd2" opacity="0.57"/><circle cx="996" cy="124" r="1.3" fill="#f7ecd2" opacity="0.39"/><circle cx="470" cy="197" r="1.3" fill="#f7ecd2" opacity="0.75"/><circle cx="609" cy="145" r="1.3" fill="#f7ecd2" opacity="0.40"/><circle cx="93" cy="188" r="1.8" fill="#f7ecd2" opacity="0.69"/><circle cx="962" cy="326" r="1.3" fill="#f7ecd2" opacity="0.47"/><circle cx="936" cy="259" r="1.3" fill="#f7ecd2" opacity="0.59"/><circle cx="375" cy="267" r="0.8" fill="#f7ecd2" opacity="0.60"/><circle cx="359" cy="170" r="1.3" fill="#f7ecd2" opacity="0.65"/><circle cx="528" cy="28" r="1.3" fill="#f7ecd2" opacity="0.69"/><circle cx="1002" cy="161" r="1.8" fill="#f7ecd2" opacity="0.57"/><circle cx="941" cy="29" r="1.3" fill="#f7ecd2" opacity="0.74"/><circle cx="225" cy="332" r="1.8" fill="#f7ecd2" opacity="0.35"/><circle cx="894" cy="50" r="1.8" fill="#f7ecd2" opacity="0.35"/><circle cx="668" cy="243" r="1.8" fill="#f7ecd2" opacity="0.59"/><circle cx="1107" cy="311" r="1.8" fill="#f7ecd2" opacity="0.62"/><circle cx="891" cy="134" r="1.8" fill="#f7ecd2" opacity="0.79"/><circle cx="860" cy="252" r="1.8" fill="#f7ecd2" opacity="0.55"/><circle cx="1134" cy="305" r="1.8" fill="#f7ecd2" opacity="0.55"/><circle cx="873" cy="93" r="0.8" fill="#f7ecd2" opacity="0.74"/><circle cx="1157" cy="116" r="1.3" fill="#f7ecd2" opacity="0.47"/><circle cx="426" cy="294" r="0.8" fill="#f7ecd2" opacity="0.79"/><circle cx="0" cy="67" r="1.3" fill="#f7ecd2" opacity="0.35"/><circle cx="239" cy="55" r="0.8" fill="#f7ecd2" opacity="0.80"/><circle cx="1023" cy="278" r="1.8" fill="#f7ecd2" opacity="0.79"/><circle cx="792" cy="316" r="1.3" fill="#f7ecd2" opacity="0.57"/><circle cx="866" cy="289" r="0.8" fill="#f7ecd2" opacity="0.59"/><circle cx="405" cy="337" r="1.3" fill="#f7ecd2" opacity="0.70"/><circle cx="489" cy="280" r="1.3" fill="#f7ecd2" opacity="0.55"/><circle cx="980" cy="120" r="42" fill="#f6ecd0" opacity="0.95"/><circle cx="996" cy="112" r="36" fill="url(#sky)" opacity="0.92"/>
<rect x="280" y="390" width="640" height="170" fill="#12141c"/><path d="M 306 390 l 22 -26 l 22 26 Z" fill="#12141c"/><path d="M 382 390 l 22 -26 l 22 26 Z" fill="#12141c"/><path d="M 458 390 l 22 -26 l 22 26 Z" fill="#12141c"/><path d="M 534 390 l 22 -26 l 22 26 Z" fill="#12141c"/><path d="M 610 390 l 22 -26 l 22 26 Z" fill="#12141c"/><path d="M 686 390 l 22 -26 l 22 26 Z" fill="#12141c"/><path d="M 762 390 l 22 -26 l 22 26 Z" fill="#12141c"/><path d="M 838 390 l 22 -26 l 22 26 Z" fill="#12141c"/><path d="M 680 390 C 680 313.5, 716.0 300, 760 300 C 804.0 300, 840 313.5, 840 390 Z" fill="#caa96a"/><line x1="760" y1="300" x2="760" y2="278" stroke="#d8b45a" stroke-width="3"/><circle cx="760" cy="274" r="4.5" fill="#d8b45a"/><path d="M 760 260 a 8 8 0 1 0 6 13 a 6.4 6.4 0 1 1 -6 -13 Z" fill="#d8b45a"/><path d="M 372 560 L 400 90 L 460 90 L 488 560 Z" fill="#12141c"/><path d="M 374.0 500 Q 430 476 478.0 466" fill="none" stroke="#d8b45a" stroke-width="5" opacity="0.85"/><path d="M 381.5 434 Q 430 410 470.5 400" fill="none" stroke="#d8b45a" stroke-width="5" opacity="0.85"/><path d="M 389.0 368 Q 430 344 463.0 334" fill="none" stroke="#d8b45a" stroke-width="5" opacity="0.85"/><path d="M 396.5 302 Q 430 278 455.5 268" fill="none" stroke="#d8b45a" stroke-width="5" opacity="0.85"/><path d="M 404.0 236 Q 430 212 448.0 202" fill="none" stroke="#d8b45a" stroke-width="5" opacity="0.85"/><path d="M 411.5 170 Q 430 146 440.5 136" fill="none" stroke="#d8b45a" stroke-width="5" opacity="0.85"/><rect x="414" y="56" width="32" height="34" fill="#12141c"/>
<rect x="0" y="560" width="1200" height="140" fill="#0c0e14"/>

<rect x="0" y="556" width="1200" height="4" fill="#d8b45a" opacity="0.55"/>
</svg>