<svg xmlns="http://www.w3.org/2000/svg" viewBox="0 0 1200 700" role="img">
<defs>
<linearGradient id="sky" x1="0" y1="0" x2="0" y2="1">
<stop offset="0" stop-color="#0a1026"/><stop offset="0.62" stop-color="#152046"/><stop offset="1" stop-color="#2b3a6b"/>
</linearGradient>
<pattern id="g1" width="120" height="120" patternUnits="userSpaceOnUse"><polygon points="111.6,60.0 80.0,68.3 96.5,96.5 68.3,80.0 60.0,111.6 51.7,80.0 23.5,96.5 40.0,68.3 8.4,60.0 40.0,51.7 23.5,23.5 51.7,40.0 60.0,8.4 68.3,40.0 96.5,23.5 80.0,51.7" fill="none" stroke="#e8d9a8" stroke-width="1.6" opacity="0.1"/><rect x="17.4" y="17.4" width="85.2" height="85.2" fill="none" stroke="#e8d9a8" stroke-width="1.6" opacity="0.06999999999999999" transform="rotate(45 60.0 60.0)"/></pattern>
</defs>
<rect width="1200" height="700" fill="url(#sky)"/>
<rect width="1200" height="700" fill="url(#g1)"/>
<circle cx="77" cy="7" r="0.8" fill="#f7ecd2" opacity="0.74"/><circle cx="999" cy="88" r="1.3" fill="#f7ecd2" opacity="0.47"/><circle cx="42" cy="60" r="0.8" fill="#f7ecd2" opacity="0.55"/><circle cx="1118" cy="155" r="1.3" fill="#f7ecd2" opacity="0.75"/><circle cx="603" cy="229" r="1.3" fill="#f7ecd2" opacity="0.72"/><circle cx="345" cy="110" r="1.8" fill="#f7ecd2" opacity="0.35"/><circle cx="848" cy="122" r="1.3" fill="#f7ecd2" opacity="0.41"/><circle cx="504" cy="57" r="0.8" fill="#f7ecd2" opacity="0.63"/><circle cx="729" cy="291" r="0.8" fill="#f7ecd2" opacity="0.74"/><circle cx="491" cy="112" r="0.8" fill="#f7ecd2" opacity="0.77"/><circle cx="54" cy="224" r="1.8" fill="#f7ecd2" opacity="0.81"/><circle cx="690" cy="279" r="0.8" fill="#f7ecd2" opacity="0.45"/><circle cx="455" cy="193" r="0.8" fill="#f7ecd2" opacity="0.50"/><circle cx="237" cy="294" r="0.8" fill="#f7ecd2" opacity="0.63"/><circle cx="60" cy="306" r="0.8" fill="#f7ecd2" opacity="0.45"/><circle cx="476" cy="1" r="0.8" fill="#f7ecd2" opacity="0.61"/><circle cx="981" cy="75" r="0.8" fill="#f7ecd2" opacity="0.60"/><circle cx="783" cy="116" r="1.8" fill="#f7ecd2" opacity="0.63"/><circle cx="866" cy="28" r="0.8" fill="#f7ecd2" opacity="0.83"/><circle cx="1062" cy="43" r="1.3" fill="#f7ecd2" opacity="0.51"/><circle cx="1107" cy="137" r="1.8" fill="#f7ecd2" opacity="0.44"/><circle cx="929" cy="118" r="0.8" fill="#f7ecd2" opacity="0.57"/><circle cx="72" cy="130" r="1.3" fill="#f7ecd2" opacity="0.45"/><circle cx="48" cy="125" r="1.8" fill="#f7ecd2" opacity="0.35"/><circle cx="833" cy="39" r="1.8" fill="#f7ecd2" opacity="0.72"/><circle cx="675" cy="300" r="0.8" fill="#f7ecd2" opacity="0.35"/><circle cx="78" cy="212" r="1.8" fill="#f7ecd2" opacity="0.71"/><circle cx="1034" cy="327" r="1.8" fill="#f7ecd2" opacity="0.53"/><circle cx="159" cy="121" r="1.3" fill="#f7ecd2" opacity="0.74"/><circle cx="21" cy="322" r="1.3" fill="#f7ecd2" opacity="0.47"/><circle cx="884" cy="274" r="0.8" fill="#f7ecd2" opacity="0.51"/><circle cx="420" cy="229" r="1.3" fill="#f7ecd2" opacity="0.65"/><circle cx="285" cy="183" r="0.8" fill="#f7ecd2" opacity="0.40"/><circle cx="167" cy="324" r="1.8" fill="#f7ecd2" opacity="0.43"/><circle cx="90" cy="36" r="0.8" fill="#f7ecd2" opacity="0.75"/><circle cx="606" cy="111" r="0.8" fill="#f7ecd2" opacity="0.51"/><circle cx="11" cy="85" r="0.8" fill="#f7ecd2" opacity="0.70"/><circle cx="1113" cy="306" r="0.8" fill="#f7ecd2" opacity="0.63"/><circle cx="96" cy="118" r="1.3" fill="#f7ecd2" opacity="0.63"/><circle cx="392" cy="173" r="1.3" fill="#f7ecd2" opacity="0.51"/><circle cx="537" cy="307" r="1.3" fill="#f7ecd2" opacity="0.44"/><circle cx="459" cy="328" r="1.3" fill="#f7ecd2" opacity="0.37"/><circle cx="902" cy="180" r="1.8" fill="#f7ecd2" opacity="0.45"/><circle cx="978" cy="215" r="1.8" fill="#f7ecd2" opacity="0.55"/><circle cx="663" cy="29" r="1.8" fill="#f7ecd2" opacity="0.62"/><circle cx="605" cy="330" r="1.8" fill="#f7ecd2" opacity="0.35"/><circle cx="108" cy="282" r="0.8" fill="#f7ecd2" opacity="0.41"/><circle cx="1164" cy="97" r="1.3" fill="#f7ecd2" opacity="0.43"/><circle cx="389" cy="271" r="0.8" fill="#f7ecd2" opacity="0.54"/><circle cx="351" cy="172" r="1.3" fill="#f7ecd2" opacity="0.57"/><circle cx="114" cy="24" r="0.8" fill="#f7ecd2" opacity="0.71"/><circle cx="950" cy="159" r="1.8" fill="#f7ecd2" opacity="0.35"/><circle cx="915" cy="153" r="0.8" fill="#f7ecd2" opacity="0.80"/><circle cx="897" cy="334" r="1.3" fill="#f7ecd2" opacity="0.83"/><circle cx="920" cy="86" r="1.3" fill="#f7ecd2" opacity="0.55"/><circle cx="336" cy="61" r="1.3" fill="#f7ecd2" opacity="0.81"/><circle cx="1041" cy="215" r="1.8" fill="#f7ecd2" opacity="0.50"/><circle cx="1043" cy="336" r="1.8" fill="#f7ecd2" opacity="0.83"/><circle cx="126" cy="188" r="1.8" fill="#f7ecd2" opacity="0.73"/><circle cx="522" cy="283" r="1.3" fill="#f7ecd2" opacity="0.61"/><circle cx="980" cy="120" r="42" fill="#f6ecd0" opacity="0.95"/><circle cx="996" cy="112" r="36" fill="url(#sky)" opacity="0.92"/>
<rect x="280" y="390" width="640" height="170" fill="#12141c"/><path d="M 306 390 l 22 -26 l 22 26 Z" fill="#12141c"/><path d="M 382 390 l 22 -26 l 22 26 Z" fill="#12141c"/><path d="M 458 390 l 22 -26 l 22 26 Z" fill="#12141c"/><path d="M 534 390 l 22 -26 l 22 26 Z" fill="#12141c"/><path d="M 610 390 l 22 -26 l 22 26 Z" fill="#12141c"/><path d="M 686 390 l 22 -26 l 22 26 Z" fill="#12141c"/><path d="M 762 390 l 22 -26 l 22 26 Z" fill="#12141c"/><path d="M 838 390 l 22 -26 l 22 26 Z" fill="#12141c"/><path d="M 680 390 C 680 313.5, 716.0 300, 760 300 C 804.0 300, 840 313.5, 840 390 Z" fill="#caa96a"/><line x1="760" y1="300" x2="760" y2="278" stroke="#d8b45a" stroke-width="3"/><circle cx="760" cy="274" r="4.5" fill="#d8b45a"/><path d="M 760 260 a 8 8 0 1 0 6 13 a 6.4 6.4 0 1 1 -6 -13 Z" fill="#d8b45a"/><path d="M 372 560 L 400 90 L 460 90 L 488 560 Z" fill="#12141c"/><path d="M 374.0 500 Q 430 476 478.0 466" fill="none" stroke="#d8b45a" stroke-width="5" opacity="0.85"/><path d="M 381.5 434 Q 430 410 470.5 400" fill="none" stroke="#d8b45a" stroke-width="5" opacity="0.85"/><path d="M 389.0 368 Q 430 344 463.0 334" fill="none" stroke="#d8b45a" stroke-width="5" opacity="0.85"/><path d="M 396.5 302 Q 430 278 455.5 268" fill="none" stroke="#d8b45a" stroke-width="5" opacity="0.85"/><path d="M 404.0 236 Q 430 212 448.0 202" fill="none" stroke="#d8b45a" stroke-width="5" opacity="0.85"/><path d="M 411.5 170 Q 430 146 440.5 136" fill="none" stroke="#d8b45a" stroke-width="5" opacity="0.85"/><rect x="414" y="56" width="32" height="34" fill="#12141c"/>
<rect x="0" y="560" width="1200" height="140" fill="#0c0e14"/>

<rect x="0" y="556" width="1200" height="4" fill="#d8b45a" opacity="0.55"/>
</svg>