<svg xmlns="http://www.w3.org/2000/svg" viewBox="0 0 1200 700" role="img">
<defs>
<linearGradient id="sky" x1="0" y1="0" x2="0" y2="1">
<stop offset="0" stop-color="#0a1026"/><stop offset="0.62" stop-color="#152046"/><stop offset="1" stop-color="#2b3a6b"/>
</linearGradient>
<pattern id="g1" width="120" height="120" patternUnits="userSpaceOnUse"><polygon points="111.6,60.0 80.0,68.3 96.5,96.5 68.3,80.0 60.0,111.6 51.7,80.0 23.5,96.5 40.0,68.3 8.4,60.0 40.0,51.7 23.5,23.5 51.7,40.0 60.0,8.4 68.3,40.0 96.5,23.5 80.0,51.7" fill="none" stroke="#e8d9a8" stroke-width="1.6" opacity="0.1"/><rect x="17.4" y="17.4" width="85.2" height="85.2" fill="none" stroke="#e8d9a8" stroke-width="1.6" opacity="0.06999999999999999" transform="rotate(45 60.0 60.0)"/></pattern>
</defs>
<rect width="1200" height="700" fill="url(#sky)"/>
<rect width="1200" height="700" fill="url(#g1)"/>
<circle cx="402" cy="222" r="0.8" fill="#f7ecd2" opacity="0.79"/><circle cx="724" cy="63" r="1.3" fill="#f7ecd2" opacity="0.47"/><circle cx="367" cy="275" r="0.8" fill="#f7ecd2" opacity="0.60"/><circle cx="843" cy="130" r="1.3" fill="#f7ecd2" opacity="0.75"/><circle cx="928" cy="104" r="0.8" fill="#f7ecd2" opacity="0.47"/><circle cx="70" cy="85" r="1.8" fill="#f7ecd2" opacity="0.35"/><circle cx="1173" cy="337" r="1.3" fill="#f7ecd2" opacity="0.36"/><circle cx="229" cy="32" r="0.8" fill="#f7ecd2" opacity="0.63"/><circle cx="1054" cy="166" r="1.8" fill="#f7ecd2" opacity="0.49"/><circle cx="216" cy="87" r="0.8" fill="#f7ecd2" opacity="0.77"/><circle cx="379" cy="99" r="1.3" fill="#f7ecd2" opacity="0.56"/><circle cx="415" cy="254" r="0.8" fill="#f7ecd2" opacity="0.45"/><circle cx="780" cy="68" r="1.8" fill="#f7ecd2" opacity="0.75"/><circle cx="1162" cy="69" r="1.3" fill="#f7ecd2" opacity="0.63"/><circle cx="385" cy="181" r="1.8" fill="#f7ecd2" opacity="0.70"/><circle cx="201" cy="316" r="1.3" fill="#f7ecd2" opacity="0.51"/><circle cx="106" cy="150" r="1.3" fill="#f7ecd2" opacity="0.35"/><circle cx="508" cy="91" r="1.8" fill="#f7ecd2" opacity="0.63"/><circle cx="1191" cy="243" r="0.8" fill="#f7ecd2" opacity="0.48"/><circle cx="787" cy="18" r="1.3" fill="#f7ecd2" opacity="0.51"/><circle cx="232" cy="212" r="0.8" fill="#f7ecd2" opacity="0.69"/><circle cx="654" cy="93" r="0.8" fill="#f7ecd2" opacity="0.57"/><circle cx="397" cy="5" r="0.8" fill="#f7ecd2" opacity="0.70"/><circle cx="973" cy="240" r="1.3" fill="#f7ecd2" opacity="0.55"/><circle cx="1158" cy="254" r="1.8" fill="#f7ecd2" opacity="0.67"/><circle cx="400" cy="275" r="0.8" fill="#f7ecd2" opacity="0.35"/><circle cx="403" cy="87" r="1.3" fill="#f7ecd2" opacity="0.46"/><circle cx="759" cy="302" r="1.8" fill="#f7ecd2" opacity="0.53"/><circle cx="484" cy="336" r="1.3" fill="#f7ecd2" opacity="0.59"/><circle cx="946" cy="97" r="1.8" fill="#f7ecd2" opacity="0.47"/><circle cx="9" cy="9" r="0.8" fill="#f7ecd2" opacity="0.66"/><circle cx="145" cy="204" r="1.3" fill="#f7ecd2" opacity="0.65"/><circle cx="610" cy="58" r="1.8" fill="#f7ecd2" opacity="0.65"/><circle cx="1092" cy="99" r="0.8" fill="#f7ecd2" opacity="0.43"/><circle cx="415" cy="251" r="0.8" fill="#f7ecd2" opacity="0.50"/><circle cx="331" cy="86" r="0.8" fill="#f7ecd2" opacity="0.51"/><circle cx="336" cy="300" r="0.8" fill="#f7ecd2" opacity="0.35"/><circle cx="838" cy="281" r="0.8" fill="#f7ecd2" opacity="0.63"/><circle cx="421" cy="333" r="1.3" fill="#f7ecd2" opacity="0.78"/><circle cx="117" cy="148" r="1.3" fill="#f7ecd2" opacity="0.51"/><circle cx="862" cy="182" r="0.8" fill="#f7ecd2" opacity="0.69"/><circle cx="184" cy="303" r="1.3" fill="#f7ecd2" opacity="0.37"/><circle cx="27" cy="255" r="0.8" fill="#f7ecd2" opacity="0.70"/><circle cx="703" cy="190" r="1.8" fill="#f7ecd2" opacity="0.55"/><circle cx="988" cy="244" r="1.8" fill="#f7ecd2" opacity="0.57"/><circle cx="330" cy="305" r="1.8" fill="#f7ecd2" opacity="0.35"/><circle cx="433" cy="157" r="1.8" fill="#f7ecd2" opacity="0.66"/><circle cx="889" cy="72" r="1.3" fill="#f7ecd2" opacity="0.43"/><circle cx="714" cy="146" r="1.8" fill="#f7ecd2" opacity="0.79"/><circle cx="76" cy="147" r="1.3" fill="#f7ecd2" opacity="0.57"/><circle cx="439" cy="239" r="0.8" fill="#f7ecd2" opacity="0.56"/><circle cx="675" cy="134" r="1.8" fill="#f7ecd2" opacity="0.35"/><circle cx="40" cy="228" r="1.3" fill="#f7ecd2" opacity="0.55"/><circle cx="622" cy="309" r="1.3" fill="#f7ecd2" opacity="0.83"/><circle cx="45" cy="161" r="1.8" fill="#f7ecd2" opacity="0.80"/><circle cx="61" cy="36" r="1.3" fill="#f7ecd2" opacity="0.81"/><circle cx="166" cy="290" r="0.8" fill="#f7ecd2" opacity="0.75"/><circle cx="768" cy="311" r="1.8" fill="#f7ecd2" opacity="0.83"/><circle cx="451" cy="63" r="1.3" fill="#f7ecd2" opacity="0.48"/><circle cx="247" cy="258" r="1.3" fill="#f7ecd2" opacity="0.61"/><circle cx="980" cy="120" r="42" fill="#f6ecd0" opacity="0.95"/><circle cx="996" cy="112" r="36" fill="url(#sky)" opacity="0.92"/>
<rect x="280" y="390" width="640" height="170" fill="#12141c"/><path d="M 306 390 l 22 -26 l 22 26 Z" fill="#12141c"/><path d="M 382 390 l 22 -26 l 22 26 Z" fill="#12141c"/><path d="M 458 390 l 22 -26 l 22 26 Z" fill="#12141c"/><path d="M 534 390 l 22 -26 l 22 26 Z" fill="#12141c"/><path d="M 610 390 l 22 -26 l 22 26 Z" fill="#12141c"/><path d="M 686 390 l 22 -26 l 22 26 Z" fill="#12141c"/><path d="M 762 390 l 22 -26 l 22 26 Z" fill="#12141c"/><path d="M 838 390 l 22 -26 l 22 26 Z" fill="#12141c"/><path d="M 680 390 C 680 313.5, 716.0 300, 760 300 C 804.0 300, 840 313.5, 840 390 Z" fill="#caa96a"/><line x1="760" y1="300" x2="760" y2="278" stroke="#d8b45a" stroke-width="3"/><circle cx="760" cy="274" r="4.5" fill="#d8b45a"/><path d="M 760 260 a 8 8 0 1 0 6 13 a 6.4 6.4 0 1 1 -6 -13 Z" fill="#d8b45a"/><path d="M 372 560 L 400 90 L 460 90 L 488 560 Z" fill="#12141c"/><path d="M 374.0 500 Q 430 476 478.0 466" fill="none" stroke="#d8b45a" stroke-width="5" opacity="0.85"/><path d="M 381.5 434 Q 430 410 470.5 400" fill="none" stroke="#d8b45a" stroke-width="5" opacity="0.85"/><path d="M 389.0 368 Q 430 344 463.0 334" fill="none" stroke="#d8b45a" stroke-width="5" opacity="0.85"/><path d="M 396.5 302 Q 430 278 455.5 268" fill="none" stroke="#d8b45a" stroke-width="5" opacity="0.85"/><path d="M 404.0 236 Q 430 212 448.0 202" fill="none" stroke="#d8b45a" stroke-width="5" opacity="0.85"/><path d="M 411.5 170 Q 430 146 440.5 136" fill="none" stroke="#d8b45a" stroke-width="5" opacity="0.85"/><rect x="414" y="56" width="32" height="34" fill="#12141c"/>
<rect x="0" y="560" width="1200" height="140" fill="#0c0e14"/>

<rect x="0" y="556" width="1200" height="4" fill="#d8b45a" opacity="0.55"/>
</svg>