<svg xmlns="http://www.w3.org/2000/svg" viewBox="0 0 1200 700" role="img">
<defs>
<linearGradient id="sky" x1="0" y1="0" x2="0" y2="1">
<stop offset="0" stop-color="#0a1026"/><stop offset="0.62" stop-color="#152046"/><stop offset="1" stop-color="#2b3a6b"/>
</linearGradient>
<pattern id="g1" width="120" height="120" patternUnits="userSpaceOnUse"><polygon points="111.6,60.0 80.0,68.3 96.5,96.5 68.3,80.0 60.0,111.6 51.7,80.0 23.5,96.5 40.0,68.3 8.4,60.0 40.0,51.7 23.5,23.5 51.7,40.0 60.0,8.4 68.3,40.0 96.5,23.5 80.0,51.7" fill="none" stroke="#e8d9a8" stroke-width="1.6" opacity="0.1"/><rect x="17.4" y="17.4" width="85.2" height="85.2" fill="none" stroke="#e8d9a8" stroke-width="1.6" opacity="0.06999999999999999" transform="rotate(45 60.0 60.0)"/></pattern>
</defs>
<rect width="1200" height="700" fill="url(#sky)"/>
<rect width="1200" height="700" fill="url(#g1)"/>
<circle cx="319" cy="29" r="0.8" fill="#f7ecd2" opacity="0.36"/><circle cx="665" cy="274" r="0.8" fill="#f7ecd2" opacity="0.45"/><circle cx="860" cy="258" r="1.8" fill="#f7ecd2" opacity="0.65"/><circle cx="832" cy="129" r="1.3" fill="#f7ecd2" opacity="0.63"/><circle cx="125" cy="31" r="0.8" fill="#f7ecd2" opacity="0.60"/><circle cx="251" cy="256" r="0.8" fill="#f7ecd2" opacity="0.41"/><circle cx="1186" cy="60" r="1.3" fill="#f7ecd2" opacity="0.45"/><circle cx="1178" cy="211" r="0.8" fill="#f7ecd2" opacity="0.43"/><circle cx="731" cy="13" r="0.8" fill="#f7ecd2" opacity="0.38"/><circle cx="637" cy="218" r="0.8" fill="#f7ecd2" opacity="0.51"/><circle cx="1112" cy="42" r="1.8" fill="#f7ecd2" opacity="0.39"/><circle cx="1124" cy="133" r="0.8" fill="#f7ecd2" opacity="0.77"/><circle cx="937" cy="175" r="1.8" fill="#f7ecd2" opacity="0.60"/><circle cx="623" cy="20" r="1.3" fill="#f7ecd2" opacity="0.45"/><circle cx="638" cy="204" r="1.8" fill="#f7ecd2" opacity="0.37"/><circle cx="670" cy="235" r="1.8" fill="#f7ecd2" opacity="0.35"/><circle cx="743" cy="177" r="1.8" fill="#f7ecd2" opacity="0.46"/><circle cx="209" cy="2" r="1.3" fill="#f7ecd2" opacity="0.53"/><circle cx="964" cy="6" r="1.3" fill="#f7ecd2" opacity="0.69"/><circle cx="1016" cy="317" r="1.3" fill="#f7ecd2" opacity="0.57"/><circle cx="149" cy="19" r="0.8" fill="#f7ecd2" opacity="0.66"/><circle cx="595" cy="304" r="1.8" fill="#f7ecd2" opacity="0.65"/><circle cx="890" cy="328" r="0.8" fill="#f7ecd2" opacity="0.55"/><circle cx="962" cy="239" r="1.3" fill="#f7ecd2" opacity="0.53"/><circle cx="355" cy="181" r="1.8" fill="#f7ecd2" opacity="0.40"/><circle cx="581" cy="106" r="0.8" fill="#f7ecd2" opacity="0.71"/><circle cx="416" cy="150" r="1.8" fill="#f7ecd2" opacity="0.35"/><circle cx="508" cy="1" r="1.8" fill="#f7ecd2" opacity="0.43"/><circle cx="161" cy="183" r="1.8" fill="#f7ecd2" opacity="0.48"/><circle cx="167" cy="88" r="0.8" fill="#f7ecd2" opacity="0.81"/><circle cx="742" cy="292" r="1.8" fill="#f7ecd2" opacity="0.49"/><circle cx="854" cy="83" r="1.3" fill="#f7ecd2" opacity="0.67"/><circle cx="767" cy="165" r="1.8" fill="#f7ecd2" opacity="0.40"/><circle cx="553" cy="50" r="0.8" fill="#f7ecd2" opacity="0.35"/><circle cx="668" cy="274" r="0.8" fill="#f7ecd2" opacity="0.67"/><circle cx="800" cy="5" r="1.3" fill="#f7ecd2" opacity="0.35"/><circle cx="973" cy="327" r="1.3" fill="#f7ecd2" opacity="0.56"/><circle cx="539" cy="192" r="1.8" fill="#f7ecd2" opacity="0.73"/><circle cx="194" cy="96" r="1.8" fill="#f7ecd2" opacity="0.59"/><circle cx="346" cy="107" r="0.8" fill="#f7ecd2" opacity="0.57"/><circle cx="779" cy="329" r="1.3" fill="#f7ecd2" opacity="0.76"/><circle cx="125" cy="174" r="1.8" fill="#f7ecd2" opacity="0.35"/><circle cx="520" cy="238" r="1.8" fill="#f7ecd2" opacity="0.45"/><circle cx="692" cy="189" r="1.8" fill="#f7ecd2" opacity="0.73"/><circle cx="185" cy="171" r="1.8" fill="#f7ecd2" opacity="0.70"/><circle cx="511" cy="136" r="1.8" fill="#f7ecd2" opacity="0.81"/><circle cx="446" cy="220" r="0.8" fill="#f7ecd2" opacity="0.55"/><circle cx="638" cy="111" r="1.8" fill="#f7ecd2" opacity="0.53"/><circle cx="391" cy="333" r="1.3" fill="#f7ecd2" opacity="0.38"/><circle cx="497" cy="278" r="1.3" fill="#f7ecd2" opacity="0.51"/><circle cx="1172" cy="182" r="1.3" fill="#f7ecd2" opacity="0.39"/><circle cx="184" cy="213" r="1.3" fill="#f7ecd2" opacity="0.77"/><circle cx="197" cy="335" r="1.3" fill="#f7ecd2" opacity="0.80"/><circle cx="83" cy="260" r="1.3" fill="#f7ecd2" opacity="0.65"/><circle cx="298" cy="184" r="1.8" fill="#f7ecd2" opacity="0.67"/><circle cx="530" cy="295" r="0.8" fill="#f7ecd2" opacity="0.35"/><circle cx="803" cy="317" r="1.3" fill="#f7ecd2" opacity="0.36"/><circle cx="469" cy="222" r="1.3" fill="#f7ecd2" opacity="0.53"/><circle cx="224" cy="166" r="0.8" fill="#f7ecd2" opacity="0.69"/><circle cx="476" cy="217" r="0.8" fill="#f7ecd2" opacity="0.77"/><circle cx="980" cy="120" r="42" fill="#f6ecd0" opacity="0.95"/><circle cx="996" cy="112" r="36" fill="url(#sky)" opacity="0.92"/>
<rect x="280" y="390" width="640" height="170" fill="#12141c"/><path d="M 306 390 l 22 -26 l 22 26 Z" fill="#12141c"/><path d="M 382 390 l 22 -26 l 22 26 Z" fill="#12141c"/><path d="M 458 390 l 22 -26 l 22 26 Z" fill="#12141c"/><path d="M 534 390 l 22 -26 l 22 26 Z" fill="#12141c"/><path d="M 610 390 l 22 -26 l 22 26 Z" fill="#12141c"/><path d="M 686 390 l 22 -26 l 22 26 Z" fill="#12141c"/><path d="M 762 390 l 22 -26 l 22 26 Z" fill="#12141c"/><path d="M 838 390 l 22 -26 l 22 26 Z" fill="#12141c"/><path d="M 680 390 C 680 313.5, 716.0 300, 760 300 C 804.0 300, 840 313.5, 840 390 Z" fill="#caa96a"/><line x1="760" y1="300" x2="760" y2="278" stroke="#d8b45a" stroke-width="3"/><circle cx="760" cy="274" r="4.5" fill="#d8b45a"/><path d="M 760 260 a 8 8 0 1 0 6 13 a 6.4 6.4 0 1 1 -6 -13 Z" fill="#d8b45a"/><path d="M 372 560 L 400 90 L 460 90 L 488 560 Z" fill="#12141c"/><path d="M 374.0 500 Q 430 476 478.0 466" fill="none" stroke="#d8b45a" stroke-width="5" opacity="0.85"/><path d="M 381.5 434 Q 430 410 470.5 400" fill="none" stroke="#d8b45a" stroke-width="5" opacity="0.85"/><path d="M 389.0 368 Q 430 344 463.0 334" fill="none" stroke="#d8b45a" stroke-width="5" opacity="0.85"/><path d="M 396.5 302 Q 430 278 455.5 268" fill="none" stroke="#d8b45a" stroke-width="5" opacity="0.85"/><path d="M 404.0 236 Q 430 212 448.0 202" fill="none" stroke="#d8b45a" stroke-width="5" opacity="0.85"/><path d="M 411.5 170 Q 430 146 440.5 136" fill="none" stroke="#d8b45a" stroke-width="5" opacity="0.85"/><rect x="414" y="56" width="32" height="34" fill="#12141c"/>
<rect x="0" y="560" width="1200" height="140" fill="#0c0e14"/>

<rect x="0" y="556" width="1200" height="4" fill="#d8b45a" opacity="0.55"/>
</svg>