<svg xmlns="http://www.w3.org/2000/svg" viewBox="0 0 1200 700" role="img">
<defs>
<linearGradient id="sky" x1="0" y1="0" x2="0" y2="1">
<stop offset="0" stop-color="#0a1026"/><stop offset="0.62" stop-color="#152046"/><stop offset="1" stop-color="#2b3a6b"/>
</linearGradient>
<pattern id="g1" width="120" height="120" patternUnits="userSpaceOnUse"><polygon points="111.6,60.0 80.0,68.3 96.5,96.5 68.3,80.0 60.0,111.6 51.7,80.0 23.5,96.5 40.0,68.3 8.4,60.0 40.0,51.7 23.5,23.5 51.7,40.0 60.0,8.4 68.3,40.0 96.5,23.5 80.0,51.7" fill="none" stroke="#e8d9a8" stroke-width="1.6" opacity="0.1"/><rect x="17.4" y="17.4" width="85.2" height="85.2" fill="none" stroke="#e8d9a8" stroke-width="1.6" opacity="0.06999999999999999" transform="rotate(45 60.0 60.0)"/></pattern>
</defs>
<rect width="1200" height="700" fill="url(#sky)"/>
<rect width="1200" height="700" fill="url(#g1)"/>
<circle cx="850" cy="170" r="0.8" fill="#f7ecd2" opacity="0.35"/><circle cx="1028" cy="307" r="0.8" fill="#f7ecd2" opacity="0.81"/><circle cx="959" cy="267" r="1.8" fill="#f7ecd2" opacity="0.38"/><circle cx="859" cy="286" r="1.8" fill="#f7ecd2" opacity="0.59"/><circle cx="896" cy="132" r="1.8" fill="#f7ecd2" opacity="0.57"/><circle cx="134" cy="29" r="1.3" fill="#f7ecd2" opacity="0.71"/><circle cx="1045" cy="109" r="1.8" fill="#f7ecd2" opacity="0.40"/><circle cx="485" cy="148" r="0.8" fill="#f7ecd2" opacity="0.65"/><circle cx="542" cy="274" r="0.8" fill="#f7ecd2" opacity="0.43"/><circle cx="40" cy="71" r="0.8" fill="#f7ecd2" opacity="0.75"/><circle cx="731" cy="131" r="1.3" fill="#f7ecd2" opacity="0.46"/><circle cx="911" cy="330" r="1.8" fill="#f7ecd2" opacity="0.65"/><circle cx="988" cy="56" r="0.8" fill="#f7ecd2" opacity="0.63"/><circle cx="746" cy="93" r="1.8" fill="#f7ecd2" opacity="0.63"/><circle cx="17" cy="333" r="1.8" fill="#f7ecd2" opacity="0.46"/><circle cx="937" cy="12" r="1.3" fill="#f7ecd2" opacity="0.79"/><circle cx="1034" cy="18" r="1.8" fill="#f7ecd2" opacity="0.47"/><circle cx="1052" cy="295" r="0.8" fill="#f7ecd2" opacity="0.75"/><circle cx="103" cy="175" r="1.8" fill="#f7ecd2" opacity="0.60"/><circle cx="563" cy="214" r="0.8" fill="#f7ecd2" opacity="0.67"/><circle cx="680" cy="160" r="0.8" fill="#f7ecd2" opacity="0.35"/><circle cx="958" cy="337" r="1.8" fill="#f7ecd2" opacity="0.81"/><circle cx="989" cy="337" r="0.8" fill="#f7ecd2" opacity="0.78"/><circle cx="989" cy="56" r="1.3" fill="#f7ecd2" opacity="0.69"/><circle cx="1126" cy="282" r="1.3" fill="#f7ecd2" opacity="0.67"/><circle cx="464" cy="219" r="1.8" fill="#f7ecd2" opacity="0.51"/><circle cx="275" cy="199" r="0.8" fill="#f7ecd2" opacity="0.60"/><circle cx="1015" cy="78" r="1.3" fill="#f7ecd2" opacity="0.55"/><circle cx="1172" cy="244" r="0.8" fill="#f7ecd2" opacity="0.53"/><circle cx="770" cy="81" r="1.8" fill="#f7ecd2" opacity="0.55"/><circle cx="361" cy="41" r="0.8" fill="#f7ecd2" opacity="0.36"/><circle cx="641" cy="280" r="0.8" fill="#f7ecd2" opacity="0.65"/><circle cx="818" cy="46" r="0.8" fill="#f7ecd2" opacity="0.63"/><circle cx="676" cy="123" r="1.3" fill="#f7ecd2" opacity="0.83"/><circle cx="47" cy="63" r="1.8" fill="#f7ecd2" opacity="0.46"/><circle cx="1067" cy="122" r="1.3" fill="#f7ecd2" opacity="0.59"/><circle cx="64" cy="28" r="1.8" fill="#f7ecd2" opacity="0.77"/><circle cx="182" cy="5" r="1.3" fill="#f7ecd2" opacity="0.45"/><circle cx="533" cy="65" r="1.3" fill="#f7ecd2" opacity="0.80"/><circle cx="1093" cy="144" r="1.3" fill="#f7ecd2" opacity="0.77"/><circle cx="110" cy="330" r="1.8" fill="#f7ecd2" opacity="0.35"/><circle cx="488" cy="207" r="1.8" fill="#f7ecd2" opacity="0.51"/><circle cx="619" cy="247" r="1.8" fill="#f7ecd2" opacity="0.78"/><circle cx="719" cy="6" r="1.8" fill="#f7ecd2" opacity="0.49"/><circle cx="956" cy="272" r="1.3" fill="#f7ecd2" opacity="0.67"/><circle cx="394" cy="249" r="1.3" fill="#f7ecd2" opacity="0.41"/><circle cx="305" cy="269" r="1.3" fill="#f7ecd2" opacity="0.80"/><circle cx="1145" cy="188" r="1.3" fill="#f7ecd2" opacity="0.45"/><circle cx="202" cy="254" r="0.8" fill="#f7ecd2" opacity="0.43"/><circle cx="1100" cy="271" r="0.8" fill="#f7ecd2" opacity="0.35"/><circle cx="791" cy="271" r="0.8" fill="#f7ecd2" opacity="0.46"/><circle cx="1171" cy="210" r="1.3" fill="#f7ecd2" opacity="0.45"/><circle cx="248" cy="216" r="1.8" fill="#f7ecd2" opacity="0.53"/><circle cx="206" cy="333" r="1.8" fill="#f7ecd2" opacity="0.83"/><circle cx="877" cy="113" r="0.8" fill="#f7ecd2" opacity="0.36"/><circle cx="797" cy="72" r="1.8" fill="#f7ecd2" opacity="0.69"/><circle cx="1094" cy="158" r="1.3" fill="#f7ecd2" opacity="0.37"/><circle cx="112" cy="35" r="0.8" fill="#f7ecd2" opacity="0.55"/><circle cx="563" cy="135" r="1.8" fill="#f7ecd2" opacity="0.40"/><circle cx="23" cy="114" r="1.8" fill="#f7ecd2" opacity="0.57"/><circle cx="980" cy="120" r="42" fill="#f6ecd0" opacity="0.95"/><circle cx="996" cy="112" r="36" fill="url(#sky)" opacity="0.92"/>
<rect x="280" y="390" width="640" height="170" fill="#12141c"/><path d="M 306 390 l 22 -26 l 22 26 Z" fill="#12141c"/><path d="M 382 390 l 22 -26 l 22 26 Z" fill="#12141c"/><path d="M 458 390 l 22 -26 l 22 26 Z" fill="#12141c"/><path d="M 534 390 l 22 -26 l 22 26 Z" fill="#12141c"/><path d="M 610 390 l 22 -26 l 22 26 Z" fill="#12141c"/><path d="M 686 390 l 22 -26 l 22 26 Z" fill="#12141c"/><path d="M 762 390 l 22 -26 l 22 26 Z" fill="#12141c"/><path d="M 838 390 l 22 -26 l 22 26 Z" fill="#12141c"/><path d="M 680 390 C 680 313.5, 716.0 300, 760 300 C 804.0 300, 840 313.5, 840 390 Z" fill="#caa96a"/><line x1="760" y1="300" x2="760" y2="278" stroke="#d8b45a" stroke-width="3"/><circle cx="760" cy="274" r="4.5" fill="#d8b45a"/><path d="M 760 260 a 8 8 0 1 0 6 13 a 6.4 6.4 0 1 1 -6 -13 Z" fill="#d8b45a"/><path d="M 372 560 L 400 90 L 460 90 L 488 560 Z" fill="#12141c"/><path d="M 374.0 500 Q 430 476 478.0 466" fill="none" stroke="#d8b45a" stroke-width="5" opacity="0.85"/><path d="M 381.5 434 Q 430 410 470.5 400" fill="none" stroke="#d8b45a" stroke-width="5" opacity="0.85"/><path d="M 389.0 368 Q 430 344 463.0 334" fill="none" stroke="#d8b45a" stroke-width="5" opacity="0.85"/><path d="M 396.5 302 Q 430 278 455.5 268" fill="none" stroke="#d8b45a" stroke-width="5" opacity="0.85"/><path d="M 404.0 236 Q 430 212 448.0 202" fill="none" stroke="#d8b45a" stroke-width="5" opacity="0.85"/><path d="M 411.5 170 Q 430 146 440.5 136" fill="none" stroke="#d8b45a" stroke-width="5" opacity="0.85"/><rect x="414" y="56" width="32" height="34" fill="#12141c"/>
<rect x="0" y="560" width="1200" height="140" fill="#0c0e14"/>

<rect x="0" y="556" width="1200" height="4" fill="#d8b45a" opacity="0.55"/>
</svg>