<svg xmlns="http://www.w3.org/2000/svg" viewBox="0 0 1200 700" role="img">
<defs>
<linearGradient id="sky" x1="0" y1="0" x2="0" y2="1">
<stop offset="0" stop-color="#0a1026"/><stop offset="0.62" stop-color="#152046"/><stop offset="1" stop-color="#2b3a6b"/>
</linearGradient>
<pattern id="g1" width="120" height="120" patternUnits="userSpaceOnUse"><polygon points="111.6,60.0 80.0,68.3 96.5,96.5 68.3,80.0 60.0,111.6 51.7,80.0 23.5,96.5 40.0,68.3 8.4,60.0 40.0,51.7 23.5,23.5 51.7,40.0 60.0,8.4 68.3,40.0 96.5,23.5 80.0,51.7" fill="none" stroke="#e8d9a8" stroke-width="1.6" opacity="0.1"/><rect x="17.4" y="17.4" width="85.2" height="85.2" fill="none" stroke="#e8d9a8" stroke-width="1.6" opacity="0.06999999999999999" transform="rotate(45 60.0 60.0)"/></pattern>
</defs>
<rect width="1200" height="700" fill="url(#sky)"/>
<rect width="1200" height="700" fill="url(#g1)"/>
<circle cx="938" cy="178" r="0.8" fill="#f7ecd2" opacity="0.49"/><circle cx="252" cy="51" r="0.8" fill="#f7ecd2" opacity="0.37"/><circle cx="711" cy="59" r="1.8" fill="#f7ecd2" opacity="0.84"/><circle cx="755" cy="122" r="1.3" fill="#f7ecd2" opacity="0.45"/><circle cx="504" cy="220" r="1.3" fill="#f7ecd2" opacity="0.65"/><circle cx="318" cy="293" r="1.8" fill="#f7ecd2" opacity="0.59"/><circle cx="77" cy="21" r="1.8" fill="#f7ecd2" opacity="0.52"/><circle cx="621" cy="284" r="1.8" fill="#f7ecd2" opacity="0.49"/><circle cx="870" cy="242" r="1.8" fill="#f7ecd2" opacity="0.75"/><circle cx="1184" cy="175" r="0.8" fill="#f7ecd2" opacity="0.35"/><circle cx="243" cy="303" r="0.8" fill="#f7ecd2" opacity="0.64"/><circle cx="87" cy="286" r="1.3" fill="#f7ecd2" opacity="0.67"/><circle cx="836" cy="104" r="1.3" fill="#f7ecd2" opacity="0.79"/><circle cx="450" cy="97" r="1.3" fill="#f7ecd2" opacity="0.35"/><circle cx="9" cy="85" r="1.3" fill="#f7ecd2" opacity="0.50"/><circle cx="353" cy="268" r="0.8" fill="#f7ecd2" opacity="0.39"/><circle cx="402" cy="146" r="1.8" fill="#f7ecd2" opacity="0.77"/><circle cx="516" cy="339" r="0.8" fill="#f7ecd2" opacity="0.59"/><circle cx="575" cy="187" r="0.8" fill="#f7ecd2" opacity="0.60"/><circle cx="219" cy="90" r="0.8" fill="#f7ecd2" opacity="0.45"/><circle cx="768" cy="168" r="0.8" fill="#f7ecd2" opacity="0.59"/><circle cx="182" cy="81" r="1.8" fill="#f7ecd2" opacity="0.77"/><circle cx="741" cy="129" r="0.8" fill="#f7ecd2" opacity="0.74"/><circle cx="885" cy="232" r="1.3" fill="#f7ecd2" opacity="0.55"/><circle cx="734" cy="30" r="1.8" fill="#f7ecd2" opacity="0.55"/><circle cx="648" cy="143" r="1.8" fill="#f7ecd2" opacity="0.49"/><circle cx="507" cy="251" r="1.8" fill="#f7ecd2" opacity="0.42"/><circle cx="1151" cy="214" r="0.8" fill="#f7ecd2" opacity="0.49"/><circle cx="300" cy="72" r="0.8" fill="#f7ecd2" opacity="0.35"/><circle cx="714" cy="45" r="0.8" fill="#f7ecd2" opacity="0.65"/><circle cx="1073" cy="13" r="0.8" fill="#f7ecd2" opacity="0.84"/><circle cx="1017" cy="36" r="0.8" fill="#f7ecd2" opacity="0.47"/><circle cx="666" cy="94" r="1.3" fill="#f7ecd2" opacity="0.39"/><circle cx="380" cy="127" r="0.8" fill="#f7ecd2" opacity="0.45"/><circle cx="39" cy="155" r="1.8" fill="#f7ecd2" opacity="0.80"/><circle cx="483" cy="38" r="1.8" fill="#f7ecd2" opacity="0.39"/><circle cx="632" cy="296" r="1.3" fill="#f7ecd2" opacity="0.57"/><circle cx="846" cy="189" r="0.8" fill="#f7ecd2" opacity="0.79"/><circle cx="1005" cy="77" r="1.8" fill="#f7ecd2" opacity="0.70"/><circle cx="749" cy="20" r="1.3" fill="#f7ecd2" opacity="0.65"/><circle cx="198" cy="338" r="1.8" fill="#f7ecd2" opacity="0.59"/><circle cx="912" cy="91" r="1.3" fill="#f7ecd2" opacity="0.77"/><circle cx="371" cy="39" r="1.8" fill="#f7ecd2" opacity="0.54"/><circle cx="615" cy="182" r="1.8" fill="#f7ecd2" opacity="0.65"/><circle cx="564" cy="20" r="1.8" fill="#f7ecd2" opacity="0.65"/><circle cx="578" cy="173" r="1.3" fill="#f7ecd2" opacity="0.79"/><circle cx="537" cy="321" r="0.8" fill="#f7ecd2" opacity="0.62"/><circle cx="81" cy="184" r="1.3" fill="#f7ecd2" opacity="0.39"/><circle cx="530" cy="222" r="1.8" fill="#f7ecd2" opacity="0.45"/><circle cx="1044" cy="235" r="1.3" fill="#f7ecd2" opacity="0.75"/><circle cx="303" cy="103" r="1.3" fill="#f7ecd2" opacity="0.44"/><circle cx="347" cy="166" r="0.8" fill="#f7ecd2" opacity="0.37"/><circle cx="96" cy="264" r="0.8" fill="#f7ecd2" opacity="0.79"/><circle cx="1110" cy="137" r="1.8" fill="#f7ecd2" opacity="0.55"/><circle cx="869" cy="205" r="0.8" fill="#f7ecd2" opacity="0.80"/><circle cx="213" cy="328" r="1.3" fill="#f7ecd2" opacity="0.49"/><circle cx="462" cy="286" r="1.3" fill="#f7ecd2" opacity="0.67"/><circle cx="776" cy="219" r="1.8" fill="#f7ecd2" opacity="0.79"/><circle cx="1035" cy="147" r="0.8" fill="#f7ecd2" opacity="0.80"/><circle cx="879" cy="130" r="1.3" fill="#f7ecd2" opacity="0.55"/><circle cx="980" cy="120" r="42" fill="#f6ecd0" opacity="0.95"/><circle cx="996" cy="112" r="36" fill="url(#sky)" opacity="0.92"/>
<rect x="280" y="390" width="640" height="170" fill="#12141c"/><path d="M 306 390 l 22 -26 l 22 26 Z" fill="#12141c"/><path d="M 382 390 l 22 -26 l 22 26 Z" fill="#12141c"/><path d="M 458 390 l 22 -26 l 22 26 Z" fill="#12141c"/><path d="M 534 390 l 22 -26 l 22 26 Z" fill="#12141c"/><path d="M 610 390 l 22 -26 l 22 26 Z" fill="#12141c"/><path d="M 686 390 l 22 -26 l 22 26 Z" fill="#12141c"/><path d="M 762 390 l 22 -26 l 22 26 Z" fill="#12141c"/><path d="M 838 390 l 22 -26 l 22 26 Z" fill="#12141c"/><path d="M 680 390 C 680 313.5, 716.0 300, 760 300 C 804.0 300, 840 313.5, 840 390 Z" fill="#caa96a"/><line x1="760" y1="300" x2="760" y2="278" stroke="#d8b45a" stroke-width="3"/><circle cx="760" cy="274" r="4.5" fill="#d8b45a"/><path d="M 760 260 a 8 8 0 1 0 6 13 a 6.4 6.4 0 1 1 -6 -13 Z" fill="#d8b45a"/><path d="M 372 560 L 400 90 L 460 90 L 488 560 Z" fill="#12141c"/><path d="M 374.0 500 Q 430 476 478.0 466" fill="none" stroke="#d8b45a" stroke-width="5" opacity="0.85"/><path d="M 381.5 434 Q 430 410 470.5 400" fill="none" stroke="#d8b45a" stroke-width="5" opacity="0.85"/><path d="M 389.0 368 Q 430 344 463.0 334" fill="none" stroke="#d8b45a" stroke-width="5" opacity="0.85"/><path d="M 396.5 302 Q 430 278 455.5 268" fill="none" stroke="#d8b45a" stroke-width="5" opacity="0.85"/><path d="M 404.0 236 Q 430 212 448.0 202" fill="none" stroke="#d8b45a" stroke-width="5" opacity="0.85"/><path d="M 411.5 170 Q 430 146 440.5 136" fill="none" stroke="#d8b45a" stroke-width="5" opacity="0.85"/><rect x="414" y="56" width="32" height="34" fill="#12141c"/>
<rect x="0" y="560" width="1200" height="140" fill="#0c0e14"/>

<rect x="0" y="556" width="1200" height="4" fill="#d8b45a" opacity="0.55"/>
</svg>