<svg xmlns="http://www.w3.org/2000/svg" viewBox="0 0 1200 700" role="img">
<defs>
<linearGradient id="sky" x1="0" y1="0" x2="0" y2="1">
<stop offset="0" stop-color="#0a1026"/><stop offset="0.62" stop-color="#152046"/><stop offset="1" stop-color="#2b3a6b"/>
</linearGradient>
<pattern id="g1" width="120" height="120" patternUnits="userSpaceOnUse"><polygon points="111.6,60.0 80.0,68.3 96.5,96.5 68.3,80.0 60.0,111.6 51.7,80.0 23.5,96.5 40.0,68.3 8.4,60.0 40.0,51.7 23.5,23.5 51.7,40.0 60.0,8.4 68.3,40.0 96.5,23.5 80.0,51.7" fill="none" stroke="#e8d9a8" stroke-width="1.6" opacity="0.1"/><rect x="17.4" y="17.4" width="85.2" height="85.2" fill="none" stroke="#e8d9a8" stroke-width="1.6" opacity="0.06999999999999999" transform="rotate(45 60.0 60.0)"/></pattern>
</defs>
<rect width="1200" height="700" fill="url(#sky)"/>
<rect width="1200" height="700" fill="url(#g1)"/>
<circle cx="423" cy="193" r="1.3" fill="#f7ecd2" opacity="0.74"/><circle cx="1057" cy="186" r="1.3" fill="#f7ecd2" opacity="0.37"/><circle cx="676" cy="334" r="1.8" fill="#f7ecd2" opacity="0.69"/><circle cx="600" cy="77" r="1.8" fill="#f7ecd2" opacity="0.35"/><circle cx="1189" cy="35" r="0.8" fill="#f7ecd2" opacity="0.50"/><circle cx="1123" cy="88" r="1.8" fill="#f7ecd2" opacity="0.59"/><circle cx="42" cy="296" r="1.8" fill="#f7ecd2" opacity="0.67"/><circle cx="466" cy="239" r="0.8" fill="#f7ecd2" opacity="0.59"/><circle cx="355" cy="257" r="0.8" fill="#f7ecd2" opacity="0.70"/><circle cx="789" cy="170" r="1.8" fill="#f7ecd2" opacity="0.65"/><circle cx="208" cy="238" r="1.8" fill="#f7ecd2" opacity="0.39"/><circle cx="1132" cy="41" r="0.8" fill="#f7ecd2" opacity="0.47"/><circle cx="321" cy="119" r="1.8" fill="#f7ecd2" opacity="0.84"/><circle cx="55" cy="92" r="0.8" fill="#f7ecd2" opacity="0.45"/><circle cx="1174" cy="160" r="1.8" fill="#f7ecd2" opacity="0.75"/><circle cx="198" cy="223" r="1.3" fill="#f7ecd2" opacity="0.39"/><circle cx="1087" cy="301" r="1.8" fill="#f7ecd2" opacity="0.72"/><circle cx="121" cy="334" r="1.8" fill="#f7ecd2" opacity="0.49"/><circle cx="540" cy="122" r="1.8" fill="#f7ecd2" opacity="0.65"/><circle cx="64" cy="45" r="1.3" fill="#f7ecd2" opacity="0.65"/><circle cx="253" cy="183" r="1.3" fill="#f7ecd2" opacity="0.84"/><circle cx="987" cy="216" r="0.8" fill="#f7ecd2" opacity="0.77"/><circle cx="706" cy="64" r="1.8" fill="#f7ecd2" opacity="0.69"/><circle cx="730" cy="187" r="1.8" fill="#f7ecd2" opacity="0.45"/><circle cx="219" cy="45" r="0.8" fill="#f7ecd2" opacity="0.40"/><circle cx="253" cy="138" r="1.3" fill="#f7ecd2" opacity="0.49"/><circle cx="472" cy="186" r="1.3" fill="#f7ecd2" opacity="0.77"/><circle cx="996" cy="169" r="1.3" fill="#f7ecd2" opacity="0.59"/><circle cx="985" cy="227" r="0.8" fill="#f7ecd2" opacity="0.80"/><circle cx="319" cy="40" r="1.8" fill="#f7ecd2" opacity="0.45"/><circle cx="1038" cy="288" r="0.8" fill="#f7ecd2" opacity="0.79"/><circle cx="862" cy="331" r="1.8" fill="#f7ecd2" opacity="0.57"/><circle cx="151" cy="109" r="1.8" fill="#f7ecd2" opacity="0.44"/><circle cx="1185" cy="262" r="1.3" fill="#f7ecd2" opacity="0.55"/><circle cx="4" cy="90" r="1.3" fill="#f7ecd2" opacity="0.45"/><circle cx="328" cy="333" r="1.3" fill="#f7ecd2" opacity="0.59"/><circle cx="117" cy="311" r="1.8" fill="#f7ecd2" opacity="0.72"/><circle cx="451" cy="184" r="1.8" fill="#f7ecd2" opacity="0.69"/><circle cx="970" cy="12" r="1.3" fill="#f7ecd2" opacity="0.75"/><circle cx="594" cy="315" r="0.8" fill="#f7ecd2" opacity="0.45"/><circle cx="883" cy="153" r="1.3" fill="#f7ecd2" opacity="0.84"/><circle cx="517" cy="86" r="0.8" fill="#f7ecd2" opacity="0.47"/><circle cx="336" cy="314" r="1.8" fill="#f7ecd2" opacity="0.39"/><circle cx="460" cy="137" r="0.8" fill="#f7ecd2" opacity="0.55"/><circle cx="49" cy="35" r="0.8" fill="#f7ecd2" opacity="0.50"/><circle cx="183" cy="168" r="0.8" fill="#f7ecd2" opacity="0.79"/><circle cx="502" cy="256" r="1.8" fill="#f7ecd2" opacity="0.47"/><circle cx="1126" cy="279" r="1.3" fill="#f7ecd2" opacity="0.39"/><circle cx="15" cy="237" r="0.8" fill="#f7ecd2" opacity="0.40"/><circle cx="649" cy="230" r="0.8" fill="#f7ecd2" opacity="0.55"/><circle cx="268" cy="38" r="0.8" fill="#f7ecd2" opacity="0.69"/><circle cx="192" cy="121" r="1.3" fill="#f7ecd2" opacity="0.67"/><circle cx="781" cy="79" r="1.8" fill="#f7ecd2" opacity="0.84"/><circle cx="715" cy="132" r="1.3" fill="#f7ecd2" opacity="0.65"/><circle cx="834" cy="140" r="1.8" fill="#f7ecd2" opacity="0.45"/><circle cx="58" cy="283" r="1.8" fill="#f7ecd2" opacity="0.49"/><circle cx="1147" cy="101" r="0.8" fill="#f7ecd2" opacity="0.82"/><circle cx="381" cy="214" r="1.3" fill="#f7ecd2" opacity="0.69"/><circle cx="1000" cy="82" r="1.8" fill="#f7ecd2" opacity="0.35"/><circle cx="724" cy="85" r="1.8" fill="#f7ecd2" opacity="0.75"/><circle cx="980" cy="120" r="42" fill="#f6ecd0" opacity="0.95"/><circle cx="996" cy="112" r="36" fill="url(#sky)" opacity="0.92"/>
<rect x="280" y="390" width="640" height="170" fill="#12141c"/><path d="M 306 390 l 22 -26 l 22 26 Z" fill="#12141c"/><path d="M 382 390 l 22 -26 l 22 26 Z" fill="#12141c"/><path d="M 458 390 l 22 -26 l 22 26 Z" fill="#12141c"/><path d="M 534 390 l 22 -26 l 22 26 Z" fill="#12141c"/><path d="M 610 390 l 22 -26 l 22 26 Z" fill="#12141c"/><path d="M 686 390 l 22 -26 l 22 26 Z" fill="#12141c"/><path d="M 762 390 l 22 -26 l 22 26 Z" fill="#12141c"/><path d="M 838 390 l 22 -26 l 22 26 Z" fill="#12141c"/><path d="M 680 390 C 680 313.5, 716.0 300, 760 300 C 804.0 300, 840 313.5, 840 390 Z" fill="#caa96a"/><line x1="760" y1="300" x2="760" y2="278" stroke="#d8b45a" stroke-width="3"/><circle cx="760" cy="274" r="4.5" fill="#d8b45a"/><path d="M 760 260 a 8 8 0 1 0 6 13 a 6.4 6.4 0 1 1 -6 -13 Z" fill="#d8b45a"/><path d="M 372 560 L 400 90 L 460 90 L 488 560 Z" fill="#12141c"/><path d="M 374.0 500 Q 430 476 478.0 466" fill="none" stroke="#d8b45a" stroke-width="5" opacity="0.85"/><path d="M 381.5 434 Q 430 410 470.5 400" fill="none" stroke="#d8b45a" stroke-width="5" opacity="0.85"/><path d="M 389.0 368 Q 430 344 463.0 334" fill="none" stroke="#d8b45a" stroke-width="5" opacity="0.85"/><path d="M 396.5 302 Q 430 278 455.5 268" fill="none" stroke="#d8b45a" stroke-width="5" opacity="0.85"/><path d="M 404.0 236 Q 430 212 448.0 202" fill="none" stroke="#d8b45a" stroke-width="5" opacity="0.85"/><path d="M 411.5 170 Q 430 146 440.5 136" fill="none" stroke="#d8b45a" stroke-width="5" opacity="0.85"/><rect x="414" y="56" width="32" height="34" fill="#12141c"/>
<rect x="0" y="560" width="1200" height="140" fill="#0c0e14"/>

<rect x="0" y="556" width="1200" height="4" fill="#d8b45a" opacity="0.55"/>
</svg>