<svg xmlns="http://www.w3.org/2000/svg" viewBox="0 0 1200 700" role="img">
<defs>
<linearGradient id="sky" x1="0" y1="0" x2="0" y2="1">
<stop offset="0" stop-color="#0a1026"/><stop offset="0.62" stop-color="#152046"/><stop offset="1" stop-color="#2b3a6b"/>
</linearGradient>
<pattern id="g1" width="120" height="120" patternUnits="userSpaceOnUse"><polygon points="111.6,60.0 80.0,68.3 96.5,96.5 68.3,80.0 60.0,111.6 51.7,80.0 23.5,96.5 40.0,68.3 8.4,60.0 40.0,51.7 23.5,23.5 51.7,40.0 60.0,8.4 68.3,40.0 96.5,23.5 80.0,51.7" fill="none" stroke="#e8d9a8" stroke-width="1.6" opacity="0.1"/><rect x="17.4" y="17.4" width="85.2" height="85.2" fill="none" stroke="#e8d9a8" stroke-width="1.6" opacity="0.06999999999999999" transform="rotate(45 60.0 60.0)"/></pattern>
</defs>
<rect width="1200" height="700" fill="url(#sky)"/>
<rect width="1200" height="700" fill="url(#g1)"/>
<circle cx="392" cy="252" r="1.8" fill="#f7ecd2" opacity="0.69"/><circle cx="1194" cy="13" r="1.3" fill="#f7ecd2" opacity="0.57"/><circle cx="1077" cy="185" r="1.8" fill="#f7ecd2" opacity="0.80"/><circle cx="1073" cy="120" r="1.8" fill="#f7ecd2" opacity="0.45"/><circle cx="918" cy="134" r="1.8" fill="#f7ecd2" opacity="0.47"/><circle cx="540" cy="35" r="1.8" fill="#f7ecd2" opacity="0.35"/><circle cx="683" cy="107" r="1.3" fill="#f7ecd2" opacity="0.66"/><circle cx="459" cy="22" r="1.3" fill="#f7ecd2" opacity="0.83"/><circle cx="1044" cy="196" r="1.3" fill="#f7ecd2" opacity="0.59"/><circle cx="686" cy="37" r="0.8" fill="#f7ecd2" opacity="0.67"/><circle cx="1089" cy="9" r="0.8" fill="#f7ecd2" opacity="0.36"/><circle cx="645" cy="244" r="1.3" fill="#f7ecd2" opacity="0.65"/><circle cx="770" cy="98" r="1.3" fill="#f7ecd2" opacity="0.45"/><circle cx="432" cy="219" r="0.8" fill="#f7ecd2" opacity="0.43"/><circle cx="1095" cy="91" r="1.3" fill="#f7ecd2" opacity="0.80"/><circle cx="431" cy="306" r="1.8" fill="#f7ecd2" opacity="0.71"/><circle cx="96" cy="180" r="0.8" fill="#f7ecd2" opacity="0.65"/><circle cx="978" cy="41" r="1.8" fill="#f7ecd2" opacity="0.83"/><circle cx="701" cy="13" r="0.8" fill="#f7ecd2" opacity="0.48"/><circle cx="1017" cy="8" r="1.8" fill="#f7ecd2" opacity="0.71"/><circle cx="222" cy="242" r="1.8" fill="#f7ecd2" opacity="0.59"/><circle cx="1124" cy="43" r="0.8" fill="#f7ecd2" opacity="0.67"/><circle cx="1107" cy="255" r="0.8" fill="#f7ecd2" opacity="0.70"/><circle cx="3" cy="90" r="0.8" fill="#f7ecd2" opacity="0.55"/><circle cx="1148" cy="284" r="1.3" fill="#f7ecd2" opacity="0.67"/><circle cx="870" cy="225" r="0.8" fill="#f7ecd2" opacity="0.35"/><circle cx="1113" cy="337" r="1.3" fill="#f7ecd2" opacity="0.66"/><circle cx="989" cy="292" r="0.8" fill="#f7ecd2" opacity="0.73"/><circle cx="474" cy="26" r="1.8" fill="#f7ecd2" opacity="0.59"/><circle cx="216" cy="247" r="1.3" fill="#f7ecd2" opacity="0.37"/><circle cx="719" cy="259" r="0.8" fill="#f7ecd2" opacity="0.56"/><circle cx="375" cy="194" r="1.8" fill="#f7ecd2" opacity="0.35"/><circle cx="600" cy="88" r="1.3" fill="#f7ecd2" opacity="0.35"/><circle cx="362" cy="249" r="1.8" fill="#f7ecd2" opacity="0.73"/><circle cx="1125" cy="161" r="1.8" fill="#f7ecd2" opacity="0.60"/><circle cx="561" cy="76" r="1.3" fill="#f7ecd2" opacity="0.71"/><circle cx="326" cy="330" r="1.8" fill="#f7ecd2" opacity="0.65"/><circle cx="108" cy="91" r="1.3" fill="#f7ecd2" opacity="0.63"/><circle cx="1131" cy="243" r="0.8" fill="#f7ecd2" opacity="0.68"/><circle cx="347" cy="138" r="1.8" fill="#f7ecd2" opacity="0.71"/><circle cx="852" cy="212" r="1.8" fill="#f7ecd2" opacity="0.59"/><circle cx="654" cy="253" r="1.3" fill="#f7ecd2" opacity="0.47"/><circle cx="737" cy="165" r="1.8" fill="#f7ecd2" opacity="0.40"/><circle cx="933" cy="180" r="0.8" fill="#f7ecd2" opacity="0.75"/><circle cx="978" cy="274" r="1.3" fill="#f7ecd2" opacity="0.57"/><circle cx="800" cy="255" r="1.8" fill="#f7ecd2" opacity="0.35"/><circle cx="1143" cy="67" r="1.3" fill="#f7ecd2" opacity="0.66"/><circle cx="1119" cy="62" r="1.8" fill="#f7ecd2" opacity="0.63"/><circle cx="704" cy="176" r="1.3" fill="#f7ecd2" opacity="0.39"/><circle cx="546" cy="97" r="1.3" fill="#f7ecd2" opacity="0.47"/><circle cx="1149" cy="149" r="1.8" fill="#f7ecd2" opacity="0.36"/><circle cx="905" cy="124" r="0.8" fill="#f7ecd2" opacity="0.55"/><circle cx="30" cy="258" r="0.8" fill="#f7ecd2" opacity="0.75"/><circle cx="1092" cy="259" r="1.3" fill="#f7ecd2" opacity="0.63"/><circle cx="755" cy="71" r="1.3" fill="#f7ecd2" opacity="0.40"/><circle cx="291" cy="26" r="1.8" fill="#f7ecd2" opacity="0.51"/><circle cx="156" cy="320" r="1.8" fill="#f7ecd2" opacity="0.55"/><circle cx="38" cy="121" r="0.8" fill="#f7ecd2" opacity="0.83"/><circle cx="1161" cy="313" r="1.3" fill="#f7ecd2" opacity="0.78"/><circle cx="477" cy="248" r="1.8" fill="#f7ecd2" opacity="0.81"/><circle cx="980" cy="120" r="42" fill="#f6ecd0" opacity="0.95"/><circle cx="996" cy="112" r="36" fill="url(#sky)" opacity="0.92"/>
<rect x="280" y="390" width="640" height="170" fill="#12141c"/><path d="M 306 390 l 22 -26 l 22 26 Z" fill="#12141c"/><path d="M 382 390 l 22 -26 l 22 26 Z" fill="#12141c"/><path d="M 458 390 l 22 -26 l 22 26 Z" fill="#12141c"/><path d="M 534 390 l 22 -26 l 22 26 Z" fill="#12141c"/><path d="M 610 390 l 22 -26 l 22 26 Z" fill="#12141c"/><path d="M 686 390 l 22 -26 l 22 26 Z" fill="#12141c"/><path d="M 762 390 l 22 -26 l 22 26 Z" fill="#12141c"/><path d="M 838 390 l 22 -26 l 22 26 Z" fill="#12141c"/><path d="M 680 390 C 680 313.5, 716.0 300, 760 300 C 804.0 300, 840 313.5, 840 390 Z" fill="#caa96a"/><line x1="760" y1="300" x2="760" y2="278" stroke="#d8b45a" stroke-width="3"/><circle cx="760" cy="274" r="4.5" fill="#d8b45a"/><path d="M 760 260 a 8 8 0 1 0 6 13 a 6.4 6.4 0 1 1 -6 -13 Z" fill="#d8b45a"/><path d="M 372 560 L 400 90 L 460 90 L 488 560 Z" fill="#12141c"/><path d="M 374.0 500 Q 430 476 478.0 466" fill="none" stroke="#d8b45a" stroke-width="5" opacity="0.85"/><path d="M 381.5 434 Q 430 410 470.5 400" fill="none" stroke="#d8b45a" stroke-width="5" opacity="0.85"/><path d="M 389.0 368 Q 430 344 463.0 334" fill="none" stroke="#d8b45a" stroke-width="5" opacity="0.85"/><path d="M 396.5 302 Q 430 278 455.5 268" fill="none" stroke="#d8b45a" stroke-width="5" opacity="0.85"/><path d="M 404.0 236 Q 430 212 448.0 202" fill="none" stroke="#d8b45a" stroke-width="5" opacity="0.85"/><path d="M 411.5 170 Q 430 146 440.5 136" fill="none" stroke="#d8b45a" stroke-width="5" opacity="0.85"/><rect x="414" y="56" width="32" height="34" fill="#12141c"/>
<rect x="0" y="560" width="1200" height="140" fill="#0c0e14"/>

<rect x="0" y="556" width="1200" height="4" fill="#d8b45a" opacity="0.55"/>
</svg>