<svg xmlns="http://www.w3.org/2000/svg" viewBox="0 0 1200 700" role="img">
<defs>
<linearGradient id="sky" x1="0" y1="0" x2="0" y2="1">
<stop offset="0" stop-color="#0a1026"/><stop offset="0.62" stop-color="#152046"/><stop offset="1" stop-color="#2b3a6b"/>
</linearGradient>
<pattern id="g1" width="120" height="120" patternUnits="userSpaceOnUse"><polygon points="111.6,60.0 80.0,68.3 96.5,96.5 68.3,80.0 60.0,111.6 51.7,80.0 23.5,96.5 40.0,68.3 8.4,60.0 40.0,51.7 23.5,23.5 51.7,40.0 60.0,8.4 68.3,40.0 96.5,23.5 80.0,51.7" fill="none" stroke="#e8d9a8" stroke-width="1.6" opacity="0.1"/><rect x="17.4" y="17.4" width="85.2" height="85.2" fill="none" stroke="#e8d9a8" stroke-width="1.6" opacity="0.06999999999999999" transform="rotate(45 60.0 60.0)"/></pattern>
</defs>
<rect width="1200" height="700" fill="url(#sky)"/>
<rect width="1200" height="700" fill="url(#g1)"/>
<circle cx="1117" cy="287" r="0.8" fill="#f7ecd2" opacity="0.64"/><circle cx="119" cy="8" r="1.3" fill="#f7ecd2" opacity="0.37"/><circle cx="602" cy="80" r="1.3" fill="#f7ecd2" opacity="0.45"/><circle cx="1198" cy="255" r="1.3" fill="#f7ecd2" opacity="0.75"/><circle cx="443" cy="29" r="1.3" fill="#f7ecd2" opacity="0.82"/><circle cx="665" cy="170" r="1.3" fill="#f7ecd2" opacity="0.35"/><circle cx="208" cy="2" r="0.8" fill="#f7ecd2" opacity="0.51"/><circle cx="584" cy="157" r="0.8" fill="#f7ecd2" opacity="0.73"/><circle cx="569" cy="91" r="0.8" fill="#f7ecd2" opacity="0.64"/><circle cx="811" cy="172" r="1.8" fill="#f7ecd2" opacity="0.77"/><circle cx="614" cy="244" r="0.8" fill="#f7ecd2" opacity="0.51"/><circle cx="770" cy="39" r="1.8" fill="#f7ecd2" opacity="0.65"/><circle cx="295" cy="333" r="1.3" fill="#f7ecd2" opacity="0.70"/><circle cx="557" cy="14" r="1.3" fill="#f7ecd2" opacity="0.83"/><circle cx="620" cy="326" r="1.3" fill="#f7ecd2" opacity="0.55"/><circle cx="556" cy="101" r="0.8" fill="#f7ecd2" opacity="0.41"/><circle cx="821" cy="215" r="1.3" fill="#f7ecd2" opacity="0.50"/><circle cx="1103" cy="176" r="1.3" fill="#f7ecd2" opacity="0.63"/><circle cx="226" cy="248" r="0.8" fill="#f7ecd2" opacity="0.83"/><circle cx="1142" cy="143" r="1.3" fill="#f7ecd2" opacity="0.41"/><circle cx="947" cy="277" r="0.8" fill="#f7ecd2" opacity="0.54"/><circle cx="49" cy="38" r="0.8" fill="#f7ecd2" opacity="0.47"/><circle cx="632" cy="150" r="1.8" fill="#f7ecd2" opacity="0.35"/><circle cx="128" cy="225" r="1.8" fill="#f7ecd2" opacity="0.35"/><circle cx="673" cy="179" r="0.8" fill="#f7ecd2" opacity="0.52"/><circle cx="995" cy="20" r="1.3" fill="#f7ecd2" opacity="0.35"/><circle cx="638" cy="232" r="0.8" fill="#f7ecd2" opacity="0.51"/><circle cx="1114" cy="87" r="1.3" fill="#f7ecd2" opacity="0.53"/><circle cx="1199" cy="61" r="0.8" fill="#f7ecd2" opacity="0.74"/><circle cx="341" cy="42" r="1.8" fill="#f7ecd2" opacity="0.57"/><circle cx="244" cy="154" r="1.8" fill="#f7ecd2" opacity="0.61"/><circle cx="500" cy="329" r="1.3" fill="#f7ecd2" opacity="0.35"/><circle cx="125" cy="323" r="1.3" fill="#f7ecd2" opacity="0.60"/><circle cx="487" cy="44" r="0.8" fill="#f7ecd2" opacity="0.63"/><circle cx="650" cy="56" r="1.3" fill="#f7ecd2" opacity="0.35"/><circle cx="686" cy="211" r="0.8" fill="#f7ecd2" opacity="0.81"/><circle cx="1051" cy="25" r="1.8" fill="#f7ecd2" opacity="0.60"/><circle cx="233" cy="226" r="0.8" fill="#f7ecd2" opacity="0.43"/><circle cx="656" cy="138" r="1.8" fill="#f7ecd2" opacity="0.63"/><circle cx="472" cy="273" r="1.3" fill="#f7ecd2" opacity="0.41"/><circle cx="377" cy="107" r="1.3" fill="#f7ecd2" opacity="0.74"/><circle cx="779" cy="48" r="1.8" fill="#f7ecd2" opacity="0.77"/><circle cx="262" cy="60" r="1.3" fill="#f7ecd2" opacity="0.55"/><circle cx="1058" cy="315" r="1.8" fill="#f7ecd2" opacity="0.55"/><circle cx="503" cy="169" r="0.8" fill="#f7ecd2" opacity="0.42"/><circle cx="925" cy="50" r="0.8" fill="#f7ecd2" opacity="0.35"/><circle cx="668" cy="302" r="1.3" fill="#f7ecd2" opacity="0.71"/><circle cx="44" cy="57" r="1.8" fill="#f7ecd2" opacity="0.43"/><circle cx="229" cy="71" r="0.8" fill="#f7ecd2" opacity="0.44"/><circle cx="671" cy="232" r="0.8" fill="#f7ecd2" opacity="0.57"/><circle cx="674" cy="44" r="1.3" fill="#f7ecd2" opacity="0.41"/><circle cx="1030" cy="259" r="1.8" fill="#f7ecd2" opacity="0.55"/><circle cx="755" cy="293" r="1.3" fill="#f7ecd2" opacity="0.50"/><circle cx="17" cy="254" r="1.3" fill="#f7ecd2" opacity="0.53"/><circle cx="280" cy="306" r="1.3" fill="#f7ecd2" opacity="0.65"/><circle cx="416" cy="161" r="1.3" fill="#f7ecd2" opacity="0.61"/><circle cx="881" cy="15" r="1.8" fill="#f7ecd2" opacity="0.50"/><circle cx="163" cy="256" r="1.8" fill="#f7ecd2" opacity="0.63"/><circle cx="686" cy="208" r="0.8" fill="#f7ecd2" opacity="0.73"/><circle cx="602" cy="43" r="0.8" fill="#f7ecd2" opacity="0.71"/><circle cx="980" cy="120" r="42" fill="#f6ecd0" opacity="0.95"/><circle cx="996" cy="112" r="36" fill="url(#sky)" opacity="0.92"/>
<rect x="280" y="390" width="640" height="170" fill="#12141c"/><path d="M 306 390 l 22 -26 l 22 26 Z" fill="#12141c"/><path d="M 382 390 l 22 -26 l 22 26 Z" fill="#12141c"/><path d="M 458 390 l 22 -26 l 22 26 Z" fill="#12141c"/><path d="M 534 390 l 22 -26 l 22 26 Z" fill="#12141c"/><path d="M 610 390 l 22 -26 l 22 26 Z" fill="#12141c"/><path d="M 686 390 l 22 -26 l 22 26 Z" fill="#12141c"/><path d="M 762 390 l 22 -26 l 22 26 Z" fill="#12141c"/><path d="M 838 390 l 22 -26 l 22 26 Z" fill="#12141c"/><path d="M 680 390 C 680 313.5, 716.0 300, 760 300 C 804.0 300, 840 313.5, 840 390 Z" fill="#caa96a"/><line x1="760" y1="300" x2="760" y2="278" stroke="#d8b45a" stroke-width="3"/><circle cx="760" cy="274" r="4.5" fill="#d8b45a"/><path d="M 760 260 a 8 8 0 1 0 6 13 a 6.4 6.4 0 1 1 -6 -13 Z" fill="#d8b45a"/><path d="M 372 560 L 400 90 L 460 90 L 488 560 Z" fill="#12141c"/><path d="M 374.0 500 Q 430 476 478.0 466" fill="none" stroke="#d8b45a" stroke-width="5" opacity="0.85"/><path d="M 381.5 434 Q 430 410 470.5 400" fill="none" stroke="#d8b45a" stroke-width="5" opacity="0.85"/><path d="M 389.0 368 Q 430 344 463.0 334" fill="none" stroke="#d8b45a" stroke-width="5" opacity="0.85"/><path d="M 396.5 302 Q 430 278 455.5 268" fill="none" stroke="#d8b45a" stroke-width="5" opacity="0.85"/><path d="M 404.0 236 Q 430 212 448.0 202" fill="none" stroke="#d8b45a" stroke-width="5" opacity="0.85"/><path d="M 411.5 170 Q 430 146 440.5 136" fill="none" stroke="#d8b45a" stroke-width="5" opacity="0.85"/><rect x="414" y="56" width="32" height="34" fill="#12141c"/>
<rect x="0" y="560" width="1200" height="140" fill="#0c0e14"/>

<rect x="0" y="556" width="1200" height="4" fill="#d8b45a" opacity="0.55"/>
</svg>