<svg xmlns="http://www.w3.org/2000/svg" viewBox="0 0 1200 700" role="img">
<defs>
<linearGradient id="sky" x1="0" y1="0" x2="0" y2="1">
<stop offset="0" stop-color="#0a1026"/><stop offset="0.62" stop-color="#152046"/><stop offset="1" stop-color="#2b3a6b"/>
</linearGradient>
<pattern id="g1" width="120" height="120" patternUnits="userSpaceOnUse"><polygon points="111.6,60.0 80.0,68.3 96.5,96.5 68.3,80.0 60.0,111.6 51.7,80.0 23.5,96.5 40.0,68.3 8.4,60.0 40.0,51.7 23.5,23.5 51.7,40.0 60.0,8.4 68.3,40.0 96.5,23.5 80.0,51.7" fill="none" stroke="#e8d9a8" stroke-width="1.6" opacity="0.1"/><rect x="17.4" y="17.4" width="85.2" height="85.2" fill="none" stroke="#e8d9a8" stroke-width="1.6" opacity="0.06999999999999999" transform="rotate(45 60.0 60.0)"/></pattern>
</defs>
<rect width="1200" height="700" fill="url(#sky)"/>
<rect width="1200" height="700" fill="url(#g1)"/>
<circle cx="1132" cy="72" r="1.3" fill="#f7ecd2" opacity="0.39"/><circle cx="14" cy="153" r="1.8" fill="#f7ecd2" opacity="0.77"/><circle cx="137" cy="285" r="1.8" fill="#f7ecd2" opacity="0.80"/><circle cx="853" cy="100" r="1.8" fill="#f7ecd2" opacity="0.35"/><circle cx="458" cy="154" r="0.8" fill="#f7ecd2" opacity="0.67"/><circle cx="560" cy="315" r="1.8" fill="#f7ecd2" opacity="0.35"/><circle cx="943" cy="7" r="1.8" fill="#f7ecd2" opacity="0.36"/><circle cx="239" cy="2" r="1.3" fill="#f7ecd2" opacity="0.63"/><circle cx="584" cy="216" r="1.8" fill="#f7ecd2" opacity="0.79"/><circle cx="706" cy="317" r="0.8" fill="#f7ecd2" opacity="0.37"/><circle cx="149" cy="109" r="0.8" fill="#f7ecd2" opacity="0.76"/><circle cx="425" cy="224" r="1.3" fill="#f7ecd2" opacity="0.35"/><circle cx="310" cy="118" r="1.8" fill="#f7ecd2" opacity="0.65"/><circle cx="452" cy="159" r="1.8" fill="#f7ecd2" opacity="0.53"/><circle cx="155" cy="191" r="1.3" fill="#f7ecd2" opacity="0.40"/><circle cx="211" cy="286" r="1.8" fill="#f7ecd2" opacity="0.81"/><circle cx="836" cy="0" r="1.8" fill="#f7ecd2" opacity="0.35"/><circle cx="998" cy="321" r="1.8" fill="#f7ecd2" opacity="0.43"/><circle cx="961" cy="253" r="1.8" fill="#f7ecd2" opacity="0.68"/><circle cx="797" cy="328" r="0.8" fill="#f7ecd2" opacity="0.51"/><circle cx="962" cy="62" r="1.3" fill="#f7ecd2" opacity="0.79"/><circle cx="1144" cy="323" r="0.8" fill="#f7ecd2" opacity="0.47"/><circle cx="167" cy="15" r="1.8" fill="#f7ecd2" opacity="0.40"/><circle cx="983" cy="210" r="1.8" fill="#f7ecd2" opacity="0.65"/><circle cx="688" cy="304" r="1.8" fill="#f7ecd2" opacity="0.37"/><circle cx="890" cy="165" r="1.8" fill="#f7ecd2" opacity="0.35"/><circle cx="173" cy="97" r="0.8" fill="#f7ecd2" opacity="0.66"/><circle cx="769" cy="272" r="0.8" fill="#f7ecd2" opacity="0.53"/><circle cx="14" cy="46" r="0.8" fill="#f7ecd2" opacity="0.79"/><circle cx="236" cy="187" r="0.8" fill="#f7ecd2" opacity="0.67"/><circle cx="979" cy="159" r="1.3" fill="#f7ecd2" opacity="0.46"/><circle cx="155" cy="174" r="1.8" fill="#f7ecd2" opacity="0.55"/><circle cx="140" cy="108" r="1.8" fill="#f7ecd2" opacity="0.55"/><circle cx="382" cy="189" r="1.3" fill="#f7ecd2" opacity="0.83"/><circle cx="185" cy="261" r="1.8" fill="#f7ecd2" opacity="0.70"/><circle cx="341" cy="56" r="1.3" fill="#f7ecd2" opacity="0.81"/><circle cx="1066" cy="150" r="1.3" fill="#f7ecd2" opacity="0.35"/><circle cx="128" cy="31" r="0.8" fill="#f7ecd2" opacity="0.53"/><circle cx="191" cy="3" r="1.8" fill="#f7ecd2" opacity="0.58"/><circle cx="127" cy="118" r="1.8" fill="#f7ecd2" opacity="0.71"/><circle cx="392" cy="232" r="0.8" fill="#f7ecd2" opacity="0.79"/><circle cx="674" cy="193" r="0.8" fill="#f7ecd2" opacity="0.67"/><circle cx="997" cy="65" r="0.8" fill="#f7ecd2" opacity="0.40"/><circle cx="713" cy="160" r="0.8" fill="#f7ecd2" opacity="0.65"/><circle cx="518" cy="294" r="1.8" fill="#f7ecd2" opacity="0.77"/><circle cx="820" cy="195" r="1.3" fill="#f7ecd2" opacity="0.35"/><circle cx="203" cy="167" r="1.3" fill="#f7ecd2" opacity="0.36"/><circle cx="899" cy="42" r="1.8" fill="#f7ecd2" opacity="0.43"/><circle cx="244" cy="196" r="1.8" fill="#f7ecd2" opacity="0.59"/><circle cx="566" cy="37" r="0.8" fill="#f7ecd2" opacity="0.77"/><circle cx="209" cy="249" r="1.8" fill="#f7ecd2" opacity="0.76"/><circle cx="685" cy="104" r="0.8" fill="#f7ecd2" opacity="0.75"/><circle cx="770" cy="78" r="1.8" fill="#f7ecd2" opacity="0.45"/><circle cx="1112" cy="199" r="0.8" fill="#f7ecd2" opacity="0.73"/><circle cx="1015" cy="311" r="0.8" fill="#f7ecd2" opacity="0.50"/><circle cx="71" cy="6" r="1.8" fill="#f7ecd2" opacity="0.61"/><circle cx="896" cy="140" r="1.3" fill="#f7ecd2" opacity="0.75"/><circle cx="58" cy="61" r="1.8" fill="#f7ecd2" opacity="0.73"/><circle cx="221" cy="73" r="0.8" fill="#f7ecd2" opacity="0.68"/><circle cx="257" cy="228" r="1.8" fill="#f7ecd2" opacity="0.81"/><circle cx="980" cy="120" r="42" fill="#f6ecd0" opacity="0.95"/><circle cx="996" cy="112" r="36" fill="url(#sky)" opacity="0.92"/>
<rect x="280" y="390" width="640" height="170" fill="#12141c"/><path d="M 306 390 l 22 -26 l 22 26 Z" fill="#12141c"/><path d="M 382 390 l 22 -26 l 22 26 Z" fill="#12141c"/><path d="M 458 390 l 22 -26 l 22 26 Z" fill="#12141c"/><path d="M 534 390 l 22 -26 l 22 26 Z" fill="#12141c"/><path d="M 610 390 l 22 -26 l 22 26 Z" fill="#12141c"/><path d="M 686 390 l 22 -26 l 22 26 Z" fill="#12141c"/><path d="M 762 390 l 22 -26 l 22 26 Z" fill="#12141c"/><path d="M 838 390 l 22 -26 l 22 26 Z" fill="#12141c"/><path d="M 680 390 C 680 313.5, 716.0 300, 760 300 C 804.0 300, 840 313.5, 840 390 Z" fill="#caa96a"/><line x1="760" y1="300" x2="760" y2="278" stroke="#d8b45a" stroke-width="3"/><circle cx="760" cy="274" r="4.5" fill="#d8b45a"/><path d="M 760 260 a 8 8 0 1 0 6 13 a 6.4 6.4 0 1 1 -6 -13 Z" fill="#d8b45a"/><path d="M 372 560 L 400 90 L 460 90 L 488 560 Z" fill="#12141c"/><path d="M 374.0 500 Q 430 476 478.0 466" fill="none" stroke="#d8b45a" stroke-width="5" opacity="0.85"/><path d="M 381.5 434 Q 430 410 470.5 400" fill="none" stroke="#d8b45a" stroke-width="5" opacity="0.85"/><path d="M 389.0 368 Q 430 344 463.0 334" fill="none" stroke="#d8b45a" stroke-width="5" opacity="0.85"/><path d="M 396.5 302 Q 430 278 455.5 268" fill="none" stroke="#d8b45a" stroke-width="5" opacity="0.85"/><path d="M 404.0 236 Q 430 212 448.0 202" fill="none" stroke="#d8b45a" stroke-width="5" opacity="0.85"/><path d="M 411.5 170 Q 430 146 440.5 136" fill="none" stroke="#d8b45a" stroke-width="5" opacity="0.85"/><rect x="414" y="56" width="32" height="34" fill="#12141c"/>
<rect x="0" y="560" width="1200" height="140" fill="#0c0e14"/>

<rect x="0" y="556" width="1200" height="4" fill="#d8b45a" opacity="0.55"/>
</svg>