<svg xmlns="http://www.w3.org/2000/svg" viewBox="0 0 1200 700" role="img">
<defs>
<linearGradient id="sky" x1="0" y1="0" x2="0" y2="1">
<stop offset="0" stop-color="#0a1026"/><stop offset="0.62" stop-color="#152046"/><stop offset="1" stop-color="#2b3a6b"/>
</linearGradient>
<pattern id="g1" width="120" height="120" patternUnits="userSpaceOnUse"><polygon points="111.6,60.0 80.0,68.3 96.5,96.5 68.3,80.0 60.0,111.6 51.7,80.0 23.5,96.5 40.0,68.3 8.4,60.0 40.0,51.7 23.5,23.5 51.7,40.0 60.0,8.4 68.3,40.0 96.5,23.5 80.0,51.7" fill="none" stroke="#e8d9a8" stroke-width="1.6" opacity="0.1"/><rect x="17.4" y="17.4" width="85.2" height="85.2" fill="none" stroke="#e8d9a8" stroke-width="1.6" opacity="0.06999999999999999" transform="rotate(45 60.0 60.0)"/></pattern>
</defs>
<rect width="1200" height="700" fill="url(#sky)"/>
<rect width="1200" height="700" fill="url(#g1)"/>
<circle cx="877" cy="327" r="1.3" fill="#f7ecd2" opacity="0.64"/><circle cx="599" cy="268" r="0.8" fill="#f7ecd2" opacity="0.67"/><circle cx="842" cy="40" r="0.8" fill="#f7ecd2" opacity="0.65"/><circle cx="718" cy="335" r="0.8" fill="#f7ecd2" opacity="0.65"/><circle cx="203" cy="69" r="1.8" fill="#f7ecd2" opacity="0.42"/><circle cx="1145" cy="90" r="1.8" fill="#f7ecd2" opacity="0.35"/><circle cx="448" cy="302" r="0.8" fill="#f7ecd2" opacity="0.81"/><circle cx="104" cy="237" r="1.8" fill="#f7ecd2" opacity="0.83"/><circle cx="329" cy="131" r="1.3" fill="#f7ecd2" opacity="0.84"/><circle cx="91" cy="292" r="1.8" fill="#f7ecd2" opacity="0.57"/><circle cx="854" cy="204" r="1.8" fill="#f7ecd2" opacity="0.51"/><circle cx="290" cy="119" r="1.3" fill="#f7ecd2" opacity="0.45"/><circle cx="55" cy="33" r="1.3" fill="#f7ecd2" opacity="0.50"/><circle cx="1037" cy="274" r="0.8" fill="#f7ecd2" opacity="0.73"/><circle cx="860" cy="286" r="0.8" fill="#f7ecd2" opacity="0.45"/><circle cx="76" cy="181" r="1.8" fill="#f7ecd2" opacity="0.41"/><circle cx="581" cy="255" r="1.8" fill="#f7ecd2" opacity="0.40"/><circle cx="383" cy="296" r="1.3" fill="#f7ecd2" opacity="0.53"/><circle cx="466" cy="208" r="1.8" fill="#f7ecd2" opacity="0.63"/><circle cx="662" cy="223" r="0.8" fill="#f7ecd2" opacity="0.61"/><circle cx="707" cy="317" r="1.3" fill="#f7ecd2" opacity="0.54"/><circle cx="529" cy="298" r="1.8" fill="#f7ecd2" opacity="0.77"/><circle cx="872" cy="110" r="1.3" fill="#f7ecd2" opacity="0.55"/><circle cx="848" cy="105" r="1.8" fill="#f7ecd2" opacity="0.75"/><circle cx="433" cy="219" r="1.3" fill="#f7ecd2" opacity="0.62"/><circle cx="275" cy="140" r="1.3" fill="#f7ecd2" opacity="0.35"/><circle cx="878" cy="192" r="1.8" fill="#f7ecd2" opacity="0.61"/><circle cx="634" cy="167" r="0.8" fill="#f7ecd2" opacity="0.63"/><circle cx="959" cy="101" r="1.3" fill="#f7ecd2" opacity="0.44"/><circle cx="821" cy="302" r="1.3" fill="#f7ecd2" opacity="0.77"/><circle cx="484" cy="114" r="1.3" fill="#f7ecd2" opacity="0.61"/><circle cx="20" cy="69" r="1.8" fill="#f7ecd2" opacity="0.65"/><circle cx="1085" cy="163" r="0.8" fill="#f7ecd2" opacity="0.40"/><circle cx="967" cy="304" r="1.8" fill="#f7ecd2" opacity="0.53"/><circle cx="890" cy="16" r="0.8" fill="#f7ecd2" opacity="0.75"/><circle cx="206" cy="291" r="1.8" fill="#f7ecd2" opacity="0.81"/><circle cx="811" cy="65" r="0.8" fill="#f7ecd2" opacity="0.50"/><circle cx="713" cy="146" r="1.3" fill="#f7ecd2" opacity="0.83"/><circle cx="896" cy="98" r="1.3" fill="#f7ecd2" opacity="0.43"/><circle cx="1192" cy="153" r="1.3" fill="#f7ecd2" opacity="0.61"/><circle cx="137" cy="147" r="1.8" fill="#f7ecd2" opacity="0.74"/><circle cx="59" cy="168" r="1.8" fill="#f7ecd2" opacity="0.47"/><circle cx="502" cy="20" r="0.8" fill="#f7ecd2" opacity="0.75"/><circle cx="578" cy="55" r="0.8" fill="#f7ecd2" opacity="0.75"/><circle cx="263" cy="209" r="1.3" fill="#f7ecd2" opacity="0.52"/><circle cx="205" cy="170" r="0.8" fill="#f7ecd2" opacity="0.35"/><circle cx="908" cy="262" r="0.8" fill="#f7ecd2" opacity="0.81"/><circle cx="764" cy="277" r="0.8" fill="#f7ecd2" opacity="0.63"/><circle cx="1189" cy="251" r="0.8" fill="#f7ecd2" opacity="0.74"/><circle cx="1151" cy="152" r="1.3" fill="#f7ecd2" opacity="0.37"/><circle cx="914" cy="4" r="0.8" fill="#f7ecd2" opacity="0.41"/><circle cx="550" cy="339" r="1.3" fill="#f7ecd2" opacity="0.35"/><circle cx="515" cy="333" r="1.8" fill="#f7ecd2" opacity="0.80"/><circle cx="497" cy="174" r="1.8" fill="#f7ecd2" opacity="0.63"/><circle cx="520" cy="266" r="0.8" fill="#f7ecd2" opacity="0.55"/><circle cx="1136" cy="41" r="1.3" fill="#f7ecd2" opacity="0.61"/><circle cx="641" cy="55" r="0.8" fill="#f7ecd2" opacity="0.40"/><circle cx="643" cy="176" r="0.8" fill="#f7ecd2" opacity="0.53"/><circle cx="926" cy="168" r="1.8" fill="#f7ecd2" opacity="0.53"/><circle cx="122" cy="123" r="1.8" fill="#f7ecd2" opacity="0.41"/><circle cx="980" cy="120" r="42" fill="#f6ecd0" opacity="0.95"/><circle cx="996" cy="112" r="36" fill="url(#sky)" opacity="0.92"/>
<rect x="280" y="390" width="640" height="170" fill="#12141c"/><path d="M 306 390 l 22 -26 l 22 26 Z" fill="#12141c"/><path d="M 382 390 l 22 -26 l 22 26 Z" fill="#12141c"/><path d="M 458 390 l 22 -26 l 22 26 Z" fill="#12141c"/><path d="M 534 390 l 22 -26 l 22 26 Z" fill="#12141c"/><path d="M 610 390 l 22 -26 l 22 26 Z" fill="#12141c"/><path d="M 686 390 l 22 -26 l 22 26 Z" fill="#12141c"/><path d="M 762 390 l 22 -26 l 22 26 Z" fill="#12141c"/><path d="M 838 390 l 22 -26 l 22 26 Z" fill="#12141c"/><path d="M 680 390 C 680 313.5, 716.0 300, 760 300 C 804.0 300, 840 313.5, 840 390 Z" fill="#caa96a"/><line x1="760" y1="300" x2="760" y2="278" stroke="#d8b45a" stroke-width="3"/><circle cx="760" cy="274" r="4.5" fill="#d8b45a"/><path d="M 760 260 a 8 8 0 1 0 6 13 a 6.4 6.4 0 1 1 -6 -13 Z" fill="#d8b45a"/><path d="M 372 560 L 400 90 L 460 90 L 488 560 Z" fill="#12141c"/><path d="M 374.0 500 Q 430 476 478.0 466" fill="none" stroke="#d8b45a" stroke-width="5" opacity="0.85"/><path d="M 381.5 434 Q 430 410 470.5 400" fill="none" stroke="#d8b45a" stroke-width="5" opacity="0.85"/><path d="M 389.0 368 Q 430 344 463.0 334" fill="none" stroke="#d8b45a" stroke-width="5" opacity="0.85"/><path d="M 396.5 302 Q 430 278 455.5 268" fill="none" stroke="#d8b45a" stroke-width="5" opacity="0.85"/><path d="M 404.0 236 Q 430 212 448.0 202" fill="none" stroke="#d8b45a" stroke-width="5" opacity="0.85"/><path d="M 411.5 170 Q 430 146 440.5 136" fill="none" stroke="#d8b45a" stroke-width="5" opacity="0.85"/><rect x="414" y="56" width="32" height="34" fill="#12141c"/>
<rect x="0" y="560" width="1200" height="140" fill="#0c0e14"/>

<rect x="0" y="556" width="1200" height="4" fill="#d8b45a" opacity="0.55"/>
</svg>