<svg xmlns="http://www.w3.org/2000/svg" viewBox="0 0 1200 700" role="img">
<defs>
<linearGradient id="sky" x1="0" y1="0" x2="0" y2="1">
<stop offset="0" stop-color="#0a1026"/><stop offset="0.62" stop-color="#152046"/><stop offset="1" stop-color="#2b3a6b"/>
</linearGradient>
<pattern id="g1" width="120" height="120" patternUnits="userSpaceOnUse"><polygon points="111.6,60.0 80.0,68.3 96.5,96.5 68.3,80.0 60.0,111.6 51.7,80.0 23.5,96.5 40.0,68.3 8.4,60.0 40.0,51.7 23.5,23.5 51.7,40.0 60.0,8.4 68.3,40.0 96.5,23.5 80.0,51.7" fill="none" stroke="#e8d9a8" stroke-width="1.6" opacity="0.1"/><rect x="17.4" y="17.4" width="85.2" height="85.2" fill="none" stroke="#e8d9a8" stroke-width="1.6" opacity="0.06999999999999999" transform="rotate(45 60.0 60.0)"/></pattern>
</defs>
<rect width="1200" height="700" fill="url(#sky)"/>
<rect width="1200" height="700" fill="url(#g1)"/>
<circle cx="822" cy="322" r="1.3" fill="#f7ecd2" opacity="0.69"/><circle cx="184" cy="323" r="0.8" fill="#f7ecd2" opacity="0.67"/><circle cx="547" cy="75" r="1.3" fill="#f7ecd2" opacity="0.60"/><circle cx="783" cy="310" r="1.3" fill="#f7ecd2" opacity="0.65"/><circle cx="148" cy="64" r="1.8" fill="#f7ecd2" opacity="0.57"/><circle cx="730" cy="145" r="1.8" fill="#f7ecd2" opacity="0.35"/><circle cx="153" cy="337" r="1.3" fill="#f7ecd2" opacity="0.46"/><circle cx="169" cy="212" r="0.8" fill="#f7ecd2" opacity="0.63"/><circle cx="274" cy="126" r="1.3" fill="#f7ecd2" opacity="0.59"/><circle cx="876" cy="147" r="0.8" fill="#f7ecd2" opacity="0.57"/><circle cx="559" cy="239" r="0.8" fill="#f7ecd2" opacity="0.36"/><circle cx="355" cy="94" r="1.8" fill="#f7ecd2" opacity="0.55"/><circle cx="0" cy="28" r="1.3" fill="#f7ecd2" opacity="0.35"/><circle cx="622" cy="329" r="0.8" fill="#f7ecd2" opacity="0.73"/><circle cx="565" cy="321" r="1.3" fill="#f7ecd2" opacity="0.50"/><circle cx="141" cy="156" r="0.8" fill="#f7ecd2" opacity="0.81"/><circle cx="526" cy="250" r="1.8" fill="#f7ecd2" opacity="0.35"/><circle cx="1168" cy="151" r="1.8" fill="#f7ecd2" opacity="0.53"/><circle cx="171" cy="243" r="0.8" fill="#f7ecd2" opacity="0.38"/><circle cx="727" cy="198" r="1.3" fill="#f7ecd2" opacity="0.81"/><circle cx="652" cy="312" r="1.3" fill="#f7ecd2" opacity="0.59"/><circle cx="114" cy="13" r="1.3" fill="#f7ecd2" opacity="0.67"/><circle cx="577" cy="145" r="1.8" fill="#f7ecd2" opacity="0.50"/><circle cx="913" cy="80" r="0.8" fill="#f7ecd2" opacity="0.75"/><circle cx="378" cy="214" r="1.3" fill="#f7ecd2" opacity="0.77"/><circle cx="1060" cy="335" r="0.8" fill="#f7ecd2" opacity="0.35"/><circle cx="583" cy="227" r="0.8" fill="#f7ecd2" opacity="0.76"/><circle cx="699" cy="142" r="1.3" fill="#f7ecd2" opacity="0.43"/><circle cx="904" cy="96" r="1.3" fill="#f7ecd2" opacity="0.69"/><circle cx="406" cy="17" r="0.8" fill="#f7ecd2" opacity="0.37"/><circle cx="189" cy="149" r="1.8" fill="#f7ecd2" opacity="0.46"/><circle cx="85" cy="44" r="0.8" fill="#f7ecd2" opacity="0.75"/><circle cx="1030" cy="158" r="0.8" fill="#f7ecd2" opacity="0.75"/><circle cx="552" cy="19" r="1.3" fill="#f7ecd2" opacity="0.73"/><circle cx="595" cy="51" r="1.3" fill="#f7ecd2" opacity="0.80"/><circle cx="271" cy="266" r="0.8" fill="#f7ecd2" opacity="0.71"/><circle cx="756" cy="60" r="0.8" fill="#f7ecd2" opacity="0.45"/><circle cx="298" cy="201" r="1.3" fill="#f7ecd2" opacity="0.83"/><circle cx="601" cy="133" r="1.8" fill="#f7ecd2" opacity="0.68"/><circle cx="57" cy="328" r="1.3" fill="#f7ecd2" opacity="0.81"/><circle cx="82" cy="142" r="1.8" fill="#f7ecd2" opacity="0.79"/><circle cx="844" cy="23" r="0.8" fill="#f7ecd2" opacity="0.47"/><circle cx="207" cy="55" r="1.3" fill="#f7ecd2" opacity="0.70"/><circle cx="643" cy="30" r="1.3" fill="#f7ecd2" opacity="0.75"/><circle cx="208" cy="204" r="1.3" fill="#f7ecd2" opacity="0.67"/><circle cx="990" cy="25" r="1.3" fill="#f7ecd2" opacity="0.35"/><circle cx="613" cy="297" r="1.3" fill="#f7ecd2" opacity="0.46"/><circle cx="829" cy="252" r="1.3" fill="#f7ecd2" opacity="0.43"/><circle cx="1134" cy="246" r="0.8" fill="#f7ecd2" opacity="0.49"/><circle cx="736" cy="207" r="1.3" fill="#f7ecd2" opacity="0.37"/><circle cx="619" cy="39" r="1.3" fill="#f7ecd2" opacity="0.76"/><circle cx="615" cy="314" r="1.8" fill="#f7ecd2" opacity="0.45"/><circle cx="460" cy="328" r="1.8" fill="#f7ecd2" opacity="0.65"/><circle cx="82" cy="229" r="1.8" fill="#f7ecd2" opacity="0.63"/><circle cx="225" cy="301" r="1.3" fill="#f7ecd2" opacity="0.60"/><circle cx="1" cy="216" r="1.3" fill="#f7ecd2" opacity="0.51"/><circle cx="586" cy="50" r="0.8" fill="#f7ecd2" opacity="0.35"/><circle cx="228" cy="231" r="0.8" fill="#f7ecd2" opacity="0.53"/><circle cx="631" cy="203" r="0.8" fill="#f7ecd2" opacity="0.78"/><circle cx="187" cy="98" r="0.8" fill="#f7ecd2" opacity="0.61"/><circle cx="980" cy="120" r="42" fill="#f6ecd0" opacity="0.95"/><circle cx="996" cy="112" r="36" fill="url(#sky)" opacity="0.92"/>
<rect x="280" y="390" width="640" height="170" fill="#12141c"/><path d="M 306 390 l 22 -26 l 22 26 Z" fill="#12141c"/><path d="M 382 390 l 22 -26 l 22 26 Z" fill="#12141c"/><path d="M 458 390 l 22 -26 l 22 26 Z" fill="#12141c"/><path d="M 534 390 l 22 -26 l 22 26 Z" fill="#12141c"/><path d="M 610 390 l 22 -26 l 22 26 Z" fill="#12141c"/><path d="M 686 390 l 22 -26 l 22 26 Z" fill="#12141c"/><path d="M 762 390 l 22 -26 l 22 26 Z" fill="#12141c"/><path d="M 838 390 l 22 -26 l 22 26 Z" fill="#12141c"/><path d="M 680 390 C 680 313.5, 716.0 300, 760 300 C 804.0 300, 840 313.5, 840 390 Z" fill="#caa96a"/><line x1="760" y1="300" x2="760" y2="278" stroke="#d8b45a" stroke-width="3"/><circle cx="760" cy="274" r="4.5" fill="#d8b45a"/><path d="M 760 260 a 8 8 0 1 0 6 13 a 6.4 6.4 0 1 1 -6 -13 Z" fill="#d8b45a"/><path d="M 372 560 L 400 90 L 460 90 L 488 560 Z" fill="#12141c"/><path d="M 374.0 500 Q 430 476 478.0 466" fill="none" stroke="#d8b45a" stroke-width="5" opacity="0.85"/><path d="M 381.5 434 Q 430 410 470.5 400" fill="none" stroke="#d8b45a" stroke-width="5" opacity="0.85"/><path d="M 389.0 368 Q 430 344 463.0 334" fill="none" stroke="#d8b45a" stroke-width="5" opacity="0.85"/><path d="M 396.5 302 Q 430 278 455.5 268" fill="none" stroke="#d8b45a" stroke-width="5" opacity="0.85"/><path d="M 404.0 236 Q 430 212 448.0 202" fill="none" stroke="#d8b45a" stroke-width="5" opacity="0.85"/><path d="M 411.5 170 Q 430 146 440.5 136" fill="none" stroke="#d8b45a" stroke-width="5" opacity="0.85"/><rect x="414" y="56" width="32" height="34" fill="#12141c"/>
<rect x="0" y="560" width="1200" height="140" fill="#0c0e14"/>

<rect x="0" y="556" width="1200" height="4" fill="#d8b45a" opacity="0.55"/>
</svg>