<svg xmlns="http://www.w3.org/2000/svg" viewBox="0 0 1200 700" role="img">
<defs>
<linearGradient id="sky" x1="0" y1="0" x2="0" y2="1">
<stop offset="0" stop-color="#0a1026"/><stop offset="0.62" stop-color="#152046"/><stop offset="1" stop-color="#2b3a6b"/>
</linearGradient>
<pattern id="g1" width="120" height="120" patternUnits="userSpaceOnUse"><polygon points="111.6,60.0 80.0,68.3 96.5,96.5 68.3,80.0 60.0,111.6 51.7,80.0 23.5,96.5 40.0,68.3 8.4,60.0 40.0,51.7 23.5,23.5 51.7,40.0 60.0,8.4 68.3,40.0 96.5,23.5 80.0,51.7" fill="none" stroke="#e8d9a8" stroke-width="1.6" opacity="0.1"/><rect x="17.4" y="17.4" width="85.2" height="85.2" fill="none" stroke="#e8d9a8" stroke-width="1.6" opacity="0.06999999999999999" transform="rotate(45 60.0 60.0)"/></pattern>
</defs>
<rect width="1200" height="700" fill="url(#sky)"/>
<rect width="1200" height="700" fill="url(#g1)"/>
<circle cx="859" cy="109" r="1.8" fill="#f7ecd2" opacity="0.66"/><circle cx="485" cy="134" r="1.3" fill="#f7ecd2" opacity="0.75"/><circle cx="920" cy="78" r="1.8" fill="#f7ecd2" opacity="0.45"/><circle cx="412" cy="29" r="0.8" fill="#f7ecd2" opacity="0.83"/><circle cx="665" cy="111" r="1.8" fill="#f7ecd2" opacity="0.50"/><circle cx="71" cy="116" r="1.3" fill="#f7ecd2" opacity="0.71"/><circle cx="46" cy="80" r="0.8" fill="#f7ecd2" opacity="0.65"/><circle cx="758" cy="111" r="1.8" fill="#f7ecd2" opacity="0.73"/><circle cx="71" cy="293" r="1.3" fill="#f7ecd2" opacity="0.38"/><circle cx="457" cy="78" r="1.3" fill="#f7ecd2" opacity="0.81"/><circle cx="1172" cy="202" r="0.8" fill="#f7ecd2" opacity="0.79"/><circle cx="704" cy="33" r="1.8" fill="#f7ecd2" opacity="0.67"/><circle cx="277" cy="115" r="1.8" fill="#f7ecd2" opacity="0.40"/><circle cx="443" cy="220" r="0.8" fill="#f7ecd2" opacity="0.45"/><circle cx="698" cy="24" r="1.8" fill="#f7ecd2" opacity="0.37"/><circle cx="250" cy="135" r="1.3" fill="#f7ecd2" opacity="0.35"/><circle cx="83" cy="117" r="1.8" fill="#f7ecd2" opacity="0.46"/><circle cx="29" cy="202" r="0.8" fill="#f7ecd2" opacity="0.43"/><circle cx="1024" cy="166" r="1.8" fill="#f7ecd2" opacity="0.69"/><circle cx="596" cy="217" r="0.8" fill="#f7ecd2" opacity="0.67"/><circle cx="689" cy="99" r="1.8" fill="#f7ecd2" opacity="0.46"/><circle cx="415" cy="164" r="0.8" fill="#f7ecd2" opacity="0.45"/><circle cx="950" cy="148" r="0.8" fill="#f7ecd2" opacity="0.35"/><circle cx="542" cy="139" r="0.8" fill="#f7ecd2" opacity="0.73"/><circle cx="895" cy="261" r="1.3" fill="#f7ecd2" opacity="0.80"/><circle cx="401" cy="306" r="1.8" fill="#f7ecd2" opacity="0.41"/><circle cx="476" cy="310" r="0.8" fill="#f7ecd2" opacity="0.45"/><circle cx="88" cy="241" r="1.8" fill="#f7ecd2" opacity="0.43"/><circle cx="701" cy="263" r="1.3" fill="#f7ecd2" opacity="0.48"/><circle cx="1187" cy="88" r="0.8" fill="#f7ecd2" opacity="0.41"/><circle cx="802" cy="112" r="1.8" fill="#f7ecd2" opacity="0.59"/><circle cx="434" cy="323" r="1.3" fill="#f7ecd2" opacity="0.67"/><circle cx="107" cy="105" r="1.8" fill="#f7ecd2" opacity="0.70"/><circle cx="373" cy="250" r="1.8" fill="#f7ecd2" opacity="0.35"/><circle cx="728" cy="94" r="0.8" fill="#f7ecd2" opacity="0.67"/><circle cx="380" cy="245" r="1.3" fill="#f7ecd2" opacity="0.35"/><circle cx="313" cy="267" r="1.3" fill="#f7ecd2" opacity="0.56"/><circle cx="359" cy="52" r="0.8" fill="#f7ecd2" opacity="0.53"/><circle cx="254" cy="256" r="0.8" fill="#f7ecd2" opacity="0.59"/><circle cx="1126" cy="147" r="1.3" fill="#f7ecd2" opacity="0.57"/><circle cx="119" cy="269" r="1.3" fill="#f7ecd2" opacity="0.46"/><circle cx="1145" cy="174" r="1.8" fill="#f7ecd2" opacity="0.65"/><circle cx="580" cy="58" r="1.8" fill="#f7ecd2" opacity="0.75"/><circle cx="272" cy="89" r="1.3" fill="#f7ecd2" opacity="0.43"/><circle cx="725" cy="251" r="1.3" fill="#f7ecd2" opacity="0.60"/><circle cx="331" cy="336" r="1.3" fill="#f7ecd2" opacity="0.51"/><circle cx="506" cy="40" r="0.8" fill="#f7ecd2" opacity="0.75"/><circle cx="218" cy="11" r="1.3" fill="#f7ecd2" opacity="0.83"/><circle cx="931" cy="73" r="1.8" fill="#f7ecd2" opacity="0.48"/><circle cx="317" cy="138" r="1.8" fill="#f7ecd2" opacity="0.81"/><circle cx="32" cy="202" r="0.8" fill="#f7ecd2" opacity="0.49"/><circle cx="964" cy="253" r="1.8" fill="#f7ecd2" opacity="0.77"/><circle cx="737" cy="75" r="1.8" fill="#f7ecd2" opacity="0.60"/><circle cx="1103" cy="260" r="1.3" fill="#f7ecd2" opacity="0.65"/><circle cx="358" cy="4" r="1.8" fill="#f7ecd2" opacity="0.67"/><circle cx="110" cy="195" r="1.8" fill="#f7ecd2" opacity="0.35"/><circle cx="143" cy="257" r="1.3" fill="#f7ecd2" opacity="0.36"/><circle cx="289" cy="82" r="1.8" fill="#f7ecd2" opacity="0.83"/><circle cx="284" cy="326" r="1.3" fill="#f7ecd2" opacity="0.69"/><circle cx="56" cy="117" r="1.8" fill="#f7ecd2" opacity="0.37"/><circle cx="980" cy="120" r="42" fill="#f6ecd0" opacity="0.95"/><circle cx="996" cy="112" r="36" fill="url(#sky)" opacity="0.92"/>
<rect x="280" y="390" width="640" height="170" fill="#12141c"/><path d="M 306 390 l 22 -26 l 22 26 Z" fill="#12141c"/><path d="M 382 390 l 22 -26 l 22 26 Z" fill="#12141c"/><path d="M 458 390 l 22 -26 l 22 26 Z" fill="#12141c"/><path d="M 534 390 l 22 -26 l 22 26 Z" fill="#12141c"/><path d="M 610 390 l 22 -26 l 22 26 Z" fill="#12141c"/><path d="M 686 390 l 22 -26 l 22 26 Z" fill="#12141c"/><path d="M 762 390 l 22 -26 l 22 26 Z" fill="#12141c"/><path d="M 838 390 l 22 -26 l 22 26 Z" fill="#12141c"/><path d="M 680 390 C 680 313.5, 716.0 300, 760 300 C 804.0 300, 840 313.5, 840 390 Z" fill="#caa96a"/><line x1="760" y1="300" x2="760" y2="278" stroke="#d8b45a" stroke-width="3"/><circle cx="760" cy="274" r="4.5" fill="#d8b45a"/><path d="M 760 260 a 8 8 0 1 0 6 13 a 6.4 6.4 0 1 1 -6 -13 Z" fill="#d8b45a"/><path d="M 372 560 L 400 90 L 460 90 L 488 560 Z" fill="#12141c"/><path d="M 374.0 500 Q 430 476 478.0 466" fill="none" stroke="#d8b45a" stroke-width="5" opacity="0.85"/><path d="M 381.5 434 Q 430 410 470.5 400" fill="none" stroke="#d8b45a" stroke-width="5" opacity="0.85"/><path d="M 389.0 368 Q 430 344 463.0 334" fill="none" stroke="#d8b45a" stroke-width="5" opacity="0.85"/><path d="M 396.5 302 Q 430 278 455.5 268" fill="none" stroke="#d8b45a" stroke-width="5" opacity="0.85"/><path d="M 404.0 236 Q 430 212 448.0 202" fill="none" stroke="#d8b45a" stroke-width="5" opacity="0.85"/><path d="M 411.5 170 Q 430 146 440.5 136" fill="none" stroke="#d8b45a" stroke-width="5" opacity="0.85"/><rect x="414" y="56" width="32" height="34" fill="#12141c"/>
<rect x="0" y="560" width="1200" height="140" fill="#0c0e14"/>

<rect x="0" y="556" width="1200" height="4" fill="#d8b45a" opacity="0.55"/>
</svg>