<svg xmlns="http://www.w3.org/2000/svg" viewBox="0 0 1200 700" role="img">
<defs>
<linearGradient id="sky" x1="0" y1="0" x2="0" y2="1">
<stop offset="0" stop-color="#0a1026"/><stop offset="0.62" stop-color="#152046"/><stop offset="1" stop-color="#2b3a6b"/>
</linearGradient>
<pattern id="g1" width="120" height="120" patternUnits="userSpaceOnUse"><polygon points="111.6,60.0 80.0,68.3 96.5,96.5 68.3,80.0 60.0,111.6 51.7,80.0 23.5,96.5 40.0,68.3 8.4,60.0 40.0,51.7 23.5,23.5 51.7,40.0 60.0,8.4 68.3,40.0 96.5,23.5 80.0,51.7" fill="none" stroke="#e8d9a8" stroke-width="1.6" opacity="0.1"/><rect x="17.4" y="17.4" width="85.2" height="85.2" fill="none" stroke="#e8d9a8" stroke-width="1.6" opacity="0.06999999999999999" transform="rotate(45 60.0 60.0)"/></pattern>
</defs>
<rect width="1200" height="700" fill="url(#sky)"/>
<rect width="1200" height="700" fill="url(#g1)"/>
<circle cx="155" cy="45" r="1.8" fill="#f7ecd2" opacity="0.60"/><circle cx="693" cy="122" r="1.8" fill="#f7ecd2" opacity="0.81"/><circle cx="504" cy="102" r="0.8" fill="#f7ecd2" opacity="0.43"/><circle cx="44" cy="181" r="0.8" fill="#f7ecd2" opacity="0.49"/><circle cx="201" cy="7" r="1.3" fill="#f7ecd2" opacity="0.42"/><circle cx="999" cy="324" r="0.8" fill="#f7ecd2" opacity="0.61"/><circle cx="590" cy="284" r="1.3" fill="#f7ecd2" opacity="0.45"/><circle cx="870" cy="183" r="0.8" fill="#f7ecd2" opacity="0.45"/><circle cx="1047" cy="289" r="1.3" fill="#f7ecd2" opacity="0.68"/><circle cx="905" cy="26" r="1.3" fill="#f7ecd2" opacity="0.65"/><circle cx="276" cy="306" r="0.8" fill="#f7ecd2" opacity="0.41"/><circle cx="96" cy="225" r="0.8" fill="#f7ecd2" opacity="0.35"/><circle cx="293" cy="271" r="0.8" fill="#f7ecd2" opacity="0.38"/><circle cx="411" cy="248" r="1.8" fill="#f7ecd2" opacity="0.63"/><circle cx="762" cy="308" r="1.8" fill="#f7ecd2" opacity="0.81"/><circle cx="122" cy="247" r="0.8" fill="#f7ecd2" opacity="0.69"/><circle cx="339" cy="233" r="1.8" fill="#f7ecd2" opacity="0.72"/><circle cx="717" cy="110" r="1.8" fill="#f7ecd2" opacity="0.55"/><circle cx="848" cy="150" r="1.8" fill="#f7ecd2" opacity="0.35"/><circle cx="948" cy="249" r="0.8" fill="#f7ecd2" opacity="0.37"/><circle cx="1185" cy="175" r="1.3" fill="#f7ecd2" opacity="0.60"/><circle cx="623" cy="152" r="1.3" fill="#f7ecd2" opacity="0.81"/><circle cx="534" cy="172" r="1.3" fill="#f7ecd2" opacity="0.83"/><circle cx="174" cy="291" r="0.8" fill="#f7ecd2" opacity="0.69"/><circle cx="431" cy="157" r="0.8" fill="#f7ecd2" opacity="0.52"/><circle cx="129" cy="34" r="1.3" fill="#f7ecd2" opacity="0.71"/><circle cx="1020" cy="174" r="0.8" fill="#f7ecd2" opacity="0.65"/><circle cx="200" cy="313" r="0.8" fill="#f7ecd2" opacity="0.35"/><circle cx="477" cy="119" r="1.8" fill="#f7ecd2" opacity="0.48"/><circle cx="435" cy="236" r="1.8" fill="#f7ecd2" opacity="0.45"/><circle cx="1106" cy="16" r="0.8" fill="#f7ecd2" opacity="0.81"/><circle cx="1026" cy="315" r="0.8" fill="#f7ecd2" opacity="0.75"/><circle cx="123" cy="261" r="0.8" fill="#f7ecd2" opacity="0.38"/><circle cx="341" cy="278" r="1.3" fill="#f7ecd2" opacity="0.83"/><circle cx="792" cy="38" r="1.8" fill="#f7ecd2" opacity="0.81"/><circle cx="252" cy="17" r="1.8" fill="#f7ecd2" opacity="0.69"/><circle cx="569" cy="43" r="0.8" fill="#f7ecd2" opacity="0.52"/><circle cx="1047" cy="300" r="0.8" fill="#f7ecd2" opacity="0.35"/><circle cx="78" cy="240" r="0.8" fill="#f7ecd2" opacity="0.55"/><circle cx="278" cy="39" r="1.8" fill="#f7ecd2" opacity="0.77"/><circle cx="615" cy="5" r="1.8" fill="#f7ecd2" opacity="0.60"/><circle cx="153" cy="22" r="1.3" fill="#f7ecd2" opacity="0.51"/><circle cx="164" cy="82" r="0.8" fill="#f7ecd2" opacity="0.83"/><circle cx="1104" cy="41" r="1.8" fill="#f7ecd2" opacity="0.49"/><circle cx="261" cy="147" r="0.8" fill="#f7ecd2" opacity="0.52"/><circle cx="59" cy="64" r="0.8" fill="#f7ecd2" opacity="0.61"/><circle cx="1050" cy="244" r="1.3" fill="#f7ecd2" opacity="0.35"/><circle cx="330" cy="83" r="1.8" fill="#f7ecd2" opacity="0.75"/><circle cx="707" cy="269" r="1.3" fill="#f7ecd2" opacity="0.68"/><circle cx="765" cy="86" r="1.8" fill="#f7ecd2" opacity="0.75"/><circle cx="336" cy="106" r="1.3" fill="#f7ecd2" opacity="0.51"/><circle cx="356" cy="105" r="1.8" fill="#f7ecd2" opacity="0.65"/><circle cx="753" cy="231" r="0.8" fill="#f7ecd2" opacity="0.78"/><circle cx="1071" cy="288" r="0.8" fill="#f7ecd2" opacity="0.83"/><circle cx="422" cy="288" r="1.8" fill="#f7ecd2" opacity="0.71"/><circle cx="1182" cy="107" r="1.8" fill="#f7ecd2" opacity="0.59"/><circle cx="399" cy="33" r="0.8" fill="#f7ecd2" opacity="0.52"/><circle cx="977" cy="330" r="1.8" fill="#f7ecd2" opacity="0.45"/><circle cx="108" cy="310" r="1.3" fill="#f7ecd2" opacity="0.65"/><circle cx="408" cy="149" r="1.8" fill="#f7ecd2" opacity="0.77"/><circle cx="980" cy="120" r="42" fill="#f6ecd0" opacity="0.95"/><circle cx="996" cy="112" r="36" fill="url(#sky)" opacity="0.92"/>
<rect x="280" y="390" width="640" height="170" fill="#12141c"/><path d="M 306 390 l 22 -26 l 22 26 Z" fill="#12141c"/><path d="M 382 390 l 22 -26 l 22 26 Z" fill="#12141c"/><path d="M 458 390 l 22 -26 l 22 26 Z" fill="#12141c"/><path d="M 534 390 l 22 -26 l 22 26 Z" fill="#12141c"/><path d="M 610 390 l 22 -26 l 22 26 Z" fill="#12141c"/><path d="M 686 390 l 22 -26 l 22 26 Z" fill="#12141c"/><path d="M 762 390 l 22 -26 l 22 26 Z" fill="#12141c"/><path d="M 838 390 l 22 -26 l 22 26 Z" fill="#12141c"/><path d="M 680 390 C 680 313.5, 716.0 300, 760 300 C 804.0 300, 840 313.5, 840 390 Z" fill="#caa96a"/><line x1="760" y1="300" x2="760" y2="278" stroke="#d8b45a" stroke-width="3"/><circle cx="760" cy="274" r="4.5" fill="#d8b45a"/><path d="M 760 260 a 8 8 0 1 0 6 13 a 6.4 6.4 0 1 1 -6 -13 Z" fill="#d8b45a"/><path d="M 372 560 L 400 90 L 460 90 L 488 560 Z" fill="#12141c"/><path d="M 374.0 500 Q 430 476 478.0 466" fill="none" stroke="#d8b45a" stroke-width="5" opacity="0.85"/><path d="M 381.5 434 Q 430 410 470.5 400" fill="none" stroke="#d8b45a" stroke-width="5" opacity="0.85"/><path d="M 389.0 368 Q 430 344 463.0 334" fill="none" stroke="#d8b45a" stroke-width="5" opacity="0.85"/><path d="M 396.5 302 Q 430 278 455.5 268" fill="none" stroke="#d8b45a" stroke-width="5" opacity="0.85"/><path d="M 404.0 236 Q 430 212 448.0 202" fill="none" stroke="#d8b45a" stroke-width="5" opacity="0.85"/><path d="M 411.5 170 Q 430 146 440.5 136" fill="none" stroke="#d8b45a" stroke-width="5" opacity="0.85"/><rect x="414" y="56" width="32" height="34" fill="#12141c"/>
<rect x="0" y="560" width="1200" height="140" fill="#0c0e14"/>

<rect x="0" y="556" width="1200" height="4" fill="#d8b45a" opacity="0.55"/>
</svg>