<svg xmlns="http://www.w3.org/2000/svg" viewBox="0 0 1200 700" role="img">
<defs>
<linearGradient id="sky" x1="0" y1="0" x2="0" y2="1">
<stop offset="0" stop-color="#0a1026"/><stop offset="0.62" stop-color="#152046"/><stop offset="1" stop-color="#2b3a6b"/>
</linearGradient>
<pattern id="g1" width="120" height="120" patternUnits="userSpaceOnUse"><polygon points="111.6,60.0 80.0,68.3 96.5,96.5 68.3,80.0 60.0,111.6 51.7,80.0 23.5,96.5 40.0,68.3 8.4,60.0 40.0,51.7 23.5,23.5 51.7,40.0 60.0,8.4 68.3,40.0 96.5,23.5 80.0,51.7" fill="none" stroke="#e8d9a8" stroke-width="1.6" opacity="0.1"/><rect x="17.4" y="17.4" width="85.2" height="85.2" fill="none" stroke="#e8d9a8" stroke-width="1.6" opacity="0.06999999999999999" transform="rotate(45 60.0 60.0)"/></pattern>
</defs>
<rect width="1200" height="700" fill="url(#sky)"/>
<rect width="1200" height="700" fill="url(#g1)"/>
<circle cx="907" cy="237" r="1.3" fill="#f7ecd2" opacity="0.44"/><circle cx="389" cy="218" r="1.3" fill="#f7ecd2" opacity="0.37"/><circle cx="1112" cy="250" r="0.8" fill="#f7ecd2" opacity="0.35"/><circle cx="28" cy="25" r="1.8" fill="#f7ecd2" opacity="0.35"/><circle cx="233" cy="319" r="0.8" fill="#f7ecd2" opacity="0.62"/><circle cx="935" cy="40" r="0.8" fill="#f7ecd2" opacity="0.35"/><circle cx="718" cy="172" r="1.8" fill="#f7ecd2" opacity="0.81"/><circle cx="614" cy="67" r="0.8" fill="#f7ecd2" opacity="0.73"/><circle cx="359" cy="41" r="1.3" fill="#f7ecd2" opacity="0.54"/><circle cx="1081" cy="42" r="1.3" fill="#f7ecd2" opacity="0.37"/><circle cx="1124" cy="74" r="1.3" fill="#f7ecd2" opacity="0.61"/><circle cx="800" cy="289" r="0.8" fill="#f7ecd2" opacity="0.35"/><circle cx="85" cy="283" r="1.8" fill="#f7ecd2" opacity="0.40"/><circle cx="827" cy="224" r="1.3" fill="#f7ecd2" opacity="0.83"/><circle cx="1130" cy="156" r="1.8" fill="#f7ecd2" opacity="0.65"/><circle cx="586" cy="11" r="0.8" fill="#f7ecd2" opacity="0.81"/><circle cx="611" cy="165" r="1.8" fill="#f7ecd2" opacity="0.50"/><circle cx="173" cy="246" r="1.8" fill="#f7ecd2" opacity="0.43"/><circle cx="736" cy="78" r="1.3" fill="#f7ecd2" opacity="0.43"/><circle cx="1172" cy="53" r="1.3" fill="#f7ecd2" opacity="0.51"/><circle cx="737" cy="227" r="1.3" fill="#f7ecd2" opacity="0.84"/><circle cx="319" cy="248" r="0.8" fill="#f7ecd2" opacity="0.47"/><circle cx="1142" cy="320" r="1.3" fill="#f7ecd2" opacity="0.75"/><circle cx="158" cy="135" r="1.8" fill="#f7ecd2" opacity="0.65"/><circle cx="463" cy="129" r="1.3" fill="#f7ecd2" opacity="0.62"/><circle cx="65" cy="90" r="1.8" fill="#f7ecd2" opacity="0.35"/><circle cx="1148" cy="62" r="1.3" fill="#f7ecd2" opacity="0.61"/><circle cx="1144" cy="337" r="1.8" fill="#f7ecd2" opacity="0.63"/><circle cx="989" cy="11" r="1.3" fill="#f7ecd2" opacity="0.64"/><circle cx="611" cy="252" r="1.8" fill="#f7ecd2" opacity="0.57"/><circle cx="754" cy="324" r="1.3" fill="#f7ecd2" opacity="0.81"/><circle cx="530" cy="239" r="1.3" fill="#f7ecd2" opacity="0.55"/><circle cx="1115" cy="73" r="0.8" fill="#f7ecd2" opacity="0.80"/><circle cx="757" cy="254" r="0.8" fill="#f7ecd2" opacity="0.63"/><circle cx="1160" cy="226" r="0.8" fill="#f7ecd2" opacity="0.45"/><circle cx="716" cy="121" r="0.8" fill="#f7ecd2" opacity="0.71"/><circle cx="841" cy="315" r="1.3" fill="#f7ecd2" opacity="0.50"/><circle cx="503" cy="96" r="1.8" fill="#f7ecd2" opacity="0.73"/><circle cx="1166" cy="308" r="1.3" fill="#f7ecd2" opacity="0.63"/><circle cx="502" cy="183" r="1.3" fill="#f7ecd2" opacity="0.51"/><circle cx="167" cy="57" r="1.8" fill="#f7ecd2" opacity="0.54"/><circle cx="1049" cy="258" r="1.8" fill="#f7ecd2" opacity="0.77"/><circle cx="772" cy="230" r="0.8" fill="#f7ecd2" opacity="0.45"/><circle cx="1088" cy="225" r="1.8" fill="#f7ecd2" opacity="0.35"/><circle cx="293" cy="119" r="1.3" fill="#f7ecd2" opacity="0.52"/><circle cx="1195" cy="260" r="0.8" fill="#f7ecd2" opacity="0.35"/><circle cx="1178" cy="132" r="1.8" fill="#f7ecd2" opacity="0.81"/><circle cx="74" cy="307" r="0.8" fill="#f7ecd2" opacity="0.53"/><circle cx="19" cy="21" r="1.3" fill="#f7ecd2" opacity="0.84"/><circle cx="941" cy="102" r="1.8" fill="#f7ecd2" opacity="0.67"/><circle cx="1184" cy="214" r="0.8" fill="#f7ecd2" opacity="0.61"/><circle cx="1060" cy="169" r="1.8" fill="#f7ecd2" opacity="0.75"/><circle cx="545" cy="243" r="1.8" fill="#f7ecd2" opacity="0.70"/><circle cx="287" cy="124" r="0.8" fill="#f7ecd2" opacity="0.73"/><circle cx="790" cy="136" r="1.8" fill="#f7ecd2" opacity="0.75"/><circle cx="446" cy="71" r="1.3" fill="#f7ecd2" opacity="0.51"/><circle cx="671" cy="305" r="1.3" fill="#f7ecd2" opacity="0.40"/><circle cx="433" cy="126" r="1.3" fill="#f7ecd2" opacity="0.43"/><circle cx="1196" cy="38" r="1.3" fill="#f7ecd2" opacity="0.83"/><circle cx="632" cy="293" r="1.3" fill="#f7ecd2" opacity="0.61"/><circle cx="980" cy="120" r="42" fill="#f6ecd0" opacity="0.95"/><circle cx="996" cy="112" r="36" fill="url(#sky)" opacity="0.92"/>
<rect x="280" y="390" width="640" height="170" fill="#12141c"/><path d="M 306 390 l 22 -26 l 22 26 Z" fill="#12141c"/><path d="M 382 390 l 22 -26 l 22 26 Z" fill="#12141c"/><path d="M 458 390 l 22 -26 l 22 26 Z" fill="#12141c"/><path d="M 534 390 l 22 -26 l 22 26 Z" fill="#12141c"/><path d="M 610 390 l 22 -26 l 22 26 Z" fill="#12141c"/><path d="M 686 390 l 22 -26 l 22 26 Z" fill="#12141c"/><path d="M 762 390 l 22 -26 l 22 26 Z" fill="#12141c"/><path d="M 838 390 l 22 -26 l 22 26 Z" fill="#12141c"/><path d="M 680 390 C 680 313.5, 716.0 300, 760 300 C 804.0 300, 840 313.5, 840 390 Z" fill="#caa96a"/><line x1="760" y1="300" x2="760" y2="278" stroke="#d8b45a" stroke-width="3"/><circle cx="760" cy="274" r="4.5" fill="#d8b45a"/><path d="M 760 260 a 8 8 0 1 0 6 13 a 6.4 6.4 0 1 1 -6 -13 Z" fill="#d8b45a"/><path d="M 372 560 L 400 90 L 460 90 L 488 560 Z" fill="#12141c"/><path d="M 374.0 500 Q 430 476 478.0 466" fill="none" stroke="#d8b45a" stroke-width="5" opacity="0.85"/><path d="M 381.5 434 Q 430 410 470.5 400" fill="none" stroke="#d8b45a" stroke-width="5" opacity="0.85"/><path d="M 389.0 368 Q 430 344 463.0 334" fill="none" stroke="#d8b45a" stroke-width="5" opacity="0.85"/><path d="M 396.5 302 Q 430 278 455.5 268" fill="none" stroke="#d8b45a" stroke-width="5" opacity="0.85"/><path d="M 404.0 236 Q 430 212 448.0 202" fill="none" stroke="#d8b45a" stroke-width="5" opacity="0.85"/><path d="M 411.5 170 Q 430 146 440.5 136" fill="none" stroke="#d8b45a" stroke-width="5" opacity="0.85"/><rect x="414" y="56" width="32" height="34" fill="#12141c"/>
<rect x="0" y="560" width="1200" height="140" fill="#0c0e14"/>

<rect x="0" y="556" width="1200" height="4" fill="#d8b45a" opacity="0.55"/>
</svg>