<svg xmlns="http://www.w3.org/2000/svg" viewBox="0 0 1200 700" role="img">
<defs>
<linearGradient id="sky" x1="0" y1="0" x2="0" y2="1">
<stop offset="0" stop-color="#0a1026"/><stop offset="0.62" stop-color="#152046"/><stop offset="1" stop-color="#2b3a6b"/>
</linearGradient>
<pattern id="g1" width="120" height="120" patternUnits="userSpaceOnUse"><polygon points="111.6,60.0 80.0,68.3 96.5,96.5 68.3,80.0 60.0,111.6 51.7,80.0 23.5,96.5 40.0,68.3 8.4,60.0 40.0,51.7 23.5,23.5 51.7,40.0 60.0,8.4 68.3,40.0 96.5,23.5 80.0,51.7" fill="none" stroke="#e8d9a8" stroke-width="1.6" opacity="0.1"/><rect x="17.4" y="17.4" width="85.2" height="85.2" fill="none" stroke="#e8d9a8" stroke-width="1.6" opacity="0.06999999999999999" transform="rotate(45 60.0 60.0)"/></pattern>
</defs>
<rect width="1200" height="700" fill="url(#sky)"/>
<rect width="1200" height="700" fill="url(#g1)"/>
<circle cx="686" cy="186" r="1.8" fill="#f7ecd2" opacity="0.81"/><circle cx="1056" cy="155" r="1.8" fill="#f7ecd2" opacity="0.65"/><circle cx="603" cy="111" r="0.8" fill="#f7ecd2" opacity="0.68"/><circle cx="71" cy="338" r="1.3" fill="#f7ecd2" opacity="0.83"/><circle cx="972" cy="108" r="0.8" fill="#f7ecd2" opacity="0.61"/><circle cx="882" cy="97" r="1.3" fill="#f7ecd2" opacity="0.39"/><circle cx="449" cy="333" r="1.8" fill="#f7ecd2" opacity="0.52"/><circle cx="177" cy="120" r="0.8" fill="#f7ecd2" opacity="0.75"/><circle cx="858" cy="210" r="0.8" fill="#f7ecd2" opacity="0.65"/><circle cx="308" cy="219" r="1.8" fill="#f7ecd2" opacity="0.37"/><circle cx="1095" cy="195" r="0.8" fill="#f7ecd2" opacity="0.60"/><circle cx="1083" cy="222" r="0.8" fill="#f7ecd2" opacity="0.61"/><circle cx="344" cy="152" r="1.3" fill="#f7ecd2" opacity="0.73"/><circle cx="534" cy="321" r="0.8" fill="#f7ecd2" opacity="0.49"/><circle cx="141" cy="97" r="1.3" fill="#f7ecd2" opacity="0.62"/><circle cx="389" cy="24" r="1.8" fill="#f7ecd2" opacity="0.71"/><circle cx="630" cy="74" r="1.8" fill="#f7ecd2" opacity="0.55"/><circle cx="360" cy="263" r="1.8" fill="#f7ecd2" opacity="0.65"/><circle cx="1187" cy="119" r="1.3" fill="#f7ecd2" opacity="0.38"/><circle cx="495" cy="146" r="1.8" fill="#f7ecd2" opacity="0.55"/><circle cx="516" cy="176" r="1.8" fill="#f7ecd2" opacity="0.51"/><circle cx="986" cy="185" r="1.3" fill="#f7ecd2" opacity="0.45"/><circle cx="633" cy="181" r="1.3" fill="#f7ecd2" opacity="0.58"/><circle cx="201" cy="108" r="0.8" fill="#f7ecd2" opacity="0.43"/><circle cx="2" cy="118" r="0.8" fill="#f7ecd2" opacity="0.71"/><circle cx="12" cy="147" r="0.8" fill="#f7ecd2" opacity="0.49"/><circle cx="879" cy="223" r="1.3" fill="#f7ecd2" opacity="0.52"/><circle cx="707" cy="50" r="1.3" fill="#f7ecd2" opacity="0.35"/><circle cx="288" cy="40" r="1.3" fill="#f7ecd2" opacity="0.55"/><circle cx="1038" cy="229" r="1.3" fill="#f7ecd2" opacity="0.37"/><circle cx="725" cy="105" r="1.8" fill="#f7ecd2" opacity="0.60"/><circle cx="813" cy="172" r="1.3" fill="#f7ecd2" opacity="0.71"/><circle cx="174" cy="142" r="1.3" fill="#f7ecd2" opacity="0.43"/><circle cx="464" cy="11" r="1.3" fill="#f7ecd2" opacity="0.39"/><circle cx="171" cy="167" r="1.8" fill="#f7ecd2" opacity="0.42"/><circle cx="519" cy="134" r="1.8" fill="#f7ecd2" opacity="0.81"/><circle cx="860" cy="224" r="1.3" fill="#f7ecd2" opacity="0.75"/><circle cx="690" cy="113" r="1.8" fill="#f7ecd2" opacity="0.55"/><circle cx="417" cy="209" r="1.8" fill="#f7ecd2" opacity="0.38"/><circle cx="1025" cy="76" r="0.8" fill="#f7ecd2" opacity="0.35"/><circle cx="1146" cy="146" r="1.8" fill="#f7ecd2" opacity="0.51"/><circle cx="516" cy="55" r="1.3" fill="#f7ecd2" opacity="0.65"/><circle cx="263" cy="91" r="0.8" fill="#f7ecd2" opacity="0.68"/><circle cx="1131" cy="198" r="0.8" fill="#f7ecd2" opacity="0.73"/><circle cx="1032" cy="248" r="1.8" fill="#f7ecd2" opacity="0.71"/><circle cx="1142" cy="317" r="1.3" fill="#f7ecd2" opacity="0.49"/><circle cx="909" cy="293" r="1.8" fill="#f7ecd2" opacity="0.72"/><circle cx="837" cy="160" r="1.3" fill="#f7ecd2" opacity="0.55"/><circle cx="518" cy="190" r="0.8" fill="#f7ecd2" opacity="0.55"/><circle cx="168" cy="279" r="0.8" fill="#f7ecd2" opacity="0.57"/><circle cx="1155" cy="335" r="1.8" fill="#f7ecd2" opacity="0.60"/><circle cx="143" cy="302" r="1.3" fill="#f7ecd2" opacity="0.71"/><circle cx="804" cy="112" r="1.3" fill="#f7ecd2" opacity="0.83"/><circle cx="1194" cy="21" r="0.8" fill="#f7ecd2" opacity="0.59"/><circle cx="1001" cy="217" r="0.8" fill="#f7ecd2" opacity="0.52"/><circle cx="249" cy="84" r="0.8" fill="#f7ecd2" opacity="0.51"/><circle cx="690" cy="214" r="1.3" fill="#f7ecd2" opacity="0.45"/><circle cx="620" cy="143" r="1.3" fill="#f7ecd2" opacity="0.45"/><circle cx="447" cy="279" r="0.8" fill="#f7ecd2" opacity="0.48"/><circle cx="1155" cy="186" r="0.8" fill="#f7ecd2" opacity="0.65"/><circle cx="980" cy="120" r="42" fill="#f6ecd0" opacity="0.95"/><circle cx="996" cy="112" r="36" fill="url(#sky)" opacity="0.92"/>
<rect x="280" y="390" width="640" height="170" fill="#12141c"/><path d="M 306 390 l 22 -26 l 22 26 Z" fill="#12141c"/><path d="M 382 390 l 22 -26 l 22 26 Z" fill="#12141c"/><path d="M 458 390 l 22 -26 l 22 26 Z" fill="#12141c"/><path d="M 534 390 l 22 -26 l 22 26 Z" fill="#12141c"/><path d="M 610 390 l 22 -26 l 22 26 Z" fill="#12141c"/><path d="M 686 390 l 22 -26 l 22 26 Z" fill="#12141c"/><path d="M 762 390 l 22 -26 l 22 26 Z" fill="#12141c"/><path d="M 838 390 l 22 -26 l 22 26 Z" fill="#12141c"/><path d="M 680 390 C 680 313.5, 716.0 300, 760 300 C 804.0 300, 840 313.5, 840 390 Z" fill="#caa96a"/><line x1="760" y1="300" x2="760" y2="278" stroke="#d8b45a" stroke-width="3"/><circle cx="760" cy="274" r="4.5" fill="#d8b45a"/><path d="M 760 260 a 8 8 0 1 0 6 13 a 6.4 6.4 0 1 1 -6 -13 Z" fill="#d8b45a"/><path d="M 372 560 L 400 90 L 460 90 L 488 560 Z" fill="#12141c"/><path d="M 374.0 500 Q 430 476 478.0 466" fill="none" stroke="#d8b45a" stroke-width="5" opacity="0.85"/><path d="M 381.5 434 Q 430 410 470.5 400" fill="none" stroke="#d8b45a" stroke-width="5" opacity="0.85"/><path d="M 389.0 368 Q 430 344 463.0 334" fill="none" stroke="#d8b45a" stroke-width="5" opacity="0.85"/><path d="M 396.5 302 Q 430 278 455.5 268" fill="none" stroke="#d8b45a" stroke-width="5" opacity="0.85"/><path d="M 404.0 236 Q 430 212 448.0 202" fill="none" stroke="#d8b45a" stroke-width="5" opacity="0.85"/><path d="M 411.5 170 Q 430 146 440.5 136" fill="none" stroke="#d8b45a" stroke-width="5" opacity="0.85"/><rect x="414" y="56" width="32" height="34" fill="#12141c"/>
<rect x="0" y="560" width="1200" height="140" fill="#0c0e14"/>

<rect x="0" y="556" width="1200" height="4" fill="#d8b45a" opacity="0.55"/>
</svg>