<svg xmlns="http://www.w3.org/2000/svg" viewBox="0 0 1200 700" role="img">
<defs>
<linearGradient id="sky" x1="0" y1="0" x2="0" y2="1">
<stop offset="0" stop-color="#0a1026"/><stop offset="0.62" stop-color="#152046"/><stop offset="1" stop-color="#2b3a6b"/>
</linearGradient>
<pattern id="g1" width="120" height="120" patternUnits="userSpaceOnUse"><polygon points="111.6,60.0 80.0,68.3 96.5,96.5 68.3,80.0 60.0,111.6 51.7,80.0 23.5,96.5 40.0,68.3 8.4,60.0 40.0,51.7 23.5,23.5 51.7,40.0 60.0,8.4 68.3,40.0 96.5,23.5 80.0,51.7" fill="none" stroke="#e8d9a8" stroke-width="1.6" opacity="0.1"/><rect x="17.4" y="17.4" width="85.2" height="85.2" fill="none" stroke="#e8d9a8" stroke-width="1.6" opacity="0.06999999999999999" transform="rotate(45 60.0 60.0)"/></pattern>
</defs>
<rect width="1200" height="700" fill="url(#sky)"/>
<rect width="1200" height="700" fill="url(#g1)"/>
<circle cx="766" cy="286" r="1.8" fill="#f7ecd2" opacity="0.61"/><circle cx="896" cy="295" r="0.8" fill="#f7ecd2" opacity="0.55"/><circle cx="923" cy="171" r="1.8" fill="#f7ecd2" opacity="0.68"/><circle cx="631" cy="18" r="1.3" fill="#f7ecd2" opacity="0.43"/><circle cx="1052" cy="208" r="0.8" fill="#f7ecd2" opacity="0.51"/><circle cx="722" cy="237" r="1.8" fill="#f7ecd2" opacity="0.49"/><circle cx="769" cy="53" r="0.8" fill="#f7ecd2" opacity="0.42"/><circle cx="737" cy="140" r="1.3" fill="#f7ecd2" opacity="0.65"/><circle cx="938" cy="310" r="0.8" fill="#f7ecd2" opacity="0.65"/><circle cx="148" cy="19" r="1.8" fill="#f7ecd2" opacity="0.47"/><circle cx="215" cy="115" r="0.8" fill="#f7ecd2" opacity="0.60"/><circle cx="443" cy="102" r="1.8" fill="#f7ecd2" opacity="0.71"/><circle cx="424" cy="252" r="1.3" fill="#f7ecd2" opacity="0.83"/><circle cx="374" cy="121" r="0.8" fill="#f7ecd2" opacity="0.39"/><circle cx="461" cy="157" r="0.8" fill="#f7ecd2" opacity="0.62"/><circle cx="949" cy="44" r="0.8" fill="#f7ecd2" opacity="0.41"/><circle cx="710" cy="174" r="1.8" fill="#f7ecd2" opacity="0.75"/><circle cx="200" cy="63" r="1.8" fill="#f7ecd2" opacity="0.35"/><circle cx="307" cy="39" r="1.3" fill="#f7ecd2" opacity="0.58"/><circle cx="1055" cy="166" r="0.8" fill="#f7ecd2" opacity="0.65"/><circle cx="596" cy="276" r="1.8" fill="#f7ecd2" opacity="0.81"/><circle cx="826" cy="325" r="1.8" fill="#f7ecd2" opacity="0.35"/><circle cx="953" cy="241" r="0.8" fill="#f7ecd2" opacity="0.58"/><circle cx="761" cy="128" r="1.3" fill="#f7ecd2" opacity="0.43"/><circle cx="82" cy="218" r="0.8" fill="#f7ecd2" opacity="0.61"/><circle cx="1052" cy="87" r="1.8" fill="#f7ecd2" opacity="0.59"/><circle cx="1199" cy="283" r="0.8" fill="#f7ecd2" opacity="0.52"/><circle cx="67" cy="270" r="1.3" fill="#f7ecd2" opacity="0.75"/><circle cx="368" cy="140" r="1.3" fill="#f7ecd2" opacity="0.55"/><circle cx="878" cy="29" r="1.3" fill="#f7ecd2" opacity="0.47"/><circle cx="1045" cy="165" r="1.3" fill="#f7ecd2" opacity="0.60"/><circle cx="173" cy="52" r="0.8" fill="#f7ecd2" opacity="0.81"/><circle cx="254" cy="242" r="1.3" fill="#f7ecd2" opacity="0.53"/><circle cx="304" cy="151" r="1.8" fill="#f7ecd2" opacity="0.39"/><circle cx="491" cy="227" r="1.3" fill="#f7ecd2" opacity="0.42"/><circle cx="1079" cy="154" r="0.8" fill="#f7ecd2" opacity="0.51"/><circle cx="940" cy="324" r="1.3" fill="#f7ecd2" opacity="0.45"/><circle cx="530" cy="253" r="0.8" fill="#f7ecd2" opacity="0.75"/><circle cx="737" cy="269" r="1.3" fill="#f7ecd2" opacity="0.38"/><circle cx="385" cy="296" r="0.8" fill="#f7ecd2" opacity="0.45"/><circle cx="26" cy="106" r="0.8" fill="#f7ecd2" opacity="0.41"/><circle cx="356" cy="195" r="1.8" fill="#f7ecd2" opacity="0.55"/><circle cx="583" cy="151" r="1.8" fill="#f7ecd2" opacity="0.68"/><circle cx="491" cy="78" r="1.8" fill="#f7ecd2" opacity="0.83"/><circle cx="1112" cy="8" r="1.3" fill="#f7ecd2" opacity="0.81"/><circle cx="982" cy="117" r="1.3" fill="#f7ecd2" opacity="0.79"/><circle cx="29" cy="213" r="1.8" fill="#f7ecd2" opacity="0.62"/><circle cx="197" cy="40" r="0.8" fill="#f7ecd2" opacity="0.65"/><circle cx="598" cy="290" r="0.8" fill="#f7ecd2" opacity="0.55"/><circle cx="8" cy="79" r="0.8" fill="#f7ecd2" opacity="0.67"/><circle cx="275" cy="255" r="1.8" fill="#f7ecd2" opacity="0.60"/><circle cx="703" cy="322" r="1.8" fill="#f7ecd2" opacity="0.51"/><circle cx="884" cy="212" r="1.3" fill="#f7ecd2" opacity="0.43"/><circle cx="1034" cy="161" r="1.3" fill="#f7ecd2" opacity="0.59"/><circle cx="121" cy="137" r="0.8" fill="#f7ecd2" opacity="0.62"/><circle cx="809" cy="104" r="1.3" fill="#f7ecd2" opacity="0.71"/><circle cx="770" cy="314" r="1.3" fill="#f7ecd2" opacity="0.65"/><circle cx="460" cy="283" r="1.8" fill="#f7ecd2" opacity="0.65"/><circle cx="767" cy="339" r="1.8" fill="#f7ecd2" opacity="0.48"/><circle cx="515" cy="66" r="1.8" fill="#f7ecd2" opacity="0.75"/><circle cx="980" cy="120" r="42" fill="#f6ecd0" opacity="0.95"/><circle cx="996" cy="112" r="36" fill="url(#sky)" opacity="0.92"/>
<rect x="280" y="390" width="640" height="170" fill="#12141c"/><path d="M 306 390 l 22 -26 l 22 26 Z" fill="#12141c"/><path d="M 382 390 l 22 -26 l 22 26 Z" fill="#12141c"/><path d="M 458 390 l 22 -26 l 22 26 Z" fill="#12141c"/><path d="M 534 390 l 22 -26 l 22 26 Z" fill="#12141c"/><path d="M 610 390 l 22 -26 l 22 26 Z" fill="#12141c"/><path d="M 686 390 l 22 -26 l 22 26 Z" fill="#12141c"/><path d="M 762 390 l 22 -26 l 22 26 Z" fill="#12141c"/><path d="M 838 390 l 22 -26 l 22 26 Z" fill="#12141c"/><path d="M 680 390 C 680 313.5, 716.0 300, 760 300 C 804.0 300, 840 313.5, 840 390 Z" fill="#caa96a"/><line x1="760" y1="300" x2="760" y2="278" stroke="#d8b45a" stroke-width="3"/><circle cx="760" cy="274" r="4.5" fill="#d8b45a"/><path d="M 760 260 a 8 8 0 1 0 6 13 a 6.4 6.4 0 1 1 -6 -13 Z" fill="#d8b45a"/><path d="M 372 560 L 400 90 L 460 90 L 488 560 Z" fill="#12141c"/><path d="M 374.0 500 Q 430 476 478.0 466" fill="none" stroke="#d8b45a" stroke-width="5" opacity="0.85"/><path d="M 381.5 434 Q 430 410 470.5 400" fill="none" stroke="#d8b45a" stroke-width="5" opacity="0.85"/><path d="M 389.0 368 Q 430 344 463.0 334" fill="none" stroke="#d8b45a" stroke-width="5" opacity="0.85"/><path d="M 396.5 302 Q 430 278 455.5 268" fill="none" stroke="#d8b45a" stroke-width="5" opacity="0.85"/><path d="M 404.0 236 Q 430 212 448.0 202" fill="none" stroke="#d8b45a" stroke-width="5" opacity="0.85"/><path d="M 411.5 170 Q 430 146 440.5 136" fill="none" stroke="#d8b45a" stroke-width="5" opacity="0.85"/><rect x="414" y="56" width="32" height="34" fill="#12141c"/>
<rect x="0" y="560" width="1200" height="140" fill="#0c0e14"/>

<rect x="0" y="556" width="1200" height="4" fill="#d8b45a" opacity="0.55"/>
</svg>