<svg xmlns="http://www.w3.org/2000/svg" viewBox="0 0 1200 700" role="img">
<defs>
<linearGradient id="sky" x1="0" y1="0" x2="0" y2="1">
<stop offset="0" stop-color="#1f2f3a"/><stop offset="0.62" stop-color="#3f5a6a"/><stop offset="1" stop-color="#f2d9a0"/>
</linearGradient>
<pattern id="g1" width="120" height="120" patternUnits="userSpaceOnUse"><polygon points="111.6,60.0 80.0,68.3 96.5,96.5 68.3,80.0 60.0,111.6 51.7,80.0 23.5,96.5 40.0,68.3 8.4,60.0 40.0,51.7 23.5,23.5 51.7,40.0 60.0,8.4 68.3,40.0 96.5,23.5 80.0,51.7" fill="none" stroke="#e8d9a8" stroke-width="1.6" opacity="0.1"/><rect x="17.4" y="17.4" width="85.2" height="85.2" fill="none" stroke="#e8d9a8" stroke-width="1.6" opacity="0.06999999999999999" transform="rotate(45 60.0 60.0)"/></pattern>
</defs>
<rect width="1200" height="700" fill="url(#sky)"/>
<rect width="1200" height="700" fill="url(#g1)"/>
<circle cx="637" cy="167" r="0.8" fill="#f7ecd2" opacity="0.64"/><circle cx="1079" cy="68" r="1.3" fill="#f7ecd2" opacity="0.57"/><circle cx="1082" cy="0" r="1.8" fill="#f7ecd2" opacity="0.35"/><circle cx="238" cy="75" r="1.3" fill="#f7ecd2" opacity="0.35"/><circle cx="1163" cy="209" r="1.3" fill="#f7ecd2" opacity="0.52"/><circle cx="425" cy="50" r="1.3" fill="#f7ecd2" opacity="0.35"/><circle cx="688" cy="122" r="0.8" fill="#f7ecd2" opacity="0.71"/><circle cx="824" cy="217" r="0.8" fill="#f7ecd2" opacity="0.43"/><circle cx="89" cy="151" r="0.8" fill="#f7ecd2" opacity="0.74"/><circle cx="571" cy="192" r="1.3" fill="#f7ecd2" opacity="0.67"/><circle cx="1094" cy="184" r="0.8" fill="#f7ecd2" opacity="0.81"/><circle cx="1010" cy="59" r="1.3" fill="#f7ecd2" opacity="0.75"/><circle cx="1015" cy="53" r="0.8" fill="#f7ecd2" opacity="0.80"/><circle cx="317" cy="34" r="0.8" fill="#f7ecd2" opacity="0.63"/><circle cx="1100" cy="166" r="0.8" fill="#f7ecd2" opacity="0.35"/><circle cx="796" cy="41" r="0.8" fill="#f7ecd2" opacity="0.71"/><circle cx="341" cy="75" r="1.8" fill="#f7ecd2" opacity="0.60"/><circle cx="863" cy="36" r="1.8" fill="#f7ecd2" opacity="0.53"/><circle cx="706" cy="68" r="0.8" fill="#f7ecd2" opacity="0.43"/><circle cx="182" cy="163" r="0.8" fill="#f7ecd2" opacity="0.51"/><circle cx="467" cy="37" r="0.8" fill="#f7ecd2" opacity="0.64"/><circle cx="1009" cy="178" r="1.8" fill="#f7ecd2" opacity="0.37"/><circle cx="1112" cy="130" r="0.8" fill="#f7ecd2" opacity="0.45"/><circle cx="368" cy="5" r="1.3" fill="#f7ecd2" opacity="0.75"/><circle cx="193" cy="139" r="1.8" fill="#f7ecd2" opacity="0.62"/><circle cx="755" cy="20" r="1.3" fill="#f7ecd2" opacity="0.35"/><circle cx="1118" cy="112" r="0.8" fill="#f7ecd2" opacity="0.51"/><circle cx="154" cy="207" r="1.3" fill="#f7ecd2" opacity="0.63"/><circle cx="719" cy="181" r="0.8" fill="#f7ecd2" opacity="0.74"/><circle cx="101" cy="2" r="1.3" fill="#f7ecd2" opacity="0.37"/><circle cx="960" cy="210" r="110.00000000000001" fill="#f2d9a0" opacity="0.18"/><circle cx="960" cy="210" r="50" fill="#f2d9a0" opacity="0.9"/>
<rect x="300" y="440" width="600" height="120" fill="#12141c"/><path d="M 270 440 Q 600 395 930 440 L 900 410 Q 600 368 300 410 Z" fill="#12141c"/><rect x="540.0" y="312" width="120" height="58" fill="#12141c"/><path d="M 506.0 312 Q 600 282 694.0 312 L 674.0 290 Q 600 266 526.0 290 Z" fill="#12141c"/><rect x="553.0" y="217" width="94" height="58" fill="#12141c"/><path d="M 519.0 217 Q 600 187 681.0 217 L 661.0 195 Q 600 171 539.0 195 Z" fill="#12141c"/><rect x="566.0" y="122" width="68" height="58" fill="#12141c"/><path d="M 532.0 122 Q 600 92 668.0 122 L 648.0 100 Q 600 76 552.0 100 Z" fill="#12141c"/><line x1="600" y1="78" x2="600" y2="46" stroke="#d8b45a" stroke-width="4"/><circle cx="600" cy="42" r="6" fill="#d8b45a"/>
<rect x="0" y="560" width="1200" height="140" fill="#0c0e14"/>

<rect x="0" y="556" width="1200" height="4" fill="#d8b45a" opacity="0.55"/>
</svg>