<svg xmlns="http://www.w3.org/2000/svg" viewBox="0 0 1200 700" role="img">
<defs>
<linearGradient id="sky" x1="0" y1="0" x2="0" y2="1">
<stop offset="0" stop-color="#1f2f3a"/><stop offset="0.62" stop-color="#3f5a6a"/><stop offset="1" stop-color="#f2d9a0"/>
</linearGradient>
<pattern id="g1" width="120" height="120" patternUnits="userSpaceOnUse"><polygon points="111.6,60.0 80.0,68.3 96.5,96.5 68.3,80.0 60.0,111.6 51.7,80.0 23.5,96.5 40.0,68.3 8.4,60.0 40.0,51.7 23.5,23.5 51.7,40.0 60.0,8.4 68.3,40.0 96.5,23.5 80.0,51.7" fill="none" stroke="#e8d9a8" stroke-width="1.6" opacity="0.1"/><rect x="17.4" y="17.4" width="85.2" height="85.2" fill="none" stroke="#e8d9a8" stroke-width="1.6" opacity="0.06999999999999999" transform="rotate(45 60.0 60.0)"/></pattern>
</defs>
<rect width="1200" height="700" fill="url(#sky)"/>
<rect width="1200" height="700" fill="url(#g1)"/>
<circle cx="1000" cy="200" r="0.8" fill="#f7ecd2" opacity="0.35"/><circle cx="1178" cy="57" r="1.8" fill="#f7ecd2" opacity="0.81"/><circle cx="1109" cy="177" r="1.8" fill="#f7ecd2" opacity="0.78"/><circle cx="1009" cy="216" r="1.3" fill="#f7ecd2" opacity="0.79"/><circle cx="1046" cy="102" r="1.8" fill="#f7ecd2" opacity="0.77"/><circle cx="284" cy="79" r="0.8" fill="#f7ecd2" opacity="0.71"/><circle cx="1195" cy="219" r="1.3" fill="#f7ecd2" opacity="0.40"/><circle cx="635" cy="78" r="1.8" fill="#f7ecd2" opacity="0.65"/><circle cx="692" cy="144" r="1.8" fill="#f7ecd2" opacity="0.83"/><circle cx="190" cy="41" r="0.8" fill="#f7ecd2" opacity="0.75"/><circle cx="881" cy="181" r="0.8" fill="#f7ecd2" opacity="0.46"/><circle cx="1061" cy="100" r="0.8" fill="#f7ecd2" opacity="0.35"/><circle cx="1138" cy="126" r="1.3" fill="#f7ecd2" opacity="0.73"/><circle cx="896" cy="163" r="0.8" fill="#f7ecd2" opacity="0.83"/><circle cx="167" cy="63" r="1.8" fill="#f7ecd2" opacity="0.56"/><circle cx="1087" cy="42" r="1.3" fill="#f7ecd2" opacity="0.39"/><circle cx="1184" cy="28" r="0.8" fill="#f7ecd2" opacity="0.37"/><circle cx="2" cy="185" r="1.3" fill="#f7ecd2" opacity="0.55"/><circle cx="253" cy="105" r="1.3" fill="#f7ecd2" opacity="0.50"/><circle cx="713" cy="124" r="0.8" fill="#f7ecd2" opacity="0.47"/><circle cx="830" cy="70" r="0.8" fill="#f7ecd2" opacity="0.35"/><circle cx="1108" cy="167" r="0.8" fill="#f7ecd2" opacity="0.71"/><circle cx="1139" cy="87" r="1.8" fill="#f7ecd2" opacity="0.78"/><circle cx="1139" cy="146" r="1.3" fill="#f7ecd2" opacity="0.79"/><circle cx="76" cy="32" r="0.8" fill="#f7ecd2" opacity="0.67"/><circle cx="614" cy="49" r="0.8" fill="#f7ecd2" opacity="0.71"/><circle cx="425" cy="189" r="1.8" fill="#f7ecd2" opacity="0.60"/><circle cx="1165" cy="88" r="1.8" fill="#f7ecd2" opacity="0.55"/><circle cx="122" cy="154" r="0.8" fill="#f7ecd2" opacity="0.73"/><circle cx="920" cy="91" r="0.8" fill="#f7ecd2" opacity="0.55"/><circle cx="960" cy="210" r="110.00000000000001" fill="#f2d9a0" opacity="0.18"/><circle cx="960" cy="210" r="50" fill="#f2d9a0" opacity="0.9"/>
<rect x="300" y="440" width="600" height="120" fill="#12141c"/><path d="M 270 440 Q 600 395 930 440 L 900 410 Q 600 368 300 410 Z" fill="#12141c"/><rect x="540.0" y="312" width="120" height="58" fill="#12141c"/><path d="M 506.0 312 Q 600 282 694.0 312 L 674.0 290 Q 600 266 526.0 290 Z" fill="#12141c"/><rect x="553.0" y="217" width="94" height="58" fill="#12141c"/><path d="M 519.0 217 Q 600 187 681.0 217 L 661.0 195 Q 600 171 539.0 195 Z" fill="#12141c"/><rect x="566.0" y="122" width="68" height="58" fill="#12141c"/><path d="M 532.0 122 Q 600 92 668.0 122 L 648.0 100 Q 600 76 552.0 100 Z" fill="#12141c"/><line x1="600" y1="78" x2="600" y2="46" stroke="#d8b45a" stroke-width="4"/><circle cx="600" cy="42" r="6" fill="#d8b45a"/>
<rect x="0" y="560" width="1200" height="140" fill="#0c0e14"/>

<rect x="0" y="556" width="1200" height="4" fill="#d8b45a" opacity="0.55"/>
</svg>