<svg xmlns="http://www.w3.org/2000/svg" viewBox="0 0 1200 700" role="img">
<defs>
<linearGradient id="sky" x1="0" y1="0" x2="0" y2="1">
<stop offset="0" stop-color="#0a1026"/><stop offset="0.62" stop-color="#152046"/><stop offset="1" stop-color="#2b3a6b"/>
</linearGradient>
<pattern id="g1" width="120" height="120" patternUnits="userSpaceOnUse"><polygon points="111.6,60.0 80.0,68.3 96.5,96.5 68.3,80.0 60.0,111.6 51.7,80.0 23.5,96.5 40.0,68.3 8.4,60.0 40.0,51.7 23.5,23.5 51.7,40.0 60.0,8.4 68.3,40.0 96.5,23.5 80.0,51.7" fill="none" stroke="#e8d9a8" stroke-width="1.6" opacity="0.1"/><rect x="17.4" y="17.4" width="85.2" height="85.2" fill="none" stroke="#e8d9a8" stroke-width="1.6" opacity="0.06999999999999999" transform="rotate(45 60.0 60.0)"/></pattern>
</defs>
<rect width="1200" height="700" fill="url(#sky)"/>
<rect width="1200" height="700" fill="url(#g1)"/>
<circle cx="389" cy="159" r="1.8" fill="#f7ecd2" opacity="0.36"/><circle cx="975" cy="24" r="0.8" fill="#f7ecd2" opacity="0.35"/><circle cx="690" cy="88" r="1.3" fill="#f7ecd2" opacity="0.55"/><circle cx="422" cy="339" r="1.8" fill="#f7ecd2" opacity="0.43"/><circle cx="195" cy="161" r="1.8" fill="#f7ecd2" opacity="0.80"/><circle cx="561" cy="6" r="0.8" fill="#f7ecd2" opacity="0.51"/><circle cx="1016" cy="230" r="1.3" fill="#f7ecd2" opacity="0.65"/><circle cx="768" cy="81" r="0.8" fill="#f7ecd2" opacity="0.43"/><circle cx="801" cy="143" r="1.8" fill="#f7ecd2" opacity="0.78"/><circle cx="947" cy="308" r="1.3" fill="#f7ecd2" opacity="0.61"/><circle cx="942" cy="212" r="1.8" fill="#f7ecd2" opacity="0.39"/><circle cx="714" cy="3" r="0.8" fill="#f7ecd2" opacity="0.77"/><circle cx="1007" cy="305" r="1.3" fill="#f7ecd2" opacity="0.70"/><circle cx="933" cy="110" r="1.8" fill="#f7ecd2" opacity="0.65"/><circle cx="468" cy="34" r="1.3" fill="#f7ecd2" opacity="0.47"/><circle cx="260" cy="105" r="1.8" fill="#f7ecd2" opacity="0.35"/><circle cx="813" cy="307" r="1.3" fill="#f7ecd2" opacity="0.76"/><circle cx="519" cy="92" r="1.8" fill="#f7ecd2" opacity="0.83"/><circle cx="794" cy="176" r="1.3" fill="#f7ecd2" opacity="0.79"/><circle cx="606" cy="187" r="1.3" fill="#f7ecd2" opacity="0.57"/><circle cx="219" cy="149" r="1.8" fill="#f7ecd2" opacity="0.66"/><circle cx="905" cy="54" r="1.8" fill="#f7ecd2" opacity="0.55"/><circle cx="720" cy="158" r="1.8" fill="#f7ecd2" opacity="0.45"/><circle cx="552" cy="109" r="1.3" fill="#f7ecd2" opacity="0.53"/><circle cx="425" cy="311" r="1.3" fill="#f7ecd2" opacity="0.60"/><circle cx="891" cy="196" r="1.3" fill="#f7ecd2" opacity="0.71"/><circle cx="246" cy="320" r="1.8" fill="#f7ecd2" opacity="0.55"/><circle cx="98" cy="211" r="0.8" fill="#f7ecd2" opacity="0.63"/><circle cx="231" cy="313" r="1.3" fill="#f7ecd2" opacity="0.38"/><circle cx="477" cy="178" r="1.3" fill="#f7ecd2" opacity="0.41"/><circle cx="572" cy="122" r="1.3" fill="#f7ecd2" opacity="0.69"/><circle cx="444" cy="293" r="1.8" fill="#f7ecd2" opacity="0.77"/><circle cx="837" cy="295" r="1.3" fill="#f7ecd2" opacity="0.50"/><circle cx="863" cy="140" r="1.3" fill="#f7ecd2" opacity="0.55"/><circle cx="498" cy="104" r="1.8" fill="#f7ecd2" opacity="0.77"/><circle cx="390" cy="215" r="1.8" fill="#f7ecd2" opacity="0.35"/><circle cx="1043" cy="117" r="1.8" fill="#f7ecd2" opacity="0.66"/><circle cx="849" cy="282" r="0.8" fill="#f7ecd2" opacity="0.53"/><circle cx="24" cy="266" r="1.8" fill="#f7ecd2" opacity="0.69"/><circle cx="1136" cy="117" r="1.8" fill="#f7ecd2" opacity="0.47"/><circle cx="849" cy="119" r="1.8" fill="#f7ecd2" opacity="0.66"/><circle cx="435" cy="264" r="0.8" fill="#f7ecd2" opacity="0.75"/><circle cx="350" cy="68" r="1.3" fill="#f7ecd2" opacity="0.35"/><circle cx="282" cy="59" r="1.8" fill="#f7ecd2" opacity="0.73"/><circle cx="255" cy="301" r="1.3" fill="#f7ecd2" opacity="0.40"/><circle cx="821" cy="226" r="0.8" fill="#f7ecd2" opacity="0.81"/><circle cx="276" cy="50" r="1.8" fill="#f7ecd2" opacity="0.35"/><circle cx="228" cy="321" r="0.8" fill="#f7ecd2" opacity="0.73"/><circle cx="461" cy="123" r="1.8" fill="#f7ecd2" opacity="0.38"/><circle cx="807" cy="28" r="1.3" fill="#f7ecd2" opacity="0.81"/><circle cx="1002" cy="12" r="0.8" fill="#f7ecd2" opacity="0.59"/><circle cx="974" cy="223" r="0.8" fill="#f7ecd2" opacity="0.37"/><circle cx="267" cy="125" r="1.8" fill="#f7ecd2" opacity="0.60"/><circle cx="393" cy="10" r="1.3" fill="#f7ecd2" opacity="0.65"/><circle cx="128" cy="14" r="1.3" fill="#f7ecd2" opacity="0.77"/><circle cx="120" cy="165" r="0.8" fill="#f7ecd2" opacity="0.35"/><circle cx="873" cy="107" r="1.8" fill="#f7ecd2" opacity="0.46"/><circle cx="779" cy="312" r="1.8" fill="#f7ecd2" opacity="0.83"/><circle cx="54" cy="336" r="0.8" fill="#f7ecd2" opacity="0.79"/><circle cx="66" cy="87" r="0.8" fill="#f7ecd2" opacity="0.77"/><circle cx="980" cy="120" r="42" fill="#f6ecd0" opacity="0.95"/><circle cx="996" cy="112" r="36" fill="url(#sky)" opacity="0.92"/>
<rect x="300" y="440" width="600" height="120" fill="#12141c"/><path d="M 270 440 Q 600 395 930 440 L 900 410 Q 600 368 300 410 Z" fill="#12141c"/><rect x="540.0" y="312" width="120" height="58" fill="#12141c"/><path d="M 506.0 312 Q 600 282 694.0 312 L 674.0 290 Q 600 266 526.0 290 Z" fill="#12141c"/><rect x="553.0" y="217" width="94" height="58" fill="#12141c"/><path d="M 519.0 217 Q 600 187 681.0 217 L 661.0 195 Q 600 171 539.0 195 Z" fill="#12141c"/><rect x="566.0" y="122" width="68" height="58" fill="#12141c"/><path d="M 532.0 122 Q 600 92 668.0 122 L 648.0 100 Q 600 76 552.0 100 Z" fill="#12141c"/><line x1="600" y1="78" x2="600" y2="46" stroke="#d8b45a" stroke-width="4"/><circle cx="600" cy="42" r="6" fill="#d8b45a"/>
<rect x="0" y="560" width="1200" height="140" fill="#0c0e14"/>

<rect x="0" y="556" width="1200" height="4" fill="#d8b45a" opacity="0.55"/>
</svg>