<svg xmlns="http://www.w3.org/2000/svg" viewBox="0 0 1200 700" role="img">
<defs>
<linearGradient id="sky" x1="0" y1="0" x2="0" y2="1">
<stop offset="0" stop-color="#0a1026"/><stop offset="0.62" stop-color="#152046"/><stop offset="1" stop-color="#2b3a6b"/>
</linearGradient>
<pattern id="g1" width="120" height="120" patternUnits="userSpaceOnUse"><polygon points="111.6,60.0 80.0,68.3 96.5,96.5 68.3,80.0 60.0,111.6 51.7,80.0 23.5,96.5 40.0,68.3 8.4,60.0 40.0,51.7 23.5,23.5 51.7,40.0 60.0,8.4 68.3,40.0 96.5,23.5 80.0,51.7" fill="none" stroke="#e8d9a8" stroke-width="1.6" opacity="0.1"/><rect x="17.4" y="17.4" width="85.2" height="85.2" fill="none" stroke="#e8d9a8" stroke-width="1.6" opacity="0.06999999999999999" transform="rotate(45 60.0 60.0)"/></pattern>
</defs>
<rect width="1200" height="700" fill="url(#sky)"/>
<rect width="1200" height="700" fill="url(#g1)"/>
<circle cx="748" cy="68" r="0.8" fill="#f7ecd2" opacity="0.49"/><circle cx="782" cy="161" r="1.3" fill="#f7ecd2" opacity="0.37"/><circle cx="1001" cy="209" r="1.3" fill="#f7ecd2" opacity="0.44"/><circle cx="325" cy="52" r="1.8" fill="#f7ecd2" opacity="0.35"/><circle cx="314" cy="110" r="1.3" fill="#f7ecd2" opacity="0.75"/><circle cx="848" cy="63" r="1.8" fill="#f7ecd2" opacity="0.59"/><circle cx="367" cy="171" r="1.3" fill="#f7ecd2" opacity="0.42"/><circle cx="191" cy="214" r="0.8" fill="#f7ecd2" opacity="0.59"/><circle cx="680" cy="132" r="1.8" fill="#f7ecd2" opacity="0.45"/><circle cx="514" cy="145" r="1.8" fill="#f7ecd2" opacity="0.65"/><circle cx="533" cy="113" r="1.3" fill="#f7ecd2" opacity="0.64"/><circle cx="857" cy="16" r="0.8" fill="#f7ecd2" opacity="0.47"/><circle cx="646" cy="334" r="1.8" fill="#f7ecd2" opacity="0.49"/><circle cx="980" cy="207" r="1.8" fill="#f7ecd2" opacity="0.45"/><circle cx="299" cy="235" r="0.8" fill="#f7ecd2" opacity="0.50"/><circle cx="1123" cy="338" r="0.8" fill="#f7ecd2" opacity="0.59"/><circle cx="212" cy="36" r="1.8" fill="#f7ecd2" opacity="0.67"/><circle cx="1046" cy="109" r="0.8" fill="#f7ecd2" opacity="0.49"/><circle cx="865" cy="337" r="1.8" fill="#f7ecd2" opacity="0.40"/><circle cx="989" cy="160" r="0.8" fill="#f7ecd2" opacity="0.75"/><circle cx="578" cy="58" r="0.8" fill="#f7ecd2" opacity="0.59"/><circle cx="712" cy="191" r="0.8" fill="#f7ecd2" opacity="0.77"/><circle cx="1031" cy="279" r="1.8" fill="#f7ecd2" opacity="0.84"/><circle cx="455" cy="162" r="1.8" fill="#f7ecd2" opacity="0.45"/><circle cx="544" cy="260" r="0.8" fill="#f7ecd2" opacity="0.75"/><circle cx="1178" cy="253" r="0.8" fill="#f7ecd2" opacity="0.69"/><circle cx="797" cy="61" r="0.8" fill="#f7ecd2" opacity="0.52"/><circle cx="721" cy="144" r="1.3" fill="#f7ecd2" opacity="0.59"/><circle cx="110" cy="302" r="1.3" fill="#f7ecd2" opacity="0.55"/><circle cx="44" cy="15" r="1.8" fill="#f7ecd2" opacity="0.45"/><circle cx="163" cy="23" r="0.8" fill="#f7ecd2" opacity="0.84"/><circle cx="587" cy="306" r="1.8" fill="#f7ecd2" opacity="0.57"/><circle cx="476" cy="324" r="1.8" fill="#f7ecd2" opacity="0.59"/><circle cx="910" cy="237" r="1.3" fill="#f7ecd2" opacity="0.55"/><circle cx="329" cy="305" r="1.3" fill="#f7ecd2" opacity="0.80"/><circle cx="53" cy="308" r="1.3" fill="#f7ecd2" opacity="0.59"/><circle cx="442" cy="186" r="1.3" fill="#f7ecd2" opacity="0.47"/><circle cx="176" cy="159" r="1.8" fill="#f7ecd2" opacity="0.69"/><circle cx="95" cy="87" r="1.8" fill="#f7ecd2" opacity="0.50"/><circle cx="319" cy="290" r="0.8" fill="#f7ecd2" opacity="0.45"/><circle cx="8" cy="228" r="1.8" fill="#f7ecd2" opacity="0.59"/><circle cx="242" cy="61" r="0.8" fill="#f7ecd2" opacity="0.47"/><circle cx="661" cy="189" r="1.3" fill="#f7ecd2" opacity="0.64"/><circle cx="185" cy="112" r="0.8" fill="#f7ecd2" opacity="0.55"/><circle cx="374" cy="250" r="0.8" fill="#f7ecd2" opacity="0.35"/><circle cx="1108" cy="283" r="1.8" fill="#f7ecd2" opacity="0.49"/><circle cx="827" cy="131" r="1.3" fill="#f7ecd2" opacity="0.72"/><circle cx="851" cy="254" r="1.3" fill="#f7ecd2" opacity="0.39"/><circle cx="340" cy="112" r="1.8" fill="#f7ecd2" opacity="0.65"/><circle cx="374" cy="205" r="0.8" fill="#f7ecd2" opacity="0.55"/><circle cx="593" cy="253" r="0.8" fill="#f7ecd2" opacity="0.64"/><circle cx="1117" cy="236" r="0.8" fill="#f7ecd2" opacity="0.47"/><circle cx="1106" cy="294" r="1.8" fill="#f7ecd2" opacity="0.49"/><circle cx="440" cy="107" r="1.3" fill="#f7ecd2" opacity="0.65"/><circle cx="1159" cy="15" r="1.3" fill="#f7ecd2" opacity="0.70"/><circle cx="983" cy="58" r="0.8" fill="#f7ecd2" opacity="0.49"/><circle cx="272" cy="176" r="1.3" fill="#f7ecd2" opacity="0.57"/><circle cx="106" cy="189" r="1.3" fill="#f7ecd2" opacity="0.69"/><circle cx="125" cy="157" r="0.8" fill="#f7ecd2" opacity="0.60"/><circle cx="449" cy="60" r="1.8" fill="#f7ecd2" opacity="0.75"/><circle cx="980" cy="120" r="42" fill="#f6ecd0" opacity="0.95"/><circle cx="996" cy="112" r="36" fill="url(#sky)" opacity="0.92"/>
<rect x="300" y="440" width="600" height="120" fill="#12141c"/><path d="M 270 440 Q 600 395 930 440 L 900 410 Q 600 368 300 410 Z" fill="#12141c"/><rect x="540.0" y="312" width="120" height="58" fill="#12141c"/><path d="M 506.0 312 Q 600 282 694.0 312 L 674.0 290 Q 600 266 526.0 290 Z" fill="#12141c"/><rect x="553.0" y="217" width="94" height="58" fill="#12141c"/><path d="M 519.0 217 Q 600 187 681.0 217 L 661.0 195 Q 600 171 539.0 195 Z" fill="#12141c"/><rect x="566.0" y="122" width="68" height="58" fill="#12141c"/><path d="M 532.0 122 Q 600 92 668.0 122 L 648.0 100 Q 600 76 552.0 100 Z" fill="#12141c"/><line x1="600" y1="78" x2="600" y2="46" stroke="#d8b45a" stroke-width="4"/><circle cx="600" cy="42" r="6" fill="#d8b45a"/>
<rect x="0" y="560" width="1200" height="140" fill="#0c0e14"/>

<rect x="0" y="556" width="1200" height="4" fill="#d8b45a" opacity="0.55"/>
</svg>