<svg xmlns="http://www.w3.org/2000/svg" viewBox="0 0 1200 700" role="img">
<defs>
<linearGradient id="sky" x1="0" y1="0" x2="0" y2="1">
<stop offset="0" stop-color="#0a1026"/><stop offset="0.62" stop-color="#152046"/><stop offset="1" stop-color="#2b3a6b"/>
</linearGradient>
<pattern id="g1" width="120" height="120" patternUnits="userSpaceOnUse"><polygon points="111.6,60.0 80.0,68.3 96.5,96.5 68.3,80.0 60.0,111.6 51.7,80.0 23.5,96.5 40.0,68.3 8.4,60.0 40.0,51.7 23.5,23.5 51.7,40.0 60.0,8.4 68.3,40.0 96.5,23.5 80.0,51.7" fill="none" stroke="#e8d9a8" stroke-width="1.6" opacity="0.1"/><rect x="17.4" y="17.4" width="85.2" height="85.2" fill="none" stroke="#e8d9a8" stroke-width="1.6" opacity="0.06999999999999999" transform="rotate(45 60.0 60.0)"/></pattern>
</defs>
<rect width="1200" height="700" fill="url(#sky)"/>
<rect width="1200" height="700" fill="url(#g1)"/>
<circle cx="816" cy="136" r="1.3" fill="#f7ecd2" opacity="0.61"/><circle cx="946" cy="145" r="1.8" fill="#f7ecd2" opacity="0.55"/><circle cx="973" cy="21" r="1.3" fill="#f7ecd2" opacity="0.68"/><circle cx="681" cy="208" r="1.3" fill="#f7ecd2" opacity="0.83"/><circle cx="1102" cy="58" r="1.8" fill="#f7ecd2" opacity="0.51"/><circle cx="772" cy="87" r="1.3" fill="#f7ecd2" opacity="0.49"/><circle cx="819" cy="243" r="0.8" fill="#f7ecd2" opacity="0.52"/><circle cx="787" cy="330" r="1.3" fill="#f7ecd2" opacity="0.45"/><circle cx="988" cy="160" r="1.8" fill="#f7ecd2" opacity="0.65"/><circle cx="198" cy="209" r="1.8" fill="#f7ecd2" opacity="0.67"/><circle cx="265" cy="305" r="0.8" fill="#f7ecd2" opacity="0.60"/><circle cx="493" cy="292" r="1.8" fill="#f7ecd2" opacity="0.41"/><circle cx="474" cy="102" r="0.8" fill="#f7ecd2" opacity="0.83"/><circle cx="424" cy="311" r="0.8" fill="#f7ecd2" opacity="0.49"/><circle cx="511" cy="7" r="1.8" fill="#f7ecd2" opacity="0.62"/><circle cx="999" cy="234" r="0.8" fill="#f7ecd2" opacity="0.51"/><circle cx="760" cy="24" r="1.3" fill="#f7ecd2" opacity="0.75"/><circle cx="250" cy="253" r="1.8" fill="#f7ecd2" opacity="0.35"/><circle cx="357" cy="229" r="1.3" fill="#f7ecd2" opacity="0.38"/><circle cx="1105" cy="16" r="1.8" fill="#f7ecd2" opacity="0.65"/><circle cx="646" cy="126" r="1.3" fill="#f7ecd2" opacity="0.81"/><circle cx="876" cy="175" r="1.3" fill="#f7ecd2" opacity="0.35"/><circle cx="1003" cy="91" r="1.8" fill="#f7ecd2" opacity="0.58"/><circle cx="811" cy="318" r="1.3" fill="#f7ecd2" opacity="0.83"/><circle cx="132" cy="68" r="1.8" fill="#f7ecd2" opacity="0.61"/><circle cx="1102" cy="277" r="1.8" fill="#f7ecd2" opacity="0.39"/><circle cx="49" cy="333" r="1.3" fill="#f7ecd2" opacity="0.52"/><circle cx="117" cy="120" r="0.8" fill="#f7ecd2" opacity="0.75"/><circle cx="418" cy="330" r="1.3" fill="#f7ecd2" opacity="0.75"/><circle cx="928" cy="219" r="1.3" fill="#f7ecd2" opacity="0.67"/><circle cx="1095" cy="15" r="0.8" fill="#f7ecd2" opacity="0.60"/><circle cx="223" cy="242" r="0.8" fill="#f7ecd2" opacity="0.51"/><circle cx="304" cy="92" r="0.8" fill="#f7ecd2" opacity="0.53"/><circle cx="354" cy="1" r="1.3" fill="#f7ecd2" opacity="0.39"/><circle cx="541" cy="77" r="0.8" fill="#f7ecd2" opacity="0.42"/><circle cx="1129" cy="4" r="1.8" fill="#f7ecd2" opacity="0.51"/><circle cx="990" cy="174" r="0.8" fill="#f7ecd2" opacity="0.45"/><circle cx="580" cy="103" r="1.8" fill="#f7ecd2" opacity="0.75"/><circle cx="787" cy="119" r="0.8" fill="#f7ecd2" opacity="0.38"/><circle cx="435" cy="146" r="1.8" fill="#f7ecd2" opacity="0.45"/><circle cx="76" cy="296" r="0.8" fill="#f7ecd2" opacity="0.81"/><circle cx="406" cy="45" r="1.3" fill="#f7ecd2" opacity="0.55"/><circle cx="633" cy="1" r="1.3" fill="#f7ecd2" opacity="0.68"/><circle cx="541" cy="268" r="1.8" fill="#f7ecd2" opacity="0.73"/><circle cx="1162" cy="198" r="1.3" fill="#f7ecd2" opacity="0.61"/><circle cx="1032" cy="307" r="1.3" fill="#f7ecd2" opacity="0.59"/><circle cx="79" cy="63" r="1.3" fill="#f7ecd2" opacity="0.62"/><circle cx="247" cy="230" r="0.8" fill="#f7ecd2" opacity="0.45"/><circle cx="648" cy="140" r="1.8" fill="#f7ecd2" opacity="0.55"/><circle cx="58" cy="269" r="0.8" fill="#f7ecd2" opacity="0.37"/><circle cx="325" cy="105" r="1.3" fill="#f7ecd2" opacity="0.60"/><circle cx="753" cy="172" r="1.3" fill="#f7ecd2" opacity="0.51"/><circle cx="934" cy="62" r="0.8" fill="#f7ecd2" opacity="0.43"/><circle cx="1084" cy="11" r="0.8" fill="#f7ecd2" opacity="0.59"/><circle cx="171" cy="327" r="0.8" fill="#f7ecd2" opacity="0.52"/><circle cx="859" cy="294" r="1.3" fill="#f7ecd2" opacity="0.81"/><circle cx="820" cy="164" r="0.8" fill="#f7ecd2" opacity="0.65"/><circle cx="510" cy="133" r="1.3" fill="#f7ecd2" opacity="0.65"/><circle cx="817" cy="189" r="1.3" fill="#f7ecd2" opacity="0.48"/><circle cx="565" cy="256" r="1.8" fill="#f7ecd2" opacity="0.75"/><circle cx="980" cy="120" r="42" fill="#f6ecd0" opacity="0.95"/><circle cx="996" cy="112" r="36" fill="url(#sky)" opacity="0.92"/>
<rect x="300" y="440" width="600" height="120" fill="#12141c"/><path d="M 270 440 Q 600 395 930 440 L 900 410 Q 600 368 300 410 Z" fill="#12141c"/><rect x="540.0" y="312" width="120" height="58" fill="#12141c"/><path d="M 506.0 312 Q 600 282 694.0 312 L 674.0 290 Q 600 266 526.0 290 Z" fill="#12141c"/><rect x="553.0" y="217" width="94" height="58" fill="#12141c"/><path d="M 519.0 217 Q 600 187 681.0 217 L 661.0 195 Q 600 171 539.0 195 Z" fill="#12141c"/><rect x="566.0" y="122" width="68" height="58" fill="#12141c"/><path d="M 532.0 122 Q 600 92 668.0 122 L 648.0 100 Q 600 76 552.0 100 Z" fill="#12141c"/><line x1="600" y1="78" x2="600" y2="46" stroke="#d8b45a" stroke-width="4"/><circle cx="600" cy="42" r="6" fill="#d8b45a"/>
<rect x="0" y="560" width="1200" height="140" fill="#0c0e14"/>

<rect x="0" y="556" width="1200" height="4" fill="#d8b45a" opacity="0.55"/>
</svg>