<svg xmlns="http://www.w3.org/2000/svg" viewBox="0 0 1200 700" role="img">
<defs>
<linearGradient id="sky" x1="0" y1="0" x2="0" y2="1">
<stop offset="0" stop-color="#0a1026"/><stop offset="0.62" stop-color="#152046"/><stop offset="1" stop-color="#2b3a6b"/>
</linearGradient>
<pattern id="g1" width="120" height="120" patternUnits="userSpaceOnUse"><polygon points="111.6,60.0 80.0,68.3 96.5,96.5 68.3,80.0 60.0,111.6 51.7,80.0 23.5,96.5 40.0,68.3 8.4,60.0 40.0,51.7 23.5,23.5 51.7,40.0 60.0,8.4 68.3,40.0 96.5,23.5 80.0,51.7" fill="none" stroke="#e8d9a8" stroke-width="1.6" opacity="0.1"/><rect x="17.4" y="17.4" width="85.2" height="85.2" fill="none" stroke="#e8d9a8" stroke-width="1.6" opacity="0.06999999999999999" transform="rotate(45 60.0 60.0)"/></pattern>
</defs>
<rect width="1200" height="700" fill="url(#sky)"/>
<rect width="1200" height="700" fill="url(#g1)"/>
<circle cx="81" cy="131" r="1.8" fill="#f7ecd2" opacity="0.46"/><circle cx="91" cy="160" r="1.8" fill="#f7ecd2" opacity="0.45"/><circle cx="958" cy="236" r="0.8" fill="#f7ecd2" opacity="0.73"/><circle cx="786" cy="63" r="0.8" fill="#f7ecd2" opacity="0.53"/><circle cx="367" cy="53" r="0.8" fill="#f7ecd2" opacity="0.36"/><circle cx="1117" cy="242" r="0.8" fill="#f7ecd2" opacity="0.49"/><circle cx="804" cy="118" r="1.3" fill="#f7ecd2" opacity="0.57"/><circle cx="892" cy="185" r="0.8" fill="#f7ecd2" opacity="0.55"/><circle cx="253" cy="155" r="0.8" fill="#f7ecd2" opacity="0.50"/><circle cx="543" cy="24" r="0.8" fill="#f7ecd2" opacity="0.67"/><circle cx="250" cy="180" r="1.3" fill="#f7ecd2" opacity="0.35"/><circle cx="598" cy="147" r="1.3" fill="#f7ecd2" opacity="0.41"/><circle cx="939" cy="237" r="0.8" fill="#f7ecd2" opacity="0.78"/><circle cx="769" cy="126" r="1.3" fill="#f7ecd2" opacity="0.79"/><circle cx="496" cy="222" r="1.3" fill="#f7ecd2" opacity="0.47"/><circle cx="1104" cy="89" r="1.8" fill="#f7ecd2" opacity="0.41"/><circle cx="25" cy="19" r="1.8" fill="#f7ecd2" opacity="0.60"/><circle cx="595" cy="68" r="0.8" fill="#f7ecd2" opacity="0.45"/><circle cx="342" cy="104" r="1.8" fill="#f7ecd2" opacity="0.53"/><circle cx="10" cy="71" r="0.8" fill="#f7ecd2" opacity="0.45"/><circle cx="1111" cy="261" r="1.3" fill="#f7ecd2" opacity="0.56"/><circle cx="21" cy="190" r="1.3" fill="#f7ecd2" opacity="0.75"/><circle cx="988" cy="306" r="1.3" fill="#f7ecd2" opacity="0.63"/><circle cx="916" cy="173" r="0.8" fill="#f7ecd2" opacity="0.53"/><circle cx="597" cy="203" r="1.8" fill="#f7ecd2" opacity="0.76"/><circle cx="247" cy="292" r="1.8" fill="#f7ecd2" opacity="0.59"/><circle cx="34" cy="208" r="1.8" fill="#f7ecd2" opacity="0.57"/><circle cx="222" cy="315" r="0.8" fill="#f7ecd2" opacity="0.65"/><circle cx="883" cy="125" r="0.8" fill="#f7ecd2" opacity="0.60"/><circle cx="73" cy="234" r="1.3" fill="#f7ecd2" opacity="0.67"/><circle cx="1080" cy="230" r="1.8" fill="#f7ecd2" opacity="0.35"/><circle cx="328" cy="97" r="1.8" fill="#f7ecd2" opacity="0.51"/><circle cx="769" cy="227" r="0.8" fill="#f7ecd2" opacity="0.48"/><circle cx="699" cy="156" r="0.8" fill="#f7ecd2" opacity="0.79"/><circle cx="526" cy="292" r="1.8" fill="#f7ecd2" opacity="0.77"/><circle cx="34" cy="59" r="0.8" fill="#f7ecd2" opacity="0.41"/><circle cx="255" cy="169" r="1.3" fill="#f7ecd2" opacity="0.80"/><circle cx="925" cy="258" r="1.3" fill="#f7ecd2" opacity="0.35"/><circle cx="772" cy="334" r="1.8" fill="#f7ecd2" opacity="0.83"/><circle cx="540" cy="1" r="1.3" fill="#f7ecd2" opacity="0.75"/><circle cx="541" cy="91" r="1.8" fill="#f7ecd2" opacity="0.66"/><circle cx="751" cy="200" r="0.8" fill="#f7ecd2" opacity="0.35"/><circle cx="618" cy="216" r="0.8" fill="#f7ecd2" opacity="0.73"/><circle cx="646" cy="123" r="1.3" fill="#f7ecd2" opacity="0.43"/><circle cx="427" cy="193" r="1.8" fill="#f7ecd2" opacity="0.46"/><circle cx="177" cy="322" r="1.3" fill="#f7ecd2" opacity="0.79"/><circle cx="64" cy="278" r="0.8" fill="#f7ecd2" opacity="0.77"/><circle cx="352" cy="85" r="1.8" fill="#f7ecd2" opacity="0.55"/><circle cx="1113" cy="275" r="1.8" fill="#f7ecd2" opacity="0.60"/><circle cx="403" cy="84" r="1.3" fill="#f7ecd2" opacity="0.37"/><circle cx="310" cy="320" r="0.8" fill="#f7ecd2" opacity="0.35"/><circle cx="858" cy="27" r="0.8" fill="#f7ecd2" opacity="0.51"/><circle cx="199" cy="57" r="1.3" fill="#f7ecd2" opacity="0.78"/><circle cx="229" cy="26" r="0.8" fill="#f7ecd2" opacity="0.39"/><circle cx="156" cy="202" r="1.3" fill="#f7ecd2" opacity="0.47"/><circle cx="964" cy="149" r="0.8" fill="#f7ecd2" opacity="0.71"/><circle cx="85" cy="159" r="1.3" fill="#f7ecd2" opacity="0.50"/><circle cx="855" cy="288" r="0.8" fill="#f7ecd2" opacity="0.75"/><circle cx="802" cy="64" r="1.8" fill="#f7ecd2" opacity="0.63"/><circle cx="670" cy="111" r="1.3" fill="#f7ecd2" opacity="0.55"/><circle cx="980" cy="120" r="42" fill="#f6ecd0" opacity="0.95"/><circle cx="996" cy="112" r="36" fill="url(#sky)" opacity="0.92"/>
<rect x="300" y="440" width="600" height="120" fill="#12141c"/><path d="M 270 440 Q 600 395 930 440 L 900 410 Q 600 368 300 410 Z" fill="#12141c"/><rect x="540.0" y="312" width="120" height="58" fill="#12141c"/><path d="M 506.0 312 Q 600 282 694.0 312 L 674.0 290 Q 600 266 526.0 290 Z" fill="#12141c"/><rect x="553.0" y="217" width="94" height="58" fill="#12141c"/><path d="M 519.0 217 Q 600 187 681.0 217 L 661.0 195 Q 600 171 539.0 195 Z" fill="#12141c"/><rect x="566.0" y="122" width="68" height="58" fill="#12141c"/><path d="M 532.0 122 Q 600 92 668.0 122 L 648.0 100 Q 600 76 552.0 100 Z" fill="#12141c"/><line x1="600" y1="78" x2="600" y2="46" stroke="#d8b45a" stroke-width="4"/><circle cx="600" cy="42" r="6" fill="#d8b45a"/>
<rect x="0" y="560" width="1200" height="140" fill="#0c0e14"/>

<rect x="0" y="556" width="1200" height="4" fill="#d8b45a" opacity="0.55"/>
</svg>