<svg xmlns="http://www.w3.org/2000/svg" viewBox="0 0 1200 700" role="img">
<defs>
<linearGradient id="sky" x1="0" y1="0" x2="0" y2="1">
<stop offset="0" stop-color="#0a1026"/><stop offset="0.62" stop-color="#152046"/><stop offset="1" stop-color="#2b3a6b"/>
</linearGradient>
<pattern id="g1" width="120" height="120" patternUnits="userSpaceOnUse"><polygon points="111.6,60.0 80.0,68.3 96.5,96.5 68.3,80.0 60.0,111.6 51.7,80.0 23.5,96.5 40.0,68.3 8.4,60.0 40.0,51.7 23.5,23.5 51.7,40.0 60.0,8.4 68.3,40.0 96.5,23.5 80.0,51.7" fill="none" stroke="#e8d9a8" stroke-width="1.6" opacity="0.1"/><rect x="17.4" y="17.4" width="85.2" height="85.2" fill="none" stroke="#e8d9a8" stroke-width="1.6" opacity="0.06999999999999999" transform="rotate(45 60.0 60.0)"/></pattern>
</defs>
<rect width="1200" height="700" fill="url(#sky)"/>
<rect width="1200" height="700" fill="url(#g1)"/>
<circle cx="59" cy="129" r="1.8" fill="#f7ecd2" opacity="0.46"/><circle cx="885" cy="294" r="0.8" fill="#f7ecd2" opacity="0.75"/><circle cx="120" cy="98" r="1.8" fill="#f7ecd2" opacity="0.45"/><circle cx="812" cy="189" r="1.8" fill="#f7ecd2" opacity="0.53"/><circle cx="1065" cy="271" r="1.3" fill="#f7ecd2" opacity="0.50"/><circle cx="471" cy="276" r="0.8" fill="#f7ecd2" opacity="0.81"/><circle cx="446" cy="240" r="1.8" fill="#f7ecd2" opacity="0.75"/><circle cx="1158" cy="271" r="1.3" fill="#f7ecd2" opacity="0.53"/><circle cx="471" cy="113" r="1.8" fill="#f7ecd2" opacity="0.58"/><circle cx="857" cy="238" r="0.8" fill="#f7ecd2" opacity="0.51"/><circle cx="372" cy="222" r="0.8" fill="#f7ecd2" opacity="0.69"/><circle cx="1104" cy="193" r="1.3" fill="#f7ecd2" opacity="0.57"/><circle cx="677" cy="275" r="1.3" fill="#f7ecd2" opacity="0.60"/><circle cx="843" cy="40" r="1.3" fill="#f7ecd2" opacity="0.55"/><circle cx="1098" cy="184" r="1.3" fill="#f7ecd2" opacity="0.67"/><circle cx="650" cy="295" r="0.8" fill="#f7ecd2" opacity="0.35"/><circle cx="483" cy="277" r="1.3" fill="#f7ecd2" opacity="0.76"/><circle cx="429" cy="22" r="1.3" fill="#f7ecd2" opacity="0.73"/><circle cx="224" cy="186" r="1.8" fill="#f7ecd2" opacity="0.49"/><circle cx="996" cy="37" r="1.3" fill="#f7ecd2" opacity="0.37"/><circle cx="1089" cy="259" r="1.3" fill="#f7ecd2" opacity="0.36"/><circle cx="815" cy="324" r="1.8" fill="#f7ecd2" opacity="0.45"/><circle cx="150" cy="168" r="0.8" fill="#f7ecd2" opacity="0.35"/><circle cx="942" cy="299" r="1.8" fill="#f7ecd2" opacity="0.43"/><circle cx="95" cy="281" r="1.3" fill="#f7ecd2" opacity="0.80"/><circle cx="801" cy="126" r="0.8" fill="#f7ecd2" opacity="0.61"/><circle cx="876" cy="130" r="1.3" fill="#f7ecd2" opacity="0.65"/><circle cx="488" cy="61" r="0.8" fill="#f7ecd2" opacity="0.53"/><circle cx="1101" cy="83" r="1.8" fill="#f7ecd2" opacity="0.68"/><circle cx="387" cy="108" r="0.8" fill="#f7ecd2" opacity="0.81"/><circle cx="2" cy="132" r="1.8" fill="#f7ecd2" opacity="0.49"/><circle cx="834" cy="143" r="1.8" fill="#f7ecd2" opacity="0.47"/><circle cx="507" cy="265" r="1.3" fill="#f7ecd2" opacity="0.40"/><circle cx="773" cy="70" r="0.8" fill="#f7ecd2" opacity="0.45"/><circle cx="1128" cy="254" r="1.8" fill="#f7ecd2" opacity="0.47"/><circle cx="780" cy="65" r="1.8" fill="#f7ecd2" opacity="0.35"/><circle cx="713" cy="87" r="1.8" fill="#f7ecd2" opacity="0.66"/><circle cx="759" cy="212" r="1.8" fill="#f7ecd2" opacity="0.43"/><circle cx="654" cy="76" r="1.3" fill="#f7ecd2" opacity="0.39"/><circle cx="326" cy="167" r="1.3" fill="#f7ecd2" opacity="0.77"/><circle cx="519" cy="89" r="1.8" fill="#f7ecd2" opacity="0.76"/><circle cx="345" cy="194" r="1.8" fill="#f7ecd2" opacity="0.65"/><circle cx="980" cy="218" r="1.3" fill="#f7ecd2" opacity="0.75"/><circle cx="672" cy="249" r="0.8" fill="#f7ecd2" opacity="0.63"/><circle cx="1125" cy="71" r="1.8" fill="#f7ecd2" opacity="0.60"/><circle cx="731" cy="156" r="1.8" fill="#f7ecd2" opacity="0.71"/><circle cx="906" cy="200" r="1.8" fill="#f7ecd2" opacity="0.35"/><circle cx="618" cy="171" r="0.8" fill="#f7ecd2" opacity="0.63"/><circle cx="131" cy="93" r="1.8" fill="#f7ecd2" opacity="0.68"/><circle cx="717" cy="298" r="1.3" fill="#f7ecd2" opacity="0.51"/><circle cx="432" cy="22" r="1.3" fill="#f7ecd2" opacity="0.39"/><circle cx="164" cy="273" r="1.8" fill="#f7ecd2" opacity="0.57"/><circle cx="1137" cy="235" r="1.3" fill="#f7ecd2" opacity="0.80"/><circle cx="303" cy="280" r="1.3" fill="#f7ecd2" opacity="0.75"/><circle cx="758" cy="164" r="1.3" fill="#f7ecd2" opacity="0.47"/><circle cx="510" cy="15" r="0.8" fill="#f7ecd2" opacity="0.35"/><circle cx="543" cy="77" r="1.8" fill="#f7ecd2" opacity="0.46"/><circle cx="689" cy="242" r="1.3" fill="#f7ecd2" opacity="0.73"/><circle cx="684" cy="146" r="1.8" fill="#f7ecd2" opacity="0.49"/><circle cx="456" cy="277" r="1.3" fill="#f7ecd2" opacity="0.47"/><circle cx="980" cy="120" r="42" fill="#f6ecd0" opacity="0.95"/><circle cx="996" cy="112" r="36" fill="url(#sky)" opacity="0.92"/>
<rect x="300" y="440" width="600" height="120" fill="#12141c"/><path d="M 270 440 Q 600 395 930 440 L 900 410 Q 600 368 300 410 Z" fill="#12141c"/><rect x="540.0" y="312" width="120" height="58" fill="#12141c"/><path d="M 506.0 312 Q 600 282 694.0 312 L 674.0 290 Q 600 266 526.0 290 Z" fill="#12141c"/><rect x="553.0" y="217" width="94" height="58" fill="#12141c"/><path d="M 519.0 217 Q 600 187 681.0 217 L 661.0 195 Q 600 171 539.0 195 Z" fill="#12141c"/><rect x="566.0" y="122" width="68" height="58" fill="#12141c"/><path d="M 532.0 122 Q 600 92 668.0 122 L 648.0 100 Q 600 76 552.0 100 Z" fill="#12141c"/><line x1="600" y1="78" x2="600" y2="46" stroke="#d8b45a" stroke-width="4"/><circle cx="600" cy="42" r="6" fill="#d8b45a"/>
<rect x="0" y="560" width="1200" height="140" fill="#0c0e14"/>

<rect x="0" y="556" width="1200" height="4" fill="#d8b45a" opacity="0.55"/>
</svg>