<svg xmlns="http://www.w3.org/2000/svg" viewBox="0 0 1200 700" role="img">
<defs>
<linearGradient id="sky" x1="0" y1="0" x2="0" y2="1">
<stop offset="0" stop-color="#0a1026"/><stop offset="0.62" stop-color="#152046"/><stop offset="1" stop-color="#2b3a6b"/>
</linearGradient>
<pattern id="g1" width="120" height="120" patternUnits="userSpaceOnUse"><polygon points="111.6,60.0 80.0,68.3 96.5,96.5 68.3,80.0 60.0,111.6 51.7,80.0 23.5,96.5 40.0,68.3 8.4,60.0 40.0,51.7 23.5,23.5 51.7,40.0 60.0,8.4 68.3,40.0 96.5,23.5 80.0,51.7" fill="none" stroke="#e8d9a8" stroke-width="1.6" opacity="0.1"/><rect x="17.4" y="17.4" width="85.2" height="85.2" fill="none" stroke="#e8d9a8" stroke-width="1.6" opacity="0.06999999999999999" transform="rotate(45 60.0 60.0)"/></pattern>
</defs>
<rect width="1200" height="700" fill="url(#sky)"/>
<rect width="1200" height="700" fill="url(#g1)"/>
<circle cx="572" cy="52" r="0.8" fill="#f7ecd2" opacity="0.79"/><circle cx="1134" cy="193" r="1.3" fill="#f7ecd2" opacity="0.47"/><circle cx="297" cy="145" r="1.3" fill="#f7ecd2" opacity="0.50"/><circle cx="533" cy="40" r="0.8" fill="#f7ecd2" opacity="0.55"/><circle cx="1098" cy="274" r="1.3" fill="#f7ecd2" opacity="0.37"/><circle cx="480" cy="215" r="1.8" fill="#f7ecd2" opacity="0.35"/><circle cx="1103" cy="207" r="1.8" fill="#f7ecd2" opacity="0.56"/><circle cx="1119" cy="82" r="1.3" fill="#f7ecd2" opacity="0.43"/><circle cx="24" cy="196" r="1.3" fill="#f7ecd2" opacity="0.39"/><circle cx="626" cy="217" r="0.8" fill="#f7ecd2" opacity="0.77"/><circle cx="309" cy="309" r="0.8" fill="#f7ecd2" opacity="0.66"/><circle cx="105" cy="164" r="1.8" fill="#f7ecd2" opacity="0.55"/><circle cx="950" cy="238" r="0.8" fill="#f7ecd2" opacity="0.35"/><circle cx="372" cy="59" r="1.8" fill="#f7ecd2" opacity="0.83"/><circle cx="315" cy="51" r="0.8" fill="#f7ecd2" opacity="0.50"/><circle cx="1091" cy="26" r="1.3" fill="#f7ecd2" opacity="0.51"/><circle cx="276" cy="320" r="1.8" fill="#f7ecd2" opacity="0.55"/><circle cx="918" cy="221" r="1.8" fill="#f7ecd2" opacity="0.63"/><circle cx="1121" cy="113" r="1.3" fill="#f7ecd2" opacity="0.58"/><circle cx="477" cy="268" r="1.3" fill="#f7ecd2" opacity="0.71"/><circle cx="402" cy="42" r="0.8" fill="#f7ecd2" opacity="0.69"/><circle cx="1064" cy="223" r="0.8" fill="#f7ecd2" opacity="0.57"/><circle cx="327" cy="215" r="1.8" fill="#f7ecd2" opacity="0.40"/><circle cx="663" cy="150" r="0.8" fill="#f7ecd2" opacity="0.35"/><circle cx="128" cy="284" r="1.3" fill="#f7ecd2" opacity="0.37"/><circle cx="810" cy="65" r="1.8" fill="#f7ecd2" opacity="0.35"/><circle cx="333" cy="297" r="0.8" fill="#f7ecd2" opacity="0.36"/><circle cx="449" cy="212" r="1.3" fill="#f7ecd2" opacity="0.73"/><circle cx="654" cy="166" r="1.3" fill="#f7ecd2" opacity="0.49"/><circle cx="156" cy="87" r="0.8" fill="#f7ecd2" opacity="0.57"/><circle cx="1139" cy="19" r="0.8" fill="#f7ecd2" opacity="0.76"/><circle cx="1035" cy="254" r="1.8" fill="#f7ecd2" opacity="0.75"/><circle cx="780" cy="228" r="0.8" fill="#f7ecd2" opacity="0.75"/><circle cx="302" cy="89" r="1.3" fill="#f7ecd2" opacity="0.63"/><circle cx="345" cy="121" r="1.3" fill="#f7ecd2" opacity="0.80"/><circle cx="21" cy="336" r="0.8" fill="#f7ecd2" opacity="0.41"/><circle cx="506" cy="130" r="0.8" fill="#f7ecd2" opacity="0.65"/><circle cx="48" cy="271" r="1.3" fill="#f7ecd2" opacity="0.43"/><circle cx="351" cy="203" r="1.8" fill="#f7ecd2" opacity="0.38"/><circle cx="1007" cy="198" r="1.8" fill="#f7ecd2" opacity="0.71"/><circle cx="1032" cy="12" r="0.8" fill="#f7ecd2" opacity="0.69"/><circle cx="594" cy="93" r="0.8" fill="#f7ecd2" opacity="0.77"/><circle cx="1157" cy="265" r="0.8" fill="#f7ecd2" opacity="0.40"/><circle cx="393" cy="100" r="1.3" fill="#f7ecd2" opacity="0.35"/><circle cx="1158" cy="74" r="1.8" fill="#f7ecd2" opacity="0.77"/><circle cx="740" cy="95" r="1.3" fill="#f7ecd2" opacity="0.35"/><circle cx="363" cy="27" r="0.8" fill="#f7ecd2" opacity="0.36"/><circle cx="579" cy="322" r="1.3" fill="#f7ecd2" opacity="0.73"/><circle cx="884" cy="316" r="0.8" fill="#f7ecd2" opacity="0.79"/><circle cx="486" cy="277" r="1.3" fill="#f7ecd2" opacity="0.57"/><circle cx="369" cy="109" r="1.3" fill="#f7ecd2" opacity="0.56"/><circle cx="365" cy="44" r="1.3" fill="#f7ecd2" opacity="0.45"/><circle cx="210" cy="58" r="1.3" fill="#f7ecd2" opacity="0.65"/><circle cx="1032" cy="99" r="0.8" fill="#f7ecd2" opacity="0.53"/><circle cx="1175" cy="171" r="1.8" fill="#f7ecd2" opacity="0.60"/><circle cx="951" cy="86" r="1.8" fill="#f7ecd2" opacity="0.71"/><circle cx="336" cy="120" r="0.8" fill="#f7ecd2" opacity="0.55"/><circle cx="1178" cy="101" r="1.3" fill="#f7ecd2" opacity="0.63"/><circle cx="381" cy="273" r="0.8" fill="#f7ecd2" opacity="0.48"/><circle cx="1137" cy="308" r="1.8" fill="#f7ecd2" opacity="0.81"/><circle cx="980" cy="120" r="42" fill="#f6ecd0" opacity="0.95"/><circle cx="996" cy="112" r="36" fill="url(#sky)" opacity="0.92"/>
<rect x="300" y="440" width="600" height="120" fill="#12141c"/><path d="M 270 440 Q 600 395 930 440 L 900 410 Q 600 368 300 410 Z" fill="#12141c"/><rect x="540.0" y="312" width="120" height="58" fill="#12141c"/><path d="M 506.0 312 Q 600 282 694.0 312 L 674.0 290 Q 600 266 526.0 290 Z" fill="#12141c"/><rect x="553.0" y="217" width="94" height="58" fill="#12141c"/><path d="M 519.0 217 Q 600 187 681.0 217 L 661.0 195 Q 600 171 539.0 195 Z" fill="#12141c"/><rect x="566.0" y="122" width="68" height="58" fill="#12141c"/><path d="M 532.0 122 Q 600 92 668.0 122 L 648.0 100 Q 600 76 552.0 100 Z" fill="#12141c"/><line x1="600" y1="78" x2="600" y2="46" stroke="#d8b45a" stroke-width="4"/><circle cx="600" cy="42" r="6" fill="#d8b45a"/>
<rect x="0" y="560" width="1200" height="140" fill="#0c0e14"/>

<rect x="0" y="556" width="1200" height="4" fill="#d8b45a" opacity="0.55"/>
</svg>