<svg xmlns="http://www.w3.org/2000/svg" viewBox="0 0 1200 700" role="img">
<defs>
<linearGradient id="sky" x1="0" y1="0" x2="0" y2="1">
<stop offset="0" stop-color="#0a1026"/><stop offset="0.62" stop-color="#152046"/><stop offset="1" stop-color="#2b3a6b"/>
</linearGradient>
<pattern id="g1" width="120" height="120" patternUnits="userSpaceOnUse"><polygon points="111.6,60.0 80.0,68.3 96.5,96.5 68.3,80.0 60.0,111.6 51.7,80.0 23.5,96.5 40.0,68.3 8.4,60.0 40.0,51.7 23.5,23.5 51.7,40.0 60.0,8.4 68.3,40.0 96.5,23.5 80.0,51.7" fill="none" stroke="#e8d9a8" stroke-width="1.6" opacity="0.1"/><rect x="17.4" y="17.4" width="85.2" height="85.2" fill="none" stroke="#e8d9a8" stroke-width="1.6" opacity="0.06999999999999999" transform="rotate(45 60.0 60.0)"/></pattern>
</defs>
<rect width="1200" height="700" fill="url(#sky)"/>
<rect width="1200" height="700" fill="url(#g1)"/>
<circle cx="390" cy="190" r="1.3" fill="#f7ecd2" opacity="0.35"/><circle cx="1048" cy="247" r="1.8" fill="#f7ecd2" opacity="0.41"/><circle cx="19" cy="27" r="1.3" fill="#f7ecd2" opacity="0.48"/><circle cx="639" cy="266" r="1.8" fill="#f7ecd2" opacity="0.59"/><circle cx="436" cy="152" r="0.8" fill="#f7ecd2" opacity="0.57"/><circle cx="154" cy="309" r="1.3" fill="#f7ecd2" opacity="0.71"/><circle cx="105" cy="209" r="1.8" fill="#f7ecd2" opacity="0.80"/><circle cx="265" cy="128" r="0.8" fill="#f7ecd2" opacity="0.55"/><circle cx="82" cy="294" r="1.3" fill="#f7ecd2" opacity="0.43"/><circle cx="60" cy="11" r="1.8" fill="#f7ecd2" opacity="0.45"/><circle cx="991" cy="31" r="1.8" fill="#f7ecd2" opacity="0.56"/><circle cx="691" cy="310" r="1.8" fill="#f7ecd2" opacity="0.45"/><circle cx="528" cy="76" r="1.3" fill="#f7ecd2" opacity="0.63"/><circle cx="766" cy="33" r="1.3" fill="#f7ecd2" opacity="0.63"/><circle cx="277" cy="233" r="0.8" fill="#f7ecd2" opacity="0.76"/><circle cx="717" cy="332" r="1.8" fill="#f7ecd2" opacity="0.79"/><circle cx="574" cy="38" r="0.8" fill="#f7ecd2" opacity="0.47"/><circle cx="1072" cy="235" r="1.8" fill="#f7ecd2" opacity="0.55"/><circle cx="363" cy="75" r="0.8" fill="#f7ecd2" opacity="0.60"/><circle cx="343" cy="194" r="0.8" fill="#f7ecd2" opacity="0.77"/><circle cx="220" cy="180" r="1.3" fill="#f7ecd2" opacity="0.35"/><circle cx="978" cy="277" r="1.3" fill="#f7ecd2" opacity="0.41"/><circle cx="49" cy="97" r="1.8" fill="#f7ecd2" opacity="0.38"/><circle cx="769" cy="36" r="1.3" fill="#f7ecd2" opacity="0.69"/><circle cx="666" cy="302" r="1.8" fill="#f7ecd2" opacity="0.67"/><circle cx="484" cy="159" r="1.3" fill="#f7ecd2" opacity="0.41"/><circle cx="535" cy="99" r="1.3" fill="#f7ecd2" opacity="0.50"/><circle cx="795" cy="58" r="1.3" fill="#f7ecd2" opacity="0.45"/><circle cx="712" cy="264" r="1.3" fill="#f7ecd2" opacity="0.53"/><circle cx="790" cy="21" r="1.3" fill="#f7ecd2" opacity="0.75"/><circle cx="621" cy="281" r="1.8" fill="#f7ecd2" opacity="0.36"/><circle cx="421" cy="260" r="0.8" fill="#f7ecd2" opacity="0.45"/><circle cx="358" cy="66" r="1.3" fill="#f7ecd2" opacity="0.63"/><circle cx="696" cy="63" r="0.8" fill="#f7ecd2" opacity="0.83"/><circle cx="307" cy="303" r="1.3" fill="#f7ecd2" opacity="0.56"/><circle cx="847" cy="102" r="1.3" fill="#f7ecd2" opacity="0.79"/><circle cx="804" cy="188" r="1.8" fill="#f7ecd2" opacity="0.37"/><circle cx="202" cy="285" r="1.3" fill="#f7ecd2" opacity="0.55"/><circle cx="793" cy="305" r="0.8" fill="#f7ecd2" opacity="0.50"/><circle cx="873" cy="124" r="1.3" fill="#f7ecd2" opacity="0.37"/><circle cx="850" cy="150" r="1.3" fill="#f7ecd2" opacity="0.35"/><circle cx="508" cy="147" r="1.3" fill="#f7ecd2" opacity="0.61"/><circle cx="879" cy="147" r="0.8" fill="#f7ecd2" opacity="0.48"/><circle cx="499" cy="326" r="0.8" fill="#f7ecd2" opacity="0.59"/><circle cx="496" cy="292" r="1.8" fill="#f7ecd2" opacity="0.67"/><circle cx="414" cy="189" r="0.8" fill="#f7ecd2" opacity="0.81"/><circle cx="565" cy="169" r="1.8" fill="#f7ecd2" opacity="0.70"/><circle cx="925" cy="168" r="1.3" fill="#f7ecd2" opacity="0.35"/><circle cx="942" cy="74" r="1.8" fill="#f7ecd2" opacity="0.43"/><circle cx="1120" cy="211" r="1.8" fill="#f7ecd2" opacity="0.55"/><circle cx="1051" cy="171" r="1.3" fill="#f7ecd2" opacity="0.56"/><circle cx="951" cy="190" r="1.3" fill="#f7ecd2" opacity="0.75"/><circle cx="988" cy="36" r="1.3" fill="#f7ecd2" opacity="0.53"/><circle cx="226" cy="273" r="1.3" fill="#f7ecd2" opacity="0.83"/><circle cx="1137" cy="13" r="1.3" fill="#f7ecd2" opacity="0.66"/><circle cx="577" cy="52" r="1.8" fill="#f7ecd2" opacity="0.39"/><circle cx="634" cy="178" r="1.8" fill="#f7ecd2" opacity="0.37"/><circle cx="132" cy="315" r="0.8" fill="#f7ecd2" opacity="0.65"/><circle cx="823" cy="35" r="0.8" fill="#f7ecd2" opacity="0.40"/><circle cx="1003" cy="234" r="1.3" fill="#f7ecd2" opacity="0.37"/><circle cx="980" cy="120" r="42" fill="#f6ecd0" opacity="0.95"/><circle cx="996" cy="112" r="36" fill="url(#sky)" opacity="0.92"/>
<rect x="300" y="440" width="600" height="120" fill="#12141c"/><path d="M 270 440 Q 600 395 930 440 L 900 410 Q 600 368 300 410 Z" fill="#12141c"/><rect x="540.0" y="312" width="120" height="58" fill="#12141c"/><path d="M 506.0 312 Q 600 282 694.0 312 L 674.0 290 Q 600 266 526.0 290 Z" fill="#12141c"/><rect x="553.0" y="217" width="94" height="58" fill="#12141c"/><path d="M 519.0 217 Q 600 187 681.0 217 L 661.0 195 Q 600 171 539.0 195 Z" fill="#12141c"/><rect x="566.0" y="122" width="68" height="58" fill="#12141c"/><path d="M 532.0 122 Q 600 92 668.0 122 L 648.0 100 Q 600 76 552.0 100 Z" fill="#12141c"/><line x1="600" y1="78" x2="600" y2="46" stroke="#d8b45a" stroke-width="4"/><circle cx="600" cy="42" r="6" fill="#d8b45a"/>
<rect x="0" y="560" width="1200" height="140" fill="#0c0e14"/>

<rect x="0" y="556" width="1200" height="4" fill="#d8b45a" opacity="0.55"/>
</svg>