<svg xmlns="http://www.w3.org/2000/svg" viewBox="0 0 1200 700" role="img">
<defs>
<linearGradient id="sky" x1="0" y1="0" x2="0" y2="1">
<stop offset="0" stop-color="#0a1026"/><stop offset="0.62" stop-color="#152046"/><stop offset="1" stop-color="#2b3a6b"/>
</linearGradient>
<pattern id="g1" width="120" height="120" patternUnits="userSpaceOnUse"><polygon points="111.6,60.0 80.0,68.3 96.5,96.5 68.3,80.0 60.0,111.6 51.7,80.0 23.5,96.5 40.0,68.3 8.4,60.0 40.0,51.7 23.5,23.5 51.7,40.0 60.0,8.4 68.3,40.0 96.5,23.5 80.0,51.7" fill="none" stroke="#e8d9a8" stroke-width="1.6" opacity="0.1"/><rect x="17.4" y="17.4" width="85.2" height="85.2" fill="none" stroke="#e8d9a8" stroke-width="1.6" opacity="0.06999999999999999" transform="rotate(45 60.0 60.0)"/></pattern>
</defs>
<rect width="1200" height="700" fill="url(#sky)"/>
<rect width="1200" height="700" fill="url(#g1)"/>
<circle cx="1040" cy="280" r="0.8" fill="#f7ecd2" opacity="0.35"/><circle cx="498" cy="197" r="1.8" fill="#f7ecd2" opacity="0.41"/><circle cx="669" cy="117" r="0.8" fill="#f7ecd2" opacity="0.58"/><circle cx="89" cy="216" r="1.8" fill="#f7ecd2" opacity="0.59"/><circle cx="1086" cy="242" r="1.8" fill="#f7ecd2" opacity="0.47"/><circle cx="804" cy="59" r="1.8" fill="#f7ecd2" opacity="0.71"/><circle cx="755" cy="299" r="1.3" fill="#f7ecd2" opacity="0.80"/><circle cx="915" cy="218" r="1.8" fill="#f7ecd2" opacity="0.55"/><circle cx="732" cy="44" r="1.8" fill="#f7ecd2" opacity="0.43"/><circle cx="710" cy="101" r="1.3" fill="#f7ecd2" opacity="0.45"/><circle cx="441" cy="321" r="0.8" fill="#f7ecd2" opacity="0.46"/><circle cx="141" cy="260" r="1.8" fill="#f7ecd2" opacity="0.45"/><circle cx="1178" cy="166" r="0.8" fill="#f7ecd2" opacity="0.83"/><circle cx="216" cy="323" r="1.8" fill="#f7ecd2" opacity="0.53"/><circle cx="927" cy="323" r="1.8" fill="#f7ecd2" opacity="0.56"/><circle cx="167" cy="282" r="1.8" fill="#f7ecd2" opacity="0.79"/><circle cx="24" cy="328" r="1.3" fill="#f7ecd2" opacity="0.57"/><circle cx="522" cy="185" r="1.8" fill="#f7ecd2" opacity="0.55"/><circle cx="1013" cy="165" r="1.8" fill="#f7ecd2" opacity="0.80"/><circle cx="993" cy="284" r="1.8" fill="#f7ecd2" opacity="0.47"/><circle cx="870" cy="270" r="0.8" fill="#f7ecd2" opacity="0.35"/><circle cx="428" cy="227" r="1.3" fill="#f7ecd2" opacity="0.41"/><circle cx="699" cy="187" r="1.3" fill="#f7ecd2" opacity="0.48"/><circle cx="219" cy="326" r="1.8" fill="#f7ecd2" opacity="0.79"/><circle cx="116" cy="252" r="1.8" fill="#f7ecd2" opacity="0.67"/><circle cx="1134" cy="249" r="0.8" fill="#f7ecd2" opacity="0.51"/><circle cx="1185" cy="189" r="0.8" fill="#f7ecd2" opacity="0.50"/><circle cx="245" cy="8" r="1.3" fill="#f7ecd2" opacity="0.45"/><circle cx="162" cy="214" r="1.3" fill="#f7ecd2" opacity="0.53"/><circle cx="240" cy="311" r="1.8" fill="#f7ecd2" opacity="0.75"/><circle cx="71" cy="231" r="1.8" fill="#f7ecd2" opacity="0.36"/><circle cx="1071" cy="10" r="1.3" fill="#f7ecd2" opacity="0.45"/><circle cx="1008" cy="156" r="0.8" fill="#f7ecd2" opacity="0.83"/><circle cx="146" cy="13" r="0.8" fill="#f7ecd2" opacity="0.83"/><circle cx="957" cy="53" r="1.8" fill="#f7ecd2" opacity="0.56"/><circle cx="297" cy="52" r="1.3" fill="#f7ecd2" opacity="0.79"/><circle cx="254" cy="138" r="1.8" fill="#f7ecd2" opacity="0.37"/><circle cx="852" cy="35" r="1.8" fill="#f7ecd2" opacity="0.55"/><circle cx="243" cy="255" r="0.8" fill="#f7ecd2" opacity="0.50"/><circle cx="323" cy="74" r="1.3" fill="#f7ecd2" opacity="0.37"/><circle cx="300" cy="100" r="1.3" fill="#f7ecd2" opacity="0.35"/><circle cx="1158" cy="237" r="0.8" fill="#f7ecd2" opacity="0.81"/><circle cx="329" cy="97" r="0.8" fill="#f7ecd2" opacity="0.48"/><circle cx="1149" cy="76" r="1.3" fill="#f7ecd2" opacity="0.59"/><circle cx="1146" cy="42" r="0.8" fill="#f7ecd2" opacity="0.67"/><circle cx="1064" cy="279" r="1.8" fill="#f7ecd2" opacity="0.41"/><circle cx="15" cy="119" r="1.8" fill="#f7ecd2" opacity="0.70"/><circle cx="375" cy="118" r="1.3" fill="#f7ecd2" opacity="0.35"/><circle cx="392" cy="24" r="1.8" fill="#f7ecd2" opacity="0.43"/><circle cx="570" cy="161" r="1.8" fill="#f7ecd2" opacity="0.55"/><circle cx="501" cy="121" r="1.3" fill="#f7ecd2" opacity="0.56"/><circle cx="401" cy="140" r="1.3" fill="#f7ecd2" opacity="0.75"/><circle cx="438" cy="326" r="1.8" fill="#f7ecd2" opacity="0.73"/><circle cx="876" cy="23" r="1.8" fill="#f7ecd2" opacity="0.83"/><circle cx="587" cy="303" r="1.8" fill="#f7ecd2" opacity="0.46"/><circle cx="27" cy="2" r="1.8" fill="#f7ecd2" opacity="0.39"/><circle cx="84" cy="128" r="1.8" fill="#f7ecd2" opacity="0.37"/><circle cx="782" cy="65" r="1.3" fill="#f7ecd2" opacity="0.65"/><circle cx="273" cy="325" r="1.3" fill="#f7ecd2" opacity="0.60"/><circle cx="453" cy="184" r="1.3" fill="#f7ecd2" opacity="0.37"/><circle cx="980" cy="120" r="42" fill="#f6ecd0" opacity="0.95"/><circle cx="996" cy="112" r="36" fill="url(#sky)" opacity="0.92"/>
<rect x="300" y="440" width="600" height="120" fill="#12141c"/><path d="M 270 440 Q 600 395 930 440 L 900 410 Q 600 368 300 410 Z" fill="#12141c"/><rect x="540.0" y="312" width="120" height="58" fill="#12141c"/><path d="M 506.0 312 Q 600 282 694.0 312 L 674.0 290 Q 600 266 526.0 290 Z" fill="#12141c"/><rect x="553.0" y="217" width="94" height="58" fill="#12141c"/><path d="M 519.0 217 Q 600 187 681.0 217 L 661.0 195 Q 600 171 539.0 195 Z" fill="#12141c"/><rect x="566.0" y="122" width="68" height="58" fill="#12141c"/><path d="M 532.0 122 Q 600 92 668.0 122 L 648.0 100 Q 600 76 552.0 100 Z" fill="#12141c"/><line x1="600" y1="78" x2="600" y2="46" stroke="#d8b45a" stroke-width="4"/><circle cx="600" cy="42" r="6" fill="#d8b45a"/>
<rect x="0" y="560" width="1200" height="140" fill="#0c0e14"/>

<rect x="0" y="556" width="1200" height="4" fill="#d8b45a" opacity="0.55"/>
</svg>