<svg xmlns="http://www.w3.org/2000/svg" viewBox="0 0 1200 700" role="img">
<defs>
<linearGradient id="sky" x1="0" y1="0" x2="0" y2="1">
<stop offset="0" stop-color="#0a1026"/><stop offset="0.62" stop-color="#152046"/><stop offset="1" stop-color="#2b3a6b"/>
</linearGradient>
<pattern id="g1" width="120" height="120" patternUnits="userSpaceOnUse"><polygon points="111.6,60.0 80.0,68.3 96.5,96.5 68.3,80.0 60.0,111.6 51.7,80.0 23.5,96.5 40.0,68.3 8.4,60.0 40.0,51.7 23.5,23.5 51.7,40.0 60.0,8.4 68.3,40.0 96.5,23.5 80.0,51.7" fill="none" stroke="#e8d9a8" stroke-width="1.6" opacity="0.1"/><rect x="17.4" y="17.4" width="85.2" height="85.2" fill="none" stroke="#e8d9a8" stroke-width="1.6" opacity="0.06999999999999999" transform="rotate(45 60.0 60.0)"/></pattern>
</defs>
<rect width="1200" height="700" fill="url(#sky)"/>
<rect width="1200" height="700" fill="url(#g1)"/>
<circle cx="339" cy="309" r="0.8" fill="#f7ecd2" opacity="0.36"/><circle cx="925" cy="174" r="1.3" fill="#f7ecd2" opacity="0.35"/><circle cx="640" cy="238" r="1.8" fill="#f7ecd2" opacity="0.55"/><circle cx="372" cy="149" r="1.8" fill="#f7ecd2" opacity="0.63"/><circle cx="145" cy="311" r="0.8" fill="#f7ecd2" opacity="0.80"/><circle cx="511" cy="156" r="1.3" fill="#f7ecd2" opacity="0.51"/><circle cx="966" cy="40" r="1.3" fill="#f7ecd2" opacity="0.75"/><circle cx="718" cy="231" r="1.3" fill="#f7ecd2" opacity="0.43"/><circle cx="751" cy="293" r="0.8" fill="#f7ecd2" opacity="0.78"/><circle cx="897" cy="118" r="1.3" fill="#f7ecd2" opacity="0.81"/><circle cx="892" cy="22" r="1.8" fill="#f7ecd2" opacity="0.59"/><circle cx="664" cy="153" r="1.3" fill="#f7ecd2" opacity="0.77"/><circle cx="957" cy="115" r="1.3" fill="#f7ecd2" opacity="0.40"/><circle cx="883" cy="260" r="0.8" fill="#f7ecd2" opacity="0.65"/><circle cx="418" cy="184" r="1.8" fill="#f7ecd2" opacity="0.47"/><circle cx="210" cy="255" r="0.8" fill="#f7ecd2" opacity="0.35"/><circle cx="763" cy="117" r="1.3" fill="#f7ecd2" opacity="0.56"/><circle cx="469" cy="242" r="0.8" fill="#f7ecd2" opacity="0.83"/><circle cx="744" cy="326" r="1.8" fill="#f7ecd2" opacity="0.79"/><circle cx="556" cy="337" r="1.8" fill="#f7ecd2" opacity="0.57"/><circle cx="169" cy="299" r="0.8" fill="#f7ecd2" opacity="0.66"/><circle cx="855" cy="204" r="0.8" fill="#f7ecd2" opacity="0.55"/><circle cx="670" cy="308" r="0.8" fill="#f7ecd2" opacity="0.45"/><circle cx="502" cy="259" r="1.8" fill="#f7ecd2" opacity="0.53"/><circle cx="375" cy="121" r="1.3" fill="#f7ecd2" opacity="0.60"/><circle cx="841" cy="6" r="1.3" fill="#f7ecd2" opacity="0.81"/><circle cx="196" cy="130" r="1.8" fill="#f7ecd2" opacity="0.65"/><circle cx="48" cy="21" r="0.8" fill="#f7ecd2" opacity="0.43"/><circle cx="181" cy="123" r="1.3" fill="#f7ecd2" opacity="0.48"/><circle cx="427" cy="328" r="1.8" fill="#f7ecd2" opacity="0.41"/><circle cx="522" cy="272" r="1.8" fill="#f7ecd2" opacity="0.69"/><circle cx="394" cy="103" r="1.8" fill="#f7ecd2" opacity="0.67"/><circle cx="787" cy="105" r="1.3" fill="#f7ecd2" opacity="0.70"/><circle cx="813" cy="290" r="1.8" fill="#f7ecd2" opacity="0.55"/><circle cx="448" cy="254" r="0.8" fill="#f7ecd2" opacity="0.77"/><circle cx="340" cy="25" r="1.8" fill="#f7ecd2" opacity="0.35"/><circle cx="993" cy="267" r="0.8" fill="#f7ecd2" opacity="0.66"/><circle cx="799" cy="92" r="0.8" fill="#f7ecd2" opacity="0.43"/><circle cx="1174" cy="216" r="1.3" fill="#f7ecd2" opacity="0.69"/><circle cx="1086" cy="267" r="0.8" fill="#f7ecd2" opacity="0.47"/><circle cx="799" cy="269" r="0.8" fill="#f7ecd2" opacity="0.66"/><circle cx="385" cy="74" r="0.8" fill="#f7ecd2" opacity="0.75"/><circle cx="300" cy="218" r="1.8" fill="#f7ecd2" opacity="0.35"/><circle cx="232" cy="209" r="0.8" fill="#f7ecd2" opacity="0.73"/><circle cx="205" cy="111" r="1.3" fill="#f7ecd2" opacity="0.40"/><circle cx="771" cy="36" r="0.8" fill="#f7ecd2" opacity="0.41"/><circle cx="226" cy="200" r="0.8" fill="#f7ecd2" opacity="0.35"/><circle cx="178" cy="131" r="0.8" fill="#f7ecd2" opacity="0.53"/><circle cx="411" cy="273" r="0.8" fill="#f7ecd2" opacity="0.38"/><circle cx="757" cy="178" r="1.8" fill="#f7ecd2" opacity="0.81"/><circle cx="952" cy="162" r="1.3" fill="#f7ecd2" opacity="0.59"/><circle cx="924" cy="33" r="0.8" fill="#f7ecd2" opacity="0.77"/><circle cx="217" cy="275" r="0.8" fill="#f7ecd2" opacity="0.60"/><circle cx="343" cy="160" r="1.8" fill="#f7ecd2" opacity="0.65"/><circle cx="78" cy="164" r="1.8" fill="#f7ecd2" opacity="0.77"/><circle cx="70" cy="315" r="1.3" fill="#f7ecd2" opacity="0.35"/><circle cx="823" cy="257" r="0.8" fill="#f7ecd2" opacity="0.46"/><circle cx="729" cy="122" r="1.8" fill="#f7ecd2" opacity="0.73"/><circle cx="4" cy="146" r="0.8" fill="#f7ecd2" opacity="0.69"/><circle cx="16" cy="237" r="1.3" fill="#f7ecd2" opacity="0.77"/><circle cx="980" cy="120" r="42" fill="#f6ecd0" opacity="0.95"/><circle cx="996" cy="112" r="36" fill="url(#sky)" opacity="0.92"/>
<rect x="300" y="440" width="600" height="120" fill="#12141c"/><path d="M 270 440 Q 600 395 930 440 L 900 410 Q 600 368 300 410 Z" fill="#12141c"/><rect x="540.0" y="312" width="120" height="58" fill="#12141c"/><path d="M 506.0 312 Q 600 282 694.0 312 L 674.0 290 Q 600 266 526.0 290 Z" fill="#12141c"/><rect x="553.0" y="217" width="94" height="58" fill="#12141c"/><path d="M 519.0 217 Q 600 187 681.0 217 L 661.0 195 Q 600 171 539.0 195 Z" fill="#12141c"/><rect x="566.0" y="122" width="68" height="58" fill="#12141c"/><path d="M 532.0 122 Q 600 92 668.0 122 L 648.0 100 Q 600 76 552.0 100 Z" fill="#12141c"/><line x1="600" y1="78" x2="600" y2="46" stroke="#d8b45a" stroke-width="4"/><circle cx="600" cy="42" r="6" fill="#d8b45a"/>
<rect x="0" y="560" width="1200" height="140" fill="#0c0e14"/>

<rect x="0" y="556" width="1200" height="4" fill="#d8b45a" opacity="0.55"/>
</svg>