<svg xmlns="http://www.w3.org/2000/svg" viewBox="0 0 1200 700" role="img">
<defs>
<linearGradient id="sky" x1="0" y1="0" x2="0" y2="1">
<stop offset="0" stop-color="#0a1026"/><stop offset="0.62" stop-color="#152046"/><stop offset="1" stop-color="#2b3a6b"/>
</linearGradient>
<pattern id="g1" width="120" height="120" patternUnits="userSpaceOnUse"><polygon points="111.6,60.0 80.0,68.3 96.5,96.5 68.3,80.0 60.0,111.6 51.7,80.0 23.5,96.5 40.0,68.3 8.4,60.0 40.0,51.7 23.5,23.5 51.7,40.0 60.0,8.4 68.3,40.0 96.5,23.5 80.0,51.7" fill="none" stroke="#e8d9a8" stroke-width="1.6" opacity="0.1"/><rect x="17.4" y="17.4" width="85.2" height="85.2" fill="none" stroke="#e8d9a8" stroke-width="1.6" opacity="0.06999999999999999" transform="rotate(45 60.0 60.0)"/></pattern>
</defs>
<rect width="1200" height="700" fill="url(#sky)"/>
<rect width="1200" height="700" fill="url(#g1)"/>
<circle cx="1000" cy="60" r="1.3" fill="#f7ecd2" opacity="0.35"/><circle cx="1178" cy="197" r="1.3" fill="#f7ecd2" opacity="0.51"/><circle cx="1109" cy="157" r="0.8" fill="#f7ecd2" opacity="0.48"/><circle cx="1009" cy="176" r="0.8" fill="#f7ecd2" opacity="0.69"/><circle cx="1046" cy="22" r="0.8" fill="#f7ecd2" opacity="0.47"/><circle cx="284" cy="259" r="0.8" fill="#f7ecd2" opacity="0.41"/><circle cx="1195" cy="339" r="1.3" fill="#f7ecd2" opacity="0.40"/><circle cx="635" cy="38" r="1.3" fill="#f7ecd2" opacity="0.65"/><circle cx="692" cy="164" r="1.3" fill="#f7ecd2" opacity="0.73"/><circle cx="190" cy="301" r="1.8" fill="#f7ecd2" opacity="0.75"/><circle cx="881" cy="21" r="1.8" fill="#f7ecd2" opacity="0.36"/><circle cx="1061" cy="220" r="0.8" fill="#f7ecd2" opacity="0.55"/><circle cx="1138" cy="286" r="1.8" fill="#f7ecd2" opacity="0.53"/><circle cx="896" cy="323" r="1.3" fill="#f7ecd2" opacity="0.43"/><circle cx="167" cy="223" r="0.8" fill="#f7ecd2" opacity="0.76"/><circle cx="1087" cy="242" r="0.8" fill="#f7ecd2" opacity="0.39"/><circle cx="1184" cy="248" r="1.3" fill="#f7ecd2" opacity="0.67"/><circle cx="2" cy="45" r="1.8" fill="#f7ecd2" opacity="0.75"/><circle cx="253" cy="65" r="0.8" fill="#f7ecd2" opacity="0.80"/><circle cx="713" cy="104" r="1.3" fill="#f7ecd2" opacity="0.37"/><circle cx="830" cy="50" r="1.3" fill="#f7ecd2" opacity="0.35"/><circle cx="1108" cy="227" r="0.8" fill="#f7ecd2" opacity="0.51"/><circle cx="1139" cy="227" r="1.3" fill="#f7ecd2" opacity="0.38"/><circle cx="1139" cy="286" r="0.8" fill="#f7ecd2" opacity="0.39"/><circle cx="76" cy="32" r="0.8" fill="#f7ecd2" opacity="0.67"/><circle cx="614" cy="109" r="0.8" fill="#f7ecd2" opacity="0.61"/><circle cx="425" cy="89" r="1.3" fill="#f7ecd2" opacity="0.60"/><circle cx="1165" cy="308" r="0.8" fill="#f7ecd2" opacity="0.55"/><circle cx="122" cy="334" r="0.8" fill="#f7ecd2" opacity="0.83"/><circle cx="920" cy="311" r="1.3" fill="#f7ecd2" opacity="0.55"/><circle cx="511" cy="271" r="1.8" fill="#f7ecd2" opacity="0.66"/><circle cx="791" cy="170" r="1.3" fill="#f7ecd2" opacity="0.55"/><circle cx="968" cy="276" r="1.8" fill="#f7ecd2" opacity="0.53"/><circle cx="826" cy="13" r="1.8" fill="#f7ecd2" opacity="0.73"/><circle cx="197" cy="293" r="1.3" fill="#f7ecd2" opacity="0.56"/><circle cx="17" cy="212" r="1.3" fill="#f7ecd2" opacity="0.39"/><circle cx="214" cy="258" r="1.3" fill="#f7ecd2" opacity="0.47"/><circle cx="332" cy="235" r="0.8" fill="#f7ecd2" opacity="0.55"/><circle cx="683" cy="295" r="0.8" fill="#f7ecd2" opacity="0.70"/><circle cx="43" cy="234" r="1.3" fill="#f7ecd2" opacity="0.47"/><circle cx="260" cy="220" r="0.8" fill="#f7ecd2" opacity="0.35"/><circle cx="638" cy="97" r="0.8" fill="#f7ecd2" opacity="0.71"/><circle cx="769" cy="137" r="0.8" fill="#f7ecd2" opacity="0.38"/><circle cx="869" cy="236" r="1.3" fill="#f7ecd2" opacity="0.69"/><circle cx="1106" cy="162" r="1.8" fill="#f7ecd2" opacity="0.57"/><circle cx="544" cy="139" r="1.8" fill="#f7ecd2" opacity="0.51"/><circle cx="455" cy="159" r="1.8" fill="#f7ecd2" opacity="0.80"/><circle cx="95" cy="278" r="1.3" fill="#f7ecd2" opacity="0.45"/><circle cx="352" cy="144" r="1.3" fill="#f7ecd2" opacity="0.73"/><circle cx="50" cy="21" r="1.8" fill="#f7ecd2" opacity="0.35"/><circle cx="941" cy="161" r="1.3" fill="#f7ecd2" opacity="0.36"/><circle cx="121" cy="300" r="1.3" fill="#f7ecd2" opacity="0.35"/><circle cx="398" cy="106" r="0.8" fill="#f7ecd2" opacity="0.73"/><circle cx="356" cy="223" r="0.8" fill="#f7ecd2" opacity="0.73"/><circle cx="1027" cy="3" r="1.3" fill="#f7ecd2" opacity="0.66"/><circle cx="947" cy="302" r="1.3" fill="#f7ecd2" opacity="0.79"/><circle cx="44" cy="248" r="1.3" fill="#f7ecd2" opacity="0.47"/><circle cx="262" cy="265" r="1.8" fill="#f7ecd2" opacity="0.65"/><circle cx="713" cy="25" r="0.8" fill="#f7ecd2" opacity="0.60"/><circle cx="173" cy="4" r="0.8" fill="#f7ecd2" opacity="0.77"/><circle cx="980" cy="120" r="42" fill="#f6ecd0" opacity="0.95"/><circle cx="996" cy="112" r="36" fill="url(#sky)" opacity="0.92"/>
<rect x="300" y="440" width="600" height="120" fill="#12141c"/><path d="M 270 440 Q 600 395 930 440 L 900 410 Q 600 368 300 410 Z" fill="#12141c"/><rect x="540.0" y="312" width="120" height="58" fill="#12141c"/><path d="M 506.0 312 Q 600 282 694.0 312 L 674.0 290 Q 600 266 526.0 290 Z" fill="#12141c"/><rect x="553.0" y="217" width="94" height="58" fill="#12141c"/><path d="M 519.0 217 Q 600 187 681.0 217 L 661.0 195 Q 600 171 539.0 195 Z" fill="#12141c"/><rect x="566.0" y="122" width="68" height="58" fill="#12141c"/><path d="M 532.0 122 Q 600 92 668.0 122 L 648.0 100 Q 600 76 552.0 100 Z" fill="#12141c"/><line x1="600" y1="78" x2="600" y2="46" stroke="#d8b45a" stroke-width="4"/><circle cx="600" cy="42" r="6" fill="#d8b45a"/>
<rect x="0" y="560" width="1200" height="140" fill="#0c0e14"/>

<rect x="0" y="556" width="1200" height="4" fill="#d8b45a" opacity="0.55"/>
</svg>