<svg xmlns="http://www.w3.org/2000/svg" viewBox="0 0 1200 700" role="img">
<defs>
<linearGradient id="sky" x1="0" y1="0" x2="0" y2="1">
<stop offset="0" stop-color="#0a1026"/><stop offset="0.62" stop-color="#152046"/><stop offset="1" stop-color="#2b3a6b"/>
</linearGradient>
<pattern id="g1" width="120" height="120" patternUnits="userSpaceOnUse"><polygon points="111.6,60.0 80.0,68.3 96.5,96.5 68.3,80.0 60.0,111.6 51.7,80.0 23.5,96.5 40.0,68.3 8.4,60.0 40.0,51.7 23.5,23.5 51.7,40.0 60.0,8.4 68.3,40.0 96.5,23.5 80.0,51.7" fill="none" stroke="#e8d9a8" stroke-width="1.6" opacity="0.1"/><rect x="17.4" y="17.4" width="85.2" height="85.2" fill="none" stroke="#e8d9a8" stroke-width="1.6" opacity="0.06999999999999999" transform="rotate(45 60.0 60.0)"/></pattern>
</defs>
<rect width="1200" height="700" fill="url(#sky)"/>
<rect width="1200" height="700" fill="url(#g1)"/>
<circle cx="372" cy="312" r="0.8" fill="#f7ecd2" opacity="0.49"/><circle cx="934" cy="113" r="0.8" fill="#f7ecd2" opacity="0.77"/><circle cx="97" cy="65" r="0.8" fill="#f7ecd2" opacity="0.40"/><circle cx="333" cy="300" r="0.8" fill="#f7ecd2" opacity="0.35"/><circle cx="898" cy="194" r="0.8" fill="#f7ecd2" opacity="0.47"/><circle cx="280" cy="135" r="1.3" fill="#f7ecd2" opacity="0.35"/><circle cx="903" cy="127" r="1.3" fill="#f7ecd2" opacity="0.66"/><circle cx="919" cy="2" r="0.8" fill="#f7ecd2" opacity="0.73"/><circle cx="1024" cy="256" r="1.8" fill="#f7ecd2" opacity="0.79"/><circle cx="426" cy="137" r="1.8" fill="#f7ecd2" opacity="0.47"/><circle cx="109" cy="229" r="1.8" fill="#f7ecd2" opacity="0.46"/><circle cx="1105" cy="224" r="0.8" fill="#f7ecd2" opacity="0.55"/><circle cx="750" cy="158" r="1.8" fill="#f7ecd2" opacity="0.35"/><circle cx="172" cy="319" r="1.8" fill="#f7ecd2" opacity="0.53"/><circle cx="115" cy="311" r="0.8" fill="#f7ecd2" opacity="0.50"/><circle cx="891" cy="286" r="1.3" fill="#f7ecd2" opacity="0.61"/><circle cx="76" cy="240" r="1.3" fill="#f7ecd2" opacity="0.75"/><circle cx="718" cy="141" r="1.3" fill="#f7ecd2" opacity="0.73"/><circle cx="921" cy="33" r="0.8" fill="#f7ecd2" opacity="0.78"/><circle cx="277" cy="188" r="0.8" fill="#f7ecd2" opacity="0.61"/><circle cx="202" cy="302" r="0.8" fill="#f7ecd2" opacity="0.39"/><circle cx="864" cy="143" r="1.8" fill="#f7ecd2" opacity="0.37"/><circle cx="127" cy="135" r="1.3" fill="#f7ecd2" opacity="0.80"/><circle cx="463" cy="70" r="1.8" fill="#f7ecd2" opacity="0.45"/><circle cx="1128" cy="4" r="1.3" fill="#f7ecd2" opacity="0.47"/><circle cx="610" cy="325" r="1.8" fill="#f7ecd2" opacity="0.35"/><circle cx="133" cy="217" r="1.8" fill="#f7ecd2" opacity="0.46"/><circle cx="249" cy="132" r="0.8" fill="#f7ecd2" opacity="0.53"/><circle cx="454" cy="86" r="0.8" fill="#f7ecd2" opacity="0.79"/><circle cx="1156" cy="147" r="1.3" fill="#f7ecd2" opacity="0.67"/><circle cx="939" cy="279" r="0.8" fill="#f7ecd2" opacity="0.66"/><circle cx="835" cy="174" r="1.3" fill="#f7ecd2" opacity="0.75"/><circle cx="580" cy="148" r="1.8" fill="#f7ecd2" opacity="0.75"/><circle cx="102" cy="9" r="0.8" fill="#f7ecd2" opacity="0.53"/><circle cx="145" cy="41" r="0.8" fill="#f7ecd2" opacity="0.80"/><circle cx="1021" cy="56" r="0.8" fill="#f7ecd2" opacity="0.61"/><circle cx="306" cy="50" r="1.8" fill="#f7ecd2" opacity="0.35"/><circle cx="1048" cy="331" r="1.8" fill="#f7ecd2" opacity="0.73"/><circle cx="151" cy="123" r="1.3" fill="#f7ecd2" opacity="0.58"/><circle cx="807" cy="118" r="1.3" fill="#f7ecd2" opacity="0.61"/><circle cx="832" cy="272" r="0.8" fill="#f7ecd2" opacity="0.39"/><circle cx="394" cy="13" r="1.8" fill="#f7ecd2" opacity="0.57"/><circle cx="957" cy="185" r="1.8" fill="#f7ecd2" opacity="0.80"/><circle cx="193" cy="20" r="0.8" fill="#f7ecd2" opacity="0.45"/><circle cx="958" cy="334" r="1.8" fill="#f7ecd2" opacity="0.57"/><circle cx="540" cy="15" r="0.8" fill="#f7ecd2" opacity="0.35"/><circle cx="163" cy="287" r="0.8" fill="#f7ecd2" opacity="0.66"/><circle cx="379" cy="242" r="0.8" fill="#f7ecd2" opacity="0.53"/><circle cx="684" cy="236" r="1.8" fill="#f7ecd2" opacity="0.59"/><circle cx="286" cy="197" r="0.8" fill="#f7ecd2" opacity="0.77"/><circle cx="169" cy="29" r="0.8" fill="#f7ecd2" opacity="0.36"/><circle cx="165" cy="304" r="1.3" fill="#f7ecd2" opacity="0.45"/><circle cx="10" cy="318" r="1.3" fill="#f7ecd2" opacity="0.65"/><circle cx="832" cy="19" r="1.8" fill="#f7ecd2" opacity="0.43"/><circle cx="975" cy="91" r="1.3" fill="#f7ecd2" opacity="0.60"/><circle cx="751" cy="6" r="1.3" fill="#f7ecd2" opacity="0.41"/><circle cx="136" cy="40" r="1.8" fill="#f7ecd2" opacity="0.75"/><circle cx="978" cy="21" r="0.8" fill="#f7ecd2" opacity="0.73"/><circle cx="181" cy="193" r="1.8" fill="#f7ecd2" opacity="0.68"/><circle cx="937" cy="228" r="1.3" fill="#f7ecd2" opacity="0.71"/><circle cx="980" cy="120" r="42" fill="#f6ecd0" opacity="0.95"/><circle cx="996" cy="112" r="36" fill="url(#sky)" opacity="0.92"/>
<rect x="300" y="440" width="600" height="120" fill="#12141c"/><path d="M 270 440 Q 600 395 930 440 L 900 410 Q 600 368 300 410 Z" fill="#12141c"/><rect x="540.0" y="312" width="120" height="58" fill="#12141c"/><path d="M 506.0 312 Q 600 282 694.0 312 L 674.0 290 Q 600 266 526.0 290 Z" fill="#12141c"/><rect x="553.0" y="217" width="94" height="58" fill="#12141c"/><path d="M 519.0 217 Q 600 187 681.0 217 L 661.0 195 Q 600 171 539.0 195 Z" fill="#12141c"/><rect x="566.0" y="122" width="68" height="58" fill="#12141c"/><path d="M 532.0 122 Q 600 92 668.0 122 L 648.0 100 Q 600 76 552.0 100 Z" fill="#12141c"/><line x1="600" y1="78" x2="600" y2="46" stroke="#d8b45a" stroke-width="4"/><circle cx="600" cy="42" r="6" fill="#d8b45a"/>
<rect x="0" y="560" width="1200" height="140" fill="#0c0e14"/>

<rect x="0" y="556" width="1200" height="4" fill="#d8b45a" opacity="0.55"/>
</svg>