<svg xmlns="http://www.w3.org/2000/svg" viewBox="0 0 1200 700" role="img">
<defs>
<linearGradient id="sky" x1="0" y1="0" x2="0" y2="1">
<stop offset="0" stop-color="#0a1026"/><stop offset="0.62" stop-color="#152046"/><stop offset="1" stop-color="#2b3a6b"/>
</linearGradient>
<pattern id="g1" width="120" height="120" patternUnits="userSpaceOnUse"><polygon points="111.6,60.0 80.0,68.3 96.5,96.5 68.3,80.0 60.0,111.6 51.7,80.0 23.5,96.5 40.0,68.3 8.4,60.0 40.0,51.7 23.5,23.5 51.7,40.0 60.0,8.4 68.3,40.0 96.5,23.5 80.0,51.7" fill="none" stroke="#e8d9a8" stroke-width="1.6" opacity="0.1"/><rect x="17.4" y="17.4" width="85.2" height="85.2" fill="none" stroke="#e8d9a8" stroke-width="1.6" opacity="0.06999999999999999" transform="rotate(45 60.0 60.0)"/></pattern>
</defs>
<rect width="1200" height="700" fill="url(#sky)"/>
<rect width="1200" height="700" fill="url(#g1)"/>
<circle cx="438" cy="318" r="0.8" fill="#f7ecd2" opacity="0.69"/><circle cx="952" cy="331" r="1.8" fill="#f7ecd2" opacity="0.47"/><circle cx="211" cy="199" r="1.8" fill="#f7ecd2" opacity="0.74"/><circle cx="255" cy="262" r="1.3" fill="#f7ecd2" opacity="0.45"/><circle cx="4" cy="20" r="0.8" fill="#f7ecd2" opacity="0.65"/><circle cx="1018" cy="233" r="0.8" fill="#f7ecd2" opacity="0.79"/><circle cx="777" cy="301" r="1.3" fill="#f7ecd2" opacity="0.62"/><circle cx="121" cy="84" r="1.3" fill="#f7ecd2" opacity="0.49"/><circle cx="370" cy="42" r="1.3" fill="#f7ecd2" opacity="0.75"/><circle cx="684" cy="315" r="0.8" fill="#f7ecd2" opacity="0.45"/><circle cx="943" cy="243" r="1.3" fill="#f7ecd2" opacity="0.84"/><circle cx="787" cy="226" r="1.8" fill="#f7ecd2" opacity="0.47"/><circle cx="336" cy="244" r="1.3" fill="#f7ecd2" opacity="0.69"/><circle cx="1150" cy="37" r="1.8" fill="#f7ecd2" opacity="0.35"/><circle cx="709" cy="25" r="1.8" fill="#f7ecd2" opacity="0.60"/><circle cx="1053" cy="208" r="1.3" fill="#f7ecd2" opacity="0.59"/><circle cx="1102" cy="86" r="0.8" fill="#f7ecd2" opacity="0.57"/><circle cx="16" cy="139" r="1.8" fill="#f7ecd2" opacity="0.59"/><circle cx="75" cy="327" r="0.8" fill="#f7ecd2" opacity="0.60"/><circle cx="919" cy="30" r="1.3" fill="#f7ecd2" opacity="0.55"/><circle cx="268" cy="308" r="0.8" fill="#f7ecd2" opacity="0.79"/><circle cx="882" cy="21" r="0.8" fill="#f7ecd2" opacity="0.57"/><circle cx="241" cy="269" r="0.8" fill="#f7ecd2" opacity="0.64"/><circle cx="385" cy="32" r="0.8" fill="#f7ecd2" opacity="0.55"/><circle cx="234" cy="170" r="1.8" fill="#f7ecd2" opacity="0.65"/><circle cx="148" cy="283" r="1.8" fill="#f7ecd2" opacity="0.69"/><circle cx="7" cy="51" r="1.3" fill="#f7ecd2" opacity="0.42"/><circle cx="651" cy="14" r="1.8" fill="#f7ecd2" opacity="0.49"/><circle cx="1000" cy="12" r="1.3" fill="#f7ecd2" opacity="0.35"/><circle cx="214" cy="185" r="0.8" fill="#f7ecd2" opacity="0.75"/><circle cx="573" cy="153" r="0.8" fill="#f7ecd2" opacity="0.54"/><circle cx="517" cy="176" r="0.8" fill="#f7ecd2" opacity="0.77"/><circle cx="166" cy="234" r="1.3" fill="#f7ecd2" opacity="0.79"/><circle cx="1080" cy="67" r="1.3" fill="#f7ecd2" opacity="0.45"/><circle cx="739" cy="95" r="0.8" fill="#f7ecd2" opacity="0.40"/><circle cx="1183" cy="318" r="1.3" fill="#f7ecd2" opacity="0.79"/><circle cx="132" cy="96" r="0.8" fill="#f7ecd2" opacity="0.57"/><circle cx="346" cy="329" r="0.8" fill="#f7ecd2" opacity="0.69"/><circle cx="505" cy="217" r="1.8" fill="#f7ecd2" opacity="0.70"/><circle cx="249" cy="160" r="1.3" fill="#f7ecd2" opacity="0.75"/><circle cx="898" cy="278" r="0.8" fill="#f7ecd2" opacity="0.79"/><circle cx="412" cy="231" r="1.3" fill="#f7ecd2" opacity="0.57"/><circle cx="1071" cy="319" r="1.3" fill="#f7ecd2" opacity="0.84"/><circle cx="115" cy="322" r="1.8" fill="#f7ecd2" opacity="0.65"/><circle cx="64" cy="160" r="1.8" fill="#f7ecd2" opacity="0.75"/><circle cx="78" cy="313" r="1.3" fill="#f7ecd2" opacity="0.49"/><circle cx="37" cy="121" r="1.8" fill="#f7ecd2" opacity="0.62"/><circle cx="781" cy="124" r="1.8" fill="#f7ecd2" opacity="0.79"/><circle cx="30" cy="22" r="1.3" fill="#f7ecd2" opacity="0.45"/><circle cx="544" cy="35" r="0.8" fill="#f7ecd2" opacity="0.75"/><circle cx="1003" cy="43" r="1.8" fill="#f7ecd2" opacity="0.64"/><circle cx="1047" cy="106" r="1.3" fill="#f7ecd2" opacity="0.67"/><circle cx="796" cy="204" r="1.3" fill="#f7ecd2" opacity="0.69"/><circle cx="610" cy="277" r="1.8" fill="#f7ecd2" opacity="0.55"/><circle cx="369" cy="5" r="1.8" fill="#f7ecd2" opacity="0.80"/><circle cx="913" cy="268" r="1.8" fill="#f7ecd2" opacity="0.69"/><circle cx="1162" cy="226" r="1.8" fill="#f7ecd2" opacity="0.47"/><circle cx="276" cy="19" r="1.3" fill="#f7ecd2" opacity="0.79"/><circle cx="535" cy="287" r="0.8" fill="#f7ecd2" opacity="0.80"/><circle cx="379" cy="270" r="1.3" fill="#f7ecd2" opacity="0.65"/><circle cx="980" cy="120" r="42" fill="#f6ecd0" opacity="0.95"/><circle cx="996" cy="112" r="36" fill="url(#sky)" opacity="0.92"/>
<rect x="300" y="440" width="600" height="120" fill="#12141c"/><path d="M 270 440 Q 600 395 930 440 L 900 410 Q 600 368 300 410 Z" fill="#12141c"/><rect x="540.0" y="312" width="120" height="58" fill="#12141c"/><path d="M 506.0 312 Q 600 282 694.0 312 L 674.0 290 Q 600 266 526.0 290 Z" fill="#12141c"/><rect x="553.0" y="217" width="94" height="58" fill="#12141c"/><path d="M 519.0 217 Q 600 187 681.0 217 L 661.0 195 Q 600 171 539.0 195 Z" fill="#12141c"/><rect x="566.0" y="122" width="68" height="58" fill="#12141c"/><path d="M 532.0 122 Q 600 92 668.0 122 L 648.0 100 Q 600 76 552.0 100 Z" fill="#12141c"/><line x1="600" y1="78" x2="600" y2="46" stroke="#d8b45a" stroke-width="4"/><circle cx="600" cy="42" r="6" fill="#d8b45a"/>
<rect x="0" y="560" width="1200" height="140" fill="#0c0e14"/>

<rect x="0" y="556" width="1200" height="4" fill="#d8b45a" opacity="0.55"/>
</svg>