<svg xmlns="http://www.w3.org/2000/svg" viewBox="0 0 1200 700" role="img">
<defs>
<linearGradient id="sky" x1="0" y1="0" x2="0" y2="1">
<stop offset="0" stop-color="#0a1026"/><stop offset="0.62" stop-color="#152046"/><stop offset="1" stop-color="#2b3a6b"/>
</linearGradient>
<pattern id="g1" width="120" height="120" patternUnits="userSpaceOnUse"><polygon points="111.6,60.0 80.0,68.3 96.5,96.5 68.3,80.0 60.0,111.6 51.7,80.0 23.5,96.5 40.0,68.3 8.4,60.0 40.0,51.7 23.5,23.5 51.7,40.0 60.0,8.4 68.3,40.0 96.5,23.5 80.0,51.7" fill="none" stroke="#e8d9a8" stroke-width="1.6" opacity="0.1"/><rect x="17.4" y="17.4" width="85.2" height="85.2" fill="none" stroke="#e8d9a8" stroke-width="1.6" opacity="0.06999999999999999" transform="rotate(45 60.0 60.0)"/></pattern>
</defs>
<rect width="1200" height="700" fill="url(#sky)"/>
<rect width="1200" height="700" fill="url(#g1)"/>
<circle cx="1163" cy="13" r="0.8" fill="#f7ecd2" opacity="0.54"/><circle cx="1077" cy="126" r="0.8" fill="#f7ecd2" opacity="0.37"/><circle cx="936" cy="234" r="0.8" fill="#f7ecd2" opacity="0.59"/><circle cx="380" cy="57" r="1.8" fill="#f7ecd2" opacity="0.45"/><circle cx="729" cy="55" r="1.3" fill="#f7ecd2" opacity="0.80"/><circle cx="1143" cy="28" r="1.3" fill="#f7ecd2" opacity="0.39"/><circle cx="302" cy="196" r="0.8" fill="#f7ecd2" opacity="0.77"/><circle cx="246" cy="219" r="0.8" fill="#f7ecd2" opacity="0.59"/><circle cx="1095" cy="77" r="1.8" fill="#f7ecd2" opacity="0.50"/><circle cx="809" cy="110" r="1.3" fill="#f7ecd2" opacity="0.75"/><circle cx="468" cy="138" r="0.8" fill="#f7ecd2" opacity="0.69"/><circle cx="912" cy="21" r="0.8" fill="#f7ecd2" opacity="0.37"/><circle cx="1061" cy="279" r="1.8" fill="#f7ecd2" opacity="0.54"/><circle cx="75" cy="32" r="1.8" fill="#f7ecd2" opacity="0.35"/><circle cx="234" cy="260" r="1.8" fill="#f7ecd2" opacity="0.75"/><circle cx="1178" cy="3" r="1.8" fill="#f7ecd2" opacity="0.69"/><circle cx="627" cy="321" r="0.8" fill="#f7ecd2" opacity="0.52"/><circle cx="141" cy="274" r="1.3" fill="#f7ecd2" opacity="0.69"/><circle cx="800" cy="22" r="0.8" fill="#f7ecd2" opacity="0.35"/><circle cx="1044" cy="165" r="0.8" fill="#f7ecd2" opacity="0.45"/><circle cx="993" cy="3" r="0.8" fill="#f7ecd2" opacity="0.64"/><circle cx="1007" cy="156" r="1.8" fill="#f7ecd2" opacity="0.77"/><circle cx="966" cy="304" r="1.3" fill="#f7ecd2" opacity="0.49"/><circle cx="510" cy="167" r="1.8" fill="#f7ecd2" opacity="0.55"/><circle cx="959" cy="205" r="0.8" fill="#f7ecd2" opacity="0.80"/><circle cx="273" cy="78" r="0.8" fill="#f7ecd2" opacity="0.79"/><circle cx="732" cy="86" r="1.8" fill="#f7ecd2" opacity="0.37"/><circle cx="776" cy="149" r="1.3" fill="#f7ecd2" opacity="0.59"/><circle cx="525" cy="247" r="1.3" fill="#f7ecd2" opacity="0.60"/><circle cx="339" cy="320" r="1.8" fill="#f7ecd2" opacity="0.65"/><circle cx="98" cy="48" r="1.8" fill="#f7ecd2" opacity="0.39"/><circle cx="642" cy="311" r="1.8" fill="#f7ecd2" opacity="0.47"/><circle cx="891" cy="269" r="1.8" fill="#f7ecd2" opacity="0.64"/><circle cx="5" cy="62" r="1.3" fill="#f7ecd2" opacity="0.45"/><circle cx="264" cy="330" r="0.8" fill="#f7ecd2" opacity="0.55"/><circle cx="108" cy="313" r="1.3" fill="#f7ecd2" opacity="0.39"/><circle cx="857" cy="131" r="1.3" fill="#f7ecd2" opacity="0.52"/><circle cx="471" cy="124" r="1.3" fill="#f7ecd2" opacity="0.39"/><circle cx="30" cy="112" r="1.3" fill="#f7ecd2" opacity="0.45"/><circle cx="374" cy="295" r="0.8" fill="#f7ecd2" opacity="0.65"/><circle cx="423" cy="173" r="1.8" fill="#f7ecd2" opacity="0.64"/><circle cx="537" cy="26" r="1.8" fill="#f7ecd2" opacity="0.47"/><circle cx="596" cy="214" r="0.8" fill="#f7ecd2" opacity="0.79"/><circle cx="240" cy="117" r="0.8" fill="#f7ecd2" opacity="0.65"/><circle cx="789" cy="195" r="0.8" fill="#f7ecd2" opacity="0.40"/><circle cx="203" cy="108" r="1.8" fill="#f7ecd2" opacity="0.59"/><circle cx="762" cy="156" r="0.8" fill="#f7ecd2" opacity="0.57"/><circle cx="906" cy="259" r="1.3" fill="#f7ecd2" opacity="0.39"/><circle cx="755" cy="57" r="1.8" fill="#f7ecd2" opacity="0.70"/><circle cx="669" cy="170" r="1.8" fill="#f7ecd2" opacity="0.65"/><circle cx="528" cy="278" r="1.8" fill="#f7ecd2" opacity="0.69"/><circle cx="1172" cy="241" r="0.8" fill="#f7ecd2" opacity="0.37"/><circle cx="321" cy="99" r="0.8" fill="#f7ecd2" opacity="0.64"/><circle cx="735" cy="72" r="0.8" fill="#f7ecd2" opacity="0.55"/><circle cx="1094" cy="40" r="0.8" fill="#f7ecd2" opacity="0.45"/><circle cx="1038" cy="63" r="0.8" fill="#f7ecd2" opacity="0.79"/><circle cx="687" cy="121" r="1.3" fill="#f7ecd2" opacity="0.62"/><circle cx="401" cy="154" r="0.8" fill="#f7ecd2" opacity="0.39"/><circle cx="60" cy="182" r="1.8" fill="#f7ecd2" opacity="0.55"/><circle cx="504" cy="65" r="1.8" fill="#f7ecd2" opacity="0.45"/><circle cx="980" cy="120" r="42" fill="#f6ecd0" opacity="0.95"/><circle cx="996" cy="112" r="36" fill="url(#sky)" opacity="0.92"/>
<rect x="300" y="440" width="600" height="120" fill="#12141c"/><path d="M 270 440 Q 600 395 930 440 L 900 410 Q 600 368 300 410 Z" fill="#12141c"/><rect x="540.0" y="312" width="120" height="58" fill="#12141c"/><path d="M 506.0 312 Q 600 282 694.0 312 L 674.0 290 Q 600 266 526.0 290 Z" fill="#12141c"/><rect x="553.0" y="217" width="94" height="58" fill="#12141c"/><path d="M 519.0 217 Q 600 187 681.0 217 L 661.0 195 Q 600 171 539.0 195 Z" fill="#12141c"/><rect x="566.0" y="122" width="68" height="58" fill="#12141c"/><path d="M 532.0 122 Q 600 92 668.0 122 L 648.0 100 Q 600 76 552.0 100 Z" fill="#12141c"/><line x1="600" y1="78" x2="600" y2="46" stroke="#d8b45a" stroke-width="4"/><circle cx="600" cy="42" r="6" fill="#d8b45a"/>
<rect x="0" y="560" width="1200" height="140" fill="#0c0e14"/>

<rect x="0" y="556" width="1200" height="4" fill="#d8b45a" opacity="0.55"/>
</svg>