<svg xmlns="http://www.w3.org/2000/svg" viewBox="0 0 1200 700" role="img">
<defs>
<linearGradient id="sky" x1="0" y1="0" x2="0" y2="1">
<stop offset="0" stop-color="#0a1026"/><stop offset="0.62" stop-color="#152046"/><stop offset="1" stop-color="#2b3a6b"/>
</linearGradient>
<pattern id="g1" width="120" height="120" patternUnits="userSpaceOnUse"><polygon points="111.6,60.0 80.0,68.3 96.5,96.5 68.3,80.0 60.0,111.6 51.7,80.0 23.5,96.5 40.0,68.3 8.4,60.0 40.0,51.7 23.5,23.5 51.7,40.0 60.0,8.4 68.3,40.0 96.5,23.5 80.0,51.7" fill="none" stroke="#e8d9a8" stroke-width="1.6" opacity="0.1"/><rect x="17.4" y="17.4" width="85.2" height="85.2" fill="none" stroke="#e8d9a8" stroke-width="1.6" opacity="0.06999999999999999" transform="rotate(45 60.0 60.0)"/></pattern>
</defs>
<rect width="1200" height="700" fill="url(#sky)"/>
<rect width="1200" height="700" fill="url(#g1)"/>
<circle cx="1060" cy="220" r="1.8" fill="#f7ecd2" opacity="0.35"/><circle cx="758" cy="97" r="0.8" fill="#f7ecd2" opacity="0.61"/><circle cx="449" cy="97" r="0.8" fill="#f7ecd2" opacity="0.38"/><circle cx="829" cy="36" r="1.3" fill="#f7ecd2" opacity="0.79"/><circle cx="1106" cy="182" r="1.3" fill="#f7ecd2" opacity="0.77"/><circle cx="1064" cy="299" r="1.3" fill="#f7ecd2" opacity="0.71"/><circle cx="535" cy="279" r="1.3" fill="#f7ecd2" opacity="0.50"/><circle cx="455" cy="238" r="0.8" fill="#f7ecd2" opacity="0.75"/><circle cx="752" cy="324" r="1.8" fill="#f7ecd2" opacity="0.83"/><circle cx="970" cy="1" r="1.8" fill="#f7ecd2" opacity="0.55"/><circle cx="221" cy="301" r="0.8" fill="#f7ecd2" opacity="0.56"/><circle cx="881" cy="80" r="1.3" fill="#f7ecd2" opacity="0.65"/><circle cx="1198" cy="106" r="1.8" fill="#f7ecd2" opacity="0.73"/><circle cx="476" cy="223" r="0.8" fill="#f7ecd2" opacity="0.83"/><circle cx="707" cy="303" r="1.8" fill="#f7ecd2" opacity="0.56"/><circle cx="907" cy="102" r="1.3" fill="#f7ecd2" opacity="0.49"/><circle cx="44" cy="268" r="0.8" fill="#f7ecd2" opacity="0.77"/><circle cx="782" cy="85" r="0.8" fill="#f7ecd2" opacity="0.55"/><circle cx="793" cy="145" r="1.8" fill="#f7ecd2" opacity="0.70"/><circle cx="533" cy="304" r="0.8" fill="#f7ecd2" opacity="0.67"/><circle cx="890" cy="210" r="1.8" fill="#f7ecd2" opacity="0.35"/><circle cx="688" cy="127" r="1.8" fill="#f7ecd2" opacity="0.61"/><circle cx="479" cy="167" r="1.3" fill="#f7ecd2" opacity="0.78"/><circle cx="959" cy="146" r="1.3" fill="#f7ecd2" opacity="0.49"/><circle cx="136" cy="192" r="1.3" fill="#f7ecd2" opacity="0.47"/><circle cx="194" cy="9" r="1.8" fill="#f7ecd2" opacity="0.81"/><circle cx="965" cy="169" r="0.8" fill="#f7ecd2" opacity="0.70"/><circle cx="985" cy="168" r="1.3" fill="#f7ecd2" opacity="0.65"/><circle cx="182" cy="154" r="0.8" fill="#f7ecd2" opacity="0.63"/><circle cx="500" cy="211" r="0.8" fill="#f7ecd2" opacity="0.35"/><circle cx="1051" cy="11" r="0.8" fill="#f7ecd2" opacity="0.46"/><circle cx="611" cy="30" r="1.8" fill="#f7ecd2" opacity="0.65"/><circle cx="1028" cy="96" r="1.8" fill="#f7ecd2" opacity="0.73"/><circle cx="406" cy="253" r="1.8" fill="#f7ecd2" opacity="0.53"/><circle cx="737" cy="33" r="1.8" fill="#f7ecd2" opacity="0.56"/><circle cx="1037" cy="212" r="1.3" fill="#f7ecd2" opacity="0.79"/><circle cx="274" cy="78" r="1.3" fill="#f7ecd2" opacity="0.57"/><circle cx="1112" cy="275" r="1.3" fill="#f7ecd2" opacity="0.35"/><circle cx="23" cy="235" r="0.8" fill="#f7ecd2" opacity="0.40"/><circle cx="1063" cy="234" r="1.3" fill="#f7ecd2" opacity="0.77"/><circle cx="320" cy="40" r="0.8" fill="#f7ecd2" opacity="0.35"/><circle cx="218" cy="337" r="0.8" fill="#f7ecd2" opacity="0.51"/><circle cx="109" cy="77" r="0.8" fill="#f7ecd2" opacity="0.78"/><circle cx="689" cy="96" r="1.8" fill="#f7ecd2" opacity="0.79"/><circle cx="1166" cy="322" r="0.8" fill="#f7ecd2" opacity="0.37"/><circle cx="124" cy="39" r="1.3" fill="#f7ecd2" opacity="0.71"/><circle cx="995" cy="239" r="1.3" fill="#f7ecd2" opacity="0.40"/><circle cx="1115" cy="278" r="1.3" fill="#f7ecd2" opacity="0.55"/><circle cx="412" cy="304" r="1.8" fill="#f7ecd2" opacity="0.83"/><circle cx="830" cy="61" r="0.8" fill="#f7ecd2" opacity="0.65"/><circle cx="281" cy="101" r="1.3" fill="#f7ecd2" opacity="0.66"/><circle cx="1141" cy="300" r="1.3" fill="#f7ecd2" opacity="0.35"/><circle cx="458" cy="266" r="1.3" fill="#f7ecd2" opacity="0.63"/><circle cx="1136" cy="263" r="1.3" fill="#f7ecd2" opacity="0.53"/><circle cx="367" cy="283" r="1.8" fill="#f7ecd2" opacity="0.46"/><circle cx="767" cy="162" r="1.8" fill="#f7ecd2" opacity="0.39"/><circle cx="104" cy="68" r="1.3" fill="#f7ecd2" opacity="0.57"/><circle cx="1042" cy="305" r="0.8" fill="#f7ecd2" opacity="0.45"/><circle cx="53" cy="305" r="1.3" fill="#f7ecd2" opacity="0.50"/><circle cx="1193" cy="4" r="0.8" fill="#f7ecd2" opacity="0.57"/><circle cx="980" cy="120" r="42" fill="#f6ecd0" opacity="0.95"/><circle cx="996" cy="112" r="36" fill="url(#sky)" opacity="0.92"/>
<rect x="300" y="440" width="600" height="120" fill="#12141c"/><path d="M 270 440 Q 600 395 930 440 L 900 410 Q 600 368 300 410 Z" fill="#12141c"/><rect x="540.0" y="312" width="120" height="58" fill="#12141c"/><path d="M 506.0 312 Q 600 282 694.0 312 L 674.0 290 Q 600 266 526.0 290 Z" fill="#12141c"/><rect x="553.0" y="217" width="94" height="58" fill="#12141c"/><path d="M 519.0 217 Q 600 187 681.0 217 L 661.0 195 Q 600 171 539.0 195 Z" fill="#12141c"/><rect x="566.0" y="122" width="68" height="58" fill="#12141c"/><path d="M 532.0 122 Q 600 92 668.0 122 L 648.0 100 Q 600 76 552.0 100 Z" fill="#12141c"/><line x1="600" y1="78" x2="600" y2="46" stroke="#d8b45a" stroke-width="4"/><circle cx="600" cy="42" r="6" fill="#d8b45a"/>
<rect x="0" y="560" width="1200" height="140" fill="#0c0e14"/>

<rect x="0" y="556" width="1200" height="4" fill="#d8b45a" opacity="0.55"/>
</svg>