<svg xmlns="http://www.w3.org/2000/svg" viewBox="0 0 1200 700" role="img">
<defs>
<linearGradient id="sky" x1="0" y1="0" x2="0" y2="1">
<stop offset="0" stop-color="#0a1026"/><stop offset="0.62" stop-color="#152046"/><stop offset="1" stop-color="#2b3a6b"/>
</linearGradient>
<pattern id="g1" width="120" height="120" patternUnits="userSpaceOnUse"><polygon points="111.6,60.0 80.0,68.3 96.5,96.5 68.3,80.0 60.0,111.6 51.7,80.0 23.5,96.5 40.0,68.3 8.4,60.0 40.0,51.7 23.5,23.5 51.7,40.0 60.0,8.4 68.3,40.0 96.5,23.5 80.0,51.7" fill="none" stroke="#e8d9a8" stroke-width="1.6" opacity="0.1"/><rect x="17.4" y="17.4" width="85.2" height="85.2" fill="none" stroke="#e8d9a8" stroke-width="1.6" opacity="0.06999999999999999" transform="rotate(45 60.0 60.0)"/></pattern>
</defs>
<rect width="1200" height="700" fill="url(#sky)"/>
<rect width="1200" height="700" fill="url(#g1)"/>
<circle cx="366" cy="126" r="0.8" fill="#f7ecd2" opacity="0.51"/><circle cx="496" cy="135" r="1.3" fill="#f7ecd2" opacity="0.45"/><circle cx="523" cy="11" r="0.8" fill="#f7ecd2" opacity="0.38"/><circle cx="231" cy="198" r="0.8" fill="#f7ecd2" opacity="0.73"/><circle cx="652" cy="48" r="1.3" fill="#f7ecd2" opacity="0.81"/><circle cx="322" cy="77" r="0.8" fill="#f7ecd2" opacity="0.79"/><circle cx="369" cy="233" r="1.8" fill="#f7ecd2" opacity="0.62"/><circle cx="337" cy="320" r="0.8" fill="#f7ecd2" opacity="0.75"/><circle cx="538" cy="150" r="1.3" fill="#f7ecd2" opacity="0.35"/><circle cx="948" cy="339" r="0.8" fill="#f7ecd2" opacity="0.57"/><circle cx="1015" cy="95" r="0.8" fill="#f7ecd2" opacity="0.60"/><circle cx="43" cy="282" r="1.3" fill="#f7ecd2" opacity="0.61"/><circle cx="24" cy="92" r="1.8" fill="#f7ecd2" opacity="0.43"/><circle cx="1174" cy="101" r="0.8" fill="#f7ecd2" opacity="0.59"/><circle cx="61" cy="337" r="1.8" fill="#f7ecd2" opacity="0.42"/><circle cx="549" cy="224" r="1.8" fill="#f7ecd2" opacity="0.61"/><circle cx="310" cy="14" r="0.8" fill="#f7ecd2" opacity="0.75"/><circle cx="1000" cy="43" r="1.8" fill="#f7ecd2" opacity="0.35"/><circle cx="1107" cy="19" r="1.3" fill="#f7ecd2" opacity="0.68"/><circle cx="655" cy="6" r="1.3" fill="#f7ecd2" opacity="0.65"/><circle cx="196" cy="116" r="0.8" fill="#f7ecd2" opacity="0.71"/><circle cx="426" cy="165" r="0.8" fill="#f7ecd2" opacity="0.75"/><circle cx="553" cy="81" r="1.3" fill="#f7ecd2" opacity="0.78"/><circle cx="361" cy="308" r="0.8" fill="#f7ecd2" opacity="0.73"/><circle cx="882" cy="198" r="0.8" fill="#f7ecd2" opacity="0.71"/><circle cx="652" cy="267" r="1.3" fill="#f7ecd2" opacity="0.69"/><circle cx="799" cy="123" r="1.3" fill="#f7ecd2" opacity="0.62"/><circle cx="867" cy="250" r="1.3" fill="#f7ecd2" opacity="0.35"/><circle cx="1168" cy="120" r="1.3" fill="#f7ecd2" opacity="0.45"/><circle cx="478" cy="209" r="0.8" fill="#f7ecd2" opacity="0.37"/><circle cx="645" cy="5" r="1.8" fill="#f7ecd2" opacity="0.60"/><circle cx="973" cy="32" r="0.8" fill="#f7ecd2" opacity="0.71"/><circle cx="1054" cy="222" r="1.3" fill="#f7ecd2" opacity="0.73"/><circle cx="1104" cy="131" r="1.8" fill="#f7ecd2" opacity="0.59"/><circle cx="91" cy="67" r="1.8" fill="#f7ecd2" opacity="0.82"/><circle cx="679" cy="334" r="1.8" fill="#f7ecd2" opacity="0.71"/><circle cx="540" cy="164" r="1.8" fill="#f7ecd2" opacity="0.45"/><circle cx="130" cy="93" r="1.3" fill="#f7ecd2" opacity="0.75"/><circle cx="337" cy="109" r="1.8" fill="#f7ecd2" opacity="0.68"/><circle cx="1185" cy="276" r="0.8" fill="#f7ecd2" opacity="0.45"/><circle cx="826" cy="86" r="0.8" fill="#f7ecd2" opacity="0.71"/><circle cx="1156" cy="175" r="1.8" fill="#f7ecd2" opacity="0.35"/><circle cx="183" cy="331" r="1.3" fill="#f7ecd2" opacity="0.58"/><circle cx="91" cy="258" r="1.3" fill="#f7ecd2" opacity="0.63"/><circle cx="712" cy="188" r="0.8" fill="#f7ecd2" opacity="0.41"/><circle cx="582" cy="297" r="0.8" fill="#f7ecd2" opacity="0.39"/><circle cx="829" cy="193" r="1.8" fill="#f7ecd2" opacity="0.82"/><circle cx="997" cy="20" r="0.8" fill="#f7ecd2" opacity="0.75"/><circle cx="198" cy="130" r="1.3" fill="#f7ecd2" opacity="0.75"/><circle cx="808" cy="59" r="0.8" fill="#f7ecd2" opacity="0.57"/><circle cx="1075" cy="235" r="1.8" fill="#f7ecd2" opacity="0.60"/><circle cx="303" cy="162" r="0.8" fill="#f7ecd2" opacity="0.71"/><circle cx="484" cy="52" r="1.8" fill="#f7ecd2" opacity="0.53"/><circle cx="634" cy="1" r="1.8" fill="#f7ecd2" opacity="0.69"/><circle cx="921" cy="117" r="0.8" fill="#f7ecd2" opacity="0.42"/><circle cx="409" cy="284" r="0.8" fill="#f7ecd2" opacity="0.41"/><circle cx="370" cy="154" r="1.8" fill="#f7ecd2" opacity="0.65"/><circle cx="60" cy="123" r="0.8" fill="#f7ecd2" opacity="0.65"/><circle cx="367" cy="179" r="0.8" fill="#f7ecd2" opacity="0.78"/><circle cx="115" cy="246" r="1.3" fill="#f7ecd2" opacity="0.75"/><circle cx="980" cy="120" r="42" fill="#f6ecd0" opacity="0.95"/><circle cx="996" cy="112" r="36" fill="url(#sky)" opacity="0.92"/>
<rect x="300" y="440" width="600" height="120" fill="#12141c"/><path d="M 270 440 Q 600 395 930 440 L 900 410 Q 600 368 300 410 Z" fill="#12141c"/><rect x="540.0" y="312" width="120" height="58" fill="#12141c"/><path d="M 506.0 312 Q 600 282 694.0 312 L 674.0 290 Q 600 266 526.0 290 Z" fill="#12141c"/><rect x="553.0" y="217" width="94" height="58" fill="#12141c"/><path d="M 519.0 217 Q 600 187 681.0 217 L 661.0 195 Q 600 171 539.0 195 Z" fill="#12141c"/><rect x="566.0" y="122" width="68" height="58" fill="#12141c"/><path d="M 532.0 122 Q 600 92 668.0 122 L 648.0 100 Q 600 76 552.0 100 Z" fill="#12141c"/><line x1="600" y1="78" x2="600" y2="46" stroke="#d8b45a" stroke-width="4"/><circle cx="600" cy="42" r="6" fill="#d8b45a"/>
<rect x="0" y="560" width="1200" height="140" fill="#0c0e14"/>

<rect x="0" y="556" width="1200" height="4" fill="#d8b45a" opacity="0.55"/>
</svg>