<svg xmlns="http://www.w3.org/2000/svg" viewBox="0 0 1200 700" role="img">
<defs>
<linearGradient id="sky" x1="0" y1="0" x2="0" y2="1">
<stop offset="0" stop-color="#0a1026"/><stop offset="0.62" stop-color="#152046"/><stop offset="1" stop-color="#2b3a6b"/>
</linearGradient>
<pattern id="g1" width="120" height="120" patternUnits="userSpaceOnUse"><polygon points="111.6,60.0 80.0,68.3 96.5,96.5 68.3,80.0 60.0,111.6 51.7,80.0 23.5,96.5 40.0,68.3 8.4,60.0 40.0,51.7 23.5,23.5 51.7,40.0 60.0,8.4 68.3,40.0 96.5,23.5 80.0,51.7" fill="none" stroke="#e8d9a8" stroke-width="1.6" opacity="0.1"/><rect x="17.4" y="17.4" width="85.2" height="85.2" fill="none" stroke="#e8d9a8" stroke-width="1.6" opacity="0.06999999999999999" transform="rotate(45 60.0 60.0)"/></pattern>
</defs>
<rect width="1200" height="700" fill="url(#sky)"/>
<rect width="1200" height="700" fill="url(#g1)"/>
<circle cx="409" cy="99" r="1.3" fill="#f7ecd2" opacity="0.76"/><circle cx="35" cy="124" r="0.8" fill="#f7ecd2" opacity="0.75"/><circle cx="470" cy="68" r="1.3" fill="#f7ecd2" opacity="0.45"/><circle cx="1162" cy="159" r="1.3" fill="#f7ecd2" opacity="0.43"/><circle cx="215" cy="101" r="1.3" fill="#f7ecd2" opacity="0.50"/><circle cx="821" cy="246" r="1.8" fill="#f7ecd2" opacity="0.51"/><circle cx="796" cy="210" r="1.3" fill="#f7ecd2" opacity="0.45"/><circle cx="308" cy="101" r="1.3" fill="#f7ecd2" opacity="0.43"/><circle cx="821" cy="83" r="1.3" fill="#f7ecd2" opacity="0.78"/><circle cx="7" cy="68" r="0.8" fill="#f7ecd2" opacity="0.61"/><circle cx="722" cy="192" r="1.8" fill="#f7ecd2" opacity="0.59"/><circle cx="254" cy="23" r="1.3" fill="#f7ecd2" opacity="0.77"/><circle cx="1027" cy="245" r="0.8" fill="#f7ecd2" opacity="0.50"/><circle cx="1193" cy="10" r="0.8" fill="#f7ecd2" opacity="0.65"/><circle cx="248" cy="14" r="1.3" fill="#f7ecd2" opacity="0.57"/><circle cx="1000" cy="265" r="1.8" fill="#f7ecd2" opacity="0.35"/><circle cx="833" cy="247" r="0.8" fill="#f7ecd2" opacity="0.36"/><circle cx="779" cy="332" r="1.3" fill="#f7ecd2" opacity="0.63"/><circle cx="574" cy="156" r="1.3" fill="#f7ecd2" opacity="0.79"/><circle cx="146" cy="207" r="1.8" fill="#f7ecd2" opacity="0.57"/><circle cx="239" cy="89" r="1.3" fill="#f7ecd2" opacity="0.56"/><circle cx="1165" cy="294" r="1.3" fill="#f7ecd2" opacity="0.45"/><circle cx="500" cy="138" r="1.8" fill="#f7ecd2" opacity="0.35"/><circle cx="92" cy="129" r="1.8" fill="#f7ecd2" opacity="0.53"/><circle cx="445" cy="251" r="0.8" fill="#f7ecd2" opacity="0.80"/><circle cx="1151" cy="96" r="1.8" fill="#f7ecd2" opacity="0.81"/><circle cx="26" cy="300" r="1.8" fill="#f7ecd2" opacity="0.35"/><circle cx="838" cy="31" r="1.8" fill="#f7ecd2" opacity="0.63"/><circle cx="251" cy="253" r="0.8" fill="#f7ecd2" opacity="0.38"/><circle cx="737" cy="78" r="1.8" fill="#f7ecd2" opacity="0.71"/><circle cx="352" cy="102" r="1.3" fill="#f7ecd2" opacity="0.39"/><circle cx="1184" cy="113" r="1.3" fill="#f7ecd2" opacity="0.77"/><circle cx="857" cy="235" r="0.8" fill="#f7ecd2" opacity="0.80"/><circle cx="1123" cy="40" r="1.8" fill="#f7ecd2" opacity="0.55"/><circle cx="278" cy="84" r="1.8" fill="#f7ecd2" opacity="0.37"/><circle cx="1130" cy="35" r="1.3" fill="#f7ecd2" opacity="0.35"/><circle cx="1063" cy="57" r="1.3" fill="#f7ecd2" opacity="0.76"/><circle cx="1109" cy="182" r="1.3" fill="#f7ecd2" opacity="0.73"/><circle cx="1004" cy="46" r="0.8" fill="#f7ecd2" opacity="0.69"/><circle cx="676" cy="137" r="0.8" fill="#f7ecd2" opacity="0.47"/><circle cx="869" cy="59" r="1.3" fill="#f7ecd2" opacity="0.56"/><circle cx="695" cy="164" r="1.3" fill="#f7ecd2" opacity="0.65"/><circle cx="130" cy="48" r="1.3" fill="#f7ecd2" opacity="0.75"/><circle cx="1022" cy="219" r="1.8" fill="#f7ecd2" opacity="0.53"/><circle cx="275" cy="241" r="0.8" fill="#f7ecd2" opacity="0.60"/><circle cx="1081" cy="126" r="1.3" fill="#f7ecd2" opacity="0.41"/><circle cx="56" cy="30" r="1.8" fill="#f7ecd2" opacity="0.65"/><circle cx="968" cy="141" r="1.8" fill="#f7ecd2" opacity="0.73"/><circle cx="481" cy="63" r="1.3" fill="#f7ecd2" opacity="0.38"/><circle cx="1067" cy="268" r="0.8" fill="#f7ecd2" opacity="0.41"/><circle cx="782" cy="332" r="1.3" fill="#f7ecd2" opacity="0.59"/><circle cx="514" cy="243" r="1.3" fill="#f7ecd2" opacity="0.37"/><circle cx="287" cy="65" r="1.3" fill="#f7ecd2" opacity="0.40"/><circle cx="653" cy="250" r="0.8" fill="#f7ecd2" opacity="0.35"/><circle cx="1108" cy="134" r="0.8" fill="#f7ecd2" opacity="0.57"/><circle cx="860" cy="325" r="0.8" fill="#f7ecd2" opacity="0.35"/><circle cx="893" cy="47" r="1.3" fill="#f7ecd2" opacity="0.56"/><circle cx="1039" cy="212" r="0.8" fill="#f7ecd2" opacity="0.53"/><circle cx="1034" cy="116" r="1.3" fill="#f7ecd2" opacity="0.79"/><circle cx="806" cy="247" r="0.8" fill="#f7ecd2" opacity="0.67"/><circle cx="980" cy="120" r="42" fill="#f6ecd0" opacity="0.95"/><circle cx="996" cy="112" r="36" fill="url(#sky)" opacity="0.92"/>
<rect x="300" y="440" width="600" height="120" fill="#12141c"/><path d="M 270 440 Q 600 395 930 440 L 900 410 Q 600 368 300 410 Z" fill="#12141c"/><rect x="540.0" y="312" width="120" height="58" fill="#12141c"/><path d="M 506.0 312 Q 600 282 694.0 312 L 674.0 290 Q 600 266 526.0 290 Z" fill="#12141c"/><rect x="553.0" y="217" width="94" height="58" fill="#12141c"/><path d="M 519.0 217 Q 600 187 681.0 217 L 661.0 195 Q 600 171 539.0 195 Z" fill="#12141c"/><rect x="566.0" y="122" width="68" height="58" fill="#12141c"/><path d="M 532.0 122 Q 600 92 668.0 122 L 648.0 100 Q 600 76 552.0 100 Z" fill="#12141c"/><line x1="600" y1="78" x2="600" y2="46" stroke="#d8b45a" stroke-width="4"/><circle cx="600" cy="42" r="6" fill="#d8b45a"/>
<rect x="0" y="560" width="1200" height="140" fill="#0c0e14"/>

<rect x="0" y="556" width="1200" height="4" fill="#d8b45a" opacity="0.55"/>
</svg>