<svg xmlns="http://www.w3.org/2000/svg" viewBox="0 0 1200 700" role="img">
<defs>
<linearGradient id="sky" x1="0" y1="0" x2="0" y2="1">
<stop offset="0" stop-color="#0a1026"/><stop offset="0.62" stop-color="#152046"/><stop offset="1" stop-color="#2b3a6b"/>
</linearGradient>
<pattern id="g1" width="120" height="120" patternUnits="userSpaceOnUse"><polygon points="111.6,60.0 80.0,68.3 96.5,96.5 68.3,80.0 60.0,111.6 51.7,80.0 23.5,96.5 40.0,68.3 8.4,60.0 40.0,51.7 23.5,23.5 51.7,40.0 60.0,8.4 68.3,40.0 96.5,23.5 80.0,51.7" fill="none" stroke="#e8d9a8" stroke-width="1.6" opacity="0.1"/><rect x="17.4" y="17.4" width="85.2" height="85.2" fill="none" stroke="#e8d9a8" stroke-width="1.6" opacity="0.06999999999999999" transform="rotate(45 60.0 60.0)"/></pattern>
</defs>
<rect width="1200" height="700" fill="url(#sky)"/>
<rect width="1200" height="700" fill="url(#g1)"/>
<circle cx="862" cy="202" r="1.8" fill="#f7ecd2" opacity="0.59"/><circle cx="704" cy="123" r="1.8" fill="#f7ecd2" opacity="0.77"/><circle cx="107" cy="35" r="1.3" fill="#f7ecd2" opacity="0.80"/><circle cx="1063" cy="150" r="1.3" fill="#f7ecd2" opacity="0.35"/><circle cx="188" cy="284" r="1.3" fill="#f7ecd2" opacity="0.77"/><circle cx="50" cy="145" r="0.8" fill="#f7ecd2" opacity="0.35"/><circle cx="913" cy="97" r="1.8" fill="#f7ecd2" opacity="0.46"/><circle cx="449" cy="52" r="0.8" fill="#f7ecd2" opacity="0.83"/><circle cx="314" cy="6" r="1.8" fill="#f7ecd2" opacity="0.69"/><circle cx="196" cy="147" r="1.3" fill="#f7ecd2" opacity="0.47"/><circle cx="119" cy="199" r="0.8" fill="#f7ecd2" opacity="0.66"/><circle cx="635" cy="274" r="0.8" fill="#f7ecd2" opacity="0.75"/><circle cx="40" cy="248" r="0.8" fill="#f7ecd2" opacity="0.55"/><circle cx="1142" cy="129" r="1.8" fill="#f7ecd2" opacity="0.53"/><circle cx="125" cy="281" r="1.3" fill="#f7ecd2" opacity="0.60"/><circle cx="421" cy="336" r="1.3" fill="#f7ecd2" opacity="0.41"/><circle cx="566" cy="130" r="0.8" fill="#f7ecd2" opacity="0.65"/><circle cx="488" cy="151" r="0.8" fill="#f7ecd2" opacity="0.73"/><circle cx="931" cy="3" r="1.3" fill="#f7ecd2" opacity="0.78"/><circle cx="1007" cy="38" r="1.3" fill="#f7ecd2" opacity="0.51"/><circle cx="692" cy="192" r="1.8" fill="#f7ecd2" opacity="0.49"/><circle cx="634" cy="153" r="1.3" fill="#f7ecd2" opacity="0.37"/><circle cx="137" cy="105" r="1.8" fill="#f7ecd2" opacity="0.70"/><circle cx="1193" cy="260" r="1.3" fill="#f7ecd2" opacity="0.65"/><circle cx="418" cy="94" r="1.8" fill="#f7ecd2" opacity="0.77"/><circle cx="380" cy="335" r="1.3" fill="#f7ecd2" opacity="0.35"/><circle cx="143" cy="187" r="0.8" fill="#f7ecd2" opacity="0.76"/><circle cx="979" cy="322" r="1.8" fill="#f7ecd2" opacity="0.73"/><circle cx="944" cy="316" r="0.8" fill="#f7ecd2" opacity="0.39"/><circle cx="926" cy="157" r="0.8" fill="#f7ecd2" opacity="0.67"/><circle cx="949" cy="249" r="1.3" fill="#f7ecd2" opacity="0.36"/><circle cx="365" cy="224" r="1.3" fill="#f7ecd2" opacity="0.45"/><circle cx="1070" cy="38" r="1.3" fill="#f7ecd2" opacity="0.45"/><circle cx="1072" cy="159" r="1.3" fill="#f7ecd2" opacity="0.83"/><circle cx="155" cy="11" r="1.3" fill="#f7ecd2" opacity="0.40"/><circle cx="551" cy="106" r="0.8" fill="#f7ecd2" opacity="0.41"/><circle cx="796" cy="280" r="1.8" fill="#f7ecd2" opacity="0.65"/><circle cx="818" cy="1" r="0.8" fill="#f7ecd2" opacity="0.53"/><circle cx="161" cy="93" r="1.8" fill="#f7ecd2" opacity="0.58"/><circle cx="337" cy="168" r="1.3" fill="#f7ecd2" opacity="0.51"/><circle cx="122" cy="22" r="0.8" fill="#f7ecd2" opacity="0.69"/><circle cx="164" cy="23" r="1.3" fill="#f7ecd2" opacity="0.57"/><circle cx="967" cy="155" r="0.8" fill="#f7ecd2" opacity="0.70"/><circle cx="923" cy="210" r="1.8" fill="#f7ecd2" opacity="0.65"/><circle cx="248" cy="84" r="1.8" fill="#f7ecd2" opacity="0.67"/><circle cx="310" cy="25" r="1.8" fill="#f7ecd2" opacity="0.35"/><circle cx="173" cy="257" r="1.3" fill="#f7ecd2" opacity="0.46"/><circle cx="1109" cy="92" r="1.3" fill="#f7ecd2" opacity="0.63"/><circle cx="1174" cy="126" r="1.3" fill="#f7ecd2" opacity="0.59"/><circle cx="56" cy="207" r="1.8" fill="#f7ecd2" opacity="0.77"/><circle cx="179" cy="339" r="1.8" fill="#f7ecd2" opacity="0.66"/><circle cx="895" cy="154" r="1.8" fill="#f7ecd2" opacity="0.65"/><circle cx="500" cy="208" r="0.8" fill="#f7ecd2" opacity="0.35"/><circle cx="602" cy="29" r="1.3" fill="#f7ecd2" opacity="0.43"/><circle cx="985" cy="61" r="1.8" fill="#f7ecd2" opacity="0.70"/><circle cx="281" cy="56" r="1.3" fill="#f7ecd2" opacity="0.71"/><circle cx="626" cy="270" r="1.8" fill="#f7ecd2" opacity="0.55"/><circle cx="748" cy="31" r="1.8" fill="#f7ecd2" opacity="0.73"/><circle cx="191" cy="163" r="0.8" fill="#f7ecd2" opacity="0.68"/><circle cx="467" cy="278" r="1.3" fill="#f7ecd2" opacity="0.61"/><circle cx="980" cy="120" r="42" fill="#f6ecd0" opacity="0.95"/><circle cx="996" cy="112" r="36" fill="url(#sky)" opacity="0.92"/>
<rect x="300" y="440" width="600" height="120" fill="#12141c"/><path d="M 270 440 Q 600 395 930 440 L 900 410 Q 600 368 300 410 Z" fill="#12141c"/><rect x="540.0" y="312" width="120" height="58" fill="#12141c"/><path d="M 506.0 312 Q 600 282 694.0 312 L 674.0 290 Q 600 266 526.0 290 Z" fill="#12141c"/><rect x="553.0" y="217" width="94" height="58" fill="#12141c"/><path d="M 519.0 217 Q 600 187 681.0 217 L 661.0 195 Q 600 171 539.0 195 Z" fill="#12141c"/><rect x="566.0" y="122" width="68" height="58" fill="#12141c"/><path d="M 532.0 122 Q 600 92 668.0 122 L 648.0 100 Q 600 76 552.0 100 Z" fill="#12141c"/><line x1="600" y1="78" x2="600" y2="46" stroke="#d8b45a" stroke-width="4"/><circle cx="600" cy="42" r="6" fill="#d8b45a"/>
<rect x="0" y="560" width="1200" height="140" fill="#0c0e14"/>

<rect x="0" y="556" width="1200" height="4" fill="#d8b45a" opacity="0.55"/>
</svg>