<svg xmlns="http://www.w3.org/2000/svg" viewBox="0 0 1200 700" role="img">
<defs>
<linearGradient id="sky" x1="0" y1="0" x2="0" y2="1">
<stop offset="0" stop-color="#0a1026"/><stop offset="0.62" stop-color="#152046"/><stop offset="1" stop-color="#2b3a6b"/>
</linearGradient>
<pattern id="g1" width="120" height="120" patternUnits="userSpaceOnUse"><polygon points="111.6,60.0 80.0,68.3 96.5,96.5 68.3,80.0 60.0,111.6 51.7,80.0 23.5,96.5 40.0,68.3 8.4,60.0 40.0,51.7 23.5,23.5 51.7,40.0 60.0,8.4 68.3,40.0 96.5,23.5 80.0,51.7" fill="none" stroke="#e8d9a8" stroke-width="1.6" opacity="0.1"/><rect x="17.4" y="17.4" width="85.2" height="85.2" fill="none" stroke="#e8d9a8" stroke-width="1.6" opacity="0.06999999999999999" transform="rotate(45 60.0 60.0)"/></pattern>
</defs>
<rect width="1200" height="700" fill="url(#sky)"/>
<rect width="1200" height="700" fill="url(#g1)"/>
<circle cx="781" cy="71" r="0.8" fill="#f7ecd2" opacity="0.36"/><circle cx="791" cy="100" r="0.8" fill="#f7ecd2" opacity="0.35"/><circle cx="458" cy="36" r="1.8" fill="#f7ecd2" opacity="0.73"/><circle cx="286" cy="203" r="0.8" fill="#f7ecd2" opacity="0.43"/><circle cx="1067" cy="333" r="1.8" fill="#f7ecd2" opacity="0.46"/><circle cx="617" cy="42" r="1.8" fill="#f7ecd2" opacity="0.49"/><circle cx="304" cy="258" r="1.3" fill="#f7ecd2" opacity="0.67"/><circle cx="392" cy="325" r="0.8" fill="#f7ecd2" opacity="0.35"/><circle cx="953" cy="95" r="1.3" fill="#f7ecd2" opacity="0.70"/><circle cx="43" cy="164" r="0.8" fill="#f7ecd2" opacity="0.37"/><circle cx="950" cy="120" r="1.8" fill="#f7ecd2" opacity="0.35"/><circle cx="98" cy="287" r="1.3" fill="#f7ecd2" opacity="0.61"/><circle cx="439" cy="37" r="1.8" fill="#f7ecd2" opacity="0.78"/><circle cx="269" cy="266" r="1.3" fill="#f7ecd2" opacity="0.39"/><circle cx="1196" cy="162" r="1.8" fill="#f7ecd2" opacity="0.37"/><circle cx="604" cy="229" r="1.8" fill="#f7ecd2" opacity="0.51"/><circle cx="725" cy="299" r="1.3" fill="#f7ecd2" opacity="0.60"/><circle cx="95" cy="208" r="0.8" fill="#f7ecd2" opacity="0.45"/><circle cx="1042" cy="44" r="0.8" fill="#f7ecd2" opacity="0.83"/><circle cx="710" cy="11" r="1.3" fill="#f7ecd2" opacity="0.45"/><circle cx="611" cy="61" r="0.8" fill="#f7ecd2" opacity="0.56"/><circle cx="721" cy="130" r="1.8" fill="#f7ecd2" opacity="0.65"/><circle cx="488" cy="106" r="0.8" fill="#f7ecd2" opacity="0.63"/><circle cx="416" cy="313" r="0.8" fill="#f7ecd2" opacity="0.43"/><circle cx="97" cy="3" r="1.3" fill="#f7ecd2" opacity="0.76"/><circle cx="947" cy="232" r="0.8" fill="#f7ecd2" opacity="0.39"/><circle cx="734" cy="148" r="0.8" fill="#f7ecd2" opacity="0.67"/><circle cx="922" cy="255" r="1.3" fill="#f7ecd2" opacity="0.45"/><circle cx="383" cy="265" r="0.8" fill="#f7ecd2" opacity="0.80"/><circle cx="773" cy="174" r="1.8" fill="#f7ecd2" opacity="0.37"/><circle cx="580" cy="30" r="1.3" fill="#f7ecd2" opacity="0.35"/><circle cx="1028" cy="37" r="0.8" fill="#f7ecd2" opacity="0.71"/><circle cx="269" cy="27" r="1.8" fill="#f7ecd2" opacity="0.48"/><circle cx="199" cy="296" r="0.8" fill="#f7ecd2" opacity="0.39"/><circle cx="26" cy="92" r="1.3" fill="#f7ecd2" opacity="0.77"/><circle cx="734" cy="339" r="1.8" fill="#f7ecd2" opacity="0.61"/><circle cx="955" cy="109" r="1.8" fill="#f7ecd2" opacity="0.80"/><circle cx="425" cy="58" r="0.8" fill="#f7ecd2" opacity="0.35"/><circle cx="272" cy="134" r="1.3" fill="#f7ecd2" opacity="0.83"/><circle cx="40" cy="141" r="1.3" fill="#f7ecd2" opacity="0.75"/><circle cx="41" cy="231" r="1.8" fill="#f7ecd2" opacity="0.56"/><circle cx="251" cy="0" r="1.8" fill="#f7ecd2" opacity="0.35"/><circle cx="118" cy="16" r="1.8" fill="#f7ecd2" opacity="0.73"/><circle cx="146" cy="263" r="1.3" fill="#f7ecd2" opacity="0.83"/><circle cx="1127" cy="133" r="0.8" fill="#f7ecd2" opacity="0.76"/><circle cx="877" cy="262" r="1.8" fill="#f7ecd2" opacity="0.59"/><circle cx="764" cy="218" r="1.3" fill="#f7ecd2" opacity="0.37"/><circle cx="1052" cy="25" r="0.8" fill="#f7ecd2" opacity="0.35"/><circle cx="613" cy="75" r="1.3" fill="#f7ecd2" opacity="0.60"/><circle cx="1103" cy="24" r="1.8" fill="#f7ecd2" opacity="0.57"/><circle cx="1010" cy="260" r="1.3" fill="#f7ecd2" opacity="0.35"/><circle cx="358" cy="167" r="0.8" fill="#f7ecd2" opacity="0.71"/><circle cx="899" cy="337" r="0.8" fill="#f7ecd2" opacity="0.48"/><circle cx="929" cy="306" r="1.8" fill="#f7ecd2" opacity="0.59"/><circle cx="856" cy="142" r="1.8" fill="#f7ecd2" opacity="0.37"/><circle cx="464" cy="289" r="0.8" fill="#f7ecd2" opacity="0.81"/><circle cx="785" cy="99" r="1.8" fill="#f7ecd2" opacity="0.50"/><circle cx="355" cy="88" r="1.8" fill="#f7ecd2" opacity="0.75"/><circle cx="302" cy="204" r="1.8" fill="#f7ecd2" opacity="0.43"/><circle cx="170" cy="251" r="1.3" fill="#f7ecd2" opacity="0.55"/><circle cx="980" cy="120" r="42" fill="#f6ecd0" opacity="0.95"/><circle cx="996" cy="112" r="36" fill="url(#sky)" opacity="0.92"/>
<rect x="300" y="440" width="600" height="120" fill="#12141c"/><path d="M 270 440 Q 600 395 930 440 L 900 410 Q 600 368 300 410 Z" fill="#12141c"/><rect x="540.0" y="312" width="120" height="58" fill="#12141c"/><path d="M 506.0 312 Q 600 282 694.0 312 L 674.0 290 Q 600 266 526.0 290 Z" fill="#12141c"/><rect x="553.0" y="217" width="94" height="58" fill="#12141c"/><path d="M 519.0 217 Q 600 187 681.0 217 L 661.0 195 Q 600 171 539.0 195 Z" fill="#12141c"/><rect x="566.0" y="122" width="68" height="58" fill="#12141c"/><path d="M 532.0 122 Q 600 92 668.0 122 L 648.0 100 Q 600 76 552.0 100 Z" fill="#12141c"/><line x1="600" y1="78" x2="600" y2="46" stroke="#d8b45a" stroke-width="4"/><circle cx="600" cy="42" r="6" fill="#d8b45a"/>
<rect x="0" y="560" width="1200" height="140" fill="#0c0e14"/>

<rect x="0" y="556" width="1200" height="4" fill="#d8b45a" opacity="0.55"/>
</svg>