<svg xmlns="http://www.w3.org/2000/svg" viewBox="0 0 1200 700" role="img">
<defs>
<linearGradient id="sky" x1="0" y1="0" x2="0" y2="1">
<stop offset="0" stop-color="#0a1026"/><stop offset="0.62" stop-color="#152046"/><stop offset="1" stop-color="#2b3a6b"/>
</linearGradient>
<pattern id="g1" width="120" height="120" patternUnits="userSpaceOnUse"><polygon points="111.6,60.0 80.0,68.3 96.5,96.5 68.3,80.0 60.0,111.6 51.7,80.0 23.5,96.5 40.0,68.3 8.4,60.0 40.0,51.7 23.5,23.5 51.7,40.0 60.0,8.4 68.3,40.0 96.5,23.5 80.0,51.7" fill="none" stroke="#e8d9a8" stroke-width="1.6" opacity="0.1"/><rect x="17.4" y="17.4" width="85.2" height="85.2" fill="none" stroke="#e8d9a8" stroke-width="1.6" opacity="0.06999999999999999" transform="rotate(45 60.0 60.0)"/></pattern>
</defs>
<rect width="1200" height="700" fill="url(#sky)"/>
<rect width="1200" height="700" fill="url(#g1)"/>
<circle cx="315" cy="245" r="1.8" fill="#f7ecd2" opacity="0.60"/><circle cx="373" cy="62" r="0.8" fill="#f7ecd2" opacity="0.61"/><circle cx="1144" cy="222" r="1.3" fill="#f7ecd2" opacity="0.53"/><circle cx="1164" cy="221" r="1.8" fill="#f7ecd2" opacity="0.79"/><circle cx="361" cy="207" r="1.3" fill="#f7ecd2" opacity="0.62"/><circle cx="679" cy="264" r="1.3" fill="#f7ecd2" opacity="0.41"/><circle cx="30" cy="264" r="0.8" fill="#f7ecd2" opacity="0.55"/><circle cx="790" cy="83" r="0.8" fill="#f7ecd2" opacity="0.55"/><circle cx="7" cy="9" r="1.3" fill="#f7ecd2" opacity="0.48"/><circle cx="585" cy="306" r="0.8" fill="#f7ecd2" opacity="0.45"/><circle cx="916" cy="86" r="0.8" fill="#f7ecd2" opacity="0.61"/><circle cx="16" cy="125" r="0.8" fill="#f7ecd2" opacity="0.35"/><circle cx="453" cy="131" r="1.8" fill="#f7ecd2" opacity="0.78"/><circle cx="91" cy="188" r="0.8" fill="#f7ecd2" opacity="0.43"/><circle cx="202" cy="288" r="1.3" fill="#f7ecd2" opacity="0.61"/><circle cx="42" cy="147" r="0.8" fill="#f7ecd2" opacity="0.59"/><circle cx="499" cy="93" r="1.3" fill="#f7ecd2" opacity="0.42"/><circle cx="397" cy="50" r="0.8" fill="#f7ecd2" opacity="0.35"/><circle cx="288" cy="130" r="1.3" fill="#f7ecd2" opacity="0.75"/><circle cx="868" cy="149" r="0.8" fill="#f7ecd2" opacity="0.67"/><circle cx="145" cy="235" r="1.8" fill="#f7ecd2" opacity="0.60"/><circle cx="303" cy="92" r="1.8" fill="#f7ecd2" opacity="0.61"/><circle cx="1174" cy="292" r="1.8" fill="#f7ecd2" opacity="0.43"/><circle cx="94" cy="191" r="0.8" fill="#f7ecd2" opacity="0.39"/><circle cx="591" cy="17" r="1.8" fill="#f7ecd2" opacity="0.82"/><circle cx="1009" cy="114" r="1.3" fill="#f7ecd2" opacity="0.61"/><circle cx="460" cy="154" r="1.8" fill="#f7ecd2" opacity="0.75"/><circle cx="120" cy="213" r="0.8" fill="#f7ecd2" opacity="0.45"/><circle cx="637" cy="319" r="1.8" fill="#f7ecd2" opacity="0.38"/><circle cx="115" cy="176" r="0.8" fill="#f7ecd2" opacity="0.75"/><circle cx="546" cy="336" r="0.8" fill="#f7ecd2" opacity="0.41"/><circle cx="946" cy="215" r="0.8" fill="#f7ecd2" opacity="0.75"/><circle cx="283" cy="121" r="1.8" fill="#f7ecd2" opacity="0.78"/><circle cx="21" cy="218" r="1.8" fill="#f7ecd2" opacity="0.63"/><circle cx="232" cy="18" r="1.3" fill="#f7ecd2" opacity="0.61"/><circle cx="172" cy="257" r="0.8" fill="#f7ecd2" opacity="0.39"/><circle cx="729" cy="243" r="0.8" fill="#f7ecd2" opacity="0.82"/><circle cx="727" cy="240" r="1.3" fill="#f7ecd2" opacity="0.65"/><circle cx="718" cy="20" r="0.8" fill="#f7ecd2" opacity="0.45"/><circle cx="198" cy="279" r="0.8" fill="#f7ecd2" opacity="0.77"/><circle cx="775" cy="205" r="1.8" fill="#f7ecd2" opacity="0.60"/><circle cx="1033" cy="102" r="1.3" fill="#f7ecd2" opacity="0.51"/><circle cx="804" cy="202" r="1.3" fill="#f7ecd2" opacity="0.43"/><circle cx="1024" cy="281" r="0.8" fill="#f7ecd2" opacity="0.79"/><circle cx="421" cy="7" r="1.8" fill="#f7ecd2" opacity="0.82"/><circle cx="939" cy="144" r="0.8" fill="#f7ecd2" opacity="0.51"/><circle cx="490" cy="224" r="0.8" fill="#f7ecd2" opacity="0.45"/><circle cx="250" cy="323" r="0.8" fill="#f7ecd2" opacity="0.35"/><circle cx="867" cy="129" r="0.8" fill="#f7ecd2" opacity="0.78"/><circle cx="445" cy="26" r="0.8" fill="#f7ecd2" opacity="0.55"/><circle cx="976" cy="226" r="1.8" fill="#f7ecd2" opacity="0.61"/><circle cx="276" cy="5" r="1.8" fill="#f7ecd2" opacity="0.65"/><circle cx="913" cy="91" r="1.8" fill="#f7ecd2" opacity="0.68"/><circle cx="751" cy="228" r="1.3" fill="#f7ecd2" opacity="0.63"/><circle cx="1062" cy="68" r="1.8" fill="#f7ecd2" opacity="0.51"/><circle cx="1102" cy="7" r="1.8" fill="#f7ecd2" opacity="0.49"/><circle cx="559" cy="233" r="0.8" fill="#f7ecd2" opacity="0.82"/><circle cx="657" cy="270" r="0.8" fill="#f7ecd2" opacity="0.75"/><circle cx="748" cy="90" r="1.3" fill="#f7ecd2" opacity="0.55"/><circle cx="328" cy="49" r="1.8" fill="#f7ecd2" opacity="0.57"/><circle cx="980" cy="120" r="42" fill="#f6ecd0" opacity="0.95"/><circle cx="996" cy="112" r="36" fill="url(#sky)" opacity="0.92"/>
<rect x="300" y="440" width="600" height="120" fill="#12141c"/><path d="M 270 440 Q 600 395 930 440 L 900 410 Q 600 368 300 410 Z" fill="#12141c"/><rect x="540.0" y="312" width="120" height="58" fill="#12141c"/><path d="M 506.0 312 Q 600 282 694.0 312 L 674.0 290 Q 600 266 526.0 290 Z" fill="#12141c"/><rect x="553.0" y="217" width="94" height="58" fill="#12141c"/><path d="M 519.0 217 Q 600 187 681.0 217 L 661.0 195 Q 600 171 539.0 195 Z" fill="#12141c"/><rect x="566.0" y="122" width="68" height="58" fill="#12141c"/><path d="M 532.0 122 Q 600 92 668.0 122 L 648.0 100 Q 600 76 552.0 100 Z" fill="#12141c"/><line x1="600" y1="78" x2="600" y2="46" stroke="#d8b45a" stroke-width="4"/><circle cx="600" cy="42" r="6" fill="#d8b45a"/>
<rect x="0" y="560" width="1200" height="140" fill="#0c0e14"/>

<rect x="0" y="556" width="1200" height="4" fill="#d8b45a" opacity="0.55"/>
</svg>