<svg xmlns="http://www.w3.org/2000/svg" viewBox="0 0 1200 700" role="img">
<defs>
<linearGradient id="sky" x1="0" y1="0" x2="0" y2="1">
<stop offset="0" stop-color="#0a1026"/><stop offset="0.62" stop-color="#152046"/><stop offset="1" stop-color="#2b3a6b"/>
</linearGradient>
<pattern id="g1" width="120" height="120" patternUnits="userSpaceOnUse"><polygon points="111.6,60.0 80.0,68.3 96.5,96.5 68.3,80.0 60.0,111.6 51.7,80.0 23.5,96.5 40.0,68.3 8.4,60.0 40.0,51.7 23.5,23.5 51.7,40.0 60.0,8.4 68.3,40.0 96.5,23.5 80.0,51.7" fill="none" stroke="#e8d9a8" stroke-width="1.6" opacity="0.1"/><rect x="17.4" y="17.4" width="85.2" height="85.2" fill="none" stroke="#e8d9a8" stroke-width="1.6" opacity="0.06999999999999999" transform="rotate(45 60.0 60.0)"/></pattern>
</defs>
<rect width="1200" height="700" fill="url(#sky)"/>
<rect width="1200" height="700" fill="url(#g1)"/>
<circle cx="1031" cy="1" r="0.8" fill="#f7ecd2" opacity="0.66"/><circle cx="1041" cy="30" r="0.8" fill="#f7ecd2" opacity="0.65"/><circle cx="708" cy="306" r="0.8" fill="#f7ecd2" opacity="0.83"/><circle cx="536" cy="133" r="0.8" fill="#f7ecd2" opacity="0.73"/><circle cx="117" cy="123" r="0.8" fill="#f7ecd2" opacity="0.76"/><circle cx="867" cy="312" r="0.8" fill="#f7ecd2" opacity="0.39"/><circle cx="554" cy="188" r="1.3" fill="#f7ecd2" opacity="0.37"/><circle cx="642" cy="255" r="0.8" fill="#f7ecd2" opacity="0.45"/><circle cx="3" cy="225" r="0.8" fill="#f7ecd2" opacity="0.60"/><circle cx="293" cy="94" r="0.8" fill="#f7ecd2" opacity="0.77"/><circle cx="0" cy="250" r="1.3" fill="#f7ecd2" opacity="0.35"/><circle cx="348" cy="217" r="1.3" fill="#f7ecd2" opacity="0.51"/><circle cx="689" cy="307" r="0.8" fill="#f7ecd2" opacity="0.58"/><circle cx="519" cy="196" r="1.3" fill="#f7ecd2" opacity="0.59"/><circle cx="246" cy="292" r="1.3" fill="#f7ecd2" opacity="0.67"/><circle cx="854" cy="159" r="1.8" fill="#f7ecd2" opacity="0.71"/><circle cx="975" cy="229" r="1.3" fill="#f7ecd2" opacity="0.60"/><circle cx="345" cy="138" r="0.8" fill="#f7ecd2" opacity="0.45"/><circle cx="92" cy="174" r="1.8" fill="#f7ecd2" opacity="0.43"/><circle cx="960" cy="281" r="1.8" fill="#f7ecd2" opacity="0.45"/><circle cx="861" cy="331" r="1.3" fill="#f7ecd2" opacity="0.76"/><circle cx="971" cy="60" r="1.8" fill="#f7ecd2" opacity="0.45"/><circle cx="738" cy="36" r="0.8" fill="#f7ecd2" opacity="0.53"/><circle cx="666" cy="243" r="0.8" fill="#f7ecd2" opacity="0.73"/><circle cx="347" cy="273" r="1.8" fill="#f7ecd2" opacity="0.66"/><circle cx="1197" cy="162" r="0.8" fill="#f7ecd2" opacity="0.49"/><circle cx="984" cy="78" r="0.8" fill="#f7ecd2" opacity="0.37"/><circle cx="1172" cy="185" r="1.3" fill="#f7ecd2" opacity="0.55"/><circle cx="633" cy="195" r="0.8" fill="#f7ecd2" opacity="0.70"/><circle cx="1023" cy="104" r="1.8" fill="#f7ecd2" opacity="0.77"/><circle cx="830" cy="300" r="1.8" fill="#f7ecd2" opacity="0.35"/><circle cx="78" cy="167" r="1.8" fill="#f7ecd2" opacity="0.61"/><circle cx="519" cy="297" r="0.8" fill="#f7ecd2" opacity="0.78"/><circle cx="449" cy="226" r="0.8" fill="#f7ecd2" opacity="0.59"/><circle cx="276" cy="22" r="1.3" fill="#f7ecd2" opacity="0.57"/><circle cx="984" cy="269" r="1.8" fill="#f7ecd2" opacity="0.81"/><circle cx="5" cy="239" r="1.3" fill="#f7ecd2" opacity="0.80"/><circle cx="675" cy="328" r="1.3" fill="#f7ecd2" opacity="0.35"/><circle cx="522" cy="64" r="1.3" fill="#f7ecd2" opacity="0.43"/><circle cx="290" cy="71" r="1.3" fill="#f7ecd2" opacity="0.75"/><circle cx="291" cy="161" r="1.8" fill="#f7ecd2" opacity="0.36"/><circle cx="501" cy="270" r="0.8" fill="#f7ecd2" opacity="0.55"/><circle cx="368" cy="286" r="0.8" fill="#f7ecd2" opacity="0.83"/><circle cx="396" cy="193" r="1.3" fill="#f7ecd2" opacity="0.63"/><circle cx="177" cy="263" r="1.8" fill="#f7ecd2" opacity="0.36"/><circle cx="1127" cy="192" r="1.8" fill="#f7ecd2" opacity="0.69"/><circle cx="1014" cy="148" r="1.3" fill="#f7ecd2" opacity="0.57"/><circle cx="102" cy="155" r="1.8" fill="#f7ecd2" opacity="0.45"/><circle cx="863" cy="5" r="1.3" fill="#f7ecd2" opacity="0.50"/><circle cx="153" cy="154" r="1.3" fill="#f7ecd2" opacity="0.47"/><circle cx="60" cy="50" r="1.8" fill="#f7ecd2" opacity="0.35"/><circle cx="608" cy="97" r="0.8" fill="#f7ecd2" opacity="0.61"/><circle cx="1149" cy="267" r="0.8" fill="#f7ecd2" opacity="0.68"/><circle cx="1179" cy="236" r="1.8" fill="#f7ecd2" opacity="0.79"/><circle cx="1106" cy="72" r="1.8" fill="#f7ecd2" opacity="0.67"/><circle cx="714" cy="219" r="0.8" fill="#f7ecd2" opacity="0.51"/><circle cx="1035" cy="29" r="1.8" fill="#f7ecd2" opacity="0.50"/><circle cx="605" cy="18" r="1.8" fill="#f7ecd2" opacity="0.75"/><circle cx="552" cy="134" r="1.8" fill="#f7ecd2" opacity="0.53"/><circle cx="420" cy="181" r="1.3" fill="#f7ecd2" opacity="0.55"/><circle cx="980" cy="120" r="42" fill="#f6ecd0" opacity="0.95"/><circle cx="996" cy="112" r="36" fill="url(#sky)" opacity="0.92"/>
<rect x="300" y="440" width="600" height="120" fill="#12141c"/><path d="M 270 440 Q 600 395 930 440 L 900 410 Q 600 368 300 410 Z" fill="#12141c"/><rect x="540.0" y="312" width="120" height="58" fill="#12141c"/><path d="M 506.0 312 Q 600 282 694.0 312 L 674.0 290 Q 600 266 526.0 290 Z" fill="#12141c"/><rect x="553.0" y="217" width="94" height="58" fill="#12141c"/><path d="M 519.0 217 Q 600 187 681.0 217 L 661.0 195 Q 600 171 539.0 195 Z" fill="#12141c"/><rect x="566.0" y="122" width="68" height="58" fill="#12141c"/><path d="M 532.0 122 Q 600 92 668.0 122 L 648.0 100 Q 600 76 552.0 100 Z" fill="#12141c"/><line x1="600" y1="78" x2="600" y2="46" stroke="#d8b45a" stroke-width="4"/><circle cx="600" cy="42" r="6" fill="#d8b45a"/>
<rect x="0" y="560" width="1200" height="140" fill="#0c0e14"/>

<rect x="0" y="556" width="1200" height="4" fill="#d8b45a" opacity="0.55"/>
</svg>