<svg xmlns="http://www.w3.org/2000/svg" viewBox="0 0 1200 700" role="img">
<defs>
<linearGradient id="sky" x1="0" y1="0" x2="0" y2="1">
<stop offset="0" stop-color="#0a1026"/><stop offset="0.62" stop-color="#152046"/><stop offset="1" stop-color="#2b3a6b"/>
</linearGradient>
<pattern id="g1" width="120" height="120" patternUnits="userSpaceOnUse"><polygon points="111.6,60.0 80.0,68.3 96.5,96.5 68.3,80.0 60.0,111.6 51.7,80.0 23.5,96.5 40.0,68.3 8.4,60.0 40.0,51.7 23.5,23.5 51.7,40.0 60.0,8.4 68.3,40.0 96.5,23.5 80.0,51.7" fill="none" stroke="#e8d9a8" stroke-width="1.6" opacity="0.1"/><rect x="17.4" y="17.4" width="85.2" height="85.2" fill="none" stroke="#e8d9a8" stroke-width="1.6" opacity="0.06999999999999999" transform="rotate(45 60.0 60.0)"/></pattern>
</defs>
<rect width="1200" height="700" fill="url(#sky)"/>
<rect width="1200" height="700" fill="url(#g1)"/>
<circle cx="888" cy="328" r="1.3" fill="#f7ecd2" opacity="0.49"/><circle cx="202" cy="201" r="1.3" fill="#f7ecd2" opacity="0.37"/><circle cx="661" cy="209" r="0.8" fill="#f7ecd2" opacity="0.84"/><circle cx="705" cy="272" r="1.8" fill="#f7ecd2" opacity="0.45"/><circle cx="454" cy="30" r="1.3" fill="#f7ecd2" opacity="0.55"/><circle cx="268" cy="103" r="1.8" fill="#f7ecd2" opacity="0.39"/><circle cx="27" cy="171" r="0.8" fill="#f7ecd2" opacity="0.52"/><circle cx="571" cy="94" r="1.8" fill="#f7ecd2" opacity="0.59"/><circle cx="820" cy="52" r="1.8" fill="#f7ecd2" opacity="0.75"/><circle cx="1134" cy="325" r="1.3" fill="#f7ecd2" opacity="0.35"/><circle cx="193" cy="113" r="0.8" fill="#f7ecd2" opacity="0.44"/><circle cx="37" cy="96" r="1.3" fill="#f7ecd2" opacity="0.37"/><circle cx="786" cy="254" r="1.8" fill="#f7ecd2" opacity="0.79"/><circle cx="400" cy="247" r="1.8" fill="#f7ecd2" opacity="0.35"/><circle cx="1159" cy="35" r="0.8" fill="#f7ecd2" opacity="0.50"/><circle cx="303" cy="78" r="0.8" fill="#f7ecd2" opacity="0.69"/><circle cx="352" cy="296" r="0.8" fill="#f7ecd2" opacity="0.77"/><circle cx="466" cy="149" r="0.8" fill="#f7ecd2" opacity="0.69"/><circle cx="525" cy="337" r="1.3" fill="#f7ecd2" opacity="0.60"/><circle cx="169" cy="240" r="1.3" fill="#f7ecd2" opacity="0.45"/><circle cx="718" cy="318" r="1.3" fill="#f7ecd2" opacity="0.59"/><circle cx="132" cy="231" r="0.8" fill="#f7ecd2" opacity="0.77"/><circle cx="691" cy="279" r="1.3" fill="#f7ecd2" opacity="0.74"/><circle cx="835" cy="42" r="1.3" fill="#f7ecd2" opacity="0.55"/><circle cx="684" cy="180" r="0.8" fill="#f7ecd2" opacity="0.55"/><circle cx="598" cy="293" r="0.8" fill="#f7ecd2" opacity="0.49"/><circle cx="457" cy="61" r="1.8" fill="#f7ecd2" opacity="0.62"/><circle cx="1101" cy="24" r="0.8" fill="#f7ecd2" opacity="0.59"/><circle cx="250" cy="222" r="1.3" fill="#f7ecd2" opacity="0.35"/><circle cx="664" cy="195" r="1.3" fill="#f7ecd2" opacity="0.65"/><circle cx="1023" cy="163" r="1.3" fill="#f7ecd2" opacity="0.84"/><circle cx="967" cy="186" r="1.3" fill="#f7ecd2" opacity="0.47"/><circle cx="616" cy="244" r="1.8" fill="#f7ecd2" opacity="0.39"/><circle cx="330" cy="277" r="1.3" fill="#f7ecd2" opacity="0.45"/><circle cx="1189" cy="105" r="1.3" fill="#f7ecd2" opacity="0.80"/><circle cx="433" cy="188" r="0.8" fill="#f7ecd2" opacity="0.39"/><circle cx="582" cy="106" r="1.3" fill="#f7ecd2" opacity="0.77"/><circle cx="796" cy="339" r="1.3" fill="#f7ecd2" opacity="0.79"/><circle cx="955" cy="227" r="0.8" fill="#f7ecd2" opacity="0.70"/><circle cx="699" cy="170" r="1.8" fill="#f7ecd2" opacity="0.65"/><circle cx="148" cy="148" r="1.8" fill="#f7ecd2" opacity="0.39"/><circle cx="862" cy="241" r="1.8" fill="#f7ecd2" opacity="0.77"/><circle cx="321" cy="189" r="0.8" fill="#f7ecd2" opacity="0.54"/><circle cx="565" cy="332" r="0.8" fill="#f7ecd2" opacity="0.65"/><circle cx="514" cy="170" r="0.8" fill="#f7ecd2" opacity="0.65"/><circle cx="528" cy="323" r="1.8" fill="#f7ecd2" opacity="0.79"/><circle cx="487" cy="131" r="0.8" fill="#f7ecd2" opacity="0.82"/><circle cx="31" cy="334" r="1.8" fill="#f7ecd2" opacity="0.39"/><circle cx="480" cy="32" r="1.8" fill="#f7ecd2" opacity="0.45"/><circle cx="994" cy="45" r="1.3" fill="#f7ecd2" opacity="0.65"/><circle cx="253" cy="253" r="1.8" fill="#f7ecd2" opacity="0.44"/><circle cx="297" cy="316" r="1.3" fill="#f7ecd2" opacity="0.37"/><circle cx="46" cy="74" r="0.8" fill="#f7ecd2" opacity="0.39"/><circle cx="1060" cy="287" r="0.8" fill="#f7ecd2" opacity="0.55"/><circle cx="819" cy="15" r="0.8" fill="#f7ecd2" opacity="0.70"/><circle cx="163" cy="138" r="1.3" fill="#f7ecd2" opacity="0.79"/><circle cx="412" cy="96" r="1.3" fill="#f7ecd2" opacity="0.37"/><circle cx="726" cy="29" r="1.8" fill="#f7ecd2" opacity="0.39"/><circle cx="985" cy="297" r="1.3" fill="#f7ecd2" opacity="0.80"/><circle cx="829" cy="280" r="1.8" fill="#f7ecd2" opacity="0.55"/><circle cx="980" cy="120" r="42" fill="#f6ecd0" opacity="0.95"/><circle cx="996" cy="112" r="36" fill="url(#sky)" opacity="0.92"/>
<rect x="300" y="440" width="600" height="120" fill="#12141c"/><path d="M 270 440 Q 600 395 930 440 L 900 410 Q 600 368 300 410 Z" fill="#12141c"/><rect x="540.0" y="312" width="120" height="58" fill="#12141c"/><path d="M 506.0 312 Q 600 282 694.0 312 L 674.0 290 Q 600 266 526.0 290 Z" fill="#12141c"/><rect x="553.0" y="217" width="94" height="58" fill="#12141c"/><path d="M 519.0 217 Q 600 187 681.0 217 L 661.0 195 Q 600 171 539.0 195 Z" fill="#12141c"/><rect x="566.0" y="122" width="68" height="58" fill="#12141c"/><path d="M 532.0 122 Q 600 92 668.0 122 L 648.0 100 Q 600 76 552.0 100 Z" fill="#12141c"/><line x1="600" y1="78" x2="600" y2="46" stroke="#d8b45a" stroke-width="4"/><circle cx="600" cy="42" r="6" fill="#d8b45a"/>
<rect x="0" y="560" width="1200" height="140" fill="#0c0e14"/>

<rect x="0" y="556" width="1200" height="4" fill="#d8b45a" opacity="0.55"/>
</svg>