<svg xmlns="http://www.w3.org/2000/svg" viewBox="0 0 1200 700" role="img">
<defs>
<linearGradient id="sky" x1="0" y1="0" x2="0" y2="1">
<stop offset="0" stop-color="#0a1026"/><stop offset="0.62" stop-color="#152046"/><stop offset="1" stop-color="#2b3a6b"/>
</linearGradient>
<pattern id="g1" width="120" height="120" patternUnits="userSpaceOnUse"><polygon points="111.6,60.0 80.0,68.3 96.5,96.5 68.3,80.0 60.0,111.6 51.7,80.0 23.5,96.5 40.0,68.3 8.4,60.0 40.0,51.7 23.5,23.5 51.7,40.0 60.0,8.4 68.3,40.0 96.5,23.5 80.0,51.7" fill="none" stroke="#e8d9a8" stroke-width="1.6" opacity="0.1"/><rect x="17.4" y="17.4" width="85.2" height="85.2" fill="none" stroke="#e8d9a8" stroke-width="1.6" opacity="0.06999999999999999" transform="rotate(45 60.0 60.0)"/></pattern>
</defs>
<rect width="1200" height="700" fill="url(#sky)"/>
<rect width="1200" height="700" fill="url(#g1)"/>
<circle cx="609" cy="179" r="1.8" fill="#f7ecd2" opacity="0.46"/><circle cx="235" cy="204" r="1.3" fill="#f7ecd2" opacity="0.75"/><circle cx="670" cy="148" r="1.8" fill="#f7ecd2" opacity="0.45"/><circle cx="162" cy="99" r="0.8" fill="#f7ecd2" opacity="0.73"/><circle cx="415" cy="181" r="1.8" fill="#f7ecd2" opacity="0.50"/><circle cx="1021" cy="326" r="0.8" fill="#f7ecd2" opacity="0.81"/><circle cx="996" cy="290" r="1.8" fill="#f7ecd2" opacity="0.75"/><circle cx="508" cy="181" r="1.8" fill="#f7ecd2" opacity="0.83"/><circle cx="1021" cy="163" r="1.8" fill="#f7ecd2" opacity="0.58"/><circle cx="207" cy="148" r="1.3" fill="#f7ecd2" opacity="0.71"/><circle cx="922" cy="272" r="0.8" fill="#f7ecd2" opacity="0.69"/><circle cx="454" cy="103" r="1.8" fill="#f7ecd2" opacity="0.47"/><circle cx="27" cy="185" r="1.8" fill="#f7ecd2" opacity="0.80"/><circle cx="193" cy="290" r="0.8" fill="#f7ecd2" opacity="0.55"/><circle cx="448" cy="94" r="1.8" fill="#f7ecd2" opacity="0.47"/><circle cx="0" cy="205" r="1.3" fill="#f7ecd2" opacity="0.35"/><circle cx="1033" cy="327" r="1.3" fill="#f7ecd2" opacity="0.76"/><circle cx="979" cy="72" r="1.3" fill="#f7ecd2" opacity="0.73"/><circle cx="774" cy="236" r="1.8" fill="#f7ecd2" opacity="0.49"/><circle cx="346" cy="287" r="0.8" fill="#f7ecd2" opacity="0.37"/><circle cx="439" cy="169" r="1.8" fill="#f7ecd2" opacity="0.76"/><circle cx="165" cy="234" r="0.8" fill="#f7ecd2" opacity="0.45"/><circle cx="700" cy="218" r="0.8" fill="#f7ecd2" opacity="0.35"/><circle cx="292" cy="209" r="0.8" fill="#f7ecd2" opacity="0.63"/><circle cx="645" cy="331" r="1.3" fill="#f7ecd2" opacity="0.80"/><circle cx="151" cy="36" r="1.3" fill="#f7ecd2" opacity="0.71"/><circle cx="226" cy="40" r="1.8" fill="#f7ecd2" opacity="0.75"/><circle cx="1038" cy="111" r="0.8" fill="#f7ecd2" opacity="0.53"/><circle cx="451" cy="333" r="1.3" fill="#f7ecd2" opacity="0.68"/><circle cx="937" cy="158" r="0.8" fill="#f7ecd2" opacity="0.81"/><circle cx="552" cy="182" r="1.8" fill="#f7ecd2" opacity="0.49"/><circle cx="184" cy="53" r="0.8" fill="#f7ecd2" opacity="0.37"/><circle cx="1057" cy="315" r="1.3" fill="#f7ecd2" opacity="0.40"/><circle cx="123" cy="320" r="1.8" fill="#f7ecd2" opacity="0.45"/><circle cx="478" cy="164" r="0.8" fill="#f7ecd2" opacity="0.77"/><circle cx="130" cy="315" r="1.3" fill="#f7ecd2" opacity="0.35"/><circle cx="63" cy="337" r="1.3" fill="#f7ecd2" opacity="0.66"/><circle cx="109" cy="122" r="0.8" fill="#f7ecd2" opacity="0.83"/><circle cx="4" cy="326" r="0.8" fill="#f7ecd2" opacity="0.39"/><circle cx="876" cy="217" r="1.3" fill="#f7ecd2" opacity="0.77"/><circle cx="1069" cy="139" r="1.8" fill="#f7ecd2" opacity="0.76"/><circle cx="895" cy="244" r="1.8" fill="#f7ecd2" opacity="0.65"/><circle cx="330" cy="128" r="1.8" fill="#f7ecd2" opacity="0.75"/><circle cx="22" cy="159" r="1.3" fill="#f7ecd2" opacity="0.83"/><circle cx="475" cy="321" r="1.3" fill="#f7ecd2" opacity="0.60"/><circle cx="81" cy="66" r="0.8" fill="#f7ecd2" opacity="0.81"/><circle cx="256" cy="110" r="0.8" fill="#f7ecd2" opacity="0.45"/><circle cx="1168" cy="221" r="0.8" fill="#f7ecd2" opacity="0.63"/><circle cx="681" cy="143" r="1.8" fill="#f7ecd2" opacity="0.68"/><circle cx="67" cy="208" r="1.8" fill="#f7ecd2" opacity="0.71"/><circle cx="982" cy="72" r="1.3" fill="#f7ecd2" opacity="0.39"/><circle cx="714" cy="323" r="1.8" fill="#f7ecd2" opacity="0.57"/><circle cx="487" cy="145" r="1.8" fill="#f7ecd2" opacity="0.50"/><circle cx="853" cy="330" r="1.3" fill="#f7ecd2" opacity="0.75"/><circle cx="108" cy="74" r="1.8" fill="#f7ecd2" opacity="0.77"/><circle cx="1060" cy="65" r="0.8" fill="#f7ecd2" opacity="0.35"/><circle cx="1093" cy="127" r="1.8" fill="#f7ecd2" opacity="0.46"/><circle cx="39" cy="152" r="1.8" fill="#f7ecd2" opacity="0.63"/><circle cx="34" cy="56" r="0.8" fill="#f7ecd2" opacity="0.39"/><circle cx="1006" cy="327" r="1.3" fill="#f7ecd2" opacity="0.47"/><circle cx="980" cy="120" r="42" fill="#f6ecd0" opacity="0.95"/><circle cx="996" cy="112" r="36" fill="url(#sky)" opacity="0.92"/>
<rect x="300" y="440" width="600" height="120" fill="#12141c"/><path d="M 270 440 Q 600 395 930 440 L 900 410 Q 600 368 300 410 Z" fill="#12141c"/><rect x="540.0" y="312" width="120" height="58" fill="#12141c"/><path d="M 506.0 312 Q 600 282 694.0 312 L 674.0 290 Q 600 266 526.0 290 Z" fill="#12141c"/><rect x="553.0" y="217" width="94" height="58" fill="#12141c"/><path d="M 519.0 217 Q 600 187 681.0 217 L 661.0 195 Q 600 171 539.0 195 Z" fill="#12141c"/><rect x="566.0" y="122" width="68" height="58" fill="#12141c"/><path d="M 532.0 122 Q 600 92 668.0 122 L 648.0 100 Q 600 76 552.0 100 Z" fill="#12141c"/><line x1="600" y1="78" x2="600" y2="46" stroke="#d8b45a" stroke-width="4"/><circle cx="600" cy="42" r="6" fill="#d8b45a"/>
<rect x="0" y="560" width="1200" height="140" fill="#0c0e14"/>

<rect x="0" y="556" width="1200" height="4" fill="#d8b45a" opacity="0.55"/>
</svg>