<svg xmlns="http://www.w3.org/2000/svg" viewBox="0 0 1200 700" role="img">
<defs>
<linearGradient id="sky" x1="0" y1="0" x2="0" y2="1">
<stop offset="0" stop-color="#0a1026"/><stop offset="0.62" stop-color="#152046"/><stop offset="1" stop-color="#2b3a6b"/>
</linearGradient>
<pattern id="g1" width="120" height="120" patternUnits="userSpaceOnUse"><polygon points="111.6,60.0 80.0,68.3 96.5,96.5 68.3,80.0 60.0,111.6 51.7,80.0 23.5,96.5 40.0,68.3 8.4,60.0 40.0,51.7 23.5,23.5 51.7,40.0 60.0,8.4 68.3,40.0 96.5,23.5 80.0,51.7" fill="none" stroke="#e8d9a8" stroke-width="1.6" opacity="0.1"/><rect x="17.4" y="17.4" width="85.2" height="85.2" fill="none" stroke="#e8d9a8" stroke-width="1.6" opacity="0.06999999999999999" transform="rotate(45 60.0 60.0)"/></pattern>
</defs>
<rect width="1200" height="700" fill="url(#sky)"/>
<rect width="1200" height="700" fill="url(#g1)"/>
<circle cx="891" cy="81" r="0.8" fill="#f7ecd2" opacity="0.56"/><circle cx="421" cy="190" r="1.8" fill="#f7ecd2" opacity="0.75"/><circle cx="1048" cy="306" r="1.3" fill="#f7ecd2" opacity="0.73"/><circle cx="156" cy="253" r="1.3" fill="#f7ecd2" opacity="0.53"/><circle cx="1177" cy="3" r="1.3" fill="#f7ecd2" opacity="0.66"/><circle cx="247" cy="132" r="1.3" fill="#f7ecd2" opacity="0.39"/><circle cx="894" cy="188" r="1.8" fill="#f7ecd2" opacity="0.57"/><circle cx="262" cy="35" r="0.8" fill="#f7ecd2" opacity="0.55"/><circle cx="1063" cy="105" r="1.3" fill="#f7ecd2" opacity="0.50"/><circle cx="873" cy="54" r="0.8" fill="#f7ecd2" opacity="0.77"/><circle cx="340" cy="250" r="1.8" fill="#f7ecd2" opacity="0.35"/><circle cx="1168" cy="137" r="0.8" fill="#f7ecd2" opacity="0.51"/><circle cx="549" cy="47" r="1.8" fill="#f7ecd2" opacity="0.38"/><circle cx="1099" cy="156" r="1.3" fill="#f7ecd2" opacity="0.79"/><circle cx="586" cy="292" r="1.8" fill="#f7ecd2" opacity="0.47"/><circle cx="474" cy="279" r="0.8" fill="#f7ecd2" opacity="0.81"/><circle cx="835" cy="309" r="1.3" fill="#f7ecd2" opacity="0.50"/><circle cx="925" cy="98" r="0.8" fill="#f7ecd2" opacity="0.35"/><circle cx="432" cy="174" r="0.8" fill="#f7ecd2" opacity="0.53"/><circle cx="580" cy="61" r="1.8" fill="#f7ecd2" opacity="0.65"/><circle cx="721" cy="71" r="0.8" fill="#f7ecd2" opacity="0.76"/><circle cx="351" cy="220" r="1.3" fill="#f7ecd2" opacity="0.55"/><circle cx="1078" cy="36" r="1.3" fill="#f7ecd2" opacity="0.43"/><circle cx="286" cy="23" r="0.8" fill="#f7ecd2" opacity="0.63"/><circle cx="207" cy="13" r="1.3" fill="#f7ecd2" opacity="0.76"/><circle cx="577" cy="322" r="1.8" fill="#f7ecd2" opacity="0.79"/><circle cx="124" cy="278" r="0.8" fill="#f7ecd2" opacity="0.57"/><circle cx="792" cy="305" r="1.8" fill="#f7ecd2" opacity="0.45"/><circle cx="493" cy="275" r="0.8" fill="#f7ecd2" opacity="0.60"/><circle cx="403" cy="264" r="1.3" fill="#f7ecd2" opacity="0.77"/><circle cx="1170" cy="300" r="0.8" fill="#f7ecd2" opacity="0.35"/><circle cx="898" cy="87" r="1.3" fill="#f7ecd2" opacity="0.61"/><circle cx="379" cy="37" r="1.8" fill="#f7ecd2" opacity="0.58"/><circle cx="1029" cy="186" r="0.8" fill="#f7ecd2" opacity="0.79"/><circle cx="616" cy="22" r="1.8" fill="#f7ecd2" opacity="0.37"/><circle cx="604" cy="49" r="1.8" fill="#f7ecd2" opacity="0.81"/><circle cx="1065" cy="119" r="1.8" fill="#f7ecd2" opacity="0.70"/><circle cx="55" cy="148" r="1.8" fill="#f7ecd2" opacity="0.75"/><circle cx="862" cy="64" r="1.8" fill="#f7ecd2" opacity="0.53"/><circle cx="1110" cy="331" r="1.3" fill="#f7ecd2" opacity="0.45"/><circle cx="151" cy="241" r="1.8" fill="#f7ecd2" opacity="0.76"/><circle cx="1081" cy="230" r="0.8" fill="#f7ecd2" opacity="0.65"/><circle cx="708" cy="286" r="1.3" fill="#f7ecd2" opacity="0.73"/><circle cx="16" cy="313" r="1.8" fill="#f7ecd2" opacity="0.43"/><circle cx="37" cy="3" r="1.3" fill="#f7ecd2" opacity="0.46"/><circle cx="507" cy="12" r="0.8" fill="#f7ecd2" opacity="0.69"/><circle cx="154" cy="8" r="0.8" fill="#f7ecd2" opacity="0.67"/><circle cx="922" cy="75" r="1.3" fill="#f7ecd2" opacity="0.35"/><circle cx="723" cy="85" r="1.3" fill="#f7ecd2" opacity="0.40"/><circle cx="733" cy="114" r="1.3" fill="#f7ecd2" opacity="0.47"/><circle cx="400" cy="50" r="0.8" fill="#f7ecd2" opacity="0.35"/><circle cx="228" cy="217" r="1.3" fill="#f7ecd2" opacity="0.61"/><circle cx="1009" cy="7" r="1.8" fill="#f7ecd2" opacity="0.48"/><circle cx="559" cy="56" r="0.8" fill="#f7ecd2" opacity="0.39"/><circle cx="246" cy="272" r="1.8" fill="#f7ecd2" opacity="0.47"/><circle cx="334" cy="339" r="1.3" fill="#f7ecd2" opacity="0.61"/><circle cx="895" cy="109" r="1.8" fill="#f7ecd2" opacity="0.40"/><circle cx="1185" cy="318" r="0.8" fill="#f7ecd2" opacity="0.65"/><circle cx="892" cy="134" r="0.8" fill="#f7ecd2" opacity="0.63"/><circle cx="40" cy="301" r="1.8" fill="#f7ecd2" opacity="0.75"/><circle cx="980" cy="120" r="42" fill="#f6ecd0" opacity="0.95"/><circle cx="996" cy="112" r="36" fill="url(#sky)" opacity="0.92"/>
<rect x="300" y="440" width="600" height="120" fill="#12141c"/><path d="M 270 440 Q 600 395 930 440 L 900 410 Q 600 368 300 410 Z" fill="#12141c"/><rect x="540.0" y="312" width="120" height="58" fill="#12141c"/><path d="M 506.0 312 Q 600 282 694.0 312 L 674.0 290 Q 600 266 526.0 290 Z" fill="#12141c"/><rect x="553.0" y="217" width="94" height="58" fill="#12141c"/><path d="M 519.0 217 Q 600 187 681.0 217 L 661.0 195 Q 600 171 539.0 195 Z" fill="#12141c"/><rect x="566.0" y="122" width="68" height="58" fill="#12141c"/><path d="M 532.0 122 Q 600 92 668.0 122 L 648.0 100 Q 600 76 552.0 100 Z" fill="#12141c"/><line x1="600" y1="78" x2="600" y2="46" stroke="#d8b45a" stroke-width="4"/><circle cx="600" cy="42" r="6" fill="#d8b45a"/>
<rect x="0" y="560" width="1200" height="140" fill="#0c0e14"/>

<rect x="0" y="556" width="1200" height="4" fill="#d8b45a" opacity="0.55"/>
</svg>