<svg xmlns="http://www.w3.org/2000/svg" viewBox="0 0 1200 700" role="img">
<defs>
<linearGradient id="sky" x1="0" y1="0" x2="0" y2="1">
<stop offset="0" stop-color="#0a1026"/><stop offset="0.62" stop-color="#152046"/><stop offset="1" stop-color="#2b3a6b"/>
</linearGradient>
<pattern id="g1" width="120" height="120" patternUnits="userSpaceOnUse"><polygon points="111.6,60.0 80.0,68.3 96.5,96.5 68.3,80.0 60.0,111.6 51.7,80.0 23.5,96.5 40.0,68.3 8.4,60.0 40.0,51.7 23.5,23.5 51.7,40.0 60.0,8.4 68.3,40.0 96.5,23.5 80.0,51.7" fill="none" stroke="#e8d9a8" stroke-width="1.6" opacity="0.1"/><rect x="17.4" y="17.4" width="85.2" height="85.2" fill="none" stroke="#e8d9a8" stroke-width="1.6" opacity="0.06999999999999999" transform="rotate(45 60.0 60.0)"/></pattern>
</defs>
<rect width="1200" height="700" fill="url(#sky)"/>
<rect width="1200" height="700" fill="url(#g1)"/>
<circle cx="530" cy="110" r="1.3" fill="#f7ecd2" opacity="0.35"/><circle cx="468" cy="287" r="1.8" fill="#f7ecd2" opacity="0.51"/><circle cx="879" cy="167" r="1.8" fill="#f7ecd2" opacity="0.78"/><circle cx="1019" cy="146" r="1.3" fill="#f7ecd2" opacity="0.59"/><circle cx="576" cy="72" r="0.8" fill="#f7ecd2" opacity="0.57"/><circle cx="774" cy="149" r="1.8" fill="#f7ecd2" opacity="0.61"/><circle cx="965" cy="9" r="1.8" fill="#f7ecd2" opacity="0.70"/><circle cx="645" cy="8" r="1.8" fill="#f7ecd2" opacity="0.45"/><circle cx="222" cy="214" r="1.3" fill="#f7ecd2" opacity="0.43"/><circle cx="680" cy="191" r="1.3" fill="#f7ecd2" opacity="0.65"/><circle cx="651" cy="31" r="1.3" fill="#f7ecd2" opacity="0.66"/><circle cx="1071" cy="190" r="1.3" fill="#f7ecd2" opacity="0.75"/><circle cx="668" cy="336" r="1.8" fill="#f7ecd2" opacity="0.83"/><circle cx="186" cy="73" r="1.3" fill="#f7ecd2" opacity="0.63"/><circle cx="1137" cy="33" r="0.8" fill="#f7ecd2" opacity="0.56"/><circle cx="1097" cy="212" r="1.3" fill="#f7ecd2" opacity="0.49"/><circle cx="714" cy="298" r="1.3" fill="#f7ecd2" opacity="0.57"/><circle cx="492" cy="275" r="1.8" fill="#f7ecd2" opacity="0.35"/><circle cx="23" cy="75" r="1.8" fill="#f7ecd2" opacity="0.60"/><circle cx="723" cy="74" r="1.8" fill="#f7ecd2" opacity="0.37"/><circle cx="360" cy="100" r="1.3" fill="#f7ecd2" opacity="0.35"/><circle cx="398" cy="317" r="1.3" fill="#f7ecd2" opacity="0.51"/><circle cx="909" cy="237" r="0.8" fill="#f7ecd2" opacity="0.68"/><circle cx="1149" cy="256" r="1.3" fill="#f7ecd2" opacity="0.79"/><circle cx="806" cy="222" r="1.8" fill="#f7ecd2" opacity="0.67"/><circle cx="1104" cy="339" r="0.8" fill="#f7ecd2" opacity="0.41"/><circle cx="195" cy="99" r="0.8" fill="#f7ecd2" opacity="0.40"/><circle cx="1175" cy="278" r="1.3" fill="#f7ecd2" opacity="0.35"/><circle cx="852" cy="184" r="1.3" fill="#f7ecd2" opacity="0.53"/><circle cx="210" cy="61" r="1.3" fill="#f7ecd2" opacity="0.45"/><circle cx="281" cy="281" r="1.3" fill="#f7ecd2" opacity="0.46"/><circle cx="801" cy="140" r="1.8" fill="#f7ecd2" opacity="0.75"/><circle cx="498" cy="326" r="1.8" fill="#f7ecd2" opacity="0.83"/><circle cx="116" cy="103" r="0.8" fill="#f7ecd2" opacity="0.83"/><circle cx="1167" cy="103" r="1.3" fill="#f7ecd2" opacity="0.36"/><circle cx="27" cy="182" r="1.8" fill="#f7ecd2" opacity="0.49"/><circle cx="944" cy="108" r="1.8" fill="#f7ecd2" opacity="0.37"/><circle cx="822" cy="125" r="1.8" fill="#f7ecd2" opacity="0.35"/><circle cx="453" cy="305" r="1.8" fill="#f7ecd2" opacity="0.50"/><circle cx="53" cy="204" r="1.8" fill="#f7ecd2" opacity="0.47"/><circle cx="990" cy="70" r="1.3" fill="#f7ecd2" opacity="0.35"/><circle cx="1128" cy="327" r="0.8" fill="#f7ecd2" opacity="0.41"/><circle cx="539" cy="147" r="1.8" fill="#f7ecd2" opacity="0.68"/><circle cx="879" cy="206" r="1.8" fill="#f7ecd2" opacity="0.59"/><circle cx="636" cy="212" r="1.8" fill="#f7ecd2" opacity="0.67"/><circle cx="1034" cy="29" r="1.3" fill="#f7ecd2" opacity="0.71"/><circle cx="225" cy="169" r="1.3" fill="#f7ecd2" opacity="0.60"/><circle cx="105" cy="248" r="1.8" fill="#f7ecd2" opacity="0.75"/><circle cx="1082" cy="334" r="0.8" fill="#f7ecd2" opacity="0.73"/><circle cx="540" cy="251" r="1.8" fill="#f7ecd2" opacity="0.75"/><circle cx="711" cy="171" r="0.8" fill="#f7ecd2" opacity="0.66"/><circle cx="131" cy="270" r="1.8" fill="#f7ecd2" opacity="0.55"/><circle cx="1128" cy="296" r="1.8" fill="#f7ecd2" opacity="0.73"/><circle cx="846" cy="113" r="1.8" fill="#f7ecd2" opacity="0.83"/><circle cx="797" cy="13" r="0.8" fill="#f7ecd2" opacity="0.46"/><circle cx="957" cy="272" r="1.8" fill="#f7ecd2" opacity="0.39"/><circle cx="774" cy="98" r="1.8" fill="#f7ecd2" opacity="0.37"/><circle cx="752" cy="155" r="1.3" fill="#f7ecd2" opacity="0.45"/><circle cx="483" cy="35" r="1.8" fill="#f7ecd2" opacity="0.40"/><circle cx="183" cy="314" r="1.8" fill="#f7ecd2" opacity="0.47"/><circle cx="980" cy="120" r="42" fill="#f6ecd0" opacity="0.95"/><circle cx="996" cy="112" r="36" fill="url(#sky)" opacity="0.92"/>
<rect x="300" y="440" width="600" height="120" fill="#12141c"/><path d="M 270 440 Q 600 395 930 440 L 900 410 Q 600 368 300 410 Z" fill="#12141c"/><rect x="540.0" y="312" width="120" height="58" fill="#12141c"/><path d="M 506.0 312 Q 600 282 694.0 312 L 674.0 290 Q 600 266 526.0 290 Z" fill="#12141c"/><rect x="553.0" y="217" width="94" height="58" fill="#12141c"/><path d="M 519.0 217 Q 600 187 681.0 217 L 661.0 195 Q 600 171 539.0 195 Z" fill="#12141c"/><rect x="566.0" y="122" width="68" height="58" fill="#12141c"/><path d="M 532.0 122 Q 600 92 668.0 122 L 648.0 100 Q 600 76 552.0 100 Z" fill="#12141c"/><line x1="600" y1="78" x2="600" y2="46" stroke="#d8b45a" stroke-width="4"/><circle cx="600" cy="42" r="6" fill="#d8b45a"/>
<rect x="0" y="560" width="1200" height="140" fill="#0c0e14"/>

<rect x="0" y="556" width="1200" height="4" fill="#d8b45a" opacity="0.55"/>
</svg>