<svg xmlns="http://www.w3.org/2000/svg" viewBox="0 0 1200 700" role="img">
<defs>
<linearGradient id="sky" x1="0" y1="0" x2="0" y2="1">
<stop offset="0" stop-color="#1a2a4a"/><stop offset="0.62" stop-color="#3d5a8e"/><stop offset="1" stop-color="#e8c97a"/>
</linearGradient>
<pattern id="g1" width="120" height="120" patternUnits="userSpaceOnUse"><polygon points="111.6,60.0 80.0,68.3 96.5,96.5 68.3,80.0 60.0,111.6 51.7,80.0 23.5,96.5 40.0,68.3 8.4,60.0 40.0,51.7 23.5,23.5 51.7,40.0 60.0,8.4 68.3,40.0 96.5,23.5 80.0,51.7" fill="none" stroke="#e8d9a8" stroke-width="1.6" opacity="0.1"/><rect x="17.4" y="17.4" width="85.2" height="85.2" fill="none" stroke="#e8d9a8" stroke-width="1.6" opacity="0.06999999999999999" transform="rotate(45 60.0 60.0)"/></pattern>
</defs>
<rect width="1200" height="700" fill="url(#sky)"/>
<rect width="1200" height="700" fill="url(#g1)"/>
<circle cx="142" cy="2" r="0.8" fill="#f7ecd2" opacity="0.69"/><circle cx="944" cy="63" r="1.8" fill="#f7ecd2" opacity="0.57"/><circle cx="827" cy="15" r="1.8" fill="#f7ecd2" opacity="0.40"/><circle cx="823" cy="170" r="0.8" fill="#f7ecd2" opacity="0.45"/><circle cx="668" cy="44" r="1.3" fill="#f7ecd2" opacity="0.77"/><circle cx="290" cy="45" r="1.8" fill="#f7ecd2" opacity="0.35"/><circle cx="433" cy="137" r="0.8" fill="#f7ecd2" opacity="0.56"/><circle cx="209" cy="72" r="1.8" fill="#f7ecd2" opacity="0.83"/><circle cx="794" cy="6" r="1.8" fill="#f7ecd2" opacity="0.49"/><circle cx="436" cy="187" r="1.8" fill="#f7ecd2" opacity="0.67"/><circle cx="839" cy="199" r="0.8" fill="#f7ecd2" opacity="0.46"/><circle cx="395" cy="134" r="1.3" fill="#f7ecd2" opacity="0.65"/><circle cx="520" cy="108" r="1.3" fill="#f7ecd2" opacity="0.45"/><circle cx="182" cy="29" r="1.3" fill="#f7ecd2" opacity="0.63"/><circle cx="845" cy="181" r="0.8" fill="#f7ecd2" opacity="0.80"/><circle cx="181" cy="116" r="0.8" fill="#f7ecd2" opacity="0.81"/><circle cx="1046" cy="150" r="1.8" fill="#f7ecd2" opacity="0.35"/><circle cx="728" cy="31" r="0.8" fill="#f7ecd2" opacity="0.53"/><circle cx="451" cy="83" r="0.8" fill="#f7ecd2" opacity="0.68"/><circle cx="767" cy="38" r="1.3" fill="#f7ecd2" opacity="0.81"/><circle cx="1172" cy="112" r="0.8" fill="#f7ecd2" opacity="0.49"/><circle cx="874" cy="173" r="0.8" fill="#f7ecd2" opacity="0.37"/><circle cx="857" cy="145" r="0.8" fill="#f7ecd2" opacity="0.50"/><circle cx="953" cy="100" r="0.8" fill="#f7ecd2" opacity="0.35"/><circle cx="898" cy="214" r="1.8" fill="#f7ecd2" opacity="0.57"/><circle cx="620" cy="15" r="1.8" fill="#f7ecd2" opacity="0.35"/><circle cx="863" cy="127" r="0.8" fill="#f7ecd2" opacity="0.36"/><circle cx="739" cy="82" r="1.8" fill="#f7ecd2" opacity="0.83"/><circle cx="224" cy="16" r="0.8" fill="#f7ecd2" opacity="0.69"/><circle cx="1166" cy="17" r="1.3" fill="#f7ecd2" opacity="0.57"/><circle cx="960" cy="210" r="110.00000000000001" fill="#e8c97a" opacity="0.18"/><circle cx="960" cy="210" r="50" fill="#e8c97a" opacity="0.9"/>
<rect x="240" y="410" width="720" height="150" fill="#12141c"/><path d="M 268 560 L 268 472 Q 300 432 332 472 L 332 560 Z" fill="#0c0e14" opacity="0.9"/><path d="M 366 560 L 366 472 Q 398 432 430 472 L 430 560 Z" fill="#0c0e14" opacity="0.9"/><path d="M 464 560 L 464 472 Q 496 432 528 472 L 528 560 Z" fill="#0c0e14" opacity="0.9"/><path d="M 562 560 L 562 472 Q 594 432 626 472 L 626 560 Z" fill="#0c0e14" opacity="0.9"/><path d="M 660 560 L 660 472 Q 692 432 724 472 L 724 560 Z" fill="#0c0e14" opacity="0.9"/><path d="M 758 560 L 758 472 Q 790 432 822 472 L 822 560 Z" fill="#0c0e14" opacity="0.9"/><path d="M 856 560 L 856 472 Q 888 432 920 472 L 920 560 Z" fill="#0c0e14" opacity="0.9"/><path d="M 450 410 C 450 265.5, 517.5 240, 600 240 C 682.5 240, 750 265.5, 750 410 Z" fill="#12141c"/><line x1="600" y1="240" x2="600" y2="218" stroke="#d8b45a" stroke-width="3"/><circle cx="600" cy="214" r="4.5" fill="#d8b45a"/><path d="M 600 200 a 8 8 0 1 0 6 13 a 6.4 6.4 0 1 1 -6 -13 Z" fill="#d8b45a"/><rect x="139.0" y="230" width="22" height="330" fill="#12141c"/><rect x="129.1" y="234" width="41.8" height="7" rx="3" fill="#12141c"/><path d="M 131.3 232 C 131.3 210.495, 139.715 206.7, 150 206.7 C 160.285 206.7, 168.7 210.495, 168.7 232 Z" fill="#12141c"/><line x1="150" y1="206.7" x2="150" y2="184.7" stroke="#d8b45a" stroke-width="3"/><circle cx="150" cy="180.7" r="4.5" fill="#d8b45a"/><path d="M 150 166.7 a 8 8 0 1 0 6 13 a 6.4 6.4 0 1 1 -6 -13 Z" fill="#d8b45a"/>
<rect x="0" y="560" width="1200" height="140" fill="#0c0e14"/>

<rect x="0" y="556" width="1200" height="4" fill="#d8b45a" opacity="0.55"/>
</svg>