<svg xmlns="http://www.w3.org/2000/svg" viewBox="0 0 1200 700" role="img">
<defs>
<linearGradient id="sky" x1="0" y1="0" x2="0" y2="1">
<stop offset="0" stop-color="#0a1026"/><stop offset="0.62" stop-color="#152046"/><stop offset="1" stop-color="#2b3a6b"/>
</linearGradient>
<pattern id="g1" width="120" height="120" patternUnits="userSpaceOnUse"><polygon points="111.6,60.0 80.0,68.3 96.5,96.5 68.3,80.0 60.0,111.6 51.7,80.0 23.5,96.5 40.0,68.3 8.4,60.0 40.0,51.7 23.5,23.5 51.7,40.0 60.0,8.4 68.3,40.0 96.5,23.5 80.0,51.7" fill="none" stroke="#e8d9a8" stroke-width="1.6" opacity="0.1"/><rect x="17.4" y="17.4" width="85.2" height="85.2" fill="none" stroke="#e8d9a8" stroke-width="1.6" opacity="0.06999999999999999" transform="rotate(45 60.0 60.0)"/></pattern>
</defs>
<rect width="1200" height="700" fill="url(#sky)"/>
<rect width="1200" height="700" fill="url(#g1)"/>
<circle cx="188" cy="48" r="1.8" fill="#f7ecd2" opacity="0.59"/><circle cx="702" cy="61" r="1.3" fill="#f7ecd2" opacity="0.57"/><circle cx="1161" cy="69" r="0.8" fill="#f7ecd2" opacity="0.44"/><circle cx="5" cy="332" r="1.3" fill="#f7ecd2" opacity="0.45"/><circle cx="954" cy="230" r="1.8" fill="#f7ecd2" opacity="0.55"/><circle cx="768" cy="303" r="0.8" fill="#f7ecd2" opacity="0.39"/><circle cx="527" cy="31" r="0.8" fill="#f7ecd2" opacity="0.72"/><circle cx="1071" cy="294" r="0.8" fill="#f7ecd2" opacity="0.59"/><circle cx="120" cy="112" r="1.3" fill="#f7ecd2" opacity="0.75"/><circle cx="434" cy="45" r="1.8" fill="#f7ecd2" opacity="0.65"/><circle cx="693" cy="313" r="1.3" fill="#f7ecd2" opacity="0.44"/><circle cx="537" cy="296" r="1.8" fill="#f7ecd2" opacity="0.37"/><circle cx="86" cy="314" r="1.3" fill="#f7ecd2" opacity="0.39"/><circle cx="900" cy="107" r="1.8" fill="#f7ecd2" opacity="0.35"/><circle cx="459" cy="95" r="1.8" fill="#f7ecd2" opacity="0.40"/><circle cx="803" cy="278" r="1.3" fill="#f7ecd2" opacity="0.69"/><circle cx="852" cy="156" r="0.8" fill="#f7ecd2" opacity="0.47"/><circle cx="966" cy="9" r="0.8" fill="#f7ecd2" opacity="0.79"/><circle cx="1025" cy="197" r="1.3" fill="#f7ecd2" opacity="0.60"/><circle cx="669" cy="100" r="1.3" fill="#f7ecd2" opacity="0.35"/><circle cx="18" cy="38" r="1.8" fill="#f7ecd2" opacity="0.69"/><circle cx="632" cy="91" r="0.8" fill="#f7ecd2" opacity="0.47"/><circle cx="1191" cy="139" r="1.3" fill="#f7ecd2" opacity="0.84"/><circle cx="135" cy="102" r="0.8" fill="#f7ecd2" opacity="0.55"/><circle cx="1184" cy="40" r="0.8" fill="#f7ecd2" opacity="0.45"/><circle cx="1098" cy="153" r="0.8" fill="#f7ecd2" opacity="0.79"/><circle cx="957" cy="261" r="0.8" fill="#f7ecd2" opacity="0.62"/><circle cx="401" cy="84" r="1.8" fill="#f7ecd2" opacity="0.69"/><circle cx="750" cy="82" r="1.3" fill="#f7ecd2" opacity="0.35"/><circle cx="1164" cy="55" r="1.3" fill="#f7ecd2" opacity="0.55"/><circle cx="323" cy="223" r="0.8" fill="#f7ecd2" opacity="0.64"/><circle cx="267" cy="246" r="0.8" fill="#f7ecd2" opacity="0.67"/><circle cx="1116" cy="104" r="1.8" fill="#f7ecd2" opacity="0.49"/><circle cx="830" cy="137" r="1.3" fill="#f7ecd2" opacity="0.45"/><circle cx="489" cy="165" r="0.8" fill="#f7ecd2" opacity="0.70"/><circle cx="933" cy="48" r="0.8" fill="#f7ecd2" opacity="0.69"/><circle cx="1082" cy="306" r="1.8" fill="#f7ecd2" opacity="0.77"/><circle cx="96" cy="59" r="1.8" fill="#f7ecd2" opacity="0.49"/><circle cx="255" cy="287" r="1.8" fill="#f7ecd2" opacity="0.70"/><circle cx="1199" cy="30" r="1.8" fill="#f7ecd2" opacity="0.55"/><circle cx="648" cy="8" r="1.8" fill="#f7ecd2" opacity="0.69"/><circle cx="162" cy="301" r="1.3" fill="#f7ecd2" opacity="0.47"/><circle cx="821" cy="49" r="0.8" fill="#f7ecd2" opacity="0.64"/><circle cx="1065" cy="192" r="0.8" fill="#f7ecd2" opacity="0.65"/><circle cx="1014" cy="30" r="0.8" fill="#f7ecd2" opacity="0.55"/><circle cx="1028" cy="183" r="1.8" fill="#f7ecd2" opacity="0.59"/><circle cx="987" cy="331" r="1.3" fill="#f7ecd2" opacity="0.82"/><circle cx="531" cy="194" r="1.8" fill="#f7ecd2" opacity="0.49"/><circle cx="980" cy="232" r="0.8" fill="#f7ecd2" opacity="0.45"/><circle cx="294" cy="105" r="0.8" fill="#f7ecd2" opacity="0.55"/><circle cx="753" cy="113" r="1.8" fill="#f7ecd2" opacity="0.74"/><circle cx="797" cy="176" r="1.3" fill="#f7ecd2" opacity="0.57"/><circle cx="546" cy="274" r="1.3" fill="#f7ecd2" opacity="0.39"/><circle cx="360" cy="7" r="1.3" fill="#f7ecd2" opacity="0.55"/><circle cx="119" cy="75" r="1.8" fill="#f7ecd2" opacity="0.60"/><circle cx="663" cy="338" r="1.8" fill="#f7ecd2" opacity="0.79"/><circle cx="912" cy="296" r="1.8" fill="#f7ecd2" opacity="0.37"/><circle cx="26" cy="89" r="1.3" fill="#f7ecd2" opacity="0.49"/><circle cx="285" cy="17" r="1.8" fill="#f7ecd2" opacity="0.80"/><circle cx="129" cy="0" r="0.8" fill="#f7ecd2" opacity="0.35"/><circle cx="980" cy="120" r="42" fill="#f6ecd0" opacity="0.95"/><circle cx="996" cy="112" r="36" fill="url(#sky)" opacity="0.92"/>
<rect x="240" y="410" width="720" height="150" fill="#12141c"/><path d="M 268 560 L 268 472 Q 300 432 332 472 L 332 560 Z" fill="#0c0e14" opacity="0.9"/><path d="M 366 560 L 366 472 Q 398 432 430 472 L 430 560 Z" fill="#0c0e14" opacity="0.9"/><path d="M 464 560 L 464 472 Q 496 432 528 472 L 528 560 Z" fill="#0c0e14" opacity="0.9"/><path d="M 562 560 L 562 472 Q 594 432 626 472 L 626 560 Z" fill="#0c0e14" opacity="0.9"/><path d="M 660 560 L 660 472 Q 692 432 724 472 L 724 560 Z" fill="#0c0e14" opacity="0.9"/><path d="M 758 560 L 758 472 Q 790 432 822 472 L 822 560 Z" fill="#0c0e14" opacity="0.9"/><path d="M 856 560 L 856 472 Q 888 432 920 472 L 920 560 Z" fill="#0c0e14" opacity="0.9"/><path d="M 450 410 C 450 265.5, 517.5 240, 600 240 C 682.5 240, 750 265.5, 750 410 Z" fill="#12141c"/><line x1="600" y1="240" x2="600" y2="218" stroke="#d8b45a" stroke-width="3"/><circle cx="600" cy="214" r="4.5" fill="#d8b45a"/><path d="M 600 200 a 8 8 0 1 0 6 13 a 6.4 6.4 0 1 1 -6 -13 Z" fill="#d8b45a"/><rect x="139.0" y="230" width="22" height="330" fill="#12141c"/><rect x="129.1" y="234" width="41.8" height="7" rx="3" fill="#12141c"/><path d="M 131.3 232 C 131.3 210.495, 139.715 206.7, 150 206.7 C 160.285 206.7, 168.7 210.495, 168.7 232 Z" fill="#12141c"/><line x1="150" y1="206.7" x2="150" y2="184.7" stroke="#d8b45a" stroke-width="3"/><circle cx="150" cy="180.7" r="4.5" fill="#d8b45a"/><path d="M 150 166.7 a 8 8 0 1 0 6 13 a 6.4 6.4 0 1 1 -6 -13 Z" fill="#d8b45a"/>
<rect x="0" y="560" width="1200" height="140" fill="#0c0e14"/>

<rect x="0" y="556" width="1200" height="4" fill="#d8b45a" opacity="0.55"/>
</svg>