<svg xmlns="http://www.w3.org/2000/svg" viewBox="0 0 1200 700" role="img">
<defs>
<linearGradient id="sky" x1="0" y1="0" x2="0" y2="1">
<stop offset="0" stop-color="#0a1026"/><stop offset="0.62" stop-color="#152046"/><stop offset="1" stop-color="#2b3a6b"/>
</linearGradient>
<pattern id="g1" width="120" height="120" patternUnits="userSpaceOnUse"><polygon points="111.6,60.0 80.0,68.3 96.5,96.5 68.3,80.0 60.0,111.6 51.7,80.0 23.5,96.5 40.0,68.3 8.4,60.0 40.0,51.7 23.5,23.5 51.7,40.0 60.0,8.4 68.3,40.0 96.5,23.5 80.0,51.7" fill="none" stroke="#e8d9a8" stroke-width="1.6" opacity="0.1"/><rect x="17.4" y="17.4" width="85.2" height="85.2" fill="none" stroke="#e8d9a8" stroke-width="1.6" opacity="0.06999999999999999" transform="rotate(45 60.0 60.0)"/></pattern>
</defs>
<rect width="1200" height="700" fill="url(#sky)"/>
<rect width="1200" height="700" fill="url(#g1)"/>
<circle cx="142" cy="322" r="1.8" fill="#f7ecd2" opacity="0.59"/><circle cx="944" cy="83" r="1.3" fill="#f7ecd2" opacity="0.37"/><circle cx="827" cy="255" r="1.8" fill="#f7ecd2" opacity="0.70"/><circle cx="823" cy="190" r="1.8" fill="#f7ecd2" opacity="0.55"/><circle cx="668" cy="204" r="1.8" fill="#f7ecd2" opacity="0.57"/><circle cx="290" cy="105" r="1.8" fill="#f7ecd2" opacity="0.35"/><circle cx="433" cy="177" r="1.3" fill="#f7ecd2" opacity="0.76"/><circle cx="209" cy="92" r="1.3" fill="#f7ecd2" opacity="0.63"/><circle cx="794" cy="266" r="1.3" fill="#f7ecd2" opacity="0.39"/><circle cx="436" cy="107" r="0.8" fill="#f7ecd2" opacity="0.37"/><circle cx="839" cy="79" r="0.8" fill="#f7ecd2" opacity="0.66"/><circle cx="395" cy="314" r="1.3" fill="#f7ecd2" opacity="0.65"/><circle cx="520" cy="168" r="1.3" fill="#f7ecd2" opacity="0.45"/><circle cx="182" cy="289" r="0.8" fill="#f7ecd2" opacity="0.83"/><circle cx="845" cy="161" r="1.3" fill="#f7ecd2" opacity="0.80"/><circle cx="181" cy="36" r="1.3" fill="#f7ecd2" opacity="0.51"/><circle cx="1046" cy="50" r="1.3" fill="#f7ecd2" opacity="0.35"/><circle cx="728" cy="111" r="1.8" fill="#f7ecd2" opacity="0.43"/><circle cx="451" cy="83" r="0.8" fill="#f7ecd2" opacity="0.68"/><circle cx="767" cy="78" r="1.8" fill="#f7ecd2" opacity="0.61"/><circle cx="1172" cy="112" r="0.8" fill="#f7ecd2" opacity="0.49"/><circle cx="874" cy="113" r="0.8" fill="#f7ecd2" opacity="0.47"/><circle cx="857" cy="325" r="0.8" fill="#f7ecd2" opacity="0.60"/><circle cx="953" cy="300" r="1.8" fill="#f7ecd2" opacity="0.35"/><circle cx="898" cy="14" r="0.8" fill="#f7ecd2" opacity="0.57"/><circle cx="620" cy="295" r="0.8" fill="#f7ecd2" opacity="0.35"/><circle cx="863" cy="67" r="0.8" fill="#f7ecd2" opacity="0.56"/><circle cx="739" cy="22" r="1.8" fill="#f7ecd2" opacity="0.43"/><circle cx="224" cy="96" r="1.8" fill="#f7ecd2" opacity="0.39"/><circle cx="1166" cy="117" r="1.8" fill="#f7ecd2" opacity="0.57"/><circle cx="469" cy="329" r="0.8" fill="#f7ecd2" opacity="0.36"/><circle cx="125" cy="264" r="1.8" fill="#f7ecd2" opacity="0.35"/><circle cx="350" cy="158" r="1.3" fill="#f7ecd2" opacity="0.35"/><circle cx="112" cy="319" r="1.8" fill="#f7ecd2" opacity="0.63"/><circle cx="875" cy="231" r="1.8" fill="#f7ecd2" opacity="0.60"/><circle cx="311" cy="146" r="1.3" fill="#f7ecd2" opacity="0.41"/><circle cx="76" cy="60" r="1.3" fill="#f7ecd2" opacity="0.45"/><circle cx="1058" cy="301" r="0.8" fill="#f7ecd2" opacity="0.43"/><circle cx="881" cy="313" r="0.8" fill="#f7ecd2" opacity="0.38"/><circle cx="97" cy="208" r="1.8" fill="#f7ecd2" opacity="0.61"/><circle cx="602" cy="282" r="1.8" fill="#f7ecd2" opacity="0.49"/><circle cx="404" cy="323" r="1.3" fill="#f7ecd2" opacity="0.77"/><circle cx="487" cy="235" r="1.8" fill="#f7ecd2" opacity="0.80"/><circle cx="683" cy="250" r="0.8" fill="#f7ecd2" opacity="0.35"/><circle cx="728" cy="4" r="0.8" fill="#f7ecd2" opacity="0.47"/><circle cx="550" cy="325" r="1.8" fill="#f7ecd2" opacity="0.35"/><circle cx="893" cy="137" r="1.3" fill="#f7ecd2" opacity="0.76"/><circle cx="869" cy="132" r="1.8" fill="#f7ecd2" opacity="0.43"/><circle cx="454" cy="246" r="1.3" fill="#f7ecd2" opacity="0.69"/><circle cx="296" cy="167" r="1.3" fill="#f7ecd2" opacity="0.67"/><circle cx="899" cy="219" r="1.8" fill="#f7ecd2" opacity="0.66"/><circle cx="655" cy="194" r="0.8" fill="#f7ecd2" opacity="0.55"/><circle cx="980" cy="128" r="1.3" fill="#f7ecd2" opacity="0.75"/><circle cx="842" cy="329" r="1.3" fill="#f7ecd2" opacity="0.53"/><circle cx="505" cy="141" r="1.3" fill="#f7ecd2" opacity="0.40"/><circle cx="41" cy="96" r="1.8" fill="#f7ecd2" opacity="0.71"/><circle cx="1106" cy="190" r="0.8" fill="#f7ecd2" opacity="0.75"/><circle cx="988" cy="331" r="1.8" fill="#f7ecd2" opacity="0.63"/><circle cx="911" cy="43" r="0.8" fill="#f7ecd2" opacity="0.58"/><circle cx="227" cy="318" r="1.8" fill="#f7ecd2" opacity="0.71"/><circle cx="980" cy="120" r="42" fill="#f6ecd0" opacity="0.95"/><circle cx="996" cy="112" r="36" fill="url(#sky)" opacity="0.92"/>
<rect x="240" y="410" width="720" height="150" fill="#12141c"/><path d="M 268 560 L 268 472 Q 300 432 332 472 L 332 560 Z" fill="#0c0e14" opacity="0.9"/><path d="M 366 560 L 366 472 Q 398 432 430 472 L 430 560 Z" fill="#0c0e14" opacity="0.9"/><path d="M 464 560 L 464 472 Q 496 432 528 472 L 528 560 Z" fill="#0c0e14" opacity="0.9"/><path d="M 562 560 L 562 472 Q 594 432 626 472 L 626 560 Z" fill="#0c0e14" opacity="0.9"/><path d="M 660 560 L 660 472 Q 692 432 724 472 L 724 560 Z" fill="#0c0e14" opacity="0.9"/><path d="M 758 560 L 758 472 Q 790 432 822 472 L 822 560 Z" fill="#0c0e14" opacity="0.9"/><path d="M 856 560 L 856 472 Q 888 432 920 472 L 920 560 Z" fill="#0c0e14" opacity="0.9"/><path d="M 450 410 C 450 265.5, 517.5 240, 600 240 C 682.5 240, 750 265.5, 750 410 Z" fill="#12141c"/><line x1="600" y1="240" x2="600" y2="218" stroke="#d8b45a" stroke-width="3"/><circle cx="600" cy="214" r="4.5" fill="#d8b45a"/><path d="M 600 200 a 8 8 0 1 0 6 13 a 6.4 6.4 0 1 1 -6 -13 Z" fill="#d8b45a"/><rect x="139.0" y="230" width="22" height="330" fill="#12141c"/><rect x="129.1" y="234" width="41.8" height="7" rx="3" fill="#12141c"/><path d="M 131.3 232 C 131.3 210.495, 139.715 206.7, 150 206.7 C 160.285 206.7, 168.7 210.495, 168.7 232 Z" fill="#12141c"/><line x1="150" y1="206.7" x2="150" y2="184.7" stroke="#d8b45a" stroke-width="3"/><circle cx="150" cy="180.7" r="4.5" fill="#d8b45a"/><path d="M 150 166.7 a 8 8 0 1 0 6 13 a 6.4 6.4 0 1 1 -6 -13 Z" fill="#d8b45a"/>
<rect x="0" y="560" width="1200" height="140" fill="#0c0e14"/>

<rect x="0" y="556" width="1200" height="4" fill="#d8b45a" opacity="0.55"/>
</svg>