<svg xmlns="http://www.w3.org/2000/svg" viewBox="0 0 1200 700" role="img">
<defs>
<linearGradient id="sky" x1="0" y1="0" x2="0" y2="1">
<stop offset="0" stop-color="#0a1026"/><stop offset="0.62" stop-color="#152046"/><stop offset="1" stop-color="#2b3a6b"/>
</linearGradient>
<pattern id="g1" width="120" height="120" patternUnits="userSpaceOnUse"><polygon points="111.6,60.0 80.0,68.3 96.5,96.5 68.3,80.0 60.0,111.6 51.7,80.0 23.5,96.5 40.0,68.3 8.4,60.0 40.0,51.7 23.5,23.5 51.7,40.0 60.0,8.4 68.3,40.0 96.5,23.5 80.0,51.7" fill="none" stroke="#e8d9a8" stroke-width="1.6" opacity="0.1"/><rect x="17.4" y="17.4" width="85.2" height="85.2" fill="none" stroke="#e8d9a8" stroke-width="1.6" opacity="0.06999999999999999" transform="rotate(45 60.0 60.0)"/></pattern>
</defs>
<rect width="1200" height="700" fill="url(#sky)"/>
<rect width="1200" height="700" fill="url(#g1)"/>
<circle cx="826" cy="106" r="1.8" fill="#f7ecd2" opacity="0.41"/><circle cx="476" cy="195" r="1.8" fill="#f7ecd2" opacity="0.55"/><circle cx="263" cy="111" r="1.8" fill="#f7ecd2" opacity="0.78"/><circle cx="451" cy="218" r="0.8" fill="#f7ecd2" opacity="0.53"/><circle cx="1112" cy="28" r="0.8" fill="#f7ecd2" opacity="0.71"/><circle cx="302" cy="137" r="1.3" fill="#f7ecd2" opacity="0.59"/><circle cx="109" cy="333" r="1.3" fill="#f7ecd2" opacity="0.82"/><circle cx="557" cy="0" r="1.8" fill="#f7ecd2" opacity="0.35"/><circle cx="998" cy="130" r="0.8" fill="#f7ecd2" opacity="0.75"/><circle cx="928" cy="59" r="0.8" fill="#f7ecd2" opacity="0.37"/><circle cx="755" cy="195" r="1.8" fill="#f7ecd2" opacity="0.60"/><circle cx="263" cy="302" r="1.3" fill="#f7ecd2" opacity="0.61"/><circle cx="484" cy="72" r="1.3" fill="#f7ecd2" opacity="0.83"/><circle cx="1154" cy="161" r="1.3" fill="#f7ecd2" opacity="0.79"/><circle cx="1001" cy="237" r="1.8" fill="#f7ecd2" opacity="0.72"/><circle cx="769" cy="244" r="1.8" fill="#f7ecd2" opacity="0.71"/><circle cx="770" cy="334" r="0.8" fill="#f7ecd2" opacity="0.65"/><circle cx="980" cy="103" r="0.8" fill="#f7ecd2" opacity="0.75"/><circle cx="847" cy="119" r="0.8" fill="#f7ecd2" opacity="0.78"/><circle cx="875" cy="26" r="1.3" fill="#f7ecd2" opacity="0.35"/><circle cx="656" cy="96" r="1.8" fill="#f7ecd2" opacity="0.61"/><circle cx="406" cy="225" r="1.3" fill="#f7ecd2" opacity="0.35"/><circle cx="293" cy="181" r="0.8" fill="#f7ecd2" opacity="0.68"/><circle cx="581" cy="328" r="0.8" fill="#f7ecd2" opacity="0.53"/><circle cx="142" cy="38" r="0.8" fill="#f7ecd2" opacity="0.81"/><circle cx="632" cy="327" r="1.8" fill="#f7ecd2" opacity="0.49"/><circle cx="539" cy="223" r="0.8" fill="#f7ecd2" opacity="0.82"/><circle cx="1087" cy="270" r="1.3" fill="#f7ecd2" opacity="0.75"/><circle cx="428" cy="300" r="1.8" fill="#f7ecd2" opacity="0.35"/><circle cx="458" cy="269" r="1.3" fill="#f7ecd2" opacity="0.37"/><circle cx="385" cy="105" r="1.3" fill="#f7ecd2" opacity="0.60"/><circle cx="1193" cy="52" r="0.8" fill="#f7ecd2" opacity="0.71"/><circle cx="314" cy="62" r="1.3" fill="#f7ecd2" opacity="0.53"/><circle cx="1084" cy="191" r="0.8" fill="#f7ecd2" opacity="0.79"/><circle cx="1031" cy="307" r="0.8" fill="#f7ecd2" opacity="0.52"/><circle cx="899" cy="14" r="1.3" fill="#f7ecd2" opacity="0.71"/><circle cx="1000" cy="144" r="1.3" fill="#f7ecd2" opacity="0.35"/><circle cx="110" cy="153" r="1.8" fill="#f7ecd2" opacity="0.65"/><circle cx="77" cy="209" r="1.3" fill="#f7ecd2" opacity="0.78"/><circle cx="205" cy="156" r="1.3" fill="#f7ecd2" opacity="0.65"/><circle cx="86" cy="266" r="1.3" fill="#f7ecd2" opacity="0.61"/><circle cx="1136" cy="235" r="0.8" fill="#f7ecd2" opacity="0.45"/><circle cx="1123" cy="231" r="1.3" fill="#f7ecd2" opacity="0.48"/><circle cx="311" cy="278" r="1.3" fill="#f7ecd2" opacity="0.43"/><circle cx="1172" cy="168" r="1.8" fill="#f7ecd2" opacity="0.81"/><circle cx="562" cy="17" r="0.8" fill="#f7ecd2" opacity="0.39"/><circle cx="569" cy="293" r="1.3" fill="#f7ecd2" opacity="0.52"/><circle cx="17" cy="240" r="1.8" fill="#f7ecd2" opacity="0.65"/><circle cx="658" cy="110" r="0.8" fill="#f7ecd2" opacity="0.65"/><circle cx="788" cy="119" r="1.3" fill="#f7ecd2" opacity="0.57"/><circle cx="815" cy="335" r="1.3" fill="#f7ecd2" opacity="0.60"/><circle cx="523" cy="182" r="0.8" fill="#f7ecd2" opacity="0.71"/><circle cx="944" cy="32" r="1.3" fill="#f7ecd2" opacity="0.43"/><circle cx="614" cy="61" r="0.8" fill="#f7ecd2" opacity="0.39"/><circle cx="661" cy="217" r="1.8" fill="#f7ecd2" opacity="0.72"/><circle cx="629" cy="304" r="0.8" fill="#f7ecd2" opacity="0.51"/><circle cx="830" cy="134" r="1.3" fill="#f7ecd2" opacity="0.55"/><circle cx="40" cy="183" r="1.3" fill="#f7ecd2" opacity="0.55"/><circle cx="107" cy="279" r="1.8" fill="#f7ecd2" opacity="0.38"/><circle cx="335" cy="266" r="1.3" fill="#f7ecd2" opacity="0.45"/><circle cx="980" cy="120" r="42" fill="#f6ecd0" opacity="0.95"/><circle cx="996" cy="112" r="36" fill="url(#sky)" opacity="0.92"/>
<rect x="240" y="410" width="720" height="150" fill="#12141c"/><path d="M 268 560 L 268 472 Q 300 432 332 472 L 332 560 Z" fill="#0c0e14" opacity="0.9"/><path d="M 366 560 L 366 472 Q 398 432 430 472 L 430 560 Z" fill="#0c0e14" opacity="0.9"/><path d="M 464 560 L 464 472 Q 496 432 528 472 L 528 560 Z" fill="#0c0e14" opacity="0.9"/><path d="M 562 560 L 562 472 Q 594 432 626 472 L 626 560 Z" fill="#0c0e14" opacity="0.9"/><path d="M 660 560 L 660 472 Q 692 432 724 472 L 724 560 Z" fill="#0c0e14" opacity="0.9"/><path d="M 758 560 L 758 472 Q 790 432 822 472 L 822 560 Z" fill="#0c0e14" opacity="0.9"/><path d="M 856 560 L 856 472 Q 888 432 920 472 L 920 560 Z" fill="#0c0e14" opacity="0.9"/><path d="M 450 410 C 450 265.5, 517.5 240, 600 240 C 682.5 240, 750 265.5, 750 410 Z" fill="#d8cdb8"/><line x1="600" y1="240" x2="600" y2="218" stroke="#d8b45a" stroke-width="3"/><circle cx="600" cy="214" r="4.5" fill="#d8b45a"/><path d="M 600 200 a 8 8 0 1 0 6 13 a 6.4 6.4 0 1 1 -6 -13 Z" fill="#d8b45a"/><rect x="109.0" y="230" width="22" height="330" fill="#12141c"/><rect x="99.1" y="234" width="41.8" height="7" rx="3" fill="#12141c"/><path d="M 101.3 232 C 101.3 210.495, 109.715 206.7, 120 206.7 C 130.285 206.7, 138.7 210.495, 138.7 232 Z" fill="#12141c"/><line x1="120" y1="206.7" x2="120" y2="184.7" stroke="#d8b45a" stroke-width="3"/><circle cx="120" cy="180.7" r="4.5" fill="#d8b45a"/><path d="M 120 166.7 a 8 8 0 1 0 6 13 a 6.4 6.4 0 1 1 -6 -13 Z" fill="#d8b45a"/><rect x="589.0" y="230" width="22" height="330" fill="#12141c"/><rect x="579.1" y="234" width="41.8" height="7" rx="3" fill="#12141c"/><path d="M 581.3 232 C 581.3 210.495, 589.715 206.7, 600 206.7 C 610.285 206.7, 618.7 210.495, 618.7 232 Z" fill="#12141c"/><line x1="600" y1="206.7" x2="600" y2="184.7" stroke="#d8b45a" stroke-width="3"/><circle cx="600" cy="180.7" r="4.5" fill="#d8b45a"/><path d="M 600 166.7 a 8 8 0 1 0 6 13 a 6.4 6.4 0 1 1 -6 -13 Z" fill="#d8b45a"/><rect x="1069.0" y="230" width="22" height="330" fill="#12141c"/><rect x="1059.1" y="234" width="41.8" height="7" rx="3" fill="#12141c"/><path d="M 1061.3 232 C 1061.3 210.495, 1069.715 206.7, 1080 206.7 C 1090.285 206.7, 1098.7 210.495, 1098.7 232 Z" fill="#12141c"/><line x1="1080" y1="206.7" x2="1080" y2="184.7" stroke="#d8b45a" stroke-width="3"/><circle cx="1080" cy="180.7" r="4.5" fill="#d8b45a"/><path d="M 1080 166.7 a 8 8 0 1 0 6 13 a 6.4 6.4 0 1 1 -6 -13 Z" fill="#d8b45a"/>
<rect x="0" y="560" width="1200" height="140" fill="#0c0e14"/>

<rect x="0" y="556" width="1200" height="4" fill="#d8b45a" opacity="0.55"/>
</svg>