<svg xmlns="http://www.w3.org/2000/svg" viewBox="0 0 1200 700" role="img">
<defs>
<linearGradient id="sky" x1="0" y1="0" x2="0" y2="1">
<stop offset="0" stop-color="#0a1026"/><stop offset="0.62" stop-color="#152046"/><stop offset="1" stop-color="#2b3a6b"/>
</linearGradient>
<pattern id="g1" width="120" height="120" patternUnits="userSpaceOnUse"><polygon points="111.6,60.0 80.0,68.3 96.5,96.5 68.3,80.0 60.0,111.6 51.7,80.0 23.5,96.5 40.0,68.3 8.4,60.0 40.0,51.7 23.5,23.5 51.7,40.0 60.0,8.4 68.3,40.0 96.5,23.5 80.0,51.7" fill="none" stroke="#e8d9a8" stroke-width="1.6" opacity="0.1"/><rect x="17.4" y="17.4" width="85.2" height="85.2" fill="none" stroke="#e8d9a8" stroke-width="1.6" opacity="0.06999999999999999" transform="rotate(45 60.0 60.0)"/></pattern>
</defs>
<rect width="1200" height="700" fill="url(#sky)"/>
<rect width="1200" height="700" fill="url(#g1)"/>
<circle cx="664" cy="184" r="1.8" fill="#f7ecd2" opacity="0.61"/><circle cx="650" cy="149" r="1.3" fill="#f7ecd2" opacity="0.35"/><circle cx="965" cy="113" r="1.3" fill="#f7ecd2" opacity="0.80"/><circle cx="97" cy="124" r="1.8" fill="#f7ecd2" opacity="0.63"/><circle cx="470" cy="186" r="1.8" fill="#f7ecd2" opacity="0.55"/><circle cx="236" cy="131" r="1.3" fill="#f7ecd2" opacity="0.51"/><circle cx="91" cy="115" r="1.8" fill="#f7ecd2" opacity="0.50"/><circle cx="443" cy="206" r="1.3" fill="#f7ecd2" opacity="0.43"/><circle cx="1076" cy="168" r="1.8" fill="#f7ecd2" opacity="0.53"/><circle cx="622" cy="93" r="1.3" fill="#f7ecd2" opacity="0.81"/><circle cx="17" cy="97" r="0.8" fill="#f7ecd2" opacity="0.84"/><circle cx="389" cy="128" r="1.3" fill="#f7ecd2" opacity="0.77"/><circle cx="82" cy="190" r="1.8" fill="#f7ecd2" opacity="0.65"/><circle cx="608" cy="235" r="0.8" fill="#f7ecd2" opacity="0.65"/><circle cx="743" cy="59" r="1.3" fill="#f7ecd2" opacity="0.72"/><circle cx="1135" cy="30" r="1.3" fill="#f7ecd2" opacity="0.35"/><circle cx="1088" cy="332" r="1.3" fill="#f7ecd2" opacity="0.51"/><circle cx="194" cy="217" r="0.8" fill="#f7ecd2" opacity="0.83"/><circle cx="1069" cy="201" r="1.3" fill="#f7ecd2" opacity="0.54"/><circle cx="281" cy="312" r="1.8" fill="#f7ecd2" opacity="0.57"/><circle cx="494" cy="174" r="1.8" fill="#f7ecd2" opacity="0.41"/><circle cx="580" cy="179" r="0.8" fill="#f7ecd2" opacity="0.55"/><circle cx="995" cy="183" r="1.8" fill="#f7ecd2" opacity="0.70"/><circle cx="227" cy="234" r="1.8" fill="#f7ecd2" opacity="0.53"/><circle cx="700" cy="336" r="1.3" fill="#f7ecd2" opacity="0.35"/><circle cx="566" cy="321" r="1.8" fill="#f7ecd2" opacity="0.71"/><circle cx="521" cy="5" r="1.3" fill="#f7ecd2" opacity="0.40"/><circle cx="973" cy="136" r="1.8" fill="#f7ecd2" opacity="0.63"/><circle cx="506" cy="338" r="1.3" fill="#f7ecd2" opacity="0.63"/><circle cx="152" cy="303" r="1.8" fill="#f7ecd2" opacity="0.41"/><circle cx="847" cy="147" r="1.3" fill="#f7ecd2" opacity="0.44"/><circle cx="119" cy="78" r="1.8" fill="#f7ecd2" opacity="0.67"/><circle cx="1112" cy="320" r="1.3" fill="#f7ecd2" opacity="0.75"/><circle cx="538" cy="265" r="1.8" fill="#f7ecd2" opacity="0.55"/><circle cx="773" cy="129" r="1.8" fill="#f7ecd2" opacity="0.52"/><circle cx="65" cy="0" r="1.8" fill="#f7ecd2" opacity="0.35"/><circle cx="118" cy="2" r="0.8" fill="#f7ecd2" opacity="0.71"/><circle cx="524" cy="67" r="0.8" fill="#f7ecd2" opacity="0.43"/><circle cx="299" cy="291" r="1.8" fill="#f7ecd2" opacity="0.44"/><circle cx="811" cy="242" r="0.8" fill="#f7ecd2" opacity="0.47"/><circle cx="1124" cy="144" r="1.8" fill="#f7ecd2" opacity="0.41"/><circle cx="110" cy="49" r="0.8" fill="#f7ecd2" opacity="0.75"/><circle cx="625" cy="93" r="1.3" fill="#f7ecd2" opacity="0.60"/><circle cx="1157" cy="324" r="1.8" fill="#f7ecd2" opacity="0.53"/><circle cx="530" cy="326" r="1.3" fill="#f7ecd2" opacity="0.65"/><circle cx="496" cy="11" r="0.8" fill="#f7ecd2" opacity="0.41"/><circle cx="551" cy="75" r="1.8" fill="#f7ecd2" opacity="0.60"/><circle cx="1103" cy="246" r="1.8" fill="#f7ecd2" opacity="0.73"/><circle cx="736" cy="148" r="1.8" fill="#f7ecd2" opacity="0.63"/><circle cx="482" cy="153" r="1.8" fill="#f7ecd2" opacity="0.81"/><circle cx="77" cy="237" r="1.8" fill="#f7ecd2" opacity="0.84"/><circle cx="649" cy="8" r="0.8" fill="#f7ecd2" opacity="0.77"/><circle cx="542" cy="150" r="1.8" fill="#f7ecd2" opacity="0.35"/><circle cx="68" cy="135" r="1.8" fill="#f7ecd2" opacity="0.65"/><circle cx="403" cy="39" r="1.3" fill="#f7ecd2" opacity="0.52"/><circle cx="995" cy="90" r="1.8" fill="#f7ecd2" opacity="0.35"/><circle cx="1148" cy="132" r="1.8" fill="#f7ecd2" opacity="0.71"/><circle cx="454" cy="97" r="1.8" fill="#f7ecd2" opacity="0.73"/><circle cx="329" cy="21" r="1.8" fill="#f7ecd2" opacity="0.44"/><circle cx="941" cy="12" r="1.8" fill="#f7ecd2" opacity="0.77"/><circle cx="980" cy="120" r="42" fill="#f6ecd0" opacity="0.95"/><circle cx="996" cy="112" r="36" fill="url(#sky)" opacity="0.92"/>
<rect x="240" y="410" width="720" height="150" fill="#12141c"/><path d="M 268 560 L 268 472 Q 300 432 332 472 L 332 560 Z" fill="#0c0e14" opacity="0.9"/><path d="M 366 560 L 366 472 Q 398 432 430 472 L 430 560 Z" fill="#0c0e14" opacity="0.9"/><path d="M 464 560 L 464 472 Q 496 432 528 472 L 528 560 Z" fill="#0c0e14" opacity="0.9"/><path d="M 562 560 L 562 472 Q 594 432 626 472 L 626 560 Z" fill="#0c0e14" opacity="0.9"/><path d="M 660 560 L 660 472 Q 692 432 724 472 L 724 560 Z" fill="#0c0e14" opacity="0.9"/><path d="M 758 560 L 758 472 Q 790 432 822 472 L 822 560 Z" fill="#0c0e14" opacity="0.9"/><path d="M 856 560 L 856 472 Q 888 432 920 472 L 920 560 Z" fill="#0c0e14" opacity="0.9"/><path d="M 450 410 C 450 265.5, 517.5 240, 600 240 C 682.5 240, 750 265.5, 750 410 Z" fill="#d8cdb8"/><line x1="600" y1="240" x2="600" y2="218" stroke="#d8b45a" stroke-width="3"/><circle cx="600" cy="214" r="4.5" fill="#d8b45a"/><path d="M 600 200 a 8 8 0 1 0 6 13 a 6.4 6.4 0 1 1 -6 -13 Z" fill="#d8b45a"/><rect x="109.0" y="230" width="22" height="330" fill="#12141c"/><rect x="99.1" y="234" width="41.8" height="7" rx="3" fill="#12141c"/><path d="M 101.3 232 C 101.3 210.495, 109.715 206.7, 120 206.7 C 130.285 206.7, 138.7 210.495, 138.7 232 Z" fill="#12141c"/><line x1="120" y1="206.7" x2="120" y2="184.7" stroke="#d8b45a" stroke-width="3"/><circle cx="120" cy="180.7" r="4.5" fill="#d8b45a"/><path d="M 120 166.7 a 8 8 0 1 0 6 13 a 6.4 6.4 0 1 1 -6 -13 Z" fill="#d8b45a"/><rect x="589.0" y="230" width="22" height="330" fill="#12141c"/><rect x="579.1" y="234" width="41.8" height="7" rx="3" fill="#12141c"/><path d="M 581.3 232 C 581.3 210.495, 589.715 206.7, 600 206.7 C 610.285 206.7, 618.7 210.495, 618.7 232 Z" fill="#12141c"/><line x1="600" y1="206.7" x2="600" y2="184.7" stroke="#d8b45a" stroke-width="3"/><circle cx="600" cy="180.7" r="4.5" fill="#d8b45a"/><path d="M 600 166.7 a 8 8 0 1 0 6 13 a 6.4 6.4 0 1 1 -6 -13 Z" fill="#d8b45a"/><rect x="1069.0" y="230" width="22" height="330" fill="#12141c"/><rect x="1059.1" y="234" width="41.8" height="7" rx="3" fill="#12141c"/><path d="M 1061.3 232 C 1061.3 210.495, 1069.715 206.7, 1080 206.7 C 1090.285 206.7, 1098.7 210.495, 1098.7 232 Z" fill="#12141c"/><line x1="1080" y1="206.7" x2="1080" y2="184.7" stroke="#d8b45a" stroke-width="3"/><circle cx="1080" cy="180.7" r="4.5" fill="#d8b45a"/><path d="M 1080 166.7 a 8 8 0 1 0 6 13 a 6.4 6.4 0 1 1 -6 -13 Z" fill="#d8b45a"/>
<rect x="0" y="560" width="1200" height="140" fill="#0c0e14"/>

<rect x="0" y="556" width="1200" height="4" fill="#d8b45a" opacity="0.55"/>
</svg>