<svg xmlns="http://www.w3.org/2000/svg" viewBox="0 0 1200 700" role="img">
<defs>
<linearGradient id="sky" x1="0" y1="0" x2="0" y2="1">
<stop offset="0" stop-color="#0a1026"/><stop offset="0.62" stop-color="#152046"/><stop offset="1" stop-color="#2b3a6b"/>
</linearGradient>
<pattern id="g1" width="120" height="120" patternUnits="userSpaceOnUse"><polygon points="111.6,60.0 80.0,68.3 96.5,96.5 68.3,80.0 60.0,111.6 51.7,80.0 23.5,96.5 40.0,68.3 8.4,60.0 40.0,51.7 23.5,23.5 51.7,40.0 60.0,8.4 68.3,40.0 96.5,23.5 80.0,51.7" fill="none" stroke="#e8d9a8" stroke-width="1.6" opacity="0.1"/><rect x="17.4" y="17.4" width="85.2" height="85.2" fill="none" stroke="#e8d9a8" stroke-width="1.6" opacity="0.06999999999999999" transform="rotate(45 60.0 60.0)"/></pattern>
</defs>
<rect width="1200" height="700" fill="url(#sky)"/>
<rect width="1200" height="700" fill="url(#g1)"/>
<circle cx="707" cy="157" r="0.8" fill="#f7ecd2" opacity="0.84"/><circle cx="189" cy="138" r="0.8" fill="#f7ecd2" opacity="0.67"/><circle cx="912" cy="170" r="1.8" fill="#f7ecd2" opacity="0.75"/><circle cx="1028" cy="85" r="0.8" fill="#f7ecd2" opacity="0.65"/><circle cx="33" cy="239" r="1.8" fill="#f7ecd2" opacity="0.72"/><circle cx="735" cy="300" r="0.8" fill="#f7ecd2" opacity="0.35"/><circle cx="518" cy="92" r="1.3" fill="#f7ecd2" opacity="0.41"/><circle cx="414" cy="327" r="0.8" fill="#f7ecd2" opacity="0.63"/><circle cx="159" cy="301" r="1.3" fill="#f7ecd2" opacity="0.44"/><circle cx="881" cy="302" r="1.3" fill="#f7ecd2" opacity="0.47"/><circle cx="924" cy="334" r="1.3" fill="#f7ecd2" opacity="0.51"/><circle cx="600" cy="209" r="1.8" fill="#f7ecd2" opacity="0.35"/><circle cx="1085" cy="3" r="1.8" fill="#f7ecd2" opacity="0.40"/><circle cx="627" cy="144" r="0.8" fill="#f7ecd2" opacity="0.73"/><circle cx="930" cy="76" r="1.3" fill="#f7ecd2" opacity="0.65"/><circle cx="386" cy="271" r="0.8" fill="#f7ecd2" opacity="0.41"/><circle cx="411" cy="85" r="1.3" fill="#f7ecd2" opacity="0.70"/><circle cx="1173" cy="306" r="0.8" fill="#f7ecd2" opacity="0.73"/><circle cx="536" cy="338" r="1.3" fill="#f7ecd2" opacity="0.53"/><circle cx="972" cy="313" r="1.3" fill="#f7ecd2" opacity="0.71"/><circle cx="537" cy="147" r="0.8" fill="#f7ecd2" opacity="0.74"/><circle cx="119" cy="168" r="1.8" fill="#f7ecd2" opacity="0.77"/><circle cx="942" cy="240" r="0.8" fill="#f7ecd2" opacity="0.65"/><circle cx="1158" cy="195" r="0.8" fill="#f7ecd2" opacity="0.45"/><circle cx="263" cy="49" r="0.8" fill="#f7ecd2" opacity="0.72"/><circle cx="1065" cy="150" r="0.8" fill="#f7ecd2" opacity="0.35"/><circle cx="948" cy="322" r="1.3" fill="#f7ecd2" opacity="0.41"/><circle cx="944" cy="257" r="1.3" fill="#f7ecd2" opacity="0.43"/><circle cx="789" cy="271" r="1.3" fill="#f7ecd2" opacity="0.54"/><circle cx="411" cy="172" r="1.3" fill="#f7ecd2" opacity="0.77"/><circle cx="554" cy="244" r="0.8" fill="#f7ecd2" opacity="0.61"/><circle cx="330" cy="159" r="0.8" fill="#f7ecd2" opacity="0.55"/><circle cx="915" cy="333" r="0.8" fill="#f7ecd2" opacity="0.80"/><circle cx="557" cy="174" r="1.8" fill="#f7ecd2" opacity="0.53"/><circle cx="960" cy="146" r="1.8" fill="#f7ecd2" opacity="0.45"/><circle cx="516" cy="41" r="1.8" fill="#f7ecd2" opacity="0.41"/><circle cx="641" cy="235" r="0.8" fill="#f7ecd2" opacity="0.70"/><circle cx="303" cy="16" r="1.3" fill="#f7ecd2" opacity="0.83"/><circle cx="966" cy="228" r="0.8" fill="#f7ecd2" opacity="0.83"/><circle cx="302" cy="103" r="0.8" fill="#f7ecd2" opacity="0.41"/><circle cx="1167" cy="117" r="0.8" fill="#f7ecd2" opacity="0.74"/><circle cx="849" cy="178" r="1.3" fill="#f7ecd2" opacity="0.57"/><circle cx="572" cy="150" r="1.8" fill="#f7ecd2" opacity="0.35"/><circle cx="888" cy="145" r="1.3" fill="#f7ecd2" opacity="0.45"/><circle cx="93" cy="39" r="0.8" fill="#f7ecd2" opacity="0.62"/><circle cx="995" cy="180" r="1.8" fill="#f7ecd2" opacity="0.35"/><circle cx="978" cy="52" r="1.3" fill="#f7ecd2" opacity="0.41"/><circle cx="1074" cy="27" r="0.8" fill="#f7ecd2" opacity="0.83"/><circle cx="1019" cy="81" r="1.8" fill="#f7ecd2" opacity="0.74"/><circle cx="741" cy="22" r="1.3" fill="#f7ecd2" opacity="0.37"/><circle cx="984" cy="134" r="1.8" fill="#f7ecd2" opacity="0.41"/><circle cx="860" cy="89" r="1.3" fill="#f7ecd2" opacity="0.75"/><circle cx="345" cy="163" r="1.3" fill="#f7ecd2" opacity="0.70"/><circle cx="87" cy="44" r="1.8" fill="#f7ecd2" opacity="0.63"/><circle cx="590" cy="56" r="1.3" fill="#f7ecd2" opacity="0.75"/><circle cx="246" cy="331" r="1.3" fill="#f7ecd2" opacity="0.61"/><circle cx="471" cy="225" r="0.8" fill="#f7ecd2" opacity="0.60"/><circle cx="233" cy="46" r="0.8" fill="#f7ecd2" opacity="0.53"/><circle cx="996" cy="298" r="1.3" fill="#f7ecd2" opacity="0.43"/><circle cx="432" cy="213" r="0.8" fill="#f7ecd2" opacity="0.51"/><circle cx="980" cy="120" r="42" fill="#f6ecd0" opacity="0.95"/><circle cx="996" cy="112" r="36" fill="url(#sky)" opacity="0.92"/>
<rect x="240" y="410" width="720" height="150" fill="#12141c"/><path d="M 268 560 L 268 472 Q 300 432 332 472 L 332 560 Z" fill="#0c0e14" opacity="0.9"/><path d="M 366 560 L 366 472 Q 398 432 430 472 L 430 560 Z" fill="#0c0e14" opacity="0.9"/><path d="M 464 560 L 464 472 Q 496 432 528 472 L 528 560 Z" fill="#0c0e14" opacity="0.9"/><path d="M 562 560 L 562 472 Q 594 432 626 472 L 626 560 Z" fill="#0c0e14" opacity="0.9"/><path d="M 660 560 L 660 472 Q 692 432 724 472 L 724 560 Z" fill="#0c0e14" opacity="0.9"/><path d="M 758 560 L 758 472 Q 790 432 822 472 L 822 560 Z" fill="#0c0e14" opacity="0.9"/><path d="M 856 560 L 856 472 Q 888 432 920 472 L 920 560 Z" fill="#0c0e14" opacity="0.9"/><path d="M 450 410 C 450 265.5, 517.5 240, 600 240 C 682.5 240, 750 265.5, 750 410 Z" fill="#d8cdb8"/><line x1="600" y1="240" x2="600" y2="218" stroke="#d8b45a" stroke-width="3"/><circle cx="600" cy="214" r="4.5" fill="#d8b45a"/><path d="M 600 200 a 8 8 0 1 0 6 13 a 6.4 6.4 0 1 1 -6 -13 Z" fill="#d8b45a"/><rect x="109.0" y="230" width="22" height="330" fill="#12141c"/><rect x="99.1" y="234" width="41.8" height="7" rx="3" fill="#12141c"/><path d="M 101.3 232 C 101.3 210.495, 109.715 206.7, 120 206.7 C 130.285 206.7, 138.7 210.495, 138.7 232 Z" fill="#12141c"/><line x1="120" y1="206.7" x2="120" y2="184.7" stroke="#d8b45a" stroke-width="3"/><circle cx="120" cy="180.7" r="4.5" fill="#d8b45a"/><path d="M 120 166.7 a 8 8 0 1 0 6 13 a 6.4 6.4 0 1 1 -6 -13 Z" fill="#d8b45a"/><rect x="589.0" y="230" width="22" height="330" fill="#12141c"/><rect x="579.1" y="234" width="41.8" height="7" rx="3" fill="#12141c"/><path d="M 581.3 232 C 581.3 210.495, 589.715 206.7, 600 206.7 C 610.285 206.7, 618.7 210.495, 618.7 232 Z" fill="#12141c"/><line x1="600" y1="206.7" x2="600" y2="184.7" stroke="#d8b45a" stroke-width="3"/><circle cx="600" cy="180.7" r="4.5" fill="#d8b45a"/><path d="M 600 166.7 a 8 8 0 1 0 6 13 a 6.4 6.4 0 1 1 -6 -13 Z" fill="#d8b45a"/><rect x="1069.0" y="230" width="22" height="330" fill="#12141c"/><rect x="1059.1" y="234" width="41.8" height="7" rx="3" fill="#12141c"/><path d="M 1061.3 232 C 1061.3 210.495, 1069.715 206.7, 1080 206.7 C 1090.285 206.7, 1098.7 210.495, 1098.7 232 Z" fill="#12141c"/><line x1="1080" y1="206.7" x2="1080" y2="184.7" stroke="#d8b45a" stroke-width="3"/><circle cx="1080" cy="180.7" r="4.5" fill="#d8b45a"/><path d="M 1080 166.7 a 8 8 0 1 0 6 13 a 6.4 6.4 0 1 1 -6 -13 Z" fill="#d8b45a"/>
<rect x="0" y="560" width="1200" height="140" fill="#0c0e14"/>

<rect x="0" y="556" width="1200" height="4" fill="#d8b45a" opacity="0.55"/>
</svg>